<?xml version="1.0" standalone="no"?>
<!DOCTYPE svg PUBLIC "-//W3C//DTD SVG 20010904//EN"
 "http://www.w3.org/TR/2001/REC-SVG-20010904/DTD/svg10.dtd">
<svg version="1.0" xmlns="http://www.w3.org/2000/svg"
 width="1024.000000pt" height="1024.000000pt" viewBox="0 0 1024.000000 1024.000000"
 preserveAspectRatio="xMidYMid meet">

<g transform="translate(0.000000,1024.000000) scale(0.100000,-0.100000)"
fill="#e0e0e0" stroke="none">
<path d="M6070 9963 c-171 -21 -318 -98 -437 -227 -75 -82 -114 -154 -162
-303 l-38 -117 -110 -42 c-133 -50 -283 -116 -340 -150 l-43 -25 0 -178 0
-178 -297 -98 c-164 -54 -324 -112 -356 -128 -75 -39 -159 -130 -185 -200 -40
-107 -43 -151 -40 -697 l3 -525 52 -20 53 -20 -3 -1055 -2 -1055 -94 -38 c-52
-21 -244 -94 -425 -163 -182 -69 -367 -141 -410 -160 -44 -19 -80 -34 -81 -34
-1 0 -3 768 -4 1708 -1 1517 -3 1708 -17 1718 -17 14 -91 38 -1101 357 l-742
235 -78 -29 c-225 -85 -210 -77 -217 -111 -3 -18 -3 -631 1 -1364 l6 -1332
-61 -68 c-51 -58 -427 -519 -530 -650 l-32 -42 0 -139 c0 -123 2 -142 18 -156
10 -10 134 -56 275 -104 l257 -87 0 -839 0 -838 -57 -77 c-106 -143 -213 -305
-213 -323 0 -18 36 -30 972 -344 l396 -133 124 47 c67 26 220 85 338 131 118
45 328 127 465 180 138 54 266 102 286 108 l37 10 6 -46 c18 -131 5 -168 -138
-395 -119 -188 -117 -183 -58 -208 92 -40 293 -113 857 -309 1326 -461 1793
-626 2346 -827 l95 -34 1025 414 c563 228 1173 476 1356 551 183 75 441 179
574 232 134 52 264 107 291 120 l48 24 -1 2638 c-1 1450 -4 2664 -8 2696 l-6
59 -65 23 c-36 13 -195 64 -355 114 -159 50 -684 217 -1165 371 -985 316
-1324 424 -1358 434 -14 4 -21 12 -18 20 3 8 17 72 31 142 72 364 74 733 5
1005 -27 104 -80 236 -121 299 -63 98 -184 180 -314 212 -67 17 -182 27 -235
20z m30 -79 c6 -14 10 -47 10 -74 l0 -49 -55 -6 c-31 -4 -57 -6 -59 -4 -18 25
-66 122 -61 127 6 6 110 30 138 31 10 1 22 -10 27 -25z m194 6 c10 -10 -21
-127 -36 -137 -5 -3 -29 -2 -54 2 l-44 6 0 76 0 76 63 -7 c34 -4 66 -11 71
-16z m109 -36 c18 -9 47 -28 66 -42 l35 -26 -59 -52 -59 -53 -39 20 c-29 15
-37 25 -32 37 3 9 13 43 22 75 9 31 20 57 25 57 5 0 23 -7 41 -16z m-494 -56
c17 -33 31 -66 31 -72 0 -6 -19 -23 -42 -38 -47 -30 -50 -29 -118 30 -41 36
-43 41 -30 57 15 18 109 84 122 84 3 1 20 -27 37 -61z m661 -88 c22 -31 64
-120 58 -125 -10 -8 -109 -55 -118 -55 -6 0 -27 26 -47 57 l-36 56 51 49 c28
26 55 48 61 48 5 0 19 -13 31 -30z m-817 -36 c31 -25 57 -49 57 -52 -1 -4 -16
-25 -35 -47 l-33 -39 -76 18 c-42 10 -76 22 -76 27 0 19 85 139 98 139 4 0 33
-21 65 -46z m518 11 c101 -35 165 -122 213 -287 62 -216 67 -464 15 -772 -19
-111 -44 -235 -54 -263 -3 -9 -39 -1 -127 30 l-123 43 -5 379 c-4 263 -10 387
-18 401 -8 15 -47 34 -129 63 -109 38 -303 111 -311 117 -2 1 11 31 30 66 59
111 158 196 273 235 50 16 173 10 236 -12z m-634 -181 l71 -26 -23 -66 -22
-67 -63 3 c-102 6 -101 3 -72 100 14 45 28 82 31 82 3 0 38 -12 78 -26z m1040
-28 c26 -104 25 -106 -44 -132 -72 -27 -73 -26 -96 64 l-15 63 57 29 c31 16
63 28 71 27 9 -1 20 -22 27 -51z m-815 -187 c79 -28 162 -57 186 -66 23 -8 42
-18 42 -23 0 -17 -315 -137 -562 -214 l-116 -36 -182 60 c-99 33 -187 60 -195
60 -37 0 -7 21 98 68 111 50 270 112 288 112 5 0 9 -17 9 -38 0 -26 7 -45 19
-56 47 -42 180 -43 228 -2 23 20 27 32 31 104 2 45 6 82 8 82 2 0 67 -23 146
-51z m-212 -46 c-9 -56 -16 -62 -77 -70 -66 -7 -93 16 -93 80 0 24 2 46 4 48
3 3 43 0 89 -5 l83 -9 -6 -44z m1064 51 c3 -9 9 -47 12 -85 7 -68 7 -68 -21
-79 -41 -16 -112 -24 -118 -14 -2 5 -8 41 -12 80 l-7 72 64 20 c80 25 75 25
82 6z m-584 -824 c0 -374 -3 -680 -6 -680 -4 0 -38 11 -77 25 -38 14 -96 28
-128 32 -57 6 -59 5 -69 -22 -7 -17 -9 -189 -8 -493 l3 -467 110 -37 c61 -20
265 -84 455 -143 190 -58 783 -243 1318 -412 l972 -306 0 -31 c0 -42 -31 -90
-68 -105 -35 -15 -23 -18 -517 139 -187 60 -691 219 -1120 354 -429 135 -850
267 -935 294 -85 28 -160 47 -167 45 -40 -15 35 -62 160 -100 l87 -27 2 -193
c1 -106 2 -205 2 -220 1 -25 -7 -29 -126 -74 -191 -73 -302 -99 -451 -106
l-127 -6 2 1483 3 1482 225 77 c124 43 275 98 335 123 61 25 113 46 118 47 4
0 7 -305 7 -679z m610 521 c0 -89 8 -82 -102 -97 l-47 -6 -6 34 c-4 18 -5 54
-3 78 l3 45 60 11 c102 20 95 24 95 -65z m-1540 -24 l185 -63 -4 -1474 c-2
-811 -5 -1477 -7 -1478 -5 -7 -199 46 -286 78 l-86 31 -5 67 c-7 113 -7 2888
0 2895 9 10 1 12 203 -56z m1535 -194 c-4 -43 -11 -82 -15 -86 -4 -4 -39 -11
-78 -14 l-72 -6 0 64 c0 106 2 108 79 112 36 2 72 4 79 5 11 2 12 -14 7 -75z
m-1795 -388 c0 -205 -3 -305 -10 -305 -6 0 -66 18 -133 39 -67 22 -234 74
-372 116 -137 42 -253 80 -258 84 -14 14 54 92 114 131 33 21 90 50 127 63 64
24 509 173 525 176 4 0 7 -136 7 -304z m1770 210 c0 -37 -21 -129 -32 -136 -8
-5 -139 9 -146 16 -2 2 2 36 9 74 l12 71 79 0 c76 0 78 -1 78 -25z m-5084
-186 c274 -86 1225 -391 1367 -437 26 -9 47 -19 47 -22 0 -4 -15 -11 -32 -17
-18 -6 -60 -21 -94 -33 l-60 -23 -755 241 c-415 133 -809 258 -876 278 -68 21
-120 40 -117 43 7 7 176 69 190 70 7 1 155 -44 330 -100z m5025 -7 c26 -7 26
-7 14 -55 -7 -26 -14 -50 -17 -52 -4 -5 -132 31 -149 41 -4 2 -3 21 3 42 l10
39 56 -5 c31 -2 69 -7 83 -10z m-5521 -32 c25 -7 176 -54 335 -105 160 -52
430 -137 600 -190 171 -53 415 -130 543 -173 l232 -77 0 -1313 0 -1313 -35
-15 c-19 -7 -37 -14 -40 -14 -3 0 -5 579 -5 1288 0 708 -4 1292 -8 1298 -10
16 -64 34 -722 239 -327 103 -648 204 -714 226 -65 21 -131 39 -147 39 -24 0
-29 -5 -34 -32 -3 -18 -5 -382 -3 -809 3 -751 4 -778 22 -798 13 -14 73 -38
165 -67 313 -99 991 -317 1087 -350 56 -19 110 -34 121 -34 25 0 37 24 20 38
-10 8 -778 260 -1193 392 -73 22 -140 47 -150 55 -18 13 -19 45 -22 779 -2
675 -1 766 13 766 8 0 97 -27 197 -59 101 -33 374 -119 608 -191 234 -72 489
-152 568 -177 l142 -45 0 -1278 0 -1278 -492 164 c-271 90 -645 214 -830 275
l-338 110 0 1335 c0 1267 1 1335 18 1330 9 -3 37 -10 62 -16z m6403 -419
c1094 -350 1774 -566 1956 -623 l34 -11 -74 -23 c-41 -14 -148 -47 -239 -75
-91 -28 -187 -61 -215 -73 -64 -29 -152 -102 -189 -155 -16 -22 -34 -41 -41
-41 -7 0 -228 69 -491 154 -576 185 -1861 596 -1993 637 -52 16 -95 30 -96 32
-1 1 1 138 3 305 4 255 7 302 18 298 8 -3 605 -194 1327 -425z m-3074 218
c163 -49 338 -104 389 -120 l92 -31 2 -36 c3 -56 1 -133 -4 -137 -5 -6 -732
214 -797 241 l-34 14 6 61 c7 64 21 99 39 99 7 0 145 -41 307 -91z m-298 -145
c24 -8 184 -58 354 -110 171 -52 336 -104 368 -116 l57 -20 0 -335 c0 -286 -2
-334 -14 -330 -16 6 -771 247 -798 254 -17 5 -18 30 -18 339 0 184 2 334 4
334 2 0 23 -7 47 -16z m-1067 -130 c3 -9 6 -664 6 -1456 l0 -1440 -22 6 c-13
3 -53 13 -90 22 l-67 16 -47 -38 c-49 -41 -595 -633 -697 -758 -33 -39 -63
-75 -68 -81 -5 -5 -9 40 -9 113 l0 122 118 123 c65 67 197 208 294 312 221
239 264 279 332 309 l56 25 0 1334 0 1334 83 36 c96 41 103 42 111 21z m3158
-200 c341 -105 702 -220 1583 -504 253 -81 559 -180 681 -219 l221 -71 -18
-52 c-10 -29 -18 -65 -19 -80 0 -16 -2 -28 -5 -28 -3 0 -236 74 -518 164 -281
90 -870 277 -1307 416 -437 138 -837 265 -887 281 l-93 31 0 68 c0 61 6 100
15 100 2 0 158 -48 347 -106z m253 -313 c319 -100 810 -256 1090 -347 281 -91
611 -197 735 -235 124 -38 258 -81 298 -95 l72 -26 0 -328 0 -329 -57 19 c-78
26 -1261 401 -1593 505 -146 46 -422 131 -615 190 -192 58 -393 120 -445 138
l-95 32 -3 334 c-2 314 -1 333 15 328 10 -2 279 -86 598 -186z m-2084 -161
c156 -49 336 -107 399 -128 l115 -39 3 -92 c3 -92 3 -93 -20 -86 -13 4 -147
48 -298 97 -151 49 -327 107 -390 127 l-115 38 -3 86 c-2 69 0 87 11 87 8 0
142 -40 298 -90z m5203 29 c8 -42 8 -4886 -1 -5115 l-6 -179 -1010 -410 c-556
-225 -1229 -498 -1496 -606 -267 -107 -526 -212 -574 -233 -48 -21 -90 -36
-93 -34 -2 3 34 80 81 172 l85 166 0 906 0 905 58 26 c31 14 170 69 307 123
296 115 1262 506 1356 548 l66 30 6 62 c4 35 7 544 7 1133 l0 1069 23 -4 c12
-3 52 -13 89 -23 80 -23 130 -12 185 39 35 32 36 35 45 137 5 57 7 271 6 474
l-3 370 30 60 c43 86 143 189 219 224 94 44 548 188 602 190 6 1 14 -13 18
-30z m-5193 -1234 c-2 -528 -6 -963 -10 -966 -3 -4 -49 -23 -101 -42 l-95 -36
-5 27 c-3 15 -4 482 -2 1039 l3 1012 107 -37 107 -37 -4 -960z m299 867 l205
-69 5 -387 c5 -352 7 -389 22 -400 10 -7 74 -32 143 -56 l125 -42 0 -39 c0
-32 -5 -41 -29 -54 -63 -32 -93 -103 -71 -169 13 -40 70 -95 118 -115 l33 -14
-3 -74 -3 -75 -200 -82 c-253 -105 -567 -226 -585 -226 -11 0 -12 86 -7 542 4
298 7 721 7 940 0 376 1 399 18 394 9 -3 109 -37 222 -74z m1850 -485 c162
-52 556 -177 875 -277 319 -101 583 -185 586 -189 4 -3 10 -280 13 -615 7
-585 7 -608 -11 -603 -10 3 -236 81 -503 173 -267 92 -770 262 -1119 379 -348
117 -637 219 -642 226 -18 28 -7 54 33 84 63 46 82 77 82 134 0 59 -23 97 -70
117 -32 14 -35 18 -32 52 l3 37 125 42 c133 45 247 90 268 106 9 7 12 66 12
232 l0 223 43 -13 c23 -7 175 -56 337 -108z m-1100 -503 c80 -3 171 -1 203 4
54 8 58 8 63 -12 10 -41 -10 -100 -38 -114 -76 -36 -267 -40 -375 -7 l-53 16
0 66 0 65 28 -6 c15 -4 92 -10 172 -12z m2757 -19 l113 -36 0 -677 c1 -372 3
-853 6 -1069 3 -215 3 -396 0 -401 -3 -6 -54 6 -123 28 l-118 39 -3 1075 c-1
592 1 1076 5 1076 3 0 58 -16 120 -35z m-2934 -158 c50 -25 243 -35 346 -17
60 10 80 18 111 46 43 39 43 39 64 18 20 -20 21 -83 0 -112 -49 -71 -243 -116
-399 -92 -210 32 -305 119 -229 209 l26 31 22 -32 c12 -18 38 -41 59 -51z
m-3462 -312 c437 -145 808 -270 826 -276 l31 -13 -85 -90 c-47 -50 -187 -200
-310 -333 -124 -134 -229 -243 -234 -243 -5 0 -278 88 -606 196 -329 108 -689
226 -800 262 -112 36 -203 69 -203 74 0 6 230 294 496 621 32 38 63 67 73 67
10 0 376 -119 812 -265z m3888 -117 l1 -137 -29 -20 c-16 -12 -57 -28 -92 -37
-107 -27 -248 6 -270 64 -10 24 -16 349 -7 357 1 1 26 -1 53 -5 69 -12 187
-10 265 4 l65 11 7 -50 c3 -27 6 -112 7 -187z m741 -93 c634 -212 1564 -530
1581 -541 8 -5 14 -64 6 -64 -2 0 -145 49 -318 109 -708 244 -1332 458 -1634
559 -313 105 -320 108 -323 135 -3 26 -1 27 25 21 15 -3 314 -102 663 -219z
m-1192 108 c3 -18 -17 -29 -141 -82 -208 -87 -1531 -612 -1731 -686 -94 -35
-173 -70 -178 -79 -13 -24 -14 -157 -1 -181 8 -14 66 -38 195 -81 412 -139
2599 -898 2674 -929 l42 -16 128 52 c71 29 175 73 231 100 l102 47 122 -40
c68 -22 132 -37 144 -34 36 9 75 46 75 71 0 55 -87 73 -140 29 -28 -24 -34
-25 -73 -16 -23 6 -71 22 -107 35 l-65 25 0 53 0 54 41 -1 c23 0 69 -11 104
-24 62 -23 62 -23 36 -37 -31 -16 -35 -43 -6 -43 11 0 38 7 60 16 l40 16 196
-68 c139 -48 191 -70 178 -75 -11 -4 -140 -57 -289 -119 -148 -62 -359 -147
-467 -190 l-197 -77 -1193 414 c-656 227 -1409 488 -1673 578 -539 185 -735
256 -735 266 0 8 533 225 1380 562 1041 414 1224 486 1235 483 6 -1 11 -12 13
-23z m1710 -445 c2 -27 1 -48 -1 -48 -3 0 -164 54 -358 121 -195 66 -464 155
-599 198 l-245 77 -3 51 -3 50 603 -201 603 -201 3 -47z m-1711 250 l-2 -113
-100 -43 c-121 -54 -549 -228 -890 -362 -137 -54 -329 -130 -427 -169 -97 -39
-182 -71 -189 -71 -7 0 -85 23 -173 51 -105 33 -155 54 -146 59 8 4 195 78
415 164 220 86 648 255 950 375 303 121 553 220 558 220 4 1 6 -50 4 -111z
m692 -19 l154 -52 -54 -20 c-54 -19 -310 -121 -382 -152 l-38 -16 3 37 c3 34
7 39 44 51 22 7 56 26 75 42 32 27 34 32 34 95 0 36 2 66 5 66 3 0 74 -23 159
-51z m-211 -35 c-2 -23 -13 -34 -47 -51 -34 -18 -47 -20 -53 -10 -19 29 -7 52
40 79 52 29 65 25 60 -18z m-389 2 c7 -8 11 -27 9 -42 -3 -26 -3 -26 -25 -8
-12 11 -24 34 -28 52 -6 31 -5 33 12 23 11 -5 25 -17 32 -25z m231 -112 l0
-91 -31 -7 c-46 -9 -102 -7 -119 4 -11 6 -16 29 -17 77 -4 112 -6 109 87 108
l80 0 0 -91z m770 15 c85 -28 159 -55 163 -59 8 -7 -188 -94 -488 -216 -77
-31 -192 -78 -255 -104 l-114 -47 -24 29 c-16 19 -33 28 -53 28 l-29 0 0 89 0
89 33 11 c19 6 157 61 308 121 151 60 281 110 289 110 8 0 85 -23 170 -51z
m-3342 6 c80 -24 84 -36 80 -212 -3 -128 -7 -154 -26 -194 -46 -96 -156 -92
-244 7 -56 64 -59 159 -8 261 29 58 113 153 135 153 6 0 35 -7 63 -15z m2333
-25 c13 -7 19 -21 19 -43 0 -46 21 -80 59 -98 l34 -16 -59 -28 c-252 -117
-1151 -506 -1249 -540 l-51 -18 -174 58 c-96 32 -179 60 -184 63 -5 2 252 109
570 237 319 127 635 256 704 285 163 69 271 109 293 109 10 1 27 -4 38 -9z
m-4113 -279 l792 -262 0 -109 c0 -62 -4 -110 -9 -110 -5 0 -22 5 -38 11 -15 6
-327 110 -693 230 -366 120 -711 235 -767 255 l-103 36 0 102 c0 96 4 121 19
112 3 -2 363 -121 799 -265z m6165 95 c182 -63 401 -138 485 -167 l152 -54 0
-41 0 -42 -500 166 -500 167 0 49 c0 39 3 47 15 42 9 -3 165 -57 348 -120z
m-610 58 l172 -57 -40 -18 c-33 -15 -894 -382 -1797 -765 l-176 -75 -159 57
c-87 31 -164 59 -171 63 -8 5 70 42 195 93 399 166 799 336 893 381 52 25 250
108 440 185 190 77 370 151 400 165 30 14 59 26 63 26 5 1 86 -24 180 -55z
m-4054 -43 c-6 -17 -9 -62 -7 -100 4 -82 31 -127 107 -181 28 -19 50 -37 50
-40 1 -3 -38 -20 -87 -39 -48 -19 -122 -50 -164 -69 l-78 -35 0 -157 0 -158
32 -13 c18 -7 138 -50 268 -94 l235 -81 0 -484 0 -485 -175 -67 c-501 -193
-754 -288 -756 -285 -2 2 -4 379 -4 838 l-1 834 43 52 c24 28 127 143 229 255
102 112 214 236 249 276 35 40 65 71 67 69 2 -2 -2 -18 -8 -36z m2769 -113 l3
-75 -40 -11 c-50 -16 -87 -45 -76 -62 4 -7 30 -22 56 -34 l49 -21 -162 -69
c-90 -38 -269 -112 -398 -166 -129 -54 -274 -116 -322 -138 l-86 -40 -168 59
c-92 33 -169 61 -172 63 -6 7 35 26 403 184 193 83 472 205 620 270 149 66
275 119 280 118 6 -2 11 -36 13 -78z m1725 6 c93 -31 167 -57 165 -59 -2 -2
-102 -45 -223 -95 -121 -50 -571 -240 -1001 -421 -429 -181 -791 -329 -805
-329 -24 0 -318 97 -332 110 -5 4 58 35 140 70 81 34 369 156 638 270 270 114
605 256 745 315 140 59 300 127 355 151 55 23 111 43 125 43 14 1 101 -24 193
-55z m423 -141 c99 -32 169 -60 161 -64 -7 -4 -354 -152 -772 -329 -418 -177
-854 -363 -970 -412 -115 -50 -228 -97 -250 -105 -40 -16 -40 -15 -208 47 -93
34 -165 66 -160 70 12 11 1996 846 2016 849 5 1 87 -25 183 -56z m-2050 6 c3
-6 0 -17 -7 -24 -11 -11 -24 -11 -61 -3 -54 13 -62 25 -20 31 54 8 81 7 88 -4z
m-4481 -109 c271 -94 936 -310 954 -310 21 0 21 -1 23 -832 2 -458 2 -836 0
-840 -1 -4 -46 9 -100 29 -53 19 -304 104 -556 189 -253 85 -463 160 -468 166
-9 16 -11 1632 -1 1642 4 4 14 4 22 0 9 -3 66 -23 126 -44z m6878 -13 l38 -16
-3 -76 -3 -77 -180 -72 c-99 -40 -295 -122 -435 -181 -303 -128 -655 -271
-726 -295 -42 -15 -61 -16 -98 -8 -57 12 -93 -7 -102 -51 -6 -27 -19 -34 -183
-98 l-176 -69 -128 52 c-71 29 -130 54 -133 57 -3 2 33 19 78 37 46 18 220 92
388 165 272 119 1146 489 1435 609 119 49 157 53 228 23z m-4540 -53 l177 -59
0 -62 0 -62 -186 64 c-103 36 -188 65 -190 65 -2 0 -4 27 -4 61 0 45 3 60 13
56 6 -2 92 -31 190 -63z m446 -149 l180 -60 1 -64 c0 -46 -3 -62 -12 -58 -7 2
-96 33 -197 67 l-183 63 6 36 c3 20 6 47 6 59 0 13 4 22 9 20 5 -1 90 -30 190
-63z m-1058 -65 c85 -29 813 -281 1619 -560 806 -280 1507 -522 1559 -540 52
-17 118 -40 148 -51 l53 -20 0 -105 c0 -57 -4 -104 -9 -104 -13 0 -247 81
-493 171 -123 45 -873 310 -1668 590 l-1445 507 -3 101 -3 101 45 -19 c24 -11
113 -43 197 -71z m5187 0 l-3 -41 -245 -98 c-135 -54 -393 -160 -575 -236
-416 -173 -383 -162 -442 -140 -27 11 -41 20 -33 23 26 8 1254 514 1270 523
26 15 31 10 28 -31z m-3635 -113 l117 -40 0 -59 c0 -44 -3 -58 -12 -55 -7 3
-91 32 -185 64 l-173 58 0 62 0 62 68 -26 c37 -14 120 -43 185 -66z m3641 -18
c8 -40 8 -163 0 -211 -6 -36 -9 -38 -113 -82 -238 -100 -588 -244 -622 -256
-33 -12 -45 -9 -212 50 -97 34 -177 64 -177 67 0 8 131 63 780 329 179 73 328
133 331 134 4 0 9 -14 13 -31z m-3357 -73 c48 -18 125 -45 171 -60 l82 -28 0
-59 c0 -32 -3 -59 -7 -59 -5 0 -82 26 -173 59 l-165 58 -3 62 c-2 33 -1 61 2
61 2 0 44 -15 93 -34z m510 -183 l163 -56 0 -57 0 -58 -142 50 c-79 28 -159
56 -178 63 -34 12 -35 14 -38 70 -3 51 -1 57 15 51 9 -4 90 -32 180 -63z
m-1960 1 l33 -14 0 -420 c0 -231 -2 -420 -5 -420 -2 0 -27 -9 -55 -20 l-50
-20 0 461 0 460 22 -7 c12 -3 36 -13 55 -20z m1258 -443 c638 -225 1275 -450
1415 -500 140 -50 276 -99 301 -108 l46 -16 129 51 c71 28 137 54 147 57 16 7
17 -34 17 -769 0 -459 -4 -776 -9 -776 -5 0 -582 201 -1283 446 -700 245
-1356 474 -1458 509 -102 35 -249 87 -326 115 -134 49 -142 54 -148 82 -12 60
-4 1319 8 1318 1 0 523 -184 1161 -409z m3654 379 c123 -35 210 -84 187 -107
-16 -16 -1970 -804 -2028 -819 l-28 -6 0 109 0 110 28 13 c15 7 191 79 392
160 201 81 523 214 715 295 395 166 635 264 650 265 6 0 44 -9 84 -20z m-2554
-79 c170 -62 173 -65 174 -135 1 -32 -2 -37 -16 -33 -10 3 -87 30 -170 59
l-153 53 0 58 c0 31 1 57 3 57 2 0 74 -26 162 -59z m895 -100 c0 -9 5 -22 12
-29 6 -6 9 -14 6 -17 -10 -10 -320 -135 -334 -135 -10 0 -14 13 -14 44 l0 43
58 23 c184 72 257 98 264 94 4 -3 8 -13 8 -23z m-460 -61 l65 -29 3 -52 c3
-46 1 -51 -15 -45 -10 4 -71 26 -135 49 l-118 41 0 57 0 58 68 -25 c37 -14 96
-38 132 -54z m-2756 -662 c11 -95 7 -293 -6 -310 -7 -9 -87 -44 -178 -79 -91
-34 -349 -133 -575 -220 -225 -87 -417 -159 -425 -161 -20 -4 -18 11 32 227
l42 180 339 130 c187 72 430 165 541 207 110 42 206 77 212 77 6 1 14 -23 18
-51z m-1724 -224 c289 -96 531 -178 538 -183 17 -10 -74 -395 -92 -388 -6 2
-294 100 -641 217 -346 117 -631 214 -633 216 -5 3 104 166 174 261 l53 72 38
-10 c21 -6 274 -89 563 -185z m1831 -270 c24 -9 170 -60 324 -114 154 -54 737
-258 1295 -455 558 -197 1078 -379 1155 -405 77 -26 197 -69 268 -95 l127 -47
0 -65 c0 -48 -3 -64 -12 -61 -69 26 -842 300 -1908 676 l-1295 458 -3 62 c-2
34 -1 62 1 62 3 0 24 -7 48 -16z m1184 -604 c611 -216 1250 -441 1420 -500
317 -111 441 -155 508 -184 l39 -16 -88 -169 -87 -169 -61 23 c-209 79 -607
220 -1041 370 -275 95 -693 242 -930 325 -236 84 -546 192 -688 241 -262 91
-528 187 -535 193 -2 2 37 69 86 148 49 78 94 153 100 164 l12 22 77 -28 c43
-16 578 -205 1188 -420z"/>
<path d="M5129 6455 c-89 -49 -76 -186 23 -237 47 -25 87 -17 128 24 24 24 30
38 30 74 0 25 -7 58 -15 74 -31 60 -116 93 -166 65z m114 -76 c9 -12 17 -35
17 -52 0 -66 -65 -89 -114 -41 -31 32 -34 71 -6 107 18 22 24 24 53 16 17 -5
40 -18 50 -30z"/>
<path d="M5162 6368 c-16 -16 -15 -53 1 -65 39 -30 77 -14 77 32 0 37 -52 59
-78 33z"/>
<path d="M1360 7931 c-16 -30 -14 -992 3 -1014 19 -25 81 -48 428 -157 435
-136 657 -208 697 -225 25 -11 32 -20 31 -37 -4 -49 2 -79 17 -85 9 -3 20 0
25 8 12 20 12 1105 -1 1129 -7 13 -79 41 -237 93 -349 115 -941 307 -947 307
-3 0 -10 -9 -16 -19z m600 -229 l545 -178 3 -467 c1 -257 0 -467 -3 -467 -3 0
-21 6 -40 14 -18 8 -150 51 -292 96 -142 44 -372 118 -510 162 l-253 82 0 468
c0 257 1 468 3 468 2 0 248 -80 547 -178z"/>
<path d="M1392 6787 c-49 -52 -4 -137 73 -137 81 0 87 109 8 149 -33 17 -57
13 -81 -12z m62 -40 c10 -7 16 -22 14 -34 -5 -31 -48 -12 -48 22 0 28 8 31 34
12z"/>
<path d="M1655 6715 c-29 -29 -33 -79 -9 -114 19 -27 79 -55 97 -45 66 37 77
102 26 153 -38 39 -80 41 -114 6z m76 -35 c19 -11 27 -64 11 -74 -14 -8 -57
18 -60 37 -8 41 12 56 49 37z"/>
<path d="M1920 6628 c-31 -32 -23 -103 15 -135 38 -33 97 -32 124 3 40 50 19
113 -45 140 -47 20 -70 17 -94 -8z m89 -47 c26 -26 17 -61 -15 -61 -16 0 -28
8 -36 24 -22 49 13 75 51 37z"/>
<path d="M2201 6524 c-29 -37 -22 -79 19 -116 38 -35 79 -36 110 -3 50 53 13
131 -67 142 -35 5 -42 2 -62 -23z m94 -64 c0 -31 -17 -35 -45 -12 -20 16 -21
21 -11 41 11 20 14 21 34 8 12 -8 22 -25 22 -37z"/>
<path d="M1209 6384 c-20 -21 -22 -35 -26 -181 -3 -87 0 -218 4 -291 8 -111
12 -134 28 -146 33 -24 218 -88 270 -93 43 -4 53 -2 70 17 19 21 20 37 21 269
2 308 1 319 -51 348 -37 21 -174 70 -257 91 -32 9 -39 7 -59 -14z m161 -79
c62 -19 121 -42 131 -51 17 -15 19 -33 19 -151 0 -106 -3 -133 -14 -133 -7 0
-70 18 -140 40 l-126 41 0 144 c0 80 4 145 9 145 5 0 59 -16 121 -35z m10
-359 l135 -43 3 -90 3 -91 -33 7 c-18 5 -79 23 -135 41 -78 26 -103 39 -107
54 -6 20 -8 166 -3 166 1 0 63 -20 137 -44z"/>
<path d="M1705 6178 c-35 -42 -34 -91 4 -129 22 -21 39 -29 66 -29 43 0 85 36
85 75 0 33 -55 93 -97 104 -29 9 -35 6 -58 -21z m79 -41 c22 -16 18 -60 -6
-65 -9 -2 -26 6 -38 18 -16 16 -18 24 -10 40 12 23 29 25 54 7z"/>
<path d="M1931 6104 c-12 -15 -21 -37 -21 -50 0 -35 55 -92 102 -105 36 -9 43
-8 64 12 50 47 20 129 -59 158 -44 17 -64 13 -86 -15z m79 -34 c16 0 40 -31
40 -51 0 -24 -36 -26 -62 -2 -23 21 -25 68 -2 59 9 -3 19 -6 24 -6z"/>
<path d="M2190 6053 c-78 -30 -61 -117 32 -164 34 -18 44 -19 69 -8 41 17 53
42 39 85 -18 54 -97 104 -140 87z m73 -71 c25 -22 22 -52 -5 -52 -29 0 -58 28
-58 57 0 21 3 23 23 17 12 -3 30 -13 40 -22z"/>
<path d="M1706 5959 c-34 -27 -34 -63 3 -99 71 -72 170 -39 137 45 -13 32 -68
75 -96 75 -10 0 -29 -9 -44 -21z m88 -62 c14 -21 2 -31 -27 -23 -22 5 -42 38
-30 50 8 8 46 -10 57 -27z"/>
<path d="M2392 5957 c-28 -29 -28 -57 0 -92 21 -27 89 -64 119 -65 26 0 59 39
59 69 0 81 -126 143 -178 88z m101 -45 c20 -18 23 -62 3 -62 -21 0 -66 40 -66
59 0 34 25 35 63 3z"/>
<path d="M1935 5890 c-39 -43 -14 -108 52 -136 45 -19 70 -17 93 6 31 31 25
67 -19 111 -45 46 -95 53 -126 19z m93 -42 c14 -12 17 -58 3 -58 -5 0 -21 4
-35 10 -20 7 -26 16 -26 40 0 28 3 31 23 24 12 -3 28 -11 35 -16z"/>
<path d="M2162 5817 c-30 -32 -28 -68 6 -99 70 -66 146 -65 167 2 9 28 -22 74
-65 99 -49 27 -81 27 -108 -2z m99 -48 c27 -27 21 -55 -11 -51 -27 2 -60 35
-60 58 0 21 47 17 71 -7z"/>
<path d="M1694 5785 c-21 -32 -10 -62 29 -86 42 -25 99 -25 121 0 35 39 -3 79
-93 100 -38 8 -43 7 -57 -14z m87 -45 l24 -19 -22 -1 c-12 0 -27 9 -33 20 -14
26 1 26 31 0z"/>
<path d="M2391 5744 c-25 -32 -26 -47 -5 -84 35 -59 116 -79 154 -38 36 39 20
93 -40 127 -51 28 -84 27 -109 -5z m112 -56 c6 -20 -3 -38 -21 -38 -33 0 -66
52 -46 73 9 8 61 -19 67 -35z"/>
<path d="M1931 5686 c-36 -38 -10 -94 56 -122 44 -19 77 -17 96 4 36 40 10
100 -54 126 -54 22 -72 20 -98 -8z m97 -39 c19 -15 15 -47 -6 -47 -25 0 -56
35 -49 54 6 16 29 13 55 -7z"/>
<path d="M2167 5622 c-67 -74 83 -192 151 -119 12 13 22 30 22 38 0 25 -30 58
-70 79 -49 25 -82 25 -103 2z m91 -48 c30 -20 28 -44 -2 -44 -27 0 -56 24 -56
46 0 19 30 18 58 -2z"/>
<path d="M2406 5549 c-60 -48 -7 -149 79 -149 82 0 101 106 27 143 -52 27 -78
28 -106 6z m92 -57 c16 -22 10 -36 -17 -40 -29 -5 -51 15 -51 45 0 22 3 24 28
19 15 -4 33 -15 40 -24z"/>
<path d="M6792 7135 c-87 -19 -126 -46 -156 -107 -61 -122 -9 -255 126 -324
93 -47 213 -23 285 59 79 90 62 273 -33 357 -31 27 -41 30 -97 29 -34 0 -90
-7 -125 -14z m178 -58 c78 -52 99 -162 47 -250 -24 -40 -73 -87 -92 -87 -3 0
5 15 18 33 76 100 77 197 5 290 -34 42 -26 47 22 14z m-96 -16 c70 -44 92
-151 47 -224 -24 -40 -84 -77 -124 -77 -59 0 -137 93 -137 164 0 44 37 112 73
135 40 26 100 27 141 2z"/>
<path d="M7409 6936 c-62 -17 -104 -48 -128 -99 -66 -138 -9 -283 133 -336
116 -43 227 -14 291 77 28 41 30 49 30 136 0 86 -2 96 -30 142 -43 69 -91 94
-180 93 -38 0 -91 -6 -116 -13z m202 -59 c19 -12 44 -42 57 -67 45 -87 12
-207 -69 -255 l-34 -19 18 24 c34 48 57 112 57 160 0 60 -12 91 -51 141 -35
44 -28 49 22 16z m-117 -1 c93 -39 121 -191 49 -268 -56 -59 -126 -61 -185 -4
-83 81 -63 228 36 272 40 17 59 17 100 0z"/>
<path d="M8081 6735 c-78 -22 -114 -48 -143 -102 -52 -97 -44 -190 22 -266 79
-89 217 -123 310 -75 93 48 144 163 121 276 -14 69 -35 106 -84 146 -33 26
-47 31 -105 33 -38 2 -91 -4 -121 -12z m179 -50 c64 -33 100 -131 80 -216 -14
-56 -67 -123 -111 -138 l-31 -11 32 37 c43 49 60 92 60 155 0 62 -28 126 -72
163 -27 23 -28 25 -8 25 11 0 34 -7 50 -15z m-91 -32 c61 -46 86 -124 62 -196
-18 -54 -82 -107 -130 -107 -47 0 -97 32 -123 80 -27 49 -21 145 11 185 52 67
121 82 180 38z"/>
<path d="M918 5423 c-79 -91 -173 -198 -209 -240 -37 -42 -76 -93 -88 -114
l-22 -38 23 -15 c13 -8 151 -56 308 -106 157 -50 463 -149 680 -220 217 -71
407 -130 421 -132 23 -3 50 23 205 192 234 256 294 325 294 338 0 21 -62 43
-603 218 -298 96 -615 199 -704 228 l-162 53 -143 -164z m469 1 c164 -52 444
-143 622 -200 179 -58 353 -115 388 -125 l64 -20 -53 -58 c-29 -32 -124 -138
-211 -234 l-158 -176 -52 15 c-29 9 -146 46 -262 84 -115 38 -383 124 -595
191 -370 116 -460 147 -460 155 0 3 165 195 346 402 31 34 59 62 65 62 5 0
143 -43 306 -96z"/>
<path d="M1067 5423 c-4 -3 -7 -15 -7 -25 0 -21 40 -41 101 -53 29 -5 38 -3
43 11 9 25 -18 50 -69 63 -51 13 -59 13 -68 4z"/>
<path d="M1267 5353 c-4 -3 -7 -14 -7 -23 0 -13 30 -26 120 -54 l120 -38 -21
-29 c-28 -40 -31 -94 -5 -94 19 0 23 4 50 68 14 33 20 37 51 37 42 0 47 22 11
45 -25 17 -269 94 -297 95 -9 0 -19 -3 -22 -7z"/>
<path d="M1000 5240 c0 -26 32 -42 176 -85 122 -37 159 -41 159 -15 0 21 -75
54 -201 90 -127 35 -134 36 -134 10z"/>
<path d="M1689 5206 c-45 -31 -73 -94 -59 -131 6 -16 25 -32 47 -42 36 -15 40
-14 81 7 88 47 110 140 41 175 -40 21 -69 19 -110 -9z m85 -32 c26 -10 18 -40
-19 -73 -40 -34 -37 -33 -59 -25 -23 9 -20 54 6 81 22 23 43 28 72 17z"/>
<path d="M830 5144 c-27 -32 21 -65 138 -94 60 -16 81 -6 63 28 -11 20 -51 39
-138 65 -45 13 -53 14 -63 1z"/>
<path d="M1963 5143 c-12 -32 16 -49 163 -95 136 -43 150 -45 162 -30 19 25
-1 38 -114 76 -178 62 -204 68 -211 49z"/>
<path d="M1097 5063 c-31 -31 26 -74 102 -77 39 -1 46 2 46 18 0 30 -127 81
-148 59z"/>
<path d="M1385 5028 c-66 -39 -74 -113 -15 -143 71 -37 182 -5 204 58 27 76
-103 134 -189 85z m133 -52 c15 -14 15 -18 1 -31 -38 -38 -139 -34 -139 5 0
10 8 26 17 35 21 21 97 15 121 -9z"/>
<path d="M1844 4998 c-12 -19 33 -46 132 -78 140 -45 186 -54 196 -38 19 31
11 35 -163 88 -147 44 -155 45 -165 28z"/>
<path d="M1650 4894 c-21 -25 3 -38 173 -93 180 -59 232 -67 232 -36 0 17 -25
28 -170 76 -213 71 -220 73 -235 53z"/>
<path d="M2926 4793 c-7 -8 5 -34 36 -77 16 -22 31 -57 34 -78 6 -33 26 -58
48 -58 3 0 6 19 6 43 0 48 -28 115 -60 145 -22 21 -55 34 -64 25z"/>
<path d="M1245 4168 c-47 -26 -86 -74 -101 -126 -52 -178 114 -333 263 -247
126 74 122 294 -6 362 -48 25 -121 30 -156 11z m11 -64 c-15 -15 -35 -42 -42
-60 -18 -43 -25 -44 -13 -1 8 29 59 87 77 87 4 0 -6 -12 -22 -26z m143 -10
l31 -25 -3 -102 -2 -102 -35 -12 c-44 -15 -125 -16 -150 -3 -25 13 -50 92 -32
98 7 2 22 23 33 45 40 79 82 123 121 126 3 1 20 -11 37 -25z"/>
<path d="M1681 3909 c-17 -17 -34 -41 -37 -55 -18 -70 38 -156 109 -169 31 -6
43 -3 72 19 69 53 69 144 -1 206 -48 42 -101 42 -143 -1z m122 -46 c19 -18 23
-73 7 -104 -14 -25 -51 -24 -84 2 -51 40 -24 138 34 124 14 -4 33 -14 43 -22z"/>
</g>
</svg>
