<?xml version="1.0" standalone="no"?>
<!DOCTYPE svg PUBLIC "-//W3C//DTD SVG 20010904//EN"
 "http://www.w3.org/TR/2001/REC-SVG-20010904/DTD/svg10.dtd">
<svg version="1.0" xmlns="http://www.w3.org/2000/svg"
 width="1024.000000pt" height="1024.000000pt" viewBox="0 0 1024.000000 1024.000000"
 preserveAspectRatio="xMidYMid meet">

<g transform="translate(0.000000,1024.000000) scale(0.100000,-0.100000)"
fill="#e0e0e0" stroke="none">
<path d="M2835 9405 c-203 -122 -750 -448 -1215 -725 -465 -276 -900 -536
-967 -577 l-123 -74 0 -1554 0 -1554 43 -29 c23 -16 166 -102 317 -192 151
-90 328 -197 394 -237 l118 -74 57 32 c31 18 82 49 114 71 75 51 1537 933
2265 1367 l272 163 -2 1550 -3 1550 -390 225 c-360 207 -500 285 -507 282 -2
-1 -169 -102 -373 -224z m499 124 c272 -150 717 -412 709 -419 -8 -7 -783
-468 -1089 -648 -94 -55 -215 -127 -268 -161 -53 -34 -104 -61 -112 -61 -9 0
-160 85 -337 189 -177 103 -359 209 -404 235 -46 26 -83 50 -83 52 0 2 59 39
132 81 73 43 400 239 728 435 327 196 599 357 604 357 5 1 59 -27 120 -60z
m736 -1319 l0 -870 -64 52 -64 53 -3 75 c-1 41 -1 347 0 680 2 597 -1 662 -29
620 -5 -8 -10 -66 -10 -129 0 -99 -2 -112 -16 -107 -9 4 -34 -7 -61 -26 l-45
-33 4 -170 c3 -93 8 -178 12 -187 11 -23 33 -23 74 2 l32 20 0 -356 c0 -284
-3 -354 -12 -347 -7 6 -41 31 -75 57 l-63 47 0 580 c0 318 -2 579 -5 579 -2 0
-28 -15 -57 -34 -29 -18 -123 -72 -208 -119 -85 -48 -303 -176 -485 -285
l-330 -198 -6 -110 c-3 -60 -7 -404 -8 -765 -1 -577 0 -658 14 -669 13 -11 15
-88 15 -617 0 -333 3 -603 8 -601 20 9 586 350 807 487 138 85 292 179 343
210 l92 56 0 470 0 470 62 35 c35 19 66 37 70 38 5 2 8 -239 8 -536 l0 -540
-247 -150 c-137 -82 -394 -237 -573 -344 -1176 -706 -1671 -1005 -1735 -1048
-41 -28 -77 -50 -80 -50 -3 0 -5 685 -5 1523 l0 1523 62 40 c35 23 145 89 246
148 100 59 247 146 325 193 907 551 1994 1202 2005 1203 1 0 2 -392 2 -870z
m-2270 437 c476 -275 615 -356 674 -394 l68 -44 -318 -193 c-176 -106 -418
-252 -539 -325 -121 -72 -232 -138 -246 -148 -27 -16 -27 -16 -325 162 -448
267 -519 311 -519 319 0 16 1094 666 1120 666 6 0 44 -20 85 -43z m1910 -498
l0 -531 -34 26 c-19 14 -41 26 -49 26 -8 0 -17 14 -21 31 -3 17 -6 231 -6 475
l0 444 53 30 c28 16 53 30 55 30 1 0 2 -239 2 -531z m-140 -31 l0 -483 -143
-86 c-222 -134 -707 -420 -723 -426 -12 -4 -14 66 -14 480 l0 485 203 126
c242 150 647 384 665 385 9 1 12 -102 12 -481z m334 406 c12 -32 5 -54 -27
-78 -47 -36 -57 -33 -57 18 0 34 5 47 23 59 29 21 53 21 61 1z m-4 -206 c0
-82 0 -83 -31 -100 -17 -10 -35 -18 -40 -18 -5 0 -9 36 -9 79 0 79 0 79 33 99
17 11 35 21 40 21 4 1 7 -36 7 -81z m-2899 -585 c157 -94 309 -186 337 -204
l52 -34 0 -1524 c0 -1446 -1 -1523 -17 -1517 -21 8 -554 328 -698 419 l-100
63 -3 1527 -2 1526 72 -43 c40 -24 202 -120 359 -213z m2703 -154 c119 -87
326 -250 326 -258 0 -4 -69 -47 -152 -97 -84 -49 -337 -202 -562 -341 l-410
-252 -35 30 c-20 16 -68 55 -108 87 l-72 57 -1 137 0 137 33 17 c30 16 243
143 692 412 110 66 204 120 209 121 5 0 41 -22 80 -50z m364 -356 l3 -51 -83
-47 c-46 -26 -164 -96 -263 -155 -99 -59 -279 -165 -400 -236 -121 -70 -261
-154 -311 -186 -50 -32 -94 -58 -97 -58 -4 0 -7 24 -7 53 l0 53 238 144 c622
377 897 540 907 537 5 -2 11 -26 13 -54z m-178 -651 l0 -448 -217 -135 c-257
-159 -948 -578 -949 -575 -1 0 -4 252 -7 559 -5 435 -4 557 6 557 7 0 43 -25
82 -54 50 -39 74 -52 85 -46 8 5 231 139 495 299 264 159 486 290 493 290 9 1
12 -95 12 -447z m-1019 -29 c-1 -37 -4 -69 -6 -71 -1 -2 -41 28 -88 65 l-86
68 -1 77 0 78 92 -75 91 -74 -2 -68z"/>
<path d="M2235 7844 c-137 -80 -332 -195 -433 -255 -100 -61 -198 -117 -216
-126 l-34 -16 -7 -911 c-8 -1082 -4 -1841 10 -1855 7 -6 46 13 115 55 58 36
274 167 480 292 l375 228 2 610 c2 335 -1 949 -5 1364 -6 659 -9 755 -22 758
-8 1 -127 -63 -265 -144z m249 64 c3 -18 7 -617 8 -1332 l3 -1298 -385 -234
c-212 -129 -414 -252 -449 -275 -35 -22 -66 -37 -70 -34 -3 4 -7 609 -9 1344
l-3 1338 248 144 c136 78 336 196 443 261 107 64 198 117 202 118 4 0 10 -15
12 -32z"/>
<path d="M2154 7644 c-131 -80 -301 -182 -377 -226 l-138 -81 3 -318 c3 -311
4 -319 25 -340 15 -15 28 -20 45 -16 14 4 162 88 329 188 167 100 324 193 348
208 l44 26 2 335 c2 289 0 337 -13 353 -8 9 -18 17 -22 17 -3 0 -114 -66 -246
-146z m246 -218 l0 -324 -242 -143 c-134 -78 -279 -164 -323 -190 -116 -69
-134 -76 -146 -58 -5 8 -9 148 -9 311 l0 297 113 69 c61 38 191 117 287 175
96 57 204 123 240 145 36 23 68 41 73 41 4 1 7 -145 7 -323z"/>
<path d="M2290 7643 c-204 -121 -502 -300 -532 -320 l-38 -26 0 -268 c0 -224
2 -269 14 -269 8 0 85 43 172 96 88 53 228 137 312 187 l152 91 0 201 c0 228
-8 335 -24 335 -6 -1 -31 -13 -56 -27z m38 -260 l-3 -236 -280 -168 c-193
-116 -282 -164 -287 -156 -4 7 -8 111 -8 233 l0 221 103 63 c233 144 461 280
469 280 5 0 7 -106 6 -237z"/>
<path d="M2224 6860 l-62 -40 6 -47 c9 -86 14 -89 85 -49 l62 34 3 71 c4 87
-5 90 -94 31z m66 -37 c0 -32 -6 -41 -36 -61 -40 -26 -54 -22 -54 16 0 21 10
33 43 54 23 15 43 28 45 28 1 0 2 -17 2 -37z"/>
<path d="M2025 6744 c-52 -30 -75 -59 -75 -95 0 -29 18 -79 29 -79 3 0 31 15
61 33 52 31 55 36 58 77 4 54 -4 90 -21 89 -6 0 -30 -12 -52 -25z m45 -59 c0
-16 -11 -29 -36 -44 -19 -12 -37 -21 -40 -21 -2 0 -4 14 -4 30 0 23 7 35 32
50 36 22 48 18 48 -15z"/>
<path d="M2238 6639 c-66 -41 -68 -43 -68 -83 0 -43 22 -86 43 -86 7 0 37 15
67 33 l54 33 -2 54 c-3 61 -10 90 -20 90 -4 0 -37 -19 -74 -41z m60 -60 c-2
-11 -22 -31 -45 -45 l-43 -25 0 34 c0 28 7 39 37 60 32 23 39 24 46 12 5 -9 7
-25 5 -36z"/>
<path d="M1805 6620 c-27 -16 -56 -37 -62 -47 -20 -26 -16 -80 7 -103 l21 -21
47 27 c62 35 82 59 82 98 0 30 -23 77 -38 75 -4 0 -29 -13 -57 -29z m55 -55
c0 -18 -10 -30 -39 -44 -42 -22 -51 -19 -51 14 0 14 12 28 37 42 42 24 53 22
53 -12z"/>
<path d="M2014 6501 c-65 -41 -79 -65 -68 -120 11 -51 23 -53 98 -9 l68 40 -6
46 c-3 24 -6 53 -6 63 0 28 -18 23 -86 -20z m54 -51 c-2 -13 -20 -32 -45 -47
l-43 -25 0 30 c0 23 8 35 38 55 40 27 56 23 50 -13z"/>
<path d="M2284 6443 c-67 -38 -236 -138 -377 -223 l-257 -155 0 -358 c0 -356
3 -397 34 -397 8 0 52 24 98 53 46 28 205 124 355 211 149 88 282 167 294 177
l24 18 -2 357 c-3 355 -5 384 -37 384 -6 0 -66 -30 -132 -67z m136 -311 l0
-347 -47 -31 c-27 -17 -149 -90 -273 -162 -124 -72 -263 -154 -310 -184 -46
-29 -88 -54 -92 -56 -4 -2 -8 154 -8 346 l0 349 258 153 c141 85 295 176 342
203 47 28 94 56 105 63 11 7 21 13 23 13 1 1 2 -155 2 -347z"/>
<path d="M1793 6372 c-57 -40 -74 -80 -57 -131 13 -37 41 -36 104 2 50 30 55
36 58 73 4 51 -12 94 -35 94 -10 -1 -42 -18 -70 -38z m65 -39 c-2 -30 -10 -42
-37 -60 -38 -26 -51 -23 -51 12 0 22 61 85 83 85 4 0 7 -17 5 -37z"/>
<path d="M3185 8265 c-104 -63 -247 -149 -318 -192 l-127 -77 2 -316 c3 -307
4 -315 23 -317 11 -1 166 86 345 195 l325 197 7 50 c8 64 8 431 -1 510 -6 58
-7 60 -36 62 -22 1 -78 -27 -220 -112z m220 -210 l0 -278 -313 -188 c-173
-104 -315 -189 -318 -189 -2 0 -4 128 -4 284 l0 284 93 59 c50 33 160 99 242
148 83 48 179 105 215 126 36 22 70 37 75 36 6 -2 10 -105 10 -282z"/>
<path d="M3279 8237 c-42 -23 -164 -96 -272 -162 l-196 -120 -1 -237 c0 -152
4 -239 10 -243 6 -4 66 27 133 69 67 42 188 115 269 163 l147 88 1 237 c0 130
-4 239 -8 242 -4 2 -42 -14 -83 -37z m55 -33 c3 -9 6 -98 6 -199 l0 -183 -112
-70 c-133 -82 -368 -222 -374 -222 -2 0 -4 90 -4 200 l0 200 42 27 c65 44 422
262 429 262 4 1 10 -6 13 -15z"/>
<path d="M3480 7444 c-63 -36 -141 -79 -172 -96 -32 -17 -58 -34 -58 -38 0
-22 230 -215 249 -208 33 11 330 195 331 204 0 12 -218 204 -232 204 -1 0 -55
-30 -118 -66z"/>
<path d="M2967 7101 c-148 -87 -147 -72 -17 -184 l111 -96 97 61 c103 65 132
87 132 98 0 12 -198 180 -212 179 -7 0 -57 -27 -111 -58z"/>
<path d="M3593 6442 l-212 -127 -1 -212 c0 -116 4 -214 9 -217 16 -10 21 38
21 224 l0 186 149 87 c195 114 271 164 271 177 0 20 -29 6 -237 -118z"/>
<path d="M3640 6369 c-91 -55 -168 -108 -172 -117 -9 -22 -9 -272 0 -294 7
-16 9 -16 37 3 17 11 93 58 171 104 l141 84 7 89 c6 88 -1 232 -13 232 -3 -1
-80 -46 -171 -101z m150 -74 l0 -124 -142 -84 c-120 -71 -144 -82 -150 -68 -4
9 -7 61 -7 117 -1 84 2 104 17 117 22 20 264 167 274 167 4 0 8 -56 8 -125z"/>
<path d="M5410 9097 l-25 -13 -5 -358 -5 -358 -90 -56 c-50 -32 -154 -93 -232
-137 l-143 -80 0 -49 c0 -33 6 -56 17 -68 9 -10 96 -66 192 -124 97 -57 189
-115 206 -128 l29 -23 4 -214 4 -214 -84 -46 c-45 -25 -91 -49 -100 -52 -13
-5 -18 -17 -18 -44 1 -37 4 -40 78 -85 42 -26 91 -56 107 -67 l30 -20 165 98
c150 89 165 100 168 128 3 27 -3 33 -75 76 -134 80 -124 62 -121 214 l3 131
130 -77 c72 -43 246 -147 389 -232 142 -85 269 -164 282 -176 24 -22 24 -23
24 -246 l0 -224 -92 -54 c-87 -51 -93 -56 -95 -89 -3 -34 0 -36 100 -99 l102
-64 93 49 c51 27 123 67 160 89 63 38 67 42 70 81 l3 41 -98 60 -98 60 -3 147
c-2 118 0 147 10 143 7 -2 128 -74 268 -159 140 -85 306 -183 368 -217 l112
-63 -2 -216 -3 -216 -102 -61 c-100 -59 -102 -61 -103 -97 0 -36 3 -39 73 -79
39 -23 89 -53 109 -66 21 -12 44 -23 51 -23 7 0 69 34 137 76 68 42 142 85
165 96 49 25 55 33 54 78 0 34 -3 37 -107 96 l-107 61 -3 121 c-1 67 0 122 3
122 3 0 59 -31 123 -69 64 -37 178 -102 252 -144 74 -42 209 -121 300 -175
l165 -98 0 -245 0 -244 -92 -55 -93 -55 0 -43 c0 -42 1 -43 68 -86 38 -25 84
-52 103 -61 l34 -16 110 62 c61 34 142 82 181 105 l70 43 -5 43 c-6 42 -9 45
-118 118 l-113 75 0 133 c0 72 3 132 6 132 3 0 167 -97 365 -216 l359 -215 0
-204 0 -204 -32 -23 c-18 -13 -69 -41 -113 -64 -79 -40 -80 -41 -80 -80 0 -38
1 -39 100 -101 55 -34 105 -62 110 -62 6 -1 57 26 115 60 58 33 140 79 183
101 71 37 77 43 77 72 0 29 -8 36 -110 100 l-110 68 2 195 3 194 135 76 c212
118 215 121 215 173 0 44 -1 46 -63 86 -34 22 -112 70 -172 105 l-109 64 -3
403 c-3 386 -4 404 -22 418 -25 18 -77 18 -101 0 -11 -8 -18 -26 -18 -45 0
-17 -4 -31 -9 -31 -25 0 -276 99 -360 142 -121 62 -201 122 -305 231 l-83 87
0 73 c0 69 -2 74 -25 85 -58 27 -115 2 -115 -49 0 -37 -5 -37 -137 7 -272 90
-479 228 -635 422 -46 58 -49 65 -43 102 11 64 -2 100 -41 116 -58 24 -113
-22 -98 -82 5 -18 3 -23 -7 -20 -388 123 -572 223 -734 398 l-65 70 0 67 c0
84 -14 106 -68 106 -49 0 -72 -18 -72 -56 0 -16 -4 -29 -8 -29 -5 0 -64 20
-133 45 -303 110 -491 233 -624 410 -51 68 -55 78 -55 127 0 59 -5 70 -37 87
-27 14 -32 14 -63 -2z m68 -389 c1 -197 -1 -358 -6 -358 -4 0 -20 6 -35 13
l-27 12 0 348 0 348 33 -3 32 -3 3 -357z m159 45 c119 -118 309 -227 558 -318
122 -45 164 -65 138 -65 -28 0 -250 86 -358 139 -193 95 -343 207 -426 316
-47 62 -52 87 -6 30 17 -22 60 -68 94 -102z m78 -131 c138 -102 352 -205 548
-264 l78 -23 -3 -267 c-2 -146 -6 -269 -9 -273 -4 -3 -32 9 -62 27 -52 30 -57
36 -57 70 0 35 -4 39 -102 106 -100 67 -259 167 -306 191 -18 9 -27 10 -37 1
-11 -9 -40 4 -134 61 l-121 73 0 244 0 245 68 -70 c37 -38 99 -92 137 -121z
m709 -148 c14 -5 16 -48 16 -380 0 -206 -2 -374 -5 -374 -4 0 -19 7 -35 15
l-30 16 0 358 c0 197 3 361 7 364 8 9 27 9 47 1z m-981 -150 c73 -37 267 -159
265 -166 -2 -5 -62 -41 -133 -81 l-130 -72 3 -75 c4 -85 -3 -76 128 -150 51
-29 142 -85 205 -126 l112 -74 91 52 c191 109 216 127 216 160 l0 29 58 -32
c31 -18 135 -82 230 -141 94 -60 268 -166 385 -236 116 -71 256 -157 309 -193
l98 -64 0 -45 c0 -43 -2 -46 -50 -74 l-49 -30 -3 -125 c-2 -72 -7 -126 -13
-128 -6 -2 -150 81 -320 183 -171 102 -506 303 -745 447 -239 143 -554 334
-700 425 -146 91 -301 187 -345 214 -44 27 -80 54 -80 59 0 9 411 257 428 259
4 0 22 -7 40 -16z m1252 -235 c89 -61 285 -154 441 -208 76 -27 140 -54 142
-60 2 -6 -54 9 -124 34 -308 110 -498 217 -633 360 -83 88 -58 85 32 -4 45
-45 109 -100 142 -122z m-127 38 c159 -132 259 -186 537 -291 l170 -63 3 -287
c2 -239 0 -286 -11 -279 -8 4 -189 115 -403 246 l-389 238 0 255 c0 139 1 254
3 254 1 0 42 -33 90 -73z m-610 -76 c84 -52 152 -97 152 -101 0 -5 -46 -34
-102 -66 -57 -31 -110 -62 -119 -67 -12 -7 -34 2 -90 40 -41 27 -113 73 -161
102 -49 30 -88 56 -88 60 1 12 235 138 246 132 6 -3 79 -48 162 -100z m-950
-38 c26 -15 112 -68 192 -119 80 -50 352 -216 605 -369 253 -153 631 -382 840
-508 209 -126 490 -293 625 -371 135 -78 301 -178 370 -222 69 -45 190 -116
270 -159 183 -98 247 -136 605 -355 160 -97 360 -219 445 -269 85 -51 157 -94
159 -96 2 -2 1 -11 -3 -20 -8 -21 -16 -16 -366 195 -157 95 -924 553 -1705
1018 -781 464 -1512 901 -1625 970 -113 69 -257 157 -320 195 -134 81 -150 94
-150 119 0 23 3 23 58 -9z m705 -140 c59 -36 107 -67 107 -70 0 -6 -33 12
-152 84 -60 35 -108 66 -108 69 0 7 32 -11 153 -83z m-129 26 c132 -74 286
-173 286 -183 0 -14 -27 0 -212 111 -156 93 -198 123 -171 123 4 0 48 -23 97
-51z m1780 45 c14 -5 16 -51 16 -415 l0 -408 -28 -15 -29 -15 -6 157 c-4 86
-7 275 -7 419 0 239 2 263 18 272 21 13 17 12 36 5z m-1244 -44 c-28 -22 -194
-110 -207 -110 -4 0 44 30 107 65 121 68 141 77 100 45z m-514 -66 c60 -37
143 -88 186 -113 42 -25 79 -54 81 -64 5 -16 18 -10 99 46 106 73 179 117 196
117 7 0 12 -7 12 -15 0 -16 -69 -65 -203 -143 l-88 -52 -165 100 c-227 138
-244 150 -244 171 0 11 4 19 9 19 5 0 57 -30 117 -66z m553 20 c-27 -26 -234
-154 -249 -154 -20 0 -9 19 24 45 18 14 78 52 132 84 97 59 138 70 93 25z
m1540 -368 c110 -73 230 -129 386 -182 137 -46 164 -58 153 -69 -8 -9 -251 81
-366 136 -168 79 -314 187 -417 307 -79 94 -49 76 63 -36 59 -59 140 -129 181
-156z m-2229 -67 l0 -216 -25 -11 c-19 -9 -27 -8 -40 4 -13 13 -15 53 -15 255
l0 240 40 -28 40 -28 0 -216z m2035 160 c133 -135 337 -251 595 -339 l135 -47
-3 -264 c-2 -145 -5 -265 -7 -267 -3 -3 -130 73 -148 89 -5 3 -2 21 7 37 13
26 15 48 9 128 l-8 96 -110 69 c-60 38 -161 99 -222 135 l-112 66 -88 -53
c-49 -29 -98 -59 -110 -67 l-23 -14 0 251 c0 138 3 251 8 251 4 0 39 -32 77
-71z m829 -275 c8 -61 8 -689 0 -697 -4 -4 -20 1 -35 10 l-29 17 0 358 0 358
29 0 c26 0 29 -3 35 -46z m-2791 -20 c18 -9 47 -27 65 -41 l33 -25 -123 -70
c-68 -39 -129 -73 -136 -75 -12 -5 -152 74 -152 86 0 4 28 23 63 43 l62 36 6
-29 c13 -60 42 -72 104 -42 34 16 35 18 35 75 0 32 2 58 5 58 4 0 20 -7 38
-16z m2261 -136 c83 -50 166 -101 184 -113 l34 -23 -94 -55 c-51 -30 -141 -82
-200 -116 l-106 -62 -53 27 c-91 45 -319 184 -319 193 0 15 370 241 394 241 5
0 77 -41 160 -92z m-2138 34 c-7 -11 -258 -162 -270 -162 -25 0 15 30 134 100
126 74 150 85 136 62z m2948 -237 c97 -64 203 -115 371 -175 115 -42 154 -60
127 -60 -27 0 -273 95 -366 141 -132 66 -232 137 -311 220 -93 100 -80 109 15
12 44 -45 118 -107 164 -138z m-3355 155 c73 -40 105 -64 100 -79 -4 -11 -150
76 -163 98 -11 17 2 13 63 -19z m1157 -31 l34 -21 0 -233 c0 -207 -2 -235 -16
-243 -27 -15 -51 -2 -58 30 -8 41 -8 488 0 488 4 0 22 -9 40 -21z m2198 -184
c110 -66 274 -139 415 -185 l96 -32 0 -284 c0 -156 -3 -284 -8 -284 -5 0 -74
42 -155 94 -81 51 -217 136 -302 188 -86 52 -186 115 -223 139 l-67 44 0 259
0 259 74 -71 c40 -38 117 -96 170 -127z m-556 28 c-2 -42 -8 -68 -15 -71 -9
-2 -13 7 -13 27 0 19 -5 31 -13 31 -22 0 -26 -11 -15 -36 9 -20 8 -28 -9 -47
-11 -12 -23 -31 -27 -42 -3 -11 -33 -34 -68 -52 -35 -18 -107 -62 -161 -97
l-98 -64 3 95 3 96 75 45 c190 112 315 182 327 182 11 0 13 -16 11 -67z m-642
-54 l186 -111 -3 -113 c-2 -62 -8 -117 -12 -122 -9 -8 -21 -2 -234 124 l-143
84 0 124 c0 73 4 125 10 125 5 0 93 -50 196 -111z m1809 -57 c7 -5 9 -181 7
-529 l-4 -523 -22 0 c-46 0 -46 -5 -46 542 l0 518 28 0 c15 0 32 -4 37 -8z
m-1065 -142 c41 -24 122 -75 180 -114 58 -38 191 -122 295 -186 105 -65 252
-156 327 -204 75 -47 144 -89 154 -93 14 -5 15 -21 11 -127 -2 -67 -8 -131
-12 -143 -5 -16 -1 -28 19 -47 27 -28 66 -33 110 -16 26 9 26 10 26 126 0 106
1 116 18 109 29 -11 262 -156 262 -163 0 -8 -182 -117 -313 -187 l-88 -47
-117 67 c-64 38 -273 164 -465 282 -191 118 -397 241 -457 274 -61 34 -110 64
-110 68 0 3 34 23 74 44 112 57 218 135 206 150 -5 7 -18 22 -28 34 -16 20
-190 121 -245 142 -21 8 -36 3 -95 -35 -65 -41 -91 -69 -77 -82 7 -8 66 21
114 56 l40 29 86 -44 c47 -24 85 -48 85 -53 0 -7 -210 -130 -223 -130 -3 0
-44 25 -92 55 -49 30 -94 55 -102 55 -37 0 4 -38 109 -101 58 -34 74 -59 40
-59 -18 0 -262 140 -262 150 0 6 136 86 272 160 54 29 107 64 120 77 19 20 24
21 42 10 12 -8 55 -33 96 -57z m-1578 -31 c21 -13 38 -27 38 -30 0 -6 -243
-149 -254 -149 -12 0 -146 82 -146 89 0 7 101 71 112 71 3 0 9 -11 12 -25 7
-26 51 -55 84 -55 31 0 44 25 50 95 l5 65 31 -18 c17 -10 48 -29 68 -43z m68
-69 c0 -18 -265 -168 -276 -157 -5 4 147 98 251 155 25 14 25 14 25 2z m714
-179 c8 -173 7 -313 -3 -329 -5 -8 -22 -12 -42 -10 l-34 3 -9 115 c-5 64 -5
177 -1 253 l7 136 38 -21 37 -22 7 -125z m-1041 47 c22 -19 26 -26 12 -21 -40
13 -145 82 -145 95 0 12 92 -40 133 -74z m1657 -117 c0 -11 -5 -23 -11 -27
-15 -9 -33 12 -26 30 9 23 37 20 37 -3z m-495 -167 c41 -25 75 -47 75 -49 0
-6 -226 -139 -272 -160 l-36 -18 -76 48 c-42 27 -76 51 -76 54 0 4 30 25 68
48 l67 42 8 -40 c7 -32 15 -43 46 -59 l38 -19 37 25 c34 24 37 30 35 67 -2 57
0 107 6 107 2 0 38 -21 80 -46z m93 -99 c-23 -23 -304 -183 -306 -175 -2 6 -2
13 -1 14 17 15 305 174 308 170 2 -2 2 -6 -1 -9z m-439 -94 c37 -21 75 -49 86
-62 18 -21 16 -21 -30 6 -60 34 -135 84 -135 90 0 11 17 3 79 -34z m1188 -17
l33 -25 -2 -252 -3 -252 -24 -3 c-48 -7 -51 11 -51 295 0 145 3 263 7 263 3 0
21 -12 40 -26z m1232 -214 c-12 -10 -92 -57 -178 -105 -86 -48 -170 -96 -187
-106 -17 -10 -33 -16 -36 -13 -19 18 17 48 139 113 75 41 168 93 207 117 58
35 72 40 75 27 2 -9 -7 -24 -20 -33z m-1097 -176 c32 -20 72 -47 89 -62 l31
-25 -54 -34 c-101 -65 -249 -144 -261 -141 -22 6 -157 83 -157 90 0 4 30 25
68 47 66 39 67 39 70 16 4 -28 39 -61 74 -70 19 -5 32 -1 47 14 18 18 21 33
21 111 0 50 3 90 6 90 4 0 33 -16 66 -36z m763 -591 c-6 -27 -36 -30 -59 -7
-14 13 -16 51 -16 263 l0 248 38 15 37 14 3 -256 c1 -140 0 -265 -3 -277z
m-640 451 c-26 -20 -312 -184 -321 -184 -17 0 -174 104 -174 116 0 8 35 -10
82 -41 44 -30 86 -55 93 -55 6 0 81 40 166 89 142 83 203 112 154 75z m763
-377 c34 -21 62 -42 62 -45 0 -4 -69 -43 -153 -86 l-152 -79 -79 48 -78 48 78
43 c44 24 82 44 87 44 4 0 7 -9 7 -20 0 -60 43 -91 103 -73 l32 9 3 82 c2 61
6 81 15 76 7 -4 40 -25 75 -47z m76 -92 c-30 -22 -293 -167 -312 -171 -9 -2
-55 21 -102 51 -47 30 -78 55 -69 55 8 0 48 -21 88 -46 l72 -47 47 22 c26 12
101 53 167 90 66 38 122 67 124 65 3 -2 -4 -11 -15 -19z"/>
<path d="M5772 8060 c-77 -35 -43 -67 35 -35 31 13 38 13 52 1 26 -23 81 -47
91 -41 18 11 10 32 -17 44 -105 48 -117 51 -161 31z"/>
<path d="M7952 6871 c-16 -10 -12 -53 4 -58 7 -2 13 11 16 32 4 37 2 40 -20
26z"/>
<path d="M7851 6814 c-16 -14 -34 -25 -38 -24 -12 1 -15 -47 -5 -67 9 -15 12
-12 19 17 6 22 19 40 38 50 29 16 47 50 27 50 -6 0 -24 -11 -41 -26z"/>
<path d="M7745 6758 c-9 -22 -2 -68 10 -71 14 -3 19 63 6 76 -7 7 -12 5 -16
-5z"/>
<path d="M7664 6695 c-18 -43 -17 -45 1 -45 8 0 15 5 15 12 0 9 3 9 12 0 16
-16 28 -15 24 1 -3 6 -7 24 -10 40 -9 37 -24 34 -42 -8z"/>
<path d="M7250 6837 l0 -63 38 -13 c20 -7 90 -44 155 -83 65 -39 120 -68 123
-65 3 3 2 26 -1 51 -8 48 -23 61 -32 26 -7 -27 -13 -26 -66 15 -25 19 -76 49
-113 67 -37 18 -70 39 -72 47 -3 10 0 12 12 8 9 -4 16 -2 16 4 0 13 -42 69
-52 69 -4 0 -8 -28 -8 -63z"/>
<path d="M5729 5951 c-114 -37 -152 -106 -89 -166 37 -36 33 -42 -11 -16 -19
12 -37 21 -41 21 -18 0 -5 -42 27 -88 19 -28 39 -70 44 -93 10 -42 14 -48 64
-75 34 -19 39 -69 6 -79 -11 -4 -47 -32 -79 -64 -41 -41 -61 -69 -70 -99 -6
-24 -14 -41 -18 -39 -18 10 -626 372 -771 459 -90 54 -171 98 -179 98 -9 0
-57 -24 -107 -53 -49 -30 -111 -66 -137 -80 -68 -39 -78 -53 -78 -102 0 -43 0
-43 -67 -81 -38 -20 -318 -187 -623 -369 -305 -183 -600 -358 -655 -390 -55
-32 -108 -65 -117 -73 -17 -14 -18 -44 -18 -366 l0 -351 -63 -33 c-34 -17 -90
-50 -124 -72 -57 -36 -63 -43 -63 -74 0 -18 8 -43 18 -54 9 -11 78 -55 152
-97 74 -43 149 -88 167 -101 17 -13 34 -24 37 -24 3 0 81 45 173 100 92 55
187 111 211 124 38 23 42 29 42 63 l0 38 -135 80 -135 80 0 163 c0 89 3 162 6
162 8 0 117 -64 1368 -797 604 -355 1263 -739 1465 -855 646 -372 1636 -959
1707 -1013 l34 -26 0 -133 0 -133 -107 -58 c-165 -88 -163 -86 -163 -153 0
-67 -18 -51 235 -200 l160 -93 35 16 c62 29 321 186 341 206 15 15 19 31 17
66 l-3 46 -127 76 -127 76 -1 212 c0 116 -3 218 -6 226 -7 19 27 41 378 243
150 86 386 223 523 304 138 80 276 160 308 178 l57 32 0 -122 -1 -123 -106
-60 c-137 -77 -143 -83 -143 -145 0 -49 1 -51 46 -78 25 -15 108 -66 184 -113
l139 -86 78 42 c43 23 132 75 198 116 l120 74 3 56 3 56 -93 60 c-51 33 -110
70 -130 82 l-38 23 0 323 0 324 -42 25 c-24 13 -234 134 -468 269 -234 134
-783 453 -1220 709 -437 256 -925 540 -1085 633 -431 250 -577 338 -589 358
-16 25 1 46 74 88 147 85 149 99 50 295 -85 168 -130 225 -200 250 -28 10 -48
23 -46 29 3 5 12 35 22 65 9 30 21 61 27 68 17 21 1 92 -31 131 -50 62 -152
101 -213 82z m-864 -318 c127 -75 322 -191 435 -258 113 -67 220 -130 238
-139 l32 -17 0 -122 -1 -122 -20 27 c-22 30 -89 74 -294 193 -77 45 -214 126
-305 181 -91 55 -240 144 -332 199 -92 55 -168 103 -168 107 0 12 155 97 170
92 8 -3 119 -66 245 -141z m899 82 c11 -8 15 -15 10 -15 -6 0 -19 7 -30 15
-10 8 -14 14 -9 14 6 0 19 -6 29 -14z m-41 -22 c17 -8 36 -31 47 -58 10 -24
29 -49 42 -56 l23 -12 -30 -9 c-65 -17 -112 19 -130 99 -3 18 -11 35 -16 38
-5 4 -9 11 -9 16 0 12 30 4 73 -18z m197 -24 c0 -37 -49 -73 -87 -63 -16 4
-53 51 -53 66 0 9 140 7 140 -3z m-1350 -102 c146 -88 661 -395 843 -501 53
-31 97 -61 97 -67 0 -14 -92 -111 -98 -104 -3 3 0 11 6 17 17 17 15 42 -6 54
-10 7 -67 40 -128 74 -60 35 -290 171 -511 302 -222 132 -411 241 -420 242
-10 2 -19 11 -21 22 -2 14 8 24 35 36 21 9 43 16 48 15 6 -1 75 -42 155 -90z
m1399 -26 c24 -15 30 -96 37 -479 l7 -372 -41 -39 c-118 -112 -326 -137 -346
-41 -8 41 -8 94 0 154 5 37 12 50 29 56 42 16 55 48 55 135 0 110 -19 318 -30
329 -19 19 -22 -51 -10 -179 14 -146 10 -232 -11 -246 -20 -14 -68 -2 -112 27
-36 24 -38 27 -24 47 8 12 24 23 36 25 38 6 51 57 51 197 0 105 3 132 20 164
28 55 81 95 184 138 65 28 94 46 105 65 17 29 27 33 50 19z m-1165 -254 c237
-140 469 -276 515 -302 l84 -49 -39 -34 c-45 -39 -272 -172 -293 -172 -19 0
-97 44 -417 236 -149 89 -289 171 -310 182 l-39 20 -75 -41 c-41 -22 -98 -55
-126 -74 l-51 -33 -72 37 -72 37 23 17 c12 10 20 21 16 24 -9 9 -47 -12 -84
-47 -17 -16 -73 -53 -125 -82 -68 -38 -95 -59 -97 -74 -4 -25 -14 -27 -42 -10
-16 10 -25 7 -67 -28 -26 -22 -78 -62 -115 -88 -56 -39 -68 -53 -68 -75 0 -30
17 -50 66 -74 39 -20 98 -5 121 30 14 21 13 26 -11 67 -14 25 -31 48 -36 51
-19 12 -10 35 20 50 39 20 49 19 43 -5 -7 -27 20 -56 77 -85 25 -13 217 -125
428 -249 210 -124 388 -226 395 -226 6 0 111 59 232 130 121 72 266 156 322
188 79 44 101 61 97 74 -5 18 9 29 151 112 52 30 87 45 101 42 13 -4 39 6 68
24 26 17 50 30 53 30 4 0 32 -16 62 -36 l56 -36 2 -175 2 -174 -73 39 c-41 22
-99 56 -131 76 -46 30 -55 40 -50 57 8 24 -25 65 -65 82 -21 8 -22 11 -7 14
24 6 11 23 -17 23 -38 0 -57 -35 -60 -110 -1 -41 26 -60 92 -60 33 0 65 -13
150 -62 153 -87 162 -95 162 -128 0 -25 -10 -34 -82 -76 -111 -63 -381 -228
-546 -332 l-133 -84 34 -24 c19 -13 126 -75 238 -137 112 -63 269 -156 349
-206 80 -50 150 -91 155 -91 6 0 96 50 200 111 105 62 280 163 390 226 243
139 267 162 209 200 -25 16 -28 16 -58 -1 -142 -83 -306 -176 -311 -176 -3 0
-5 160 -5 355 0 195 2 355 6 355 3 0 60 -33 127 -74 67 -40 250 -149 407 -241
157 -92 557 -330 890 -528 333 -198 686 -406 785 -462 99 -56 317 -180 485
-277 332 -191 429 -243 438 -233 13 13 -51 58 -203 141 -346 189 -1083 616
-1750 1014 -385 229 -808 480 -940 557 -254 148 -259 153 -238 211 8 20 75
-18 1098 -619 951 -559 1493 -875 1926 -1123 l116 -66 0 -70 0 -69 -71 -37
c-39 -21 -147 -82 -241 -137 -544 -320 -988 -577 -997 -577 -13 0 -64 30 -308
181 -508 313 -1080 651 -2200 1299 -663 384 -1401 812 -1640 953 -239 140
-488 286 -552 323 -65 38 -118 72 -118 75 0 7 45 34 670 407 610 364 623 372
634 372 5 0 203 -114 440 -253z m1076 239 c-14 -18 -98 -51 -107 -43 -3 4 2
16 11 26 18 20 39 27 85 30 19 1 21 -2 11 -13z m210 -107 l31 -60 -23 -19
c-13 -11 -30 -25 -40 -30 -18 -11 -21 2 -34 135 -7 70 -7 70 14 52 11 -10 34
-45 52 -78z m84 -168 c42 -80 45 -110 14 -138 -33 -30 -126 -85 -138 -81 -6 2
2 20 17 41 l27 38 -31 63 c-17 34 -28 68 -24 74 8 13 83 71 92 72 4 0 23 -31
43 -69z m-127 -133 c-3 -7 -5 -2 -5 12 0 14 2 19 5 13 2 -7 2 -19 0 -25z
m-1668 -25 c36 -20 164 -97 284 -170 121 -74 262 -157 314 -185 l95 -51 -209
-124 c-114 -68 -253 -149 -307 -180 l-99 -57 -71 37 c-117 61 -688 402 -689
413 -1 5 39 31 88 57 82 44 443 252 490 283 29 18 31 18 104 -23z m-422 -60
c29 -15 53 -30 53 -33 0 -6 -27 -22 -179 -107 -63 -35 -130 -73 -149 -85 -34
-21 -34 -21 -60 -1 -39 29 -40 58 -2 78 29 15 32 15 55 -4 29 -22 46 -20 100
18 46 31 59 69 26 78 -33 9 -5 35 33 31 24 -2 31 1 34 17 4 17 19 34 31 35 2
0 28 -12 58 -27z m2262 -240 c313 -182 1296 -756 1846 -1078 303 -177 667
-388 810 -470 143 -81 318 -181 388 -223 l129 -75 -84 -48 c-46 -27 -89 -49
-96 -49 -7 0 -534 305 -1170 677 -636 372 -1285 750 -1442 841 -157 90 -344
200 -417 243 l-132 79 -3 100 c-2 55 -1 100 1 100 2 0 78 -43 170 -97z m-3059
-129 c239 -145 1132 -666 2195 -1279 589 -339 1246 -723 1460 -851 775 -466
1009 -609 1009 -619 0 -11 -142 -95 -161 -95 -7 0 -83 43 -170 97 -509 310
-1431 857 -2358 1398 -583 340 -1253 731 -1490 870 -236 139 -495 289 -575
335 -80 46 -160 93 -178 105 l-33 23 73 46 c40 25 80 46 88 46 9 0 72 -34 140
-76z m280 24 c0 -13 -43 15 -48 31 -3 9 5 7 22 -4 14 -10 26 -22 26 -27z
m1820 -9 c0 -4 -7 -6 -15 -3 -8 4 -15 10 -15 15 0 4 7 6 15 3 8 -4 15 -10 15
-15z m741 -434 l-6 -380 -35 -11 c-31 -11 -40 -9 -75 12 l-40 24 -3 320 -2
320 47 24 c27 13 63 36 82 50 19 14 35 25 36 23 1 -1 0 -173 -4 -382z m-1981
-317 c371 -217 772 -451 890 -520 1168 -679 1471 -857 1695 -993 143 -87 439
-266 658 -398 l397 -240 0 -59 c0 -32 -3 -58 -6 -58 -3 0 -20 11 -37 24 -69
51 -1051 635 -1557 926 -466 268 -1938 1129 -2495 1460 -196 116 -507 292
-537 303 -30 11 -33 -15 -5 -39 25 -22 27 -28 27 -109 0 -47 -4 -85 -8 -85
-10 0 -152 87 -174 107 -16 14 -18 37 -18 189 l0 172 248 -142 c136 -79 551
-321 922 -538z m1713 594 l67 -4 -1 -366 c0 -202 -3 -385 -7 -407 -6 -34 -13
-43 -46 -58 -36 -17 -66 -17 -92 0 -8 6 -13 131 -16 431 -3 376 -2 422 12 415
8 -4 45 -9 83 -11z m-135 -219 c-2 -22 -16 -35 -73 -66 -38 -22 -181 -109
-317 -194 -168 -104 -255 -153 -270 -151 -55 8 -41 18 367 267 154 94 284 171
288 171 5 0 7 -12 5 -27z m2 -120 l0 -58 -53 -31 c-28 -17 -142 -87 -252 -154
-110 -68 -207 -125 -216 -127 -21 -6 -104 46 -93 56 30 27 592 371 606 371 4
0 8 -26 8 -57z m0 -143 l0 -49 -97 -57 c-54 -31 -146 -85 -205 -120 -58 -35
-111 -64 -117 -64 -6 0 -25 9 -42 19 l-31 19 128 78 c70 44 177 111 238 151
61 39 114 72 119 72 4 1 7 -21 7 -49z m800 -83 c0 -19 -26 -40 -80 -67 -25
-13 -162 -93 -305 -178 -369 -220 -425 -248 -425 -212 0 5 26 21 58 36 31 15
66 35 77 44 11 10 76 49 145 87 69 39 213 122 320 186 107 64 198 116 203 116
4 1 7 -5 7 -12z m-800 -111 c0 -94 -2 -105 -19 -111 -10 -3 -57 -28 -102 -56
-55 -33 -91 -48 -104 -45 -28 8 -145 84 -145 95 0 5 60 43 133 84 72 42 152
89 177 106 25 16 48 30 53 30 4 1 7 -46 7 -103z m-2451 57 c25 -14 70 -41 100
-60 l53 -34 -128 -75 c-71 -42 -153 -89 -182 -106 l-52 -30 -156 94 c-86 52
-157 99 -157 104 -1 9 169 114 185 114 4 0 8 -29 8 -64 l0 -64 61 -36 c33 -20
63 -36 65 -36 3 0 37 18 75 40 l69 41 0 69 c0 39 3 70 7 70 3 0 27 -12 52 -27z
m2732 -75 c48 -27 49 -38 6 -38 -37 0 -57 15 -57 42 0 23 4 23 51 -4z m129
-16 c0 -11 -9 -27 -21 -38 -17 -16 -22 -16 -29 -4 -15 24 -12 36 13 48 32 15
37 14 37 -6z m-2690 -49 c0 -7 -81 -58 -288 -180 -57 -34 -73 -40 -70 -26 2
10 71 56 173 115 169 97 185 105 185 91z m-552 -100 c140 -84 160 -99 148
-110 -8 -9 -313 176 -320 194 -9 22 10 13 172 -84z m3132 85 c0 -22 -15 -37
-51 -52 l-36 -15 11 34 c8 25 17 35 36 38 14 2 28 5 33 6 4 0 7 -5 7 -11z
m-310 -53 c-7 -9 -15 -13 -17 -11 -7 7 7 26 19 26 6 0 6 -6 -2 -15z m-50 -34
c0 -23 -21 -61 -39 -70 -20 -11 -71 3 -71 20 0 9 81 58 98 59 6 0 12 -4 12 -9z
m134 -30 c18 -20 18 -21 -8 -31 -34 -12 -66 -13 -86 0 -12 8 -10 14 14 39 31
32 45 31 80 -8z m-92 -64 l38 -13 -36 -18 c-34 -16 -38 -16 -62 0 l-25 17 24
13 c13 7 24 13 24 13 0 1 17 -5 37 -12z m3823 -1454 c-8 -34 -75 -51 -128 -32
l-42 14 0 360 0 360 85 47 85 48 3 -388 c1 -213 0 -397 -3 -409z m-215 484 l0
-43 -87 -49 c-49 -27 -196 -112 -328 -190 -312 -183 -815 -472 -838 -481 -16
-6 -18 -2 -15 36 l3 43 290 170 c160 93 439 257 620 363 182 106 336 194 343
194 8 0 12 -15 12 -43z m408 -425 l73 -45 -33 -22 c-36 -23 -243 -142 -296
-169 -18 -9 -36 -15 -40 -13 -4 2 -78 46 -165 97 -102 59 -155 96 -149 102 6
6 52 34 104 64 l93 54 3 -70 c3 -63 6 -71 33 -94 49 -42 100 -52 154 -32 59
23 75 54 75 146 l0 72 38 -23 c20 -12 70 -42 110 -67z m82 -102 c0 -16 -36
-48 -80 -70 -23 -12 -67 -37 -98 -57 -126 -81 -172 -104 -179 -87 -8 22 0 28
175 130 156 91 182 103 182 84z m-598 -62 c30 -18 89 -51 131 -73 67 -35 77
-43 77 -67 l0 -28 -47 33 c-27 18 -85 55 -130 83 -46 27 -83 55 -83 62 0 7 -5
10 -12 6 -7 -4 -8 -3 -4 4 9 16 6 17 68 -20z m-1192 -497 l0 -380 -22 -15
c-31 -22 -96 -20 -135 4 l-33 20 0 328 0 329 83 46 c45 26 88 47 95 47 9 0 12
-83 12 -379z m-202 -394 c52 -57 150 -66 203 -19 30 27 32 34 37 110 2 45 7
82 9 82 10 0 203 -123 203 -129 0 -8 -304 -181 -328 -188 -22 -5 -376 197
-364 209 4 4 54 34 112 68 l105 60 3 -87 c2 -65 7 -92 20 -106z m-18 -112 c89
-52 105 -65 108 -89 l3 -27 -33 17 c-18 9 -97 55 -175 102 -119 72 -143 90
-143 109 0 24 1 24 68 -14 37 -20 114 -65 172 -98z m490 107 c0 -12 -59 -64
-106 -94 -50 -32 -222 -128 -229 -128 -3 0 -5 9 -5 19 0 24 21 39 186 135 123
72 154 86 154 68z"/>
<path d="M4279 5350 c-24 -23 -30 -37 -27 -62 2 -28 10 -37 48 -55 55 -28 90
-29 124 -2 40 31 35 109 -8 109 -12 0 -27 9 -34 20 -19 31 -67 26 -103 -10z
m99 -26 c24 -17 27 -54 5 -61 -7 -3 -10 3 -7 15 6 21 -13 40 -53 52 l-28 8 30
1 c17 1 41 -6 53 -15z"/>
<path d="M4087 5233 c-64 -43 -117 -83 -117 -89 0 -18 68 -74 89 -74 22 0 80
38 95 63 9 15 6 23 -18 44 l-30 25 25 19 c28 22 40 24 34 7 -8 -21 11 -42 30
-34 14 5 16 14 12 40 -3 19 0 39 6 45 7 7 8 14 1 21 -7 7 -48 -15 -127 -67z"/>
<path d="M4534 5205 c-53 -42 -50 -89 8 -125 51 -31 90 -26 127 15 25 29 29
40 21 55 -9 17 -102 80 -118 80 -4 0 -21 -11 -38 -25z m82 -41 c10 -8 13 -12
6 -9 -8 4 -26 11 -40 15 -22 7 -23 8 -6 9 11 1 29 -6 40 -15z"/>
<path d="M4776 5100 c-41 -13 -66 -39 -66 -71 0 -22 10 -36 42 -59 48 -35 85
-38 122 -9 41 32 35 67 -18 112 -25 20 -46 37 -48 36 -2 0 -16 -5 -32 -9z m39
-50 c3 -5 -1 -10 -9 -10 -8 0 -18 5 -21 10 -3 6 1 10 9 10 8 0 18 -4 21 -10z"/>
<path d="M4946 4940 c-37 -38 -30 -71 23 -105 62 -39 81 -40 121 -7 32 27 33
32 23 55 -13 29 -74 73 -113 81 -19 5 -32 -1 -54 -24z"/>
<path d="M3580 4678 c-35 -58 -20 -101 45 -132 28 -13 43 -15 71 -7 43 12 74
37 74 61 0 28 -40 71 -84 91 -60 27 -83 24 -106 -13z m80 -92 c9 -12 9 -16 1
-16 -22 0 -51 20 -51 36 0 17 28 6 50 -20z"/>
<path d="M5118 4626 c-8 -8 -38 -26 -66 -40 -87 -44 -98 -99 -30 -149 27 -20
28 -20 67 -2 86 39 104 86 51 135 -28 26 -29 29 -11 35 10 3 25 12 31 20 10
12 9 15 -8 15 -11 0 -27 -6 -34 -14z m-77 -100 c-9 -11 -10 -20 -1 -35 13 -26
-5 -29 -19 -4 -10 19 3 53 21 53 7 0 7 -5 -1 -14z"/>
<path d="M3819 4542 c-57 -51 -36 -120 44 -144 39 -12 40 -11 74 26 38 42 42
82 8 100 -11 5 -32 18 -47 28 -36 24 -42 23 -79 -10z m55 -103 c-8 -13 -49 7
-52 26 -4 16 -2 16 27 -1 16 -10 28 -21 25 -25z"/>
<path d="M4893 4490 c6 -25 -24 -44 -54 -35 -23 8 -53 -15 -74 -56 -12 -22
-11 -29 4 -52 43 -66 89 -73 144 -23 43 40 47 67 11 95 l-25 20 32 17 33 17
-23 18 c-31 26 -55 25 -48 -1z m-70 -100 c-4 -14 1 -21 21 -26 14 -3 26 -10
26 -15 0 -15 -20 -10 -51 12 -24 17 -27 24 -18 35 17 20 28 17 22 -6z"/>
<path d="M4016 4419 c-49 -39 -30 -101 42 -138 30 -16 80 0 113 35 22 23 23
27 8 52 -17 30 -83 72 -115 72 -12 0 -33 -9 -48 -21z"/>
<path d="M4604 4325 c-12 -8 -29 -30 -38 -50 -16 -33 -16 -38 -2 -60 40 -61
142 -30 161 47 14 56 -69 100 -121 63z m51 -36 c11 -17 2 -18 -19 -3 -17 12
-17 14 -4 14 9 0 20 -5 23 -11z"/>
<path d="M4247 4308 c-29 -15 -49 -67 -42 -104 11 -59 65 -80 128 -48 70 36
89 81 45 106 -73 40 -116 55 -131 46z m38 -126 c-24 -5 -45 5 -45 23 0 14 4
14 31 -2 22 -13 26 -19 14 -21z"/>
<path d="M4434 4215 c-28 -19 -57 -81 -49 -105 17 -55 68 -65 127 -24 56 39
58 60 10 106 -45 42 -57 45 -88 23z m36 -106 c0 -12 -7 -11 -31 1 -10 6 -19
17 -19 26 0 12 4 12 25 -2 14 -9 25 -20 25 -25z"/>
<path d="M6375 3729 c-336 -179 -554 -305 -555 -321 0 -17 33 -6 92 30 76 47
221 127 465 256 155 82 185 95 203 86 11 -6 20 -14 20 -19 0 -5 -57 -41 -127
-82 -215 -123 -537 -316 -562 -336 l-24 -19 111 -67 c62 -37 117 -67 122 -67
6 0 37 18 69 39 111 76 664 381 680 376 9 -3 26 -13 39 -23 22 -17 18 -19
-343 -222 -200 -113 -365 -208 -365 -212 0 -8 94 -70 207 -137 61 -36 78 -42
107 -37 44 8 180 78 451 233 239 136 295 171 295 184 0 13 -124 94 -413 268
-148 88 -276 161 -285 160 -9 0 -93 -41 -187 -90z m304 -9 c22 -10 64 -35 95
-53 l56 -34 -217 -123 c-120 -68 -280 -158 -356 -202 -75 -43 -142 -78 -147
-78 -5 0 -43 21 -85 46 -61 37 -74 49 -64 60 6 8 59 42 117 76 195 116 557
327 560 328 1 0 20 -9 41 -20z m369 -221 c45 -27 82 -54 82 -58 0 -5 -33 -26
-72 -47 -40 -20 -196 -109 -347 -196 l-274 -159 -46 24 c-25 13 -66 36 -90 52
-54 34 -69 21 174 157 99 56 248 141 330 189 83 48 152 88 155 88 3 1 43 -22
88 -50z m147 -91 c14 -6 25 -14 25 -17 -1 -7 -526 -304 -627 -355 -69 -34
-133 -47 -133 -27 0 12 285 182 520 310 102 55 186 101 187 101 1 0 14 -5 28
-12z"/>
<path d="M7670 3361 c-8 -6 -32 -8 -53 -4 -30 4 -51 -1 -100 -25 -34 -17 -78
-33 -98 -36 -20 -4 -45 -16 -55 -27 -11 -12 -55 -39 -98 -61 -44 -22 -150 -82
-235 -133 -86 -51 -183 -102 -216 -114 -33 -13 -68 -30 -77 -38 -20 -18 -24
-63 -7 -80 7 -7 2 -15 -16 -27 -16 -11 -23 -21 -18 -29 4 -7 8 -21 8 -32 0
-17 7 -20 47 -21 50 -1 88 -23 88 -53 1 -43 52 -71 131 -71 45 0 49 -2 49 -24
0 -38 10 -56 41 -71 38 -20 62 -19 93 6 31 25 35 68 7 93 -11 10 -17 24 -14
32 7 19 -21 18 -80 -2 -60 -20 -82 -7 -74 42 4 25 0 37 -17 53 -27 25 -44 26
-89 5 -33 -16 -35 -16 -85 17 -58 38 -62 55 -11 51 23 -2 43 4 61 17 14 12 30
21 35 21 4 0 44 -23 88 -52 44 -28 152 -95 240 -148 88 -53 232 -141 319 -194
87 -54 164 -100 171 -102 6 -3 124 58 261 135 189 107 250 136 252 125 2 -9
-1 -21 -7 -27 -17 -17 -13 -72 7 -90 10 -10 31 -17 46 -17 41 0 105 37 112 64
4 18 15 26 42 31 21 4 66 20 100 37 77 36 92 64 92 167 l0 69 -53 21 c-42 17
-59 20 -80 12 -37 -14 -46 -55 -18 -85 25 -26 27 -46 6 -46 -40 0 -300 136
-630 330 -190 111 -179 108 -266 68 -41 -19 -154 -80 -251 -136 -97 -56 -213
-120 -257 -142 l-79 -41 -33 20 c-19 12 -41 21 -50 21 -12 0 -18 11 -21 36 -4
32 -1 38 31 59 31 20 36 20 39 6 7 -29 45 -61 72 -61 40 0 80 35 80 70 0 34
44 75 69 64 62 -26 107 -15 127 32 18 42 12 67 -19 81 -21 10 -20 11 21 32
l43 22 35 -30 c42 -38 77 -39 111 -5 25 25 26 43 9 85 -12 28 59 64 117 60 13
-1 17 -10 17 -35 0 -44 29 -66 85 -66 58 0 85 22 85 69 0 31 -6 42 -26 56 -32
21 -84 29 -104 16z m295 -392 c165 -94 324 -183 352 -197 l53 -26 -78 -41
c-42 -22 -188 -103 -325 -179 l-247 -139 -63 34 c-34 18 -136 78 -227 134 -91
56 -220 135 -288 176 -82 49 -118 77 -110 82 7 4 74 41 148 81 74 40 200 112
280 160 97 58 155 86 175 86 22 0 122 -52 330 -171z m-815 116 c0 -18 -31 -35
-66 -35 l-28 0 34 25 c38 28 60 32 60 10z m1400 -280 c0 -25 -18 -25 -22 -1
-4 17 -1 23 9 19 7 -3 13 -11 13 -18z m-122 -111 c-9 -18 -9 -33 -1 -54 9 -25
8 -29 -14 -39 -34 -16 -44 -14 -87 15 -29 20 -45 25 -70 20 l-31 -6 35 21 c57
35 133 69 157 69 21 0 22 -2 11 -26z"/>
<path d="M7837 3259 c9 -9 7 -22 -8 -51 -19 -36 -19 -42 -5 -63 28 -43 133
-48 151 -7 5 12 17 22 27 22 51 0 18 35 -79 84 -54 27 -107 36 -86 15z"/>
<path d="M8050 3125 c-6 -8 -14 -32 -17 -53 -5 -34 -2 -42 23 -61 23 -18 38
-22 72 -18 24 2 51 12 61 21 10 9 25 16 35 16 31 0 12 24 -53 68 -66 44 -100
52 -121 27z"/>
<path d="M8251 2973 c-25 -51 -14 -78 36 -92 57 -16 78 -13 110 13 15 12 34
21 41 19 19 -7 14 12 -10 34 -40 37 -92 63 -125 63 -28 0 -36 -6 -52 -37z"/>
<path d="M7276 2540 c-26 -9 -52 -23 -57 -31 -24 -39 10 -102 63 -115 55 -12
105 81 63 116 -9 7 -13 21 -10 31 7 22 6 22 -59 -1z"/>
<path d="M8074 2520 c-34 -14 -75 -70 -72 -99 2 -19 12 -29 40 -39 42 -16 72
-8 117 29 l24 19 -18 41 c-25 54 -48 67 -91 49z"/>
<path d="M7431 2423 c-43 -15 -43 -16 -38 -55 7 -52 32 -78 73 -78 47 0 63 9
80 42 22 43 11 76 -31 94 -19 8 -36 14 -37 13 -2 0 -23 -8 -47 -16z"/>
<path d="M7883 2413 c-7 -2 -13 -10 -13 -17 0 -7 -11 -18 -25 -24 -14 -7 -31
-23 -37 -37 -10 -22 -8 -30 9 -53 31 -41 86 -42 141 -2 48 36 52 52 17 68 -14
6 -25 18 -25 25 0 16 -32 47 -46 46 -5 0 -15 -3 -21 -6z"/>
<path d="M7655 2317 c-57 -12 -65 -20 -65 -65 0 -43 38 -82 80 -82 31 0 103
31 115 49 3 6 -11 26 -30 45 -31 31 -33 36 -15 36 27 0 26 16 -2 24 -13 3 -25
5 -28 4 -3 0 -27 -5 -55 -11z"/>
</g>
</svg>
