<?xml version="1.0" standalone="no"?>
<!DOCTYPE svg PUBLIC "-//W3C//DTD SVG 20010904//EN"
 "http://www.w3.org/TR/2001/REC-SVG-20010904/DTD/svg10.dtd">
<svg version="1.0" xmlns="http://www.w3.org/2000/svg"
 width="1024.000000pt" height="1024.000000pt" viewBox="0 0 1024.000000 1024.000000"
 preserveAspectRatio="xMidYMid meet">

<g transform="translate(0.000000,1024.000000) scale(0.100000,-0.100000)"
fill="#e0e0e0" stroke="none">
<path d="M7290 9749 c-91 -45 -343 -165 -560 -269 -870 -413 -3479 -1664
-4345 -2082 -1599 -773 -1734 -840 -1780 -880 -24 -21 -52 -60 -66 -90 l-23
-53 3 -2710 3 -2710 20 -22 c46 -49 560 -293 617 -293 20 0 90 27 175 66 380
179 1929 917 2291 1091 182 88 337 163 346 166 15 5 14 -2 -2 -66 -21 -79 -24
-125 -9 -178 22 -77 53 -99 427 -289 194 -98 368 -184 387 -190 20 -6 65 -11
102 -11 78 0 67 -5 852 382 l482 238 0 58 c0 32 -4 65 -9 73 -6 7 -182 100
-393 205 l-383 190 0 140 0 140 605 302 c333 166 608 302 613 302 4 1 7 -383
7 -851 0 -469 3 -863 6 -875 4 -14 14 -23 26 -23 10 0 495 232 1076 516 581
284 1183 577 1337 652 154 74 361 174 461 222 l181 88 7 208 c10 334 7 2313
-4 2355 -13 49 -55 68 -109 49 -20 -7 -283 -134 -586 -282 -623 -306 -945
-461 -950 -456 -2 2 -6 903 -10 2003 -8 2282 -13 2636 -36 2679 -13 23 -66 53
-280 157 -145 71 -275 128 -289 128 -14 0 -99 -36 -190 -80z m396 -55 c115
-52 213 -98 218 -101 11 -7 -55 -41 -324 -168 -1905 -902 -5729 -2734 -6247
-2994 -240 -120 -274 -146 -318 -243 -15 -32 -29 -58 -31 -58 -9 0 -412 211
-433 227 -2 1 4 23 13 47 20 52 82 113 146 143 283 135 704 338 1275 615 1215
591 5467 2626 5487 2628 3 0 100 -43 214 -96z m204 -2653 l0 -2288 -127 -61
c-581 -276 -1042 -507 -1074 -538 -26 -26 -459 -241 -1620 -808 -871 -425
-1910 -934 -2309 -1131 -713 -351 -1352 -661 -1480 -716 l-65 -28 -7 62 c-3
34 -8 1083 -10 2330 l-5 2269 186 92 c673 336 6460 3103 6494 3105 16 1 17
-114 17 -2288z m-6943 -938 l43 -25 2 -396 c2 -218 4 -912 6 -1542 3 -1831 13
-3301 22 -3355 5 -27 7 -52 4 -54 -5 -5 -176 77 -334 160 l-125 66 -7 54 c-3
30 -6 1235 -7 2677 l-1 2624 178 -92 c97 -51 196 -103 219 -117z m8761 -670
l-3 -97 -130 -64 c-71 -36 -535 -264 -1030 -507 -1284 -631 -1700 -838 -1688
-842 6 -2 228 104 492 237 265 132 764 378 1109 546 345 168 766 374 935 456
169 83 309 149 311 147 2 -2 6 -516 7 -1141 4 -1001 2 -1139 -11 -1152 -14
-14 -610 -306 -870 -426 -69 -32 -370 -178 -670 -325 -841 -413 -1417 -693
-1439 -700 l-21 -6 0 1238 c0 1221 0 1238 20 1271 26 42 39 49 353 202 144 70
727 353 1295 628 568 276 1090 531 1160 566 70 36 140 65 155 65 l28 1 -3 -97z
m-3061 -1838 l2 -286 -678 -338 c-697 -349 -1105 -547 -1886 -916 -247 -117
-607 -288 -800 -380 -1538 -736 -2074 -988 -2110 -992 -55 -6 -100 23 -114 74
-6 21 -11 124 -11 229 l0 191 128 61 c70 33 269 128 442 210 858 407 3857
1864 4380 2127 229 116 622 304 635 305 6 0 11 -103 12 -285z m-1266 -1101 c4
-119 5 -127 28 -146 14 -10 187 -101 385 -200 l361 -181 -160 -80 c-88 -44
-362 -179 -610 -299 l-450 -219 -70 4 c-68 4 -81 9 -290 119 -121 63 -268 138
-327 166 -59 28 -119 62 -133 76 -41 41 -32 110 35 254 l32 69 366 176 c202
96 466 223 586 281 121 58 225 106 232 106 8 0 13 -36 15 -126z m-1288 -545
c-23 -53 -37 -103 -40 -143 -5 -59 -4 -62 29 -93 40 -38 690 -369 745 -379 20
-4 64 -2 97 4 62 12 121 40 914 429 183 89 335 163 338 163 3 0 4 -12 2 -27
-3 -26 -37 -45 -508 -280 -787 -391 -768 -384 -883 -343 -93 34 -708 348 -740
378 -49 46 -60 78 -54 156 3 39 13 95 22 124 14 47 21 56 58 72 23 10 45 19
48 19 4 1 -9 -36 -28 -80z"/>
<path d="M6915 7914 c-1627 -777 -1782 -854 -1791 -890 -5 -17 1 -1381 6
-1421 1 -10 127 51 1056 510 572 282 1128 555 1237 607 l197 95 -2 709 c-2
462 -6 710 -13 712 -5 1 -316 -143 -690 -322z m670 -75 l0 -344 -130 -7 c-71
-4 -144 -10 -162 -13 l-32 -6 -108 -327 c-88 -265 -116 -338 -149 -387 -47
-70 -94 -105 -140 -105 -57 0 -78 36 -184 320 -82 220 -104 273 -117 277 -14
5 -26 -35 -97 -304 -74 -278 -142 -506 -166 -554 -23 -44 -77 -89 -109 -89
-31 0 -81 23 -176 80 -45 27 -87 50 -92 50 -5 0 -42 -69 -82 -152 -85 -180
-132 -251 -164 -246 -12 2 -48 35 -84 78 -34 41 -68 76 -76 78 -12 3 -83 -123
-217 -383 -51 -100 -67 -123 -97 -138 -19 -10 -38 -15 -41 -12 -9 9 -15 1086
-7 1241 l7 136 272 133 c269 133 1090 526 1406 675 91 43 291 139 445 213 154
74 285 134 290 133 6 -2 10 -126 10 -347z m-10 -694 l0 -309 -500 -244 c-275
-134 -785 -385 -1134 -558 -349 -173 -635 -313 -636 -312 -2 2 45 99 104 217
l108 214 64 -77 c69 -83 95 -97 134 -72 31 20 128 184 175 294 19 45 39 82 44
82 5 0 48 -23 96 -50 48 -28 104 -55 124 -61 74 -20 135 22 182 126 35 76 88
259 215 740 l11 40 15 -28 c8 -16 38 -95 68 -175 29 -81 62 -171 74 -199 48
-122 101 -171 169 -158 46 9 139 102 175 175 14 30 70 188 123 350 54 162 99
297 101 299 3 5 259 19 278 16 6 -1 10 -112 10 -310z"/>
<path d="M5545 7937 c-121 -61 -440 -217 -710 -347 -269 -130 -638 -311 -820
-401 -292 -145 -367 -189 -324 -189 6 0 188 86 403 191 215 106 673 330 1017
498 344 168 637 313 650 323 16 11 21 19 14 26 -7 7 -83 -27 -230 -101z"/>
<path d="M4690 7304 c-916 -450 -1057 -524 -1000 -524 6 0 253 119 548 264
296 145 616 302 712 349 192 93 220 111 205 125 -6 6 -178 -74 -465 -214z"/>
<path d="M5035 7253 c-60 -31 -328 -161 -595 -290 -570 -275 -750 -369 -750
-389 0 -8 2 -14 4 -14 3 0 749 365 1364 667 61 31 112 62 112 69 0 22 -18 16
-135 -43z"/>
<path d="M4530 6746 c-184 -89 -452 -221 -595 -292 l-260 -129 -2 -700 c-2
-413 1 -706 6 -714 8 -12 69 15 333 145 178 88 448 221 601 295 l277 134 -2
709 c-2 462 -6 710 -13 712 -5 2 -161 -70 -345 -160z m330 -562 l-1 -676 -202
-98 c-111 -54 -368 -179 -572 -279 l-370 -181 -7 53 c-3 28 -6 332 -7 675 l-1
623 448 221 c441 218 690 337 705 338 4 0 7 -304 7 -676z"/>
<path d="M4047 5399 c7 -7 15 -10 18 -7 3 3 -2 9 -12 12 -14 6 -15 5 -6 -5z"/>
<path d="M3799 5213 c-13 -16 -12 -17 4 -4 16 13 21 21 13 21 -2 0 -10 -8 -17
-17z"/>
<path d="M7460 6491 c-80 -37 -539 -262 -1020 -498 -1280 -629 -2444 -1200
-2612 -1281 l-148 -72 0 -850 c0 -467 2 -850 4 -850 16 0 3920 1931 3927 1942
8 12 19 1299 12 1360 l-5 47 -52 -23 c-142 -65 -2152 -1045 -3423 -1671 l-433
-213 0 117 0 117 28 16 c15 9 250 124 522 256 388 188 2708 1320 3240 1581
116 57 129 66 115 80 -6 6 -64 -15 -155 -58z m130 -927 l0 -664 -402 -199
c-222 -109 -1090 -536 -1929 -949 -839 -414 -1531 -752 -1537 -752 -9 0 -12
165 -12 673 l0 673 258 128 c788 390 3608 1763 3615 1759 4 -2 7 -303 7 -669z"/>
<path d="M2298 6369 c-45 -22 -78 -46 -78 -54 0 -19 -1 -19 53 4 88 38 157 92
115 91 -7 -1 -48 -19 -90 -41z"/>
<path d="M2645 6029 c-401 -191 -824 -393 -940 -448 l-210 -99 -2 -1789 c-2
-1003 1 -1794 6 -1802 7 -10 169 66 747 351 407 201 837 413 957 471 l217 107
0 1672 c0 920 -3 1721 -7 1781 -5 89 -9 107 -22 106 -9 -1 -344 -158 -746
-350z m738 234 c4 -38 7 -822 7 -1745 l0 -1676 -62 -34 c-35 -19 -124 -63
-198 -97 -74 -35 -463 -225 -863 -423 -401 -198 -732 -357 -735 -353 -4 4 -8
797 -10 1764 l-2 1757 177 86 c98 48 336 160 528 251 193 91 512 242 710 337
398 190 415 198 431 199 7 1 14 -27 17 -66z"/>
<path d="M2345 5609 c-27 -17 -88 -70 -135 -118 -149 -151 -266 -346 -309
-516 -22 -88 -37 -195 -28 -195 4 0 32 12 62 27 36 18 57 35 59 48 30 164 73
278 151 393 51 77 142 176 213 233 l43 34 -3 63 -3 63 -50 -32z"/>
<path d="M2681 5194 c-29 -36 -26 -109 3 -109 47 0 78 95 40 121 -20 14 -24
13 -43 -12z m34 -50 c0 -19 -6 -30 -17 -32 -14 -3 -18 3 -18 26 0 16 3 32 7
36 14 13 28 -1 28 -30z"/>
<path d="M2615 5167 c-8 -13 -18 -48 -22 -76 -5 -42 -3 -51 10 -51 22 0 30 16
17 39 -7 15 -6 31 4 63 18 50 14 60 -9 25z"/>
<path d="M2520 5135 c-23 -25 -16 -37 8 -13 16 16 15 4 -3 -56 -8 -27 -13 -52
-10 -54 6 -7 41 74 50 116 8 40 -11 43 -45 7z"/>
<path d="M2418 5088 c-37 -21 -48 -47 -48 -108 0 -35 22 -55 47 -42 42 23 69
76 52 103 -6 11 -14 11 -39 2 -41 -16 -38 3 5 28 19 12 35 25 35 30 0 13 -11
11 -52 -13z m32 -75 c0 -17 -27 -53 -40 -53 -16 0 -18 29 -4 49 18 25 44 28
44 4z"/>
<path d="M2232 4992 c-28 -42 -28 -67 0 -86 l22 -16 -24 -25 c-22 -23 -22 -25
-4 -25 24 0 94 56 94 76 0 8 -11 20 -25 26 -28 13 -32 30 -10 48 21 17 19 27
-8 32 -17 3 -28 -4 -45 -30z"/>
<path d="M2495 4282 c-304 -144 -375 -181 -375 -199 0 -7 2 -13 5 -13 5 0 511
240 594 282 61 31 89 59 59 57 -7 0 -134 -57 -283 -127z"/>
<path d="M2920 4259 c-640 -296 -800 -373 -800 -385 0 -8 4 -14 9 -14 4 0 77
33 162 73 85 41 273 129 419 196 335 154 414 193 418 209 2 6 0 12 -5 12 -4 0
-96 -41 -203 -91z"/>
<path d="M1876 3980 c-48 -63 -48 -63 -82 -45 -16 8 -35 15 -43 15 -19 0 15
-37 51 -56 25 -13 28 -12 56 21 36 44 76 115 65 115 -5 0 -26 -23 -47 -50z"/>
<path d="M2760 3791 c-481 -233 -630 -310 -630 -326 0 -19 -21 -28 505 228
290 141 441 219 443 230 2 9 0 17 -5 16 -4 0 -145 -66 -313 -148z"/>
<path d="M2680 3546 c-495 -243 -553 -274 -558 -298 -2 -10 94 33 280 126 156
78 388 192 516 253 156 75 232 117 232 127 0 9 -3 16 -7 15 -5 0 -213 -101
-463 -223z"/>
<path d="M1885 3564 c-22 -31 -43 -58 -47 -61 -5 -2 -21 5 -37 16 -16 12 -37
21 -48 21 -14 -1 -11 -7 16 -30 47 -40 65 -42 94 -11 30 31 77 100 77 112 0
20 -17 5 -55 -47z"/>
<path d="M2884 3217 c-138 -67 -362 -176 -498 -241 -230 -111 -277 -138 -263
-152 15 -15 1017 478 1017 501 0 8 -1 15 -2 15 -2 0 -116 -55 -254 -123z"/>
<path d="M1880 3159 c-24 -32 -49 -59 -55 -59 -5 1 -21 7 -35 15 -14 8 -31 14
-37 15 -26 0 -12 -19 34 -46 l47 -27 23 29 c35 42 75 112 71 123 -1 5 -23 -17
-48 -50z"/>
<path d="M2463 2810 c-234 -115 -343 -174 -343 -184 0 -9 3 -16 8 -15 4 0 162
78 351 172 305 152 386 199 339 196 -7 0 -167 -76 -355 -169z"/>
<path d="M1882 2740 c-24 -33 -46 -60 -50 -60 -4 1 -18 7 -32 15 -28 16 -50
19 -50 6 0 -10 87 -58 93 -51 22 25 97 134 97 141 0 21 -19 5 -58 -51z"/>
<path d="M1888 2311 l-47 -60 -35 14 c-44 19 -57 19 -50 1 8 -21 85 -48 100
-35 24 19 86 117 82 129 -2 6 -25 -16 -50 -49z"/>
<path d="M2363 6197 c-261 -127 -303 -150 -291 -162 14 -14 549 248 556 273 2
6 0 12 -5 11 -4 0 -121 -55 -260 -122z"/>
<path d="M1900 6186 c-85 -40 -213 -101 -283 -135 -82 -39 -127 -65 -124 -73
2 -7 10 -12 16 -10 12 2 401 182 494 228 38 19 57 34 57 46 0 10 -1 18 -3 18
-1 0 -72 -33 -157 -74z"/>
<path d="M1715 5894 c-185 -93 -225 -117 -213 -130 6 -6 290 123 382 174 52
28 70 52 39 51 -10 0 -103 -43 -208 -95z"/>
<path d="M9507 5400 c-32 -25 -41 -53 -27 -80 13 -25 51 -26 73 -2 23 25 31
70 17 87 -17 20 -32 19 -63 -5z m37 -47 c-11 -32 -37 -37 -42 -10 -5 24 28 61
42 47 6 -6 7 -19 0 -37z"/>
<path d="M9342 5313 c-7 -3 -19 -18 -28 -34 -30 -59 24 -95 65 -43 39 50 16
98 -37 77z m30 -48 c-13 -28 -42 -34 -42 -8 0 9 8 25 17 35 23 26 40 7 25 -27z"/>
<path d="M9182 5240 c-26 -11 -47 -52 -38 -75 5 -13 13 -15 34 -10 35 8 48 23
57 63 6 27 4 32 -12 31 -10 0 -28 -4 -41 -9z m28 -34 c0 -13 -39 -30 -48 -21
-8 7 20 35 34 35 8 0 14 -6 14 -14z"/>
<path d="M9206 4588 c-40 -62 -103 -163 -140 -225 -36 -61 -70 -115 -76 -118
-13 -8 -42 8 -124 68 -57 43 -77 51 -122 55 -52 4 -55 3 -92 -34 -21 -22 -44
-48 -50 -59 -9 -17 -14 -18 -29 -7 -42 29 -101 52 -136 52 -80 0 -133 -60
-207 -235 -54 -129 -117 -250 -149 -288 -31 -37 -77 -57 -115 -50 -16 3 -55
31 -90 64 l-61 57 18 34 c40 76 145 184 268 278 69 52 150 117 180 144 66 60
38 41 -53 -36 -36 -31 -95 -75 -130 -99 -118 -80 -204 -165 -291 -290 l-16
-22 -63 41 c-35 22 -76 46 -91 51 -33 13 -94 13 -122 1 -13 -6 -4 -7 26 -3 53
6 121 -20 197 -76 42 -31 42 -32 27 -60 -25 -50 -135 -189 -165 -211 -49 -35
-92 -48 -126 -39 -17 5 -70 45 -118 89 -77 70 -93 80 -125 80 -89 0 -197 -143
-298 -391 -60 -147 -50 -161 11 -17 105 242 178 353 254 385 47 19 50 10 13
-32 -31 -36 -39 -55 -22 -55 9 0 36 31 57 66 10 17 12 17 36 2 14 -10 52 -41
84 -71 70 -64 92 -77 134 -77 70 0 154 71 245 208 26 40 50 72 53 72 3 0 25
-18 49 -41 98 -90 168 -94 241 -15 32 35 51 46 93 55 75 16 164 67 212 121 24
26 76 95 116 154 40 58 77 103 82 100 5 -2 35 -44 68 -92 76 -111 102 -135
143 -135 25 0 41 10 77 49 26 28 61 78 79 112 18 34 36 62 39 62 3 0 37 -11
75 -25 87 -31 109 -31 200 1 88 32 221 94 215 101 -3 2 -55 -18 -115 -46 -103
-47 -166 -68 -202 -66 -24 1 -149 46 -155 55 -4 7 110 206 131 229 2 2 21 -4
44 -13 22 -9 57 -15 78 -15 33 2 33 2 7 6 -36 4 -115 32 -115 40 0 4 27 48 60
99 62 95 77 124 66 124 -4 0 -40 -51 -80 -112z m-411 -252 c18 -8 56 -32 84
-55 28 -22 60 -43 71 -46 11 -4 20 -11 20 -17 0 -21 -64 -129 -100 -168 -65
-71 -109 -50 -211 102 l-60 89 21 34 c41 67 106 90 175 61z m-290 -52 c73 -34
73 -38 -11 -162 -108 -159 -213 -247 -320 -265 l-31 -6 82 182 c99 218 136
267 204 267 24 0 58 -7 76 -16z"/>
<path d="M9404 4485 c-49 -25 -78 -43 -64 -39 47 13 181 84 157 84 -2 0 -44
-20 -93 -45z"/>
<path d="M9140 3448 c-41 -44 -86 -139 -101 -215 -22 -108 16 -209 89 -240 61
-25 125 0 214 85 l57 54 -58 43 c-89 66 -135 142 -147 248 -4 31 -10 57 -15
57 -4 0 -22 -15 -39 -32z"/>
<path d="M8277 3308 c-43 -20 -66 -36 -63 -44 7 -17 -25 -28 -36 -12 -6 10 -8
8 -8 -4 0 -30 42 -21 109 22 34 22 66 40 71 40 6 0 10 7 10 15 0 20 -4 19 -83
-17z"/>
<path d="M8715 3314 c-44 -16 -83 -49 -72 -61 10 -9 83 34 80 47 -2 5 7 9 18
7 12 -1 24 4 26 11 6 15 -1 14 -52 -4z"/>
<path d="M7861 3106 c-18 -6 -41 -21 -50 -32 -9 -11 -22 -19 -29 -16 -6 2 -12
-1 -12 -7 0 -6 -7 -8 -15 -5 -10 4 -15 0 -15 -15 0 -29 12 -27 91 17 45 24 69
43 69 55 0 9 -1 17 -2 16 -2 0 -18 -6 -37 -13z"/>
<path d="M8614 3066 c-8 -22 3 -33 18 -18 9 9 9 15 0 24 -9 9 -13 7 -18 -6z"/>
<path d="M8372 2963 c7 -25 -1 -30 -19 -12 -9 9 -19 4 -40 -17 -15 -16 -33
-27 -40 -26 -14 3 -83 -37 -83 -49 0 -22 68 -1 100 31 11 11 20 18 20 15 0 -8
77 33 84 44 3 5 -2 15 -11 22 -15 12 -16 11 -11 -8z"/>
<path d="M8723 2933 c-18 -9 -33 -20 -33 -25 0 -12 5 -10 44 13 55 32 46 40
-11 12z"/>
<path d="M7418 2894 c-43 -22 -65 -54 -38 -54 28 0 110 54 110 72 0 14 -23 8
-72 -18z"/>
<path d="M7867 2913 c-3 -5 -2 -15 3 -22 10 -17 43 -6 38 12 -6 15 -34 22 -41
10z"/>
<path d="M8640 2890 c-26 -20 -24 -35 3 -24 14 5 31 33 25 40 -2 1 -14 -6 -28
-16z"/>
<path d="M7820 2875 c-24 -26 -14 -33 21 -15 19 11 27 40 11 40 -5 0 -19 -11
-32 -25z"/>
<path d="M8728 2753 c-27 -12 -48 -27 -48 -32 0 -19 22 -23 39 -7 10 9 22 16
28 16 14 0 46 37 36 42 -4 3 -29 -6 -55 -19z"/>
<path d="M6973 2708 c-17 -24 -38 -58 -47 -77 l-18 -33 23 16 c32 22 36 21 43
-19 7 -34 7 -35 34 -21 23 12 26 19 24 54 -3 35 -1 40 22 46 36 9 34 41 -4 61
-41 21 -43 20 -77 -27z"/>
<path d="M8278 2721 c-1 -5 -25 -19 -52 -32 -28 -13 -52 -30 -54 -38 -3 -9 14
-4 47 14 51 28 93 65 73 65 -6 0 -12 -4 -14 -9z"/>
<path d="M8637 2713 c-10 -9 -9 -43 1 -43 15 0 30 22 25 36 -6 15 -16 18 -26
7z"/>
<path d="M8280 2534 c-14 -8 -42 -20 -62 -28 -50 -20 -51 -41 -2 -33 36 6 104
50 104 68 0 12 -9 10 -40 -7z"/>
<path d="M6975 2506 c-54 -55 -16 -88 53 -46 24 15 32 27 30 43 -5 33 -51 35
-83 3z"/>
<path d="M7057 2322 c-15 -10 -24 -22 -20 -26 4 -4 0 -4 -10 0 -12 4 -17 1
-17 -10 0 -9 5 -16 10 -16 23 0 90 41 90 55 0 20 -19 19 -53 -3z"/>
<path d="M7857 2333 c-8 -7 11 -33 24 -33 5 0 9 9 9 20 0 19 -20 27 -33 13z"/>
<path d="M6955 2266 c-16 -13 -27 -27 -23 -31 10 -10 68 24 68 40 0 21 -10 19
-45 -9z"/>
<path d="M7050 2131 c0 -7 -22 -21 -50 -33 -27 -11 -50 -27 -50 -34 0 -8 6
-11 15 -8 8 4 15 10 15 15 0 5 8 9 18 9 21 0 69 46 59 57 -4 3 -7 1 -7 -6z"/>
<path d="M7393 2098 c-12 -6 -24 -19 -26 -30 -3 -11 -10 -17 -16 -13 -6 3 -11
1 -11 -4 0 -18 18 -12 33 10 10 13 16 16 19 8 5 -15 48 10 48 28 0 15 -17 16
-47 1z"/>
<path d="M7058 1936 c-19 -14 -24 -36 -9 -36 12 0 33 28 29 39 -2 6 -10 4 -20
-3z"/>
<path d="M4564 9371 c-32 -39 -61 -71 -65 -71 -3 0 -23 14 -44 30 -66 53 -76
37 -13 -22 l42 -38 -53 -75 c-49 -70 -55 -92 -19 -62 8 6 29 33 47 59 17 26
36 50 42 53 5 4 28 -9 49 -29 69 -62 85 -42 18 23 l-42 40 20 28 c61 83 87
123 82 129 -4 3 -33 -26 -64 -65z"/>
<path d="M2915 9155 c-25 -12 -26 -14 -5 -9 28 7 60 23 45 23 -5 0 -23 -6 -40
-14z"/>
<path d="M2767 9048 c-35 -48 -43 -68 -12 -33 28 32 49 65 41 65 -3 0 -16 -15
-29 -32z"/>
<path d="M3171 8959 c0 -15 -3 -42 -6 -60 l-5 -34 11 34 c5 18 8 45 6 60 l-4
26 -2 -26z"/>
<path d="M3088 8750 c-9 -6 -27 -25 -39 -43 -21 -31 -20 -30 19 8 50 47 54 55
20 35z"/>
<path d="M2848 8633 c12 -2 32 -2 45 0 12 2 2 4 -23 4 -25 0 -35 -2 -22 -4z"/>
<path d="M2338 8564 c-39 -21 -35 -28 5 -8 37 19 44 24 31 24 -5 -1 -21 -8
-36 -16z"/>
<path d="M2148 8474 c-39 -21 -35 -28 5 -8 37 19 44 24 31 24 -5 -1 -21 -8
-36 -16z"/>
<path d="M1970 8390 c-19 -11 -31 -19 -27 -20 11 0 67 29 67 35 0 7 -1 7 -40
-15z"/>
<path d="M1780 8300 c-19 -11 -30 -19 -25 -19 6 0 26 8 45 19 19 11 31 19 25
19 -5 0 -26 -8 -45 -19z"/>
<path d="M1588 8209 c-21 -11 -38 -22 -38 -24 0 -3 18 4 40 15 22 11 40 23 40
25 0 7 0 7 -42 -16z"/>
<path d="M1400 8120 c-19 -11 -31 -19 -27 -20 11 0 67 29 67 35 0 7 -1 7 -40
-15z"/>
<path d="M1200 8020 c-19 -11 -31 -19 -27 -20 11 0 67 29 67 35 0 7 -1 7 -40
-15z"/>
<path d="M1030 7910 c-19 -17 -26 -27 -15 -21 19 9 63 51 54 51 -3 0 -20 -14
-39 -30z"/>
<path d="M9165 7834 c-31 -27 -33 -31 -9 -15 28 18 62 51 53 51 -2 0 -22 -16
-44 -36z"/>
<path d="M888 7783 c-9 -10 -21 -29 -27 -43 l-12 -25 21 25 c23 27 43 60 37
60 -2 0 -11 -8 -19 -17z"/>
<path d="M1544 7721 c-52 -31 -74 -68 -74 -121 0 -57 25 -93 75 -110 72 -24
166 49 169 130 2 95 -90 150 -170 101z m82 -11 c28 0 64 -47 64 -83 0 -56 -63
-117 -120 -117 -29 0 -80 53 -80 82 0 53 73 136 108 123 8 -3 20 -5 28 -5z"/>
<path d="M8780 7595 c-25 -13 -40 -24 -35 -24 6 0 30 11 55 24 25 13 41 24 35
24 -5 0 -30 -11 -55 -24z"/>
<path d="M8580 7510 c-8 -5 -10 -10 -5 -10 6 0 17 5 25 10 8 5 11 10 5 10 -5
0 -17 -5 -25 -10z"/>
<path d="M691 7424 c-6 -21 -9 -40 -6 -42 2 -2 8 13 14 34 6 21 9 40 6 42 -2
2 -8 -13 -14 -34z"/>
<path d="M9215 6610 c-4 -27 -4 -62 -1 -78 6 -26 3 -29 -64 -62 -74 -36 -105
-60 -77 -60 8 0 39 11 69 25 29 14 59 25 66 25 8 0 12 -22 12 -75 0 -41 4 -75
9 -75 13 0 21 38 21 107 l0 63 64 29 c35 16 66 33 70 39 14 23 -14 20 -73 -8
-75 -36 -74 -36 -66 -9 9 26 -3 129 -15 129 -4 0 -11 -22 -15 -50z"/>
</g>
</svg>
