<?xml version="1.0" standalone="no"?>
<!DOCTYPE svg PUBLIC "-//W3C//DTD SVG 20010904//EN"
 "http://www.w3.org/TR/2001/REC-SVG-20010904/DTD/svg10.dtd">
<svg version="1.0" xmlns="http://www.w3.org/2000/svg"
 width="1024.000000pt" height="1024.000000pt" viewBox="0 0 1024.000000 1024.000000"
 preserveAspectRatio="xMidYMid meet">

<g transform="translate(0.000000,1024.000000) scale(0.100000,-0.100000)"
fill="#e0e0e0" stroke="none">
<path d="M4006 9630 c-124 -16 -289 -52 -408 -91 -143 -46 -283 -110 -296
-135 -6 -11 -18 -59 -27 -109 -9 -49 -27 -144 -41 -211 -13 -67 -24 -131 -24
-143 0 -33 36 -63 73 -59 45 4 60 40 101 248 47 242 48 255 25 284 l-19 24
102 40 c389 149 796 179 1217 91 301 -64 533 -177 720 -354 215 -204 359 -435
531 -855 86 -211 175 -388 238 -472 138 -189 294 -294 509 -345 116 -27 469
-24 738 8 262 30 602 33 745 6 135 -25 290 -80 398 -139 325 -180 756 -658
962 -1068 206 -409 238 -821 100 -1278 -51 -169 -89 -264 -258 -633 -88 -192
-162 -389 -183 -484 -8 -34 -13 -123 -14 -205 0 -133 2 -152 28 -227 39 -114
102 -234 198 -376 161 -238 224 -367 276 -556 24 -88 26 -113 27 -291 1 -169
-2 -209 -22 -300 -48 -217 -175 -479 -334 -690 -77 -102 -251 -291 -260 -282
-4 4 -19 93 -33 197 -14 105 -39 271 -55 370 -45 281 -90 592 -90 625 l0 30
190 0 191 0 -3 83 -3 82 -365 97 c-201 53 -369 97 -375 98 -5 0 17 11 50 25
83 34 129 85 145 161 26 120 -21 432 -85 571 -14 30 -25 57 -25 58 0 1 23 6
52 9 39 6 59 15 85 41 47 47 43 85 -15 147 l-25 28 26 49 c36 65 35 102 -3
134 -32 27 -35 29 -118 47 -61 14 -87 41 -97 103 -4 23 -12 48 -19 56 -12 16
-144 81 -163 81 -7 0 -19 24 -28 53 -22 77 -50 116 -98 137 -73 34 -124 21
-201 -50 -25 -24 -61 -45 -78 -49 -28 -6 -35 -14 -51 -56 -10 -27 -19 -76 -20
-109 -2 -56 2 -68 40 -131 23 -39 51 -96 63 -127 25 -67 51 -103 91 -123 33
-18 37 -33 12 -41 -10 -3 -46 -19 -81 -36 -81 -38 -125 -95 -197 -258 -30 -67
-65 -141 -79 -164 -42 -72 -156 -166 -156 -128 0 11 76 270 95 322 29 81 75
253 75 281 0 26 -4 28 -92 49 -182 42 -1191 241 -1202 237 -7 -3 -20 -31 -29
-63 -10 -33 -61 -193 -114 -356 l-96 -297 -59 58 c-43 44 -87 74 -168 116 -61
31 -110 60 -110 66 0 6 5 30 11 55 l11 44 54 0 c42 0 58 5 73 21 28 30 43 114
40 218 -2 73 0 94 16 117 26 40 31 113 11 152 -20 38 -102 102 -174 135 -62
29 -89 25 -148 -20 -33 -24 -46 -28 -105 -28 -60 0 -72 -3 -93 -25 -31 -32
-116 -194 -116 -221 0 -27 23 -69 50 -94 13 -11 36 -49 52 -85 16 -36 47 -83
69 -105 37 -39 39 -43 33 -87 -6 -43 -9 -47 -42 -53 -43 -8 -130 -48 -157 -72
-42 -37 -116 -136 -156 -208 -31 -57 -46 -75 -62 -75 -12 0 -145 20 -297 44
-151 25 -312 50 -358 57 l-83 11 -80 120 c-45 65 -102 136 -128 158 -40 34
-46 43 -45 77 2 73 0 70 52 66 62 -6 94 18 117 90 10 28 29 64 43 79 24 27 25
29 14 97 -17 100 -15 146 8 183 33 55 22 104 -37 160 -51 49 -84 56 -254 54
-151 -1 -157 -2 -196 -28 -46 -30 -88 -105 -99 -174 -12 -80 46 -216 111 -258
24 -16 26 -22 20 -54 -3 -21 -13 -58 -21 -84 -15 -45 -16 -46 -49 -41 -25 4
-41 0 -61 -16 -15 -11 -32 -21 -38 -21 -30 0 -122 -55 -172 -102 -97 -92 -167
-225 -250 -479 l-38 -117 -50 -6 c-28 -3 -124 -6 -213 -6 -100 0 -164 -4 -168
-10 -4 -6 19 -38 50 -72 115 -123 174 -238 246 -473 73 -235 157 -405 239
-478 21 -20 63 -48 92 -63 29 -14 55 -28 57 -30 4 -4 -183 -565 -231 -691
l-39 -103 -107 -2 c-243 -5 -481 9 -657 38 -49 8 -97 17 -106 20 -14 4 -17 36
-23 237 -8 278 1 423 54 842 54 435 64 563 56 740 -6 129 -31 383 -52 535 l-6
45 85 -87 c47 -47 107 -99 133 -114 l47 -28 44 50 c112 125 209 339 234 514
l13 89 57 50 c68 61 78 88 51 157 -14 37 -16 57 -9 77 7 21 5 34 -7 52 -21 32
-48 32 -77 -1 -13 -14 -41 -36 -61 -50 -58 -37 -72 -73 -65 -168 l5 -80 -52
-71 c-29 -38 -72 -99 -96 -134 l-43 -64 -19 24 c-11 13 -60 72 -110 130 -49
58 -101 122 -115 142 l-26 36 59 97 c32 53 67 102 79 109 11 8 49 17 84 21 75
8 111 35 111 81 -1 64 -95 121 -130 78 -10 -13 -10 -19 5 -35 18 -20 17 -20
-13 -20 -64 0 -84 -24 -29 -34 61 -11 131 32 82 50 -17 7 -20 24 -5 24 14 0
60 -46 60 -60 0 -28 -41 -50 -94 -50 -69 0 -90 -17 -166 -130 -33 -49 -64 -91
-69 -94 -12 -8 -60 49 -78 91 -7 18 -13 55 -13 83 0 42 3 50 19 50 10 0 32 5
50 11 68 24 98 157 58 261 -17 44 -17 49 -2 78 9 18 19 55 21 84 9 95 -48 146
-165 146 -33 0 -72 5 -88 11 -101 40 -267 -31 -314 -135 -53 -117 11 -286 133
-355 83 -47 79 -40 60 -94 -13 -37 -26 -53 -57 -70 -91 -51 -212 -258 -298
-512 -65 -190 -72 -230 -57 -307 15 -79 69 -215 120 -301 l38 -66 -13 -52
c-26 -99 -36 -238 -39 -565 -3 -317 -5 -333 -30 -439 -55 -225 -85 -372 -96
-465 -19 -159 -8 -147 -100 -99 -111 57 -305 186 -419 277 -307 246 -532 567
-647 920 -65 202 -99 435 -89 612 13 228 47 363 136 545 91 182 191 305 533
655 376 384 520 613 566 902 19 120 8 349 -23 468 -42 162 -117 330 -210 471
l-17 25 69 49 c87 62 94 73 78 122 -10 32 -17 38 -44 41 -37 4 -74 -13 -133
-63 -42 -35 -43 -35 -57 -15 -34 48 -143 292 -172 382 -119 375 -67 755 140
1030 45 61 208 213 217 203 2 -2 -3 -14 -12 -27 -28 -44 -87 -203 -118 -318
-26 -99 -31 -137 -35 -280 -6 -198 10 -309 64 -445 127 -321 323 -510 783
-756 202 -107 281 -162 357 -243 97 -103 154 -216 223 -443 39 -129 79 -188
151 -226 51 -27 60 -28 161 -25 l108 3 -35 -32 c-25 -23 -35 -41 -35 -61 0
-35 33 -80 68 -93 19 -7 22 -13 14 -21 -18 -18 -14 -69 7 -104 29 -47 80 -67
164 -62 l71 3 21 -34 c11 -19 34 -49 51 -68 35 -36 74 -42 145 -23 52 15 73
43 79 108 5 52 7 56 37 66 52 18 59 29 41 75 l-16 40 54 21 c30 13 65 35 78
51 44 52 43 75 -19 228 l-55 140 49 49 c86 86 93 187 26 372 -70 197 -85 257
-85 345 0 118 24 185 155 440 186 361 246 530 265 752 12 135 0 300 -31 413
-45 167 -155 337 -326 500 -209 201 -470 337 -767 402 -146 32 -454 32 -602 0
-399 -86 -737 -300 -946 -599 -37 -52 -87 -106 -140 -151 -90 -75 -172 -160
-217 -226 -70 -101 -133 -253 -163 -391 -19 -88 -16 -340 5 -447 29 -145 117
-379 205 -541 14 -26 23 -49 21 -51 -2 -2 -58 -44 -125 -94 -126 -96 -150
-125 -134 -166 27 -72 81 -53 269 97 l74 58 23 -35 c45 -66 143 -271 174 -363
61 -185 76 -407 39 -580 -39 -179 -76 -263 -195 -443 -73 -111 -121 -165 -420
-478 -248 -258 -315 -337 -396 -462 -101 -154 -156 -289 -195 -470 -22 -104
-24 -411 -4 -535 51 -320 182 -626 373 -878 187 -245 494 -496 786 -641 l83
-41 -7 -55 c-4 -30 -8 -111 -8 -180 0 -109 3 -132 24 -178 12 -29 20 -55 17
-58 -3 -3 -141 -5 -306 -5 -316 2 -354 -3 -387 -47 -22 -28 -17 -87 10 -119
l24 -28 4210 0 4210 0 26 24 c53 50 42 131 -21 158 -31 13 -71 15 -223 12
l-184 -4 -7 35 c-24 115 -26 108 49 186 174 181 285 331 383 518 213 407 252
767 123 1138 -50 143 -88 214 -236 440 -200 306 -232 390 -232 603 0 202 35
321 214 715 189 417 249 580 296 807 24 111 27 153 28 318 1 225 -18 338 -88
540 -130 370 -473 843 -821 1130 -217 179 -405 269 -650 312 -155 27 -500 24
-770 -7 -267 -30 -591 -33 -701 -8 -152 36 -276 99 -386 197 -116 103 -228
295 -357 608 -138 337 -280 588 -423 749 -308 347 -709 510 -1278 519 -113 2
-236 0 -274 -5z m-951 -930 c235 -22 451 -91 637 -203 332 -199 515 -436 580
-747 17 -79 19 -120 15 -240 -8 -227 -65 -408 -220 -710 -44 -85 -98 -189
-119 -230 -80 -156 -103 -293 -74 -439 9 -45 40 -153 68 -239 68 -209 66 -254
-14 -328 -57 -55 -138 -87 -443 -180 -269 -82 -381 -92 -457 -41 -47 32 -72
82 -124 247 -68 211 -123 311 -238 425 -75 74 -125 107 -341 225 -418 228
-607 394 -721 635 -215 453 -76 1058 332 1445 147 138 315 236 531 308 147 49
231 64 458 81 11 0 70 -4 130 -9z m845 -3326 c6 -14 10 -31 10 -38 0 -8 -112
-50 -296 -111 -274 -90 -297 -96 -312 -81 -38 38 15 65 353 182 116 40 216 73
223 73 7 1 17 -11 22 -25z m68 -179 c7 -14 12 -28 12 -31 0 -9 -96 -46 -312
-119 -120 -41 -226 -79 -238 -85 -26 -14 -60 3 -60 30 0 11 12 28 27 37 20 14
527 189 554 192 3 1 11 -10 17 -24z m-212 -241 c10 -38 -3 -95 -25 -118 -32
-31 -70 -12 -104 51 l-27 51 57 20 c78 27 91 27 99 -4z m-1431 -149 c33 -8 84
-14 113 -15 72 0 102 -29 102 -97 0 -84 -63 -153 -141 -153 -39 0 -56 -14 -83
-68 -14 -27 -15 -39 -6 -67 14 -43 7 -55 -33 -55 -86 0 -170 57 -219 147 -77
141 -25 258 137 309 52 16 59 16 130 -1z m203 -290 c20 -43 15 -155 -8 -192
-19 -33 -72 -52 -105 -39 -12 4 -15 -6 -15 -65 0 -69 -1 -71 -22 -64 -13 3
-50 14 -83 22 -33 9 -63 19 -68 23 -4 3 0 29 9 57 16 49 18 51 59 58 60 9 71
24 55 80 -14 51 -8 84 14 66 16 -14 26 -4 26 26 0 19 5 23 33 23 17 1 43 7 57
15 34 19 35 19 48 -10z m1889 -267 c97 -66 89 -125 -24 -179 -38 -18 -71 -37
-75 -43 -4 -6 -8 -28 -8 -48 l0 -38 -33 36 c-23 26 -42 37 -62 37 -42 0 -57
-28 -52 -90 l4 -53 -36 0 c-53 0 -111 38 -146 94 -26 44 -30 58 -30 125 0 63
4 83 24 115 39 62 77 73 249 73 146 0 147 0 189 -29z m-1237 -55 c0 -9 -5 -31
-12 -50 -11 -30 -10 -35 17 -63 24 -26 27 -34 19 -56 -5 -15 -30 -45 -56 -67
-44 -37 -49 -39 -77 -28 -31 13 -41 41 -41 110 0 43 8 56 38 65 12 4 38 32 57
62 34 52 55 62 55 27z m-919 -37 c37 -8 85 -24 107 -35 40 -20 145 -137 137
-151 -3 -4 -18 -10 -34 -13 -17 -4 -45 -20 -63 -36 -32 -29 -33 -32 -33 -108
0 -91 17 -133 103 -246 41 -54 52 -76 52 -105 0 -34 41 -424 55 -514 l5 -37
-80 -40 c-109 -54 -205 -74 -333 -69 -84 3 -112 8 -160 30 -31 15 -60 34 -63
43 -4 9 5 56 20 104 52 168 58 232 57 544 -1 266 -8 344 -28 323 -4 -3 -7
-151 -8 -328 -2 -318 -14 -455 -40 -452 -18 3 -106 195 -127 276 -24 96 -20
122 44 308 75 215 197 447 264 499 31 25 38 25 125 7z m2183 -132 c11 -28 6
-117 -9 -182 -39 -167 -115 -209 -188 -106 -31 45 -32 45 -35 19 -2 -14 4 -37
13 -51 13 -21 14 -31 4 -64 -7 -22 -15 -40 -18 -40 -6 0 -164 51 -169 55 -1 1
7 31 18 66 11 35 20 76 20 92 0 31 0 30 34 17 18 -7 36 -5 65 8 43 18 50 32
26 52 -17 14 -20 75 -5 85 21 13 51 -8 84 -57 l34 -50 11 38 c5 22 13 54 18
73 6 27 16 37 43 47 46 17 47 17 54 -2z m3733 -51 c20 -9 48 -36 66 -64 18
-27 35 -49 39 -49 4 0 8 15 10 32 4 41 30 48 46 13 18 -40 -8 -92 -79 -152
-71 -62 -113 -74 -161 -46 -39 22 -81 101 -98 185 -16 85 -7 98 76 98 41 0 79
-6 101 -17z m-5625 -60 c44 -34 104 -100 186 -207 56 -74 60 -81 46 -100 -16
-23 -19 -56 -5 -56 5 0 52 64 105 143 124 186 144 209 174 201 23 -6 24 -10
17 -63 -20 -158 -95 -341 -200 -483 -65 -89 -57 -89 -152 -3 -128 115 -301
345 -323 427 -16 56 2 102 52 139 23 16 46 29 53 29 6 0 28 -12 47 -27z m4568
-143 c332 -67 606 -123 609 -125 2 -3 -16 -71 -42 -153 -40 -127 -90 -295
-168 -564 -20 -69 -26 -75 -57 -58 -39 21 -356 85 -742 150 -135 22 -284 50
-332 61 -105 25 -130 45 -42 34 92 -11 510 -88 834 -154 162 -33 295 -59 295
-58 1 1 46 148 100 327 53 179 103 344 111 367 l13 42 -47 6 c-26 4 -238 44
-472 90 -589 116 -680 133 -684 126 -2 -3 -36 -112 -76 -241 -99 -323 -156
-467 -176 -448 -2 2 30 105 71 229 42 123 92 278 112 344 43 145 49 157 71
151 9 -3 289 -60 622 -126z m-1072 -37 c-3 -57 -10 -100 -22 -122 -17 -32 -20
-33 -62 -27 -24 3 -50 3 -59 0 -8 -4 -22 -31 -31 -61 l-16 -55 -46 7 c-108 15
-112 16 -112 40 0 44 10 55 52 55 22 0 49 5 60 11 12 6 35 12 52 13 30 2 31 3
28 49 -3 41 -1 47 17 47 22 0 51 35 51 63 0 23 71 90 84 77 4 -4 7 -48 4 -97z
m1037 -2 c275 -55 517 -102 537 -105 l37 -7 -15 -42 c-8 -23 -32 -103 -54
-177 -21 -74 -59 -201 -84 -283 -25 -81 -46 -154 -46 -162 0 -19 -17 -19 -94
1 -118 31 -451 95 -755 145 -168 28 -310 54 -314 58 -4 4 15 68 42 142 27 74
57 162 66 196 10 35 21 60 26 58 4 -3 26 -33 49 -67 35 -53 40 -67 35 -98 -11
-67 48 -80 61 -13 5 24 28 58 83 115 l77 81 26 -17 c32 -21 84 -162 79 -214
-5 -55 45 -87 69 -43 23 45 8 85 -35 93 -15 2 -27 23 -47 82 -24 73 -25 82
-11 103 19 28 10 68 -18 83 -30 17 -47 6 -68 -42 -17 -41 -154 -198 -171 -198
-5 0 -36 37 -69 83 l-59 83 33 113 c19 63 37 121 40 129 6 17 -51 27 580 -97z
m-1158 4 c-4 -8 -11 -15 -17 -15 -14 0 -13 27 3 33 16 6 21 1 14 -18z m2380
-83 l20 -79 -65 -93 c-76 -108 -78 -108 -92 37 -14 148 -16 141 33 162 23 10
48 26 56 35 7 9 17 16 21 16 4 0 16 -35 27 -78z m-4241 -37 c161 -53 171 -72
17 -35 -102 24 -156 46 -148 60 9 14 9 14 131 -25z m2744 5 c0 -5 -4 -20 -10
-35 -8 -22 -13 -24 -30 -15 -22 12 -27 49 -8 68 12 12 48 -1 48 -18z m-2825
-46 c70 -25 122 -37 174 -40 67 -3 77 -7 117 -39 63 -52 94 -93 272 -360 87
-132 167 -247 177 -255 16 -13 35 -9 189 44 94 32 210 75 257 95 l85 37 -23
-70 c-12 -39 -27 -90 -33 -113 l-11 -43 -58 0 c-79 0 -161 -16 -191 -38 -14
-10 -31 -33 -39 -50 -17 -37 -56 -52 -141 -52 -103 0 -206 66 -370 236 -90 93
-202 231 -229 282 -15 27 -31 29 -31 2 0 -26 34 -80 100 -159 l51 -62 -47
-117 c-68 -170 -104 -322 -104 -438 0 -126 -14 -125 -80 7 -148 296 -327 457
-539 485 -28 4 -53 10 -56 13 -7 13 95 285 148 396 63 128 132 211 209 249 29
14 57 26 62 26 6 0 56 -17 111 -36z m4453 -18 c98 -50 143 -94 190 -183 67
-130 102 -291 103 -469 0 -134 -21 -176 -111 -222 -77 -38 -211 -67 -355 -77
l-100 -7 -18 37 c-10 21 -17 39 -15 40 2 2 68 33 148 69 109 50 152 65 173 60
32 -7 34 2 7 54 -16 31 -21 70 -29 211 -9 169 -22 226 -37 166 -7 -29 1 -267
12 -343 l7 -42 -87 -40 c-47 -22 -89 -40 -93 -40 -14 0 20 317 53 485 22 114
75 335 80 335 3 0 35 -15 72 -34z m-373 -53 c-34 -119 -66 -359 -72 -551 l-6
-172 -36 6 c-20 4 -39 9 -43 13 -7 7 13 233 36 395 18 127 20 166 6 166 -15 0
-37 -94 -54 -230 -26 -204 -18 -185 -91 -225 -89 -50 -123 -58 -192 -46 -31 6
-58 12 -59 14 -2 1 2 22 9 45 11 36 23 49 79 87 95 64 137 127 238 359 49 111
75 147 139 188 67 42 71 38 46 -49z m61 0 c-7 -81 4 -167 23 -186 15 -15 42
12 103 103 28 41 48 64 45 50 -48 -186 -79 -377 -98 -590 -6 -74 -13 -137 -15
-139 -1 -2 -38 3 -81 10 l-78 14 1 120 c1 141 18 314 44 475 20 118 46 220 57
220 3 0 3 -35 -1 -77z m-1566 -129 c0 -14 -6 -24 -14 -24 -22 0 -28 17 -16 40
14 26 30 17 30 -16z m340 -19 c13 -16 4 -55 -13 -55 -27 0 -40 18 -33 44 7 29
27 34 46 11z m-1967 -222 c158 -26 287 -50 287 -54 0 -15 -453 -174 -473 -166
-8 3 -56 67 -107 143 l-93 137 49 -6 c27 -4 178 -28 337 -54z m1572 -112 c83
-16 186 -35 230 -41 44 -7 84 -16 88 -20 4 -3 -4 -31 -18 -61 -44 -95 -42 -98
129 -130 l116 -22 24 22 c14 13 27 35 31 49 10 39 -20 58 -112 71 -43 6 -91
15 -108 20 -30 9 -30 9 -4 10 15 1 69 -7 120 -18 52 -10 139 -27 194 -36 78
-14 95 -20 77 -26 -30 -11 -39 -37 -19 -56 9 -9 63 -26 121 -38 l105 -22 27
28 c19 20 25 35 22 53 -3 15 -1 26 6 26 19 0 155 -28 341 -69 99 -23 190 -41
203 -41 12 0 22 -4 22 -9 0 -15 -78 -41 -123 -41 -93 -1 -182 -33 -129 -46 33
-9 28 -16 -31 -44 -37 -18 -52 -31 -52 -45 0 -17 7 -20 51 -20 35 0 56 -5 68
-18 12 -11 25 -15 38 -11 13 4 24 1 29 -7 7 -11 15 -10 44 5 l36 20 -26 14
c-22 11 -33 11 -56 1 -39 -15 -44 -8 -18 25 19 24 22 25 33 11 10 -14 14 -13
36 10 21 22 22 28 10 35 -20 13 -79 30 -110 31 -14 1 4 5 40 9 36 4 88 10 115
14 l50 7 28 -56 27 -56 -28 -29 c-16 -15 -47 -34 -70 -41 -46 -13 -47 -15 -32
-55 9 -23 14 -26 41 -20 48 9 210 88 206 100 -9 23 -68 0 -149 -56 -38 -27
-28 5 15 51 26 28 47 55 47 61 0 5 19 10 43 10 23 0 96 5 162 11 l120 12 130
-36 c72 -20 213 -57 315 -84 l185 -48 -105 -7 c-149 -10 -1414 -48 -1600 -48
-85 0 -198 7 -250 15 -52 8 -192 30 -310 49 -118 18 -262 40 -320 47 l-105 13
110 8 c60 4 132 14 160 22 77 23 141 27 250 17 55 -5 162 -13 238 -17 122 -6
137 -5 137 9 0 9 -13 23 -28 31 -16 8 -34 21 -40 29 -9 11 -51 16 -170 22 -86
3 -188 11 -227 16 -67 9 -71 12 -113 59 l-44 50 -108 0 c-108 0 -110 0 -144
31 -39 34 -71 87 -122 202 -40 91 -39 90 -16 83 9 -3 85 -19 167 -35z m-1981
-265 c27 -20 45 -36 39 -36 -12 0 -317 61 -321 65 -1 1 12 41 29 89 l32 87 86
-84 c47 -46 108 -101 135 -121z m3346 107 c-1 -55 -8 -60 -67 -49 l-55 10 54
27 c63 33 68 34 68 12z m-435 -33 l20 -9 -20 1 c-11 0 -31 4 -45 8 l-25 8 25
0 c14 0 34 -3 45 -8z m43 -57 c2 -9 -7 -13 -27 -13 -30 0 -39 9 -24 24 11 10
46 3 51 -11z m-2978 -77 c146 -29 304 -59 351 -66 85 -13 87 -14 108 -50 27
-48 26 -60 -2 -60 -13 0 -149 23 -303 50 -153 28 -319 58 -367 67 -85 15 -88
16 -83 39 8 29 25 74 28 74 2 0 122 -24 268 -54z m1621 -36 c24 -44 45 -69 81
-92 26 -17 48 -32 48 -33 0 -3 -166 23 -197 30 l-21 5 19 62 c23 77 27 88 33
88 3 0 19 -27 37 -60z m-1216 10 c4 -6 -6 -10 -22 -10 -22 0 -25 2 -13 10 19
12 27 12 35 0z m1898 -64 l31 -39 -39 7 c-44 8 -75 37 -75 70 0 49 23 38 83
-38z m-2519 -7 c11 -10 45 -181 46 -226 l0 -33 -85 0 -85 0 0 73 c0 68 15 181
27 200 6 10 84 -1 97 -14z m276 -48 c113 -21 257 -47 320 -57 93 -14 119 -21
136 -39 36 -38 110 -231 159 -410 25 -93 56 -187 68 -209 25 -46 67 -77 195
-141 51 -26 92 -48 92 -51 0 -11 -313 -790 -321 -799 -6 -5 -152 -10 -364 -10
l-355 -2 -5 31 c-11 62 -23 221 -16 224 73 30 75 50 12 142 l-49 73 25 21 c20
18 28 39 42 124 l17 104 12 -184 c11 -175 12 -184 35 -204 22 -19 25 -31 28
-108 3 -63 8 -90 19 -97 21 -14 202 -4 275 15 85 23 183 73 190 97 13 40 -28
64 -173 100 -39 9 -43 13 -37 32 15 44 17 147 5 347 -6 113 -13 321 -15 464
-4 289 -2 278 -80 319 -33 17 -59 21 -150 21 -60 1 -141 -1 -180 -4 l-70 -5
-21 95 c-36 166 -36 162 -16 156 9 -3 109 -23 222 -45z m2540 34 c193 -11 198
-25 7 -20 -124 4 -187 9 -210 20 -31 14 -30 14 33 10 36 -3 112 -7 170 -10z
m860 6 c0 -14 -110 -52 -139 -49 -23 3 -19 7 29 30 56 27 110 36 110 19z
m-1693 -101 c131 -22 351 -56 488 -75 235 -34 548 -84 551 -88 0 -1 -3 -21 -8
-44 -8 -39 -11 -42 -36 -38 -15 3 -117 18 -227 35 -493 73 -1020 162 -1031
172 -4 5 15 78 21 78 2 0 111 -18 242 -40z m-211 -89 c27 -5 261 -44 519 -86
259 -42 473 -80 476 -83 10 -11 -30 -839 -48 -977 -6 -46 -13 -56 -90 -133
-98 -98 -105 -124 -46 -149 48 -19 111 -13 189 21 162 69 279 125 282 135 2 5
-6 42 -17 82 l-20 71 75 187 c41 102 79 190 83 194 5 5 29 -99 54 -230 62
-321 109 -584 105 -588 -5 -5 -1667 -9 -1673 -4 -2 3 -30 88 -60 190 -31 101
-85 272 -121 380 -35 107 -64 200 -64 206 0 6 38 13 93 16 50 4 103 9 117 12
l25 6 24 -163 c12 -90 27 -203 33 -253 14 -127 15 -130 42 -143 25 -11 25 -13
19 -90 -4 -51 -2 -81 5 -86 12 -7 319 -39 543 -56 161 -13 220 -5 239 30 19
35 -13 75 -105 131 -99 61 -92 33 -75 284 13 184 31 310 75 530 19 93 35 183
35 200 0 49 -50 87 -130 100 -78 12 -80 13 -69 42 20 53 2 57 -244 64 -259 8
-317 20 -337 74 -10 25 -2 95 10 95 4 0 29 -4 56 -9z m3219 -62 c4 -22 5 -42
3 -44 -5 -5 -1628 -45 -1833 -45 l-121 0 4 39 4 38 196 7 c109 3 368 11 577
17 209 6 472 14 585 18 113 5 289 9 392 9 l186 2 7 -41z m-665 -151 c6 -29 20
-109 31 -178 11 -69 43 -251 70 -405 28 -154 68 -381 89 -505 21 -124 42 -233
46 -243 6 -16 -24 -17 -469 -17 l-475 0 -6 27 c-10 48 -73 457 -116 748 -22
154 -52 351 -66 438 -14 87 -23 161 -20 164 5 5 371 15 798 21 l106 2 12 -52z
m293 -13 c4 -33 26 -179 48 -325 33 -217 125 -849 143 -978 l5 -32 -109 0
c-95 0 -109 2 -114 18 -7 24 -58 306 -101 557 -20 116 -56 316 -80 445 -24
129 -46 260 -50 290 -3 30 -9 63 -11 73 -5 16 4 17 128 15 l133 -3 8 -60z
m-1685 39 c48 -6 53 -9 48 -28 -18 -75 -72 -391 -105 -616 l-38 -265 -42 -3
-43 -3 6 63 c11 105 25 390 31 613 8 268 6 259 53 252 20 -3 61 -9 90 -13z
m447 -51 c15 -127 192 -1274 201 -1306 5 -16 -3 -17 -102 -15 l-108 3 -9 40
c-4 22 -30 166 -58 320 -27 154 -72 390 -99 525 -27 135 -58 298 -68 362 l-18
117 35 4 c20 2 77 4 127 5 l92 2 7 -57z m-291 32 c3 -9 22 -115 42 -236 l36
-220 -25 -57 c-14 -31 -46 -112 -70 -179 -73 -198 -95 -240 -129 -252 -48 -17
-68 0 -68 56 0 88 126 863 146 894 9 15 61 10 68 -6z m-686 -112 c34 -16 37
-22 40 -64 2 -25 -8 -95 -22 -155 -51 -227 -86 -503 -86 -684 l0 -108 -50 -11
c-83 -18 -157 -14 -180 9 -17 17 -20 33 -20 123 0 120 -17 445 -26 500 -6 40
-18 48 -28 20 -7 -18 -40 -338 -51 -495 l-7 -87 -35 -12 c-32 -10 -166 -10
-177 1 -2 3 -21 125 -42 272 -38 265 -38 268 -19 282 11 8 78 41 149 73 71 31
161 78 200 103 87 57 177 153 202 215 l19 47 48 -6 c27 -3 65 -13 85 -23z
m-2492 -250 c-2 -16 -15 -88 -27 -160 -12 -73 -25 -133 -29 -133 -5 0 -50 128
-86 247 l-13 41 57 15 c31 8 67 15 80 16 20 1 23 -3 18 -26z m-131 -190 c32
-98 58 -182 57 -188 0 -5 -6 -36 -12 -68 -11 -50 -11 -60 4 -75 12 -14 16 -38
16 -94 0 -51 4 -79 13 -87 20 -16 91 -17 175 -2 72 13 101 9 72 -9 -17 -10
-44 -14 -210 -30 -63 -5 -124 -13 -136 -16 -24 -6 -20 -21 -99 356 -29 140
-59 279 -66 307 -7 29 -10 55 -8 58 4 4 86 20 125 24 6 0 37 -79 69 -176z
m-230 135 c2 -13 21 -102 40 -198 20 -96 53 -251 74 -345 26 -117 35 -172 27
-176 -31 -19 -526 -60 -526 -45 0 5 42 130 94 279 51 150 110 325 130 390 l37
117 59 0 c54 0 60 -2 65 -22z m-1659 -354 l-1 -275 -34 6 c-65 12 -82 23 -76
47 3 13 14 68 25 123 21 103 82 375 85 375 1 0 1 -124 1 -276z m3452 207 c17
-4 31 -23 48 -65 40 -98 229 -715 221 -722 -2 -2 -149 -3 -325 -2 l-322 3 151
375 c83 206 154 385 159 398 10 22 26 25 68 13z m702 -207 c0 -14 5 -91 11
-171 6 -79 9 -147 5 -150 -3 -3 -17 2 -32 12 -26 17 -26 18 -20 109 13 176 19
226 27 226 5 0 9 -12 9 -26z m-1930 -190 c0 -50 -2 -55 -27 -65 -16 -6 -70
-14 -120 -17 l-93 -5 0 74 0 74 120 -3 120 -3 0 -55z m2741 5 c26 -27 34 -31
67 -26 20 3 44 8 53 12 12 5 20 -2 28 -26 19 -55 15 -62 -62 -95 -40 -18 -108
-48 -152 -68 -89 -40 -172 -49 -195 -21 -10 13 -1 26 59 85 l71 69 56 -10 c30
-6 67 -9 82 -7 l27 3 -25 15 c-14 8 -48 19 -77 25 l-51 10 13 33 c19 45 65 45
106 1z m-2403 -57 c81 3 84 2 100 -24 15 -25 15 -28 -3 -49 -46 -51 -173 -87
-203 -57 -7 7 -12 35 -12 63 0 46 -3 53 -25 63 -42 19 -28 32 18 16 28 -10 69
-14 125 -12z m-2602 -53 c40 -11 42 -13 48 -63 3 -28 6 -70 6 -92 l0 -42 -37
9 c-21 5 -55 9 -77 9 l-39 0 7 83 c9 104 13 119 34 113 9 -3 36 -10 58 -17z
m2818 -5 c103 -27 110 -44 33 -80 -124 -56 -318 -83 -363 -50 -25 19 -13 23
83 29 85 5 142 35 163 86 7 17 15 31 17 31 3 0 33 -7 67 -16z m-529 -66 c5
-23 25 -192 25 -215 0 -10 -43 -13 -180 -13 -208 0 -190 -11 -219 125 l-19 85
37 10 c40 11 201 26 293 29 52 1 58 -1 63 -21z m-1805 -33 c154 -27 380 -45
571 -45 214 0 202 6 170 -85 -18 -50 -18 -50 -72 -58 -30 -4 -163 -5 -296 -2
l-242 6 -34 34 c-32 32 -88 55 -137 55 -38 0 -49 12 -59 63 -10 55 -17 52 99
32z m1392 -70 c10 -38 18 -82 18 -97 l0 -28 -326 0 c-179 0 -324 4 -322 8 2 4
14 37 27 74 l24 66 101 6 c131 9 400 37 406 42 2 3 15 4 29 2 22 -3 27 -12 43
-73z m-1772 -100 c0 -8 -7 -15 -15 -15 -16 0 -20 12 -8 23 11 12 23 8 23 -8z
m7312 -59 c41 -19 22 -111 -25 -120 -12 -3 -1901 -7 -4197 -9 -4523 -4 -4222
-8 -4236 48 -8 32 12 83 36 90 10 3 264 4 566 3 534 -2 549 -3 565 -22 16 -20
21 -20 225 -8 115 7 229 17 254 22 25 5 330 9 678 9 552 1 633 -1 638 -14 8
-19 30 -19 38 0 9 23 332 22 365 -1 22 -16 24 -16 33 0 8 14 44 16 358 16
l350 0 -10 -26 c-13 -33 -13 -67 0 -59 6 4 19 24 30 46 l20 39 339 0 339 0 5
-29 c11 -52 37 -105 47 -95 8 8 3 48 -14 101 l-7 23 1643 2 c1611 3 1926 0
1960 -16z"/>
<path d="M2775 8634 c-205 -31 -355 -78 -507 -156 -451 -231 -721 -695 -694
-1193 8 -156 35 -267 96 -391 113 -233 313 -410 675 -600 390 -204 534 -366
630 -716 40 -142 69 -180 151 -198 53 -12 131 3 331 66 98 30 214 64 257 75
100 26 145 48 186 95 31 36 32 40 27 103 -3 42 -18 101 -41 161 -64 164 -81
241 -80 370 0 103 3 125 32 208 18 51 83 194 146 317 127 249 182 383 216 525
33 133 34 387 2 501 -103 379 -513 719 -982 814 -73 15 -384 28 -445 19z m455
-92 c171 -40 341 -111 473 -199 161 -107 321 -293 386 -450 50 -121 64 -196
64 -333 -1 -241 -64 -435 -259 -800 -100 -186 -127 -251 -148 -352 -38 -181
-13 -339 99 -647 17 -48 13 -75 -18 -109 -24 -25 -146 -67 -159 -54 -17 17
-394 1131 -413 1219 -7 36 -10 35 164 78 131 33 158 44 206 86 83 73 109 203
61 304 -84 178 -324 215 -464 72 -94 -96 -110 -214 -54 -387 17 -52 30 -95 29
-96 -10 -10 -253 -72 -258 -66 -3 4 -26 63 -50 131 -50 144 -82 191 -159 235
-49 28 -64 31 -135 31 -92 0 -138 -18 -195 -75 -136 -136 -102 -365 65 -441
70 -32 173 -20 398 46 46 14 48 14 57 -8 5 -12 61 -182 126 -377 64 -195 154
-467 200 -604 47 -137 81 -253 76 -258 -13 -13 -169 -41 -195 -34 -29 7 -55
61 -93 194 -54 187 -137 325 -270 452 -102 96 -186 153 -414 279 -102 57 -223
128 -269 159 -161 106 -304 274 -367 431 -106 261 -90 603 41 879 178 376 514
623 960 706 113 22 398 15 515 -12z m306 -1156 c196 -91 183 -360 -20 -425
-34 -10 -106 -31 -161 -46 -55 -15 -105 -29 -111 -32 -6 -2 -23 36 -39 89 -37
120 -40 232 -8 293 67 126 215 179 339 121z m-829 -241 c35 -18 62 -41 86 -77
40 -56 115 -265 101 -278 -20 -18 -282 -85 -335 -85 -79 0 -143 40 -182 115
-25 48 -28 64 -25 121 5 89 42 151 118 197 72 43 159 45 237 7z m598 -597
c102 -319 301 -901 320 -939 l15 -27 -128 -41 c-70 -23 -132 -41 -139 -41 -7
0 -28 51 -47 113 -19 61 -112 344 -205 627 -94 283 -167 518 -163 522 4 3 61
22 127 41 95 27 122 32 128 21 4 -7 45 -131 92 -276z"/>
<path d="M7102 3638 c-30 -15 -38 -52 -18 -83 16 -24 15 -29 -34 -137 -52
-117 -57 -134 -40 -123 11 7 23 34 70 150 42 104 44 115 26 115 -9 0 -16 8
-16 19 0 21 25 51 41 51 16 0 22 -30 11 -54 -7 -15 -7 -63 0 -151 9 -113 9
-129 -5 -137 -50 -27 -62 -76 -26 -101 29 -21 55 -11 70 26 16 40 206 247 227
247 5 0 13 -24 17 -52 29 -226 46 -310 62 -295 2 3 -5 56 -17 119 -12 62 -23
157 -25 210 -2 53 -6 101 -10 107 -10 18 -53 13 -75 -9 -19 -19 -18 -40 3 -67
6 -9 -17 -41 -80 -108 -48 -52 -91 -95 -96 -95 -22 0 -29 64 -24 218 4 160 4
162 -17 161 -12 0 -31 -5 -44 -11z m323 -108 c9 -15 -4 -47 -22 -54 -26 -10
-47 17 -34 43 12 22 45 28 56 11z m-271 -256 c19 -7 21 -55 4 -72 -16 -16 -48
4 -48 31 0 13 5 28 12 35 14 14 12 14 32 6z"/>
<path d="M2282 9364 c-7 -3 -18 -18 -26 -32 -16 -33 -4 -113 49 -326 44 -173
60 -210 98 -214 35 -4 75 21 82 51 10 39 -91 464 -119 502 -12 16 -63 28 -84
19z"/>
<path d="M4223 8874 c-167 -172 -193 -205 -193 -246 0 -31 32 -58 70 -58 45 0
370 347 370 395 0 27 -26 51 -64 61 -28 7 -38 -2 -183 -152z"/>
<path d="M1183 8824 c-46 -46 -30 -74 139 -240 175 -171 202 -194 238 -194 31
0 70 39 70 70 0 23 -48 74 -227 243 -155 146 -180 160 -220 121z"/>
<path d="M6990 8377 c-34 -17 -62 -74 -54 -112 14 -75 113 -111 169 -62 94 82
-3 230 -115 174z m104 -29 c14 -13 26 -30 27 -38 7 -64 -28 -110 -86 -110 -63
0 -100 62 -71 118 29 56 86 69 130 30z"/>
<path d="M4864 8210 c-293 -132 -303 -137 -316 -165 -10 -22 -9 -32 3 -53 13
-23 22 -27 60 -26 36 0 78 16 190 71 79 39 170 83 202 98 34 16 63 37 69 50
16 35 3 71 -30 83 -25 8 -48 1 -178 -58z"/>
<path d="M611 7984 c-45 -58 -13 -104 87 -124 31 -6 127 -28 212 -50 226 -56
234 -57 265 -26 31 31 32 60 3 89 -18 18 -73 34 -268 77 -135 29 -252 55 -261
57 -9 3 -26 -7 -38 -23z"/>
<path d="M5810 7383 c0 -9 176 -53 213 -53 41 0 12 20 -50 33 -103 23 -163 31
-163 20z"/>
<path d="M4556 7308 c-36 -52 -14 -89 67 -113 71 -21 429 -95 460 -95 28 0 67
41 67 70 0 41 -23 50 -329 120 -204 47 -243 49 -265 18z"/>
<path d="M7210 7011 l0 -239 63 -21 c73 -24 781 -201 802 -201 13 0 15 33 13
243 l-3 242 -425 107 c-234 59 -431 107 -437 108 -10 0 -13 -54 -13 -239z
m427 113 c213 -52 398 -97 411 -100 l22 -4 0 -220 c0 -203 -1 -220 -17 -220
-26 1 -802 195 -809 203 -13 12 -18 437 -6 437 6 0 186 -43 399 -96z"/>
<path d="M7335 7090 c50 -23 632 -170 672 -170 39 0 -8 20 -113 49 -149 42
-534 131 -559 130 l-20 0 20 -9z"/>
<path d="M7326 6981 c20 -19 606 -171 660 -171 20 0 35 2 32 6 -7 7 -665 174
-686 174 -10 0 -12 -3 -6 -9z"/>
<path d="M7316 6860 c14 -14 663 -180 703 -180 54 0 -48 31 -342 105 -339 85
-380 94 -361 75z"/>
<path d="M5853 7196 c16 -12 177 -49 255 -59 38 -4 54 10 20 18 -95 22 -261
55 -275 55 -17 -1 -17 -1 0 -14z"/>
<path d="M850 7085 c-256 -52 -271 -56 -291 -76 -40 -40 -13 -109 42 -109 27
0 453 84 481 95 40 16 40 93 -1 114 -27 15 -43 13 -231 -24z"/>
<path d="M5857 7039 c14 -14 196 -59 238 -59 55 0 12 18 -106 44 -132 30 -148
31 -132 15z"/>
<path d="M6270 5850 c0 -947 0 -950 21 -960 11 -6 183 -49 382 -95 199 -46
526 -122 727 -168 201 -47 538 -124 750 -172 212 -47 519 -117 682 -156 164
-38 302 -69 308 -69 12 0 13 256 3 1228 l-6 690 -104 26 c-56 14 -165 39 -240
56 -122 26 -422 94 -1348 309 -649 150 -1139 261 -1156 261 -18 0 -18 -31 -19
-950z m106 910 c39 -10 180 -44 315 -74 134 -31 314 -71 399 -91 85 -20 261
-60 390 -90 129 -30 352 -82 495 -115 554 -130 915 -212 1023 -235 63 -13 116
-25 118 -27 1 -2 4 -423 6 -936 2 -713 0 -932 -9 -932 -20 0 -141 27 -385 85
-128 31 -420 98 -648 150 -499 113 -876 201 -1065 248 -77 20 -214 52 -305 72
-341 74 -422 96 -416 112 3 8 6 428 6 934 0 505 1 919 3 919 1 0 34 -9 73 -20z"/>
<path d="M6382 5819 c3 -457 10 -835 14 -839 7 -6 2537 -598 2616 -612 17 -3
18 28 22 477 2 264 1 644 -2 844 l-7 364 -195 44 c-107 24 -337 75 -510 114
-406 90 -743 168 -1000 230 -113 28 -293 70 -400 94 -107 24 -266 60 -353 79
-87 20 -165 36 -174 36 -15 0 -16 -68 -11 -831z m168 776 c58 -14 186 -44 285
-65 99 -22 326 -75 506 -118 179 -43 627 -146 997 -228 l672 -149 0 -821 0
-821 -217 49 c-218 49 -1765 406 -2156 497 -115 27 -211 52 -215 56 -10 10
-20 536 -21 1118 l-1 507 23 0 c12 0 69 -11 127 -25z"/>
<path d="M6828 6368 c-7 -13 -18 -32 -24 -43 -19 -34 -41 -29 -70 14 -15 23
-32 41 -38 41 -6 0 -24 -12 -40 -26 -29 -25 -29 -26 -12 -55 16 -27 16 -30 0
-54 -9 -14 -18 -25 -21 -25 -2 0 -22 9 -44 21 -23 11 -42 19 -44 17 -14 -16
-46 -93 -39 -95 5 -2 24 -12 42 -23 54 -33 35 -80 -34 -80 -26 0 -27 -1 -20
-46 3 -26 6 -53 6 -60 0 -8 16 -14 43 -16 34 -2 43 -7 45 -25 2 -12 -6 -31
-18 -43 l-22 -22 34 -29 c40 -34 45 -35 75 -7 33 31 57 15 61 -40 3 -38 6 -42
40 -51 38 -11 52 -3 52 31 0 56 36 64 74 16 22 -29 28 -31 53 -22 29 10 32 25
18 71 -5 16 -2 24 14 32 16 9 24 7 41 -11 25 -27 47 -18 72 31 20 39 16 54
-18 69 -34 16 -33 59 2 72 14 6 39 10 55 10 30 0 30 0 27 53 -3 47 -5 52 -28
55 -77 8 -88 26 -50 87 l19 31 -27 33 -27 32 -29 -30 c-28 -29 -30 -29 -57
-15 -31 15 -36 33 -19 64 8 16 6 22 -12 34 -45 28 -66 29 -80 4z m57 -47 c-6
-34 -3 -41 25 -65 38 -32 74 -33 94 -4 15 20 17 21 32 6 14 -14 14 -19 -5 -56
-17 -34 -18 -44 -8 -71 10 -27 16 -31 48 -31 40 0 63 -19 53 -44 -4 -11 -18
-16 -43 -16 -52 0 -73 -19 -75 -65 -1 -39 0 -40 62 -72 2 -1 -7 -16 -19 -33
-24 -31 -24 -31 -41 -11 -9 12 -18 27 -21 34 -3 8 -12 5 -29 -10 -13 -13 -30
-23 -36 -23 -9 0 -10 -12 -6 -40 8 -46 -10 -54 -41 -20 -35 38 -106 20 -97
-26 4 -23 2 -25 -19 -22 -18 2 -25 10 -27 33 -2 19 -15 40 -34 57 l-32 28 -28
-27 c-27 -25 -29 -26 -45 -10 -16 16 -16 18 4 38 18 18 19 26 10 54 -10 33
-29 45 -73 45 -16 0 -23 7 -26 30 -5 36 -2 40 32 40 64 0 80 79 23 115 -32 20
-43 48 -23 60 5 3 27 -3 49 -14 l40 -21 26 32 c23 27 26 38 20 73 -4 31 -2 45
9 54 13 11 18 7 32 -28 15 -38 19 -41 55 -41 33 0 41 4 55 33 23 44 34 57 51
57 12 0 13 -8 8 -39z"/>
<path d="M6682 6216 c-53 -57 -62 -81 -62 -159 0 -78 21 -122 78 -162 37 -25
53 -30 100 -29 73 0 112 22 154 81 25 37 33 61 36 106 7 91 -35 177 -87 177
-10 0 -4 -11 16 -32 38 -40 53 -76 53 -130 0 -80 -58 -158 -132 -176 -96 -24
-175 27 -197 128 -15 72 0 124 51 177 22 22 39 46 36 53 -2 7 -23 -9 -46 -34z"/>
<path d="M6726 6177 c-24 -20 -30 -32 -33 -78 -9 -114 79 -167 184 -110 45 23
53 111 17 166 -32 49 -120 60 -168 22z m128 -18 c32 -25 34 -66 5 -103 -28
-35 -76 -35 -118 0 -39 32 -39 57 -2 95 35 35 77 38 115 8z"/>
<path d="M8366 6067 c-3 -14 -2 -67 4 -119 18 -168 20 -159 -62 -219 -42 -30
-84 -53 -101 -54 -36 -2 -51 -18 -42 -43 13 -42 75 -35 75 7 0 10 10 26 23 37
36 33 126 94 137 94 6 0 59 -15 117 -32 82 -26 108 -38 116 -55 12 -27 48 -31
68 -7 22 26 -2 49 -47 47 -38 -3 -82 8 -195 48 l-56 20 -6 134 c-5 136 -18
193 -31 142z"/>
<path d="M7341 5919 c-22 -9 -23 -13 -17 -63 l6 -53 -39 -12 c-36 -10 -43 -9
-77 14 -44 30 -55 31 -83 7 l-22 -17 25 -48 c15 -26 26 -51 26 -55 -1 -4 -11
-20 -24 -35 l-23 -29 -47 16 c-26 9 -51 16 -55 16 -7 0 -41 -70 -41 -85 0 -3
23 -16 50 -30 52 -26 58 -40 44 -92 -5 -17 -18 -24 -60 -33 -29 -6 -56 -15
-59 -20 -3 -5 -3 -27 1 -48 6 -37 9 -40 46 -46 102 -16 123 -58 67 -135 l-32
-42 23 -25 c14 -14 35 -24 51 -24 37 0 47 18 15 26 -45 11 -49 27 -17 71 27
38 28 41 14 73 -20 49 -42 70 -73 70 -35 0 -75 32 -67 53 3 9 28 20 60 27 l55
11 4 56 3 57 -47 33 c-42 31 -46 36 -37 57 l11 23 48 -18 c47 -18 48 -18 67 4
50 56 54 67 32 108 -36 71 -20 87 42 44 l37 -24 56 22 c55 22 56 22 50 57 -3
19 -8 43 -11 53 -3 14 2 17 30 17 34 0 36 -2 48 -49 l12 -49 61 -5 c34 -2 67
-6 74 -8 8 -3 19 12 27 34 17 50 18 50 55 42 30 -7 32 -9 25 -43 -3 -21 -8
-44 -11 -53 -3 -11 13 -31 46 -59 47 -39 52 -41 68 -27 10 9 35 23 56 32 34
14 41 15 53 2 12 -12 10 -18 -17 -40 -17 -15 -37 -30 -45 -35 -12 -6 -11 -17
10 -67 13 -33 25 -65 25 -72 0 -8 18 -12 55 -11 102 3 114 -55 15 -68 l-48 -6
-7 -47 c-3 -25 -9 -55 -11 -66 -4 -17 4 -25 50 -44 31 -13 56 -25 56 -28 0 -2
-5 -13 -11 -25 -8 -15 -16 -18 -37 -13 -95 26 -89 27 -127 -26 -19 -27 -35
-55 -35 -62 0 -8 12 -24 26 -38 40 -37 46 -53 23 -67 -17 -11 -26 -7 -69 34
l-50 47 -43 -18 c-65 -29 -70 -34 -64 -82 5 -46 -2 -53 -52 -53 -23 0 -28 6
-39 45 -11 40 -15 45 -54 55 -55 15 -85 1 -106 -50 -16 -37 -19 -40 -47 -34
-16 4 -31 7 -32 8 -2 2 4 27 13 56 l16 54 -41 38 c-45 43 -65 47 -81 18 -10
-18 -8 -20 24 -20 48 0 59 -24 51 -104 -7 -60 -6 -62 20 -74 54 -25 74 -17 97
39 l22 51 39 -5 c45 -6 53 -16 62 -69 4 -21 10 -40 13 -42 4 -2 34 1 67 8 l60
12 -3 50 c-4 53 4 66 45 78 16 5 35 -4 78 -39 l56 -46 35 26 c19 14 34 28 34
31 0 3 -16 24 -35 47 -19 22 -35 45 -35 51 0 6 14 26 31 44 28 31 33 33 61 23
58 -20 83 -14 101 24 9 20 17 37 17 40 0 2 -25 15 -56 29 l-56 26 7 42 c9 50
14 55 77 63 l48 7 0 48 0 48 -69 7 -70 7 -15 46 -16 46 41 42 41 42 -23 31
c-12 17 -25 31 -28 31 -3 0 -34 -12 -69 -27 l-62 -26 -26 24 c-24 22 -26 29
-21 82 5 56 4 59 -21 68 -70 27 -80 24 -102 -23 l-22 -43 -51 5 -50 5 -17 50
c-15 44 -20 50 -46 52 -16 1 -40 -2 -53 -8z"/>
<path d="M7357 5705 c-86 -32 -147 -94 -185 -188 -58 -144 12 -318 157 -389
62 -30 171 -36 240 -13 69 22 151 99 182 167 33 74 33 182 0 256 -30 66 -113
144 -177 166 -57 19 -165 20 -217 1z m230 -34 c107 -54 163 -141 163 -252 0
-36 -7 -86 -15 -109 -68 -193 -326 -249 -472 -103 -53 53 -76 106 -81 185 -9
139 62 244 197 295 51 19 156 11 208 -16z"/>
<path d="M7395 5591 c-71 -32 -125 -113 -125 -187 0 -37 30 -108 58 -137 87
-92 230 -88 309 8 55 66 62 145 23 225 -49 96 -166 136 -265 91z m165 -27 c85
-42 124 -148 84 -227 -38 -74 -88 -107 -164 -107 -168 0 -243 197 -116 308 20
17 49 34 64 38 15 3 32 7 37 9 16 4 68 -7 95 -21z"/>
<path d="M8320 5221 c0 -42 24 -59 57 -39 23 13 34 14 102 1 45 -9 84 -22 97
-34 28 -26 52 -24 66 6 8 19 8 28 -2 40 -14 17 -60 21 -60 5 0 -27 -166 -1
-187 30 -9 12 -26 20 -44 20 -25 0 -29 -4 -29 -29z m50 -5 c0 -8 -4 -17 -9
-21 -12 -7 -24 12 -16 25 9 15 25 12 25 -4z m260 -45 c0 -14 -18 -23 -30 -16
-6 4 -8 11 -5 16 8 12 35 12 35 0z"/>
<path d="M8196 5044 c-10 -26 -7 -32 30 -66 51 -47 124 -171 124 -212 0 -19 6
-38 13 -44 30 -25 91 24 67 53 -6 8 -23 15 -38 17 -22 2 -36 19 -79 93 -32 55
-53 102 -53 121 0 16 -5 35 -12 42 -17 17 -45 15 -52 -4z"/>
<path d="M4162 6484 c-28 -20 -28 -56 1 -87 24 -26 272 -173 350 -207 39 -17
51 -19 69 -9 30 16 38 28 38 62 0 24 -12 35 -82 81 -130 84 -302 176 -329 176
-14 0 -35 -7 -47 -16z"/>
<path d="M5302 6107 c-98 -55 -58 -207 55 -207 74 0 131 83 103 150 -26 62
-100 89 -158 57z m120 -37 c26 -27 30 -36 25 -68 -11 -69 -74 -100 -136 -67
-33 16 -41 33 -41 81 0 80 93 113 152 54z"/>
<path d="M2268 5993 c-9 -10 -64 -85 -124 -168 -195 -272 -194 -270 -152 -299
39 -28 72 -20 115 27 33 35 156 203 240 326 40 59 26 115 -32 127 -22 4 -35 1
-47 -13z"/>
<path d="M4785 5063 c-8 -109 -2 -319 8 -330 4 -3 102 -25 219 -49 117 -24
261 -56 320 -71 l108 -26 52 -88 c29 -49 56 -89 61 -89 4 0 7 135 7 300 0 165
-2 300 -4 300 -12 0 -213 44 -318 69 -114 28 -418 91 -438 91 -4 0 -11 -48
-15 -107z m153 58 c119 -24 340 -73 485 -107 l107 -26 0 -250 0 -251 -39 61
c-22 33 -48 62 -58 65 -46 13 -265 62 -433 96 l-185 37 -3 203 c-2 180 -1 203
13 197 9 -3 59 -14 113 -25z"/>
<path d="M4870 5032 c0 -5 89 -28 198 -52 108 -23 234 -50 280 -60 45 -10 82
-14 82 -10 0 5 -8 11 -17 14 -57 16 -369 87 -428 96 -38 6 -80 13 -92 16 -13
2 -23 0 -23 -4z"/>
<path d="M4866 4930 c12 -12 555 -130 567 -123 14 8 2 13 -79 33 -102 24 -471
100 -486 100 -8 0 -9 -3 -2 -10z"/>
<path d="M4866 4831 c5 -5 92 -28 194 -51 102 -23 218 -50 259 -61 81 -21 111
-24 111 -11 0 12 -511 132 -563 132 -7 0 -7 -3 -1 -9z"/>
</g>
</svg>
