<?xml version="1.0" standalone="no"?>
<!DOCTYPE svg PUBLIC "-//W3C//DTD SVG 20010904//EN"
 "http://www.w3.org/TR/2001/REC-SVG-20010904/DTD/svg10.dtd">
<svg version="1.0" xmlns="http://www.w3.org/2000/svg"
 width="1024.000000pt" height="1024.000000pt" viewBox="0 0 1024.000000 1024.000000"
 preserveAspectRatio="xMidYMid meet">

<g transform="translate(0.000000,1024.000000) scale(0.100000,-0.100000)"
fill="#e0e0e0" stroke="none">
<path d="M8745 9817 c-49 -59 -94 -107 -99 -107 -5 0 -57 27 -115 59 -158 88
-143 91 -179 -41 -17 -62 -34 -126 -38 -141 -4 -19 -11 -26 -23 -23 -24 7
-255 46 -275 46 -14 0 -16 -18 -16 -154 l0 -155 -52 -10 c-29 -6 -95 -18 -145
-27 -53 -9 -93 -21 -93 -28 0 -6 23 -67 50 -135 28 -69 47 -128 43 -131 -5 -4
-56 -40 -115 -79 -60 -39 -108 -77 -108 -84 0 -6 43 -55 97 -109 l96 -96 -40
-49 c-59 -71 -123 -164 -123 -180 0 -8 49 -38 115 -69 63 -30 115 -59 115 -64
0 -4 -20 -60 -45 -123 -44 -113 -53 -147 -37 -147 24 -1 265 -39 269 -43 2 -3
-1 -45 -7 -93 -5 -49 -12 -106 -14 -128 l-4 -38 56 7 c31 3 65 8 75 11 9 3 17
0 17 -6 0 -5 -38 -90 -84 -188 -46 -97 -89 -194 -96 -215 l-12 -38 -36 37
c-41 42 -148 96 -242 121 -79 20 -276 24 -336 5 -55 -16 -104 -50 -131 -91
-18 -26 -23 -48 -23 -97 0 -83 -48 -191 -114 -256 -53 -52 -56 -69 -21 -96 25
-20 25 -20 19 -139 l-7 -119 31 -35 30 -34 101 -1 c84 -1 105 -4 122 -20 38
-34 59 -93 59 -171 0 -68 10 -97 25 -72 4 6 8 43 8 82 0 82 -18 132 -68 181
-30 30 -33 31 -129 31 -95 0 -98 1 -122 28 -27 32 -31 90 -14 207 5 36 6 66 1
68 -4 1 -17 9 -27 16 -17 13 -16 17 25 61 23 25 58 80 77 122 28 61 38 74 52
68 9 -4 47 -18 84 -32 37 -14 79 -36 93 -50 25 -26 45 -78 45 -123 l1 -25 27
31 c37 44 67 58 92 44 44 -24 4 -107 -65 -131 -41 -15 -43 -23 -51 -164 -10
-166 22 -273 104 -351 l43 -42 -88 -21 c-48 -11 -119 -25 -158 -31 -38 -6 -73
-15 -78 -19 -4 -4 -13 -35 -20 -68 -7 -34 -20 -70 -30 -81 -10 -11 -71 -57
-135 -103 -64 -46 -142 -109 -173 -141 l-57 -57 -73 50 c-120 83 -156 125
-174 208 -8 38 -50 61 -150 81 -33 7 -68 16 -77 21 -36 19 -57 84 -68 201 -13
156 -19 162 -138 166 l-90 3 -43 116 c-33 92 -42 127 -40 172 2 73 -16 298
-35 431 -80 555 -322 1094 -688 1532 -575 687 -1452 1066 -2361 1018 -435 -23
-796 -117 -1177 -307 -283 -142 -512 -307 -738 -533 -232 -232 -393 -456 -540
-755 -222 -450 -319 -923 -291 -1410 36 -605 227 -1129 589 -1615 106 -142
407 -445 547 -551 407 -309 838 -493 1336 -571 121 -18 186 -22 409 -22 277
-1 353 6 576 50 523 103 1022 366 1426 753 69 66 110 98 113 89 60 -174 134
-381 138 -384 2 -3 139 46 303 107 164 61 318 118 342 125 l42 13 145 -85
c195 -114 292 -164 317 -164 24 0 175 69 218 100 17 12 30 16 30 10 0 -7 -25
-57 -56 -111 -61 -110 -62 -124 -10 -160 l33 -22 -19 -89 c-11 -48 -44 -166
-74 -261 -30 -94 -86 -275 -124 -402 -233 -778 -231 -769 -250 -1065 -18 -300
-84 -856 -136 -1150 -14 -80 -34 -203 -45 -275 -24 -162 -24 -161 -60 -179
-40 -20 -308 -82 -439 -101 -56 -9 -111 -20 -121 -26 -24 -13 -24 -41 0 -63
30 -28 677 -300 761 -321 25 -6 28 -1 74 112 37 90 49 133 51 179 3 69 17 104
44 104 13 0 35 36 84 138 87 183 235 512 312 697 34 83 92 221 128 307 36 86
87 232 113 325 55 199 85 285 129 373 60 117 59 117 83 13 12 -50 47 -214 78
-365 117 -570 211 -1013 290 -1378 8 -36 21 -70 30 -77 9 -6 14 -20 12 -30 -5
-26 -129 -108 -310 -204 -201 -108 -248 -141 -248 -174 0 -17 8 -29 23 -36 16
-7 159 -8 463 -2 l439 8 3 119 c2 75 -3 148 -12 198 -15 81 -13 108 9 108 25
0 33 26 44 135 17 172 50 797 61 1155 13 423 13 1376 0 1555 -13 173 -50 404
-94 584 -19 75 -32 139 -29 144 2 4 23 17 46 28 59 30 96 67 107 109 36 133
63 940 41 1214 -13 161 -45 304 -84 382 -29 57 -50 78 -98 98 -40 17 -65 41
-51 50 5 3 42 17 83 32 258 93 409 232 409 379 0 83 -23 108 -153 169 -123 58
-182 110 -217 190 -35 83 -35 83 66 125 51 21 108 48 129 60 20 11 41 19 46
15 5 -3 42 -47 82 -97 118 -147 227 -272 239 -272 14 0 41 79 108 320 47 168
57 194 89 227 19 21 38 35 42 30 7 -8 116 -315 169 -474 17 -54 35 -100 39
-102 11 -7 21 3 148 149 66 77 127 146 134 152 11 8 55 -6 184 -59 185 -77
243 -92 232 -63 -4 9 -16 51 -27 93 -11 42 -42 149 -70 237 -62 195 -80 295
-80 435 0 89 3 109 16 114 9 3 67 6 130 6 l114 0 -6 28 c-4 15 -19 75 -33 134
l-27 108 115 63 c63 35 116 68 118 74 2 5 -30 58 -72 116 -41 58 -75 109 -75
112 0 4 45 52 99 107 55 56 98 105 95 110 -3 5 -54 41 -112 80 -59 39 -109 72
-111 74 -2 2 22 60 53 128 31 69 56 129 56 134 0 5 -55 24 -122 41 -68 18
-129 34 -137 37 -11 4 -13 25 -7 114 3 60 9 129 12 153 l6 43 -68 -4 c-38 -2
-107 -7 -153 -11 -56 -5 -84 -4 -86 3 -2 6 -18 61 -35 122 -17 60 -35 116 -40
124 -10 17 -63 -6 -182 -76 l-73 -44 -105 112 -105 111 -90 -106z m166 -22
c35 -39 76 -85 92 -104 l27 -33 78 43 c42 23 96 55 120 71 30 21 43 25 46 16
3 -7 22 -66 43 -132 l38 -118 144 7 144 7 -7 -84 c-4 -45 -9 -113 -13 -149
l-6 -65 124 -33 c68 -17 129 -34 136 -36 8 -3 -6 -45 -43 -125 -29 -67 -54
-125 -54 -129 0 -4 50 -40 110 -81 61 -40 110 -76 110 -79 0 -3 -43 -49 -96
-102 l-97 -97 74 -112 c85 -131 90 -112 -58 -188 l-93 -47 6 -35 c6 -34 39
-176 50 -212 5 -17 -5 -18 -120 -18 l-126 0 0 -150 c0 -82 -3 -150 -7 -150 -5
0 -66 18 -138 40 -71 22 -132 40 -136 40 -3 0 -20 -48 -39 -107 -19 -60 -37
-112 -40 -116 -4 -4 -55 20 -113 53 -126 73 -115 75 -227 -56 l-73 -86 -54
109 c-30 59 -59 112 -64 117 -5 6 -53 -17 -120 -58 -61 -37 -112 -66 -115 -64
-2 2 -20 51 -39 108 -20 58 -40 108 -44 113 -4 4 -69 -5 -144 -20 -75 -14
-139 -24 -142 -21 -3 2 1 60 8 126 7 67 11 122 9 122 -14 0 -267 42 -270 44
-2 2 11 39 28 83 18 43 40 101 50 129 l18 52 -66 28 c-37 15 -93 40 -124 55
l-58 27 91 113 90 113 -101 101 -101 101 116 78 c101 68 115 81 109 99 -4 12
-27 69 -51 126 -24 57 -42 105 -40 107 2 2 66 16 143 31 l139 28 -4 151 -3
151 96 -18 c53 -11 122 -20 153 -21 l57 -3 37 130 c21 72 38 131 38 132 1 2
30 -15 66 -37 35 -22 92 -53 126 -70 l61 -31 15 21 c39 55 156 191 163 188 4
-2 36 -35 71 -73z m-5389 -84 c610 -99 1127 -354 1558 -768 397 -381 705 -939
835 -1513 43 -190 89 -580 68 -580 -8 0 -104 275 -103 298 0 20 -45 14 -157
-23 -78 -25 -109 -31 -114 -23 -4 7 -11 35 -14 63 -21 160 -106 458 -186 651
-211 506 -555 920 -992 1190 -114 71 -319 170 -452 219 -127 47 -365 107 -520
131 -168 26 -559 26 -730 0 -749 -114 -1378 -523 -1766 -1146 -79 -127 -193
-369 -239 -508 -88 -264 -125 -493 -124 -782 2 -601 182 -1118 550 -1580 87
-109 296 -318 399 -400 196 -155 474 -313 691 -393 322 -118 606 -164 943
-154 485 14 953 184 1371 496 111 82 379 338 451 430 l35 44 71 -204 72 -204
-122 -120 c-153 -151 -244 -225 -421 -343 -342 -228 -730 -374 -1171 -438
-147 -22 -556 -25 -710 -5 -309 39 -622 130 -883 256 -308 149 -540 313 -778
550 -252 250 -411 470 -564 780 -164 332 -249 622 -291 985 -17 153 -15 489 5
644 131 1031 806 1896 1776 2279 208 82 476 150 695 176 50 6 104 13 120 15
17 2 152 3 300 1 213 -2 296 -7 397 -24z m-426 -623 c-3 -150 -2 -250 3 -233
5 17 9 131 10 253 1 247 2 251 57 168 103 -155 193 -539 244 -1036 18 -176 41
-540 34 -548 -1 -2 -45 -5 -98 -5 l-95 -2 -9 -35 -9 -35 71 2 c39 2 87 5 107
6 l37 2 6 -59 c3 -32 6 -198 6 -367 l0 -309 -365 0 -365 0 0 75 c0 62 4 79 20
95 24 24 19 25 -20 5 -29 -15 -30 -17 -30 -94 l0 -78 -37 -7 c-59 -9 -1086 -7
-1102 3 -27 17 10 509 37 503 7 -1 3 13 -10 32 -20 30 -24 32 -30 17 -11 -32
-37 -271 -44 -412 l-7 -136 -126 -6 c-69 -4 -271 -7 -448 -7 l-323 0 0 73 c0
255 75 620 176 865 29 71 139 300 150 311 1 2 116 -56 254 -128 138 -72 253
-131 256 -131 2 0 4 15 4 33 0 31 -5 35 -112 94 -62 34 -170 89 -241 122
l-127 60 36 58 c128 200 385 477 576 619 195 145 442 277 653 349 165 56 400
108 585 130 48 6 53 5 40 -7 -8 -8 -53 -32 -100 -53 -155 -69 -337 -201 -470
-341 -110 -116 -66 -102 58 18 122 118 243 204 387 276 102 51 271 110 282 98
4 -3 -8 -26 -26 -51 -49 -68 -117 -218 -166 -367 -37 -113 -41 -134 -28 -141
8 -5 16 -7 17 -5 1 1 13 41 25 88 53 197 206 500 252 500 7 0 8 -93 5 -262z
m384 226 c257 -38 551 -134 780 -256 215 -114 380 -237 556 -413 132 -132 194
-207 303 -365 67 -97 71 -106 54 -118 -32 -25 -213 -112 -327 -159 -101 -42
-320 -123 -331 -123 -3 0 -5 7 -5 15 0 34 -99 279 -171 424 -88 178 -177 315
-297 460 -187 225 -432 418 -656 515 -42 19 -79 36 -81 38 -6 6 53 -1 175 -18z
m-209 -14 c476 -159 892 -613 1142 -1245 79 -199 77 -180 15 -199 -211 -63
-464 -114 -703 -140 -77 -9 -163 -18 -191 -21 l-51 -6 -6 68 c-4 37 -7 102 -7
144 0 93 -24 355 -50 554 -54 402 -140 703 -242 848 -25 34 -17 34 93 -3z
m1997 -1262 c139 -244 259 -596 292 -857 11 -88 11 -96 -6 -108 -27 -20 -41
-16 -52 16 -20 56 -29 55 -271 -23 -232 -75 -266 -93 -227 -121 18 -14 17 -15
-18 -30 -61 -26 -125 -34 -218 -28 l-88 6 0 56 c0 185 -62 576 -135 856 -5 18
12 26 157 79 169 60 366 146 453 195 28 16 55 29 61 30 6 1 29 -32 52 -71z
m-764 -237 c3 -4 21 -71 40 -147 54 -212 78 -377 102 -681 l6 -83 -249 0
c-138 0 -399 -3 -580 -7 l-331 -6 -4 374 c-2 206 -3 375 -2 377 0 1 68 9 150
18 264 27 594 87 784 143 80 23 78 23 84 12z m3730 -138 c-48 -111 -127 -349
-122 -364 2 -4 50 10 107 32 57 21 107 39 111 39 5 0 180 -214 235 -288 8 -10
24 36 64 181 51 186 65 227 74 217 10 -11 -96 -434 -113 -453 -4 -5 -63 61
-130 145 -68 84 -126 157 -130 161 -3 4 -59 -13 -124 -38 -64 -25 -123 -45
-131 -45 -15 0 20 122 96 333 33 91 47 117 61 117 17 0 17 -2 2 -37z m1321
-224 c72 -223 83 -269 65 -269 -7 0 -70 24 -139 54 -69 30 -134 56 -145 58
-13 2 -51 -32 -130 -117 -62 -66 -117 -122 -122 -124 -11 -4 -25 34 -114 291
-52 154 -64 200 -55 208 14 12 32 -33 119 -297 26 -79 51 -145 55 -147 4 -3
53 47 110 111 119 133 93 128 270 53 64 -27 117 -45 119 -40 2 6 -12 58 -32
117 -39 119 -86 280 -86 295 0 5 5 8 11 6 6 -2 39 -92 74 -199z m-3687 -662
c46 -127 86 -239 88 -248 4 -11 -6 -20 -34 -31 -34 -13 -40 -21 -46 -54 -3
-22 -6 -46 -6 -54 1 -8 1 -31 0 -51 0 -29 6 -42 31 -63 38 -32 74 -42 108 -30
l26 10 67 -191 c184 -519 288 -829 284 -840 -2 -7 -55 -33 -117 -58 l-114 -45
-75 28 c-41 15 -118 46 -170 68 -89 38 -96 40 -118 26 -13 -9 -25 -14 -27 -12
-16 16 -84 157 -78 161 5 3 84 28 176 56 202 62 277 89 277 102 0 17 -31 9
-251 -62 l-219 -70 -34 35 c-35 38 -73 47 -83 20 -3 -9 1 -37 10 -62 10 -25
16 -47 13 -49 -2 -2 -47 19 -101 47 -54 27 -108 50 -121 50 -65 0 -72 -37 -15
-78 37 -25 39 -30 34 -65 -5 -30 -1 -43 16 -61 18 -19 21 -30 15 -64 -5 -31
-2 -48 11 -68 21 -32 97 -68 191 -89 65 -15 71 -18 80 -48 7 -24 27 -44 86
-84 l77 -51 -42 -17 c-23 -10 -85 -32 -137 -50 -52 -18 -125 -44 -161 -59
l-67 -25 -22 50 c-12 28 -86 245 -166 482 -79 238 -209 621 -288 852 -148 433
-196 582 -196 608 0 11 41 29 138 61 75 25 142 46 148 46 7 0 17 -20 23 -44
16 -65 31 -76 83 -64 46 10 347 103 387 119 21 8 23 14 18 47 -3 20 -9 47 -12
59 -6 20 1 24 102 56 59 19 113 35 118 36 6 0 47 -104 93 -232z m-4354 -44
c13 -234 49 -461 106 -680 17 -62 30 -116 30 -121 0 -4 -33 -18 -72 -31 -123
-39 -296 -110 -458 -188 -145 -69 -156 -73 -168 -56 -27 35 -161 320 -197 418
-76 206 -122 431 -140 687 l-6 87 108 4 c59 1 262 4 449 5 l341 2 7 -127z
m1942 -170 c-3 -164 -9 -331 -13 -370 -6 -73 -6 -73 -32 -65 -14 3 -170 7
-347 7 l-321 0 -7 155 c-3 85 -6 248 -6 363 l0 207 367 0 366 0 -7 -297z
m1192 271 c2 -16 -6 -24 -38 -36 -47 -19 -50 -33 -19 -110 24 -60 22 -138 -7
-338 -17 -111 -90 -419 -104 -433 -4 -5 -51 5 -103 22 -220 70 -504 131 -776
167 l-134 17 6 87 c4 48 10 214 13 368 l7 282 576 -2 c575 -3 576 -3 579 -24z
m132 17 c-8 -5 -32 -12 -52 -16 -31 -6 -38 -4 -38 9 0 13 11 16 53 16 34 -1
47 -4 37 -9z m-2078 -311 c1 -170 2 -334 3 -362 l0 -53 -130 -12 c-190 -18
-455 -66 -660 -119 -99 -25 -191 -47 -204 -48 -23 -1 -26 6 -57 129 -57 223
-104 555 -104 731 l0 44 575 0 575 0 2 -310z m2068 -408 c67 -206 120 -375
118 -377 -2 -2 -46 15 -98 37 -52 21 -133 53 -180 69 -46 16 -86 31 -87 33 -2
2 12 63 31 137 19 74 44 202 56 284 24 169 29 199 35 194 2 -2 58 -172 125
-377z m1310 344 c0 -8 2 -20 3 -28 2 -7 2 -11 0 -8 -1 3 -26 3 -54 1 -65 -4
-121 7 -116 22 8 26 167 38 167 13z m185 -20 c25 -25 28 -37 44 -183 5 -50 17
-105 25 -122 9 -16 16 -47 16 -67 0 -33 -2 -36 -22 -30 -13 4 -36 9 -51 13
-33 7 -48 33 -87 148 l-27 81 49 27 c61 34 78 66 53 103 -9 14 -26 29 -36 31
-10 3 -19 9 -19 14 0 17 31 9 55 -15z m-88 -12 c3 -8 1 -25 -5 -37 -6 -12 -13
-33 -14 -47 -3 -21 -6 -18 -22 22 -10 26 -16 54 -13 63 8 20 46 19 54 -1z m63
-44 c0 -28 -11 -50 -25 -50 -8 0 -12 15 -11 44 1 39 3 43 19 35 9 -5 17 -18
17 -29z m-200 -6 c12 -12 9 -14 -27 -14 -62 0 -103 11 -103 27 0 12 11 13 58
8 31 -4 64 -13 72 -21z m-5 -46 c2 -2 0 -19 -4 -38 -6 -31 -11 -35 -42 -38
-24 -2 -43 3 -60 17 -28 24 -15 27 44 10 22 -6 41 -8 44 -5 12 12 -20 35 -58
41 -67 12 -60 29 10 22 35 -3 64 -7 66 -9z m1838 -94 c9 -3 17 -14 17 -24 0
-22 -59 -52 -145 -74 -62 -16 -415 -76 -446 -76 -16 0 -17 3 -1 63 l17 62 65
7 c70 7 180 30 220 47 24 10 232 6 273 -5z m117 -90 c59 -50 98 -160 120 -333
5 -46 10 -258 10 -470 1 -551 -22 -824 -72 -879 -28 -30 -270 -149 -390 -191
-128 -44 -232 -61 -382 -61 -156 0 -286 19 -417 61 -98 31 -209 91 -209 112 0
7 10 28 22 47 11 19 42 78 69 130 47 95 48 97 149 170 389 285 745 620 821
775 41 85 55 169 40 258 -25 153 -111 258 -231 283 -40 9 -47 13 -24 13 71 2
262 44 343 75 47 19 94 34 103 35 9 0 31 -11 48 -25z m-1565 -105 c0 -17 19
-48 56 -90 76 -88 82 -102 22 -52 -99 83 -140 142 -116 167 15 15 38 0 38 -25z
m-3151 11 c88 -6 161 -12 163 -13 5 -5 -37 -479 -57 -647 -73 -596 -200 -978
-315 -944 -119 36 -221 403 -284 1024 -27 265 -45 560 -34 571 17 17 321 22
527 9z m3284 -11 c26 -9 34 -20 53 -77 14 -42 36 -80 61 -108 l40 -43 -27 -45
c-41 -70 -45 -71 -101 -25 -65 54 -69 63 -39 83 36 24 34 70 -4 102 -39 32
-74 91 -67 109 6 18 41 19 84 4z m867 -1 c-55 -20 -120 -76 -296 -255 -420
-430 -759 -817 -759 -868 0 -20 29 7 93 88 141 176 745 829 855 922 119 102
191 117 276 58 45 -31 100 -115 118 -178 18 -63 15 -183 -5 -242 -34 -97 -274
-352 -547 -581 -262 -219 -521 -398 -639 -443 l-55 -20 -70 35 c-72 35 -584
331 -599 345 -4 4 19 65 52 136 52 108 63 126 78 119 10 -4 103 -36 206 -71
l189 -63 56 38 c123 81 177 144 358 417 94 143 188 279 209 302 20 24 100 89
178 145 137 98 145 102 217 113 97 16 124 16 85 3z m-4711 -29 c3 -17 6 -69 6
-114 0 -122 27 -429 55 -643 57 -416 124 -664 214 -781 l26 -34 -40 7 c-61 12
-202 67 -277 109 -170 95 -411 305 -548 477 -91 115 -186 261 -258 400 -59
113 -172 385 -172 413 0 44 708 191 941 196 44 1 47 0 53 -30z m923 11 c123
-17 337 -58 468 -91 106 -27 328 -94 347 -105 18 -11 -160 -389 -253 -535
-124 -196 -350 -455 -513 -589 -93 -75 -230 -164 -310 -200 -71 -32 -197 -70
-234 -70 -22 0 -22 2 11 33 139 131 260 711 303 1450 l7 117 48 0 c26 0 83 -5
126 -10z m2687 -19 c6 -9 -16 -21 -39 -21 -7 0 -15 7 -19 15 -4 11 2 15 24 15
16 0 31 -4 34 -9z m122 -95 c50 -46 66 -67 58 -75 -15 -16 -82 34 -127 97 -20
27 -37 53 -37 56 0 14 38 -15 106 -78z m-101 9 c33 -42 216 -201 250 -217 30
-13 31 -25 5 -57 l-20 -23 -80 52 c-77 51 -80 54 -74 85 5 27 -1 39 -47 93
-29 34 -58 62 -66 62 -7 0 -13 2 -13 4 0 2 -3 11 -6 20 -12 30 24 17 51 -19z
m-4665 -95 c6 -11 35 -82 66 -157 164 -409 439 -781 751 -1015 126 -95 203
-138 332 -187 56 -21 104 -41 108 -44 9 -10 -54 -8 -165 4 -114 12 -324 63
-472 114 -123 42 -354 152 -489 233 -291 173 -577 444 -770 729 l-42 63 33 20
c50 31 164 85 280 131 106 43 337 128 350 128 4 1 12 -8 18 -19z m2947 -54
c65 -24 158 -62 207 -83 l90 -39 45 -136 45 -136 -40 -48 c-64 -79 -253 -264
-365 -358 -315 -264 -713 -453 -1116 -531 -83 -16 -253 -31 -253 -23 0 3 41
22 90 43 102 42 263 136 360 209 90 69 248 223 337 331 173 207 376 562 456
798 4 9 11 17 16 17 6 0 63 -20 128 -44z m2182 -9 l52 -33 -69 -106 c-39 -58
-74 -108 -79 -111 -5 -4 -32 14 -59 38 -43 38 -47 46 -37 62 7 10 36 55 64
101 29 45 57 82 64 82 6 0 35 -15 64 -33z m-365 -82 c38 -27 109 -83 157 -123
l89 -73 -20 -37 c-10 -20 -46 -77 -79 -126 -57 -85 -61 -88 -69 -65 -55 146
-162 457 -162 472 0 12 6 9 84 -48z m-750 -395 l48 -91 -25 -57 c-14 -31 -28
-67 -32 -80 -4 -15 -12 -21 -23 -18 -9 3 -54 14 -100 26 -88 24 -132 50 -132
80 0 9 7 34 16 55 8 20 14 38 12 40 -2 1 -18 10 -35 19 -66 34 -25 77 47 49
38 -15 43 -15 51 -1 7 14 15 13 68 -6 33 -11 62 -18 66 -15 3 4 -8 28 -24 55
-16 27 -32 60 -36 74 -6 24 -5 23 22 -7 15 -17 50 -73 77 -123z m-253 89 c34
-17 59 -32 56 -35 -5 -5 -100 30 -137 51 -25 14 -25 14 -2 15 12 0 50 -14 83
-31z m412 -180 l24 -11 -50 -116 c-27 -65 -53 -121 -58 -126 -5 -5 -19 -2 -33
8 -20 12 -26 25 -26 51 0 45 30 123 65 169 29 39 41 42 78 25z m247 -4330 c19
-12 68 -35 110 -51 41 -17 77 -32 79 -34 2 -2 -4 -22 -14 -43 -17 -38 -20 -40
-73 -47 -172 -21 -343 26 -319 89 5 13 12 14 39 5 42 -12 81 2 104 38 17 25
17 27 1 39 -9 7 -17 15 -17 19 0 14 57 5 90 -15z m1711 -69 l109 0 0 -51 0
-50 -74 -34 c-186 -85 -293 -96 -326 -35 -17 32 -1 44 25 20 l23 -22 39 35
c36 33 38 39 37 92 l0 57 29 -6 c16 -3 78 -6 138 -6z"/>
<path d="M8678 9580 c-295 -47 -556 -237 -688 -500 -77 -152 -106 -296 -97
-469 21 -410 300 -749 702 -852 125 -32 312 -32 439 -1 326 81 583 329 677
654 27 94 37 310 19 412 -63 353 -335 646 -685 737 -91 23 -278 33 -367 19z
m277 -105 c172 -30 312 -102 438 -224 167 -161 250 -360 249 -596 -2 -364
-232 -672 -587 -785 -108 -34 -312 -40 -425 -11 -342 86 -587 361 -630 706
-49 392 199 770 578 885 136 41 242 48 377 25z"/>
<path d="M8623 9430 c-297 -82 -524 -320 -579 -607 -60 -316 69 -636 330 -815
126 -87 246 -126 411 -134 239 -13 447 73 615 253 150 161 218 348 207 573 -6
129 -24 199 -81 315 -79 159 -201 281 -363 360 -111 54 -171 67 -328 71 -117
3 -152 1 -212 -16z m136 -224 c44 -16 80 -61 63 -78 -9 -9 -24 -8 -65 5 -30 9
-65 17 -79 17 -32 0 -61 -31 -56 -62 3 -24 20 -34 130 -82 65 -28 98 -70 98
-126 0 -85 -75 -139 -191 -140 -71 0 -111 19 -122 59 -11 45 13 49 113 21 40
-11 50 -11 82 4 72 34 53 70 -68 128 -48 23 -92 51 -102 66 -45 64 -31 145 30
182 38 23 113 26 167 6z m-289 -205 c0 -115 -4 -221 -10 -235 -6 -18 -17 -26
-33 -26 -32 0 -37 30 -37 235 0 88 3 177 6 198 6 34 9 37 40 37 l34 0 0 -209z
m709 189 c110 -56 161 -199 110 -310 -27 -60 -45 -79 -104 -106 -105 -50 -220
-17 -280 80 -26 43 -30 59 -30 120 1 79 22 130 72 178 61 59 161 75 232 38z
m-644 -569 c31 -17 45 -55 27 -73 -6 -6 -29 -4 -65 8 -102 32 -162 -13 -161
-121 1 -99 62 -170 142 -163 36 3 37 4 40 46 3 40 2 42 -26 42 -37 0 -65 21
-60 46 3 16 13 19 81 22 l77 3 0 -100 c0 -55 -4 -102 -10 -106 -17 -10 -137
-18 -174 -11 -51 10 -111 66 -130 123 -21 63 -20 148 3 199 44 96 165 136 256
85z m314 -7 c17 -22 141 -375 141 -403 0 -6 -15 -11 -34 -11 -34 0 -35 1 -57
70 l-23 70 -66 0 -66 0 -20 -62 c-19 -61 -21 -63 -57 -66 -23 -2 -37 1 -37 8
0 6 20 71 44 143 24 73 52 161 62 197 9 36 22 68 28 72 24 16 65 8 85 -18z
m409 -8 c66 -34 108 -140 91 -231 -12 -62 -33 -99 -76 -132 -34 -26 -43 -28
-132 -28 l-96 0 0 205 0 205 35 5 c51 7 141 -5 178 -24z"/>
<path d="M9034 9130 c-101 -31 -118 -197 -29 -278 34 -32 41 -34 87 -30 85 9
138 69 138 158 0 111 -92 182 -196 150z"/>
<path d="M8781 8477 c-13 -38 -21 -71 -18 -74 3 -3 24 -2 47 2 39 7 41 9 35
34 -4 14 -14 44 -24 66 l-18 40 -22 -68z"/>
<path d="M9110 8438 c0 -156 3 -168 44 -168 77 0 134 81 123 177 -4 38 -12 54
-41 80 -29 27 -44 33 -81 33 l-45 0 0 -122z"/>
<path d="M2245 8683 c-297 -63 -523 -275 -607 -569 -32 -112 -32 -296 0 -407
99 -348 416 -574 777 -554 398 21 695 343 695 752 0 122 -46 329 -85 379 -30
39 -28 3 3 -87 43 -124 55 -209 50 -336 -8 -184 -73 -333 -203 -466 -81 -82
-176 -142 -290 -182 -72 -25 -93 -27 -215 -27 -122 0 -143 2 -215 27 -275 96
-452 298 -500 573 -19 109 -19 150 0 259 52 295 263 523 560 601 50 13 105 18
190 19 135 0 214 -19 339 -81 70 -34 96 -41 96 -26 0 13 -102 70 -163 91 -148
51 -298 63 -432 34z"/>
<path d="M3017 8533 c-67 -65 -249 -243 -404 -397 -178 -177 -286 -277 -295
-273 -7 3 -78 60 -158 126 -80 66 -146 117 -148 113 -1 -5 52 -143 117 -309
66 -165 123 -312 127 -327 3 -14 9 -26 13 -25 8 0 100 120 381 494 304 405
518 715 495 715 -4 0 -61 -53 -128 -117z"/>
<path d="M3039 7293 c-13 -16 -12 -17 4 -4 9 7 17 15 17 17 0 8 -8 3 -21 -13z"/>
<path d="M5725 6655 c-5 -2 -106 -33 -222 -70 -117 -36 -271 -85 -343 -110
-71 -24 -132 -40 -134 -37 -2 4 -11 32 -21 62 -22 69 -43 110 -55 110 -6 0
-10 -7 -10 -15 0 -17 54 -161 69 -184 7 -11 53 1 242 62 129 42 293 94 365
117 73 22 137 47 144 55 10 12 9 15 -6 14 -11 0 -23 -2 -29 -4z"/>
<path d="M5740 6360 c-14 -5 -166 -55 -337 -110 -228 -74 -313 -106 -313 -117
0 -8 6 -13 13 -10 6 2 149 48 316 101 307 98 361 118 361 136 0 12 -6 12 -40
0z"/>
<path d="M5576 6005 c-312 -108 -376 -133 -376 -147 0 -4 4 -8 8 -8 4 0 154
50 332 111 300 102 366 129 343 141 -4 3 -142 -41 -307 -97z"/>
<path d="M5895 5794 c-44 -14 -150 -49 -235 -79 -85 -29 -202 -68 -259 -87
-58 -18 -107 -39 -109 -47 -6 -19 0 -17 374 105 311 102 391 134 334 133 -14
0 -61 -11 -105 -25z"/>
<path d="M7225 7020 c-20 -39 -19 -67 4 -80 16 -8 23 -5 40 16 25 32 27 57 5
78 -22 23 -31 20 -49 -14z"/>
<path d="M3704 3496 c-202 -101 -316 -187 -373 -280 l-36 -59 0 -126 c0 -84 6
-156 19 -216 l18 -90 -35 -85 c-19 -47 -45 -116 -57 -155 -27 -83 -40 -102
-40 -57 0 63 -32 188 -65 258 -61 126 -161 202 -415 314 -116 51 -178 72 -185
61 -9 -16 15 -217 36 -297 67 -257 242 -403 545 -453 l71 -12 -19 -77 c-47
-197 -98 -567 -98 -719 0 -37 -4 -63 -8 -57 -5 5 -21 58 -35 118 -63 253 -140
330 -462 462 -162 66 -183 73 -189 67 -9 -10 -7 -129 4 -208 43 -301 145 -430
413 -524 84 -29 116 -35 184 -36 l83 0 0 -60 c0 -52 28 -326 45 -450 5 -35 -1
-28 -47 59 -58 110 -128 194 -193 231 -23 14 -142 58 -264 98 l-222 73 6 -66
c42 -419 234 -607 630 -615 66 -1 123 -3 126 -4 4 0 10 -25 13 -55 4 -30 14
-62 21 -72 14 -18 14 -18 15 6 0 14 -11 70 -24 125 -53 221 -71 405 -71 725 0
252 3 320 23 470 45 340 98 580 169 770 20 52 40 110 45 128 7 25 14 32 34 32
41 0 190 80 274 148 155 124 227 271 259 537 17 137 15 175 -8 175 -10 0 -95
-38 -187 -84z m172 -38 c-29 -356 -139 -535 -422 -685 -82 -43 -86 -45 -80
-22 13 44 94 203 166 324 93 155 95 159 80 150 -23 -14 -130 -188 -202 -328
l-72 -142 -7 45 c-46 293 -30 381 89 493 68 63 172 129 306 193 152 73 150 74
142 -28z m-1081 -524 c171 -83 230 -124 280 -192 59 -80 115 -271 115 -390 l0
-36 -36 35 c-28 26 -425 449 -441 468 -2 2 -3 0 -3 -5 0 -20 137 -180 287
-334 171 -176 170 -170 18 -123 -185 57 -307 151 -370 285 -43 91 -73 207 -82
315 l-6 84 44 -17 c24 -9 112 -49 194 -90z m-277 -915 c152 -65 307 -146 348
-181 46 -40 79 -93 109 -172 26 -68 79 -295 71 -303 -10 -10 -269 243 -366
357 -146 173 -172 189 -56 35 74 -99 223 -254 335 -348 46 -39 79 -73 74 -74
-22 -8 -284 70 -351 104 -180 90 -264 244 -279 511 -4 84 -3 112 6 112 7 0 56
-19 109 -41z m101 -850 c244 -85 269 -97 327 -154 64 -64 201 -362 178 -385
-10 -10 -333 229 -448 332 -103 92 -117 100 -65 38 64 -76 233 -217 362 -303
59 -39 107 -75 107 -80 0 -13 -146 -1 -230 19 -146 34 -288 130 -349 237 -43
77 -75 186 -95 330 -2 20 -2 37 1 37 3 0 99 -32 212 -71z"/>
<path d="M3740 2321 c-245 -73 -371 -130 -420 -188 -71 -86 -176 -355 -168
-435 l3 -33 115 1 c288 4 461 119 559 373 25 65 71 263 71 307 0 20 -20 17
-160 -25z m126 -6 c11 -26 -54 -257 -95 -341 -66 -134 -174 -221 -316 -258
-69 -17 -229 -40 -246 -34 -6 2 13 20 42 40 77 51 180 145 282 256 151 166
138 164 -34 -4 -173 -169 -321 -294 -327 -275 -6 19 57 230 92 305 45 99 84
139 175 182 71 35 381 143 409 144 7 0 15 -7 18 -15z"/>
<path d="M3705 1258 c-49 -16 -135 -43 -189 -61 -161 -51 -256 -118 -301 -212
-31 -64 -55 -186 -54 -272 0 -88 14 -56 22 52 13 174 87 294 222 363 49 24
296 108 348 117 l39 8 -7 -49 c-10 -67 -50 -219 -75 -285 -41 -110 -139 -205
-259 -250 -65 -24 -231 -62 -239 -54 -3 3 48 60 114 128 140 142 292 327 271
327 -2 0 -47 -48 -98 -107 -51 -60 -144 -161 -206 -226 -62 -65 -111 -123
-108 -128 18 -29 211 7 320 61 92 44 164 111 202 184 56 111 126 377 110 419
-8 20 0 21 -112 -15z"/>
</g>
</svg>
