<?xml version="1.0" standalone="no"?>
<!DOCTYPE svg PUBLIC "-//W3C//DTD SVG 20010904//EN"
 "http://www.w3.org/TR/2001/REC-SVG-20010904/DTD/svg10.dtd">
<svg version="1.0" xmlns="http://www.w3.org/2000/svg"
 width="1024.000000pt" height="1024.000000pt" viewBox="0 0 1024.000000 1024.000000"
 preserveAspectRatio="xMidYMid meet">

<g transform="translate(0.000000,1024.000000) scale(0.100000,-0.100000)"
fill="#e0e0e0" stroke="none">
<path d="M6485 9634 c-11 -12 -15 -31 -14 -62 3 -44 2 -46 -36 -63 -54 -24
-56 -24 -102 15 l-40 35 -37 -31 c-21 -17 -49 -49 -63 -71 l-26 -41 43 -36 43
-37 -12 -45 -13 -45 -54 -6 c-29 -3 -58 -8 -64 -12 -11 -7 -14 -133 -4 -159 5
-12 21 -16 65 -16 55 0 59 -2 74 -30 21 -40 19 -47 -15 -87 -16 -18 -30 -39
-30 -46 0 -6 23 -35 52 -64 l52 -53 43 41 c41 41 43 42 75 29 53 -21 58 -28
58 -90 0 -67 3 -70 91 -70 88 0 99 9 99 80 l0 59 39 12 c38 11 40 11 71 -25
18 -20 36 -36 41 -36 18 0 119 85 119 100 -1 8 -16 33 -34 54 l-34 40 20 42
c20 40 23 42 74 46 30 3 56 7 59 10 3 3 8 34 12 70 8 89 -3 108 -66 108 -48 0
-48 0 -68 48 l-20 48 38 35 c22 20 39 44 39 54 0 11 -25 43 -56 72 l-57 52
-43 -35 -43 -35 -45 20 -46 20 0 54 0 54 -61 7 c-90 9 -106 8 -124 -10z m155
-56 c0 -47 20 -80 55 -91 17 -5 37 -16 46 -23 23 -20 31 -18 69 21 l34 35 43
-42 c24 -23 43 -45 43 -49 0 -3 -17 -18 -38 -32 l-39 -25 25 -76 24 -76 54 0
54 0 0 -53 c0 -29 -5 -58 -12 -65 -7 -7 -32 -12 -57 -12 -46 0 -46 0 -76 -59
l-31 -58 38 -44 c21 -24 38 -46 38 -49 0 -3 -19 -20 -42 -39 l-41 -35 -38 42
-37 42 -56 -21 -56 -20 0 -65 0 -64 -70 0 -70 0 0 68 0 67 -58 22 -57 22 -40
-39 -41 -40 -37 38 -37 38 35 42 36 41 -29 57 -29 58 -57 -3 -56 -2 0 65 0 65
56 3 55 3 25 60 c26 64 29 85 15 85 -5 0 -23 12 -40 26 -31 26 -31 26 -14 56
10 16 27 38 39 49 l21 20 43 -36 c23 -19 43 -35 43 -35 1 0 24 11 51 25 27 14
55 25 63 25 9 0 13 16 13 55 l0 55 70 0 70 0 0 -32z"/>
<path d="M6472 9379 c-169 -84 -160 -332 15 -406 45 -18 131 -16 178 6 173 79
171 329 -4 406 -50 22 -138 19 -189 -6z m205 -35 c44 -26 93 -106 93 -153 0
-76 -53 -161 -117 -187 -18 -8 -56 -14 -86 -14 -177 0 -256 236 -115 344 67
50 148 54 225 10z"/>
<path d="M685 9357 c-16 -8 -39 -24 -50 -37 -20 -22 -20 -38 -23 -1449 l-2
-1426 22 -45 c41 -81 -5 -73 953 -155 240 -20 2302 -210 3057 -281 160 -15
169 -15 205 3 21 10 44 31 51 46 12 24 14 276 13 1444 -2 1408 -2 1416 -22
1445 -47 66 23 56 -1551 213 -799 80 -1662 168 -1918 196 -516 57 -688 67
-735 46z m826 -112 c675 -71 2546 -260 3024 -305 260 -24 300 -35 315 -88 16
-59 13 -2780 -3 -2812 -11 -21 -20 -25 -67 -28 -30 -1 -381 29 -780 67 -619
60 -1232 116 -2795 256 -293 27 -383 39 -398 54 -6 6 -13 32 -18 60 -10 66
-11 2871 0 2871 4 0 329 -34 722 -75z"/>
<path d="M907 9193 c-11 -10 -8 -2648 2 -2676 7 -17 22 -27 53 -35 59 -15
2197 -221 3333 -321 127 -12 279 -26 339 -31 60 -6 111 -8 114 -5 4 3 6 608 7
1343 l0 1337 -130 12 c-71 6 -258 25 -415 42 -157 17 -789 82 -1405 146 -616
63 -1278 133 -1472 155 -359 41 -415 45 -426 33z m332 -79 c62 -7 116 -16 119
-19 3 -3 6 -76 6 -163 l1 -157 -40 2 c-22 1 -115 10 -207 19 l-168 17 0 165 0
164 88 -7 c48 -4 138 -13 201 -21z m416 -48 c127 -14 372 -39 545 -56 411 -39
1352 -136 1994 -205 280 -30 513 -55 518 -55 4 0 8 -73 8 -163 l0 -164 -57 8
c-32 5 -152 18 -268 29 -463 46 -2892 297 -2957 306 l-48 6 0 157 c0 87 3 160
6 164 3 3 11 4 17 2 7 -2 116 -15 242 -29z m-387 -311 c136 -14 288 -30 337
-35 50 -6 529 -56 1065 -110 536 -55 1121 -116 1300 -135 179 -20 402 -42 497
-50 94 -8 190 -17 212 -21 l41 -7 0 -1113 0 -1114 -42 5 c-98 12 -1074 106
-2493 240 -610 57 -1138 108 -1172 111 l-63 7 0 578 c0 319 4 579 8 579 4 0
109 -11 232 -25 124 -13 484 -49 800 -79 316 -31 622 -60 680 -66 455 -44
1712 -172 1782 -181 91 -12 139 -7 106 12 -10 5 -224 30 -475 54 -252 25 -744
74 -1093 110 -349 36 -891 90 -1205 120 -314 31 -625 62 -692 70 -67 8 -126
15 -132 15 -8 0 -11 155 -11 530 l0 530 35 0 c20 0 147 -11 283 -25z"/>
<path d="M1006 8990 c-12 -64 -8 -77 25 -84 17 -3 44 -6 60 -6 28 0 29 1 29
55 0 46 -3 55 -17 55 -10 0 -34 3 -54 6 -34 6 -36 5 -43 -26z"/>
<path d="M1162 8948 l3 -53 53 -3 52 -3 0 55 0 56 -56 0 -55 0 3 -52z m76 -5
c3 -19 -1 -23 -22 -23 -21 0 -26 5 -26 26 0 21 4 25 23 22 14 -2 23 -11 25
-25z"/>
<path d="M1110 8246 l0 -333 78 -7 c42 -4 195 -18 340 -32 145 -14 266 -24
269 -21 8 9 17 568 9 619 l-7 46 -82 7 c-45 4 -188 18 -317 31 -129 13 -247
24 -262 24 l-28 0 0 -334z m375 274 c160 -16 290 -30 290 -30 0 0 0 -137 0
-305 0 -197 -4 -305 -10 -305 -17 0 -527 49 -577 56 l-48 6 0 304 0 304 28 0
c15 0 158 -14 317 -30z"/>
<path d="M1511 8280 l-134 -99 -39 55 c-22 30 -45 54 -52 54 -24 0 -25 -26 -4
-61 28 -46 141 -189 150 -189 4 0 17 15 30 33 12 17 67 88 121 156 54 67 96
128 94 135 -8 25 -38 10 -166 -84z m11 -57 c-22 -26 -56 -63 -75 -82 l-35 -33
-12 22 c-7 12 -8 26 -3 30 21 21 158 118 162 114 2 -2 -15 -25 -37 -51z"/>
<path d="M2040 8478 c0 -16 66 -26 360 -53 91 -9 171 -17 178 -20 8 -3 12 -28
12 -76 l0 -72 -46 43 c-25 23 -70 53 -100 67 -47 21 -66 25 -132 21 -127 -6
-219 -66 -270 -176 -21 -47 -24 -64 -20 -136 7 -126 67 -223 171 -278 35 -19
58 -23 137 -23 106 0 154 17 218 78 80 76 106 182 78 326 -9 46 -16 121 -16
167 l0 83 -32 5 c-18 3 -134 14 -258 26 -124 12 -237 24 -252 27 -21 4 -28 2
-28 -9z m417 -145 c167 -78 207 -319 76 -451 -146 -146 -381 -102 -466 87 -28
62 -28 160 0 221 70 156 236 217 390 143z"/>
<path d="M2285 8288 c-146 -32 -213 -211 -122 -330 83 -108 232 -116 322 -17
44 49 55 76 55 140 0 141 -119 237 -255 207z m85 -43 c9 -11 22 -14 41 -10 20
5 32 1 48 -17 20 -21 21 -23 4 -30 -10 -3 -32 -7 -49 -7 -24 -1 -33 -6 -38
-23 -12 -47 -8 -55 35 -62 54 -9 78 8 52 36 -17 19 -17 20 2 34 33 25 41 15
36 -43 -1 -13 3 -23 9 -23 5 0 10 -13 10 -30 0 -27 -3 -30 -34 -30 -22 0 -36
6 -40 16 -5 12 -10 14 -20 5 -7 -6 -15 -8 -18 -6 -7 7 -58 -16 -58 -25 0 -3 6
-15 14 -26 13 -16 18 -17 36 -6 19 12 20 11 14 -13 -3 -14 -1 -31 5 -39 8 -10
8 -16 -2 -24 -20 -17 -93 -26 -101 -13 -4 6 -21 11 -37 11 -41 0 -64 14 -94
58 l-25 37 22 5 c12 3 24 12 26 19 3 10 -3 11 -27 6 -30 -6 -31 -5 -31 26 l0
32 73 -5 c46 -4 83 -1 101 7 28 12 28 13 8 19 -11 4 -19 13 -16 20 7 18 -21
38 -48 34 -17 -2 -24 -11 -26 -31 -3 -24 -7 -28 -25 -23 -12 3 -32 6 -45 6
l-22 0 19 39 c11 21 36 49 56 61 34 21 37 21 55 5 17 -16 19 -15 25 4 8 25 47
28 65 6z m123 -256 c-26 -44 -40 -54 -57 -40 -23 20 11 71 47 71 l28 0 -18
-31z"/>
<path d="M2272 8059 c-29 -11 -37 -32 -22 -59 16 -30 52 -23 64 13 13 36 -8
59 -42 46z"/>
<path d="M2860 8076 c0 -187 4 -336 9 -336 5 0 121 -11 257 -24 137 -14 284
-28 327 -32 l77 -6 0 335 0 336 -42 6 c-56 7 -440 44 -545 52 l-83 6 0 -337z
m607 254 l31 0 4 -307 c2 -170 3 -309 2 -311 -1 -1 -139 10 -307 25 -286 26
-306 29 -311 48 -7 24 -8 590 -1 596 2 3 127 -8 277 -23 150 -15 287 -27 305
-28z"/>
<path d="M3352 8192 c-18 -15 -60 -61 -150 -165 l-32 -38 -62 55 c-67 61 -88
69 -88 33 0 -29 68 -137 118 -189 29 -31 38 -35 51 -25 21 17 211 307 211 322
0 21 -28 25 -48 7z m-60 -134 c-104 -146 -111 -155 -112 -141 0 14 95 156 147
221 66 81 45 34 -35 -80z m-182 -57 c13 -25 13 -34 0 -26 -16 10 -32 45 -21
45 6 0 15 -9 21 -19z"/>
<path d="M3850 7980 c0 -327 1 -340 19 -340 10 0 151 -13 312 -30 162 -16 316
-30 343 -30 l49 0 -7 332 c-4 183 -8 333 -9 334 -1 1 -148 16 -327 33 -179 17
-337 33 -352 36 l-28 5 0 -340z m380 271 c118 -12 236 -24 263 -27 l47 -6 0
-303 c0 -167 -3 -306 -7 -308 -6 -3 -645 58 -649 62 -7 6 -13 424 -8 505 l7
109 66 -6 c36 -3 163 -15 281 -26z"/>
<path d="M1090 7821 c0 -6 4 -12 9 -15 4 -3 111 -15 237 -26 126 -12 353 -34
504 -50 347 -37 749 -76 1435 -140 535 -50 1042 -101 1204 -121 46 -5 86 -7
89 -4 25 24 -69 36 -1163 140 -379 36 -1049 101 -1487 145 -438 44 -804 80
-812 80 -9 0 -16 -4 -16 -9z"/>
<path d="M1110 7166 l0 -326 23 0 c12 0 163 -14 336 -30 172 -17 317 -30 321
-30 13 0 20 213 13 427 -6 206 -7 214 -27 218 -12 3 -145 16 -296 30 -151 14
-296 28 -322 32 l-48 6 0 -327z m110 284 c36 -5 173 -19 304 -30 132 -12 243
-23 248 -26 4 -3 8 -135 8 -295 0 -224 -3 -289 -12 -289 -39 0 -621 59 -625
63 -2 3 -7 136 -10 296 -5 246 -4 291 8 291 8 0 43 -5 79 -10z"/>
<path d="M1506 7194 c-71 -52 -132 -94 -136 -94 -3 0 -21 20 -40 45 -36 48
-47 54 -56 30 -6 -15 118 -190 141 -199 16 -6 84 64 179 184 76 95 92 131 59
129 -10 0 -76 -43 -147 -95z m84 19 c-1 -5 -37 -46 -80 -93 -68 -73 -82 -83
-97 -74 -34 21 -22 39 70 106 91 66 107 75 107 61z"/>
<path d="M1994 7401 c7 -11 54 -18 206 -31 63 -5 186 -17 273 -26 147 -16 190
-14 158 5 -15 10 -147 25 -391 46 -203 17 -253 18 -246 6z"/>
<path d="M2860 7015 l0 -334 43 -5 c23 -3 166 -17 317 -31 152 -13 283 -27
293 -31 16 -6 17 16 17 325 l0 331 -22 5 c-13 3 -156 19 -318 35 -162 17 -303
32 -312 34 -17 4 -18 -17 -18 -329z m338 265 c161 -16 295 -30 297 -30 3 0 5
-136 5 -301 l0 -301 -72 7 c-40 3 -176 17 -303 29 l-230 22 -3 302 c-1 166 1
302 6 302 5 0 140 -13 300 -30z"/>
<path d="M3279 7018 l-85 -91 -83 57 c-77 53 -111 67 -111 48 0 -14 59 -92
128 -170 63 -70 66 -72 83 -55 26 26 179 243 179 253 0 5 -8 11 -17 13 -11 3
-7 5 10 6 32 1 33 25 1 28 -12 1 -49 -30 -105 -89z m-10 -92 c-55 -75 -79 -95
-79 -66 0 13 131 162 137 156 2 -2 -24 -43 -58 -90z m-115 -15 c34 -37 11 -32
-25 5 -21 23 -26 33 -14 26 11 -5 29 -20 39 -31z"/>
<path d="M2260 7307 c-93 -26 -154 -79 -196 -171 -23 -51 -26 -67 -22 -135 5
-88 27 -136 85 -194 65 -66 105 -82 208 -82 82 0 95 3 145 31 100 56 157 158
153 276 -5 184 -197 325 -373 275z m196 -45 c98 -50 148 -135 148 -247 0 -114
-56 -200 -163 -248 -55 -24 -167 -21 -225 8 -214 103 -193 417 33 502 51 19
156 11 207 -15z"/>
<path d="M2255 7201 c-157 -72 -153 -299 7 -366 149 -62 311 77 270 231 -33
124 -163 188 -277 135z m161 -29 c79 -42 116 -162 76 -242 -18 -38 -39 -45
-55 -19 -8 13 -4 24 16 49 51 60 26 165 -48 196 -71 29 -139 13 -188 -46 -36
-42 -41 -65 -27 -116 23 -81 131 -146 190 -114 22 12 70 13 70 2 0 -28 -98
-49 -157 -33 -78 21 -144 127 -127 204 24 113 150 173 250 119z m-6 -47 c38
-20 50 -44 49 -97 -1 -24 -3 -36 -6 -27 -3 11 -12 15 -28 12 -19 -4 -27 2 -44
36 -26 50 -51 53 -82 9 -41 -60 -82 -77 -94 -38 -10 32 4 59 47 91 47 33 110
39 158 14z m-2 -193 c-7 -36 -121 -27 -149 12 -4 5 -11 6 -17 2 -10 -6 -27 23
-18 31 2 3 23 6 45 7 24 1 49 10 59 19 16 17 19 16 50 -18 18 -20 32 -44 30
-53z"/>
<path d="M3850 6915 l0 -335 25 0 c14 0 148 -11 298 -25 149 -13 300 -26 335
-29 l62 -5 0 328 0 329 -22 5 c-13 3 -102 13 -198 22 -96 8 -243 22 -326 30
-84 8 -157 15 -163 15 -8 0 -11 -96 -11 -335z m360 275 c179 -16 326 -30 327
-30 2 0 3 -138 3 -306 l0 -306 -47 6 c-27 3 -84 8 -128 11 -145 11 -478 46
-487 51 -13 8 -7 604 6 604 1 0 147 -13 326 -30z"/>
<path d="M1116 6751 c-4 -5 -9 -36 -12 -69 -6 -53 -4 -60 12 -65 29 -9 478
-52 2484 -242 437 -42 828 -79 869 -84 74 -9 101 -7 101 10 0 13 -27 17 -275
39 -678 60 -2301 214 -2745 260 -157 16 -315 32 -352 35 l-68 7 0 44 c0 24 2
44 5 44 22 0 719 -66 945 -90 157 -16 623 -61 1035 -100 413 -38 813 -77 890
-85 398 -43 565 -54 565 -36 0 12 -30 15 -410 51 -1143 107 -2714 257 -2987
285 -28 3 -54 1 -57 -4z"/>
<path d="M8495 9243 c-16 -3 -33 -10 -37 -16 -4 -7 -8 -60 -8 -118 l0 -107
-27 -7 c-16 -3 -59 -20 -96 -36 l-68 -30 -85 76 -84 77 -78 -70 c-42 -39 -97
-91 -121 -116 l-44 -45 80 -86 80 -86 -40 -94 -40 -94 -121 -3 -121 -3 -3
-160 c-1 -88 0 -170 3 -183 6 -23 8 -23 122 -20 l116 3 44 -99 43 -99 -80 -84
c-44 -46 -80 -88 -80 -93 0 -5 43 -56 96 -112 53 -57 102 -109 109 -116 9 -10
31 4 109 73 54 47 99 85 101 85 2 0 29 -13 60 -30 31 -16 63 -30 70 -30 36 0
45 -29 45 -145 0 -80 4 -116 13 -122 17 -11 232 -16 297 -6 l55 8 5 123 5 123
65 26 c36 14 69 29 74 34 21 20 47 6 128 -70 l85 -80 116 116 c65 64 117 122
117 128 0 6 -35 49 -78 95 l-79 84 32 76 c18 41 35 83 38 93 5 14 20 17 95 17
49 0 104 3 121 6 l31 7 0 168 0 168 -120 3 -121 3 -23 65 c-12 36 -30 79 -39
96 l-16 31 84 93 c99 111 103 93 -54 241 l-106 99 -81 -87 -81 -87 -99 41 -99
41 -3 115 -3 114 -67 7 c-72 6 -188 6 -237 -1z m214 -29 l61 -7 0 -112 0 -113
28 -6 c15 -4 67 -26 116 -49 l89 -42 81 88 81 88 103 -104 104 -104 -81 -85
c-45 -47 -81 -90 -81 -96 0 -6 9 -26 19 -44 10 -18 29 -65 42 -104 21 -69 24
-72 58 -78 20 -3 73 -6 119 -6 l82 0 0 -145 0 -145 -120 0 -119 0 -12 -42 c-6
-23 -26 -73 -45 -110 l-34 -68 80 -84 c44 -46 80 -87 80 -92 0 -5 -42 -52 -94
-103 -108 -108 -86 -107 -200 -4 -38 35 -73 63 -78 63 -4 0 -34 -13 -66 -29
-31 -16 -76 -34 -99 -41 l-43 -13 0 -122 c0 -146 15 -135 -177 -135 l-133 0 0
118 c0 64 -4 122 -8 129 -4 6 -34 21 -67 34 -33 12 -75 33 -93 46 -38 28 -25
35 -150 -75 l-83 -73 -63 68 c-35 37 -75 83 -90 100 l-28 33 30 37 c17 21 51
58 76 83 25 24 46 48 46 53 0 5 -15 41 -34 80 -18 40 -39 89 -45 109 -12 35
-15 37 -64 42 -29 4 -81 5 -117 4 l-65 -3 -3 152 -3 152 121 3 122 3 27 71
c16 40 38 89 51 109 l23 37 -84 84 -83 84 44 46 c25 25 71 68 103 96 l57 50
80 -75 80 -76 73 34 c39 18 91 39 115 46 l42 12 0 113 0 113 38 4 c67 7 128 7
191 1z"/>
<path d="M8485 8732 c-273 -94 -393 -390 -263 -646 27 -53 112 -142 166 -173
231 -136 523 -46 641 197 35 73 36 78 36 190 0 109 -2 119 -32 183 -60 127
-153 210 -275 249 -77 23 -205 24 -273 0z m266 -32 c77 -26 124 -56 174 -111
88 -95 120 -185 113 -314 -8 -154 -94 -282 -237 -353 -72 -36 -79 -37 -181
-37 -102 0 -109 1 -181 37 -93 46 -158 112 -202 206 -30 62 -32 75 -32 172 0
97 2 110 32 172 94 198 313 295 514 228z"/>
<path d="M6424 8226 c-48 -30 -87 -97 -104 -178 l-11 -58 -32 24 c-18 14 -53
30 -79 37 -43 12 -50 11 -95 -12 -38 -20 -53 -36 -76 -80 -15 -30 -31 -76 -36
-102 -5 -26 -10 -50 -12 -52 -2 -2 -23 1 -45 7 -89 24 -154 -57 -154 -192 0
-65 -3 -77 -21 -88 -11 -7 -30 -34 -42 -60 -40 -90 -18 -313 35 -346 13 -8 23
-5 44 14 32 31 64 91 64 122 l-1 23 -17 -21 c-9 -12 -30 -43 -46 -70 -26 -44
-29 -47 -41 -30 -21 28 -38 151 -30 222 8 79 38 128 81 132 43 4 79 -28 118
-107 38 -74 68 -106 91 -98 8 4 38 38 67 78 l52 71 18 -67 c31 -112 79 -184
137 -206 47 -18 125 30 160 99 7 12 15 22 19 22 4 0 21 -31 39 -68 42 -89 82
-135 145 -166 66 -33 143 -35 204 -5 77 37 149 137 175 245 7 27 13 50 14 52
1 1 21 -5 45 -13 23 -8 63 -15 87 -15 64 0 106 43 123 125 33 158 -54 339
-202 421 -45 24 -64 29 -128 29 -41 0 -89 -4 -106 -8 -30 -8 -30 -7 -48 50
-56 179 -157 280 -289 290 -53 4 -68 1 -103 -21z m173 -22 c84 -30 163 -140
198 -275 9 -35 18 -65 19 -67 2 -1 22 5 46 13 101 36 210 11 295 -67 104 -94
152 -254 111 -362 -30 -79 -68 -94 -161 -65 l-62 19 -5 44 c-7 60 -38 117 -76
139 -60 35 -178 15 -221 -37 -22 -26 -35 -19 -65 40 -35 67 -85 104 -140 104
-55 0 -97 -30 -145 -103 -22 -35 -54 -76 -71 -92 l-31 -29 -67 18 c-37 10 -74
20 -82 22 -10 2 -34 -25 -70 -78 -31 -45 -60 -83 -66 -85 -5 -2 -26 29 -44 68
-35 72 -80 121 -122 134 -41 13 -47 43 -27 137 21 98 94 136 157 83 17 -14 32
-25 35 -25 3 0 8 26 12 58 8 77 31 154 55 185 47 59 130 56 213 -9 26 -21 50
-34 53 -31 4 3 9 37 11 74 7 90 39 154 94 186 46 28 80 28 156 1z m20 -589
c23 -25 49 -65 59 -90 9 -25 21 -45 26 -45 5 0 30 18 56 39 129 107 252 50
252 -118 0 -225 -188 -389 -343 -298 -84 50 -147 139 -168 239 -6 29 -14 57
-18 61 -4 4 -20 -21 -35 -57 -15 -35 -44 -80 -63 -100 -61 -60 -114 -44 -165
51 -27 49 -63 161 -55 169 2 3 16 0 31 -6 40 -15 118 -12 142 5 12 8 40 46 63
84 79 134 139 152 218 66z"/>
<path d="M5623 7053 c-51 -4 -53 -5 -63 -42 -12 -44 -6 -66 24 -99 24 -27 24
-51 1 -527 -8 -159 -35 -735 -60 -1280 -24 -544 -47 -1036 -51 -1093 l-6 -103
-51 -25 c-91 -46 -86 -29 -80 -257 l6 -202 -89 -42 c-154 -72 -407 -185 -446
-199 l-37 -13 -6 62 c-3 34 -21 332 -40 662 -19 330 -38 635 -41 678 -7 83
-20 107 -57 107 -52 0 -1260 82 -2506 170 -388 28 -740 50 -783 50 -70 0 -82
-3 -103 -25 -15 -14 -25 -36 -25 -52 0 -37 98 -1446 155 -2213 24 -333 47
-653 51 -712 4 -58 10 -111 14 -118 5 -8 177 -14 644 -20 351 -4 640 -11 643
-14 7 -7 21 -307 22 -463 l1 -103 -1115 0 c-1201 0 -1157 2 -1185 -49 -19 -36
-12 -100 13 -125 29 -29 3 -23 654 -141 681 -124 1115 -209 1868 -365 233 -49
174 -49 810 4 231 20 1403 112 2605 206 2683 209 3299 258 3339 266 91 19 120
124 48 178 -26 19 -45 21 -250 26 l-222 5 -3 894 c-2 820 -4 896 -19 913 -26
29 -5 42 47 28 64 -17 101 -16 116 5 15 20 19 102 6 122 -8 13 -163 42 -334
63 l-98 12 0 1369 0 1368 -26 20 c-33 26 -65 27 -95 2 l-24 -19 0 -246 c-1
-135 -3 -247 -5 -249 -3 -3 -74 19 -158 47 l-154 51 -1 77 c-2 90 -13 107 -76
115 -60 8 -81 -14 -81 -83 l0 -54 -52 21 c-29 12 -237 83 -463 159 -225 76
-468 159 -540 185 -197 72 -273 64 -359 -37 -54 -63 -76 -145 -83 -310 l-6
-136 -55 -7 c-101 -13 -168 -52 -210 -124 l-26 -45 3 -697 c1 -383 -1 -699 -6
-702 -13 -7 -576 98 -579 108 -2 6 -13 318 -24 695 -11 377 -29 957 -40 1290
-29 929 -29 867 -2 885 17 13 22 26 22 64 0 81 -6 84 -166 87 -77 1 -163 0
-191 -3z m292 -59 c14 -14 14 -19 3 -30 -15 -16 -55 -19 -200 -16 l-108 2 0
30 0 30 144 0 c121 0 147 -3 161 -16z m-60 -186 c3 -51 5 -133 3 -183 l-3 -90
-107 -3 -108 -3 6 143 c3 79 7 162 10 186 l5 42 94 0 93 0 7 -92z m-185 -328
c0 -5 -2 -10 -4 -10 -3 0 -8 5 -11 10 -3 6 -1 10 4 10 6 0 11 -4 11 -10z m37
4 c-3 -3 -12 -4 -19 -1 -8 3 -5 6 6 6 11 1 17 -2 13 -5z m150 -86 c-3 -7 -5
-2 -5 12 0 14 2 19 5 13 2 -7 2 -19 0 -25z m-207 -30 c-4 -49 -5 -50 -8 -14
-3 34 2 66 10 66 2 0 1 -24 -2 -52z m209 -35 c-1 -37 -3 -42 -8 -23 -7 24 -3
70 5 70 2 0 4 -21 3 -47z m-212 -75 c-2 -13 -4 -5 -4 17 -1 22 1 32 4 23 2
-10 2 -28 0 -40z m61 -46 c30 0 56 -3 59 -6 4 -3 -24 -6 -60 -6 -57 0 -67 3
-67 18 0 11 3 13 8 5 4 -7 30 -12 60 -11z m162 8 c0 -5 -4 -10 -10 -10 -5 0
-10 5 -10 10 0 6 5 10 10 10 6 0 10 -4 10 -10z m10 -260 c3 -113 4 -210 2
-217 -2 -7 -46 -11 -139 -12 l-135 -2 6 138 c4 76 9 173 12 215 l6 77 77 4
c42 2 96 3 121 3 l45 -1 5 -205z m1666 -101 c193 -65 363 -123 379 -129 l29
-11 -53 -24 -52 -25 -102 35 c-56 18 -190 66 -297 105 -132 49 -215 74 -257
77 -61 6 -63 5 -97 -29 -44 -44 -55 -86 -63 -230 l-6 -117 -29 -6 c-16 -4 -32
-4 -36 0 -14 14 -4 242 14 304 28 103 121 189 189 175 17 -4 188 -60 381 -125z
m1408 85 c14 -6 16 -135 16 -1361 0 -1232 -1 -1355 -16 -1349 -9 3 -20 6 -25
6 -5 0 -9 497 -9 1248 0 1076 4 1462 16 1462 1 0 9 -3 18 -6z m-1291 -266 c81
-28 146 -53 144 -57 -51 -94 -71 -184 -64 -292 l5 -76 -67 -12 c-110 -21 -151
-59 -181 -170 -8 -31 -12 -227 -13 -678 l-1 -634 -26 3 -25 3 -5 771 -5 770
-27 41 c-57 87 -171 153 -263 153 -40 0 -45 3 -51 26 -4 14 -4 67 -2 117 5 98
21 142 65 183 l24 23 172 -61 c95 -33 239 -82 320 -110z m840 -516 c10 -770 8
-1632 -3 -1604 -5 12 -16 22 -24 22 -7 0 -17 7 -20 16 -3 9 -6 485 -6 1059 0
1071 0 1061 36 1048 7 -3 13 -169 17 -541z m-2853 518 c0 -5 -6 -7 -14 -4 -11
4 -13 -7 -12 -55 1 -34 -1 -61 -5 -61 -3 0 -7 29 -8 65 -1 59 1 65 19 65 11 0
20 -4 20 -10z m58 -1 c-12 -7 -24 -7 -35 0 -15 9 -12 10 17 10 29 0 32 -1 18
-10z m140 -26 l-1 -38 -4 34 -4 33 -50 -4 c-27 -3 -52 -1 -55 3 -3 5 22 9 55
9 l61 0 -2 -37z m29 -10 c-3 -10 -5 -4 -5 12 0 17 2 24 5 18 2 -7 2 -21 0 -30z
m2353 -18 c174 -61 170 -59 170 -99 0 -20 -4 -36 -9 -36 -4 0 -56 18 -114 40
-133 50 -242 78 -275 72 -36 -7 -99 -74 -111 -119 -6 -21 -11 -79 -11 -129 l0
-92 -36 -7 c-20 -3 -39 -3 -43 0 -13 14 -3 213 13 262 17 51 67 107 121 137
49 27 168 15 295 -29z m-2341 -114 c1 -55 -2 -102 -7 -105 -5 -3 -9 44 -9 104
-1 61 3 108 7 105 4 -3 8 -49 9 -104z m2306 -10 c77 -27 154 -53 170 -58 l30
-10 3 -921 2 -922 -42 6 c-24 4 -54 10 -68 14 l-25 6 -5 715 c-6 816 6 723
-104 827 -60 57 -106 81 -176 91 l-45 6 -3 85 c-4 104 15 163 62 191 17 10 38
19 46 19 8 0 78 -22 155 -49z m673 -140 l3 -41 -123 45 c-202 72 -188 64 -188
106 l0 36 153 -52 152 -52 3 -42z m-3255 69 c-7 -27 -13 -25 -11 4 1 14 5 23
9 20 4 -2 5 -13 2 -24z m1620 -3 c59 -38 25 -44 -308 -51 l-240 -5 30 25 c56
45 103 54 305 51 160 -2 190 -5 213 -20z m-1458 4 c3 -5 2 -12 -3 -15 -5 -3
-9 1 -9 9 0 17 3 19 12 6z m72 -27 c-3 -3 -12 -4 -19 -1 -8 3 -5 6 6 6 11 1
17 -2 13 -5z m1474 -40 c12 -15 11 -16 -11 -9 -35 10 -49 25 -23 25 11 0 27
-7 34 -16z m-1490 0 l67 -7 7 -162 c4 -89 5 -171 1 -181 -5 -18 -16 -19 -166
-16 l-160 3 6 172 c3 95 7 178 10 185 4 13 121 16 235 6z m2886 -46 c79 -29
139 -56 135 -60 -14 -14 -284 -169 -288 -165 -12 12 -9 277 4 277 4 0 71 -23
149 -52z m-1493 16 c14 -5 16 -36 16 -240 l0 -234 -289 0 -288 0 -6 98 c-3 53
-3 158 1 232 l7 135 155 5 c253 9 387 10 404 4z m99 -24 c16 0 17 -17 17 -224
0 -161 -3 -225 -12 -228 -6 -2 -24 -2 -40 0 l-28 4 0 230 0 230 23 -6 c12 -3
30 -6 40 -6z m710 -126 c25 -8 51 -21 57 -29 16 -19 -92 -27 -330 -23 l-195 3
39 24 c54 34 83 39 242 40 104 1 152 -3 187 -15z m837 8 c0 -10 -286 -182
-303 -182 -24 0 28 37 156 112 135 79 147 84 147 70z m0 -247 c0 -91 -3 -165
-6 -165 -8 0 -162 118 -207 159 l-38 34 113 68 c62 38 119 68 126 69 9 0 12
-39 12 -165z m-820 -60 l0 -205 -254 0 -254 0 -4 163 c-5 167 1 210 30 223 14
6 109 11 430 22 l52 2 0 -205z m88 179 c22 -6 22 -8 22 -201 l0 -194 -37 3
c-37 3 -38 4 -45 53 -9 67 -9 208 -2 284 7 64 12 68 62 55z m-2519 -123 c7 -5
9 -11 5 -14 -5 -3 -15 1 -22 9 -14 16 -5 18 17 5z m241 1 c0 -4 -23 -6 -51 -5
-38 3 -49 0 -43 -9 6 -10 4 -10 -7 -2 -8 6 -21 13 -29 16 -8 3 18 5 58 6 39 0
72 -3 72 -6z m2855 -113 c132 -103 164 -132 142 -125 -24 8 -246 177 -277 212
l-25 28 30 -19 c17 -10 75 -53 130 -96z m-3123 44 c-7 -36 -12 -27 -11 20 0
30 3 36 8 23 4 -11 6 -30 3 -43z m268 27 c0 -5 -2 -10 -4 -10 -3 0 -8 5 -11
10 -3 6 -1 10 4 10 6 0 11 -4 11 -10z m2800 -113 c41 -33 87 -72 102 -85 33
-30 39 -24 -104 -101 l-98 -52 0 156 c0 122 3 155 13 149 6 -4 46 -35 87 -67z
m-7060 43 c108 -10 2309 -162 2615 -180 209 -13 407 -28 411 -32 5 -5 166
-2840 161 -2844 -1 -1 -180 2 -397 6 -217 5 -881 16 -1475 25 -594 9 -1108 18
-1141 21 l-62 5 -6 52 c-11 100 -36 448 -76 1072 -22 347 -56 869 -75 1160
-19 292 -35 542 -35 558 0 26 2 27 50 27 33 0 50 -4 50 -12 0 -28 21 -397 35
-618 8 -129 22 -356 30 -505 9 -148 29 -479 45 -735 17 -256 36 -560 43 -677
7 -117 15 -214 17 -216 6 -5 2931 -69 2934 -65 4 6 -15 315 -74 1223 -33 506
-67 1035 -75 1175 -9 140 -19 258 -23 261 -7 7 -286 26 -1722 119 -421 27
-862 56 -980 65 -119 8 -249 15 -289 15 l-74 0 6 -107 c3 -60 13 -202 22 -318
8 -115 46 -687 85 -1270 38 -583 72 -1093 76 -1133 l6 -72 -31 0 c-36 0 -36
-1 -51 150 -15 161 -157 2044 -180 2395 -11 171 -23 345 -26 388 l-7 77 54 0
c30 0 101 -4 159 -10z m5552 -20 l89 0 -2 -327 c-1 -181 -4 -345 -7 -365 l-4
-38 -284 0 -284 0 0 365 0 364 113 4 c61 2 152 2 201 1 49 -2 129 -4 178 -4z
m-1567 -67 l-1 -68 50 -6 51 -6 -57 -1 -58 -2 0 59 c0 51 6 91 14 91 2 0 2
-30 1 -67z m1743 57 c10 0 12 -76 10 -362 l-3 -363 -35 0 -35 0 -3 355 c-1
195 0 361 3 369 3 8 13 11 28 7 12 -3 28 -6 35 -6z m-1421 -44 c-1 -24 -4 -43
-7 -41 -5 3 -6 73 -1 83 6 13 10 -6 8 -42z m-37 -76 c0 -13 -6 -20 -17 -19
-11 0 -13 3 -5 6 6 2 12 11 12 19 0 8 2 14 5 14 3 0 5 -9 5 -20z m37 0 c1 -13
-4 -20 -15 -20 -15 0 -15 2 -2 10 8 5 11 10 7 10 -5 0 -5 5 -2 10 9 14 11 13
12 -10z m-3152 -55 c1816 -116 1762 -112 1770 -125 6 -10 18 -170 61 -835 19
-297 45 -688 59 -870 13 -181 29 -422 35 -535 5 -113 12 -241 14 -284 l4 -79
-251 6 c-139 4 -403 11 -587 17 -308 9 -1828 40 -1981 40 l-66 0 -6 78 c-4 42
-14 196 -22 342 -8 146 -37 634 -65 1085 -71 1184 -70 1167 -70 1198 0 25 3
27 43 27 23 0 501 -29 1062 -65z m3075 39 c0 -2 -28 -3 -62 -3 -51 1 -56 3
-28 8 34 6 90 3 90 -5z m3024 -38 c-10 -6 -78 -44 -152 -84 -132 -73 -175 -88
-110 -39 57 43 273 156 277 145 2 -6 -5 -16 -15 -22z m-916 7 l112 -6 -2 -336
-3 -336 -252 -3 -253 -2 0 345 0 345 143 0 c78 0 193 -3 255 -7z m-2028 -23
c4 -3 11 -130 15 -283 l7 -278 -28 8 c-65 18 -107 8 -238 -55 -71 -34 -130
-61 -131 -60 0 2 5 131 11 288 7 157 13 309 13 338 l1 54 171 -3 c94 -2 174
-6 179 -9z m2248 -334 l2 -338 -22 6 c-13 3 -33 6 -45 6 l-23 0 0 336 0 335
43 -3 42 -3 3 -339z m712 119 l0 -175 -125 102 c-69 56 -124 106 -123 110 4
11 219 136 236 137 9 1 12 -40 12 -174z m-192 -84 c141 -110 186 -150 179
-157 -5 -6 -199 139 -259 195 -25 22 -36 41 -24 41 2 0 49 -35 104 -79z m38
-123 c41 -34 70 -65 66 -69 -4 -3 -55 -32 -114 -63 l-108 -57 0 156 0 157 41
-31 c23 -16 75 -58 115 -93z m144 -96 c0 -16 -274 -166 -292 -160 -14 5 19 26
161 104 117 65 131 71 131 56z m-1905 -63 c-182 -6 -283 -5 -289 1 -7 7 89 9
280 8 l289 -1 -280 -8z m375 1 c0 -13 -40 -13 -60 0 -11 7 -5 10 23 10 20 0
37 -4 37 -10z m1540 -191 l0 -181 -38 29 c-89 65 -231 178 -232 183 0 7 242
147 258 149 9 1 12 -41 12 -180z m-2973 157 c37 -8 172 -33 298 -56 127 -23
496 -90 820 -150 325 -60 682 -125 795 -145 352 -62 594 -106 613 -111 9 -3
17 -12 17 -20 0 -17 -6 -16 -270 32 -102 19 -410 72 -685 119 -275 46 -729
127 -1010 180 -679 129 -644 123 -685 112 -19 -5 -109 -44 -200 -87 -91 -43
-174 -80 -186 -82 -37 -6 -28 16 17 40 55 28 392 180 401 181 4 1 37 -5 75
-13z m1337 -25 c3 -4 3 -44 -1 -88 l-6 -80 -71 14 c-39 7 -159 29 -266 49
-248 45 -230 38 -230 80 l0 34 284 0 c157 0 287 -4 290 -9z m106 -91 c0 -89 0
-90 -24 -90 -52 0 -56 6 -56 96 l0 84 40 0 40 0 0 -90z m655 30 c32 -5 -41 -8
-202 -9 -163 -1 -253 3 -253 9 0 12 379 12 455 0z m-2190 -159 l-7 -128 -47
-23 c-60 -30 -220 -100 -228 -100 -3 0 -3 62 0 138 8 160 -6 141 160 219 95
44 113 50 120 37 5 -8 6 -73 2 -143z m133 11 l3 -132 -25 0 c-54 0 -56 5 -56
115 0 56 3 116 6 132 5 28 8 30 37 24 l32 -7 3 -132z m2207 138 c16 -7 11 -9
-22 -9 -23 -1 -45 4 -48 9 -8 12 42 12 70 0z m-1984 -50 c57 -12 113 -23 124
-25 19 -4 20 -11 17 -125 l-3 -121 -62 6 c-34 4 -93 12 -132 18 -63 11 -70 14
-74 37 -5 39 10 230 19 230 4 0 54 -9 111 -20z m1782 3 l107 -6 0 -88 c0 -48
-3 -90 -7 -92 -5 -3 -118 14 -253 37 l-245 42 -3 57 -3 57 149 0 c82 0 197 -3
255 -7z m195 -19 c21 -6 22 -11 22 -101 l0 -94 -37 7 c-21 4 -41 9 -45 11 -5
2 -8 44 -8 94 0 86 1 89 23 89 12 0 32 -3 45 -6z m520 -71 c83 -68 222 -194
222 -203 0 -4 -44 -34 -97 -65 -54 -32 -124 -76 -155 -97 -62 -42 -68 -44 -68
-25 0 6 33 33 73 58 39 26 105 68 146 93 50 32 70 51 63 58 -5 5 -70 58 -143
116 -73 59 -135 113 -137 120 -6 20 25 2 96 -55z m-2128 18 l75 -16 -4 -110
c-2 -61 -4 -111 -6 -113 -3 -3 -149 15 -192 24 -22 4 -23 8 -23 124 l0 119 38
-6 c20 -4 71 -14 112 -22z m-1070 -183 l0 -126 -29 -10 c-27 -10 -29 -8 -35
20 -3 17 -6 77 -6 134 0 103 0 103 27 118 21 10 30 11 35 3 4 -7 8 -69 8 -139z
m1300 31 l0 -110 -27 3 -28 3 -3 108 -3 107 31 0 30 0 0 -111z m1911 30 l101
-81 -33 -22 c-19 -13 -67 -41 -106 -64 l-73 -41 0 145 c0 79 2 144 4 144 3 0
51 -36 107 -81z m-1701 41 c63 -11 117 -20 120 -20 3 0 4 -46 2 -103 l-3 -103
-122 18 c-67 9 -128 18 -134 18 -10 0 -13 28 -13 105 0 123 -16 114 150 85z
m248 -46 c8 -2 12 -32 12 -102 l0 -99 -37 6 -38 6 -3 103 -3 103 28 -7 c15 -3
34 -7 41 -10z m91 -10 l31 -6 0 -99 c0 -55 -4 -99 -9 -99 -5 0 -23 3 -40 6
l-31 7 0 98 c0 55 4 99 9 99 5 0 23 -3 40 -6z m165 -30 c13 -5 16 -24 16 -101
l0 -94 -27 3 -28 3 -3 98 c-3 101 0 107 42 91z m150 -30 c13 -5 16 -23 16 -95
0 -87 0 -89 -24 -89 -53 0 -56 6 -56 101 0 87 0 89 24 89 13 0 31 -3 40 -6z
m-1449 -44 c599 -84 1654 -221 2495 -324 201 -25 442 -57 535 -71 94 -13 176
-25 183 -25 7 0 12 -13 12 -30 0 -22 -5 -30 -17 -30 -10 0 -119 13 -243 29
-124 16 -403 53 -620 81 -845 109 -2403 324 -2540 350 -93 18 -113 13 -271
-60 -83 -38 -152 -70 -154 -70 -2 0 -127 -57 -277 -126 -342 -159 -490 -225
-493 -222 -2 2 -6 17 -9 33 -7 30 -5 31 66 62 113 48 625 276 798 355 85 39
166 75 180 79 32 10 97 5 355 -31z m1650 15 c150 -25 135 -13 135 -111 l0 -86
-32 6 c-18 3 -73 10 -122 16 -49 6 -93 13 -98 16 -4 3 -8 43 -8 90 0 97 -10
92 125 69z m248 -49 c27 -6 27 -8 27 -81 l0 -75 -27 0 c-48 0 -56 12 -61 95
-4 72 -4 77 14 72 11 -3 31 -8 47 -11z m156 -25 c15 -10 27 -97 17 -135 -4
-18 -11 -23 -25 -19 -23 6 -31 31 -31 99 0 63 8 74 39 55z m281 -110 c0 -82 0
-83 -22 -77 -13 3 -26 6 -30 6 -5 0 -8 30 -8 67 0 57 4 71 23 89 30 29 37 15
37 -85z m360 -7 l0 -117 -37 7 c-21 3 -89 11 -151 18 -62 6 -111 16 -109 21 3
10 277 187 289 187 5 0 8 -52 8 -116z m-542 100 c20 -6 22 -12 22 -81 l0 -74
-27 3 c-28 3 -28 4 -31 81 -2 42 1 77 5 77 4 0 18 -3 31 -6z m-1382 -189 c527
-74 1119 -155 1314 -180 407 -52 934 -123 968 -130 l22 -5 0 -884 0 -884 -31
-6 c-40 -8 -109 -8 -176 0 l-53 7 0 702 0 703 -137 21 c-211 32 -314 44 -321
36 -4 -4 -7 -335 -7 -736 l0 -729 -127 0 -128 0 0 754 0 754 -32 6 c-18 3
-118 17 -223 31 -104 14 -200 28 -213 30 l-23 6 2 -791 c1 -435 -1 -793 -4
-796 -2 -3 -62 -2 -131 2 l-126 7 0 803 c0 756 -1 803 -17 808 -39 11 -255 37
-360 43 l-113 6 0 -836 0 -837 -134 0 -133 0 -7 46 c-3 25 -3 409 1 853 l6
808 -35 7 c-33 6 -389 46 -415 46 -10 0 -13 -181 -13 -873 l0 -874 -165 -7
c-91 -4 -170 -4 -175 -1 -11 7 -14 2207 -3 2218 3 4 11 7 18 7 6 0 443 -61
971 -135z m1451 68 c-2 -16 -4 -5 -4 22 0 28 2 40 4 28 2 -13 2 -35 0 -50z
m-2537 -1053 l0 -1111 -152 3 -153 3 -3 606 -2 606 -137 6 c-173 9 -337 9
-397 1 l-46 -7 0 -603 0 -604 -150 0 -150 0 0 265 0 265 65 0 c53 0 69 4 86
21 21 21 21 27 14 193 -4 94 -17 351 -29 571 -12 220 -19 403 -16 408 8 9 337
164 670 314 140 64 282 128 315 143 33 16 66 29 73 29 9 1 12 -227 12 -1109z
m546 604 c20 -5 21 -14 28 -192 4 -103 4 -488 0 -855 l-7 -668 -46 3 -46 3 -3
65 c-2 36 -1 422 3 858 l7 792 22 0 c11 0 30 -3 42 -6z m199 -34 c50 -5 93
-10 98 -10 4 0 7 -373 7 -830 l0 -830 -113 0 -114 0 -6 458 c-4 251 -7 631 -7
845 l0 387 23 -5 c12 -3 63 -9 112 -15z m539 -46 l46 -7 -2 -811 -3 -811 -60
0 -60 0 -3 305 c-6 521 8 1330 23 1330 7 0 33 -3 59 -6z m264 -40 l62 -7 0
-788 0 -789 -120 0 -120 0 0 801 0 802 58 -6 c31 -4 85 -9 120 -13z m510 -50
l22 -6 0 -764 0 -764 -58 0 -59 0 -7 699 c-4 385 -4 731 0 770 l7 71 36 0 c20
0 46 -3 59 -6z m227 -38 l80 -11 6 -245 c3 -135 7 -469 8 -742 l1 -498 -130 0
-130 0 0 759 0 759 43 -5 c23 -3 78 -11 122 -17z m523 -71 c14 -5 17 -708 5
-1168 l-6 -257 -54 0 -53 0 0 721 0 720 48 -6 c26 -4 53 -8 60 -10z m152 -25
c36 -6 80 -12 98 -15 l32 -6 0 -689 0 -690 -120 0 -120 0 0 705 0 705 23 0
c12 0 51 -5 87 -10z m-3300 -810 l0 -590 -40 0 -40 0 0 545 0 545 -190 0 -190
0 0 -545 0 -545 -30 0 -30 0 0 574 c0 316 -3 581 -6 590 -6 14 21 16 260 16
l266 0 0 -590z m-120 -65 l0 -525 -150 0 -150 0 0 525 0 525 150 0 150 0 0
-525z m-2132 25 l292 0 0 -359 0 -358 -46 -7 c-26 -3 -163 -6 -305 -6 l-257 0
-7 63 c-7 78 -22 659 -17 670 2 5 14 6 26 3 11 -3 153 -6 314 -6z m1055 -16
l287 -6 0 -264 0 -263 -32 -6 c-18 -3 -242 -4 -498 -3 l-465 3 -3 265 c-1 146
0 270 2 277 4 8 58 10 213 7 114 -2 337 -7 496 -10z m-1915 -594 l342 0 0 -55
0 -55 -250 0 -250 0 0 -85 0 -85 960 0 960 0 0 79 0 78 -61 7 c-34 3 -158 6
-275 6 l-214 0 0 54 0 53 187 6 c103 3 1480 3 3061 -1 l2873 -5 15 -21 c35
-51 5 -79 -101 -94 -98 -15 -103 -15 -2380 -192 -1127 -88 -2466 -194 -2975
-235 -1207 -99 -1080 -94 -1285 -50 -183 39 -1986 387 -2225 429 -279 50 -310
61 -310 111 0 39 29 54 115 58 44 3 393 3 775 1 382 -2 849 -4 1038 -4z"/>
<path d="M1886 4501 c-50 -33 -69 -74 -64 -137 7 -87 62 -144 145 -151 91 -8
157 60 150 154 -8 117 -141 193 -231 134z m135 -26 c41 -22 69 -71 69 -123 0
-37 -6 -50 -34 -78 -27 -27 -42 -34 -74 -34 -50 0 -101 34 -126 83 -50 103 61
205 165 152z"/>
<path d="M1953 4373 c-18 -2 -33 -9 -33 -14 0 -15 93 -6 98 9 4 12 -3 13 -65
5z"/>
<path d="M2258 4338 c3 -35 9 -66 13 -69 14 -8 238 -26 814 -64 286 -19 652
-46 813 -60 311 -27 412 -31 412 -16 0 15 48 11 -1200 101 -769 56 -810 59
-821 65 -5 4 -9 22 -9 41 0 26 4 34 18 34 31 0 1136 -79 1565 -111 312 -24
421 -29 429 -21 7 7 9 14 6 17 -3 3 -83 10 -179 15 -96 5 -547 37 -1003 70
-456 33 -837 60 -846 60 -14 0 -16 -9 -12 -62z"/>
<path d="M1901 4074 c-45 -40 -66 -90 -57 -137 20 -108 145 -171 233 -117 47
28 66 72 61 137 -8 88 -73 153 -154 153 -36 0 -51 -6 -83 -36z m119 0 c0 -13
-21 -44 -30 -44 -6 0 -10 11 -10 25 0 18 5 25 20 25 11 0 20 -3 20 -6z m50
-34 c11 -6 17 -17 14 -25 -4 -8 -1 -15 5 -15 16 0 13 -27 -4 -34 -21 -8 -45
21 -45 55 0 32 3 34 30 19z m-117 -27 c15 -9 6 -24 -20 -34 -20 -7 -30 -6 -41
5 -23 23 -8 48 25 40 16 -4 31 -9 36 -11z m65 -26 c3 -23 0 -28 -15 -25 -11 2
-19 14 -21 31 -3 23 0 28 15 25 11 -2 19 -14 21 -31z m-90 -33 c15 -4 22 -14
22 -30 0 -38 -58 -32 -73 8 -10 27 6 34 51 22z m98 -19 c7 -18 -12 -45 -32
-45 -9 0 -14 11 -14 30 0 23 4 30 20 30 11 0 23 -7 26 -15z m82 -7 c-4 -31
-58 -40 -58 -9 0 20 12 29 43 30 14 1 18 -5 15 -21z m-84 -70 c13 -22 -3 -41
-27 -32 -23 8 -23 57 -1 52 9 -2 22 -11 28 -20z"/>
<path d="M2290 3922 c0 -41 4 -64 13 -67 32 -11 1805 -125 1944 -125 153 0 79
19 -117 31 -436 24 -1790 118 -1800 124 -5 3 -10 21 -10 40 l0 34 53 -5 c61
-5 450 -30 1307 -83 556 -35 680 -39 625 -17 -10 3 -228 20 -484 36 -556 36
-1393 88 -1474 92 l-57 3 0 -63z"/>
<path d="M1936 3677 c-54 -30 -78 -78 -73 -143 4 -58 26 -94 77 -122 82 -47
170 -29 206 40 39 75 1 189 -76 228 -50 26 -86 25 -134 -3z m104 -17 c11 -8 7
-10 -18 -8 -19 1 -36 6 -38 10 -7 11 38 10 56 -2z m-75 -10 c-3 -5 -12 -10
-18 -10 -7 0 -6 4 3 10 19 12 23 12 15 0z m110 -10 c3 -5 1 -10 -4 -10 -6 0
-11 5 -11 10 0 6 2 10 4 10 3 0 8 -4 11 -10z m-138 -24 c0 -8 -6 -12 -13 -9
-8 3 -17 -8 -23 -29 -6 -21 -10 -26 -10 -13 -1 21 25 65 38 65 4 0 8 -6 8 -14z
m183 -27 c6 -10 7 -19 3 -19 -4 0 -13 11 -20 25 -13 29 2 24 17 -6z m-216 -64
c-4 -8 -8 -15 -10 -15 -2 0 -4 7 -4 15 0 8 4 15 10 15 5 0 7 -7 4 -15z m233
-7 c-3 -8 -6 -5 -6 6 -1 11 2 17 5 13 3 -3 4 -12 1 -19z m-17 -23 c14 -19 14
-19 -2 -6 -10 7 -18 18 -18 24 0 6 1 8 3 6 1 -2 9 -13 17 -24z m-195 -15 c-3
-5 7 -18 22 -30 23 -18 23 -19 4 -8 -14 8 -31 24 -39 36 -13 20 -13 22 2 16 9
-3 14 -10 11 -14z m186 -15 c0 -5 -5 -11 -13 -13 -10 -3 -10 -1 1 6 11 8 10
11 -5 15 -16 5 -16 6 -1 4 10 -1 18 -6 18 -12z m-77 -41 c15 3 24 1 21 -5 -12
-18 -75 -7 -75 13 0 6 5 6 14 -1 8 -7 26 -10 40 -7z"/>
<path d="M2332 3578 c-13 -13 -16 -96 -4 -115 10 -16 82 -21 1063 -73 416 -22
803 -43 860 -46 98 -6 103 -5 88 11 -14 14 -49 18 -220 25 -327 15 -1722 91
-1746 96 -19 3 -23 11 -23 38 0 19 6 36 13 38 11 5 556 -26 1442 -82 182 -11
377 -20 434 -20 164 0 110 18 -89 30 -96 6 -447 26 -780 45 -566 33 -803 47
-960 60 -45 4 -69 2 -78 -7z"/>
<path d="M3810 3020 c-134 -138 -246 -247 -251 -243 -4 4 -30 71 -59 148 -29
77 -55 146 -59 153 -4 8 -57 -44 -148 -145 -78 -87 -169 -185 -202 -217 l-60
-60 -21 50 -22 49 -25 -30 c-81 -95 -317 -344 -321 -340 -3 3 -31 54 -62 113
-31 59 -61 107 -67 107 -10 0 -167 -174 -205 -227 -43 -62 6 -22 103 82 l103
110 58 -112 c32 -62 62 -116 66 -120 5 -5 19 7 32 24 13 18 69 83 125 143 56
61 120 130 143 155 l41 45 21 -49 21 -50 60 60 c34 32 124 128 202 213 l141
154 23 -49 c13 -27 39 -97 59 -156 19 -60 39 -108 43 -108 4 0 114 110 245
245 130 134 240 245 244 245 4 0 10 -55 14 -122 12 -185 58 -785 65 -834 3
-26 10 -41 16 -37 10 6 7 90 -13 323 -5 63 -18 250 -30 415 -11 164 -24 303
-28 307 -5 5 -118 -104 -252 -242z"/>
<path d="M3579 2699 c-21 -21 -22 -28 -15 -142 3 -66 6 -162 6 -214 l0 -93
116 0 117 0 -7 128 c-3 70 -9 175 -13 235 l-6 107 -88 0 c-78 0 -92 -3 -110
-21z"/>
<path d="M3145 2638 c-6 -13 -24 -27 -42 -33 l-33 -9 0 -168 0 -168 115 0 115
0 0 154 c0 84 -3 174 -6 200 l-7 46 -66 0 c-59 0 -67 -2 -76 -22z"/>
<path d="M2680 2281 c0 -26 3 -29 46 -35 26 -3 62 -6 80 -6 32 0 34 2 34 35
l0 35 -80 0 -80 0 0 -29z"/>
<path d="M2180 2156 c0 -21 62 -23 1465 -56 237 -6 483 -13 548 -17 79 -4 117
-3 117 4 0 6 -8 14 -17 17 -10 4 -189 11 -398 16 -932 23 -1244 31 -1440 40
-272 13 -275 13 -275 -4z"/>
<path d="M5874 4460 c0 -63 1 -89 3 -57 2 31 2 83 0 115 -2 31 -3 5 -3 -58z"/>
<path d="M7880 7009 l-23 -49 -52 0 c-49 0 -52 1 -74 40 -12 22 -26 42 -31 45
-6 4 -33 -6 -60 -22 -35 -20 -48 -32 -44 -43 28 -68 27 -82 -8 -117 l-34 -34
-41 15 -42 15 -21 -56 c-11 -31 -19 -62 -16 -69 2 -6 21 -17 40 -24 36 -12 36
-12 36 -71 0 -58 -1 -60 -35 -80 -19 -12 -35 -26 -35 -31 0 -6 14 -34 30 -64
l31 -53 34 20 c26 15 38 18 53 10 32 -17 49 -53 41 -86 -13 -59 -11 -63 44
-83 l52 -20 23 44 22 44 48 -7 c26 -3 50 -11 54 -18 4 -6 15 -22 25 -33 18
-22 19 -22 70 -5 l53 17 -5 50 c-5 45 -3 55 20 80 25 27 27 28 72 17 25 -7 47
-11 48 -9 1 2 13 23 25 47 l22 45 -41 35 c-37 32 -41 41 -41 79 0 39 3 45 44
70 l44 28 -26 63 c-16 40 -29 60 -38 57 -7 -3 -28 -8 -46 -11 -28 -5 -37 -2
-66 28 -30 31 -32 37 -24 73 7 33 1 84 -10 84 -2 0 -24 7 -49 14 l-46 14 -23
-49z m-156 -26 l24 -48 61 3 62 4 22 44 c11 24 25 44 30 44 5 0 25 -7 44 -16
28 -14 33 -21 29 -40 -3 -13 -9 -34 -12 -47 -4 -17 5 -35 36 -69 l41 -47 41
15 c22 8 42 14 43 14 1 0 10 -18 20 -39 21 -48 15 -69 -24 -84 -27 -10 -30
-15 -33 -71 -4 -58 -2 -62 29 -89 42 -36 46 -83 8 -93 -14 -3 -40 -3 -58 0
-29 5 -38 1 -70 -32 -35 -36 -36 -39 -26 -76 12 -45 6 -55 -43 -62 -32 -6 -37
-3 -54 25 -16 27 -24 31 -60 31 -23 0 -49 3 -58 6 -10 4 -21 -7 -36 -35 -23
-45 -23 -46 -69 -30 -31 11 -32 13 -26 53 4 22 8 44 9 47 0 3 -16 25 -37 48
l-38 42 -35 -22 c-39 -24 -38 -24 -70 35 -15 28 -15 29 20 57 34 29 35 31 32
91 -3 59 -4 62 -40 80 -39 20 -39 21 -15 87 9 23 17 24 79 6 10 -3 30 13 53
40 36 42 37 47 28 82 -6 21 -11 43 -11 49 0 9 54 42 72 43 4 1 18 -20 32 -46z"/>
<path d="M7742 6793 c-49 -24 -75 -68 -80 -132 -3 -46 0 -62 20 -90 33 -49 69
-72 120 -78 58 -7 108 15 144 63 24 31 29 47 29 95 0 65 -18 98 -75 137 -40
27 -109 29 -158 5z m144 -13 c35 -22 74 -91 74 -131 0 -13 -9 -43 -20 -67 -24
-54 -88 -87 -147 -76 -49 9 -102 59 -112 107 -29 126 100 231 205 167z"/>
</g>
</svg>
