<?xml version="1.0" standalone="no"?>
<!DOCTYPE svg PUBLIC "-//W3C//DTD SVG 20010904//EN"
 "http://www.w3.org/TR/2001/REC-SVG-20010904/DTD/svg10.dtd">
<svg version="1.0" xmlns="http://www.w3.org/2000/svg"
 width="1024.000000pt" height="1024.000000pt" viewBox="0 0 1024.000000 1024.000000"
 preserveAspectRatio="xMidYMid meet">

<g transform="translate(0.000000,1024.000000) scale(0.100000,-0.100000)"
fill="#e0e0e0" stroke="none">
<path d="M5369 9695 c-73 -26 -119 -55 -119 -74 0 -10 11 -44 25 -76 14 -32
23 -60 21 -63 -3 -3 -31 12 -63 33 l-57 38 -44 -24 c-65 -35 -153 -109 -175
-147 -11 -19 -17 -41 -13 -55 3 -12 44 -65 90 -117 47 -52 83 -96 81 -98 -2
-2 -31 10 -65 27 -67 34 -64 35 -122 -18 -33 -30 -34 -43 -8 -131 l20 -66 105
-63 c58 -34 105 -66 105 -70 0 -4 -24 -21 -52 -39 -29 -17 -66 -42 -81 -55
l-29 -22 59 -90 c85 -129 81 -127 165 -81 57 31 72 36 79 25 51 -77 49 -68 29
-149 -9 -41 -15 -78 -13 -83 7 -11 166 -139 181 -144 7 -3 37 11 67 31 48 32
57 34 80 24 20 -9 25 -18 25 -47 0 -20 3 -52 6 -71 6 -37 4 -36 126 -105 l56
-33 37 25 c41 28 55 57 55 114 0 24 5 39 12 39 7 0 52 -39 99 -86 l87 -86 58
37 c60 38 124 93 124 107 0 10 -31 -1 -52 -20 -15 -12 -18 -12 -22 -1 -3 8
-14 38 -25 68 -11 30 -19 56 -17 58 1 2 14 -5 27 -16 13 -10 48 -33 76 -49
l52 -31 59 40 c33 21 65 45 71 53 11 12 -4 62 -54 188 -5 12 9 27 55 58 34 23
64 48 66 55 9 21 -71 182 -96 195 -14 7 -39 9 -64 6 -39 -6 -43 -5 -55 21 -7
15 -9 29 -4 30 25 10 135 86 140 98 6 18 -57 133 -105 193 -40 50 -51 50 -132
0 -27 -17 -52 -29 -53 -27 -2 2 -18 28 -37 58 l-34 54 45 41 c24 23 55 49 68
58 23 17 24 18 6 44 -30 46 -139 149 -173 163 -31 13 -34 12 -99 -33 l-67 -46
-30 20 c-28 17 -31 25 -34 78 -2 44 1 62 13 72 32 27 17 46 -65 84 -116 53
-133 55 -170 18 -22 -22 -30 -40 -30 -65 0 -21 -7 -41 -20 -52 -11 -10 -22
-16 -23 -14 -2 2 -29 41 -61 87 -50 71 -55 82 -37 82 25 0 28 25 5 34 -21 8
-33 7 -75 -9z m38 -42 c4 -10 29 -55 56 -101 27 -45 47 -85 44 -88 -3 -3 -29
-7 -58 -10 -29 -2 -61 -6 -70 -9 -11 -4 -24 4 -37 22 -23 34 -62 120 -62 139
0 14 83 63 108 64 7 0 16 -8 19 -17z m397 -162 c3 -20 6 -62 6 -93 l0 -57 -92
45 c-51 24 -96 53 -99 63 -15 40 -22 133 -10 140 6 4 52 -8 100 -27 86 -34 89
-37 95 -71z m-561 -15 c31 -20 57 -40 56 -44 0 -9 -52 -50 -70 -57 -8 -2 -45
15 -82 39 l-69 44 44 30 c23 17 48 30 54 28 6 -2 36 -20 67 -40z m352 -15 c7
-21 5 -23 -16 -18 -13 4 -30 7 -38 7 -10 0 -7 8 9 25 25 27 33 24 45 -14z
m-497 -48 c20 -15 52 -37 69 -50 l33 -24 -35 -68 c-19 -38 -35 -75 -35 -83 0
-8 -3 -17 -6 -21 -8 -8 -154 145 -154 161 0 22 21 56 54 84 17 15 32 27 34 28
2 0 20 -12 40 -27z m482 2 c142 -38 316 -159 425 -298 115 -144 218 -378 232
-523 7 -73 4 -69 91 -124 34 -22 62 -44 62 -48 0 -5 -19 -22 -42 -37 -40 -27
-42 -27 -75 -11 -18 9 -35 16 -37 16 -2 0 -20 -27 -41 -61 -56 -91 -145 -146
-267 -163 -49 -7 -63 -24 -29 -33 29 -8 18 -91 -17 -120 -15 -13 -31 -23 -37
-23 -5 0 -41 20 -80 44 l-70 42 -3 53 -3 53 32 -7 c48 -11 29 8 -59 56 -165
90 -248 166 -348 319 -129 197 -179 349 -172 525 3 87 8 109 35 168 43 90 110
149 203 178 42 12 142 10 200 -6z m560 -72 c39 -36 70 -70 70 -76 0 -6 -7 -19
-16 -28 -16 -17 -21 -14 -107 73 -81 83 -88 93 -72 104 24 17 40 8 125 -73z
m-82 -33 c101 -99 100 -98 44 -153 l-48 -47 -89 90 -89 90 47 45 c26 25 51 45
56 45 4 0 40 -32 79 -70z m-200 38 c13 -13 16 -48 4 -48 -14 0 -32 23 -32 42
0 21 11 23 28 6z m-744 -350 c4 -46 11 -100 15 -120 5 -21 7 -38 4 -38 -8 0
-47 22 -110 63 -65 41 -74 56 -89 148 -5 31 -2 39 24 61 l31 26 59 -29 59 -28
7 -83z m1015 67 c27 -47 29 -58 19 -75 -12 -18 -15 -15 -45 37 -24 43 -29 61
-22 75 5 10 11 18 13 18 2 0 18 -25 35 -55z m234 -47 c19 -24 47 -67 63 -97
27 -51 28 -54 9 -67 -24 -17 -34 -9 -70 58 -35 66 -63 98 -87 98 -27 0 -22 17
10 34 37 21 37 21 75 -26z m-75 -43 c12 -9 40 -48 63 -87 45 -77 46 -72 -21
-107 -23 -12 -47 -17 -69 -13 -31 4 -36 11 -72 89 -22 46 -39 89 -39 97 0 33
99 48 138 21z m-1071 -315 l51 -94 -59 -34 c-32 -18 -63 -31 -68 -28 -13 8
-111 153 -111 165 0 13 111 91 125 87 6 -1 33 -45 62 -96z m1096 56 c7 -21 6
-35 -2 -49 -15 -23 -18 -18 45 -50 44 -22 53 -32 71 -79 12 -29 24 -61 28 -70
6 -15 2 -18 -26 -18 -23 0 -54 13 -94 40 l-60 40 -17 92 c-24 132 -24 130 14
126 25 -2 34 -9 41 -32z m132 -36 c7 0 29 -38 50 -85 37 -83 38 -86 19 -100
-10 -8 -23 -14 -29 -15 -12 0 -61 109 -57 127 1 6 -21 19 -49 28 l-52 18 24
19 c16 12 33 17 53 13 16 -3 34 -5 41 -5z m-903 -414 c21 -16 35 -32 32 -37
-3 -5 -23 -18 -45 -30 -47 -24 -49 -23 -142 63 l-58 53 17 58 17 58 71 -69
c39 -37 88 -81 108 -96z m898 44 l33 -81 -23 -24 c-30 -32 -38 -31 -46 3 -10
49 -35 112 -45 112 -18 0 -9 39 13 54 12 9 25 16 28 16 4 0 21 -36 40 -80z
m-102 -3 c25 -23 57 -119 48 -143 -9 -23 -37 -16 -120 31 -44 25 -81 46 -83
48 -2 2 13 29 34 60 l36 56 31 -16 c17 -8 41 -25 54 -36z m-140 -164 c35 -95
36 -92 -31 -129 -29 -15 -29 -15 -100 53 -40 37 -73 70 -74 73 -1 4 153 86
168 89 3 0 20 -38 37 -86z"/>
<path d="M5525 9165 c-248 -125 -57 -637 259 -696 224 -41 310 201 163 461
-17 30 -65 89 -106 131 -59 59 -89 81 -134 97 -67 26 -140 28 -182 7z m190
-45 c122 -59 243 -229 265 -372 19 -124 -8 -201 -84 -237 -37 -18 -50 -20 -95
-11 -85 16 -138 45 -205 112 -137 138 -195 353 -123 460 12 18 38 43 57 56 44
30 113 27 185 -8z"/>
<path d="M3070 9501 c-80 -48 -203 -123 -275 -166 -71 -43 -260 -158 -420
-255 -159 -98 -380 -231 -490 -297 -110 -66 -310 -186 -444 -267 -135 -82
-251 -150 -258 -153 -8 -3 -21 4 -29 16 -31 43 -62 16 -89 -76 -15 -51 -15
-51 -145 -127 -71 -43 -140 -86 -152 -96 -23 -19 -23 -19 -3 -38 11 -11 92
-62 180 -112 88 -51 246 -143 350 -205 105 -62 240 -140 300 -175 61 -35 243
-143 405 -240 250 -150 558 -332 1007 -598 73 -43 98 -53 119 -48 15 4 101 54
193 110 91 57 207 127 256 156 50 30 144 88 210 130 66 43 219 137 340 210
121 73 276 170 345 215 69 45 213 135 320 200 107 65 216 133 243 150 l47 32
-77 45 c-43 25 -172 100 -288 168 -272 160 -378 220 -388 220 -22 0 16 -26
151 -106 295 -174 468 -277 510 -304 l44 -27 -139 -85 c-76 -47 -183 -114
-237 -148 -83 -53 -102 -61 -117 -51 -11 6 -26 11 -34 11 -13 0 -13 -3 -3 -20
17 -27 7 -36 -188 -158 -227 -143 -281 -165 -304 -123 -12 24 -48 37 -62 23
-7 -7 4 -20 36 -40 l47 -29 -173 -108 c-95 -60 -243 -151 -328 -203 -85 -52
-212 -130 -282 -173 -70 -44 -132 -79 -137 -79 -5 0 -87 47 -182 103 -96 57
-298 177 -449 267 -498 295 -523 311 -508 326 19 18 337 204 349 204 6 0 38
-15 72 -34 100 -56 195 -79 317 -80 132 0 162 12 376 139 87 52 164 95 169 95
6 0 24 -9 40 -20 17 -11 36 -20 43 -20 23 0 12 21 -24 42 l-36 21 38 23 c132
77 179 112 206 153 40 64 39 125 -6 213 -22 42 -30 65 -20 61 18 -7 18 1 -2
39 -13 25 -14 33 -2 44 7 7 103 67 213 134 165 101 203 120 217 111 26 -16 80
-13 106 5 15 10 22 25 22 49 0 40 28 66 128 122 166 91 220 143 206 199 -4 16
-3 25 3 23 33 -13 123 -65 123 -71 0 -5 -18 -7 -40 -6 -22 1 -43 -1 -46 -5 -3
-3 13 -19 37 -36 46 -34 57 -34 40 -3 -10 18 -7 21 19 27 16 4 32 10 35 14 5
8 -7 15 -390 233 -126 73 -264 151 -305 175 -69 40 -90 49 -90 39 0 -2 23 -18
50 -36 54 -34 60 -45 32 -54 -23 -8 -86 -65 -79 -73 3 -3 36 11 72 32 l66 36
182 -105 c258 -148 253 -145 271 -182 15 -33 15 -34 -15 -69 -25 -28 -228
-164 -304 -203 -39 -20 -114 12 -281 117 -206 131 -203 129 -185 107 8 -9 73
-52 144 -94 72 -42 148 -94 170 -114 35 -33 46 -38 81 -35 40 2 41 1 44 -30 3
-27 -1 -35 -23 -45 -23 -11 -33 -9 -66 10 -29 17 -39 19 -39 9 0 -17 -36 -42
-250 -169 -109 -66 -169 -96 -180 -91 -8 4 -50 8 -93 8 -72 2 -77 1 -62 -15 8
-9 15 -32 15 -51 0 -33 -4 -37 -122 -108 -103 -63 -124 -72 -140 -62 -20 13
-38 7 -38 -12 -1 -7 -54 -43 -118 -82 -269 -160 -484 -286 -535 -313 -30 -16
-88 -51 -129 -76 -40 -26 -126 -78 -190 -116 l-118 -70 -112 66 c-62 37 -165
97 -228 134 -63 37 -142 83 -175 102 -94 54 -135 82 -135 93 1 6 77 55 171
110 94 55 237 141 317 192 81 50 228 140 327 199 99 60 270 163 381 231 111
68 206 123 211 123 6 0 24 -7 39 -15 34 -17 48 0 18 22 -25 18 -21 21 166 133
85 51 169 103 187 116 17 13 37 24 43 24 22 0 104 -87 126 -135 18 -38 22 -60
17 -90 -12 -83 -49 -122 -196 -209 -47 -28 -146 -90 -220 -138 -96 -62 -141
-85 -156 -81 -22 6 -28 -6 -10 -24 10 -10 1 -17 -130 -98 l-44 -27 53 -29 52
-29 90 54 c80 48 94 53 122 45 l31 -8 -33 29 c-37 34 -55 38 -50 13 3 -13 -13
-30 -51 -55 -84 -57 -102 -62 -145 -44 -21 9 -35 20 -32 25 3 5 40 30 81 56
53 33 84 46 100 43 21 -4 23 -2 15 13 -8 15 8 29 118 97 70 43 168 103 217
132 112 67 191 140 205 189 26 94 2 159 -87 240 l-64 58 263 159 c145 87 278
165 297 175 l33 16 -28 20 c-117 82 -462 283 -485 283 -8 0 -79 -40 -159 -89z
m346 -37 c195 -114 264 -157 264 -166 0 -11 -42 -38 -243 -157 l-188 -112 -26
21 c-27 21 -53 26 -53 11 0 -5 12 -18 26 -28 l27 -20 -53 -32 c-29 -18 -54
-40 -57 -49 -2 -9 -96 -72 -208 -140 -167 -101 -208 -122 -229 -116 -20 5 -25
3 -21 -8 9 -22 61 13 -495 -326 -140 -85 -331 -201 -425 -257 -93 -56 -242
-146 -329 -199 l-159 -98 -36 17 c-74 35 -429 250 -425 257 3 4 66 44 141 89
135 81 137 82 199 80 99 -3 126 22 83 77 -24 32 -29 27 111 109 52 31 268 160
480 287 277 167 392 230 409 228 18 -3 22 0 18 11 -5 15 121 96 436 282 96 57
100 58 134 46 43 -16 56 -6 24 18 l-24 18 74 46 c341 210 351 216 374 207 12
-4 89 -48 171 -96z m-2248 -1126 c61 -90 61 -88 -10 -88 -83 0 -94 8 -79 51
14 41 39 79 51 79 5 0 22 -19 38 -42z m2280 -70 c20 -20 14 -56 -12 -74 -23
-14 -28 -14 -60 1 -20 10 -36 20 -36 24 0 17 32 50 53 54 39 8 43 7 55 -5z
m-28 -101 c30 1 39 -5 57 -32 26 -39 53 -117 53 -151 0 -39 -36 -95 -81 -127
l-39 -29 -42 31 c-42 31 -68 39 -68 21 0 -5 18 -19 40 -30 22 -11 40 -24 40
-29 0 -12 -344 -223 -459 -283 l-83 -43 -132 0 c-82 0 -146 5 -171 14 -53 17
-185 82 -185 90 0 3 31 23 68 45 106 62 293 172 471 278 156 93 166 97 187 83
13 -8 34 -15 46 -15 l23 1 -25 21 c-14 11 -20 23 -15 25 6 2 57 34 115 73 90
59 109 68 135 63 17 -4 46 -6 65 -6z"/>
<path d="M2865 9250 c-3 -4 7 -18 21 -29 43 -34 76 -23 37 11 -24 20 -51 29
-58 18z"/>
<path d="M2970 9182 c0 -11 30 -37 53 -45 25 -9 22 19 -5 37 -24 17 -48 21
-48 8z"/>
<path d="M3080 9110 c6 -11 24 -27 40 -35 26 -13 30 -14 30 -1 0 17 -46 56
-67 56 -11 0 -11 -4 -3 -20z"/>
<path d="M2270 8895 c23 -25 60 -34 60 -15 0 11 -52 40 -71 40 -7 0 -2 -11 11
-25z"/>
<path d="M2360 8845 c0 -16 58 -50 68 -40 8 7 -43 55 -59 55 -5 0 -9 -7 -9
-15z"/>
<path d="M2460 8790 c0 -10 58 -50 73 -50 18 0 4 20 -27 39 -38 24 -46 26 -46
11z"/>
<path d="M2570 8720 c6 -11 24 -27 40 -35 27 -14 30 -14 30 0 0 8 -15 24 -32
35 -42 25 -51 25 -38 0z"/>
<path d="M3175 7970 c-8 -14 43 -60 68 -60 16 0 17 2 7 15 -24 29 -68 56 -75
45z"/>
<path d="M7329 9118 c0 -2 -3 -608 -6 -1348 l-5 -1345 108 -61 c60 -34 453
-258 874 -497 421 -239 778 -441 793 -448 24 -11 30 -11 38 2 5 8 9 558 9
1341 l0 1328 -39 25 c-22 13 -111 65 -198 113 -87 49 -225 129 -308 177 -82
48 -289 166 -460 263 -170 96 -328 187 -350 202 -39 27 -442 250 -451 250 -2
0 -4 -1 -5 -2z m313 -195 c137 -76 157 -91 162 -116 3 -16 6 -107 6 -201 l0
-172 48 -23 c26 -13 148 -80 272 -151 124 -70 281 -158 350 -195 69 -37 150
-82 180 -100 30 -18 70 -40 88 -49 l32 -17 0 -169 0 -169 -102 58 c-57 32
-162 91 -235 130 l-132 72 -3 57 c-4 67 -23 73 -22 7 0 -25 -3 -45 -6 -45 -12
0 -125 63 -133 74 -4 6 -5 23 -3 38 3 15 3 35 0 43 -11 28 -24 15 -24 -25 0
-22 -2 -40 -5 -40 -2 0 -34 16 -70 36 -60 33 -65 38 -65 69 0 18 -3 40 -6 49
-11 28 -24 17 -24 -19 0 -19 -2 -35 -4 -35 -2 0 -29 12 -60 26 l-56 25 0 157
c0 86 -5 164 -10 172 -7 11 -10 3 -11 -30 -1 -25 -4 -102 -8 -171 l-6 -127
-70 40 c-38 22 -139 76 -222 121 l-153 81 0 371 c0 205 3 375 6 378 4 4 34 -9
68 -28 34 -20 131 -74 218 -122z m876 -498 l261 -150 1 -174 c0 -150 -2 -172
-15 -167 -8 3 -163 88 -343 189 -180 101 -363 203 -407 227 -44 24 -104 58
-132 77 l-53 33 0 168 c0 93 3 171 6 174 5 6 229 -118 682 -377z m-994 -221
c89 -48 186 -101 216 -118 l55 -32 8 -284 c8 -280 4 -374 -13 -368 -5 2 -106
55 -224 118 l-216 115 0 328 c0 180 3 327 7 327 4 0 79 -39 167 -86z m1390
-11 c56 -31 122 -69 149 -86 l47 -29 0 -349 0 -350 -22 12 c-73 37 -274 155
-280 164 -10 13 -10 695 -1 695 4 0 52 -25 107 -57z m-915 -225 c288 -160 278
-153 285 -205 3 -25 6 -158 6 -294 l0 -248 53 -40 c67 -49 136 -126 183 -203
l36 -60 32 30 c61 58 98 63 158 20 l29 -20 -3 -278 c-2 -153 -6 -281 -9 -284
-3 -4 -58 23 -122 58 -82 45 -119 60 -125 52 -10 -14 -16 -563 -7 -640 15
-118 25 -47 25 179 0 129 3 235 6 235 3 0 99 -53 212 -119 231 -132 312 -175
319 -167 6 5 -188 120 -390 231 l-147 80 0 82 c0 45 4 84 9 87 5 4 31 -7 58
-23 26 -15 122 -70 213 -121 91 -51 193 -108 228 -128 l62 -36 0 -359 0 -359
-85 46 c-46 25 -175 99 -287 164 -242 142 -764 440 -1008 577 -96 53 -224 125
-283 158 l-109 61 4 377 c1 208 6 380 9 383 5 6 143 -67 271 -142 l28 -16 2
-375 c2 -289 6 -375 16 -379 9 -3 12 74 12 363 0 290 3 366 13 362 6 -3 100
-54 207 -115 226 -128 216 -129 206 23 -3 50 -1 97 4 105 6 10 10 -171 10
-492 0 -280 4 -508 8 -508 11 0 26 1010 15 1021 -4 4 -20 11 -35 14 l-28 7 0
-121 c0 -119 -1 -121 -20 -111 -16 9 -20 21 -20 65 0 30 -4 55 -10 55 -5 0
-10 -20 -10 -45 0 -25 -4 -45 -9 -45 -5 0 -40 17 -78 39 -67 38 -68 39 -71 85
-4 53 -22 63 -22 11 0 -19 -3 -35 -7 -35 -5 0 -39 17 -78 38 -60 33 -70 43
-73 68 -5 60 -13 94 -22 94 -6 0 -10 -20 -10 -45 0 -25 -4 -45 -9 -45 -4 0
-40 19 -80 41 -71 42 -71 42 -71 85 0 24 -4 44 -10 44 -5 0 -10 -16 -10 -35 0
-19 -2 -35 -5 -35 -2 0 -29 12 -60 27 l-55 27 0 184 c0 169 1 184 17 178 9 -4
113 -58 231 -121 118 -63 218 -112 223 -109 5 3 9 158 9 345 l0 340 22 -7 c12
-3 78 -38 147 -76z m558 -307 c144 -79 214 -122 217 -136 3 -11 6 -138 6 -282
l0 -263 -40 21 c-48 25 -94 21 -139 -10 -16 -12 -33 -21 -38 -21 -5 0 -20 18
-32 40 -30 53 -123 154 -178 191 l-43 30 0 279 c0 262 1 279 18 273 9 -3 112
-58 229 -122z m448 -248 l100 -58 3 -283 2 -283 -52 31 c-29 17 -99 57 -155
88 l-103 57 0 271 c0 149 3 273 6 277 7 7 56 -18 199 -100z m13 -594 l92 -51
0 -293 0 -294 -72 43 c-40 23 -110 62 -155 86 l-83 44 0 294 0 293 63 -36 c34
-19 104 -58 155 -86z"/>
<path d="M8459 7371 l-24 -19 56 5 c54 5 58 4 98 -32 45 -41 68 -97 57 -139
-7 -28 -39 -46 -81 -46 -28 0 -42 -17 -27 -32 16 -16 81 0 109 28 22 22 25 32
21 80 -10 120 -136 214 -209 155z"/>
<path d="M8430 7297 c0 -55 46 -150 76 -156 18 -3 18 -2 -3 21 -30 32 -53 90
-53 132 0 19 -4 38 -10 41 -6 4 -10 -11 -10 -38z"/>
<path d="M2795 8580 c18 -20 66 -50 80 -50 3 0 5 4 5 9 0 13 -48 46 -80 56
l-25 8 20 -23z"/>
<path d="M2900 8515 c0 -8 74 -55 87 -55 23 0 14 18 -21 39 -30 19 -66 28 -66
16z"/>
<path d="M3080 8410 c0 -5 14 -17 32 -26 17 -9 49 -29 71 -45 22 -16 49 -29
61 -29 20 1 19 2 -7 25 -15 14 -40 28 -55 31 -15 4 -37 18 -49 31 -22 23 -53
31 -53 13z"/>
<path d="M2900 8121 c0 -11 37 -36 70 -46 23 -7 24 -6 11 9 -13 16 -63 46 -76
46 -3 0 -5 -4 -5 -9z"/>
<path d="M3763 8015 c15 -14 36 -25 45 -25 13 1 11 6 -11 25 -15 14 -36 25
-45 25 -13 -1 -11 -6 11 -25z"/>
<path d="M3850 7971 c0 -13 50 -51 68 -51 12 0 12 3 1 16 -17 21 -69 47 -69
35z"/>
<path d="M3960 7900 c0 -12 50 -50 67 -50 10 0 11 5 4 19 -11 20 -71 46 -71
31z"/>
<path d="M4070 7831 c0 -12 40 -41 57 -41 23 0 14 19 -17 35 -34 18 -40 18
-40 6z"/>
<path d="M4180 7772 c0 -14 35 -42 53 -42 27 0 20 18 -13 35 -33 17 -40 18
-40 7z"/>
<path d="M4285 7711 c-6 -10 50 -51 68 -51 17 0 1 21 -30 41 -20 13 -34 16
-38 10z"/>
<path d="M3372 7648 c5 -14 66 -58 80 -58 18 0 1 25 -32 48 -37 25 -54 28 -48
10z"/>
<path d="M4410 7625 c23 -25 60 -34 60 -15 0 11 -52 40 -71 40 -7 0 -2 -11 11
-25z"/>
<path d="M3486 7577 c5 -15 56 -47 73 -47 22 0 10 21 -21 40 -38 23 -60 26
-52 7z"/>
<path d="M3610 7505 c0 -8 14 -21 30 -30 26 -13 30 -14 30 -1 0 14 -36 46 -52
46 -5 0 -8 -7 -8 -15z"/>
<path d="M3720 7453 c0 -14 15 -30 38 -42 25 -13 38 -9 27 8 -8 15 -65 44 -65
34z"/>
<path d="M3840 7377 c0 -16 32 -47 48 -47 23 0 11 30 -18 45 -25 13 -30 13
-30 2z"/>
<path d="M1461 6865 c-128 -36 -254 -132 -305 -233 -27 -52 -54 -207 -42 -237
6 -17 -36 -49 -160 -120 -54 -31 -179 -107 -276 -167 l-178 -110 0 -94 0 -93
82 -49 c46 -27 140 -80 210 -118 94 -51 126 -73 122 -84 -23 -58 -56 -221 -65
-316 -14 -158 13 -425 50 -491 5 -9 1 -57 -10 -117 -32 -179 -50 -347 -55
-526 -5 -156 -10 -189 -40 -305 -40 -154 -51 -261 -34 -324 8 -33 27 -59 71
-101 l59 -57 0 -109 c0 -60 5 -153 10 -207 19 -194 15 -322 -13 -432 -14 -55
-33 -161 -41 -235 -24 -207 -40 -570 -31 -695 5 -60 7 -167 6 -237 -3 -146 9
-186 63 -212 87 -41 184 -28 274 38 76 56 68 52 178 91 102 36 188 85 204 116
24 44 1 135 -42 162 -12 8 -48 18 -78 21 -93 11 -191 29 -195 36 -6 10 71 533
135 915 32 193 61 377 65 410 13 122 11 123 102 -115 47 -124 97 -257 111
-296 l26 -70 -18 -176 c-22 -211 -18 -633 8 -838 44 -347 42 -332 70 -357 27
-23 27 -23 25 -155 0 -73 2 -141 6 -150 9 -24 100 -66 155 -74 53 -7 87 5 200
71 41 24 107 53 147 64 117 35 243 133 243 191 0 36 -57 107 -105 130 -48 23
-81 24 -241 4 -29 -3 -54 -2 -57 3 -3 5 5 108 18 229 43 400 49 503 49 844 0
426 -2 448 -148 1355 -35 216 -86 581 -86 613 0 2 23 -17 52 -43 80 -71 134
-95 218 -95 86 0 155 26 263 99 151 102 273 235 311 341 l22 60 194 -109 c107
-60 310 -174 450 -253 l255 -143 7 -70 c4 -39 7 -375 6 -747 -1 -540 2 -681
12 -693 7 -9 41 -31 76 -51 l62 -35 75 48 75 47 7 274 c4 150 6 446 3 658 -2
211 -3 384 -2 384 3 0 279 -154 727 -405 l157 -89 0 -387 c0 -212 3 -401 6
-419 9 -40 55 -71 355 -237 118 -66 383 -214 589 -330 206 -116 530 -296 720
-400 l345 -189 3 -372 2 -372 43 -21 c23 -12 54 -30 69 -41 l27 -19 73 45 73
44 5 291 5 291 95 -53 c197 -111 766 -430 1032 -581 152 -86 288 -161 301
-167 19 -9 31 -6 73 19 85 52 764 456 877 523 60 35 113 71 117 79 5 9 6 617
2 1351 l-7 1334 -190 109 c-299 171 -1036 601 -1310 764 l-250 149 -6 142 c-4
78 -8 144 -10 145 -2 2 -78 45 -169 96 -386 217 -1017 576 -1300 740 -368 214
-529 303 -544 303 -22 0 -302 -146 -386 -200 -165 -107 -431 -333 -538 -456
-137 -158 -253 -389 -296 -589 l-6 -27 -209 119 c-116 65 -249 140 -297 166
l-86 47 6 66 c4 36 9 84 12 106 l5 40 -92 49 c-51 27 -212 118 -357 203 -146
85 -270 155 -275 156 -6 1 -35 -29 -65 -68 -30 -38 -60 -69 -66 -67 -6 2 -225
123 -486 269 -261 146 -531 295 -599 331 -100 53 -121 67 -109 76 9 6 36 25
61 43 26 18 55 50 67 73 18 36 19 43 6 68 -37 71 -105 88 -225 54 -82 -24 -97
-20 -139 37 -12 17 -55 46 -96 66 -63 32 -86 38 -158 41 -55 3 -101 -1 -137
-11z m269 -51 c85 -40 132 -82 164 -146 67 -134 8 -255 -174 -356 -179 -100
-452 -112 -540 -23 -36 35 -47 135 -26 232 25 117 82 196 183 256 138 81 273
94 393 37z m434 -115 c37 -29 35 -72 -5 -110 -39 -37 -146 -97 -185 -105 l-29
-6 0 79 c0 43 -4 90 -8 104 -8 24 -6 26 55 41 91 23 140 22 172 -3z m-62 -268
c35 -21 151 -86 258 -144 385 -209 894 -494 897 -503 1 -5 -10 -24 -26 -43
l-28 -34 -149 85 c-303 174 -803 457 -941 533 -150 82 -165 98 -121 129 32 22
39 21 110 -23z m-154 -40 l20 -59 -38 -21 c-20 -11 -43 -28 -51 -37 -12 -14
-10 -16 16 -12 27 3 30 0 38 -37 14 -64 1 -132 -44 -226 -41 -87 -43 -88 -83
-94 -67 -10 -120 -3 -124 18 -3 14 4 17 36 17 66 0 72 5 72 67 l0 55 -37 -6
c-102 -18 -110 -18 -126 -1 -36 35 -13 165 28 165 26 0 48 -47 42 -91 -4 -28
-2 -39 6 -36 7 2 12 28 13 63 l1 58 103 118 c57 65 104 118 106 118 1 0 11
-26 22 -59z m105 -72 c86 -44 239 -130 235 -134 -2 -1 -77 -49 -168 -105 -91
-57 -177 -112 -192 -123 -15 -11 -30 -18 -33 -15 -3 3 10 41 30 84 43 93 52
147 36 210 -10 39 -10 49 4 64 8 9 15 24 15 33 0 22 0 22 73 -14z m-928 -1 c4
-13 17 -34 30 -48 14 -15 25 -44 29 -74 9 -71 62 -180 108 -221 38 -35 43 -50
32 -93 -6 -19 -11 -22 -40 -16 -52 10 -145 -29 -208 -87 l-52 -47 -124 70
c-69 39 -174 98 -233 131 -84 48 -105 63 -95 72 15 14 236 151 362 225 49 29
108 65 130 81 50 35 53 35 61 7z m595 -73 c-22 -23 -40 -25 -40 -5 0 10 53 41
59 34 3 -2 -6 -15 -19 -29z m4284 -41 c51 -30 790 -452 1654 -943 l222 -126
-37 -16 c-21 -10 -73 -31 -116 -49 -222 -92 -472 -280 -658 -496 l-81 -94 -76
41 c-43 23 -156 88 -252 144 -96 56 -337 193 -535 305 -198 112 -495 280 -660
375 -165 94 -333 189 -372 209 -62 33 -71 41 -63 56 12 22 211 205 310 283 41
33 122 92 180 130 117 79 374 216 405 217 11 0 47 -16 79 -36z m-3294 -254
c69 -39 129 -75 133 -79 5 -5 -13 -21 -40 -36 -126 -73 -388 -231 -582 -352
-117 -74 -215 -132 -216 -131 -1 2 -17 31 -34 64 -41 78 -77 112 -175 167 -44
24 -82 49 -84 55 -4 14 118 95 458 300 l265 160 75 -38 c41 -21 131 -70 200
-110z m-992 74 c46 22 52 20 52 -18 0 -51 -54 -64 -97 -24 l-23 22 6 -50 c9
-67 23 -79 86 -77 l51 2 -72 -34 -73 -35 7 -64 c4 -38 3 -66 -3 -70 -5 -3 -54
21 -108 53 -55 32 -120 70 -146 85 -49 27 -53 37 -42 92 5 29 6 29 72 26 80
-5 118 12 153 67 l23 37 40 -14 c36 -12 45 -12 74 2z m-943 -186 c129 -72 235
-134 235 -137 0 -3 -18 -26 -39 -50 l-38 -44 -127 67 c-71 37 -160 87 -200
110 l-71 42 -3 72 c-2 40 0 72 2 72 3 0 112 -59 241 -132z m2721 28 c133 -73
559 -318 566 -325 4 -4 -5 -14 -20 -23 -27 -15 -29 -14 -254 116 -125 72 -270
155 -323 184 -93 52 -96 54 -79 73 9 10 20 19 24 19 4 0 43 -20 86 -44z
m-2176 -45 c32 -16 101 -54 152 -84 51 -30 114 -66 140 -81 l47 -26 -82 -83
c-136 -136 -251 -331 -328 -557 -18 -52 -33 -96 -34 -98 -7 -10 -74 35 -79 52
-34 142 -42 612 -13 729 9 37 24 81 32 97 14 27 79 80 98 80 4 0 35 -13 67
-29z m2119 -22 c171 -94 541 -312 541 -319 0 -5 -20 -32 -43 -62 -65 -79 -464
-601 -526 -688 -30 -41 -55 -76 -56 -78 -2 -2 -76 41 -165 94 l-163 98 29 25
c16 15 75 52 131 84 124 70 174 126 128 143 -8 3 -23 20 -33 38 -15 26 -34 38
-96 60 l-76 27 -73 -47 c-39 -26 -94 -65 -120 -87 -46 -38 -50 -39 -77 -26
l-30 14 39 70 c59 107 490 695 509 695 3 0 39 -19 81 -41z m-2316 -31 c-50
-64 -64 -288 -39 -620 9 -120 19 -223 21 -230 6 -15 124 -82 132 -75 2 3 11
31 19 63 54 206 210 490 336 610 86 83 93 86 148 62 l45 -20 -25 -16 c-97 -65
-185 -185 -281 -387 -58 -122 -139 -344 -139 -382 0 -27 59 -167 112 -263 94
-172 188 -284 265 -316 33 -14 37 -14 72 10 20 14 49 41 64 61 35 44 47 44 47
1 0 -63 41 -356 95 -686 108 -654 121 -759 136 -1075 16 -308 -2 -653 -59
-1150 l-18 -150 -57 -39 c-74 -51 -151 -60 -221 -27 -44 22 -45 23 -55 89 -61
380 -77 830 -41 1130 11 88 15 102 29 96 71 -29 117 -29 156 0 31 23 10 35
-35 20 -35 -12 -45 -12 -80 2 -22 9 -45 25 -51 35 -18 35 -279 727 -279 742 0
1 28 2 63 2 111 0 157 54 165 192 5 95 -15 173 -58 224 l-27 33 -150 -23 -149
-23 -85 42 c-91 46 -221 130 -283 183 l-38 34 11 224 c11 227 33 406 76 624
35 179 45 292 45 522 0 220 12 309 49 387 23 47 81 120 89 112 2 -3 0 -11 -5
-18z m1974 -35 c46 -27 83 -52 83 -56 0 -7 -172 -246 -270 -374 -39 -52 -90
-89 -298 -218 l-92 -57 -191 110 -191 110 88 57 c48 31 219 136 378 233 160
96 314 190 341 208 28 18 54 33 59 33 6 1 47 -20 93 -46z m-2122 -150 c-4 -10
-11 -148 -15 -308 -6 -200 -14 -317 -25 -378 -10 -48 -19 -86 -21 -84 -16 16
-36 183 -36 307 -2 198 30 379 78 458 17 26 29 29 19 5z m4205 -111 c96 -55
369 -208 605 -342 784 -441 1186 -673 1182 -679 -101 -187 -140 -314 -153
-503 -4 -54 -9 -98 -12 -98 -10 0 -260 137 -1367 748 -768 423 -700 382 -697
422 4 49 57 202 102 295 40 84 147 255 159 255 4 0 85 -44 181 -98z m-3312 33
c67 -48 145 -225 344 -785 43 -124 84 -229 89 -235 15 -15 10 29 -11 97 -19
60 -19 64 -2 76 27 21 208 121 257 143 52 23 57 36 18 45 -47 10 -72 22 -265
132 l-187 107 -31 80 c-18 44 -34 85 -37 92 -3 7 55 -23 129 -66 73 -43 210
-120 303 -171 94 -51 188 -104 209 -116 45 -26 49 -20 -46 -58 -45 -18 -48
-30 -10 -50 15 -8 41 -29 58 -48 108 -114 80 -225 -97 -393 -81 -76 -150 -126
-246 -174 -104 -52 -219 -41 -319 31 -124 89 -240 326 -339 691 -18 66 -41 79
-31 17 8 -52 70 -255 106 -349 16 -42 49 -111 73 -153 l44 -76 -66 -66 -67
-66 -44 29 c-87 58 -205 234 -285 422 l-45 106 20 69 c63 228 184 471 292 590
84 91 136 113 186 79z m2198 -163 c-14 -77 -33 -199 -43 -272 l-18 -133 -70
-46 c-387 -250 -550 -349 -557 -338 -18 28 -7 70 34 125 108 148 484 636 543
705 66 77 127 126 133 107 2 -5 -8 -72 -22 -148z m144 -105 c36 -22 173 -98
305 -170 132 -71 431 -235 665 -365 234 -129 827 -455 1319 -724 787 -431
1082 -594 1954 -1081 l198 -111 -3 -40 c-5 -62 -29 -59 -155 17 -142 86 -1480
822 -4108 2262 -148 81 -278 153 -288 159 -17 11 -17 39 0 98 5 21 7 20 113
-45z m-1406 -104 l-37 -66 23 -19 c13 -10 30 -22 38 -27 11 -7 7 -19 -23 -64
l-38 -57 -98 52 c-55 29 -98 56 -97 59 2 4 58 43 125 88 67 44 124 85 128 91
3 5 9 10 11 10 3 0 -11 -30 -32 -67z m320 16 c-16 -11 -46 -29 -66 -40 -21
-11 -38 -24 -38 -29 0 -18 41 -10 73 14 41 31 96 58 108 54 5 -2 -28 -28 -73
-58 -77 -52 -105 -80 -78 -80 7 0 33 17 59 39 50 41 96 69 90 54 -2 -6 -40
-39 -83 -74 -82 -67 -105 -93 -93 -105 4 -5 31 15 60 42 64 61 127 104 153
104 13 0 1 -13 -36 -38 -30 -20 -93 -74 -140 -119 -47 -45 -130 -115 -185
-156 l-99 -74 -20 26 c-11 14 -37 45 -59 67 l-39 42 35 11 c51 17 81 43 141
125 57 78 116 131 215 194 52 34 67 40 83 31 20 -11 19 -12 -8 -30z m1229
-141 l157 -89 -102 -63 c-57 -35 -233 -143 -393 -241 -401 -246 -399 -245
-408 -245 -5 0 -210 114 -225 125 -1 1 32 24 75 51 191 118 559 358 569 371 7
7 17 51 23 96 7 45 14 96 18 114 l5 32 62 -31 c33 -17 132 -71 219 -120z
m3561 76 c3 -9 6 -60 6 -113 l0 -98 -83 -22 c-106 -28 -265 -107 -393 -196
-110 -77 -282 -238 -351 -330 -43 -57 -113 -187 -113 -210 0 -15 76 -59 610
-358 250 -140 593 -332 762 -426 l307 -173 -6 -161 c-3 -89 -7 -164 -9 -165
-4 -6 -369 195 -892 492 -119 68 -347 194 -507 281 -159 87 -317 173 -349 193
l-59 35 6 101 c15 237 63 379 185 541 193 259 460 464 767 591 91 38 110 41
119 18z m-5576 -166 l173 -101 -123 -68 c-68 -38 -126 -69 -129 -69 -3 0 -11
15 -16 33 -6 17 -34 97 -62 176 -42 117 -48 142 -34 137 10 -4 96 -53 191
-108z m5689 -149 c151 -91 1130 -664 1288 -754 259 -147 338 -197 324 -207 -8
-5 -36 -21 -64 -35 -166 -86 -432 -262 -669 -442 -98 -75 -185 -141 -195 -148
-13 -10 -65 15 -321 158 -168 94 -326 184 -352 200 l-46 30 45 82 c62 112 124
197 207 285 94 99 179 161 319 233 64 33 117 64 117 70 0 15 -31 4 -137 -47
-216 -103 -421 -312 -541 -551 l-31 -61 -413 229 c-478 265 -536 298 -543 308
-5 10 37 89 88 166 54 81 231 255 342 338 131 98 369 212 452 216 7 1 65 -31
130 -70z m-3161 -46 c107 -59 194 -110 194 -114 0 -9 -874 -549 -889 -549 -34
0 -405 212 -389 222 7 4 209 129 448 277 239 148 437 270 439 270 2 1 91 -47
197 -106z m-1738 20 c193 -110 199 -115 204 -168 2 -25 2 -45 1 -45 -2 0 -81
44 -176 99 -94 54 -185 105 -201 113 l-28 15 33 26 c19 15 38 27 42 27 4 0 60
-30 125 -67z m1122 -775 c635 -357 1281 -721 1435 -808 154 -87 555 -308 890
-490 651 -355 856 -470 948 -532 l57 -39 0 -59 c0 -39 -4 -60 -12 -60 -6 0
-34 13 -62 29 -28 16 -233 132 -456 258 -223 127 -911 514 -1530 860 -1675
939 -2693 1512 -2705 1524 -7 7 4 22 34 48 l44 38 101 -60 c56 -33 621 -352
1256 -709z m1110 482 c69 -38 155 -87 193 -107 37 -20 67 -40 67 -44 0 -4 -51
-39 -112 -77 -126 -78 -654 -401 -734 -449 l-52 -31 -153 84 c-85 47 -173 94
-196 106 -24 12 -43 25 -43 29 0 9 126 90 445 286 257 158 445 271 455 272 3
1 62 -30 130 -69z m505 -276 c39 -20 128 -68 199 -107 l130 -71 -27 -20 c-29
-22 -325 -204 -678 -417 l-215 -130 -190 106 c-104 59 -192 109 -196 113 -7 8
202 143 547 354 287 176 338 206 350 207 6 1 42 -15 80 -35z m-2015 -875 c0
-820 7 -753 -77 -704 l-43 26 0 673 c0 370 3 700 6 733 l7 60 53 -29 54 -30 0
-729z m105 665 l25 -16 0 -657 0 -656 -37 -25 c-21 -14 -43 -29 -50 -33 -11
-6 -13 135 -13 714 l0 721 25 -16 c14 -9 36 -23 50 -32z m2620 -176 c61 -34
125 -69 143 -80 l33 -20 -38 -28 c-44 -33 -873 -540 -882 -540 -8 0 -230 121
-329 179 l-73 42 88 56 c140 89 514 321 678 420 l150 91 60 -30 c33 -17 110
-57 170 -90z m-5699 61 c21 -20 22 -25 17 -212 -2 -106 -6 -207 -9 -225 l-5
-33 -28 21 c-40 28 -61 87 -61 171 0 87 41 299 58 299 3 0 16 -9 28 -21z
m8808 -96 c3 -21 6 -615 6 -1320 l0 -1281 -107 -63 c-60 -34 -263 -155 -453
-269 -471 -281 -437 -263 -444 -244 -10 26 -6 2475 4 2519 5 24 20 50 37 63
84 71 409 308 543 397 136 90 383 235 401 235 3 0 9 -17 13 -37z m-8114 -115
c44 -71 57 -209 27 -281 -41 -98 -162 -102 -231 -9 -41 58 -88 191 -84 239 l3
36 109 19 c60 10 112 20 114 23 15 14 45 1 62 -27z m5547 -145 c145 -81 190
-110 180 -119 -21 -19 -734 -465 -859 -538 l-48 -28 -112 60 c-62 33 -153 83
-202 110 l-89 50 99 64 c332 215 806 507 824 507 8 1 101 -47 207 -106z
m-1997 -180 c85 -47 227 -127 315 -178 88 -51 387 -219 665 -373 278 -154 576
-320 662 -368 l158 -89 0 -392 c0 -260 -3 -393 -10 -393 -17 0 -266 136 -1095
598 -280 156 -594 333 -697 394 l-188 110 0 395 c0 372 1 395 18 389 9 -4 87
-46 172 -93z m2556 -130 c107 -60 194 -111 194 -114 0 -3 -91 -61 -202 -128
-112 -67 -318 -193 -458 -280 l-255 -159 -70 39 c-38 21 -130 71 -202 111 -73
40 -133 75 -133 78 0 7 144 99 403 258 376 229 500 302 515 302 8 0 102 -48
208 -107z m579 -317 c109 -62 201 -118 202 -123 5 -14 -898 -563 -925 -563
-10 0 -408 225 -425 240 -15 13 894 558 933 560 9 0 105 -51 215 -114z m307
-184 c7 -8 7 -16 2 -22 -13 -12 -475 -293 -644 -390 -80 -47 -176 -104 -215
-127 -38 -24 -74 -43 -80 -42 -5 0 -22 15 -38 34 l-27 33 102 57 c57 32 191
111 298 175 107 64 249 148 315 188 66 39 143 87 170 106 49 33 51 33 78 17
16 -9 33 -22 39 -29z m88 -51 l0 -50 -517 -311 c-469 -281 -519 -308 -527
-291 -12 27 1 91 19 91 8 0 45 20 82 44 37 24 149 90 248 146 203 117 642 385
665 406 24 23 30 16 30 -35z m4 -485 c4 -217 4 -665 0 -995 l-7 -601 -66 36
c-36 21 -284 159 -551 309 -267 149 -560 313 -652 365 l-168 93 0 388 c0 214
3 389 8 389 9 0 264 -139 329 -179 38 -24 51 -28 68 -19 38 20 569 335 795
472 124 75 228 136 231 136 3 0 9 -177 13 -394z m-1647 109 l43 -26 0 -764 c0
-421 -2 -765 -5 -765 -2 0 -25 10 -50 22 l-45 22 0 661 c0 364 -3 710 -7 768
-7 122 -6 122 64 82z m173 -800 l0 -700 -50 -28 -50 -28 0 756 0 756 50 -28
50 -28 0 -700z m-5932 151 c15 -8 38 -26 51 -40 14 -14 30 -26 38 -26 16 0 16
5 3 31 -10 18 -7 19 59 19 38 0 72 -4 75 -9 18 -29 -92 -98 -332 -205 -119
-54 -185 -60 -252 -26 -43 22 -43 23 -34 92 l6 46 52 -14 c117 -31 201 -8 260
73 20 26 36 54 36 61 0 15 5 15 38 -2z m1132 -426 c22 -11 40 -25 40 -30 0
-31 -310 -200 -433 -235 -67 -19 -112 -14 -169 18 l-38 21 0 67 0 67 64 -5
c54 -5 72 -2 120 20 32 15 69 36 83 47 14 11 31 20 38 20 7 0 35 -20 63 -45
27 -25 53 -45 56 -45 8 0 -5 31 -26 62 -10 14 -18 29 -18 32 0 14 38 4 55 -14
18 -20 45 -27 45 -12 0 4 -7 18 -16 30 -15 22 -15 22 41 22 36 0 70 -7 95 -20z"/>
<path d="M1642 6138 c2 -31 8 -44 21 -46 13 -3 17 3 17 23 0 31 -16 65 -31 65
-6 0 -9 -18 -7 -42z"/>
<path d="M5660 5907 c0 -7 51 -42 113 -77 61 -35 278 -157 480 -273 202 -115
371 -207 374 -204 3 3 2 10 -1 15 -13 22 -876 517 -948 545 -11 4 -18 2 -18
-6z"/>
<path d="M5528 5770 c-71 -38 -103 -115 -75 -182 43 -103 195 -95 256 13 26
46 26 85 1 127 -36 59 -115 77 -182 42z m137 -43 c53 -45 29 -130 -48 -170
-31 -16 -42 -17 -72 -7 -44 15 -65 44 -65 93 0 31 7 46 34 73 29 29 41 34 79
34 33 0 53 -6 72 -23z"/>
<path d="M5869 5551 c-100 -63 -107 -188 -13 -227 47 -20 83 -17 129 9 130 73
107 247 -32 247 -26 0 -54 -10 -84 -29z"/>
<path d="M6265 5368 c-79 -28 -132 -100 -121 -166 7 -44 31 -69 81 -87 33 -11
45 -10 79 2 51 17 102 66 117 110 29 88 -65 173 -156 141z"/>
<path d="M3388 5672 c-14 -15 -58 -69 -97 -120 -40 -51 -81 -102 -92 -113 -39
-39 -27 -53 119 -135 75 -42 173 -97 217 -122 l79 -45 39 44 c61 69 197 250
197 263 0 11 -143 95 -371 220 l-65 36 -26 -28z m232 -114 c102 -56 191 -105
197 -111 14 -10 -68 -123 -162 -225 l-51 -55 -79 50 c-44 27 -129 75 -190 107
-60 32 -115 63 -122 68 -17 14 185 281 207 273 8 -3 98 -52 200 -107z"/>
<path d="M7677 4602 c-92 -50 -168 -112 -229 -185 -55 -67 -122 -195 -116
-224 2 -9 24 -33 50 -53 63 -47 229 -140 250 -140 10 0 53 45 100 103 109 135
214 237 304 295 40 26 74 50 74 54 0 13 -329 188 -353 188 -7 0 -43 -17 -80
-38z m226 -63 c175 -88 168 -81 110 -120 -70 -48 -204 -180 -295 -291 -43 -54
-81 -98 -84 -98 -2 0 -37 16 -76 36 -110 55 -198 114 -198 132 0 34 74 164
128 223 67 74 222 179 265 179 16 0 83 -28 150 -61z"/>
<path d="M7482 4198 c2 -6 10 -14 16 -16 7 -2 10 2 6 12 -7 18 -28 22 -22 4z"/>
<path d="M8620 4059 c-84 -48 -177 -126 -237 -198 -60 -74 -107 -160 -98 -183
15 -38 281 -204 312 -194 10 3 52 44 93 92 94 107 162 166 273 239 49 31 86
62 85 67 -7 19 -338 208 -364 208 -5 0 -34 -14 -64 -31z m215 -75 c201 -110
191 -92 88 -162 -98 -67 -165 -129 -269 -245 l-69 -78 -138 90 c-75 50 -137
96 -137 102 0 24 64 122 118 180 56 61 145 129 217 168 22 11 42 21 45 21 3 0
68 -34 145 -76z"/>
<path d="M8745 3980 c-4 -7 -1 -16 6 -21 17 -10 26 8 11 23 -6 6 -12 6 -17 -2z"/>
<path d="M8710 3725 c0 -8 5 -15 10 -15 6 0 10 7 10 15 0 8 -4 15 -10 15 -5 0
-10 -7 -10 -15z"/>
<path d="M8430 3716 c0 -9 7 -16 16 -16 17 0 14 22 -4 28 -7 2 -12 -3 -12 -12z"/>
<path d="M4362 1726 c-100 -57 -196 -109 -212 -116 l-30 -12 0 -109 0 -109 38
-24 c21 -13 75 -42 120 -65 l82 -41 0 -93 0 -93 153 -86 c178 -100 311 -168
330 -168 13 0 257 138 350 197 l37 24 -2 206 -3 206 -60 37 c-109 67 -200 114
-187 98 15 -19 15 -20 -185 -129 -81 -44 -153 -86 -160 -92 -9 -9 13 -26 97
-72 l110 -60 0 -92 c0 -61 -4 -93 -11 -93 -6 0 -46 20 -88 44 -42 24 -139 79
-216 123 l-140 81 -5 93 c-3 52 -9 92 -13 90 -5 -2 -56 22 -113 55 -80 45
-101 61 -91 70 13 13 207 121 323 181 l71 37 107 -59 c58 -33 106 -62 106 -65
0 -3 -73 -45 -162 -94 -232 -127 -227 -123 -203 -132 11 -4 25 -9 30 -12 6 -3
4 1 -2 8 -10 11 9 25 105 76 64 34 148 80 186 102 l70 40 48 -24 c26 -13 48
-23 48 -20 0 4 -307 182 -330 190 -9 4 -94 -39 -198 -98z m-103 -220 l103 -59
-7 -81 c-4 -45 -9 -83 -11 -85 -4 -4 -180 84 -201 102 -9 6 -13 39 -13 99 0
67 3 89 13 86 6 -2 59 -30 116 -62z m858 -12 c45 -24 84 -48 87 -53 5 -8 -203
-136 -299 -184 l-50 -25 -104 56 c-75 40 -101 58 -90 64 182 107 347 196 359
192 8 -3 52 -25 97 -50z m93 -166 l0 -83 -48 -26 c-26 -14 -103 -58 -172 -98
l-125 -72 -3 77 c-2 54 1 81 10 90 7 6 72 44 143 84 72 40 141 81 155 91 14
10 28 19 33 19 4 0 7 -37 7 -82z m-736 -117 c44 -26 142 -81 216 -122 74 -40
138 -78 142 -84 9 -12 11 -175 2 -175 -8 0 -279 143 -400 212 l-51 28 -5 77
c-5 73 -2 113 9 113 3 0 42 -22 87 -49z m736 -81 l0 -89 -42 -29 c-24 -16 -90
-55 -148 -87 -58 -32 -117 -66 -132 -76 -14 -11 -28 -19 -31 -19 -8 0 1 194 9
197 5 2 79 46 164 98 85 52 161 94 168 94 9 1 12 -23 12 -89z"/>
<path d="M4920 1616 c0 -3 9 -10 20 -16 11 -6 20 -8 20 -6 0 3 -9 10 -20 16
-11 6 -20 8 -20 6z"/>
</g>
</svg>
