<?xml version="1.0" standalone="no"?>
<!DOCTYPE svg PUBLIC "-//W3C//DTD SVG 20010904//EN"
 "http://www.w3.org/TR/2001/REC-SVG-20010904/DTD/svg10.dtd">
<svg version="1.0" xmlns="http://www.w3.org/2000/svg"
 width="1024.000000pt" height="1024.000000pt" viewBox="0 0 1024.000000 1024.000000"
 preserveAspectRatio="xMidYMid meet">

<g transform="translate(0.000000,1024.000000) scale(0.100000,-0.100000)"
fill="#e0e0e0" stroke="none">
<path d="M4884 8945 c-43 -22 -386 -256 -939 -641 -88 -61 -172 -119 -186
-128 l-27 -17 -78 113 c-227 329 -309 412 -345 346 -27 -50 6 -260 67 -423 4
-11 -38 24 -94 77 -188 180 -292 208 -292 80 0 -45 20 -85 163 -325 94 -159
98 -169 81 -182 -11 -8 -22 -13 -25 -12 -3 1 -64 65 -136 142 -125 135 -207
212 -266 250 -23 14 -32 15 -56 6 -30 -13 -51 -48 -51 -84 1 -62 88 -213 200
-344 53 -62 88 -128 76 -141 -11 -10 -75 39 -214 165 -84 77 -180 156 -215
176 -97 58 -157 48 -157 -26 0 -15 58 -111 145 -241 134 -201 161 -255 136
-270 -4 -3 -19 6 -32 21 -57 62 -257 238 -322 284 -58 40 -78 49 -114 49 -49
0 -83 -26 -83 -62 0 -38 39 -104 146 -251 57 -78 112 -158 121 -179 28 -57 59
-58 145 -2 39 25 94 63 124 85 29 21 59 39 66 39 7 0 28 -15 48 -34 66 -63
283 -236 297 -236 7 0 13 4 13 10 0 5 -72 71 -160 147 -88 75 -160 140 -160
143 0 3 64 46 141 95 78 50 147 94 154 99 9 7 50 -22 139 -95 190 -156 207
-169 223 -169 30 0 2 29 -155 160 l-162 135 24 21 c34 30 263 174 276 174 6 0
86 -61 177 -136 123 -100 169 -132 177 -124 13 14 -44 69 -206 197 -60 47
-108 88 -108 92 0 6 66 51 212 144 l78 50 142 -115 c206 -165 217 -173 229
-161 8 8 -42 54 -160 151 l-171 141 103 74 c56 40 240 167 409 283 169 115
379 257 465 317 152 103 200 126 240 113 10 -3 428 -314 928 -691 501 -377
1198 -900 1550 -1163 591 -441 1324 -999 1860 -1417 121 -94 330 -254 464
-356 134 -101 249 -188 256 -194 22 -19 35 -54 35 -98 0 -43 -1 -44 -77 -99
-349 -248 -2937 -2039 -3928 -2718 -203 -139 -435 -299 -515 -355 -235 -164
-283 -190 -286 -155 -1 8 -2 21 -3 28 -1 8 -8 11 -19 8 -27 -9 28 -50 -2252
1708 -1924 1484 -2688 2075 -2784 2154 l-78 66 4 58 c3 41 10 65 24 78 34 33
1147 780 1162 780 17 0 88 -52 213 -156 85 -70 172 -134 183 -134 27 0 -18 45
-154 156 -88 71 -158 134 -157 141 1 6 69 61 152 121 l149 110 89 -77 c251
-214 277 -233 277 -197 0 7 -75 75 -166 150 l-166 138 137 91 c75 51 142 96
149 101 13 9 131 -81 290 -221 44 -39 86 -56 86 -34 0 5 -75 71 -166 147 -143
119 -164 140 -149 149 10 5 74 47 143 93 68 45 129 82 134 82 12 0 61 -37 203
-155 109 -90 145 -114 145 -94 0 14 -24 37 -182 172 -76 65 -138 125 -138 132
0 8 -9 15 -20 15 -11 0 -68 42 -128 93 -205 178 -308 247 -369 247 -30 0 -63
-34 -63 -63 0 -33 60 -152 138 -274 38 -60 82 -132 98 -161 27 -50 28 -54 11
-66 -16 -12 -33 2 -165 133 -167 167 -253 231 -313 231 -28 0 -41 -5 -49 -19
-27 -52 -5 -116 110 -316 35 -60 74 -135 87 -165 50 -120 27 -109 -163 79
-209 207 -291 255 -330 196 -25 -39 -13 -84 91 -333 52 -125 92 -228 90 -230
-2 -3 -19 1 -36 7 -22 8 -36 8 -43 1 -5 -5 -13 -10 -18 -10 -4 0 -48 53 -98
118 -154 198 -241 275 -272 244 -18 -18 -21 -105 -8 -194 10 -68 58 -273 85
-364 7 -23 0 -28 -617 -445 -265 -178 -289 -197 -300 -232 -9 -28 -8 -92 0
-270 7 -127 16 -244 20 -259 9 -35 125 -126 2082 -1632 228 -176 685 -529
1015 -786 330 -256 704 -545 830 -641 331 -253 893 -680 1014 -772 120 -91
152 -107 218 -107 60 0 127 31 224 102 41 30 679 469 1419 975 1092 747 2774
1908 3066 2117 l62 44 11 83 c36 265 41 440 15 477 -19 27 -160 141 -370 299
-88 66 -243 185 -345 264 -189 147 -2038 1546 -3329 2519 -399 301 -791 596
-871 657 -137 103 -188 133 -229 133 -9 0 -38 -11 -66 -25z m-1358 -556 c155
-220 167 -238 160 -254 -5 -13 -15 -15 -48 -10 -53 8 -128 -8 -141 -30 -8 -15
-10 -15 -28 1 -54 49 -146 387 -131 484 l5 34 51 -55 c28 -30 87 -107 132
-170z m-379 -45 c62 -51 257 -231 312 -287 l43 -45 -47 -28 -47 -27 -43 23
c-59 32 -75 23 -75 -42 0 -64 -9 -57 -65 47 -21 39 -62 104 -91 147 -70 98
-104 172 -104 224 l0 42 35 -8 c20 -4 56 -25 82 -46z m-195 -299 c72 -71 152
-155 179 -186 l49 -57 -27 -17 c-24 -16 -28 -16 -53 -1 -26 15 -29 15 -54 -9
-23 -21 -25 -28 -16 -46 20 -37 0 -34 -33 5 -184 219 -287 412 -247 461 20 24
57 -4 202 -150z m-418 -80 c31 -19 85 -57 119 -86 96 -79 259 -240 251 -248
-4 -3 -9 0 -11 7 -6 16 -38 15 -52 -2 -10 -11 -8 -16 6 -24 10 -6 14 -14 10
-18 -4 -5 -20 5 -34 20 -25 27 -27 28 -40 10 -7 -10 -23 -19 -36 -19 -24 0
-27 -16 -14 -67 13 -50 -10 -29 -57 51 -26 43 -81 127 -122 187 -90 128 -137
208 -127 217 14 15 52 5 107 -28z m-289 -194 c56 -25 181 -127 295 -239 94
-93 95 -94 70 -105 -14 -6 -28 -15 -31 -20 -4 -5 -18 -2 -32 8 -14 9 -38 15
-54 13 -26 -3 -28 -7 -33 -53 l-5 -50 -50 58 c-63 74 -155 202 -207 289 -30
51 -39 74 -34 93 8 30 26 31 81 6z m-300 -200 c58 -26 190 -128 299 -231 l95
-89 -25 -20 c-24 -19 -27 -19 -60 -3 -54 25 -81 -3 -63 -68 2 -8 -3 -15 -11
-15 -10 0 -17 14 -21 43 -7 52 -22 70 -43 53 -13 -11 -13 -18 0 -59 9 -26 18
-55 21 -64 3 -11 0 -18 -8 -18 -15 0 -231 355 -257 421 -26 68 -2 85 73 50z
m-152 -320 c113 -106 207 -206 207 -221 0 -12 -4 -12 -54 0 -58 13 -80 -2 -73
-50 6 -50 -2 -57 -24 -20 -11 17 -27 30 -39 30 -24 0 -25 -9 -5 -36 17 -22 19
-50 5 -59 -6 -4 -22 19 -37 51 -14 32 -59 114 -98 183 -92 160 -119 223 -111
256 l7 26 59 -32 c33 -17 106 -75 163 -128z m-424 -105 c77 -58 311 -288 311
-305 0 -10 -10 -12 -40 -7 -35 5 -44 3 -65 -18 -14 -14 -25 -35 -25 -48 0 -13
-5 -30 -10 -38 -12 -20 -26 -5 -37 40 -11 41 -43 55 -43 18 0 -13 7 -44 15
-70 8 -28 10 -50 5 -53 -14 -9 -45 48 -87 155 -20 52 -54 138 -76 190 -22 52
-42 117 -45 144 -5 47 -4 48 19 41 13 -4 48 -26 78 -49z m-263 -292 c54 -63
122 -146 152 -185 50 -64 52 -69 28 -63 -32 8 -53 -8 -61 -46 -6 -26 -10 -29
-48 -27 -38 2 -43 -1 -62 -35 -38 -71 -47 -54 -95 161 -51 224 -59 328 -25
315 7 -3 57 -57 111 -120z m518 -63 c3 -4 -3 -16 -14 -26 -19 -17 -20 -17 -20
2 0 29 22 45 34 24z m-967 -1602 c457 -359 1438 -1115 3436 -2649 1175 -902
1120 -861 1136 -855 10 4 11 2 3 -8 -13 -15 -4 -31 21 -40 10 -4 17 -17 17
-31 0 -13 7 -26 15 -30 14 -5 16 -2 19 43 1 8 26 27 56 44 30 16 92 54 137 86
343 235 4048 2797 4378 3027 105 72 191 130 193 129 5 -4 -28 -337 -34 -347
-3 -4 -39 -31 -82 -61 -731 -510 -2907 -2011 -3687 -2542 -330 -225 -652 -446
-716 -491 -189 -135 -239 -153 -320 -117 -24 11 -348 253 -719 538 -1464 1124
-1730 1328 -2405 1850 -385 298 -909 703 -1165 900 -256 197 -533 412 -616
477 l-152 119 -6 127 c-4 70 -9 149 -12 176 -5 41 -4 47 9 40 9 -5 231 -178
494 -385z"/>
<path d="M4809 8732 c-168 -56 -241 -194 -173 -330 78 -156 326 -210 496 -108
176 105 149 332 -49 423 -75 34 -195 41 -274 15z m181 -27 c105 -14 190 -82
216 -172 8 -29 12 -62 9 -74 -6 -19 -10 -17 -54 24 -99 93 -259 118 -384 59
-38 -17 -75 -43 -88 -61 -12 -17 -26 -31 -31 -31 -4 0 -8 24 -8 53 0 61 27
113 79 151 49 36 148 67 196 60 11 -2 40 -5 65 -9z m63 -191 c56 -19 127 -81
127 -111 0 -76 -161 -143 -294 -122 -104 17 -196 78 -196 130 0 39 53 86 125
109 70 23 161 21 238 -6z"/>
<path d="M5375 8246 c-44 -37 -282 -206 -1536 -1088 -466 -328 -956 -671
-1090 -763 -134 -92 -253 -176 -264 -187 -20 -19 -20 -20 25 -60 25 -22 151
-119 280 -216 129 -98 642 -485 1138 -862 1405 -1065 1584 -1200 1594 -1200
12 0 162 103 428 294 179 128 1088 756 1795 1241 520 356 710 488 733 508 32
30 27 57 -17 94 -57 47 -559 428 -1571 1192 -1253 945 -1437 1081 -1461 1081
-8 -1 -32 -16 -54 -34z m808 -815 c384 -289 959 -722 1277 -961 317 -239 597
-451 620 -470 l43 -36 -109 -75 c-119 -83 -1485 -1023 -1719 -1183 -117 -80
-148 -97 -158 -87 -10 10 -6 17 18 36 l29 24 -23 25 c-13 14 -41 37 -62 51
-51 36 -55 52 -19 73 25 14 30 23 28 47 -3 26 -9 32 -50 44 -48 15 -58 27 -36
49 9 9 7 13 -7 18 -12 5 -23 1 -32 -12 -20 -28 -8 -80 33 -135 19 -26 34 -54
34 -63 0 -9 20 -31 45 -48 50 -35 55 -47 24 -55 -21 -6 -22 -12 -4 -78 6 -24
10 -20 -339 -262 -140 -98 -253 -170 -260 -166 -20 13 -284 214 -1191 908
-490 375 -971 742 -1070 817 -214 161 -359 276 -363 287 -3 8 162 126 678 483
124 86 596 417 1050 736 721 507 827 579 845 569 11 -5 334 -247 718 -536z
m-105 -2543 c19 -19 14 -38 -9 -38 -29 0 -59 18 -59 35 0 18 51 20 68 3z"/>
<path d="M4971 7484 c-27 -34 -26 -42 3 -85 30 -44 106 -96 152 -105 81 -15
113 62 54 130 -36 40 -121 86 -161 86 -18 0 -35 -9 -48 -26z m104 -23 c75 -34
129 -131 73 -131 -34 0 -102 45 -132 89 -42 61 -19 78 59 42z"/>
<path d="M5855 7449 c-22 -17 -121 -88 -220 -157 -99 -69 -484 -340 -855 -602
-371 -262 -736 -519 -810 -570 -195 -135 -385 -280 -385 -293 0 -15 129 -120
420 -339 132 -100 429 -329 660 -508 503 -390 773 -594 800 -604 41 -15 -30
47 -210 182 -285 215 -511 388 -633 485 -90 71 -110 92 -101 103 6 7 51 43 99
79 l88 65 128 -61 c250 -118 384 -170 384 -150 0 18 -185 220 -505 551 -77 80
-156 163 -175 184 l-35 39 60 -33 c33 -19 89 -52 125 -75 127 -81 349 -214
398 -239 l50 -26 78 134 77 134 272 -139 c149 -76 280 -139 289 -139 21 0 -13
40 -255 301 -373 402 -490 529 -486 529 2 0 101 -66 218 -146 118 -81 259
-175 313 -210 l100 -63 37 30 c50 39 126 124 169 187 19 28 38 52 41 52 4 0
65 -34 135 -76 148 -87 318 -179 352 -189 21 -6 22 -5 14 12 -13 22 -135 161
-440 497 -130 144 -246 272 -257 285 -22 26 55 -22 350 -219 105 -70 208 -138
231 -153 l41 -25 56 36 55 37 7 93 c4 52 5 143 3 202 l-4 109 60 -6 c34 -3 63
-7 65 -9 4 -4 109 49 135 69 12 9 15 16 8 21 -5 3 -41 -10 -78 -30 -66 -35
-68 -35 -129 -25 -34 6 -67 11 -73 11 -9 0 -12 -56 -12 -209 l0 -208 -40 -27
c-22 -14 -45 -26 -51 -26 -11 0 -224 137 -529 340 -183 122 -245 159 -239 141
2 -5 58 -68 124 -138 130 -139 589 -650 626 -698 13 -16 19 -26 14 -23 -6 3
-73 41 -150 85 -77 44 -174 101 -215 126 l-75 46 -30 -57 c-29 -56 -181 -222
-203 -222 -12 0 -616 402 -696 463 -48 36 -66 45 -66 30 0 -11 102 -124 472
-523 180 -195 326 -355 324 -357 -2 -2 -82 38 -177 88 -242 128 -309 162 -313
158 -2 -2 -38 -63 -81 -136 l-79 -132 -45 27 c-89 51 -478 290 -595 365 -66
42 -122 75 -124 72 -7 -6 -17 5 353 -385 170 -179 338 -356 373 -393 36 -37
62 -70 59 -73 -3 -3 -78 29 -168 71 -90 42 -189 88 -221 102 l-56 25 -57 -47
c-32 -26 -82 -63 -111 -82 -60 -40 -47 -43 -139 33 -27 23 -207 160 -400 304
-192 145 -358 270 -367 279 -16 15 -10 21 90 95 58 44 190 138 292 210 102 71
376 265 610 431 234 166 594 420 800 565 434 304 492 348 485 361 -8 12 -4 13
-50 -22z"/>
<path d="M4809 7377 c-29 -22 -32 -54 -8 -97 24 -42 105 -105 152 -116 32 -7
72 15 82 45 9 29 -22 87 -64 120 -74 58 -128 74 -162 48z m100 -42 c67 -34
112 -135 61 -135 -33 0 -75 26 -114 72 -46 53 -47 78 -6 78 17 0 44 -7 59 -15z"/>
<path d="M4665 7246 c-14 -20 -14 -29 -4 -47 28 -53 86 -77 144 -61 36 10 43
34 20 68 -40 62 -131 84 -160 40z m99 -27 c30 -23 35 -59 9 -59 -30 0 -83 38
-83 60 0 27 39 27 74 -1z"/>
<path d="M4537 7172 c-23 -25 -21 -46 7 -79 21 -24 31 -28 80 -28 44 0 60 -5
78 -22 19 -20 20 -23 5 -29 -9 -3 -17 -10 -17 -15 0 -12 47 -12 54 0 3 5 26
18 52 30 36 17 45 26 42 43 -4 25 -28 37 -28 14 0 -15 -29 -36 -50 -36 -7 0
-40 27 -74 59 -53 52 -98 81 -125 81 -4 0 -15 -8 -24 -18z m63 -27 c37 -19 41
-55 7 -55 -29 0 -47 18 -47 47 0 27 2 28 40 8z"/>
<path d="M4238 6935 c-17 -37 6 -80 67 -126 68 -51 111 -64 142 -44 37 25 30
62 -20 110 -48 45 -120 85 -155 85 -14 0 -27 -9 -34 -25z m122 -45 c35 -25 70
-68 70 -86 0 -24 -45 -16 -87 15 -46 34 -73 67 -73 93 0 14 5 15 30 8 16 -5
43 -18 60 -30z"/>
<path d="M4136 6875 c-20 -31 -14 -60 11 -51 25 10 125 -91 117 -117 -4 -11
-1 -23 7 -28 14 -8 69 16 69 31 0 5 -32 35 -70 66 -49 39 -72 66 -78 88 -11
40 -34 44 -56 11z"/>
<path d="M3991 6758 c-10 -27 -6 -38 16 -38 8 0 44 -23 78 -51 47 -38 61 -55
58 -70 -7 -25 13 -25 55 1 28 17 32 23 22 35 -7 8 -20 15 -30 15 -15 0 -68 36
-167 113 -23 18 -23 18 -32 -5z"/>
<path d="M3890 6632 c0 -19 132 -122 157 -122 27 0 11 20 -61 74 -71 53 -96
66 -96 48z"/>
<path d="M3325 6397 c-90 -30 -142 -73 -169 -139 -34 -81 -9 -168 65 -231 109
-93 310 -87 411 12 131 131 8 356 -200 367 -39 2 -84 -2 -107 -9z m215 -48
c24 -13 57 -41 74 -62 28 -35 31 -45 31 -110 0 -90 -21 -124 -101 -163 -98
-48 -237 -31 -313 39 -53 49 -76 149 -47 205 22 42 68 81 122 103 68 27 174
22 234 -12z"/>
<path d="M3306 6307 c-57 -32 -81 -69 -81 -125 0 -62 32 -107 99 -138 167 -78
352 62 266 202 -48 77 -199 110 -284 61z m156 -7 c52 -15 96 -54 107 -98 15
-52 -10 -100 -69 -130 -106 -55 -240 12 -240 118 0 46 23 78 74 101 47 21 76
23 128 9z"/>
<path d="M3367 6223 c-4 -3 -7 -20 -7 -36 l0 -30 23 21 c30 28 50 28 70 0 13
-19 18 -20 26 -9 13 20 3 41 -26 52 -28 11 -77 12 -86 2z"/>
<path d="M7273 6177 c-105 -73 -206 -144 -224 -159 l-34 -28 40 -36 c86 -77
67 -80 238 37 84 57 187 126 229 154 42 27 77 52 77 55 1 5 -103 91 -124 103
-6 3 -97 -54 -202 -126z"/>
<path d="M3755 6070 c-3 -5 -45 -42 -93 -82 -87 -72 -102 -86 -102 -100 0 -13
16 -9 39 11 12 10 62 49 111 87 50 37 90 74 90 81 0 15 -36 18 -45 3z"/>
<path d="M7572 5989 c-26 -10 -39 -53 -22 -73 16 -20 65 -29 89 -17 64 35 4
116 -67 90z m57 -28 c24 -15 5 -43 -26 -39 -20 2 -29 9 -31 26 -3 17 1 22 20
22 13 0 29 -4 37 -9z"/>
<path d="M6751 5817 l-193 -131 43 -38 c90 -79 74 -80 202 5 141 92 267 185
267 196 0 10 -109 102 -119 100 -3 -1 -93 -60 -200 -132z"/>
<path d="M7362 5834 c-55 -38 6 -104 75 -80 34 11 42 55 13 78 -27 22 -58 23
-88 2z m59 -14 c38 -21 13 -65 -28 -49 -34 12 -30 49 5 58 2 1 12 -4 23 -9z"/>
<path d="M6427 5596 c-41 -30 -137 -96 -213 -146 -105 -71 -323 -222 -384
-267 -4 -4 8 -15 91 -83 l36 -30 39 28 c22 16 120 84 219 151 280 192 405 283
405 295 0 10 -13 22 -96 88 -21 17 -24 16 -97 -36z"/>
<path d="M7070 5620 c-11 -11 -20 -24 -20 -30 0 -19 40 -50 65 -50 25 0 65 31
65 50 0 19 -40 50 -65 50 -14 0 -34 -9 -45 -20z m65 -14 c20 -14 15 -46 -8
-46 -24 0 -48 25 -41 43 7 21 24 22 49 3z"/>
<path d="M6850 5470 c-26 -26 -25 -34 6 -59 44 -35 104 -21 104 24 0 49 -73
72 -110 35z m68 -9 c18 -11 11 -45 -9 -49 -22 -4 -50 25 -43 43 7 17 32 19 52
6z"/>
<path d="M6605 5314 c-27 -27 -15 -57 29 -72 33 -11 42 -10 62 3 13 9 24 24
24 34 0 44 -81 69 -115 35z m80 -29 c0 -13 -8 -21 -24 -23 -28 -4 -46 11 -37
33 9 25 61 16 61 -10z"/>
<path d="M6393 5174 c-17 -26 -16 -27 11 -50 15 -13 38 -24 52 -24 24 0 64 31
64 50 0 23 -41 50 -75 50 -26 0 -39 -6 -52 -26z m87 -10 c21 -24 -8 -48 -43
-35 -29 11 -30 12 -21 35 8 20 48 21 64 0z"/>
<path d="M5707 5097 l-57 -41 -56 28 c-30 15 -57 26 -59 24 -14 -14 212 -173
260 -183 l30 -6 -23 20 -22 19 61 37 c50 31 58 40 47 50 -26 26 -113 95 -118
94 -3 0 -31 -19 -63 -42z"/>
<path d="M6183 5028 c-12 -6 -24 -17 -28 -26 -8 -21 20 -60 47 -64 29 -5 74
16 82 38 14 37 -58 74 -101 52z m70 -27 c4 -4 5 -15 1 -24 -8 -21 -47 -22 -64
-2 -27 33 30 56 63 26z"/>
<path d="M5556 4991 c-3 -5 -54 -42 -113 -82 -60 -39 -139 -95 -176 -122 l-68
-50 43 -44 c69 -71 63 -71 185 8 108 72 273 189 273 194 0 7 -122 105 -130
105 -5 0 -11 -4 -14 -9z"/>
<path d="M5882 4868 c-16 -16 -15 -73 1 -85 34 -27 97 -20 97 12 0 15 -62 85
-77 85 -5 0 -14 -5 -21 -12z m50 -45 c23 -21 23 -33 0 -33 -21 0 -42 18 -42
37 0 18 20 16 42 -4z"/>
<path d="M5722 4698 c-22 -22 -14 -57 18 -73 16 -8 38 -15 48 -15 22 0 52 30
52 53 0 37 -89 64 -118 35z m72 -14 c19 -7 21 -40 4 -47 -23 -8 -58 12 -58 33
0 20 22 26 54 14z"/>
<path d="M6004 4648 c-4 -6 4 -21 20 -35 46 -39 62 -26 25 21 -22 28 -34 32
-45 14z"/>
<path d="M1845 6051 c-66 -48 -244 -176 -395 -283 -151 -108 -291 -210 -310
-226 l-35 -30 25 -27 c14 -15 88 -75 165 -133 77 -58 273 -208 435 -332 162
-124 369 -282 460 -350 91 -67 189 -143 218 -168 48 -40 56 -43 78 -33 13 6
151 104 307 219 155 114 331 243 390 286 60 44 111 85 114 93 7 18 -6 33 -117
128 -113 97 -259 213 -757 603 -361 283 -439 342 -452 342 -3 -1 -60 -40 -126
-89z m177 16 c220 -169 1137 -894 1202 -950 21 -19 36 -39 32 -45 -3 -5 -51
-43 -107 -82 -87 -62 -104 -71 -122 -62 -12 6 -240 180 -507 387 -267 208
-554 429 -639 493 l-154 116 28 21 27 22 65 -43 c35 -24 70 -44 76 -44 7 0 37
17 67 38 76 51 78 77 13 137 -56 52 -44 60 19 12z m-37 -44 l37 -38 -29 -22
c-45 -36 -77 -38 -128 -8 -25 14 -45 28 -45 30 0 8 105 75 117 75 7 0 28 -17
48 -37z m65 -391 c140 -108 338 -262 440 -342 102 -80 232 -181 290 -225 87
-65 171 -131 213 -166 5 -4 -28 -34 -72 -68 l-81 -62 -66 53 c-37 29 -331 251
-653 494 -322 242 -586 446 -586 452 0 7 36 39 80 71 l80 60 50 -36 c27 -20
165 -124 305 -231z m-480 48 c25 -20 293 -223 595 -450 303 -228 571 -430 597
-451 l47 -37 -142 -104 c-78 -58 -154 -112 -168 -122 l-26 -16 -269 203 c-588
443 -1046 797 -1042 807 2 4 73 59 158 123 175 129 154 125 250 47z"/>
<path d="M2160 5879 c-99 -59 -115 -108 -52 -157 98 -76 122 -77 197 -9 41 37
46 46 37 63 -15 28 -118 124 -134 124 -7 0 -29 -10 -48 -21z m99 -61 c28 -23
51 -45 51 -49 0 -5 -21 -24 -46 -43 l-46 -35 -42 28 c-22 16 -49 38 -59 49
-18 20 -18 21 30 56 26 20 51 36 54 36 4 0 29 -19 58 -42z"/>
<path d="M2465 5628 c-55 -28 -85 -57 -85 -83 0 -27 64 -89 111 -109 33 -14
39 -13 78 6 23 11 56 34 72 51 l30 30 -33 34 c-32 33 -115 93 -127 93 -3 -1
-24 -10 -46 -22z m108 -57 c26 -22 48 -43 49 -48 0 -4 -23 -20 -51 -36 l-51
-29 -33 20 c-18 12 -43 32 -55 45 l-23 24 47 32 c26 17 52 31 58 31 6 0 33
-18 59 -39z"/>
<path d="M2732 5386 c-33 -25 -62 -49 -66 -54 -9 -14 49 -88 95 -122 l42 -30
39 23 c42 23 98 80 98 99 0 16 -83 94 -119 112 -29 15 -31 15 -89 -28z m139
-53 l40 -36 -52 -34 c-58 -40 -71 -38 -128 21 l-31 32 48 36 c53 40 58 39 123
-19z"/>
<path d="M3024 5168 c-29 -20 -50 -42 -52 -55 -4 -27 46 -85 93 -108 34 -15
38 -15 67 2 17 10 40 30 51 45 18 23 18 30 7 57 -11 26 -89 91 -111 91 -4 0
-29 -15 -55 -32z m107 -45 l41 -37 -33 -28 c-18 -15 -38 -28 -44 -28 -5 0 -30
17 -54 38 l-45 39 39 26 c22 15 43 27 47 27 4 0 26 -17 49 -37z"/>
<path d="M1342 5614 c-93 -62 -92 -107 5 -172 63 -42 82 -39 148 21 50 45 61
81 34 114 -20 23 -100 73 -119 73 -8 0 -39 -16 -68 -36z m130 -42 c26 -24 38
-43 34 -51 -11 -18 -87 -71 -101 -71 -17 0 -95 69 -95 85 0 15 86 75 107 75 8
0 32 -17 55 -38z"/>
<path d="M1665 5423 c-46 -24 -95 -75 -95 -98 0 -22 58 -84 97 -104 42 -21 99
-6 151 42 46 43 19 118 -59 157 -46 24 -55 24 -94 3z m93 -53 c51 -37 53 -61
9 -94 -48 -37 -80 -33 -129 12 l-41 39 48 36 c26 21 53 37 60 37 7 0 31 -14
53 -30z"/>
<path d="M1955 5203 c-91 -48 -110 -109 -51 -161 19 -16 51 -35 70 -42 33 -11
41 -9 81 14 54 32 75 61 75 101 0 36 -24 67 -67 89 -40 20 -69 20 -108 -1z
m110 -54 c19 -17 35 -37 35 -44 0 -7 -21 -27 -47 -44 -51 -34 -72 -34 -111 3
-46 41 -46 53 -1 86 53 38 79 38 124 -1z"/>
<path d="M2218 4976 c-89 -53 -98 -84 -43 -145 32 -35 89 -71 112 -71 20 0
104 64 117 89 21 40 4 70 -68 122 -46 34 -68 35 -118 5z m120 -53 c23 -19 42
-38 42 -43 0 -12 -89 -80 -105 -80 -21 0 -95 71 -95 91 0 22 86 82 104 72 6
-3 30 -21 54 -40z"/>
<path d="M2530 4779 c-54 -32 -90 -70 -90 -95 0 -28 42 -80 81 -100 35 -18 60
-7 129 54 41 37 44 42 35 68 -9 25 -93 94 -114 94 -3 0 -22 -10 -41 -21z m83
-45 c49 -33 46 -59 -11 -97 -39 -26 -46 -28 -72 -17 -63 26 -64 68 -3 112 21
15 40 27 43 28 3 0 22 -12 43 -26z"/>
<path d="M633 5969 c-55 -10 -128 -43 -170 -75 -80 -61 -98 -190 -37 -276 154
-219 592 -130 594 120 1 160 -186 271 -387 231z m159 -40 c137 -29 211 -114
193 -221 l-7 -39 -28 44 c-40 63 -116 99 -221 105 -73 4 -84 2 -143 -27 -59
-29 -109 -73 -134 -118 -16 -28 -25 -8 -25 56 0 101 57 161 185 195 66 18 112
19 180 5z m65 -177 c114 -59 108 -140 -15 -194 -56 -25 -179 -35 -238 -19 -46
12 -129 64 -138 86 -9 25 56 98 114 128 51 26 62 28 145 24 68 -2 100 -9 132
-25z"/>
<path d="M8835 5581 c-75 -39 -100 -71 -100 -131 0 -126 169 -194 305 -122
153 79 96 255 -90 277 -49 6 -62 3 -115 -24z m157 -23 c49 -14 98 -68 98 -108
0 -91 -157 -147 -262 -93 -43 21 -61 57 -55 104 6 49 21 67 72 90 47 22 92 24
147 7z"/>
<path d="M8870 5501 c-13 -34 -10 -83 7 -88 6 -2 15 9 21 24 l9 28 19 -32 c31
-53 54 -39 54 32 0 37 -17 56 -31 34 -6 -11 -13 -9 -32 9 -30 28 -32 28 -47
-7z"/>
<path d="M8215 5501 c-148 -36 -191 -165 -85 -254 79 -67 229 -59 307 15 44
42 50 77 23 133 -27 55 -61 80 -136 100 -63 16 -65 16 -109 6z m153 -59 c21
-10 46 -35 57 -55 18 -34 19 -37 3 -71 -47 -97 -227 -109 -297 -20 -64 81 22
181 147 170 29 -3 70 -13 90 -24z"/>
<path d="M8216 5414 c-8 -20 -8 -62 0 -91 7 -27 29 -30 38 -7 6 15 8 15 26 -1
10 -9 24 -14 29 -10 13 7 14 84 2 104 -12 19 -31 4 -31 -25 0 -15 -6 -24 -15
-24 -9 0 -15 9 -15 24 0 31 -25 53 -34 30z"/>
<path d="M8534 5326 c-53 -25 -97 -72 -107 -117 -16 -67 43 -147 124 -169 90
-25 216 22 252 93 17 33 18 44 8 76 -15 53 -44 86 -94 109 -70 34 -124 36
-183 8z m168 -40 c40 -19 78 -70 78 -103 0 -30 -38 -73 -84 -94 -144 -65 -299
54 -210 161 51 60 135 74 216 36z"/>
<path d="M8579 5224 c-11 -25 -18 -52 -15 -60 5 -13 10 -13 36 2 28 17 30 17
49 0 17 -16 21 -16 26 -4 12 31 -33 108 -62 108 -8 0 -23 -21 -34 -46z"/>
<path d="M9450 5254 c-155 -29 -249 -126 -238 -245 7 -73 48 -126 129 -167
116 -59 232 -59 348 0 85 44 123 91 129 161 10 127 -114 237 -284 250 -33 3
-70 3 -84 1z m175 -55 c63 -23 118 -67 141 -110 17 -34 19 -125 2 -135 -7 -4
-14 -1 -16 7 -3 8 -26 35 -52 60 -61 60 -128 83 -219 77 -81 -6 -136 -33 -185
-89 -20 -24 -39 -40 -42 -37 -10 11 -6 96 6 120 57 108 228 159 365 107z m-3
-161 c53 -23 98 -68 98 -99 0 -61 -84 -103 -205 -104 -95 0 -157 21 -203 68
l-32 33 24 33 c70 95 196 122 318 69z"/>
<path d="M8332 4948 c-111 -12 -223 -80 -267 -162 l-19 -35 -37 34 c-46 42
-106 59 -181 52 -106 -9 -168 -65 -168 -149 0 -143 196 -208 339 -112 l35 23
17 -39 c23 -52 93 -121 150 -148 64 -31 184 -55 239 -47 133 18 242 82 298
175 31 51 33 60 30 126 -3 62 -8 78 -38 123 -78 115 -236 178 -398 159z m209
-57 c200 -76 254 -280 108 -405 -70 -59 -137 -81 -254 -81 -87 0 -107 3 -157
27 -113 53 -174 147 -166 255 7 101 75 174 198 215 72 24 192 19 271 -11z
m-597 -105 c67 -28 96 -103 60 -155 -42 -60 -181 -81 -245 -38 -19 12 -43 39
-54 59 -18 35 -19 38 -3 72 23 48 77 75 151 76 32 0 72 -6 91 -14z"/>
<path d="M8345 4735 c-41 -21 -55 -43 -55 -82 0 -27 6 -37 31 -52 42 -26 94
-34 121 -20 91 46 91 118 1 155 -42 18 -61 17 -98 -1z m103 -41 c30 -21 25
-54 -9 -73 -22 -12 -34 -13 -68 -3 -33 10 -41 17 -41 37 0 47 72 71 118 39z"/>
<path d="M7812 4735 c-7 -14 -12 -42 -12 -62 l0 -36 24 22 c26 24 60 22 70 -4
3 -8 11 -15 17 -15 8 0 10 16 7 51 -6 64 -22 82 -39 45 -14 -29 -34 -30 -34
-1 0 29 -20 28 -33 0z"/>
<path d="M3579 4762 c-64 -44 -259 -181 -435 -307 -175 -125 -354 -253 -396
-283 -43 -30 -78 -59 -78 -63 0 -6 38 -36 263 -199 l87 -64 0 -57 0 -58 53
-40 c214 -166 725 -540 736 -541 8 0 28 11 46 24 l31 24 135 -100 c74 -54 135
-103 137 -107 1 -4 -12 -17 -29 -30 l-31 -23 29 -30 c26 -28 216 -174 273
-211 25 -16 27 -16 95 34 39 28 185 130 325 227 520 358 660 458 660 472 0 8
-191 151 -395 295 -77 54 -175 125 -217 157 l-78 59 0 63 c0 69 -1 70 -110
140 -25 16 -148 108 -275 206 -320 246 -368 280 -397 280 -16 0 -47 17 -80 43
-79 64 -219 167 -227 167 -4 0 -59 -35 -122 -78z m201 -11 c36 -27 91 -72 122
-99 l58 -51 -163 -114 c-89 -62 -279 -194 -422 -292 -328 -224 -345 -238 -345
-276 0 -16 -2 -29 -5 -29 -5 0 -233 162 -283 201 l-23 17 58 45 c32 24 117 84
188 134 72 50 265 185 429 302 165 116 304 211 310 211 6 0 40 -22 76 -49z
m1233 -1014 l118 -88 -218 -151 c-458 -316 -711 -488 -717 -488 -8 0 -270 200
-273 208 -1 4 30 29 70 56 40 27 218 148 397 269 414 280 400 268 400 319 l0
40 53 -38 c28 -21 105 -78 170 -127z m287 -208 c66 -49 120 -93 120 -97 0 -12
-50 -48 -480 -348 -534 -373 -509 -357 -525 -351 -17 7 -259 187 -262 196 -2
6 264 190 783 544 120 81 223 147 230 147 7 0 68 -41 134 -91z"/>
<path d="M7201 4550 c-121 -32 -201 -96 -249 -200 -20 -46 -30 -370 -12 -453
15 -72 56 -129 131 -177 94 -61 147 -75 274 -75 97 0 117 3 174 28 86 36 166
98 192 148 24 49 39 170 42 349 2 116 0 129 -24 181 -80 171 -307 256 -528
199z m330 -57 c123 -57 183 -142 184 -258 0 -82 -17 -125 -76 -185 -75 -78
-183 -115 -316 -108 -238 11 -398 190 -341 380 15 50 88 132 142 160 73 38
126 48 237 45 93 -3 113 -7 170 -34z m-414 -531 c190 -101 382 -77 545 68 l53
48 -7 -94 c-9 -111 -27 -152 -92 -212 -151 -140 -436 -126 -579 26 -54 59 -67
99 -67 212 l0 85 44 -51 c25 -28 70 -64 103 -82z"/>
<path d="M7267 4436 c-105 -29 -171 -106 -170 -196 3 -186 273 -269 433 -133
91 78 94 189 9 270 -65 61 -178 86 -272 59z m191 -55 c76 -39 122 -114 102
-167 -10 -25 -17 -29 -37 -16 -10 6 -10 15 -1 40 11 27 10 37 -6 67 -21 39
-101 85 -148 85 -15 0 -28 5 -28 11 0 16 72 3 118 -20z m-10 -58 c61 -45 26
-126 -66 -154 -76 -22 -162 21 -162 82 0 30 33 76 64 90 36 15 133 5 164 -18z"/>
<path d="M7287 4303 c-9 -11 -17 -29 -17 -40 0 -26 40 -63 68 -63 18 0 22 6
22 35 0 44 11 44 44 3 20 -26 28 -30 37 -21 10 10 10 18 1 37 -25 54 -122 85
-155 49z"/>
<path d="M6155 3828 c-153 -21 -268 -93 -316 -201 -22 -48 -24 -67 -27 -258
-4 -228 2 -265 48 -321 57 -69 223 -128 359 -128 129 0 286 65 344 142 57 76
60 88 60 288 1 117 -3 200 -11 227 -31 105 -127 194 -249 231 -85 26 -132 30
-208 20z m213 -60 c111 -41 179 -108 208 -205 38 -124 -39 -257 -185 -315 -83
-32 -229 -37 -319 -9 -275 84 -303 400 -46 518 29 13 72 28 96 33 62 13 181 2
246 -22z m217 -556 c-6 -69 -9 -75 -57 -127 -59 -65 -144 -110 -237 -126 -165
-29 -398 60 -430 164 -15 52 -22 135 -15 183 l6 44 42 -45 c67 -71 207 -125
326 -125 117 0 237 49 319 130 l46 45 3 -35 c2 -19 1 -68 -3 -108z"/>
<path d="M6106 3685 c-72 -29 -110 -65 -132 -122 -32 -82 8 -163 103 -209 186
-91 432 37 383 200 -41 135 -200 194 -354 131z m169 -89 c95 -40 62 -135 -50
-144 -89 -7 -143 29 -129 85 5 19 61 59 70 51 2 -3 -2 -21 -10 -40 -12 -28
-13 -39 -3 -51 21 -27 78 -26 107 3 25 25 14 52 -31 75 -29 16 -31 35 -3 35 8
0 30 -6 49 -14z"/>
<path d="M5230 2393 c-239 -40 -348 -234 -209 -372 40 -41 135 -87 203 -100
140 -26 321 58 356 165 19 57 8 145 -23 193 -58 88 -197 136 -327 114z m195
-58 c63 -28 112 -78 126 -128 17 -64 -7 -156 -26 -98 -18 59 -137 121 -230
121 -102 0 -210 -62 -237 -136 -14 -41 -21 -42 -42 -9 -41 63 -28 133 35 190
98 89 254 114 374 60z m-65 -146 c60 -13 112 -54 141 -110 l19 -39 -42 -30
c-110 -80 -314 -78 -380 4 -50 62 4 130 137 172 51 16 63 16 125 3z"/>
</g>
</svg>
