<?xml version="1.0" standalone="no"?>
<!DOCTYPE svg PUBLIC "-//W3C//DTD SVG 20010904//EN"
 "http://www.w3.org/TR/2001/REC-SVG-20010904/DTD/svg10.dtd">
<svg version="1.0" xmlns="http://www.w3.org/2000/svg"
 width="1024.000000pt" height="1024.000000pt" viewBox="0 0 1024.000000 1024.000000"
 preserveAspectRatio="xMidYMid meet">

<g transform="translate(0.000000,1024.000000) scale(0.100000,-0.100000)"
fill="#e0e0e0" stroke="none">
<path d="M7932 9857 c-21 -26 -52 -98 -101 -235 -28 -78 -55 -151 -61 -161 -8
-17 -23 -19 -139 -18 l-129 2 -58 145 c-69 174 -110 259 -129 266 -37 15 -380
-62 -510 -114 -50 -20 -50 -20 -48 -64 1 -23 23 -124 48 -222 25 -99 44 -180
43 -181 -14 -10 -223 -115 -229 -115 -4 0 -58 45 -121 101 -123 109 -192 159
-219 159 -31 0 -209 -143 -322 -258 l-108 -110 14 -29 c22 -42 100 -146 189
-251 50 -60 76 -97 71 -105 -5 -7 -34 -56 -66 -108 l-58 -96 -117 28 c-134 32
-302 62 -309 56 -11 -12 -68 -175 -108 -315 -51 -173 -64 -254 -45 -276 18
-22 148 -69 291 -106 l126 -32 -1 -149 -1 -149 -85 -26 c-47 -14 -143 -44
-215 -67 l-130 -42 -3 -45 c-2 -24 -11 -55 -21 -69 -10 -14 -40 -69 -66 -121
-26 -52 -48 -96 -50 -98 -3 -3 -268 117 -278 127 -5 5 5 78 22 162 65 336 65
365 9 392 -52 24 -203 61 -377 92 -180 33 -190 31 -221 -52 -20 -53 -74 -229
-115 -377 l-17 -58 -52 6 c-28 4 -98 11 -154 15 -57 5 -105 11 -107 13 -3 2
-20 84 -40 182 -39 199 -60 280 -81 314 -13 20 -22 22 -112 22 -119 0 -445
-35 -475 -51 -12 -7 -25 -17 -29 -23 -4 -6 -8 -127 -8 -268 l0 -258 -22 -5
c-13 -2 -81 -18 -152 -35 -70 -17 -129 -30 -131 -28 -1 2 -14 26 -28 54 -37
74 -163 289 -209 357 -46 68 -55 70 -169 26 -110 -42 -372 -174 -410 -207 -28
-23 -31 -29 -25 -69 6 -45 59 -210 119 -375 l35 -96 -122 -81 c-67 -45 -125
-81 -130 -81 -4 0 -87 63 -184 141 -229 182 -218 177 -273 137 -75 -54 -198
-169 -287 -268 -104 -117 -116 -134 -108 -162 6 -24 118 -166 248 -313 43 -48
76 -90 74 -94 -2 -3 -36 -53 -75 -110 -39 -57 -72 -109 -74 -115 -2 -6 -72 17
-173 56 -189 74 -280 101 -315 96 -18 -2 -36 -23 -71 -81 -73 -122 -226 -495
-212 -518 7 -12 182 -109 327 -181 70 -34 127 -68 127 -75 0 -6 -14 -67 -30
-135 -17 -67 -30 -130 -30 -139 0 -14 -26 -17 -218 -22 -251 -8 -282 -13 -299
-47 -27 -57 -53 -422 -39 -552 6 -57 11 -67 29 -72 47 -11 307 -45 399 -51
l97 -7 5 -31 c2 -18 10 -77 16 -132 7 -55 15 -113 17 -130 4 -29 2 -31 -79
-64 -149 -61 -369 -171 -375 -187 -19 -49 109 -471 176 -580 l19 -32 89 14
c115 18 206 40 321 76 52 16 96 27 98 25 3 -2 33 -61 68 -130 l64 -125 -102
-85 c-150 -125 -265 -236 -272 -262 -4 -16 5 -44 26 -84 52 -98 288 -401 312
-401 6 0 77 31 159 69 82 38 149 68 149 66 0 -2 -47 -57 -105 -122 -58 -65
-105 -124 -105 -132 0 -20 264 -279 332 -325 l58 -39 75 58 c42 31 132 111
200 176 69 66 127 119 130 119 3 0 140 -87 213 -135 1 -1 -22 -65 -52 -141
-62 -159 -119 -352 -114 -386 2 -18 28 -35 123 -84 106 -53 324 -140 396 -157
24 -6 31 2 96 101 39 59 87 137 107 175 20 37 52 96 71 131 l35 64 117 -34
c64 -19 125 -34 135 -34 16 0 18 -13 19 -157 1 -180 12 -330 25 -343 5 -5 98
-17 207 -27 l197 -17 2 -178 c1 -98 2 -186 2 -195 1 -16 -12 -19 -98 -23 -67
-3 -101 -9 -104 -17 -3 -10 626 -13 3125 -13 1727 0 3134 4 3142 9 26 16 -11
26 -121 29 l-108 4 0 409 0 409 74 0 c111 0 106 -6 106 125 0 62 -3 120 -6
129 -5 14 -50 16 -393 16 l-386 1 35 26 c236 179 303 448 174 694 -42 80 -147
185 -224 224 -124 63 -280 71 -412 22 l-68 -25 0 223 c0 233 -4 254 -44 239
-14 -5 -16 -34 -16 -246 l0 -240 -68 -63 c-76 -70 -120 -144 -148 -243 -9 -34
-21 -62 -25 -62 -4 0 -10 16 -13 35 -11 59 -83 188 -133 239 -109 110 -222
159 -373 160 -72 1 -112 -5 -167 -22 -300 -93 -448 -444 -308 -728 27 -56 54
-90 121 -153 l85 -81 -268 0 -268 1 30 21 c59 42 141 134 171 193 63 119 81
288 44 406 -23 76 -64 143 -129 213 -27 28 -52 62 -56 76 -34 111 -136 204
-248 225 -32 6 -37 11 -37 34 0 46 -26 71 -72 71 l-40 0 17 28 c30 46 157 222
161 222 2 0 69 -12 149 -26 81 -14 163 -24 183 -22 34 3 37 6 64 73 64 154
137 449 122 488 -6 18 -131 76 -264 124 -138 50 -209 83 -204 97 2 6 13 80 23
165 11 85 25 157 31 161 6 4 89 10 183 13 192 8 284 20 305 40 27 28 36 160
24 352 -7 99 -18 201 -25 225 -20 69 -34 73 -302 79 l-230 6 -32 145 c-18 79
-29 148 -25 152 4 3 90 37 192 73 234 85 250 91 266 113 18 24 17 63 -3 92
-15 21 -15 23 -1 17 34 -12 135 -29 162 -25 43 5 61 38 111 198 24 80 52 164
61 188 l16 43 140 -3 141 -3 34 -110 c42 -135 91 -276 103 -295 28 -45 406 34
545 113 l40 23 -1 69 c0 44 -14 125 -37 218 -21 82 -37 152 -37 157 0 4 33 27
73 50 39 24 86 51 102 61 l31 18 149 -126 c182 -151 190 -157 231 -137 57 28
265 227 342 328 41 54 30 78 -134 284 -46 59 -84 112 -84 120 0 7 25 55 55
106 l56 93 152 -39 c84 -21 184 -41 224 -45 l72 -6 20 34 c49 81 140 395 144
500 2 43 -2 54 -22 70 -21 17 -132 55 -326 112 l-80 23 0 158 0 159 160 44
c196 54 265 83 265 113 0 65 -74 356 -120 470 -31 80 -42 88 -98 83 -45 -5
-323 -57 -368 -69 -18 -5 -29 8 -78 97 -31 56 -56 105 -56 109 0 4 37 61 83
126 90 129 157 236 157 251 0 14 -312 318 -350 342 -43 26 -50 22 -233 -121
-77 -60 -146 -112 -152 -115 -9 -3 -149 71 -213 112 -1 1 13 74 32 161 19 87
38 186 41 220 l7 60 -68 31 c-115 53 -249 86 -470 117 -27 4 -45 2 -52 -7z
m-527 -278 c53 -135 70 -168 88 -173 12 -3 85 -6 163 -6 l140 0 38 108 c74
208 108 297 120 309 14 15 124 -2 304 -47 167 -42 222 -66 222 -96 0 -13 -16
-99 -36 -191 -19 -93 -38 -182 -41 -199 -5 -30 -3 -32 108 -95 62 -35 121 -68
129 -72 12 -6 50 18 150 98 73 58 152 119 175 135 l43 29 145 -134 c79 -73
155 -148 167 -165 l22 -31 -40 -67 c-22 -37 -79 -121 -125 -186 l-84 -119 42
-66 c23 -36 57 -95 74 -129 22 -44 37 -62 47 -58 21 8 331 74 385 81 l46 7 26
-64 c34 -85 72 -219 101 -350 l24 -108 -122 -39 c-66 -21 -161 -49 -211 -61
-49 -13 -93 -26 -96 -29 -4 -3 -9 -88 -11 -189 l-5 -182 86 -26 c173 -51 307
-96 330 -111 22 -14 23 -20 18 -77 -4 -33 -15 -95 -26 -138 -21 -77 -95 -293
-109 -315 -9 -14 -82 -1 -306 53 -106 26 -151 33 -154 25 -2 -6 -35 -62 -72
-124 -67 -109 -68 -112 -50 -132 10 -11 70 -89 134 -174 l116 -153 -19 -27
c-30 -42 -234 -245 -291 -290 l-52 -41 -41 32 c-23 18 -101 83 -175 145 l-133
112 -67 -43 c-37 -24 -95 -58 -130 -75 -48 -24 -62 -36 -58 -49 13 -43 57
-227 77 -321 20 -97 20 -105 5 -117 -41 -30 -441 -144 -505 -144 -9 0 -89 237
-133 393 l-14 49 -170 0 -169 0 -47 -144 c-94 -284 -96 -288 -129 -288 -46 0
-291 67 -396 108 l-98 38 2 45 c0 24 20 124 43 222 23 98 41 179 39 181 -2 2
-51 26 -109 54 -58 28 -117 58 -131 68 l-26 17 -169 -126 c-93 -70 -175 -127
-182 -127 -27 0 -342 306 -342 333 0 8 117 160 221 288 l38 46 -55 89 c-31 49
-66 110 -79 135 l-23 45 -217 -54 c-119 -29 -222 -52 -229 -49 -28 11 -137
375 -147 492 l-4 40 205 63 c113 35 210 65 216 67 8 2 11 58 10 186 l-1 182
-151 37 c-186 46 -274 79 -274 102 0 60 128 499 149 513 4 2 101 -16 215 -42
113 -25 208 -44 209 -42 2 2 29 49 60 104 31 55 65 114 76 131 l20 30 -65 75
c-67 74 -174 214 -203 264 l-16 27 85 80 c71 67 133 120 281 245 19 16 51 -7
214 -152 44 -39 95 -81 113 -93 l32 -23 58 34 c31 19 92 52 135 73 42 21 77
44 77 50 0 7 -20 90 -44 186 -24 95 -46 189 -49 209 l-5 37 121 36 c101 30
270 71 362 88 26 5 47 -33 130 -243z m-3562 -1786 c9 -32 33 -141 52 -243 20
-102 38 -194 40 -206 4 -20 13 -21 162 -29 87 -4 173 -8 192 -9 l34 -1 29 110
c58 222 121 395 143 395 52 0 493 -97 526 -116 8 -4 -11 -125 -50 -334 -17
-85 -31 -165 -33 -178 -3 -21 14 -31 175 -107 l178 -83 10 26 c19 52 103 222
109 222 3 0 15 -35 25 -77 29 -126 80 -278 110 -328 l27 -48 67 6 c36 4 126
22 199 40 94 24 132 30 132 21 0 -7 -14 -52 -31 -101 l-31 -88 70 -65 70 -65
-79 -100 c-44 -55 -79 -105 -79 -112 0 -32 357 -383 390 -383 9 0 84 52 168
115 84 63 162 119 172 125 32 17 64 -23 79 -100 7 -36 14 -75 17 -87 3 -18
-10 -28 -95 -72 -143 -73 -145 -74 -170 -47 l-21 23 61 84 c60 83 83 119 76
119 -2 0 -44 -46 -93 -102 l-90 -103 31 -47 c16 -26 33 -47 36 -47 4 -1 89 39
190 89 101 49 184 88 186 86 1 -1 -8 -52 -22 -112 -37 -164 -41 -201 -21 -223
9 -10 77 -42 151 -71 145 -57 205 -97 205 -135 0 -30 -4 -32 -202 -104 -255
-92 -278 -102 -278 -116 0 -16 70 -338 75 -343 1 -2 115 -7 251 -12 137 -5
250 -9 252 -10 15 -1 34 -93 43 -198 9 -121 3 -359 -10 -380 -7 -11 -214 -32
-319 -32 -38 0 -96 -3 -129 -6 l-61 -7 -7 -71 c-3 -39 -17 -129 -29 -199 -20
-116 -21 -129 -6 -137 8 -4 96 -40 195 -79 237 -94 275 -112 275 -128 0 -28
-52 -220 -96 -355 l-45 -138 -32 0 c-18 0 -90 12 -162 26 -136 27 -276 36
-285 19 -3 -5 14 -14 38 -19 23 -6 42 -13 42 -16 0 -4 -14 -26 -31 -49 -29
-41 -31 -42 -53 -28 -12 9 -103 66 -202 127 -98 62 -182 115 -187 119 -6 6 20
83 53 153 30 63 162 127 281 135 157 11 314 -43 439 -153 68 -60 93 -58 39 3
-84 96 -183 153 -315 180 -100 20 -216 8 -326 -35 l-76 -29 20 66 c127 434
148 916 56 1356 -117 566 -448 1127 -878 1487 -266 223 -584 386 -924 473
-224 57 -407 78 -666 78 -329 1 -550 -34 -855 -134 -177 -58 -441 -185 -595
-286 -607 -400 -1011 -1045 -1112 -1773 -19 -143 -16 -535 5 -685 110 -753
490 -1398 1082 -1840 314 -235 670 -394 1050 -470 166 -33 289 -45 468 -45
l153 0 22 -29 c11 -16 48 -47 81 -69 l60 -40 -37 -6 c-20 -3 -155 -6 -299 -6
l-263 0 0 -129 c0 -145 -2 -141 84 -141 l39 0 -8 -188 c-4 -103 -9 -189 -11
-191 -7 -7 -324 19 -349 29 -22 8 -23 16 -30 135 -4 69 -6 179 -3 244 l4 118
-66 13 c-36 7 -111 27 -167 45 l-102 32 -42 -81 c-96 -186 -218 -382 -243
-392 -21 -8 -211 63 -354 132 l-133 65 6 32 c17 85 61 221 115 354 33 81 56
151 52 154 -4 4 -65 46 -137 93 l-130 85 -39 -45 c-44 -52 -214 -206 -299
-271 l-58 -45 -40 28 c-63 44 -272 238 -288 267 -14 26 -12 29 63 111 108 119
216 248 216 258 0 17 -29 5 -227 -92 l-204 -99 -37 41 c-79 87 -215 277 -256
356 -16 32 -16 34 6 62 24 31 164 154 290 257 l76 62 -81 163 -82 163 -123
-42 c-136 -47 -306 -86 -359 -81 -33 3 -37 7 -65 73 -57 135 -138 404 -138
460 0 18 144 91 325 165 72 30 133 56 137 60 4 3 2 39 -6 80 -8 41 -20 127
-26 190 -7 63 -13 116 -15 118 -2 2 -70 7 -151 12 -143 9 -352 35 -363 46 -12
11 -13 202 -2 340 11 146 23 219 36 232 4 4 120 12 258 17 l251 10 17 96 c9
52 28 133 42 180 15 46 23 85 18 87 -50 17 -433 216 -460 238 -20 17 214 529
247 542 20 7 192 -52 362 -124 113 -48 126 -52 134 -36 5 9 47 73 93 141 46
68 85 127 88 131 3 5 -34 52 -81 107 -123 139 -254 305 -254 319 0 15 215 234
323 329 71 62 80 67 100 56 19 -10 329 -254 377 -296 13 -12 35 0 155 81 77
53 146 99 154 103 10 6 6 27 -24 102 -21 52 -62 166 -91 254 -48 147 -51 161
-36 173 23 19 319 167 414 208 l78 33 24 -32 c36 -48 136 -219 201 -342 32
-60 59 -111 60 -112 1 -2 312 71 354 83 11 4 13 44 11 222 -2 119 -3 240 -2
268 l2 52 43 10 c37 9 170 26 282 35 22 2 83 4 136 5 l96 2 16 -57z m395 -837
c461 -70 876 -245 1182 -501 114 -95 306 -298 395 -417 532 -710 686 -1557
438 -2397 -35 -119 -40 -127 -95 -187 -36 -38 -58 -70 -58 -85 0 -22 3 -20 40
16 22 21 40 35 40 30 -1 -18 -135 -280 -200 -388 l-63 -107 -284 0 -283 0 0
1300 0 1300 36 50 c81 113 79 201 -7 311 l-29 37 0 160 c0 137 -2 161 -16 166
-20 8 -208 8 -256 0 l-38 -7 0 -160 0 -161 -32 -48 -33 -48 -945 1 -945 0 -3
-165 -2 -164 -178 -4 -177 -4 -215 -83 c-363 -140 -357 -137 -364 -173 -3 -17
-6 -543 -6 -1170 l0 -1139 -147 3 -148 3 -68 100 c-160 237 -322 626 -381 915
-44 220 -51 293 -51 555 1 305 22 472 91 705 193 653 663 1204 1289 1511 88
43 205 94 260 115 191 70 464 128 695 148 98 8 460 -3 558 -18z m1857 -204
c52 -91 52 -103 -1 -153 l-24 -22 -39 27 c-76 53 -77 55 -51 143 12 43 27 89
32 102 8 23 9 24 22 5 7 -10 35 -56 61 -102z m-837 -548 l52 -7 0 -130 0 -129
-22 6 c-73 20 -125 18 -190 -9 -17 -7 -18 3 -18 128 l0 136 28 4 c46 7 95 7
150 1z m1531 -93 c74 -38 78 -67 12 -100 l-39 -20 -12 52 c-6 28 -14 60 -17
70 -6 22 9 22 56 -2z m-1499 -213 c114 -58 145 -211 63 -309 -63 -75 -183 -93
-264 -39 -61 40 -92 98 -92 169 0 31 7 69 15 86 54 102 178 143 278 93z
m-2090 -158 l0 -40 -40 0 -40 0 0 40 0 40 40 0 40 0 0 -40z m1750 16 c0 -60
68 -56 -861 -56 l-849 0 0 40 0 40 855 0 855 0 0 -24z m-1750 -181 l0 -85 -40
0 -40 0 0 85 0 85 40 0 40 0 0 -85z m90 0 c0 -77 -2 -85 -19 -85 -25 0 -31 19
-31 101 0 67 1 69 25 69 25 0 25 -1 25 -85z m1685 45 c10 -22 26 -47 36 -56
18 -17 19 -62 19 -1331 l0 -1313 -235 0 -235 0 0 28 c0 15 -5 34 -10 42 -9 13
-11 13 -20 0 -5 -8 -10 -27 -10 -42 l0 -28 -235 0 -235 0 0 1279 c0 1157 -2
1279 -16 1285 -9 3 -171 6 -360 6 l-344 0 0 85 0 85 813 0 814 0 18 -40z m173
-133 c35 -9 54 -8 103 4 l60 16 -3 -91 -3 -91 -117 -3 -118 -3 0 97 c0 87 2
96 18 89 9 -3 36 -12 60 -18z m-1313 -44 c85 -8 110 0 -307 -98 l-317 -75
-463 0 -463 1 190 75 c105 41 208 81 230 89 32 11 137 14 550 14 281 1 542 -2
580 -6z m173 -1276 l2 -1247 -378 0 -379 0 -6 107 c-4 58 -7 579 -7 1158 l0
1051 133 32 c72 17 240 58 372 91 132 32 245 58 250 57 7 -2 11 -428 13 -1249z
m1302 1093 c0 -19 -7 -20 -120 -20 -113 0 -120 1 -120 20 0 19 7 20 120 20
113 0 120 -1 120 -20z m-2109 -32 c0 -2 3 -216 5 -475 l6 -473 -516 0 -516 0
0 453 c0 248 3 462 6 475 l6 22 504 0 c277 0 504 -1 505 -2z m2109 -158 l0
-130 -120 0 -120 0 0 130 0 130 120 0 120 0 0 -130z m-16 -176 c9 -3 16 -15
16 -25 0 -17 -8 -19 -97 -19 -117 0 -143 6 -143 31 0 17 9 19 104 19 57 0 111
-3 120 -6z m-15 -80 l31 -6 0 -123 0 -122 -60 -6 c-33 -3 -87 -3 -120 0 l-60
6 0 123 c0 88 3 124 13 127 18 8 159 8 196 1z m28 -309 c8 -24 0 -27 -76 -33
-100 -7 -161 4 -161 29 0 18 8 19 115 19 95 0 117 -3 122 -15z m3 -200 l0
-135 -120 0 -120 0 0 135 0 135 120 0 120 0 0 -135z m-2111 -71 c11 -10 13
-418 6 -872 -7 -402 -9 -443 -24 -440 -15 3 -16 62 -21 643 l-5 640 -470 0
-470 0 -2 -600 c-1 -330 -2 -619 -2 -642 -1 -29 -5 -43 -14 -43 -25 0 -34 419
-20 1018 5 263 8 302 22 306 22 7 993 -2 1000 -10z m-431 -60 l62 -7 2 -156 3
-156 141 -3 141 -3 5 -247 c3 -136 3 -345 0 -465 l-5 -217 -431 2 -431 3 -3
622 -2 622 122 4 c274 7 338 7 396 1z m257 -26 c-4 -13 -9 -31 -12 -41 -2 -10
-10 -17 -16 -16 -51 6 -65 -16 -17 -26 26 -6 30 -11 30 -41 0 -31 -3 -34 -30
-34 -20 0 -30 -5 -30 -15 0 -9 9 -15 21 -15 12 0 28 -8 35 -17 24 -31 34 4 34
120 l0 107 40 0 40 0 0 -140 0 -140 -125 0 -125 0 0 140 0 140 81 0 c79 0 80
0 74 -22z m2285 -37 c0 -41 -230 -39 -238 2 -3 15 8 17 117 17 113 0 121 -1
121 -19z m-2 -193 l-3 -133 -117 -3 -118 -3 0 129 c0 71 3 132 7 135 3 4 57 7
120 7 l114 0 -3 -132z m-50 -174 c40 -5 52 -11 52 -24 0 -14 -13 -19 -69 -24
-96 -10 -171 1 -171 25 0 14 10 19 43 22 78 7 92 7 145 1z m52 -454 l0 -370
-120 0 -120 0 0 363 c0 200 3 367 7 370 3 4 57 7 120 7 l113 0 0 -370z m991
-110 c155 -94 259 -167 259 -181 0 -25 -73 -119 -133 -172 -52 -46 -75 -75
-107 -139 -36 -73 -39 -83 -25 -98 23 -26 19 -36 -35 -75 -78 -58 -139 -147
-171 -253 l-13 -44 -22 66 c-12 36 -36 88 -54 116 -40 63 -133 149 -204 190
l-56 31 64 79 c106 129 219 306 302 471 24 49 48 89 53 89 5 0 69 -36 142 -80z
m-1781 -425 l0 -125 -44 0 c-76 0 -149 -19 -231 -59 -256 -126 -357 -430 -229
-685 l35 -69 -193 6 c-640 18 -1219 269 -1705 740 -96 93 -273 296 -273 312 0
3 594 5 1320 5 l1320 0 0 -125z m60 -6 c0 -73 -4 -119 -10 -119 -6 0 -10 49
-10 126 0 81 4 123 10 119 6 -4 10 -57 10 -126z m1294 119 c-31 -53 -91 -134
-131 -178 l-48 -51 -71 11 c-162 25 -349 -42 -467 -168 -43 -47 -114 -173
-131 -234 -5 -20 -10 -14 -35 43 -71 166 -177 265 -337 316 l-54 17 0 128 0
128 641 0 c509 0 639 -3 633 -12z m720 -44 c10 -25 7 -34 -9 -34 -9 0 -15 9
-15 25 0 28 15 34 24 9z m-64 -12 c0 -11 -9 -27 -19 -36 -11 -10 -22 -28 -25
-42 -4 -16 -22 -31 -54 -46 -26 -13 -48 -31 -50 -41 -4 -17 -2 -17 27 -3 44
23 91 21 91 -3 0 -11 -8 -22 -17 -24 -95 -25 -114 -29 -128 -24 -27 11 -17 60
28 127 54 83 147 141 147 92z m161 -82 c50 -14 126 -67 155 -109 37 -55 31
-63 -28 -37 -70 31 -144 46 -223 46 l-65 0 0 48 c0 26 6 54 13 61 13 13 77 9
148 -9z m-1010 -136 c88 -26 164 -72 227 -138 126 -131 170 -300 124 -477 -49
-186 -219 -334 -418 -362 -146 -21 -300 31 -410 138 -157 154 -198 390 -99
585 58 114 190 220 316 254 73 20 193 20 260 0z m-1095 -5 c168 -31 315 -158
375 -325 29 -80 31 -226 5 -304 -82 -246 -326 -389 -572 -337 -96 21 -161 55
-239 128 -205 193 -205 511 1 709 118 114 268 159 430 129z m2180 -24 c335
-126 430 -543 182 -801 -193 -201 -512 -202 -704 -2 -188 195 -185 499 5 689
136 136 340 181 517 114z m2119 10 c219 -78 360 -306 328 -531 -12 -86 -63
-199 -117 -261 -148 -170 -415 -214 -615 -101 -78 45 -156 129 -196 212 -95
198 -55 417 103 568 62 60 115 91 202 120 70 23 221 20 295 -7z m-1102 0 c85
-22 154 -61 220 -124 69 -65 102 -117 129 -204 22 -71 26 -200 8 -268 -36
-134 -134 -250 -264 -315 l-80 -39 -126 0 -126 0 -85 42 c-210 104 -320 332
-264 546 69 267 332 429 588 362z m432 -607 c42 -129 102 -212 215 -300 l35
-27 -265 0 c-249 0 -263 1 -240 16 14 9 53 45 88 80 65 65 110 144 133 234 7
27 14 49 15 49 1 0 10 -24 19 -52z m-3171 -42 c9 -27 16 -53 16 -58 0 -4 -18
-8 -40 -8 -24 0 -40 5 -40 12 0 24 34 118 41 111 3 -5 14 -30 23 -57z m1104
-119 c30 -43 107 -118 152 -149 24 -16 13 -17 -220 -17 l-245 0 40 32 c94 75
154 155 182 245 l17 52 22 -60 c13 -33 36 -79 52 -103z m-1048 4 c5 -11 10
-22 10 -25 0 -3 -40 -6 -90 -6 -49 0 -90 2 -90 5 0 3 6 14 12 25 11 17 24 20
80 20 56 0 69 -3 78 -19z m107 -110 l61 -59 -161 -7 c-89 -3 -205 -5 -257 -3
l-95 3 35 25 c33 24 43 25 215 30 l180 5 -163 9 -163 9 22 23 c21 23 29 24
143 24 l121 -1 62 -58z m4513 -136 l0 -32 -1172 -6 c-644 -4 -2003 -7 -3020
-7 l-1848 0 0 35 0 35 898 2 c493 2 1852 3 3020 4 l2122 1 0 -32z m8 -107 l3
-37 -118 -4 c-65 -2 -1272 -4 -2683 -5 -1411 -1 -2719 -5 -2907 -9 l-343 -6 0
46 0 47 1803 3 c991 1 2351 2 3022 2 l1220 0 3 -37z m-5778 -237 c0 -152 -8
-243 -21 -235 -5 3 -9 90 -9 194 0 164 2 189 15 184 12 -5 15 -30 15 -143z
m1262 109 c92 -79 176 -234 217 -402 21 -88 41 -244 41 -328 l0 -50 -375 0
-375 0 0 53 c0 152 40 344 95 464 64 139 182 288 233 296 89 13 116 8 164 -33z
m496 33 c-1 -5 -20 -43 -41 -85 -21 -42 -46 -101 -56 -130 l-18 -53 -22 60
c-12 33 -40 92 -61 132 -21 39 -36 74 -32 77 8 9 234 7 230 -1z m222 2 c0 -3
-25 -38 -55 -78 -68 -89 -115 -178 -149 -282 -29 -91 -56 -235 -56 -304 0 -25
-3 -70 -6 -99 l-7 -52 -72 0 -72 0 -6 110 c-16 269 -99 509 -225 651 l-44 49
91 0 90 0 40 -68 c36 -62 64 -126 116 -266 l18 -50 32 95 c37 108 92 222 130
267 26 31 30 32 101 32 41 0 74 -2 74 -5z m296 -27 c160 -172 244 -408 244
-684 l0 -101 -162 -7 c-89 -4 -262 -4 -385 0 l-223 7 0 37 c0 82 22 246 45
338 41 158 110 287 209 390 l50 52 96 0 c96 0 96 0 126 -32z m212 5 c35 -50
102 -192 131 -280 l29 -86 12 44 c25 98 67 206 108 276 l42 73 91 0 90 0 -49
-60 c-141 -175 -214 -378 -229 -642 l-6 -118 -68 0 -67 0 -6 63 c-3 34 -8 98
-11 142 -16 208 -83 400 -189 541 -25 34 -46 65 -46 68 0 3 33 6 74 6 70 0 76
-2 94 -27z m243 -25 c-17 -29 -42 -86 -57 -127 -25 -68 -28 -72 -37 -50 -6 13
-31 67 -56 119 -25 52 -47 98 -49 103 -2 4 48 7 112 7 l116 0 -29 -52z m591
-28 c138 -171 218 -414 218 -657 l0 -83 -395 0 -395 0 0 83 c1 264 82 483 253
682 l48 55 104 0 104 0 63 -80z m186 18 c51 -78 93 -170 123 -268 l22 -75 38
112 c40 120 84 211 127 262 26 31 29 32 100 29 l72 -3 -45 -60 c-126 -168
-195 -378 -211 -642 l-6 -113 -69 0 -68 0 -5 33 c-3 17 -7 73 -10 123 -13 226
-85 426 -211 592 l-55 72 79 0 79 0 40 -62z m272 58 c0 -2 -16 -29 -35 -61
-19 -32 -46 -88 -60 -126 -15 -38 -31 -67 -36 -63 -5 3 -9 11 -9 18 0 15 -71
160 -100 204 l-22 32 131 0 c72 0 131 -2 131 -4z m593 -55 c132 -143 198 -336
213 -628 l7 -131 -64 -4 c-35 -1 -221 -2 -412 0 l-349 3 7 102 c20 308 83 489
232 665 l45 52 133 0 133 0 55 -59z m195 12 c44 -69 98 -186 113 -244 7 -27
15 -49 18 -49 3 0 22 44 41 97 19 53 54 130 78 170 l42 73 81 0 c62 0 78 -3
73 -12 -5 -7 -28 -39 -51 -70 -113 -149 -193 -394 -193 -592 0 -29 -3 -74 -6
-100 l-7 -46 -62 0 -62 0 -7 131 c-15 280 -63 435 -189 612 l-56 77 78 0 79 0
30 -47z m240 40 c-2 -5 -27 -55 -55 -113 -41 -84 -53 -101 -59 -85 -17 46 -54
123 -79 163 l-26 42 111 0 c62 0 110 -3 108 -7z m672 -403 l0 -410 -336 0
-336 0 5 153 c5 177 24 260 92 404 46 98 88 165 143 225 l34 38 199 0 199 0 0
-410z m120 0 l0 -410 -40 0 -40 0 0 379 c0 208 3 393 6 410 6 27 10 31 40 31
l34 0 0 -410z m-5670 -5 l0 -405 -47 0 -46 0 6 187 c4 104 7 286 7 406 l0 217
40 0 40 0 0 -405z m383 330 c74 -88 148 -238 181 -367 20 -79 45 -270 46 -350
0 -17 -20 -18 -285 -18 l-285 0 0 195 0 195 29 0 c17 0 31 6 35 16 3 9 6 103
6 210 l0 195 107 -3 107 -3 59 -70z m225 -22 c27 -54 66 -142 87 -196 20 -54
38 -97 40 -95 2 2 11 32 20 67 22 85 66 181 118 259 l42 62 88 0 88 0 -37 -37
c-80 -82 -144 -196 -192 -338 -32 -97 -47 -185 -58 -337 l-6 -98 -73 0 -73 0
-7 88 c-23 305 -106 540 -243 685 l-36 37 96 0 96 0 50 -97z m252 92 c0 -2
-16 -29 -35 -60 -20 -30 -47 -83 -62 -117 -14 -35 -29 -67 -33 -71 -4 -4 -15
14 -25 40 -9 26 -35 80 -56 120 -22 40 -39 77 -39 83 0 6 45 10 125 10 69 0
125 -2 125 -5z"/>
<path d="M7406 9205 c-334 -55 -613 -195 -852 -430 -160 -158 -276 -332 -353
-530 -296 -756 30 -1596 757 -1955 430 -213 947 -209 1379 8 200 101 430 301
562 487 72 102 167 292 205 409 57 172 70 265 70 481 0 170 -3 216 -23 305
-68 317 -199 559 -426 785 -223 223 -470 359 -777 426 -125 27 -415 35 -542
14z m536 -54 c591 -127 1041 -578 1170 -1174 30 -136 32 -444 5 -580 -61 -303
-200 -562 -421 -783 -225 -225 -490 -365 -796 -421 -131 -23 -402 -23 -525 0
-317 62 -579 199 -801 421 -203 204 -332 433 -398 705 -123 505 17 1022 378
1398 226 236 522 393 831 442 39 6 81 13 95 15 68 12 369 -4 462 -23z"/>
<path d="M6898 8600 c-87 -4 -112 -9 -135 -26 -53 -39 -54 -51 -51 -637 l3
-539 48 -42 c28 -24 47 -49 47 -61 -1 -12 -65 -86 -155 -180 l-155 -160 0 -62
0 -63 1140 0 1140 0 0 43 c-1 23 -6 54 -13 70 -7 15 -84 102 -171 193 -149
155 -159 167 -141 180 10 8 31 14 45 14 15 0 34 8 43 18 15 17 17 72 17 583 0
345 -4 578 -10 600 -20 73 38 67 -795 71 -413 2 -798 1 -857 -2z m1610 -57 c9
-13 12 -147 12 -589 0 -512 -2 -572 -16 -578 -9 -3 -394 -6 -856 -6 l-840 0
-29 29 -29 29 0 532 c0 594 0 595 62 602 18 2 404 3 858 1 757 -3 826 -5 838
-20z m-110 -1245 l3 -28 -775 0 -776 0 0 23 c0 13 3 27 7 30 3 4 351 6 772 5
l766 -3 3 -27z m188 -205 l133 -138 -431 -3 c-237 -1 -432 -1 -434 1 -1 1 -10
45 -18 96 -8 52 -21 98 -28 102 -7 5 -88 9 -179 9 l-167 0 -11 -82 c-7 -46
-14 -93 -17 -105 l-4 -23 -441 0 -441 0 132 140 132 140 821 0 820 0 133 -137z
m-792 11 c3 -9 9 -47 12 -85 l7 -69 -176 0 c-137 0 -175 3 -172 13 2 6 9 45
15 85 l12 72 148 0 c126 0 149 -2 154 -16z m495 -191 c451 -6 452 -6 449 -27
l-3 -21 -1093 0 c-1138 0 -1124 -1 -1108 40 5 13 84 15 654 15 357 0 852 -3
1101 -7z"/>
<path d="M6864 8510 c-61 -19 -59 2 -59 -530 0 -466 1 -489 19 -509 l19 -21
816 0 816 0 -3 507 -3 508 -22 23 -23 23 -764 4 c-490 3 -776 1 -796 -5z
m1527 -36 l37 -6 7 -199 c4 -109 4 -331 0 -494 l-7 -295 -84 0 -84 0 0 80 0
80 -65 0 -65 0 -2 248 -3 247 -105 0 -105 0 -5 -325 -5 -325 -26 -3 -26 -3 -6
182 c-4 100 -7 215 -7 256 l0 73 -99 0 c-94 0 -100 -1 -107 -22 -3 -12 -3
-117 1 -234 7 -216 3 -254 -29 -254 -17 0 -31 162 -25 282 l4 73 -101 3 -101
3 -7 -149 c-4 -81 -4 -160 -1 -174 7 -27 -12 -42 -40 -32 -12 5 -15 29 -15
125 l0 119 -105 0 -104 0 -3 -122 -3 -123 -119 0 c-104 1 -120 3 -132 20 -12
15 -14 102 -14 486 0 435 1 469 18 478 18 11 1468 16 1533 5z m-301 -684 l0
-310 -70 0 -70 0 0 310 0 310 70 0 70 0 0 -310z m-280 -75 l0 -225 -70 0 -70
0 0 225 0 225 70 0 70 0 0 -225z m-262 -77 l-3 -153 -65 0 -65 0 -3 60 c-2 33
-1 102 3 153 l7 92 64 0 65 0 -3 -152z m-268 -48 l0 -100 -65 0 -65 0 0 100 0
100 65 0 65 0 0 -100z m938 -47 l-3 -58 -42 -3 -43 -3 0 60 0 61 45 0 46 0 -3
-57z"/>
<path d="M7140 8264 c-114 -22 -240 -94 -240 -138 0 -15 25 -3 63 29 94 80
250 103 361 52 33 -15 79 -46 103 -68 25 -22 47 -38 50 -36 23 24 -70 105
-157 138 -52 20 -138 31 -180 23z"/>
<path d="M7105 8142 c-55 -19 -135 -78 -135 -99 0 -23 22 -14 73 28 54 46 110
64 172 53 50 -8 111 -41 130 -71 19 -28 35 -30 35 -4 0 22 -51 68 -96 87 -56
23 -125 26 -179 6z"/>
<path d="M7135 8048 c-43 -23 -58 -74 -35 -119 16 -29 67 -51 100 -44 34 7 80
57 80 86 0 64 -86 110 -145 77z m87 -35 c25 -23 23 -68 -4 -87 -32 -23 -54
-20 -77 10 -26 33 -26 49 -1 74 24 24 57 26 82 3z"/>
<path d="M6440 3446 c-84 -24 -163 -73 -186 -118 -22 -42 2 -44 46 -4 45 40
119 80 170 91 110 24 221 -1 363 -83 81 -46 109 -49 66 -7 -39 39 -139 94
-208 115 -72 23 -181 25 -251 6z"/>
<path d="M6451 3284 c-60 -16 -81 -29 -81 -50 0 -19 10 -18 70 6 62 24 179 27
260 5 62 -16 75 -12 42 15 -48 39 -191 51 -291 24z"/>
<path d="M3103 6395 c-79 -22 -120 -41 -188 -90 -66 -47 -105 -88 -105 -111 0
-26 22 -14 83 43 37 33 92 70 136 92 63 30 88 36 161 39 139 7 250 -34 354
-129 43 -39 60 -49 69 -40 8 8 -4 25 -48 69 -124 118 -306 169 -462 127z"/>
<path d="M3115 6263 c-103 -37 -195 -105 -195 -144 0 -30 23 -22 69 25 24 25
71 57 104 71 53 24 69 27 141 23 91 -5 142 -26 191 -78 36 -39 81 -64 90 -50
11 18 -77 100 -142 132 -81 40 -182 48 -258 21z"/>
<path d="M3094 6111 c-58 -27 -116 -82 -95 -89 5 -2 40 15 77 37 60 36 75 41
130 41 76 0 97 -7 153 -54 29 -25 47 -34 54 -27 18 18 -22 62 -86 92 -84 39
-150 39 -233 0z"/>
<path d="M3133 6015 c-38 -16 -73 -50 -73 -70 0 -23 21 -17 60 15 48 42 108
41 170 0 50 -33 60 -36 60 -17 0 18 -49 64 -83 76 -38 15 -95 13 -134 -4z"/>
<path d="M5130 5848 c-134 -69 -88 -268 63 -270 155 -3 205 200 67 273 -46 25
-76 24 -130 -3z m127 -43 c66 -44 68 -119 3 -163 -27 -19 -44 -23 -77 -19 -51
5 -71 20 -90 65 -11 27 -11 37 1 67 28 67 102 90 163 50z"/>
<path d="M5141 5764 c-26 -34 -27 -54 0 -88 56 -71 166 9 112 82 -29 39 -84
42 -112 6z m84 -49 c0 -25 -4 -30 -24 -30 -28 0 -47 25 -38 49 5 12 16 16 34
14 24 -3 28 -8 28 -33z"/>
<path d="M4490 3489 c-138 -20 -310 -115 -310 -171 0 -23 24 -14 72 28 75 67
186 105 306 106 124 2 213 -31 314 -114 51 -42 68 -47 68 -20 -1 20 -85 90
-145 120 -89 45 -211 65 -305 51z"/>
<path d="M4450 3327 c-120 -41 -200 -101 -171 -130 7 -7 22 -2 51 19 22 16 54
39 71 51 16 12 55 27 86 33 96 20 190 -4 274 -70 35 -27 55 -38 62 -31 15 15
-16 56 -66 85 -105 62 -210 77 -307 43z"/>
<path d="M4465 3184 c-44 -16 -85 -50 -85 -71 0 -20 21 -15 69 17 61 42 122
41 207 -2 35 -18 66 -30 69 -26 18 18 -46 71 -106 88 -47 14 -107 11 -154 -6z"/>
<path d="M4491 3036 c-16 -19 -5 -24 57 -27 59 -3 76 6 48 27 -25 18 -90 18
-105 0z"/>
<path d="M3555 5115 c-22 -8 -59 -34 -81 -58 -94 -98 -76 -249 37 -324 37 -25
52 -28 120 -28 70 0 81 3 120 30 85 60 117 181 71 271 -52 103 -160 147 -267
109z m169 -56 c129 -88 88 -296 -62 -316 -93 -12 -166 29 -198 112 -58 154
124 297 260 204z"/>
<path d="M3585 5021 c-44 -19 -70 -60 -70 -111 0 -58 28 -94 86 -111 31 -10
43 -9 76 7 53 26 80 82 64 133 -6 20 -22 47 -35 60 -26 25 -89 36 -121 22z
m104 -57 c29 -37 27 -79 -5 -109 -35 -32 -78 -32 -109 0 -51 51 -17 135 55
135 30 0 43 -6 59 -26z"/>
<path d="M3320 4531 c0 -77 4 -103 16 -115 13 -14 54 -16 295 -16 271 0 280 1
300 21 18 18 21 29 15 73 -3 28 -6 70 -6 94 l0 42 -310 0 -310 0 0 -99z m230
-16 l0 -75 -95 0 -95 0 0 75 0 75 95 0 95 0 0 -75z m158 -2 l3 -73 -61 0 -60
0 0 75 0 76 58 -3 57 -3 3 -72z m192 2 l0 -75 -75 0 -75 0 0 75 0 75 75 0 75
0 0 -75z"/>
<path d="M3589 4171 c-46 -15 -78 -42 -99 -85 -47 -98 -1 -205 102 -235 135
-41 253 105 191 236 -30 63 -127 105 -194 84z m138 -75 c87 -95 -4 -244 -128
-207 -86 26 -120 133 -62 201 34 41 58 51 113 46 35 -3 51 -11 77 -40z"/>
<path d="M3582 4067 c-44 -47 -19 -121 45 -133 27 -5 37 -1 64 25 26 27 30 37
25 64 -12 65 -91 90 -134 44z m79 -17 c23 -13 25 -52 4 -70 -8 -7 -25 -10 -39
-6 -33 8 -43 42 -20 67 20 22 28 23 55 9z"/>
<path d="M3564 3801 c-152 -69 -109 -296 59 -308 144 -10 229 156 134 264 -55
63 -119 78 -193 44z m133 -41 c74 -45 83 -139 19 -197 -29 -27 -44 -33 -78
-33 -77 0 -127 50 -128 127 0 95 105 153 187 103z"/>
<path d="M3610 3731 c-14 -4 -32 -21 -42 -40 -14 -29 -15 -39 -4 -64 17 -43
60 -60 104 -42 93 40 40 172 -58 146z m54 -47 c31 -31 13 -74 -31 -74 -21 0
-43 25 -43 49 0 14 29 41 45 41 7 0 21 -7 29 -16z"/>
<path d="M2270 5100 c-13 -24 -10 -504 3 -517 12 -11 742 -17 792 -6 l40 9 9
103 c4 57 5 177 1 267 l-7 164 -414 0 c-405 0 -414 0 -424 -20z m800 -255 l0
-235 -385 0 -385 0 0 235 0 235 385 0 385 0 0 -235z"/>
<path d="M2337 5043 c-4 -3 -7 -96 -7 -205 l0 -198 360 0 360 0 0 205 0 205
-172 -2 c-146 -3 -173 -5 -173 -18 0 -13 24 -15 148 -18 l147 -3 0 -169 0
-170 -315 0 -315 0 0 168 c0 194 -7 232 -33 205z"/>
<path d="M2930 4831 l0 -88 -56 -6 c-31 -3 -59 -9 -62 -12 -13 -13 25 -25 80
-25 71 0 78 10 78 114 0 83 -6 106 -26 106 -11 0 -14 -20 -14 -89z"/>
<path d="M2280 4415 l0 -75 100 0 100 0 0 75 0 75 -100 0 -100 0 0 -75z m160
-5 l0 -40 -60 0 -60 0 0 40 0 40 60 0 60 0 0 -40z"/>
<path d="M2587 4483 c-4 -3 -7 -37 -7 -75 l0 -68 106 0 107 0 -7 62 c-4 35
-12 68 -18 75 -11 14 -169 19 -181 6z m161 -70 l-3 -38 -54 -3 c-30 -2 -57 0
-61 5 -4 4 -6 23 -3 41 5 32 5 32 65 32 l59 0 -3 -37z"/>
<path d="M2886 4468 c-3 -13 -6 -47 -6 -75 l0 -53 105 0 c120 0 119 0 113 96
l-3 49 -101 3 c-98 3 -102 2 -108 -20z m174 -53 l0 -35 -70 0 -70 0 0 35 0 35
70 0 70 0 0 -35z"/>
<path d="M5482 2509 c-213 -36 -367 -248 -333 -459 27 -165 143 -293 305 -336
276 -74 546 174 498 457 -30 173 -149 298 -319 334 -76 16 -76 16 -151 4z
m198 -54 c68 -24 137 -79 180 -145 123 -191 50 -441 -158 -538 -49 -23 -70
-27 -152 -27 -83 1 -102 4 -152 28 -237 115 -287 424 -98 601 106 99 244 129
380 81z"/>
<path d="M5497 2256 c-78 -29 -113 -88 -105 -176 9 -87 70 -142 158 -142 76 0
125 33 156 107 51 124 -81 258 -209 211z m124 -42 c56 -28 82 -105 56 -167
-21 -48 -69 -77 -130 -77 -40 0 -53 5 -85 34 -35 32 -37 38 -37 95 0 53 4 63
30 91 47 49 101 57 166 24z"/>
<path d="M5486 2164 c-57 -57 -18 -154 61 -154 58 1 93 38 93 97 -1 75 -99
111 -154 57z m104 -24 c26 -26 25 -55 -1 -81 -34 -34 -99 -6 -99 43 0 24 35
58 60 58 11 0 29 -9 40 -20z"/>
<path d="M4445 2503 c-193 -27 -341 -181 -353 -367 -5 -81 9 -158 40 -220 33
-65 115 -144 187 -179 62 -30 73 -32 171 -32 97 0 110 2 173 32 168 80 260
262 223 442 -30 146 -124 254 -259 301 -57 20 -136 30 -182 23z m201 -72 c80
-37 138 -96 177 -179 28 -59 32 -77 32 -152 -1 -111 -33 -186 -111 -260 -180
-171 -456 -126 -575 92 -33 60 -34 67 -34 168 0 95 3 110 28 160 94 183 301
256 483 171z"/>
<path d="M4422 2275 c-153 -78 -129 -298 36 -336 104 -24 202 63 202 178 -1
143 -116 219 -238 158z m158 -41 c48 -43 66 -97 51 -150 -11 -41 -53 -99 -81
-114 -19 -10 -20 -7 -20 53 l0 64 41 7 c50 8 48 30 -4 34 -36 3 -37 4 -37 46
0 46 -20 83 -38 72 -8 -5 -10 -25 -6 -60 l6 -54 -50 0 c-91 0 -94 -28 -4 -39
l52 -6 0 -58 c0 -32 -4 -60 -9 -63 -16 -10 -96 39 -114 71 -11 19 -19 52 -19
78 0 61 28 105 82 133 65 33 102 29 150 -14z"/>
<path d="M6510 2497 c-116 -27 -230 -118 -279 -223 -95 -202 -8 -440 197 -541
52 -26 67 -28 167 -28 104 0 114 2 177 33 84 41 167 128 199 209 33 82 34 236
1 306 -84 186 -275 287 -462 244z m246 -67 c80 -39 155 -119 184 -198 18 -47
21 -73 18 -147 -3 -79 -8 -98 -37 -153 -92 -171 -298 -242 -475 -164 -69 31
-148 111 -182 185 -25 54 -29 74 -29 152 0 76 5 99 27 147 45 97 147 182 252
209 63 17 174 3 242 -31z"/>
<path d="M6542 2267 c-43 -13 -98 -76 -112 -126 -21 -79 19 -164 93 -200 114
-55 244 18 255 143 7 85 -37 154 -115 182 -44 15 -76 16 -121 1z m137 -46 c68
-48 89 -132 49 -190 -37 -55 -73 -76 -127 -75 -84 1 -141 60 -141 146 0 113
130 184 219 119z"/>
<path d="M6547 2179 c-27 -16 -49 -67 -42 -99 8 -36 58 -80 91 -80 92 0 137
115 67 170 -28 22 -86 26 -116 9z m106 -51 c22 -26 21 -30 -4 -62 -24 -30 -69
-35 -93 -10 -38 38 1 112 52 99 15 -3 35 -15 45 -27z"/>
<path d="M8593 2481 c-108 -40 -176 -103 -227 -211 -29 -60 -31 -73 -31 -170
0 -96 3 -110 29 -165 37 -75 114 -153 187 -188 340 -167 702 195 533 532 -41
82 -112 152 -192 189 -77 36 -220 42 -299 13z m257 -37 c100 -31 195 -133 226
-242 50 -171 -47 -368 -214 -433 -84 -33 -198 -32 -274 3 -75 35 -143 99 -181
173 -30 56 -32 67 -32 160 0 90 3 105 28 153 91 172 263 244 447 186z"/>
<path d="M8661 2238 c-75 -39 -111 -114 -90 -190 28 -105 135 -155 235 -109
55 25 87 71 92 136 11 133 -121 224 -237 163z m139 -29 c47 -27 70 -66 70
-121 0 -148 -194 -191 -263 -58 -33 65 -3 150 65 183 45 22 83 21 128 -4z"/>
<path d="M8693 2175 c-37 -16 -53 -42 -53 -87 0 -67 60 -110 125 -88 80 27 87
138 10 175 -39 18 -41 18 -82 0z m97 -57 c22 -40 -2 -82 -49 -86 -60 -6 -90
46 -55 96 23 34 83 27 104 -10z"/>
<path d="M7555 2486 c-70 -22 -127 -57 -176 -107 -192 -197 -131 -524 118
-642 62 -29 76 -32 168 -32 97 0 104 2 177 38 122 60 195 158 220 296 27 143
-42 305 -167 391 -92 63 -240 88 -340 56z m258 -54 c70 -31 149 -111 183 -185
24 -53 28 -75 28 -147 0 -110 -32 -186 -110 -260 -82 -77 -128 -95 -249 -95
-89 0 -106 3 -156 28 -69 33 -142 110 -174 180 -90 200 17 427 235 498 47 16
191 4 243 -19z"/>
<path d="M7584 2241 c-55 -25 -87 -71 -92 -135 -8 -102 53 -176 152 -184 156
-13 243 166 137 282 -52 56 -124 70 -197 37z m136 -29 c88 -44 106 -151 37
-219 -67 -67 -181 -52 -223 30 -21 39 -14 119 12 149 51 57 112 71 174 40z"/>
<path d="M7595 2155 c-56 -56 -18 -155 60 -155 49 0 74 15 91 56 12 29 12 39
0 68 -17 41 -42 56 -91 56 -25 0 -43 -8 -60 -25z m107 -22 c37 -33 11 -103
-39 -103 -28 0 -63 33 -63 60 0 26 34 60 62 60 12 0 30 -7 40 -17z"/>
<path d="M8330 3625 c-101 -23 -217 -85 -299 -161 -39 -36 -71 -72 -71 -79 0
-33 26 -23 83 35 72 72 147 119 237 151 93 32 256 33 357 1 84 -26 207 -105
256 -164 33 -39 57 -45 57 -13 0 20 -103 116 -164 154 -131 79 -309 109 -456
76z"/>
<path d="M8335 3451 c-105 -30 -172 -71 -222 -135 -45 -57 -15 -65 38 -10 120
125 345 162 501 83 20 -10 64 -42 98 -70 42 -35 65 -48 72 -41 15 15 -60 92
-121 126 -124 67 -243 83 -366 47z"/>
<path d="M8369 3286 c-94 -36 -169 -92 -154 -115 10 -18 24 -13 68 23 57 46
79 56 142 66 72 12 137 -8 204 -60 55 -43 71 -49 71 -24 0 22 -52 68 -108 95
-57 28 -169 36 -223 15z"/>
<path d="M8399 3140 c-38 -20 -52 -34 -62 -62 -11 -31 11 -30 39 2 31 34 85
53 117 40 12 -4 33 -20 46 -34 24 -25 51 -35 51 -17 0 16 -42 61 -70 76 -38
20 -77 18 -121 -5z"/>
</g>
</svg>
