<?xml version="1.0" standalone="no"?>
<!DOCTYPE svg PUBLIC "-//W3C//DTD SVG 20010904//EN"
 "http://www.w3.org/TR/2001/REC-SVG-20010904/DTD/svg10.dtd">
<svg version="1.0" xmlns="http://www.w3.org/2000/svg"
 width="1024.000000pt" height="1024.000000pt" viewBox="0 0 1024.000000 1024.000000"
 preserveAspectRatio="xMidYMid meet">

<g transform="translate(0.000000,1024.000000) scale(0.100000,-0.100000)"
fill="#e0e0e0" stroke="none">
<path d="M8184 9595 c-6 -24 9 -55 27 -55 14 0 30 40 24 60 -9 29 -43 25 -51
-5z"/>
<path d="M8087 9573 c-21 -21 7 -63 42 -63 19 0 12 49 -8 60 -23 12 -26 12
-34 3z"/>
<path d="M8272 9558 c-17 -17 -15 -48 4 -55 21 -8 57 28 48 50 -7 20 -35 22
-52 5z"/>
<path d="M1809 9361 c-178 -98 -441 -240 -584 -316 -143 -76 -288 -153 -322
-172 l-63 -34 0 -669 c0 -367 -2 -675 -5 -682 -4 -10 69 -49 262 -141 401
-189 961 -446 1023 -469 l55 -21 185 99 c102 54 394 205 650 334 l465 235 3
145 c2 80 0 389 -3 688 l-7 543 -132 64 c-72 35 -306 147 -521 248 -214 102
-439 209 -500 238 -60 29 -126 61 -146 70 l-37 17 -323 -177z m543 10 l211
-99 -74 -38 c-73 -36 -642 -345 -829 -449 -52 -29 -140 -75 -194 -103 l-99
-49 -96 42 c-53 24 -150 68 -216 99 l-120 57 130 67 c72 37 175 93 230 124
201 115 820 447 833 448 7 0 108 -45 224 -99z m384 -177 l86 -47 -89 -49 c-48
-27 -214 -117 -368 -200 -154 -83 -377 -204 -496 -269 -119 -66 -222 -119
-229 -119 -7 0 -57 21 -111 46 l-99 47 153 81 c83 45 224 123 312 173 168 95
612 333 680 364 22 10 48 19 58 19 9 0 56 -21 103 -46z m409 -198 c126 -62
214 -111 209 -116 -5 -4 -180 -97 -389 -205 -209 -109 -469 -244 -578 -301
-109 -57 -207 -104 -217 -104 -15 0 -452 192 -468 205 -5 4 141 86 408 228
140 75 365 196 500 271 208 115 250 134 281 132 20 -2 133 -51 254 -110z m269
-208 c3 -29 6 -318 6 -643 l0 -590 -605 -307 c-332 -170 -607 -308 -610 -308
-3 0 -5 287 -5 638 l0 638 243 126 242 125 3 -211 c1 -116 4 -217 7 -224 4
-10 48 9 155 65 l150 78 0 230 0 230 198 102 c108 56 200 103 203 103 3 0 9
-24 13 -52z m-2274 -111 c528 -243 717 -331 852 -396 l148 -71 2 -640 c3 -636
3 -640 -17 -634 -40 13 -797 359 -1007 461 l-216 105 -4 562 c-1 308 -2 596 0
639 3 75 4 78 25 71 12 -4 110 -47 217 -97z m1810 -274 l0 -198 -100 -52 -100
-52 0 202 0 202 93 47 c50 26 95 47 100 47 4 1 7 -88 7 -196z"/>
<path d="M1050 7931 l0 -128 53 -20 52 -20 6 30 c4 16 5 74 2 128 l-6 99 -45
20 c-24 11 -48 20 -53 20 -5 0 -9 -58 -9 -129z"/>
<path d="M1246 7967 c-3 -12 -6 -72 -6 -133 l0 -111 28 -13 c15 -7 42 -19 60
-26 l32 -14 0 133 0 133 -54 26 -54 27 -6 -22z"/>
<path d="M1430 7761 l0 -128 55 -20 55 -21 0 130 0 129 -46 19 c-25 11 -50 20
-55 20 -5 0 -9 -57 -9 -129z"/>
<path d="M1039 7736 c-18 -19 -8 -33 56 -70 89 -52 438 -215 447 -210 5 3 8
14 8 25 0 15 -51 44 -251 142 -158 77 -254 118 -260 113z"/>
<path d="M8307 9463 c-18 -18 3 -35 116 -97 68 -37 155 -91 193 -119 81 -59
244 -221 328 -325 56 -69 58 -73 46 -102 -7 -17 -11 -53 -8 -84 8 -92 68 -151
166 -163 43 -5 50 -10 71 -45 71 -124 154 -392 167 -541 4 -39 13 -88 21 -107
14 -34 15 -34 29 -15 40 53 -51 445 -151 647 l-43 86 23 22 c89 83 65 227 -47
286 -37 19 -110 18 -153 -3 -34 -16 -36 -16 -49 3 -8 10 -52 64 -98 119 -146
173 -313 307 -504 404 -83 42 -96 46 -107 34z m903 -608 c62 -32 80 -129 35
-184 -34 -40 -84 -56 -130 -41 -131 43 -104 238 33 240 18 0 46 -7 62 -15z"/>
<path d="M8164 9445 c-8 -21 2 -45 19 -45 8 0 20 7 27 15 10 12 10 18 0 30 -7
8 -19 15 -27 15 -7 0 -16 -7 -19 -15z"/>
<path d="M7263 9423 c-36 -3 -53 -9 -58 -21 -4 -9 -9 -86 -12 -170 l-6 -152
-41 -10 c-52 -13 -180 -49 -198 -55 -9 -3 -35 38 -78 120 -36 69 -74 137 -86
152 l-20 26 -97 -46 c-54 -25 -111 -56 -128 -68 -26 -18 -29 -25 -23 -53 5
-24 51 -138 110 -272 4 -9 -85 -89 -172 -156 -7 -5 -54 19 -126 65 -63 40
-130 79 -148 87 -32 13 -34 13 -61 -20 -15 -18 -54 -69 -85 -112 l-57 -79 63
-64 c35 -36 90 -86 121 -112 l58 -47 -19 -31 c-10 -16 -37 -73 -60 -125 -24
-52 -43 -96 -44 -97 -1 -2 -230 31 -288 42 -26 4 -28 1 -54 -78 -14 -45 -27
-106 -28 -136 -1 -52 1 -55 32 -74 19 -11 82 -39 140 -63 l107 -43 3 -139 3
-139 -88 -23 c-49 -12 -117 -34 -152 -48 l-63 -25 6 -59 c8 -66 42 -185 59
-207 9 -10 34 -12 117 -7 58 4 126 9 151 12 l46 5 67 -136 67 -136 -106 -110
c-58 -61 -105 -115 -105 -121 0 -15 150 -199 168 -205 7 -3 59 26 115 64 56
39 116 77 133 86 l31 16 87 -60 c62 -44 85 -66 82 -77 -3 -10 -10 -37 -16 -62
-6 -25 -23 -82 -38 -127 -35 -111 -30 -120 93 -180 74 -36 98 -43 109 -34 7 6
55 67 105 134 l92 123 87 -23 c48 -12 100 -22 115 -22 15 -1 29 -7 31 -13 2
-7 9 -80 15 -162 6 -82 16 -155 22 -163 8 -9 41 -13 115 -13 128 0 149 7 158
54 6 33 36 270 36 289 0 4 10 7 23 8 12 0 61 10 108 22 l86 22 89 -140 c81
-126 92 -140 116 -138 24 1 173 67 206 91 14 10 -8 102 -63 261 -14 41 -25 75
-25 76 0 1 28 20 63 43 34 23 82 59 107 81 l45 39 114 -79 c63 -44 125 -79
137 -79 21 0 118 90 175 163 l21 28 -23 27 c-13 15 -64 68 -113 119 l-89 91
58 115 58 116 157 -6 156 -6 12 29 c26 66 47 180 43 232 -1 16 -82 53 -194 87
l-86 26 -3 144 -3 144 95 32 c52 17 115 41 140 53 40 18 45 25 47 56 1 19 -10
82 -25 140 l-27 105 -50 0 c-27 0 -99 -3 -160 -7 l-110 -7 -59 121 -59 121
107 101 c59 56 107 105 106 109 0 10 -106 166 -143 211 l-23 28 -49 -29 c-28
-16 -90 -55 -138 -87 -87 -56 -89 -56 -111 -39 -114 90 -146 118 -143 127 18
48 77 281 74 290 -3 6 -52 40 -111 75 -103 62 -107 63 -122 45 -8 -10 -51 -70
-96 -132 -75 -105 -83 -113 -107 -107 -67 17 -159 35 -183 35 -57 0 -58 1 -58
140 0 133 -10 184 -38 195 -22 9 -153 14 -219 8z m200 -125 c4 -46 7 -111 7
-145 l0 -62 -115 -3 -115 -3 0 130 c0 72 4 135 8 142 7 11 52 17 158 21 l51 2
6 -82z m-637 -180 c30 -59 54 -113 53 -120 0 -7 -45 -34 -100 -60 l-99 -47
-26 51 c-24 48 -94 208 -94 216 0 2 42 23 93 46 69 33 95 41 105 33 8 -6 38
-59 68 -119z m1244 72 c38 -22 71 -44 74 -48 4 -7 -60 -228 -69 -240 -5 -6
-235 112 -235 120 0 4 20 34 43 65 24 32 57 77 72 101 15 23 32 42 37 42 5 0
40 -18 78 -40z m-545 -181 c568 -67 1023 -488 1140 -1054 9 -44 19 -138 22
-210 9 -225 -34 -422 -137 -630 -185 -373 -523 -629 -938 -712 -118 -23 -365
-23 -482 0 -266 53 -502 178 -690 367 -393 393 -497 978 -264 1489 79 172 255
390 404 498 278 202 613 292 945 252z m1106 -275 c22 -35 38 -68 34 -74 -10
-15 -176 -160 -184 -160 -4 0 -42 43 -85 95 l-77 95 113 74 113 75 22 -21 c13
-12 41 -50 64 -84z m-2339 14 c47 -33 92 -65 98 -73 9 -11 -4 -33 -61 -104
-40 -50 -78 -91 -84 -91 -6 0 -55 41 -108 91 l-96 90 62 83 c71 96 54 96 189
4z m2647 -669 c12 -55 21 -103 18 -105 -4 -4 -234 -84 -242 -84 -2 0 -9 26
-15 58 -6 31 -20 90 -31 130 -12 41 -19 76 -17 78 3 2 56 8 119 12 63 5 121
10 129 11 12 1 21 -23 39 -100z m-2981 75 c59 -9 110 -19 113 -23 4 -3 -4 -46
-17 -96 -12 -49 -23 -102 -23 -117 -1 -22 -6 -28 -22 -28 -23 0 -239 88 -239
97 0 3 9 45 21 94 24 103 10 97 167 73z m71 -691 c36 -136 49 -208 38 -215
-10 -7 -68 -10 -229 -12 -33 -1 -33 0 -56 79 -12 44 -21 89 -20 99 2 15 26 26
113 52 143 42 142 42 154 -3z m2792 8 c46 -16 98 -34 115 -41 l32 -11 -19 -87
c-11 -47 -23 -90 -28 -95 -13 -13 -273 3 -268 17 3 6 18 64 33 129 16 64 34
117 40 117 5 0 48 -13 95 -29z m-141 -752 c0 -5 -28 -38 -62 -74 l-63 -66 -80
55 c-44 31 -92 66 -108 78 l-27 23 77 94 77 94 93 -97 c51 -54 93 -102 93
-107z m-2365 106 c21 -27 53 -66 72 -86 l34 -36 -110 -76 c-61 -42 -112 -77
-115 -77 -2 0 -32 34 -66 76 l-63 76 97 96 c53 53 100 91 104 86 5 -5 25 -31
47 -59z m602 -429 c2 -1 -95 -136 -143 -201 l-21 -28 -74 39 c-86 45 -83 31
-33 191 l34 112 118 -56 c64 -31 118 -57 119 -57z m1166 -3 c58 -183 59 -168
-15 -203 -94 -45 -98 -44 -161 58 -30 48 -62 102 -71 120 l-17 32 43 19 c24
11 72 33 108 50 36 16 68 30 72 31 4 0 23 -48 41 -107z m-593 -170 c-6 -54
-13 -117 -16 -140 l-5 -43 -100 0 -99 0 -1 43 c-1 23 -4 86 -8 139 l-6 97 120
3 c66 2 121 2 123 1 2 -1 -1 -46 -8 -100z"/>
<path d="M7205 8879 c-260 -38 -485 -154 -675 -348 -158 -161 -251 -325 -306
-538 -35 -133 -44 -347 -20 -485 58 -340 268 -651 558 -823 691 -411 1573 -43
1769 738 30 121 37 354 14 484 -91 510 -496 900 -1010 973 -83 11 -246 11
-330 -1z m388 -35 c453 -93 804 -453 892 -916 36 -191 13 -448 -57 -632 -34
-90 -107 -226 -121 -226 -5 0 -44 21 -86 46 l-78 47 -82 167 c-45 92 -98 195
-118 228 -35 60 -37 61 -142 107 -58 25 -130 59 -159 76 l-54 30 59 28 c103
49 163 137 204 302 40 155 4 287 -105 386 -84 77 -185 100 -301 69 -162 -43
-243 -145 -253 -318 -4 -73 -8 -88 -23 -93 -9 -3 -33 -23 -52 -44 -95 -105
-56 -277 70 -314 l45 -13 -82 -19 c-144 -33 -232 -109 -299 -257 -40 -88 -185
-507 -206 -598 l-18 -74 -69 73 c-139 148 -235 327 -285 530 -23 92 -27 127
-27 261 0 134 4 169 26 260 106 424 396 734 808 865 168 53 347 63 513 29z
m38 -335 c48 -17 62 -29 49 -44 -8 -9 -5 -28 10 -64 11 -30 20 -75 20 -106 l0
-55 -38 0 c-119 0 -225 -41 -320 -125 -53 -46 -70 -55 -101 -55 -20 0 -46 -7
-57 -15 -16 -13 -17 -16 -4 -25 8 -6 39 -9 68 -8 l53 3 15 -52 c25 -86 -1
-132 -78 -140 -161 -16 -189 220 -35 291 27 12 28 13 30 117 2 84 7 112 24
144 31 59 85 105 145 126 60 21 168 25 219 8z m159 -156 c12 -23 24 -67 27
-98 l6 -56 -30 18 c-29 16 -31 21 -35 93 -3 43 -12 90 -22 110 l-18 35 26 -30
c14 -16 35 -49 46 -72z m-10 -188 c22 -23 22 -28 11 -81 -24 -122 -83 -212
-157 -240 -39 -15 -52 -15 -101 -4 -45 10 -65 21 -102 59 -26 25 -55 67 -65
93 l-17 47 37 45 c57 68 156 103 295 105 68 1 78 -1 99 -24z m-331 -340 c29
-19 61 -35 70 -35 31 0 41 -22 41 -90 0 -67 -17 -110 -44 -110 -19 0 -124 71
-181 123 l-50 45 42 36 c23 20 45 45 48 56 4 11 10 18 14 16 4 -3 32 -21 60
-41z m-185 -172 c19 -38 53 -90 77 -118 42 -49 41 -49 -20 10 -74 71 -125 140
-117 161 10 27 26 14 60 -53z m-83 -15 c44 -75 103 -138 250 -270 l87 -77 6
-133 c3 -73 7 -185 10 -249 l4 -117 -52 -7 c-30 -3 -80 -19 -113 -34 l-59 -28
-60 22 c-33 12 -87 37 -120 56 -32 18 -60 33 -60 33 -1 1 4 71 11 156 9 105
23 194 44 275 36 137 37 153 15 162 -21 8 -29 -7 -54 -102 -50 -194 -75 -275
-111 -364 l-39 -96 32 -27 c28 -23 177 -113 201 -121 11 -3 -3 -37 -15 -37
-21 0 -247 89 -356 140 -70 33 -112 59 -112 68 0 34 189 560 230 642 34 66 87
119 155 153 28 15 53 26 56 27 4 0 26 -33 50 -72z m445 -3 c10 -73 -15 -227
-49 -290 -10 -19 -10 -19 -18 0 -4 11 -8 62 -8 113 -1 80 2 98 20 123 11 16
23 45 26 64 8 48 20 44 29 -10z m-148 -74 c31 -13 32 -15 32 -72 0 -33 -4 -59
-9 -59 -18 0 -126 135 -175 218 -4 7 21 -6 56 -30 34 -24 78 -50 96 -57z m347
38 l50 -21 104 -205 c57 -113 117 -221 133 -239 16 -18 58 -49 94 -69 35 -20
64 -39 64 -42 0 -9 -48 -73 -83 -110 l-30 -32 -36 19 c-48 25 -99 72 -154 141
l-44 56 -5 104 c-8 145 -40 232 -146 397 -18 27 -11 28 53 1z m-20 -164 c13
-29 31 -79 40 -111 18 -64 32 -310 21 -366 -6 -31 -11 -36 -59 -51 -58 -18
-97 -48 -97 -75 0 -9 12 -55 25 -101 14 -47 25 -91 25 -98 0 -7 -26 -20 -57
-29 -32 -9 -64 -19 -72 -22 -11 -4 -11 -1 -2 16 14 26 14 62 1 62 -5 0 -10 5
-10 10 0 6 8 10 19 10 56 0 49 71 -10 102 l-37 19 -6 187 c-4 103 -9 203 -12
222 -4 31 1 42 46 95 65 76 89 121 102 196 l10 60 25 -36 c14 -20 35 -61 48
-90z m155 -470 c0 -10 -21 -25 -35 -25 -7 0 -13 43 -8 56 5 13 8 12 24 -2 11
-9 19 -23 19 -29z m66 -92 c9 -20 18 -51 21 -67 4 -29 0 -34 -59 -72 -69 -46
-168 -97 -174 -92 -5 6 -54 191 -51 195 7 7 214 72 230 73 12 0 24 -13 33 -37z
m-1107 -162 c121 -50 250 -105 288 -125 l68 -34 -45 5 c-124 15 -344 100 -470
180 -59 38 -85 63 -65 63 3 0 104 -40 224 -89z m686 29 c8 -12 -69 -35 -91
-26 -30 11 7 32 63 35 12 0 24 -3 28 -9z m-106 -67 c42 -20 78 -38 80 -40 2
-1 -8 -18 -23 -38 -27 -35 -28 -35 -102 -35 -74 0 -160 15 -169 30 -3 4 -2 22
1 39 5 25 17 37 53 56 25 13 54 24 65 25 10 0 53 -17 95 -37z m-249 3 c0 -24
-12 -46 -21 -40 -15 9 -10 54 6 54 8 0 15 -6 15 -14z"/>
<path d="M7705 8088 c7 -23 32 -48 47 -48 15 0 8 37 -10 53 -27 25 -45 22 -37
-5z"/>
<path d="M7446 8077 c-17 -12 -17 -14 -1 -27 19 -16 48 -3 53 24 4 20 -26 22
-52 3z"/>
<path d="M7683 8024 c-12 -9 -57 -20 -100 -25 -42 -6 -80 -12 -83 -15 -11 -11
35 -34 69 -34 77 0 151 37 151 75 0 19 -9 18 -37 -1z"/>
<path d="M5043 7899 c-48 -14 -57 -39 -42 -115 l13 -64 -38 -39 c-21 -22 -35
-44 -32 -50 13 -21 48 -11 83 24 36 36 36 36 29 103 -9 94 -5 102 55 102 63 0
108 -19 142 -59 49 -59 43 -135 -15 -175 -28 -20 -98 -20 -145 -1 -48 20 -55
19 -51 -7 7 -49 127 -75 201 -44 102 42 124 172 44 263 -57 65 -151 89 -244
62z"/>
<path d="M9406 7804 c-17 -44 8 -101 31 -72 21 26 24 56 8 72 -21 20 -31 20
-39 0z"/>
<path d="M4731 7754 c-154 -16 -256 -37 -391 -79 -121 -37 -165 -57 -174 -81
-14 -36 -4 -34 179 30 129 45 282 75 415 82 171 8 210 14 210 30 0 18 -41 34
-83 33 -18 -1 -88 -7 -156 -15z"/>
<path d="M5187 7727 c-8 -21 8 -39 29 -35 27 5 25 42 -2 46 -12 2 -24 -3 -27
-11z"/>
<path d="M9400 7681 c-14 -28 -13 -47 7 -66 16 -16 17 -16 30 1 16 22 17 56 1
72 -17 17 -26 15 -38 -7z"/>
<path d="M4064 7577 c-8 -23 14 -57 37 -57 27 0 22 37 -8 57 -20 14 -23 14
-29 0z"/>
<path d="M9391 7561 c-15 -26 -13 -52 4 -74 13 -18 14 -17 31 8 13 20 15 33 8
52 -12 34 -30 40 -43 14z"/>
<path d="M3960 7517 c0 -13 9 -32 21 -43 17 -16 22 -16 29 -4 14 22 12 35 -8
53 -26 24 -42 21 -42 -6z"/>
<path d="M3864 7465 c-9 -23 8 -50 32 -50 27 0 24 34 -3 52 -21 14 -23 14 -29
-2z"/>
<path d="M9372 7438 c-16 -16 -15 -63 2 -77 11 -10 17 -7 30 11 9 12 16 30 16
38 0 16 -18 40 -30 40 -3 0 -11 -5 -18 -12z"/>
<path d="M3754 7395 c-8 -21 1 -42 26 -55 16 -9 21 -8 26 5 8 21 -1 42 -26 55
-16 9 -21 8 -26 -5z"/>
<path d="M3660 7325 c-10 -13 -10 -19 5 -35 10 -11 24 -20 32 -20 22 0 27 29
8 50 -22 24 -29 25 -45 5z"/>
<path d="M9352 7318 c-17 -17 -15 -65 3 -72 8 -3 19 3 25 14 13 24 13 33 -3
53 -10 14 -15 15 -25 5z"/>
<path d="M3420 7138 c-91 -66 -210 -146 -265 -178 -175 -102 -187 -110 -182
-123 2 -6 10 -13 18 -15 33 -6 491 278 588 365 31 28 43 44 38 56 -3 9 -12 17
-19 16 -7 0 -87 -55 -178 -121z"/>
<path d="M9321 7187 c-15 -15 -14 -67 2 -67 20 0 37 21 37 46 0 25 -22 38 -39
21z"/>
<path d="M9256 6995 c-62 -180 -191 -413 -300 -544 -40 -47 -41 -52 -24 -69
17 -17 45 3 53 37 3 17 16 33 31 40 51 23 209 299 278 485 38 101 43 149 15
154 -12 2 -25 -22 -53 -103z"/>
<path d="M2789 6873 c-23 -60 -59 -176 -59 -191 0 -12 12 -14 75 -8 l76 7 -7
-25 c-7 -29 3 -66 17 -66 6 0 9 20 7 46 l-3 47 40 11 c32 9 40 17 42 36 1 15
0 18 -3 8 -3 -10 -15 -20 -27 -23 -35 -7 -180 -26 -183 -23 -5 6 50 168 57
168 4 0 23 -15 41 -34 31 -32 35 -33 63 -21 29 13 29 13 6 14 -14 1 -46 19
-72 41 -26 22 -50 40 -54 40 -3 0 -10 -12 -16 -27z"/>
<path d="M4921 6861 c-42 -7 -44 -14 -66 -195 -9 -72 -17 -131 -18 -132 -1 0
-40 -9 -87 -18 -47 -10 -94 -20 -105 -23 -16 -3 -27 8 -54 54 -93 159 -133
213 -154 213 -12 -1 -69 -24 -127 -53 -105 -52 -105 -52 -102 -86 1 -19 25
-88 52 -153 28 -65 50 -122 50 -126 0 -4 -28 -29 -62 -54 -35 -26 -76 -60 -92
-76 l-28 -30 -90 54 c-96 58 -182 104 -196 104 -10 0 -91 -100 -142 -174 l-33
-49 74 -66 c41 -36 94 -85 118 -107 l45 -42 -36 -79 c-20 -44 -40 -92 -44
-107 l-7 -28 -76 6 c-42 3 -115 8 -162 12 l-87 6 -10 -49 c-21 -98 -43 -225
-40 -228 6 -5 202 -77 250 -91 26 -8 49 -18 52 -22 3 -5 6 -55 7 -112 l2 -103
-129 -47 c-170 -61 -176 -64 -168 -98 17 -80 46 -178 60 -204 l16 -31 126 7
c70 4 141 9 159 12 31 6 32 5 82 -96 l51 -101 -111 -110 -111 -109 23 -39 c29
-52 137 -171 155 -171 14 0 110 55 217 124 l58 37 77 -58 c42 -31 78 -58 79
-58 1 0 -17 -61 -41 -135 -24 -74 -46 -150 -49 -168 l-7 -33 112 -54 c61 -30
119 -55 129 -55 24 0 61 52 124 174 l50 97 35 -6 c19 -3 73 -14 120 -24 l85
-17 11 -74 c6 -41 17 -114 24 -162 l12 -88 133 0 c99 0 135 3 144 13 6 8 20
70 31 138 11 68 23 134 25 145 4 18 19 24 90 39 47 10 87 16 88 14 75 -98 180
-229 196 -243 21 -19 22 -19 114 27 50 26 102 55 115 65 l23 18 -45 147 c-25
80 -46 148 -46 150 0 2 42 36 94 76 l95 72 68 -44 c37 -24 97 -60 133 -81 l65
-38 50 54 c28 29 68 75 89 101 l38 47 -93 107 c-51 60 -101 117 -111 129 -18
20 -17 22 20 103 l37 83 70 -6 c39 -4 111 -9 161 -13 89 -6 92 -5 104 18 21
39 40 121 40 176 l0 53 -150 72 -149 73 2 113 2 112 107 44 c59 24 128 56 154
71 l47 27 -6 57 c-7 63 -42 180 -60 198 -12 12 -28 11 -272 -13 l-60 -6 -47
95 c-27 51 -48 97 -48 101 0 3 50 60 110 125 61 65 110 122 110 127 0 11 -103
144 -138 177 l-30 29 -109 -62 c-59 -35 -123 -73 -141 -85 l-34 -23 -81 65
c-45 36 -83 67 -84 68 -2 1 12 64 31 141 52 211 55 192 -39 241 -44 24 -102
50 -130 58 -49 15 -50 15 -67 -7 -10 -13 -46 -77 -79 -143 -34 -66 -63 -122
-65 -124 -2 -3 -221 38 -231 43 0 1 -9 53 -18 116 -9 63 -21 136 -27 163 l-10
47 -101 -1 c-56 -1 -117 -4 -136 -8z m234 -370 c699 -58 1210 -656 1154 -1350
-10 -126 -19 -174 -56 -286 -101 -313 -337 -587 -631 -734 -285 -143 -645
-169 -952 -70 -175 57 -344 163 -486 304 -201 198 -316 425 -359 705 -108 704
412 1365 1125 1430 47 4 87 8 90 8 3 1 55 -2 115 -7z"/>
<path d="M4863 6346 c-377 -72 -692 -327 -838 -680 -64 -155 -79 -239 -79
-431 1 -150 4 -181 27 -267 107 -400 406 -706 797 -814 136 -37 373 -45 510
-16 323 68 577 247 747 528 107 177 155 354 156 574 0 194 -32 329 -118 505
-107 216 -284 390 -510 501 -162 80 -273 106 -465 110 -102 2 -179 -1 -227
-10z m314 -37 c448 -50 813 -367 930 -806 23 -86 26 -117 26 -263 0 -147 -3
-176 -26 -265 -48 -178 -140 -344 -264 -476 -92 -97 -180 -161 -308 -224 -346
-171 -748 -144 -1072 71 -94 62 -213 178 -278 268 -58 81 -128 229 -162 341
-25 84 -27 103 -27 280 -1 170 2 199 23 275 44 159 131 320 240 444 166 190
425 325 681 355 108 12 130 12 237 0z"/>
<path d="M4580 6053 c-36 -6 -50 -30 -50 -83 0 -43 -2 -47 -37 -64 l-36 -17
-43 42 -43 42 -43 -26 c-24 -14 -52 -34 -62 -46 -19 -21 -19 -22 3 -69 l23
-48 -29 -47 -28 -46 -59 2 -59 2 -18 -50 c-27 -76 -25 -82 31 -110 50 -25 50
-26 50 -74 0 -48 -1 -50 -32 -56 -71 -14 -88 -25 -88 -59 0 -18 7 -56 15 -84
16 -52 16 -52 58 -52 23 0 57 4 74 9 30 9 35 7 64 -30 l31 -39 -31 -53 -31
-54 23 -20 c12 -11 43 -34 69 -51 l46 -32 27 32 c15 18 32 43 38 56 9 20 16
23 40 18 16 -3 35 -6 42 -6 9 0 16 -22 20 -65 9 -77 17 -82 123 -69 l67 9 -3
71 -3 70 41 14 42 14 50 -52 c27 -29 52 -52 56 -52 4 0 14 13 24 29 9 16 30
36 46 45 27 14 31 14 47 -4 16 -18 16 -22 -6 -75 -21 -50 -25 -55 -54 -55 -18
0 -53 -3 -79 -6 l-46 -7 0 -72 c0 -84 -4 -80 100 -91 76 -7 77 -8 93 -75 6
-23 2 -28 -31 -43 -21 -10 -51 -28 -67 -40 -27 -21 -27 -23 -12 -52 8 -16 33
-49 54 -73 44 -50 50 -49 128 14 l41 33 42 -25 42 -25 -7 -72 -6 -73 39 -6
c62 -11 195 -7 239 7 l40 12 0 68 0 68 48 24 47 25 45 -31 c53 -36 71 -34 114
15 34 39 33 51 -9 106 l-28 35 23 55 23 54 59 7 c32 5 64 10 71 13 16 6 16
122 -1 155 -11 22 -19 25 -71 25 l-58 0 -19 50 -19 49 28 31 c71 77 69 67 21
129 -24 31 -49 56 -55 56 -6 0 -32 -15 -58 -34 l-47 -33 -55 31 -54 31 6 56
c7 70 -3 79 -92 87 -76 6 -79 3 -89 -71 -7 -45 -10 -50 -49 -68 -55 -25 -67
-23 -96 14 -20 25 -26 46 -30 106 l-5 75 -35 12 c-19 7 -54 17 -77 23 -24 7
-43 16 -43 21 0 15 41 49 92 78 53 30 55 37 32 105 -26 78 -26 78 -179 20 -6
-2 -19 10 -29 27 -18 31 -18 31 11 71 15 22 34 48 41 58 11 16 7 23 -37 60
-27 22 -52 41 -56 41 -4 0 -28 -18 -52 -41 -27 -25 -50 -38 -59 -35 -9 3 -30
6 -48 6 l-33 0 -5 65 c-3 36 -11 72 -18 80 -12 15 -63 18 -120 8z m80 -69 c6
-14 10 -45 10 -69 l0 -43 73 -34 c86 -41 134 -81 175 -146 108 -170 67 -407
-92 -529 -102 -78 -271 -95 -387 -40 -111 53 -193 178 -205 313 -9 94 19 188
82 280 l45 66 -25 39 c-32 48 -32 54 0 76 26 17 27 17 64 -27 l37 -43 69 24
69 24 3 55 c4 74 7 80 42 80 24 0 33 -6 40 -26z m293 -102 c3 -4 -10 -24 -28
-45 -33 -38 -34 -38 -59 -22 -14 10 -26 21 -26 25 0 5 16 22 37 39 28 23 40
28 54 20 10 -5 20 -12 22 -17z m165 -214 c3 -23 -4 -32 -45 -58 l-48 -31 -17
38 c-19 43 -17 47 37 67 53 20 69 16 73 -16z m-917 -31 c3 -26 -15 -67 -29
-67 -36 0 -45 15 -33 53 10 31 15 34 36 29 14 -4 25 -10 26 -15z m932 -219
c10 -5 17 -20 17 -38 l0 -30 -65 0 c-61 0 -65 1 -65 23 0 12 3 32 6 45 6 21
11 23 48 16 22 -3 49 -10 59 -16z m-928 -94 c18 -44 15 -50 -31 -59 -43 -8
-51 -1 -56 45 -3 29 1 35 22 41 44 12 49 10 65 -27z m1295 -45 c0 -67 1 -70
28 -79 15 -6 34 -14 42 -18 8 -5 34 -19 57 -32 l42 -23 41 37 42 38 24 -23 24
-23 -45 -46 -45 -46 27 -79 c15 -44 32 -83 38 -87 5 -4 35 -8 66 -8 l57 0 5
-37 c2 -21 2 -41 0 -45 -2 -5 -25 -8 -51 -8 -79 0 -84 -5 -121 -92 l-33 -80
38 -39 c38 -39 38 -39 19 -59 -20 -19 -20 -19 -68 12 -48 31 -49 31 -75 14
-15 -9 -51 -29 -80 -43 -38 -18 -52 -29 -48 -41 2 -10 8 -37 11 -61 8 -50 -1
-61 -53 -61 -35 0 -36 1 -48 74 l-9 48 -77 23 c-42 12 -96 34 -119 49 l-41 28
-32 -29 c-75 -69 -75 -69 -91 -47 -40 50 -39 51 25 91 33 21 60 42 60 46 0 5
-12 42 -26 83 l-26 73 -77 3 c-75 3 -76 3 -79 31 -5 44 14 59 64 51 66 -10 81
0 106 69 12 34 44 90 71 125 l48 63 -17 45 c-24 63 -8 76 40 33 l37 -32 62 18
c80 24 97 32 97 50 0 8 5 36 10 62 11 48 11 49 45 45 l35 -4 0 -69z m-370 15
l24 -5 -32 -21 c-18 -11 -32 -22 -32 -24 0 -3 11 -27 25 -54 l25 -50 -28 -31
-27 -31 -63 71 -63 70 17 28 c42 66 48 68 154 47z m-177 -152 l27 -28 -30 -29
-30 -29 -33 32 -32 32 30 25 c17 13 33 24 36 25 3 0 17 -13 32 -28z m-565 -40
c22 -17 22 -19 7 -55 -17 -42 -30 -45 -64 -16 -24 19 -24 21 -8 54 19 39 32
43 65 17z m296 -84 c12 -45 7 -56 -26 -61 -45 -6 -55 -1 -62 35 -8 41 -1 48
43 48 32 0 40 -4 45 -22z m654 -590 c7 -7 12 -27 12 -45 0 -31 -2 -33 -35 -33
-37 0 -40 5 -29 59 7 33 30 41 52 19z"/>
<path d="M4535 5749 c-22 -5 -60 -23 -85 -40 -122 -84 -161 -228 -96 -356 52
-104 147 -158 263 -151 79 5 132 27 183 78 100 100 107 270 14 378 -64 75
-184 114 -279 91z m174 -65 c160 -80 172 -304 20 -405 -118 -80 -289 -26 -346
108 -19 46 -16 140 6 189 21 46 91 111 136 123 61 18 128 12 184 -15z"/>
<path d="M5337 5064 c-106 -33 -172 -150 -148 -260 25 -112 111 -179 227 -178
105 1 186 66 214 172 44 168 -123 320 -293 266z m150 -61 c19 -9 48 -34 64
-56 23 -32 29 -50 29 -94 0 -60 -15 -96 -57 -134 -62 -58 -158 -60 -220 -6
-47 41 -63 77 -63 139 0 125 133 206 247 151z"/>
<path d="M1845 6434 c-48 -26 -73 -54 -91 -100 -39 -103 30 -212 151 -238 25
-5 36 -19 67 -79 50 -96 120 -187 222 -289 144 -143 302 -246 522 -339 l122
-52 5 -44 c6 -54 48 -116 92 -137 41 -20 117 -21 154 -1 41 21 79 69 92 118
30 114 -48 217 -166 217 -56 0 -92 -18 -134 -66 l-33 -37 -95 39 c-321 129
-611 368 -731 601 l-37 73 42 37 c45 40 73 94 73 140 -1 45 -35 108 -75 139
-46 35 -133 44 -180 18z m166 -72 c77 -86 23 -212 -91 -212 -119 0 -170 132
-84 218 33 33 37 34 91 30 47 -4 61 -10 84 -36z m1053 -926 c46 -19 76 -65 76
-116 0 -80 -50 -133 -126 -133 -70 0 -121 47 -131 120 -6 47 26 100 77 125 42
22 60 22 104 4z"/>
<path d="M8861 6344 c-25 -32 -27 -52 -4 -61 10 -4 24 3 40 21 28 33 29 42 4
56 -16 8 -23 5 -40 -16z"/>
<path d="M8760 6245 c-22 -24 -23 -27 -8 -42 16 -15 19 -15 43 1 18 12 25 24
23 39 -4 31 -30 32 -58 2z"/>
<path d="M8672 6167 c-26 -28 -28 -43 -6 -51 34 -13 75 33 53 60 -16 19 -22
18 -47 -9z"/>
<path d="M8567 6092 c-36 -40 -5 -82 34 -46 23 20 22 57 -2 62 -8 1 -23 -6
-32 -16z"/>
<path d="M8462 6018 c-17 -17 -15 -47 3 -54 21 -9 47 15 43 40 -4 24 -28 32
-46 14z"/>
<path d="M8350 5945 c-16 -19 -6 -45 18 -45 25 0 46 25 38 45 -7 19 -40 19
-56 0z"/>
<path d="M8251 5886 c-20 -22 -21 -25 -6 -40 12 -12 21 -13 36 -6 22 12 25 43
6 59 -11 8 -19 5 -36 -13z"/>
<path d="M8140 5832 c-30 -24 -21 -57 12 -47 26 8 50 34 45 50 -6 18 -33 17
-57 -3z"/>
<path d="M8031 5784 c-29 -21 -28 -54 2 -54 27 0 47 17 47 41 0 24 -24 30 -49
13z"/>
<path d="M7910 5735 c-15 -18 -9 -49 11 -53 9 -1 26 6 40 16 20 17 21 22 10
36 -17 20 -45 21 -61 1z"/>
<path d="M7082 5690 c-46 -28 -68 -82 -53 -131 6 -21 25 -49 42 -63 92 -78
232 26 186 137 -30 70 -111 96 -175 57z m129 -49 c38 -39 37 -65 -6 -108 -31
-31 -40 -35 -72 -30 -78 13 -106 79 -57 136 36 43 93 44 135 2z"/>
<path d="M7126 5624 c-9 -8 -16 -19 -16 -24 0 -5 7 -16 16 -24 8 -9 19 -16 24
-16 5 0 16 7 24 16 9 8 16 19 16 24 0 5 -7 16 -16 24 -8 9 -19 16 -24 16 -5 0
-16 -7 -24 -16z"/>
<path d="M7789 5691 c-22 -18 -23 -21 -8 -36 15 -15 19 -15 53 -1 27 11 37 21
34 33 -5 26 -50 28 -79 4z"/>
<path d="M1225 5682 c-94 -28 -162 -71 -229 -144 -145 -156 -194 -368 -132
-572 24 -77 31 -89 64 -110 45 -28 56 -41 71 -85 10 -30 9 -37 -9 -56 -11 -12
-18 -28 -15 -36 3 -8 36 -37 73 -65 l67 -50 0 -52 c-1 -44 -6 -57 -31 -84 -17
-18 -41 -49 -54 -68 -13 -19 -65 -80 -115 -135 -116 -127 -167 -195 -202 -270
-36 -79 -35 -165 6 -375 54 -281 94 -583 122 -935 6 -77 13 -329 15 -560 2
-231 6 -425 9 -432 2 -7 40 -33 85 -59 l80 -47 0 -411 c0 -226 -3 -455 -7
-508 l-6 -97 -298 -3 c-311 -3 -346 -8 -298 -42 22 -15 410 -16 4699 -16 2571
0 4685 3 4698 6 12 4 22 14 22 24 0 23 -37 30 -156 30 -80 0 -93 2 -98 18 -18
60 -29 413 -27 872 1 521 -3 616 -38 820 -18 104 -18 105 2 139 37 62 35 170
-7 346 -68 287 -125 561 -156 760 -38 236 -79 404 -121 491 -16 35 -65 110
-107 166 -133 178 -189 274 -198 342 -6 38 -2 50 23 87 47 68 72 123 78 171
12 83 14 88 40 88 33 0 45 27 45 104 0 268 -179 446 -450 446 -183 0 -333 -87
-456 -265 l-38 -55 20 -28 c11 -15 34 -34 52 -42 29 -14 32 -19 32 -61 0 -76
-17 -144 -50 -195 -38 -60 -38 -76 0 -107 29 -25 30 -28 30 -114 0 -139 29
-178 144 -190 l54 -6 6 -60 c7 -55 5 -62 -18 -86 -43 -45 -29 -66 24 -36 42
24 42 17 -1 -40 -35 -46 -40 -60 -35 -87 3 -18 -1 -64 -10 -103 -50 -227 -56
-268 -90 -598 -5 -52 -11 -63 -55 -110 l-48 -52 0 60 c-1 158 64 471 156 748
25 79 32 112 24 120 -21 21 -51 -25 -85 -132 -46 -141 -90 -319 -116 -466 -11
-66 -23 -127 -26 -136 -3 -12 -46 -27 -154 -54 -83 -20 -154 -35 -158 -33 -5
1 -100 101 -212 220 -111 120 -206 216 -209 213 -4 -2 -163 -65 -352 -139
-480 -188 -451 -174 -438 -198 6 -11 61 -73 122 -137 169 -176 158 -160 146
-206 -16 -58 1 -103 64 -162 63 -60 130 -97 158 -88 11 4 28 16 38 27 11 11
27 18 37 16 17 -3 17 -5 -4 -26 -12 -12 -33 -22 -47 -22 -30 0 -45 -26 -45
-78 0 -48 31 -96 88 -136 64 -45 130 -46 256 -6 95 31 100 31 113 14 15 -20
-26 -28 425 82 87 21 160 35 163 32 3 -3 10 -63 15 -134 9 -124 21 -178 53
-241 14 -27 13 -53 -19 -309 -32 -259 -72 -646 -125 -1212 l-22 -232 -2920 0
-2919 0 6 63 c12 122 25 407 32 692 l7 290 41 30 41 31 2 84 c2 47 -5 164 -16
260 -10 96 -17 178 -15 181 2 4 21 3 42 -2 21 -4 132 -24 248 -44 115 -19 219
-38 230 -40 18 -4 25 -18 39 -82 9 -43 47 -208 85 -368 38 -159 81 -344 95
-410 32 -142 52 -195 72 -195 19 0 268 58 823 191 753 180 700 165 700 202 0
12 -126 530 -281 1151 l-282 1128 -47 -5 c-25 -3 -121 -24 -212 -46 -183 -45
-190 -46 -217 -29 -14 9 -37 6 -106 -11 -48 -12 -163 -37 -255 -56 -191 -40
-220 -49 -220 -68 0 -17 -56 -34 -253 -76 -76 -17 -143 -33 -148 -37 -15 -9
-9 -48 35 -257 21 -98 36 -180 33 -183 -2 -3 -87 17 -188 44 -101 27 -203 53
-226 57 -42 7 -43 8 -59 63 -102 362 -128 444 -191 607 -67 173 -194 435 -260
535 -49 74 -122 150 -144 150 -16 0 -4 68 16 90 11 12 39 19 91 24 93 9 146
29 179 68 29 35 32 71 8 129 -16 41 -16 42 7 59 31 23 18 44 -24 36 l-31 -6
28 21 c15 11 27 26 27 33 0 7 14 25 30 41 17 16 30 38 30 49 0 11 -27 60 -60
109 -34 49 -59 94 -58 99 2 6 42 25 88 42 184 70 316 153 308 193 -3 15 -18
19 -108 24 -58 4 -147 7 -199 8 l-94 1 -107 104 c-89 85 -124 112 -196 147
-84 42 -90 44 -193 46 -78 2 -122 -2 -166 -15z m245 -43 c90 -21 170 -70 269
-166 53 -50 93 -94 91 -96 -3 -2 -106 -48 -230 -102 -124 -54 -292 -128 -375
-165 -204 -92 -304 -134 -310 -128 -9 9 -25 111 -25 157 1 182 117 389 256
457 102 50 224 66 324 43z m728 -304 c2 -1 -37 -23 -85 -48 -171 -88 -352
-137 -505 -137 -76 0 -85 -3 -209 -60 -159 -74 -433 -190 -447 -190 -9 0 -26
30 -20 35 11 9 98 47 464 206 228 98 427 186 442 194 22 12 55 14 192 9 91 -4
166 -8 168 -9z m6563 -19 c85 -18 139 -46 199 -102 61 -57 89 -122 101 -237 5
-49 7 -92 5 -94 -2 -2 -44 7 -92 21 -87 25 -137 35 -479 95 -196 35 -245 48
-245 63 0 18 69 106 117 148 77 68 197 116 298 119 17 0 60 -6 96 -13z m-6865
-283 c32 -48 62 -93 67 -100 5 -8 -3 -17 -21 -27 -16 -8 -35 -29 -42 -46 -18
-43 -47 -60 -102 -60 -36 0 -48 -4 -48 -15 0 -20 32 -35 78 -35 38 0 40 -2 61
-49 24 -56 26 -74 10 -103 -17 -31 -71 -48 -157 -48 -100 0 -155 17 -224 69
-30 22 -58 41 -61 41 -4 0 -7 -9 -7 -21 0 -27 50 -74 112 -105 45 -23 47 -25
40 -57 -9 -41 -9 -99 1 -163 l8 -51 -45 -17 -45 -17 -178 92 c-98 51 -179 93
-180 93 -1 1 1 29 4 63 l6 61 42 11 c51 13 89 49 110 106 16 40 19 42 55 41
45 -1 76 20 59 40 -6 8 -29 14 -50 14 -61 0 -99 49 -99 127 0 39 23 73 49 73
9 0 43 -27 75 -59 71 -71 110 -92 133 -69 17 18 14 22 -47 61 -42 27 -49 67
-25 150 l16 54 117 7 c64 4 133 11 152 15 71 18 73 16 136 -76z m6586 -89 c78
-13 109 -22 113 -34 2 -8 9 -55 15 -104 17 -137 45 -166 66 -69 14 62 20 73
44 73 21 0 60 -57 60 -89 0 -12 -18 -41 -41 -66 -49 -53 -49 -80 1 -81 23 -1
38 -8 48 -22 8 -12 22 -22 32 -22 37 0 61 -34 76 -105 14 -68 14 -70 -7 -86
-23 -17 -281 -116 -328 -125 -32 -7 -35 -3 -46 79 -6 44 -5 47 17 47 35 0 93
39 79 53 -8 8 -32 8 -94 -1 -46 -7 -104 -12 -130 -12 -64 0 -71 16 -72 159 l0
114 -28 10 c-34 11 -34 19 -1 63 34 44 53 98 54 154 0 58 10 92 24 87 6 -3 59
-13 118 -23z m322 -55 c149 -25 171 -33 186 -69 20 -48 -25 -166 -86 -227 -30
-30 -45 -29 -77 3 -24 24 -25 27 -11 59 43 103 -20 212 -116 203 -23 -2 -40 1
-40 7 0 5 -3 21 -7 34 -5 21 -3 23 12 17 10 -3 73 -16 139 -27z m-7526 -593
c86 -47 191 -99 232 -117 90 -37 93 -40 47 -32 -36 5 -37 5 -88 -76 l-52 -81
-72 68 c-39 37 -119 103 -178 147 -58 44 -106 83 -107 88 0 9 51 87 57 87 2 0
75 -38 161 -84z m7691 -8 c12 -20 11 -24 -15 -44 -33 -27 -213 -135 -266 -160
l-37 -17 -40 44 c-22 24 -36 47 -33 50 4 3 43 18 87 34 44 15 123 46 175 70
52 24 100 43 105 44 6 1 16 -9 24 -21z m-7194 -185 c38 -87 115 -294 115 -310
0 -3 -28 51 -63 119 -98 191 -141 255 -183 268 l-36 12 31 19 c24 15 31 26 31
51 l0 33 30 -45 c16 -25 50 -91 75 -147z m-629 52 c55 -43 139 -115 188 -159
l89 -80 47 52 46 51 66 -167 c77 -192 123 -341 167 -532 34 -153 83 -411 78
-416 -4 -4 -99 168 -287 516 -70 129 -142 260 -160 290 -86 147 -176 246 -253
280 -84 37 -207 35 -207 -4 0 -19 22 -26 88 -26 98 -1 179 -52 251 -159 51
-75 189 -320 291 -516 46 -88 107 -198 135 -245 28 -47 70 -120 93 -162 48
-87 35 -79 227 -128 66 -16 270 -74 453 -127 378 -111 345 -88 313 -216 -22
-85 -87 -226 -108 -234 -49 -19 -1102 209 -1150 248 -25 21 -123 172 -210 324
-44 77 -134 228 -198 335 -180 299 -324 557 -345 621 -51 151 -9 267 172 465
70 78 85 90 99 81 9 -7 61 -48 115 -92z m7932 -27 c125 -168 165 -278 222
-613 41 -241 72 -394 136 -680 30 -132 57 -274 61 -315 5 -72 4 -77 -22 -108
-34 -40 -73 -61 -195 -101 -146 -49 -297 -72 -521 -78 l-196 -6 -12 84 c-12
82 -67 378 -77 410 -3 12 4 18 23 22 16 4 38 9 49 13 18 5 22 0 28 -31 4 -20
12 -48 18 -61 11 -25 150 -124 173 -124 15 0 59 49 104 113 l31 45 -51 124
c-28 67 -59 137 -69 154 l-18 32 75 122 c166 273 296 513 323 599 27 85 27
181 -1 238 -39 82 -149 153 -233 153 -88 -1 -169 -79 -268 -257 -94 -169 -87
-169 -88 -7 0 130 2 142 21 159 17 16 25 17 50 8 28 -11 39 -6 192 87 89 54
167 99 173 99 6 1 39 -36 72 -81z m-7420 -21 c6 -7 58 -105 115 -217 144 -286
222 -523 307 -945 17 -82 30 -152 30 -158 0 -21 -207 38 -214 62 -3 9 -21 106
-40 216 -64 362 -122 565 -240 846 l-65 154 30 28 c32 29 60 35 77 14z m6906
-22 c4 -10 -5 -22 -27 -35 -53 -33 -59 -22 -14 28 24 26 33 28 41 7z m427 -36
c53 -18 99 -58 120 -103 54 -119 3 -250 -291 -740 -192 -320 -218 -359 -259
-380 -46 -24 -213 -68 -568 -151 -180 -42 -335 -78 -345 -81 -13 -4 -21 14
-42 107 -15 61 -25 113 -24 113 22 13 227 102 383 166 110 46 225 95 255 110
96 49 130 96 305 419 259 479 262 485 324 527 39 26 88 31 142 13z m-481 -260
l-10 -184 -47 -97 c-25 -54 -48 -97 -49 -95 -4 3 53 395 67 467 10 51 36 107
45 98 2 -3 -1 -87 -6 -189z m-6542 -27 c70 -178 164 -470 206 -642 33 -135 78
-371 72 -377 -2 -2 -17 0 -35 3 -21 5 -33 13 -36 28 -2 11 -22 118 -45 236
-45 232 -138 610 -193 782 -19 59 -31 105 -26 103 4 -3 30 -63 57 -133z m5603
-270 c135 -139 390 -416 401 -435 4 -9 -57 -41 -190 -100 -291 -129 -310 -134
-382 -97 -50 26 -78 25 -107 -2 l-23 -21 -26 24 c-14 13 -48 54 -76 92 -55 74
-72 87 -116 87 -25 0 -52 23 -171 146 -77 80 -141 149 -141 153 0 8 665 277
691 280 9 0 72 -56 140 -127z m-3976 58 c3 -5 12 -41 19 -79 l14 -70 -57 -11
c-130 -27 -378 -79 -402 -85 -23 -6 -27 -2 -37 32 -14 48 -26 123 -19 123 10
0 354 71 407 85 70 17 68 17 75 5z m-2725 -175 c30 -55 112 -197 183 -315 71
-118 170 -285 220 -370 186 -321 181 -316 452 -385 150 -38 142 -29 144 -170
2 -189 -44 -619 -69 -650 -6 -8 -37 -19 -68 -26 -164 -34 -627 85 -796 204
l-29 20 6 161 c11 282 -12 832 -49 1166 -15 136 -60 448 -70 485 l-6 20 14
-20 c8 -11 39 -65 68 -120z m3110 113 c6 -13 50 -189 99 -393 49 -203 141
-581 205 -840 139 -572 171 -713 164 -721 -7 -6 -765 -195 -1007 -250 -85 -19
-160 -33 -167 -30 -8 3 -14 13 -14 22 0 9 -29 137 -65 284 -115 471 -116 481
-99 508 15 23 14 26 -14 56 l-30 31 15 50 c15 49 15 49 31 28 10 -11 25 -35
34 -52 11 -20 25 -31 38 -31 23 0 22 17 -7 73 -13 27 -13 28 33 55 26 15 91
59 145 98 54 39 117 79 141 89 23 9 128 37 233 61 104 24 214 51 243 60 50 14
53 17 47 41 -3 14 -9 39 -12 55 -3 16 -12 32 -19 35 -16 6 -139 -22 -568 -127
-287 -70 -333 -79 -366 -70 l-38 10 -55 228 c-78 320 -74 295 -43 281 34 -16
73 1 86 36 27 71 -66 132 -106 69 -22 -32 -31 -19 -35 51 l-4 50 85 21 c147
37 154 37 165 12 6 -13 19 -24 31 -26 20 -3 440 77 517 99 38 10 38 12 35 51
l-3 41 140 32 c77 18 143 33 148 34 4 0 12 -9 17 -21z m4198 -243 c2 -10 1
-41 -3 -70 l-6 -52 -65 -28 -66 -28 -58 64 c-32 35 -55 67 -52 71 9 9 224 67
237 64 6 -1 12 -11 13 -21z m-1112 -280 c-18 -70 -37 -93 -50 -59 -6 15 5 45
27 72 16 20 30 14 23 -13z m-4546 -55 l215 -56 22 -94 c12 -51 25 -113 29
-136 l6 -44 -48 15 c-27 8 -134 40 -239 71 -104 32 -192 59 -194 61 -4 3 -40
217 -41 240 0 8 7 10 18 6 9 -4 114 -32 232 -63z m4601 18 c2 -17 2 -19 -7
-53 -7 -30 -7 -30 14 -12 34 31 56 1 32 -43 -9 -16 -15 -17 -39 -9 -16 6 -37
19 -46 29 -15 17 -15 21 5 59 20 40 39 53 41 29z m1643 -51 c12 -29 32 -80 45
-114 l23 -62 -32 -45 c-17 -25 -36 -46 -42 -46 -5 0 -36 19 -68 43 -54 39 -58
45 -64 90 -5 47 -3 52 44 113 28 36 50 70 50 75 0 22 22 -6 44 -54z m-1341
-78 c32 -11 68 -17 82 -13 21 5 25 1 34 -33 17 -63 32 -135 29 -138 -9 -8
-202 -65 -221 -65 -80 0 -154 52 -164 114 l-6 39 35 -26 c49 -38 80 -35 117
10 34 41 40 83 16 103 -21 18 -20 44 3 35 9 -3 43 -15 75 -26z m1016 -166 c11
-49 29 -144 40 -213 12 -69 23 -137 26 -152 4 -27 2 -28 -33 -28 -106 0 -189
56 -213 142 -15 56 -27 288 -15 295 12 8 137 41 158 42 13 1 21 -19 37 -86z
m-4481 15 c2 -11 -36 -24 -175 -57 -98 -24 -210 -51 -248 -60 -42 -11 -80 -15
-92 -10 -15 5 -57 -8 -149 -47 -136 -57 -164 -63 -164 -39 0 29 64 54 239 96
97 23 264 63 371 89 107 27 200 47 205 46 6 -2 11 -9 13 -18z m-990 -162 c52
-14 96 -26 98 -29 6 -6 -72 -290 -86 -317 -6 -11 -18 -20 -27 -20 -20 0 -207
31 -212 36 -2 1 13 40 32 86 19 46 45 125 58 176 12 50 27 92 33 92 6 0 53
-11 104 -24z m432 -20 c0 -2 -25 -20 -56 -40 -59 -40 -117 -56 -128 -37 -4 6
-1 11 6 11 7 0 45 15 83 34 64 31 95 42 95 32z m-221 -118 c29 -11 22 -19 -42
-47 -43 -18 -48 -19 -43 -3 3 9 8 30 12 45 7 29 9 29 73 5z m6280 -95 c33
-170 41 -331 41 -818 0 -442 9 -724 26 -857 l6 -48 -256 0 -256 0 -5 23 c-3
12 -27 157 -55 322 -96 582 -163 854 -223 903 -11 10 -17 9 -27 -3 -10 -12 -9
-26 8 -72 32 -89 91 -301 97 -352 6 -44 -52 -329 -143 -701 l-28 -115 -253 -3
-254 -2 6 98 c17 256 159 1577 171 1590 2 1 23 -6 47 -15 38 -15 83 -18 334
-18 264 0 300 2 405 23 63 13 165 41 225 61 61 21 113 39 116 40 4 0 11 -25
18 -56z m-7376 -35 l87 -20 0 -68 c0 -57 -3 -70 -17 -74 -52 -16 -210 -56
-220 -56 -10 0 -13 32 -13 126 l0 126 38 -7 c20 -4 76 -16 125 -27z m175 -41
c32 -39 64 -514 35 -524 -7 -3 -14 9 -17 29 -5 34 -47 487 -46 501 0 11 16 8
28 -6z m-45 -792 c1 -331 -10 -637 -29 -812 l-5 -53 -55 0 -54 0 0 33 c0 18 6
82 14 143 24 183 55 485 76 754 11 140 23 282 27 315 6 56 7 58 16 30 5 -17
10 -200 10 -410z m-480 5 c-9 -64 -98 -639 -113 -733 -11 -65 -22 -122 -25
-127 -9 -15 -95 -13 -95 2 0 6 16 95 35 197 19 102 48 272 64 376 43 272 48
293 74 298 38 8 62 3 60 -13z m7170 -505 c25 -149 47 -289 50 -312 l5 -43
-124 0 c-83 0 -124 4 -124 11 0 12 114 517 131 583 6 21 12 36 14 34 2 -2 24
-125 48 -273z m-7202 -300 c3 -50 1 -60 -13 -63 -25 -5 -32 36 -18 105 15 68
26 53 31 -42z"/>
<path d="M1732 5063 c-41 -20 -62 -53 -34 -53 11 0 31 9 46 21 26 20 29 19 27
-11 0 -8 4 -22 9 -30 9 -13 12 -12 25 4 28 36 13 86 -24 86 -9 0 -31 -8 -49
-17z"/>
<path d="M1332 4912 c2 -21 9 -28 31 -30 45 -5 33 34 -16 51 -15 6 -18 2 -15
-21z"/>
<path d="M8381 4821 c-25 -25 -26 -35 -5 -55 19 -20 48 -20 64 -1 16 19 9 45
-17 62 -19 13 -24 12 -42 -6z"/>
<path d="M8354 4538 c-7 -10 29 -48 45 -48 19 0 44 29 38 44 -7 19 -72 23 -83
4z"/>
<path d="M3595 3209 c-289 -63 -518 -119 -528 -128 -11 -11 13 -111 28 -117
12 -5 562 116 718 158 62 16 77 24 73 37 -3 9 -10 35 -16 59 -9 34 -15 42 -33
41 -12 -1 -121 -23 -242 -50z m240 -10 c4 -6 5 -13 2 -16 -8 -8 -200 -56 -476
-119 -193 -44 -246 -53 -252 -42 -5 8 -3 16 6 20 7 5 112 31 232 58 120 28
274 63 343 79 69 16 128 29 132 30 4 1 10 -4 13 -10z"/>
<path d="M3660 2929 c-418 -100 -533 -129 -536 -132 -9 -8 28 -109 41 -114 8
-3 126 22 262 56 137 33 291 70 343 81 172 38 170 37 170 71 0 26 -24 100 -32
98 -2 0 -113 -27 -248 -60z m230 -13 c0 -8 -4 -17 -9 -20 -5 -4 -110 -29 -233
-57 -122 -27 -266 -61 -318 -73 -155 -39 -150 -38 -150 -22 0 10 24 22 69 36
82 24 599 148 624 149 9 1 17 -5 17 -13z"/>
<path d="M3815 2419 c-165 -43 -199 -48 -255 -44 -58 6 -71 3 -120 -22 -69
-35 -71 -55 -10 -98 64 -45 64 -70 2 -126 -31 -28 -69 -51 -104 -62 -70 -22
-90 -21 -130 3 -39 24 -48 25 -48 5 0 -35 23 -65 51 -65 15 0 41 -11 57 -24
l29 -25 352 84 c451 108 471 114 471 134 0 9 -5 33 -11 54 -13 46 -12 46 -204
3 l-150 -34 -22 26 c-11 15 -20 28 -19 29 1 1 53 13 116 27 63 14 145 35 181
46 l67 20 -9 41 c-12 53 -26 79 -42 78 -7 0 -97 -23 -202 -50z m203 -21 c-6
-18 -78 -40 -264 -82 -159 -35 -247 -45 -258 -27 -4 5 13 12 36 16 24 4 131
29 238 56 204 50 254 58 248 37z m-375 -179 c21 -6 37 -15 35 -21 -4 -10 -115
-47 -144 -48 -8 0 -8 11 -1 40 10 36 14 40 42 40 16 0 47 -5 68 -11z m417 -8
c0 -6 -4 -12 -9 -15 -7 -5 -259 -64 -636 -151 -28 -6 -27 -5 10 18 28 17 115
42 290 82 138 31 264 61 280 65 42 11 65 12 65 1z"/>
<path d="M4010 2066 c-477 -113 -706 -169 -711 -175 -12 -12 22 -131 37 -131
21 0 771 189 798 201 23 11 23 11 8 70 -8 32 -20 59 -26 58 -6 0 -54 -11 -106
-23z m90 -51 c0 -8 -16 -18 -37 -24 -188 -50 -687 -171 -703 -171 -27 0 -25
16 3 34 12 7 141 41 287 75 146 34 297 70 335 80 87 24 115 25 115 6z"/>
<path d="M3748 1751 c-219 -54 -400 -100 -403 -103 -7 -7 20 -107 33 -120 7
-7 132 20 394 86 211 52 397 100 412 106 26 9 28 13 21 46 -9 53 -26 84 -44
83 -9 0 -195 -45 -413 -98z m402 24 c0 -18 -18 -23 -417 -120 -177 -43 -325
-76 -329 -72 -23 22 18 38 223 87 120 28 283 69 363 90 80 20 148 35 153 33 4
-2 7 -10 7 -18z"/>
<path d="M7678 5669 c-22 -12 -23 -23 -4 -42 17 -17 60 -12 77 9 26 31 -32 57
-73 33z"/>
<path d="M7577 5653 c-30 -8 -18 -47 16 -51 33 -4 57 13 57 39 0 19 -28 24
-73 12z"/>
<path d="M7466 5635 c-22 -22 -5 -45 34 -45 30 0 59 25 44 40 -20 19 -61 22
-78 5z"/>
<path d="M7364 5625 c-9 -23 9 -37 42 -33 21 2 29 8 29 23 0 26 -62 35 -71 10z"/>
<path d="M7004 4922 c-74 -35 -112 -131 -81 -204 9 -20 33 -50 55 -65 l40 -29
-47 -105 c-176 -389 -563 -783 -992 -1008 -64 -34 -122 -61 -128 -61 -7 0 -26
11 -43 25 -37 31 -98 48 -144 39 -54 -10 -116 -62 -135 -114 -19 -53 -34 -60
-175 -90 -75 -16 -151 -23 -312 -27 -184 -5 -213 -8 -210 -21 5 -26 57 -33
193 -27 169 8 276 20 404 47 88 18 106 19 109 7 3 -8 22 -30 43 -50 48 -47
120 -67 176 -49 78 25 131 103 120 179 l-4 36 95 50 c465 243 827 603 1036
1031 l59 121 61 29 c80 38 101 69 101 144 0 63 -16 95 -67 133 -37 28 -104 32
-154 9z m141 -52 c71 -67 46 -176 -46 -200 -70 -19 -136 26 -146 98 -6 46 15
89 56 116 35 23 104 16 136 -14z m-1401 -1401 c105 -26 147 -128 78 -191 -57
-53 -107 -61 -179 -29 -74 34 -95 113 -46 172 24 28 72 57 96 59 5 0 27 -5 51
-11z"/>
<path d="M5730 3390 c-25 -25 -25 -42 -2 -63 28 -25 60 -21 74 9 22 48 -35 91
-72 54z"/>
</g>
</svg>
