<?xml version="1.0" standalone="no"?>
<!DOCTYPE svg PUBLIC "-//W3C//DTD SVG 20010904//EN"
 "http://www.w3.org/TR/2001/REC-SVG-20010904/DTD/svg10.dtd">
<svg version="1.0" xmlns="http://www.w3.org/2000/svg"
 width="1024.000000pt" height="1024.000000pt" viewBox="0 0 1024.000000 1024.000000"
 preserveAspectRatio="xMidYMid meet">

<g transform="translate(0.000000,1024.000000) scale(0.100000,-0.100000)"
fill="#e0e0e0" stroke="none">
<path d="M4089 9661 c-47 -9 -93 -43 -108 -78 -8 -20 -12 -553 -13 -1958 -2
-1279 -6 -1936 -13 -1947 -9 -14 -32 6 -158 137 l-148 155 21 30 21 30 -59 77
c-75 99 -295 348 -422 478 -53 55 -106 112 -117 128 l-21 27 32 91 31 90 52
-6 c118 -14 205 47 238 168 24 90 17 302 -13 396 l-21 64 29 42 c90 131 75
292 -37 385 -69 56 -180 73 -321 49 -58 -10 -66 -10 -90 8 -15 11 -77 50 -138
87 -125 75 -186 91 -240 63 -41 -21 -235 -223 -268 -279 -26 -44 -27 -50 -17
-105 6 -32 27 -113 46 -179 l36 -122 -20 -33 c-11 -19 -25 -55 -32 -81 -6 -27
-14 -48 -18 -48 -3 0 -35 9 -69 20 -154 48 -305 7 -406 -112 -195 -227 -62
-569 239 -617 33 -5 73 -7 88 -4 15 3 27 2 27 -1 0 -4 -24 -39 -54 -79 -30
-40 -65 -95 -80 -123 -30 -61 -231 -553 -301 -738 l-49 -129 33 -29 33 -29
-53 -82 c-245 -384 -305 -533 -329 -828 -12 -145 -1 -308 37 -524 26 -151 28
-177 27 -460 0 -332 -8 -420 -69 -721 -91 -446 -263 -903 -510 -1350 -61 -109
-85 -163 -83 -182 3 -23 -1 -27 -22 -27 -24 0 -166 -92 -297 -192 l-62 -48 26
-45 c52 -93 294 -448 355 -522 76 -92 96 -105 184 -117 101 -14 411 -23 469
-14 49 8 50 9 53 45 4 51 -36 126 -95 177 -44 38 -141 91 -255 140 -55 23
-119 84 -148 140 -25 49 -26 129 -4 173 16 31 16 32 -11 56 l-28 23 47 48 47
47 127 -42 c70 -23 174 -52 231 -65 l104 -24 42 47 c72 80 240 308 330 449
101 156 290 533 368 734 92 233 162 451 207 638 23 97 45 177 49 177 22 0 151
-326 240 -605 105 -334 238 -843 362 -1389 l43 -188 66 5 c36 4 84 9 106 13
l41 6 53 -133 c31 -81 51 -146 49 -164 -12 -134 17 -267 74 -331 40 -47 73
-50 211 -19 304 68 916 322 943 391 16 43 -46 119 -106 130 -62 12 -393 -24
-568 -62 l-33 -6 0 2178 0 2179 23 14 c200 127 461 251 481 231 6 -6 22 -34
36 -62 32 -64 73 -88 151 -88 108 0 196 41 246 116 l25 36 2062 -3 c1961 -4
2063 -3 2089 14 18 12 27 26 27 45 0 15 1 261 2 547 1 380 -1 526 -10 541
l-11 22 -2418 4 c-1330 2 -2428 2 -2440 0 -12 -2 -25 -11 -29 -21 -4 -9 -10
-79 -14 -156 l-6 -140 -73 -160 c-40 -88 -85 -188 -99 -222 -15 -35 -29 -63
-32 -63 -9 0 1 3741 10 3765 5 13 21 32 37 42 26 17 139 18 2624 18 l2598 0
27 -21 c15 -11 37 -33 48 -48 l21 -27 0 -4454 c0 -4439 0 -4453 -20 -4475 -31
-34 -60 -42 -185 -49 -98 -5 -115 -8 -118 -23 -3 -17 14 -18 250 -18 139 0
270 5 292 9 49 12 100 61 115 110 8 29 11 1184 11 4480 0 3804 -2 4446 -14
4469 -8 15 -28 41 -46 57 l-31 30 -2752 1 c-1514 1 -2768 -1 -2788 -5z m5510
-44 c19 -7 44 -25 55 -40 l21 -28 0 -4453 c0 -4236 -1 -4453 -18 -4479 -32
-49 -61 -60 -173 -65 -57 -3 -104 -1 -104 3 0 5 8 17 18 28 16 18 17 248 20
4485 l2 4467 -30 47 -29 48 102 -1 c56 0 117 -5 136 -12z m-6895 -1477 c14 -5
32 -21 42 -35 16 -24 15 -27 -10 -79 -50 -102 -171 -191 -294 -217 -148 -30
-134 27 52 221 50 52 100 100 111 107 24 15 65 16 99 3z m208 -117 c56 -33 59
-36 53 -66 -26 -131 -105 -266 -193 -330 -97 -72 -236 -123 -314 -115 -33 3
-33 4 -66 117 -18 62 -31 119 -28 127 3 8 19 14 38 14 18 0 57 7 85 14 157 42
252 132 307 290 6 17 7 17 32 1 15 -9 53 -33 86 -52z m404 -448 c39 -30 45
-65 13 -86 -25 -17 -16 -54 10 -44 9 4 20 7 25 8 17 3 36 -106 36 -208 1 -151
-34 -246 -103 -278 -54 -26 -95 -21 -186 23 -45 22 -87 40 -92 40 -23 0 -7
-42 22 -58 64 -36 63 -28 25 -132 -19 -52 -42 -114 -51 -138 l-18 -43 -39 38
c-22 21 -66 68 -99 104 l-59 67 29 55 c16 31 34 87 41 128 9 58 17 79 37 95
33 28 22 44 -32 44 -57 0 -73 7 -90 41 -20 38 -19 62 6 93 26 33 38 33 84 -4
43 -35 66 -28 47 14 -10 22 -4 30 88 115 135 125 195 164 238 157 19 -3 49
-17 68 -31z m-432 -855 c58 -61 106 -116 106 -124 0 -20 -50 -190 -58 -198 -7
-7 -106 161 -189 320 l-38 73 24 19 c13 11 29 20 36 20 7 0 60 -50 119 -110z
m-214 40 c0 -28 -77 -39 -127 -18 l-28 12 40 6 c63 11 115 11 115 0z m-180
-35 c63 -43 124 -49 182 -19 l26 14 102 -188 c55 -103 110 -198 120 -212 25
-32 31 -24 60 87 12 47 26 81 30 76 33 -34 189 -654 158 -623 -3 3 -60 86
-126 185 -225 339 -308 437 -410 487 -113 56 -275 50 -363 -14 -96 -69 -104
-189 -27 -418 65 -193 241 -622 262 -639 21 -16 144 18 273 75 6 3 61 -70 128
-170 l118 -175 -26 -44 c-42 -72 -101 -82 -261 -47 -182 40 -472 152 -655 252
-134 73 -311 195 -311 215 0 17 278 720 310 783 71 142 144 231 300 363 30 26
55 47 56 47 1 0 25 -16 54 -35z m620 -126 c32 -71 51 -159 34 -159 -11 0 -111
148 -116 170 -1 8 3 30 11 48 18 42 28 33 71 -59z m249 -234 c141 -159 271
-321 271 -337 0 -34 -214 -250 -314 -316 -38 -26 -38 -26 -53 -7 -47 61 -51
89 -58 370 -6 259 -18 432 -31 472 -10 26 72 -54 185 -182z m-754 138 c65 -33
125 -86 182 -160 61 -80 281 -400 302 -441 11 -21 6 -29 -66 -104 -83 -86
-209 -188 -283 -231 -53 -30 -159 -67 -194 -67 -21 0 -29 13 -69 108 -84 199
-185 466 -216 571 -52 175 -39 258 50 314 76 46 212 51 294 10z m6495 10 c10
-9 0 -1067 -11 -1078 -14 -14 -1399 -19 -2926 -10 l-1213 7 0 32 c0 17 -11 55
-25 84 l-24 52 34 81 c19 44 55 144 79 222 167 532 160 499 107 559 l-28 31
-249 -27 c-137 -15 -314 -33 -393 -40 -127 -11 -147 -16 -162 -35 -9 -11 -20
-21 -23 -21 -9 0 -7 106 3 132 l9 24 2408 -4 c1325 -2 2411 -6 2414 -9z
m-5973 -133 c24 -46 28 -69 30 -155 3 -98 3 -99 -11 -55 -26 84 -86 299 -86
307 1 15 40 -42 67 -97z m1948 60 c3 -5 0 -10 -7 -10 -25 0 -548 -69 -613 -81
-90 -17 -91 -18 -190 -289 -87 -238 -245 -644 -254 -653 -4 -4 -33 -7 -64 -5
l-56 3 192 435 c106 239 204 455 217 480 25 44 26 45 90 52 36 4 191 21 345
38 249 27 300 33 327 39 4 0 10 -3 13 -9z m45 -58 c0 -4 -31 -102 -70 -217
-38 -116 -70 -218 -70 -228 0 -21 -38 -37 -86 -37 -19 0 -34 -3 -34 -7 0 -5
14 -43 31 -86 l32 -78 -23 -50 c-25 -53 -31 -57 -50 -35 -8 11 -9 38 -5 94 12
128 -21 186 -85 152 -16 -9 -25 -9 -33 -1 -22 22 -27 9 -27 -76 0 -89 -6 -97
-34 -41 -16 32 -40 29 -44 -4 -3 -22 13 -68 46 -130 2 -4 -13 -1 -34 8 l-38
16 -26 -33 -27 -32 -106 7 c-157 10 -200 -5 -262 -89 -39 -54 -77 -95 -87 -95
-13 0 1 44 77 240 40 102 101 262 135 355 73 200 109 285 122 285 8 0 313 39
643 83 17 2 36 5 43 6 6 0 12 -3 12 -7z m-1329 -614 c157 -169 148 -152 94
-178 -38 -18 -51 -33 -76 -81 -16 -32 -35 -59 -42 -59 -31 1 -245 127 -317
188 l-35 30 66 68 c36 38 82 97 103 131 l39 63 26 -20 c15 -10 79 -74 142
-142z m1174 62 c-9 -28 -18 -50 -20 -50 -2 0 -10 20 -18 45 l-15 44 31 20 c40
26 46 12 22 -59z m-165 4 c11 -28 13 -106 4 -152 l-6 -30 -34 38 c-27 30 -34
46 -34 78 0 80 48 125 70 66z m-1626 -61 c24 -38 85 -144 136 -238 51 -93 101
-181 110 -195 10 -14 27 -44 39 -67 27 -54 56 -59 47 -9 l-7 34 122 51 121 52
52 -20 c96 -36 138 -36 271 -2 22 6 52 13 68 16 15 3 27 11 27 17 0 6 13 32
30 58 35 54 96 92 148 92 294 -4 287 -2 320 -70 11 -20 22 -49 26 -64 3 -16
11 -28 17 -28 35 0 6 87 -54 158 -41 49 -43 52 -23 52 34 0 105 -71 137 -137
21 -44 34 -62 37 -50 6 26 -15 82 -68 185 -27 50 -47 92 -44 92 2 0 22 -17 45
-37 24 -22 57 -69 80 -115 22 -43 44 -78 49 -78 16 0 12 22 -20 88 -33 69 -27
79 18 28 39 -45 55 -97 49 -159 -4 -44 -10 -56 -42 -84 -71 -61 -197 -83 -248
-42 -15 11 -38 42 -52 70 -21 43 -22 51 -9 56 9 3 26 -5 43 -21 15 -14 30 -26
33 -26 4 0 6 20 5 44 -2 34 -6 46 -20 50 -26 7 -90 -4 -102 -18 -5 -6 -50 -26
-100 -45 -137 -51 -223 -98 -493 -265 -386 -239 -492 -296 -548 -296 -57 0
-273 272 -368 465 -72 144 -78 232 -25 338 27 54 126 187 139 187 6 0 30 -30
54 -67z m213 -140 c26 -20 66 -51 88 -67 22 -17 82 -53 133 -80 50 -27 92 -52
92 -57 0 -19 -112 -33 -203 -25 l-72 7 -64 115 c-52 94 -61 117 -51 129 17 21
22 20 77 -22z m493 -144 c-23 -57 -37 -79 -51 -79 -13 0 -11 37 2 63 13 26 61
78 66 73 2 -2 -6 -28 -17 -57z m-355 -129 c9 -15 -37 -30 -52 -18 -7 6 -13 14
-13 19 0 12 57 11 65 -1z m-1627 -145 c2 -2 -8 -25 -21 -52 -33 -65 -74 -186
-92 -271 -40 -193 -44 -574 -10 -1057 56 -787 -96 -1489 -456 -2101 -44 -74
-141 -226 -156 -244 -3 -3 -46 17 -98 45 l-93 49 58 116 c337 672 522 1459
481 2043 -6 89 -25 257 -42 372 -28 191 -30 226 -26 385 9 296 61 463 231 738
l58 93 81 -57 c45 -31 83 -58 85 -59z m164 -86 l121 -61 -52 -52 c-28 -28 -75
-66 -104 -84 -55 -33 -181 -72 -193 -59 -4 4 -2 31 5 60 14 54 91 257 98 257
2 0 58 -27 125 -61z m1072 -88 c86 -121 179 -216 221 -227 49 -12 125 22 358
161 125 74 232 135 237 135 12 0 14 -3356 2 -3364 -5 -3 -21 70 -36 162 -102
613 -193 993 -345 1445 -154 454 -294 771 -586 1327 l-114 215 17 69 16 68 53
23 c40 18 57 33 70 59 9 20 20 36 23 36 4 0 41 -49 84 -109z m-814 -26 c110
-43 197 -67 365 -100 71 -14 135 -31 142 -38 13 -14 207 -375 294 -549 344
-685 595 -1474 729 -2288 37 -227 74 -525 67 -543 -8 -22 -322 -129 -474 -161
-31 -7 -32 -7 -38 41 -36 264 -125 730 -195 1019 -138 569 -307 989 -546 1357
-96 147 -100 158 -118 307 -9 74 -26 184 -37 243 l-20 108 70 77 c38 42 88 95
110 117 23 21 41 45 41 52 0 31 -38 7 -133 -86 -84 -82 -105 -98 -120 -90 -30
17 -30 -12 -3 -138 43 -191 57 -316 63 -535 6 -230 -4 -380 -43 -608 -72 -428
-281 -1007 -508 -1406 -57 -100 -261 -414 -311 -478 -14 -18 -18 -18 -137 24
-103 36 -304 116 -317 126 -2 2 17 31 41 66 129 181 278 470 367 710 187 502
250 1015 206 1663 -19 277 -24 580 -11 785 l8 126 78 17 c114 26 190 68 268
148 37 37 68 68 70 68 1 1 43 -15 92 -34z m353 -1362 c52 -87 117 -203 145
-259 176 -352 314 -794 431 -1379 51 -257 125 -685 119 -690 -5 -6 -181 -35
-209 -35 -24 0 -26 5 -73 203 -74 309 -169 663 -251 936 -104 344 -164 508
-255 693 l-49 102 14 135 c8 75 17 207 21 294 3 86 8 157 9 157 2 0 46 -71 98
-157z m-1622 -2160 l88 -47 -24 -33 c-14 -18 -37 -49 -51 -68 -42 -56 -14 -41
46 25 l55 60 132 -54 c72 -30 170 -67 217 -82 47 -16 86 -33 86 -39 0 -5 -22
-34 -48 -64 l-49 -55 -102 28 c-193 52 -551 184 -551 204 0 14 96 172 104 172
5 0 48 -21 97 -47z m2893 -175 l7 -97 -68 -34 c-154 -78 -363 -137 -650 -182
l-31 -6 -26 111 c-14 61 -26 116 -26 123 0 9 29 17 93 26 51 6 102 14 113 17
17 5 21 -2 31 -58 11 -67 39 -145 49 -136 3 4 1 41 -5 83 -18 126 -19 122 43
135 85 17 303 86 381 119 83 35 79 40 89 -101z m-3009 -43 c39 -16 72 -30 74
-31 8 -7 -62 -84 -76 -84 -8 0 -40 24 -71 54 -56 54 -56 54 -37 76 10 11 24
19 29 16 6 -2 43 -16 81 -31z m-109 -77 c39 -35 87 -76 107 -93 l37 -30 -15
-50 c-18 -58 -9 -113 30 -181 38 -65 96 -109 236 -179 128 -65 229 -140 229
-171 0 -17 -22 -17 -201 -4 -207 16 -227 22 -298 86 -75 68 -186 214 -273 359
-86 143 -111 196 -101 205 18 18 166 120 172 120 4 0 39 -28 77 -62z m3124
-218 l0 -190 -31 0 c-24 0 -42 12 -84 56 -47 48 -56 64 -69 124 -25 108 -28
103 77 154 50 24 95 45 100 45 4 1 7 -84 7 -189z m-3359 23 c67 -126 133 -226
224 -338 93 -115 141 -160 187 -179 37 -16 312 -46 416 -46 28 0 52 -4 52 -10
0 -13 -251 -13 -420 0 l-125 9 -51 55 c-70 74 -184 233 -299 415 -93 147 -96
153 -79 172 9 10 23 19 30 19 7 0 36 -44 65 -97z m3136 -45 l22 -103 -39 -36
c-40 -37 -147 -99 -172 -99 -8 0 -36 55 -69 135 -54 130 -55 135 -35 140 11 3
50 12 86 20 36 8 85 21 110 29 75 24 73 26 97 -86z m94 -154 c41 -44 68 -52
184 -55 90 -3 125 1 190 19 156 44 354 65 409 43 17 -7 16 -10 -15 -28 -48
-30 -127 -64 -339 -148 -288 -113 -509 -180 -635 -192 l-62 -6 -22 64 c-40
118 -24 164 72 207 34 16 89 50 122 75 33 26 63 46 66 47 3 0 16 -12 30 -26z
m844 -44 c12 -20 -19 -43 -125 -92 -251 -118 -463 -199 -689 -264 -155 -44
-237 -54 -259 -32 -20 20 -14 25 38 31 197 23 654 181 925 320 100 51 101 51
110 37z"/>
<path d="M3120 7451 c-14 -27 -13 -47 6 -65 25 -25 50 -19 64 14 11 26 10 33
-5 50 -23 25 -51 26 -65 1z"/>
<path d="M3235 7201 c-73 -12 -81 -30 -39 -80 21 -25 33 -31 66 -31 51 0 98
43 98 89 0 30 -1 31 -42 30 -24 -1 -61 -4 -83 -8z m75 -45 c0 -22 -26 -38 -57
-34 -32 3 -44 34 -16 41 39 10 73 7 73 -7z"/>
<path d="M5457 5943 c-4 -3 -7 -15 -7 -25 0 -10 -7 -18 -15 -18 -8 0 -15 -5
-15 -10 0 -6 7 -13 15 -16 11 -5 15 -21 15 -60 0 -62 24 -96 59 -87 28 7 26
19 -4 27 -23 6 -25 11 -25 62 0 47 3 57 20 61 11 3 20 9 20 13 0 4 -9 10 -20
13 -12 3 -20 14 -20 26 0 21 -10 27 -23 14z"/>
<path d="M5070 5882 c-71 -72 0 -188 93 -153 37 14 26 31 -16 24 -23 -3 -39 1
-56 14 -33 27 -19 43 34 43 41 0 75 18 75 41 0 14 -38 49 -54 49 -8 0 -21 3
-30 6 -10 4 -27 -6 -46 -24z m79 -11 c22 -14 5 -41 -26 -41 -42 0 -60 14 -44
34 15 18 48 21 70 7z"/>
<path d="M5602 5894 c-59 -24 -69 -88 -23 -135 37 -36 79 -38 117 -5 36 30 38
84 5 120 -28 30 -60 37 -99 20z m72 -27 c39 -29 7 -125 -37 -111 -29 9 -57 34
-57 51 0 8 7 27 15 43 17 33 48 39 79 17z"/>
<path d="M5820 5900 c-8 -5 -26 -6 -39 -3 l-24 6 6 -82 c5 -79 11 -101 22 -89
3 3 7 31 8 63 3 56 14 75 51 88 7 3 8 8 1 15 -6 7 -16 8 -25 2z"/>
<path d="M5240 5814 c0 -64 3 -85 13 -81 7 2 12 23 13 53 1 85 32 116 75 73
18 -18 20 -29 15 -69 -7 -55 8 -77 24 -35 25 65 -7 145 -58 145 -15 0 -34 -6
-41 -12 -11 -10 -14 -10 -18 0 -13 35 -23 3 -23 -74z"/>
<path d="M5885 5883 c48 -120 56 -148 46 -170 -6 -13 -17 -23 -26 -23 -17 0
-20 -16 -5 -25 25 -15 57 26 93 117 20 51 37 99 37 107 0 25 -31 -10 -52 -59
-19 -43 -20 -44 -29 -21 -23 59 -42 91 -56 91 -10 0 -13 -5 -8 -17z"/>
<path d="M4244 9285 l-25 -25 3 -564 c3 -538 4 -565 22 -585 l19 -21 2417 0
c2366 0 2418 0 2441 19 l24 19 0 571 c0 534 -1 571 -18 588 -17 17 -130 18
-2438 21 l-2420 2 -25 -25z m4853 -28 c12 -13 10 -1104 -3 -1117 -7 -7 -744
-9 -2420 -8 l-2409 3 -3 555 c-1 305 0 561 3 568 3 10 487 12 2414 10 1325 -2
2413 -7 2418 -11z"/>
<path d="M4698 8743 c-26 -58 -68 -168 -68 -180 0 -1 7 -3 16 -3 8 0 22 16 30
36 14 34 16 35 62 32 40 -3 49 -7 67 -35 17 -28 45 -45 45 -28 0 10 -68 182
-84 214 -9 17 -21 31 -27 31 -6 0 -24 -30 -41 -67z m63 -28 c11 -25 17 -50 14
-55 -3 -6 -23 -10 -44 -10 l-38 0 21 55 c11 30 22 55 24 55 2 0 12 -20 23 -45z"/>
<path d="M5890 8779 c0 -22 -5 -32 -20 -36 -25 -7 -26 -19 0 -26 16 -4 19 -15
22 -72 3 -72 18 -95 53 -81 17 6 17 8 -3 22 -25 18 -38 73 -25 111 13 39 5
113 -13 113 -9 0 -14 -11 -14 -31z"/>
<path d="M5451 8673 c3 -49 9 -87 17 -95 18 -18 120 -17 127 0 9 23 5 146 -5
162 -12 19 -17 5 -24 -74 -7 -64 -18 -86 -47 -86 -25 0 -39 37 -39 99 0 33 -5
53 -16 62 -15 12 -16 6 -13 -68z"/>
<path d="M5996 8704 c-11 -87 -6 -144 15 -144 5 0 9 24 9 53 0 62 18 101 47
105 36 5 53 -23 53 -88 0 -58 12 -85 24 -54 10 26 7 111 -5 138 -15 33 -34 39
-75 24 -25 -9 -36 -9 -47 0 -12 10 -15 5 -21 -34z"/>
<path d="M6245 8738 c-34 -19 -44 -41 -44 -88 0 -70 31 -97 90 -80 39 12 44 8
30 -19 -19 -35 -47 -44 -82 -27 -29 15 -30 14 -27 -7 3 -19 9 -22 52 -22 67 0
89 29 94 125 5 86 -2 119 -26 118 -9 0 -28 2 -42 6 -14 3 -34 1 -45 -6z m66
-39 c23 -23 21 -72 -5 -98 -20 -20 -60 -7 -74 24 -16 34 -15 38 9 69 25 31 42
33 70 5z"/>
<path d="M4906 8710 c-14 -17 -26 -43 -26 -56 0 -65 65 -119 115 -96 37 17 31
34 -9 27 -49 -10 -81 23 -72 73 7 47 19 57 66 57 56 0 55 19 -1 23 -41 3 -49
0 -73 -28z"/>
<path d="M5084 8715 c-23 -23 -26 -32 -21 -73 4 -34 12 -53 32 -69 32 -28 56
-29 86 -2 l24 20 -37 -6 c-29 -4 -42 -1 -58 15 -46 46 -10 126 51 113 25 -5
31 -3 27 8 -2 8 -21 15 -41 17 -29 3 -42 -3 -63 -23z"/>
<path d="M5251 8714 c-47 -60 -11 -154 59 -154 90 0 130 114 58 164 -36 26
-93 21 -117 -10z m96 -9 c27 -19 33 -46 18 -83 -23 -53 -85 -51 -105 4 -10 26
-5 50 18 77 18 21 41 22 69 2z"/>
<path d="M5655 8722 c-7 -18 -5 -101 3 -130 11 -38 27 -25 28 21 1 70 12 96
39 103 41 10 55 -10 55 -82 0 -59 12 -87 29 -68 13 16 -3 154 -19 164 -23 15
-128 8 -135 -8z"/>
<path d="M4240 7870 c-21 -21 -21 -29 -18 -556 l3 -536 24 -19 c23 -19 76 -19
2436 -19 2360 0 2413 0 2436 19 l24 19 3 459 c4 495 -1 615 -25 638 -13 13
-312 15 -2439 15 l-2424 0 -20 -20z m4865 -86 c4 -36 4 -276 -1 -532 l-9 -467
-2408 -3 -2407 -2 -10 26 c-11 27 -14 1001 -4 1028 6 15 228 16 2419 16 l2413
0 7 -66z"/>
<path d="M4602 7286 c3 -106 9 -138 24 -123 8 7 7 214 -1 227 -3 6 -11 10 -16
10 -7 0 -10 -41 -7 -114z"/>
<path d="M4420 7298 c0 -97 6 -138 21 -138 4 0 9 21 11 48 3 50 0 49 76 51 53
2 27 21 -29 21 l-49 0 0 40 0 40 44 0 c25 0 47 4 50 9 6 10 -41 21 -90 21
l-34 0 0 -92z"/>
<path d="M5267 7374 c-10 -11 -9 -212 2 -218 15 -9 21 21 21 102 l1 77 41 -87
c22 -49 45 -88 49 -88 5 0 27 36 49 80 22 44 41 80 43 80 1 0 2 -34 3 -75 1
-74 7 -96 22 -81 8 9 9 203 0 211 -15 15 -43 -16 -76 -86 l-37 -78 -40 82
c-37 75 -60 99 -78 81z"/>
<path d="M5040 7341 c0 -10 -8 -22 -17 -26 -16 -6 -16 -8 -2 -18 9 -7 18 -35
22 -66 8 -65 25 -86 61 -77 34 8 33 24 -1 28 -26 3 -28 7 -31 56 -3 51 -2 52
27 58 33 7 33 24 -1 24 -11 0 -22 8 -25 20 -7 25 -33 26 -33 1z"/>
<path d="M6920 7342 c0 -11 -8 -23 -17 -27 -17 -6 -17 -7 0 -19 12 -10 17 -27
17 -64 0 -63 24 -95 58 -74 9 6 6 14 -13 30 -30 26 -32 60 -5 95 25 31 25 33
0 40 -11 3 -19 11 -18 17 2 7 -3 15 -9 17 -8 3 -13 -4 -13 -15z"/>
<path d="M4706 7297 c-65 -65 7 -179 86 -136 22 13 22 13 -19 19 -44 6 -76 26
-67 41 3 5 30 9 60 9 50 0 54 2 54 23 0 33 -20 56 -57 63 -26 5 -37 1 -57 -19z
m79 -28 c0 -17 -43 -25 -57 -11 -6 6 -8 17 -5 26 7 19 62 6 62 -15z"/>
<path d="M4871 7294 c-31 -40 -28 -87 10 -118 33 -28 50 -32 80 -16 30 17 22
26 -20 22 -33 -3 -40 -1 -46 18 -9 29 -2 34 53 36 41 0 47 3 44 20 -12 66 -81
88 -121 38z m79 -9 c16 -19 4 -35 -26 -35 -28 0 -44 28 -23 41 20 13 35 11 49
-6z"/>
<path d="M5575 7307 c-18 -11 -17 -12 19 -17 55 -7 55 -24 1 -45 -43 -16 -46
-19 -43 -49 3 -31 3 -31 63 -31 56 0 60 2 63 24 6 38 -8 91 -29 112 -22 22
-45 24 -74 6z m65 -89 c0 -19 -31 -47 -46 -41 -14 5 -19 35 -7 46 11 12 53 8
53 -5z"/>
<path d="M5765 7310 c-4 -6 -15 -8 -24 -5 -16 5 -18 -2 -19 -62 -1 -68 13
-107 29 -81 5 7 6 30 2 51 -6 40 15 77 44 77 19 0 11 24 -9 28 -9 2 -19 -2
-23 -8z"/>
<path d="M5853 7313 c-25 -9 -13 -22 25 -25 48 -4 45 -19 -7 -38 -28 -10 -44
-22 -48 -37 -9 -38 14 -54 71 -51 l51 3 3 51 c4 76 -39 120 -95 97z m62 -93
c9 -15 -14 -40 -36 -40 -22 0 -33 16 -25 35 6 17 52 20 61 5z"/>
<path d="M6005 7295 c-29 -32 -33 -79 -9 -113 12 -18 25 -23 53 -22 52 3 53 2
40 -21 -9 -18 -18 -21 -54 -17 -33 4 -42 2 -38 -7 7 -20 51 -27 81 -13 33 16
57 99 47 165 -5 36 -10 43 -28 43 -12 0 -32 3 -44 6 -16 4 -29 -2 -48 -21z
m89 -38 c10 -29 -14 -77 -39 -77 -40 0 -57 58 -30 97 20 28 56 17 69 -20z"/>
<path d="M6197 7309 c-25 -14 -45 -64 -39 -95 2 -14 15 -32 28 -40 27 -18 75
-15 82 5 3 9 -1 11 -16 6 -26 -7 -62 10 -62 30 0 10 10 15 29 15 41 0 81 17
81 34 0 18 -47 56 -69 56 -9 0 -24 -5 -34 -11z m65 -33 c14 -21 -34 -34 -61
-17 -12 8 -12 12 -2 24 13 16 51 12 63 -7z"/>
<path d="M6360 7311 c-23 -6 -25 -13 -28 -65 -2 -32 0 -66 3 -75 11 -27 28 14
20 49 -8 35 9 70 34 70 24 0 31 -19 31 -81 0 -48 12 -65 24 -33 3 9 6 35 6 59
0 33 5 47 18 54 29 16 42 -6 42 -72 0 -43 3 -57 13 -54 8 2 12 25 12 65 0 77
-16 98 -62 81 -23 -7 -37 -7 -52 0 -22 12 -25 12 -61 2z"/>
<path d="M6740 7240 c0 -64 3 -80 15 -80 11 0 15 13 15 54 0 36 5 60 16 70 8
9 17 16 19 16 2 0 11 -7 19 -16 11 -10 16 -34 16 -70 0 -55 13 -72 24 -31 12
44 6 95 -13 118 -17 22 -22 23 -50 12 -18 -6 -33 -7 -37 -2 -15 26 -24 1 -24
-71z"/>
<path d="M6586 7288 c-22 -31 -20 -84 4 -108 20 -20 63 -26 94 -14 25 10 8 24
-22 18 -31 -6 -69 17 -58 34 4 7 18 12 31 12 35 0 75 18 75 33 0 46 -96 65
-124 25z m86 -12 c14 -21 -33 -34 -61 -17 -12 8 -13 12 -1 25 14 17 49 13 62
-8z"/>
<path d="M4241 5206 c-8 -10 -11 -164 -9 -576 l3 -562 27 -23 27 -23 2318 -3
c1275 -2 2360 -3 2411 -1 85 3 94 5 108 27 14 21 16 91 16 573 0 371 -3 556
-11 569 -5 11 -25 23 -42 27 -17 3 -1113 6 -2434 6 -2032 0 -2404 -2 -2414
-14z m4731 -32 l128 -7 0 -548 c0 -348 -4 -550 -10 -554 -5 -3 -1084 -6 -2397
-5 -2127 0 -2389 2 -2403 15 -13 14 -15 84 -18 528 -2 282 0 526 3 544 l6 32
2281 1 c1255 0 2339 -3 2410 -6z"/>
</g>
</svg>
