<?xml version="1.0" standalone="no"?>
<!DOCTYPE svg PUBLIC "-//W3C//DTD SVG 20010904//EN"
 "http://www.w3.org/TR/2001/REC-SVG-20010904/DTD/svg10.dtd">
<svg version="1.0" xmlns="http://www.w3.org/2000/svg"
 width="1024.000000pt" height="1024.000000pt" viewBox="0 0 1024.000000 1024.000000"
 preserveAspectRatio="xMidYMid meet">

<g transform="translate(0.000000,1024.000000) scale(0.100000,-0.100000)"
fill="#e0e0e0" stroke="none">
<path d="M930 9716 c-144 -32 -243 -132 -287 -289 -12 -44 -14 -283 -13 -1605
1 -1503 2 -1555 20 -1616 33 -106 94 -182 184 -228 95 -49 71 -48 1245 -48
l1104 0 -6 -29 c-3 -15 -37 -113 -74 -217 l-68 -189 -295 -3 c-284 -2 -329 -7
-304 -32 15 -15 2714 -14 2729 1 23 23 -29 29 -255 29 l-235 0 -103 203 c-56
111 -102 205 -102 210 0 4 457 7 1016 7 1065 0 1112 2 1209 45 67 29 144 101
179 165 59 109 56 17 56 1730 0 1100 -4 1586 -11 1615 -6 22 -19 56 -29 75
-25 49 -121 137 -177 163 l-48 22 -2840 2 c-2215 1 -2852 -1 -2895 -11z m5751
-156 c80 -22 101 -86 91 -282 l-5 -108 -2984 0 -2984 0 3 159 c3 144 5 162 24
188 11 15 32 34 45 40 31 16 5753 19 5810 3z m97 -1843 c2 -1113 0 -1398 -10
-1402 -7 -2 -1355 -6 -2995 -8 l-2983 -4 0 1402 c0 771 3 1405 7 1408 3 4
1350 6 2992 5 l2986 -3 3 -1398z"/>
<path d="M974 9436 c-28 -28 -34 -42 -34 -76 0 -57 50 -110 104 -110 71 0 119
45 119 110 0 65 -48 110 -119 110 -28 0 -44 -8 -70 -34z m118 -33 c25 -22 24
-79 -1 -93 -32 -17 -69 -12 -85 12 -21 30 -20 54 4 78 24 24 57 26 82 3z"/>
<path d="M1342 9457 c-73 -42 -73 -155 0 -193 45 -23 93 -18 130 15 29 26 33
35 33 80 0 41 -5 55 -26 77 -31 31 -101 42 -137 21z m102 -70 c19 -26 19 -30
5 -55 -29 -53 -109 -35 -109 25 0 63 66 82 104 30z"/>
<path d="M1668 9441 c-29 -26 -33 -35 -33 -81 0 -46 4 -55 33 -81 85 -76 218
8 182 116 -26 78 -120 102 -182 46z m114 -38 c39 -35 11 -103 -43 -103 -30 0
-59 31 -59 62 0 25 35 58 62 58 12 0 30 -7 40 -17z"/>
<path d="M3400 8860 c-22 -5 -26 -13 -33 -65 -4 -33 -6 -99 -4 -147 l3 -87
-65 -6 c-509 -50 -812 -185 -1097 -491 -112 -120 -199 -191 -269 -218 -22 -8
-103 -31 -180 -50 -188 -46 -248 -70 -300 -120 -57 -55 -65 -89 -65 -283 l0
-163 -44 0 c-25 0 -48 -6 -55 -14 -21 -25 -23 -79 -7 -142 9 -34 16 -95 16
-136 0 -44 5 -81 13 -91 11 -15 43 -17 295 -19 l284 -3 18 -51 c116 -332 496
-469 774 -280 101 70 182 183 208 293 l12 50 81 7 c100 7 1356 6 1564 -3 l153
-6 17 -55 c47 -148 129 -248 256 -311 74 -37 94 -42 172 -46 109 -7 182 8 274
54 169 85 257 233 261 442 l1 96 6 -82 c3 -45 9 -84 12 -88 4 -3 135 -7 292
-8 224 -2 289 1 299 11 9 9 12 38 10 97 -3 83 -3 84 23 91 14 3 30 14 35 24
14 26 12 124 -2 138 -7 7 -38 12 -70 12 l-58 0 0 121 c0 66 -4 129 -10 139
-12 23 -81 49 -279 105 -223 63 -743 192 -826 205 -97 15 -136 37 -242 134
-208 192 -493 395 -689 494 -144 72 -314 127 -437 140 l-62 7 0 142 c0 102 -4
146 -13 155 -13 13 -224 20 -272 8z m240 -102 c0 -35 -4 -68 -8 -73 -4 -6 -42
-11 -87 -10 -44 0 -90 -4 -102 -8 -23 -8 -23 -7 -23 72 l0 81 110 0 110 0 0
-62z m-5 -178 c4 -6 -32 -10 -102 -9 -70 0 -101 3 -88 9 28 12 183 12 190 0z
m179 -90 c288 -61 644 -271 1007 -591 146 -129 158 -136 295 -164 141 -29 773
-191 921 -237 67 -20 100 -35 94 -41 -6 -6 -81 -8 -190 -5 l-181 5 0 -129 0
-128 -66 0 -67 0 -74 71 c-143 135 -294 174 -493 127 -74 -18 -156 -67 -215
-129 -52 -55 -60 -59 -101 -59 l-44 0 0 100 0 100 -120 0 -120 0 0 120 0 120
-130 0 -130 0 0 -120 0 -120 -121 0 -121 0 7 74 c3 41 3 95 0 120 l-7 46 -124
0 -124 0 0 -120 0 -120 -119 0 -118 0 5 94 c2 52 2 106 -2 120 l-6 26 -125 0
-125 0 0 -104 c0 -57 -3 -111 -6 -120 -5 -13 -25 -16 -115 -16 -80 0 -109 3
-110 13 0 6 0 60 1 120 l2 107 -136 0 -136 0 0 -125 0 -125 125 0 125 0 0
-100 0 -100 -66 0 -66 0 -75 70 c-180 168 -387 202 -607 97 -39 -19 -96 -57
-128 -86 l-56 -51 -264 2 c-255 3 -263 4 -263 23 0 19 7 20 135 21 209 0 249
16 237 90 -8 46 -74 158 -120 202 -33 32 -39 34 -131 39 l-97 6 31 32 c48 50
109 74 263 106 217 44 323 106 467 274 104 122 253 236 410 315 141 71 420
147 625 170 137 15 435 4 549 -20z m-354 -1190 l0 -100 -115 0 -115 0 0 100 0
100 115 0 115 0 0 -100z m490 0 l0 -100 -97 0 c-149 0 -143 -4 -143 99 0 48 3
91 7 94 3 4 57 7 120 7 l113 0 0 -100z m493 93 c3 -5 3 -50 0 -100 l-6 -93
-113 0 -114 0 0 100 0 100 114 0 c63 0 117 -3 119 -7z m-1850 -56 c100 -47
172 -119 223 -222 33 -67 38 -85 42 -173 3 -81 1 -107 -17 -161 -93 -272 -383
-401 -637 -282 -84 39 -134 81 -184 152 -129 184 -112 423 42 585 100 106 199
145 353 141 92 -2 106 -5 178 -40z m2707 17 c270 -61 420 -377 300 -628 -107
-225 -383 -321 -605 -209 -156 78 -246 224 -246 398 0 215 136 389 346 441 69
17 124 17 205 -2z m-3360 -179 c0 -2 -7 -23 -16 -45 -13 -32 -22 -41 -47 -45
-18 -3 -147 -5 -287 -3 l-255 3 -3 48 -3 47 305 0 c169 0 306 -2 306 -5z
m2808 -42 c-7 -16 -17 -34 -22 -42 -9 -12 -144 -13 -921 -8 -839 6 -911 8
-922 24 -7 9 -13 25 -13 35 0 17 40 18 945 18 l945 0 -12 -27z m1580 -15 l-3
-43 -326 -3 -327 -2 -10 27 c-5 16 -13 36 -17 46 -7 16 13 17 340 17 l346 0
-3 -42z m-4447 -158 c-1 -41 -5 -77 -8 -80 -8 -8 -371 -13 -450 -5 l-73 7 0
72 c0 40 3 76 7 79 4 4 124 6 267 5 l259 -3 -2 -75z m2821 23 c-9 -110 -5
-107 -135 -100 -62 4 -459 7 -884 7 l-771 0 -4 75 -3 75 901 0 901 0 -5 -57z
m1558 -28 l0 -75 -260 0 -260 0 0 75 0 75 260 0 260 0 0 -75z"/>
<path d="M3235 8455 c-242 -34 -420 -86 -639 -185 l-136 -63 2 -221 3 -221
450 -3 c248 -1 465 0 482 3 25 4 35 13 40 33 11 37 5 644 -6 655 -16 16 -93
16 -196 2z m163 -342 l2 -303 -445 0 -445 0 2 181 3 182 81 43 c165 90 380
154 624 188 58 8 121 14 140 13 l35 -2 3 -302z"/>
<path d="M3514 8444 c-11 -45 3 -655 16 -668 8 -8 187 -12 595 -14 l585 -2 0
21 c0 44 -183 246 -330 365 -253 204 -484 302 -752 319 l-107 6 -7 -27z m203
-35 c189 -25 400 -121 583 -262 142 -110 330 -297 330 -328 0 -5 -207 -9 -535
-9 l-535 0 0 298 c0 164 3 302 7 305 9 10 60 9 150 -4z"/>
<path d="M2290 7304 c-195 -52 -326 -254 -293 -451 24 -137 107 -248 231 -306
62 -29 75 -32 167 -32 136 1 194 24 285 114 91 89 114 148 115 286 0 92 -3
105 -32 167 -86 182 -282 273 -473 222z m37 -81 c10 -14 25 -56 34 -92 17 -65
17 -66 -5 -78 -49 -28 -85 -5 -153 98 -30 46 -28 50 42 78 64 26 61 26 82 -6z
m214 1 c33 -15 59 -30 59 -34 0 -5 -25 -40 -56 -80 l-56 -71 -42 6 c-22 4 -43
9 -45 11 -12 11 60 194 75 194 4 0 33 -12 65 -26z m-342 -190 c60 -28 72 -37
66 -51 -4 -10 -10 -26 -12 -35 -4 -14 -16 -18 -58 -18 -60 0 -155 19 -155 31
0 5 9 33 20 63 24 63 22 63 139 10z m515 18 c8 -15 17 -44 21 -64 8 -42 5 -43
-121 -54 -76 -6 -83 -5 -93 14 -24 46 -15 61 61 97 89 43 113 44 132 7z m-286
-68 c66 -46 34 -144 -47 -144 -10 0 -30 9 -45 21 -20 16 -26 29 -26 59 0 65
66 101 118 64z m237 -119 c79 -23 79 -24 54 -89 -32 -87 -51 -86 -156 4 -58
51 -60 55 -51 83 10 28 12 29 57 22 25 -3 69 -13 96 -20z m-400 -11 c17 -26
16 -27 -17 -61 -47 -51 -119 -95 -133 -83 -16 13 -60 109 -53 116 11 10 143
54 164 54 12 0 29 -11 39 -26z m237 -81 c34 -37 91 -140 84 -152 -6 -10 -91
-41 -112 -41 -16 0 -54 118 -54 165 0 23 6 35 23 43 31 15 30 15 59 -15z
m-129 0 c11 -7 8 -48 -9 -124 -17 -75 -20 -77 -85 -59 -57 16 -62 28 -34 89
42 89 62 112 93 105 15 -4 30 -9 35 -11z"/>
<path d="M2352 6958 c-21 -21 -14 -66 13 -84 23 -15 27 -15 50 0 17 11 25 26
25 44 0 35 -16 52 -50 52 -14 0 -31 -5 -38 -12z"/>
<path d="M5095 7286 c-148 -47 -246 -157 -276 -309 -31 -154 55 -328 198 -404
154 -82 323 -60 448 58 214 203 137 557 -142 648 -72 24 -166 27 -228 7z m284
-111 c12 -12 10 -19 -15 -52 -101 -132 -144 -147 -144 -50 0 32 22 126 34 145
7 12 103 -22 125 -43z m-234 21 c15 -23 37 -163 28 -178 -12 -23 -52 -1 -120
64 -83 81 -83 79 2 119 53 25 71 24 90 -5z m364 -187 c23 -78 22 -79 -82 -79
-66 0 -99 4 -113 14 -19 15 -19 15 1 35 11 11 49 40 85 64 65 44 65 44 81 24
10 -12 22 -37 28 -58z m-456 -1 c34 -24 49 -51 40 -74 -5 -15 -18 -16 -110
-11 -57 3 -106 7 -109 9 -4 5 23 114 32 129 6 10 109 -27 147 -53z m187 -58
c41 -41 9 -109 -44 -96 -52 13 -69 53 -40 94 19 28 57 29 84 2z m-135 -90 c11
-34 -110 -160 -153 -160 -14 0 -35 31 -57 82 l-15 38 37 16 c51 23 122 43 155
43 18 1 29 -5 33 -19z m363 3 c40 -10 47 -39 20 -91 -13 -26 -31 -48 -39 -50
-19 -3 -101 58 -128 97 -13 17 -18 36 -15 46 6 15 16 16 73 10 36 -3 76 -9 89
-12z m-298 -169 c0 -97 -1 -104 -20 -104 -22 0 -130 39 -130 47 0 14 133 173
141 168 5 -4 9 -53 9 -111z m206 -27 c15 -28 15 -28 -28 -46 -24 -11 -57 -22
-75 -26 -31 -6 -32 -5 -38 37 -13 88 -11 158 5 169 12 7 27 -3 68 -48 30 -32
60 -71 68 -86z"/>
<path d="M7820 9486 c-156 -33 -260 -139 -290 -291 -8 -44 -10 -472 -8 -1585
l3 -1525 24 -60 c33 -82 124 -173 206 -206 l60 -24 700 0 700 0 57 23 c80 32
150 99 190 180 l33 67 0 1570 0 1570 -23 57 c-29 72 -109 161 -174 194 -31 16
-79 28 -131 34 -124 15 -1279 11 -1347 -4z m878 -215 c8 -5 12 -17 10 -27 -3
-18 -15 -19 -190 -19 -192 0 -218 5 -205 39 6 14 32 16 189 16 101 0 189 -4
196 -9z m692 -1641 l0 -1490 -874 0 -874 0 -4 58 c-1 31 -1 702 1 1490 l3
1432 874 0 874 0 0 -1490z"/>
<path d="M8320 8766 c-135 -30 -239 -77 -338 -151 -58 -44 -79 -75 -49 -75 6
0 39 18 72 41 91 61 205 116 292 141 197 56 454 6 653 -127 76 -52 120 -68
120 -45 0 16 -119 99 -204 142 -119 60 -243 88 -380 87 -61 -1 -136 -7 -166
-13z"/>
<path d="M8340 8579 c-131 -34 -262 -111 -234 -139 6 -6 29 2 64 25 29 19 90
47 134 62 68 23 98 28 186 28 123 0 203 -22 313 -87 37 -22 75 -38 83 -36 28
6 -19 52 -93 91 -145 76 -302 96 -453 56z"/>
<path d="M8348 8417 c-70 -24 -108 -50 -108 -74 0 -20 22 -16 90 20 58 29 71
32 154 32 79 0 103 -4 179 -33 49 -19 92 -31 95 -27 12 12 -57 62 -111 80 -29
9 -92 19 -142 21 -76 4 -100 1 -157 -19z"/>
<path d="M8490 8101 c0 -59 12 -86 24 -55 3 9 6 38 6 65 0 37 -4 49 -15 49
-12 0 -15 -13 -15 -59z"/>
<path d="M8220 8087 c0 -7 13 -34 29 -59 54 -85 72 -69 21 20 -29 50 -50 66
-50 39z"/>
<path d="M8777 8082 c-21 -23 -50 -92 -42 -101 8 -7 29 20 56 71 20 40 12 59
-14 30z"/>
<path d="M8363 7930 c-106 -38 -204 -128 -245 -228 -25 -61 -15 -61 -165 5
-94 41 -123 47 -123 23 0 -14 79 -57 177 -96 l88 -36 412 1 c319 2 422 5 455
16 78 25 263 106 278 122 28 29 -67 9 -172 -36 -53 -22 -106 -41 -117 -41 -13
0 -41 29 -84 88 -71 98 -152 161 -240 187 -70 21 -199 18 -264 -5z m300 -55
c32 -15 77 -46 100 -69 40 -38 107 -127 107 -141 0 -3 -64 -4 -142 -3 -138 3
-143 4 -146 25 -4 30 -50 73 -77 73 -24 0 -69 -45 -80 -80 -6 -19 -15 -20
-146 -20 l-139 0 21 41 c44 86 136 164 232 195 70 23 200 13 270 -21z m-123
-180 c26 -31 -9 -56 -54 -39 -16 6 -22 35 -9 47 12 12 50 7 63 -8z"/>
<path d="M8010 7925 c0 -14 85 -85 101 -85 20 0 6 21 -38 59 -52 44 -63 49
-63 26z"/>
<path d="M8974 7911 c-49 -35 -79 -69 -70 -78 10 -10 120 69 124 90 5 24 -9
21 -54 -12z"/>
<path d="M7825 7288 c-9 -49 -1 -765 8 -775 9 -8 1240 -13 1310 -5 l37 5 0
386 c0 226 -4 392 -10 401 -8 13 -96 15 -674 18 l-665 2 -6 -32z m1315 -378
l0 -370 -637 2 -638 3 -3 368 -2 367 640 0 640 0 0 -370z"/>
<path d="M8014 7095 c-10 -25 6 -35 57 -35 l49 0 0 -139 c0 -175 5 -201 36
-201 l24 0 0 171 0 171 33 -5 c39 -5 77 7 77 26 0 19 -52 27 -173 27 -76 0
-99 -3 -103 -15z"/>
<path d="M8685 7100 c-4 -6 7 -27 22 -48 16 -20 45 -60 65 -87 l36 -50 -59
-94 c-32 -52 -59 -98 -59 -103 0 -4 10 -8 23 -8 17 0 34 19 73 81 l51 81 59
-79 c40 -53 67 -79 83 -81 31 -5 27 5 -48 116 l-60 89 65 91 c35 50 64 94 64
97 0 4 -12 5 -27 3 -22 -2 -38 -18 -75 -73 -25 -38 -50 -71 -55 -72 -4 -2 -30
31 -57 72 -37 58 -54 75 -72 75 -12 0 -26 -5 -29 -10z"/>
<path d="M8410 7013 c-70 -192 -100 -285 -95 -294 9 -13 45 -11 50 4 2 6 9 31
15 55 l11 42 80 0 80 0 24 -55 c21 -46 29 -55 51 -55 21 0 25 3 19 18 -5 9
-38 97 -74 194 l-66 178 -32 0 c-30 0 -32 -3 -63 -87z m80 -10 c7 -16 20 -51
30 -79 l18 -52 -30 -6 c-52 -10 -100 -7 -96 7 13 50 53 157 58 157 4 0 13 -12
20 -27z"/>
<path d="M1414 5312 c-31 -20 -39 -60 -42 -225 l-4 -167 -27 -7 c-55 -13 -138
-63 -180 -108 -70 -76 -86 -122 -86 -245 0 -96 3 -110 28 -160 16 -30 37 -64
47 -75 18 -20 17 -28 -87 -435 -58 -228 -106 -416 -107 -417 -1 -1 -48 11
-103 27 -56 16 -118 32 -138 36 -32 6 -37 4 -33 -12 5 -27 52 -50 157 -78 51
-14 95 -27 97 -29 3 -3 -112 -455 -210 -827 -40 -150 -49 -205 -66 -390 -12
-118 -25 -251 -30 -295 -6 -44 -10 -86 -9 -95 0 -8 65 118 145 280 127 258
148 308 170 402 13 58 40 162 59 230 20 67 65 240 101 383 35 142 66 261 68
262 2 2 32 -1 67 -7 80 -12 290 -13 388 0 41 6 76 8 78 6 5 -5 71 -237 169
-596 101 -368 107 -386 243 -680 65 -140 124 -270 131 -288 7 -18 15 -31 17
-29 2 3 -12 150 -31 328 -35 323 -35 325 -104 579 -39 140 -86 318 -107 395
-20 77 -50 183 -66 236 -16 53 -29 100 -29 105 0 5 31 16 68 25 99 24 174 58
170 78 -4 22 -46 17 -161 -19 -50 -16 -92 -28 -93 -27 0 1 -13 54 -29 117 -15
63 -52 198 -82 300 -30 102 -68 235 -84 295 l-29 110 20 25 c12 14 35 54 53
90 29 59 32 74 32 155 0 81 -3 96 -32 150 -37 73 -111 144 -181 176 l-52 24 0
172 c0 164 -1 173 -22 196 -24 27 -66 41 -84 29z m40 -48 c23 -9 24 -344 1
-344 -26 0 -35 37 -35 148 0 98 8 202 16 202 1 0 9 -3 18 -6z m82 -411 c70
-24 165 -120 189 -192 23 -71 17 -179 -14 -239 -79 -154 -265 -221 -413 -149
-66 32 -132 100 -160 165 -68 152 17 350 176 411 64 25 156 26 222 4z m-267
-621 l49 -28 -88 -353 c-112 -444 -105 -424 -137 -416 -14 3 -38 9 -54 12 -16
3 -29 10 -29 16 0 6 31 131 70 277 38 146 83 322 101 393 17 70 33 127 36 127
2 0 26 -13 52 -28z m391 -49 c18 -59 65 -229 170 -620 l27 -103 -41 -11 c-23
-5 -49 -12 -58 -15 -14 -4 -22 11 -42 78 -47 157 -196 682 -193 684 7 6 103
53 109 54 4 0 17 -30 28 -67z m-225 7 c33 0 35 -2 54 -66 67 -223 193 -695
187 -701 -29 -30 -465 -27 -495 3 -4 3 142 600 180 737 7 28 15 37 26 33 8 -3
30 -6 48 -6z m-341 -873 c-34 -145 -241 -938 -247 -944 -2 -2 -27 4 -55 12
-36 11 -52 21 -52 33 0 9 12 60 26 112 24 92 224 871 224 875 0 2 27 -4 59
-12 l59 -15 -14 -61z m795 16 c108 -369 253 -925 244 -933 -4 -4 -26 -13 -47
-20 -51 -16 -52 -14 -95 141 -19 68 -80 288 -137 489 -56 201 -101 367 -99
369 6 5 67 19 92 20 19 1 25 -9 42 -66z m-1071 -1017 c-6 -21 -109 -218 -112
-215 -4 5 13 220 18 235 6 15 98 -5 94 -20z m1336 -6 c3 -17 8 -74 11 -128 l6
-97 -22 39 c-11 22 -36 74 -55 117 l-33 79 32 9 c50 14 54 13 61 -19z"/>
<path d="M1345 4736 c-42 -19 -90 -74 -105 -120 -35 -108 40 -229 155 -250 78
-15 173 35 206 108 60 132 -30 277 -170 276 -31 -1 -69 -7 -86 -14z"/>
<path d="M4565 5150 c-1401 -6 -1275 2 -1349 -80 -72 -79 -66 96 -67 -2089 l0
-1979 -192 -4 c-212 -4 -237 -10 -296 -69 -45 -44 -64 -92 -64 -159 0 -94 65
-186 150 -209 26 -8 1109 -11 3551 -11 3856 0 3549 -5 3615 58 115 108 91 291
-46 365 -39 20 -58 22 -239 25 l-198 4 0 1981 c0 1404 -3 1994 -11 2022 -13
47 -91 128 -135 140 -34 10 -2887 13 -4719 5z m4702 -61 c34 -13 70 -45 88
-80 11 -21 14 -386 19 -2017 l5 -1992 -3089 0 -3090 0 -1 33 c0 17 0 907 1
1976 1 1639 3 1948 15 1971 20 38 90 98 122 106 16 3 33 7 38 9 6 2 1327 4
2937 4 2050 1 2935 -2 2955 -10z m-3855 -4221 l3 -83 60 -8 c33 -4 439 -6 902
-5 650 2 845 6 854 15 8 8 13 42 13 85 l1 73 1103 3 c607 1 1188 -1 1292 -6
168 -7 192 -10 217 -28 98 -73 98 -200 0 -278 l-39 -31 -3533 0 -3534 0 -28
21 c-50 37 -73 81 -73 141 0 59 15 96 53 131 56 53 4 51 1404 52 l1302 0 3
-82z m1778 12 l0 -60 -855 2 c-954 3 -875 -4 -875 76 l0 42 865 0 865 0 0 -60z"/>
<path d="M6102 5014 c-40 -27 -18 -104 29 -104 29 0 59 31 59 60 0 28 -30 60
-55 60 -6 0 -21 -7 -33 -16z"/>
<path d="M3459 4483 c-2 -1445 3 -3209 9 -3215 4 -4 1276 -8 2827 -10 l2820
-3 3 1803 2 1802 -2830 0 -2830 0 -1 -377z m2995 70 c3 -21 3 -709 -1 -1529
l-6 -1491 -1376 -5 c-757 -3 -1377 -4 -1378 -3 -1 0 -4 691 -5 1533 l-3 1532
1381 0 1381 0 7 -37z m2456 -1498 l0 -1535 -1135 0 -1135 0 0 1535 0 1535
1135 0 1135 0 0 -1535z"/>
<path d="M3766 4463 c-8 -96 -8 -306 0 -327 6 -14 130 -16 1304 -16 1167 0
1300 2 1314 16 13 13 16 46 16 210 l0 194 -1314 0 -1313 0 -7 -77z m2589 15
c3 -13 4 -86 3 -163 l-3 -140 -90 -6 c-49 -4 -622 -7 -1272 -8 l-1183 -1 0
170 0 170 1270 0 1270 0 5 -22z"/>
<path d="M3942 4353 c3 -17 23 -18 241 -21 224 -2 238 -1 235 15 -3 17 -23 18
-241 21 -224 2 -238 1 -235 -15z"/>
<path d="M3950 4210 c0 -6 85 -9 238 -9 155 1 218 4 182 9 -85 12 -420 12
-420 0z"/>
<path d="M5000 4000 c-1089 -4 -1235 -7 -1235 -20 0 -13 152 -15 1298 -18
l1297 -2 0 -415 0 -415 -492 -2 -493 -3 -9 -90 c-4 -49 -5 -127 -1 -172 l7
-83 494 0 494 0 0 -580 0 -580 -1277 2 -1278 3 3 570 c2 314 6 572 9 575 2 3
288 7 634 9 l629 3 0 164 c0 152 -1 164 -19 174 -14 7 -228 9 -653 8 l-633 -3
-3 -122 -3 -123 631 0 630 0 0 -30 0 -30 -625 0 c-586 0 -626 -1 -633 -17 -4
-10 -7 -288 -7 -618 l0 -600 1316 -3 1316 -2 5 582 c3 321 3 600 0 621 l-4 37
-494 0 -494 0 0 30 0 30 495 0 495 0 0 549 c0 427 -3 551 -12 558 -22 17 -118
18 -1388 13z m35 -995 l0 -80 -612 -3 -613 -2 0 85 0 85 613 -2 612 -3 0 -80z
m1320 0 l0 -80 -472 -3 -473 -2 0 85 0 85 473 -2 472 -3 0 -80z"/>
<path d="M3777 3813 c-9 -8 -9 -576 -1 -597 9 -23 31 -19 38 7 10 37 7 544 -4
571 -9 26 -21 32 -33 19z"/>
<path d="M3960 3811 l-55 -6 0 -287 c0 -157 3 -290 7 -294 4 -4 75 -9 157 -12
l149 -5 7 66 c10 94 2 514 -10 525 -13 13 -184 21 -255 13z m220 -296 l0 -255
-120 0 -120 0 0 148 c0 82 3 197 7 255 l6 107 114 0 113 0 0 -255z"/>
<path d="M4338 3814 c-10 -3 -21 -16 -24 -29 -10 -42 0 -543 12 -555 13 -13
288 -19 301 -7 13 13 10 564 -3 577 -12 12 -255 23 -286 14z m252 -299 l0
-255 -115 0 -115 0 0 255 0 255 115 0 115 0 0 -255z"/>
<path d="M4758 3813 c-26 -4 -26 -5 -33 -118 -8 -123 5 -459 19 -472 4 -4 72
-10 150 -11 143 -4 143 -4 149 20 10 37 8 551 -2 568 -8 11 -38 15 -133 16
-68 1 -135 0 -150 -3z m242 -298 l0 -255 -115 0 -115 0 0 255 0 255 115 0 115
0 0 -255z"/>
<path d="M5140 3800 c-13 -24 -10 -563 3 -576 12 -12 287 -18 298 -7 5 5 9
130 9 294 0 256 -1 285 -17 297 -11 8 -59 12 -150 12 -123 0 -133 -1 -143 -20z
m260 -285 l0 -255 -110 0 -110 0 0 255 0 255 110 0 110 0 0 -255z"/>
<path d="M5579 3813 l-36 -4 -6 -126 c-6 -148 3 -436 14 -454 11 -18 283 -19
300 -2 10 10 13 80 13 283 0 228 -2 272 -15 285 -11 11 -44 16 -124 19 -61 2
-126 2 -146 -1z m235 -205 c3 -90 3 -205 0 -255 l-7 -93 -113 0 -114 0 0 255
0 255 113 0 114 0 7 -162z"/>
<path d="M5988 3814 c-10 -3 -20 -15 -23 -27 -3 -12 -4 -146 -3 -297 l3 -275
152 -3 c130 -2 153 0 168 14 15 15 16 45 13 295 -2 152 -6 281 -11 285 -8 9
-273 16 -299 8z m262 -299 l0 -255 -120 0 -120 0 0 255 0 255 120 0 120 0 0
-255z"/>
<path d="M3952 2607 c-24 -29 18 -37 181 -37 121 0 157 3 166 14 20 24 -5 29
-174 34 -137 4 -162 2 -173 -11z"/>
<path d="M5767 2441 c-5 -23 -15 -32 -51 -44 -43 -15 -45 -15 -51 4 -9 28 -26
24 -73 -17 -41 -35 -52 -60 -32 -80 6 -6 -1 -24 -18 -51 -20 -32 -34 -43 -57
-45 -28 -3 -30 -6 -33 -51 -3 -42 0 -48 21 -56 17 -7 27 -22 35 -52 11 -43 8
-51 -23 -62 -13 -5 22 -57 39 -57 7 0 25 -9 39 -20 21 -17 25 -27 21 -49 -5
-22 0 -32 21 -50 36 -27 49 -27 63 4 10 23 14 24 39 13 16 -6 43 -26 61 -45
38 -38 89 -46 98 -15 11 34 22 47 47 56 21 8 31 6 47 -9 19 -18 24 -18 48 -5
16 9 29 29 35 50 11 42 34 70 58 70 51 0 67 34 23 50 -15 6 -23 15 -20 23 3 6
11 31 17 54 10 34 18 42 42 47 28 6 29 8 23 48 -9 54 -13 59 -39 53 -18 -5
-29 3 -54 39 -18 25 -28 48 -23 51 21 13 10 57 -21 86 -35 33 -55 36 -79 14
-15 -13 -21 -13 -58 3 -35 14 -42 22 -42 45 0 26 -2 27 -49 27 -46 0 -49 -2
-54 -29z m153 -92 c92 -41 149 -123 158 -224 4 -56 1 -72 -22 -119 -31 -64
-70 -99 -146 -134 -99 -46 -211 -21 -291 65 -85 93 -100 178 -48 282 34 67 65
96 149 136 63 30 122 28 200 -6z"/>
<path d="M5730 2190 c-11 -11 -20 -32 -21 -47 -1 -28 -1 -28 -12 5 -13 43 -31
36 -35 -14 -4 -50 11 -89 38 -104 17 -9 22 -7 32 15 11 24 16 26 67 23 53 -3
55 -4 63 -36 11 -41 24 -34 33 16 8 51 -9 123 -36 145 -30 24 -103 23 -129 -3z
m98 -26 c12 -8 22 -26 22 -39 0 -20 -6 -25 -44 -30 -51 -8 -66 -2 -66 26 0 54
43 75 88 43z"/>
<path d="M5912 2110 c3 -92 16 -135 34 -117 14 13 9 183 -5 200 -28 34 -33 18
-29 -83z"/>
<path d="M4851 2429 c-20 -8 -22 -14 -17 -43 6 -30 3 -35 -32 -60 -30 -20 -45
-25 -70 -20 -27 6 -33 3 -43 -20 -11 -22 -9 -29 8 -49 18 -20 19 -26 8 -62
-10 -35 -16 -40 -41 -40 -24 0 -29 -4 -29 -25 0 -20 6 -26 26 -28 21 -2 30
-13 43 -45 16 -41 16 -43 -4 -59 -20 -16 -20 -19 -5 -48 17 -33 23 -35 58 -19
20 9 30 7 60 -12 30 -20 35 -28 30 -50 -10 -52 78 -83 97 -34 5 14 16 25 24
25 7 0 27 3 43 6 27 5 31 3 37 -20 8 -31 39 -35 75 -10 18 13 22 22 17 49 -5
24 -2 36 15 51 19 17 22 18 49 2 27 -15 30 -15 46 3 17 18 16 20 -6 44 -21 23
-22 28 -11 65 10 32 16 40 36 40 39 0 50 33 21 67 -37 45 -46 66 -34 86 5 10
7 30 3 44 -5 22 -10 25 -35 19 -24 -4 -37 1 -64 25 -31 27 -34 33 -24 55 9 19
8 28 -7 44 -27 30 -73 27 -85 -6 -9 -23 -14 -26 -41 -20 -18 3 -39 6 -48 6 -9
0 -21 10 -26 23 -11 25 -38 31 -74 16z m207 -105 c84 -35 135 -114 136 -209 0
-233 -310 -310 -423 -105 -62 111 -9 263 109 314 46 20 131 20 178 0z"/>
<path d="M3978 2423 c-30 -5 -38 -27 -12 -37 9 -3 144 -6 300 -6 269 0 284 1
284 18 0 17 -12 20 -122 25 -127 7 -404 7 -450 0z"/>
<path d="M3952 2213 c3 -17 24 -18 247 -21 184 -2 246 1 252 10 4 7 5 16 3 20
-3 4 -118 8 -255 8 -233 0 -250 -1 -247 -17z"/>
<path d="M3960 2031 c0 -23 42 -28 205 -23 92 3 106 6 103 20 -3 15 -23 17
-156 20 -144 2 -152 2 -152 -17z"/>
<path d="M4140 1842 c-169 -2 -214 -11 -180 -32 22 -14 457 -13 466 1 18 29
-34 35 -286 31z"/>
<path d="M6672 3494 l3 -1066 80 -25 c44 -13 249 -78 455 -144 206 -66 514
-161 683 -210 325 -94 355 -105 339 -121 -14 -14 -1 -17 -702 201 -195 61
-365 112 -378 113 -18 3 -58 -45 -247 -297 -219 -293 -225 -301 -225 -347 l0
-48 1100 0 1100 0 0 1505 0 1505 -1105 0 -1105 0 2 -1066z m788 956 c73 -186
149 -514 186 -807 6 -47 9 -53 35 -58 47 -11 29 -35 -26 -35 -28 0 -28 1 -56
212 -13 92 -26 168 -30 168 -10 0 -374 -379 -374 -389 0 -4 78 -93 173 -196
156 -171 189 -215 163 -215 -4 0 -76 73 -158 163 -226 245 -218 234 -205 260
6 12 98 114 205 227 l194 205 -24 88 c-34 123 -113 370 -122 380 -4 4 -54
-108 -110 -250 -56 -142 -107 -268 -114 -280 -12 -22 -14 -21 -117 49 -137 92
-344 243 -359 262 -10 11 2 18 66 41 300 107 565 206 599 223 21 11 42 17 46
14 4 -4 16 -32 28 -62z m1030 -195 l0 -65 76 0 c73 0 114 -11 114 -30 0 -6 -9
-19 -21 -31 -18 -18 -30 -21 -97 -17 l-77 3 0 -70 0 -70 48 -6 c95 -10 88 -79
-7 -79 l-36 0 0 -70 0 -70 74 0 c56 0 79 -4 96 -18 19 -16 21 -22 11 -40 -11
-20 -20 -22 -96 -22 l-85 0 0 -70 0 -70 39 0 c35 0 71 -19 71 -37 0 -21 -37
-43 -72 -43 -29 0 -38 -4 -38 -17 0 -10 -3 -42 -6 -70 l-7 -53 82 0 c90 0 121
-10 121 -40 0 -30 -31 -40 -119 -40 l-81 0 0 -64 0 -65 53 -3 52 -3 3 -37 3
-38 -55 0 -56 0 0 -70 0 -70 81 0 c87 0 119 -10 119 -39 0 -32 -26 -43 -110
-44 l-80 -2 0 -67 0 -68 39 0 c40 0 71 -20 71 -45 0 -25 -31 -45 -71 -45 l-39
0 0 -65 0 -65 79 0 c94 0 111 -5 111 -34 0 -38 -19 -46 -107 -46 l-83 0 0 -65
0 -65 33 0 c36 0 77 -24 77 -45 0 -25 -31 -45 -71 -45 l-39 0 0 -65 0 -65 120
0 120 0 0 -180 0 -180 -794 0 c-436 0 -808 3 -825 6 l-31 7 0 138 0 139 80 0
80 0 0 -80 0 -80 75 0 74 0 3 58 3 57 38 3 37 3 0 -61 0 -61 81 3 81 3 3 48
c3 58 14 72 49 63 24 -6 26 -11 26 -61 l0 -55 80 0 79 0 3 58 c3 54 4 57 31
60 32 4 40 -10 41 -72 l1 -41 78 -3 77 -3 0 55 c0 44 4 57 19 65 30 17 50 -7
53 -64 l3 -50 61 -3 62 -3 7 167 c4 91 4 658 0 1259 -4 601 -4 1098 -1 1104 5
7 42 11 97 11 l89 0 0 -65z m-482 40 c29 -9 52 -19 52 -22 0 -3 -74 -299 -165
-657 -90 -358 -185 -734 -210 -836 -25 -101 -49 -188 -53 -192 -6 -6 -109 17
-120 26 -2 3 223 897 353 1401 41 160 75 291 75 293 0 5 18 1 68 -13z m-775
-1255 c127 -324 156 -411 150 -443 -3 -16 -11 -31 -17 -33 -12 -4 -555 91
-563 100 -5 5 117 228 240 436 81 138 98 163 103 158 1 -2 41 -100 87 -218z
m475 -514 c2 -3 -1 -18 -7 -34 l-12 -29 -151 33 c-83 19 -152 35 -153 36 -2 2
4 19 11 39 l15 36 146 -38 c80 -21 148 -40 151 -43z"/>
<path d="M7205 4394 c-82 -31 -213 -78 -290 -106 -77 -27 -141 -51 -143 -53
-4 -4 370 -273 391 -281 12 -4 36 48 105 223 101 257 107 273 95 273 -4 -1
-75 -26 -158 -56z"/>
<path d="M8547 1893 c-27 -13 -28 -16 -13 -32 9 -10 16 -34 16 -54 0 -39 22
-52 34 -21 9 22 7 112 -2 117 -4 3 -20 -2 -35 -10z"/>
<path d="M6997 2953 c-75 -131 -139 -245 -142 -254 -5 -13 16 -19 127 -38 73
-12 187 -33 252 -47 66 -13 122 -22 124 -19 10 10 -194 563 -217 588 -4 4 -69
-99 -144 -230z"/>
<path d="M6671 2083 c0 -170 3 -324 7 -345 l7 -36 31 41 c245 329 374 511 367
517 -12 11 -374 130 -396 130 -16 0 -17 -21 -16 -307z"/>
</g>
</svg>
