<?xml version="1.0" standalone="no"?>
<!DOCTYPE svg PUBLIC "-//W3C//DTD SVG 20010904//EN"
 "http://www.w3.org/TR/2001/REC-SVG-20010904/DTD/svg10.dtd">
<svg version="1.0" xmlns="http://www.w3.org/2000/svg"
 width="1024.000000pt" height="1024.000000pt" viewBox="0 0 1024.000000 1024.000000"
 preserveAspectRatio="xMidYMid meet">

<g transform="translate(0.000000,1024.000000) scale(0.100000,-0.100000)"
fill="#e0e0e0" stroke="none">
<path d="M4856 9818 c-9 -40 -22 -102 -29 -138 l-13 -65 -79 -8 c-44 -4 -113
-17 -153 -29 -40 -11 -74 -19 -76 -17 -2 2 -33 50 -69 107 l-67 102 -37 -15
c-69 -29 -295 -165 -308 -185 -6 -10 51 -115 106 -196 l28 -41 -25 -24 c-39
-37 -90 -110 -123 -176 l-30 -60 -113 23 c-62 12 -120 25 -130 29 -13 5 -19
-5 -33 -52 -15 -50 -50 -201 -70 -300 -7 -35 -5 -36 125 -68 154 -38 140 -30
140 -84 0 -26 12 -94 26 -150 14 -57 24 -104 22 -105 -2 -2 -49 -33 -105 -70
l-103 -67 21 -42 c66 -131 169 -287 190 -287 13 0 80 39 210 123 13 8 29 -1
80 -45 36 -30 90 -70 122 -89 31 -18 57 -41 57 -50 0 -9 -9 -62 -21 -119 -14
-67 -17 -105 -11 -109 6 -3 90 -26 187 -51 150 -38 178 -42 185 -30 5 8 19 56
30 105 12 50 23 97 26 106 3 13 24 18 86 24 44 3 113 15 152 26 39 11 80 22
91 25 17 4 34 -14 94 -101 41 -58 78 -108 82 -110 4 -3 29 12 56 33 94 74 223
172 225 172 2 0 5 -703 7 -1563 3 -1703 0 -1612 59 -1636 18 -7 301 -12 842
-15 448 -3 832 -5 853 -6 l37 0 -1 -72 c0 -40 -5 -95 -11 -123 -5 -27 -11 -71
-13 -97 -2 -47 -4 -48 -58 -77 -115 -60 -195 -83 -369 -106 -125 -17 -151 -27
-146 -58 2 -16 15 -26 51 -38 46 -15 47 -16 28 -33 -18 -16 -21 -16 -44 -1
-15 9 -40 15 -59 13 -29 -3 -33 -7 -36 -33 -3 -27 5 -36 65 -82 76 -57 123
-83 150 -83 34 0 88 41 178 136 l90 94 78 0 c49 0 77 -4 77 -11 0 -6 -9 -54
-19 -107 -11 -54 -36 -205 -56 -337 -19 -132 -54 -354 -77 -493 -31 -195 -38
-258 -30 -276 7 -16 35 -34 89 -56 43 -17 83 -37 89 -43 6 -7 16 -61 22 -122
7 -60 28 -196 47 -302 51 -287 117 -831 153 -1275 8 -95 7 -97 -15 -102 -12
-4 -57 -28 -101 -54 -51 -31 -126 -63 -211 -91 -164 -54 -195 -73 -199 -125
-2 -20 2 -44 9 -52 6 -8 10 -17 7 -19 -3 -3 -612 -4 -1354 -3 l-1349 3 38 22
c43 26 49 59 17 110 -31 52 -42 57 -228 103 -90 22 -194 70 -284 131 -61 42
-101 49 -129 23 -16 -14 -17 -11 -24 44 -5 49 -3 65 11 87 21 32 28 139 44
725 11 417 14 470 30 470 5 0 87 -24 182 -54 364 -115 817 -230 1087 -276 97
-17 182 -33 188 -35 7 -2 18 -19 26 -36 l13 -32 -76 -71 c-41 -39 -76 -78 -78
-86 -3 -18 198 -220 220 -220 15 0 91 53 139 97 l26 24 58 -35 c32 -19 85 -45
118 -57 l59 -22 -7 -96 c-3 -53 -8 -103 -11 -112 -4 -13 5 -18 38 -23 100 -14
273 -25 281 -17 4 4 14 57 20 116 l12 109 74 18 c41 10 99 32 129 49 l55 31
78 -82 78 -82 38 30 c62 50 193 179 193 190 0 5 -31 45 -70 87 l-70 77 31 44
c34 49 79 146 79 169 0 18 -10 16 135 24 l120 6 2 145 c2 80 -1 152 -7 160 -7
11 -35 16 -118 18 l-109 4 -17 62 c-10 35 -33 90 -53 122 l-35 58 88 83 88 83
-114 115 -114 114 -35 -29 c-20 -16 -58 -51 -85 -78 l-48 -50 -72 37 c-39 21
-90 45 -113 54 l-42 16 6 109 6 109 -48 6 c-85 12 -245 8 -250 -5 -2 -7 -11
-56 -20 -109 l-16 -96 -60 -11 c-33 -6 -85 -22 -116 -36 -30 -15 -59 -26 -63
-26 -4 0 -45 34 -91 75 -46 41 -87 75 -90 75 -16 0 -219 -183 -219 -198 0 -9
32 -52 70 -95 39 -43 70 -81 70 -84 0 -3 -11 -20 -24 -37 -13 -17 -37 -59 -55
-93 l-31 -63 -114 0 -113 0 -17 -104 c-9 -58 -16 -121 -16 -140 0 -32 3 -36
38 -45 20 -5 68 -18 107 -28 l70 -18 15 -60 c9 -33 20 -71 24 -84 7 -21 6 -23
-21 -17 -15 3 -66 12 -113 20 -336 59 -795 175 -1151 292 l-166 54 -6 653 c-7
705 -18 1031 -43 1340 -12 147 -14 201 -5 210 6 6 11 31 11 54 0 35 -15 73
-73 186 -41 78 -77 156 -81 172 -6 26 5 18 81 -60 112 -116 150 -135 266 -135
109 0 180 15 217 46 26 22 33 24 67 15 21 -5 100 -20 176 -32 119 -19 140 -20
151 -8 7 8 62 86 121 174 60 88 138 203 175 255 210 299 484 708 484 724 2 44
-44 58 -279 86 -50 5 -157 19 -240 29 l-150 20 -25 -24 c-14 -14 -67 -89 -119
-167 -281 -431 -374 -577 -393 -610 -12 -21 -25 -38 -30 -38 -4 0 -26 36 -48
80 -119 236 -361 531 -602 731 -64 53 -142 124 -172 157 -54 57 -56 62 -56
114 l0 55 52 -13 c82 -22 125 -18 143 10 22 33 28 114 18 209 -9 73 -8 78 14
99 41 38 28 105 -25 127 -21 9 -33 25 -45 59 -21 58 -21 57 3 80 73 68 -7 215
-131 241 -89 19 -176 0 -334 -74 -185 -86 -187 -87 -217 -134 -97 -154 -48
-342 126 -481 l57 -45 -6 -52 c-11 -114 -24 -146 -66 -175 -46 -33 -191 -224
-272 -360 -86 -144 -169 -325 -223 -483 -45 -133 -48 -146 -48 -250 -1 -96 2
-115 22 -154 35 -66 82 -120 160 -181 65 -50 71 -58 77 -100 13 -94 34 -147
69 -177 l35 -28 -20 -110 c-10 -60 -57 -384 -104 -720 -100 -714 -95 -685
-107 -685 -14 0 -211 134 -348 238 -321 243 -659 556 -864 802 -250 300 -443
669 -511 980 -20 88 -32 377 -18 391 7 7 40 -7 99 -41 156 -89 309 -126 488
-117 132 7 226 31 351 92 324 159 511 475 492 833 -12 234 -111 441 -290 609
-328 306 -870 297 -1204 -20 -77 -73 -165 -195 -202 -282 -45 -102 -73 -241
-73 -354 1 -237 79 -433 243 -606 l67 -70 -10 -100 c-12 -121 0 -235 41 -398
111 -437 405 -890 852 -1307 74 -69 150 -139 170 -155 20 -17 74 -62 120 -101
128 -107 403 -314 504 -379 50 -31 92 -59 94 -61 1 -1 -2 -42 -9 -91 -14 -111
-227 -1409 -240 -1469 -7 -32 -7 -49 1 -63 19 -29 -17 -93 -57 -103 -37 -9
-100 -90 -152 -194 l-35 -72 30 -38 c17 -22 94 -101 171 -177 l141 -137 -724
0 c-660 0 -783 -4 -718 -24 10 -3 1995 -5 4411 -4 3208 1 4392 4 4389 12 -3 8
-174 12 -598 13 -327 2 -601 6 -609 9 -8 3 84 41 205 83 253 90 338 124 343
140 2 6 -22 55 -53 110 -62 109 -99 197 -89 212 3 5 -1 58 -10 117 -8 59 -22
168 -31 242 -47 391 -92 571 -205 830 -74 167 -85 212 -95 386 l-6 111 57 37
56 38 -6 81 c-7 81 -107 924 -145 1227 -11 85 -23 208 -27 273 l-7 117 74 1
c41 1 214 2 384 3 344 3 361 6 408 67 14 19 30 54 37 79 8 32 10 560 8 1880
l-3 1835 -25 45 c-18 33 -38 51 -73 69 l-49 24 -1606 1 -1606 1 3 52 c3 62 9
58 -154 101 l-100 27 -9 50 c-4 28 -17 83 -28 124 -10 41 -15 78 -11 82 4 4
42 26 83 49 41 24 89 53 107 66 l32 24 -68 113 c-85 141 -142 227 -150 227 -4
0 -57 -29 -119 -65 -61 -36 -116 -65 -120 -65 -5 0 -19 11 -32 25 -16 17 -197
142 -217 150 -1 0 9 50 23 110 13 61 26 120 29 131 4 20 -3 24 -78 44 -69 19
-297 70 -311 70 -3 0 -12 -33 -20 -72z m244 -12 l125 -31 -3 -30 c-2 -16 -12
-64 -22 -105 -34 -142 -36 -127 16 -149 49 -22 120 -72 192 -133 24 -21 46
-38 50 -38 4 0 59 29 122 64 l115 64 33 -51 c19 -29 58 -94 89 -145 64 -109
72 -92 -77 -173 -52 -28 -96 -52 -97 -53 -1 -1 7 -27 18 -58 10 -31 25 -96 34
-144 8 -49 19 -92 23 -95 4 -4 61 -22 126 -39 66 -17 120 -31 121 -33 1 -1 0
-21 -3 -44 l-4 -43 -122 0 c-138 0 -182 -14 -230 -71 l-28 -33 7 -137 7 -137
-70 -74 -70 -74 64 -84 c35 -47 64 -92 64 -101 0 -19 -18 -36 -143 -133 -54
-42 -102 -74 -108 -71 -5 4 -41 51 -81 106 -79 112 -67 107 -173 68 -44 -16
-90 -23 -172 -27 l-112 -4 -20 -87 c-10 -47 -22 -101 -26 -118 -4 -18 -11 -33
-16 -33 -17 0 -304 73 -311 79 -3 3 6 56 22 116 34 127 33 125 19 125 -24 0
-154 85 -212 140 l-63 59 -90 -60 c-150 -101 -135 -99 -182 -26 -22 34 -60 98
-86 141 l-46 80 48 33 c26 19 75 50 108 70 l62 36 -25 71 c-15 46 -27 107 -31
171 l-7 100 -132 34 c-107 27 -133 37 -133 51 0 18 68 289 76 301 3 5 185 -31
236 -47 13 -4 28 17 68 95 32 62 70 118 101 150 l50 51 -59 92 c-94 148 -91
133 -30 171 29 19 97 57 150 86 l97 52 45 -69 c24 -39 54 -88 66 -111 17 -33
24 -40 38 -33 43 23 194 55 260 56 64 1 73 3 77 21 3 11 14 64 25 118 11 54
24 106 30 117 12 23 14 22 200 -24z m4030 -1288 c33 -17 51 -35 68 -68 20 -40
22 -58 22 -202 l0 -158 -42 1 c-24 0 -831 -2 -1794 -5 l-1751 -6 -6 137 c-4
76 -9 158 -13 183 -5 41 -3 50 22 79 15 19 42 40 59 47 24 11 336 13 1710 14
l1681 0 44 -22z m-3530 -493 c0 -63 -2 -115 -4 -115 -3 0 -26 29 -52 65 l-46
66 43 48 c24 27 47 49 52 50 4 1 7 -51 7 -114z m3620 -1639 c0 -1568 -1 -1672
-18 -1705 -9 -19 -30 -44 -45 -55 -27 -20 -45 -21 -367 -26 -296 -4 -339 -3
-343 10 -2 8 -1 74 1 147 l4 131 222 4 c201 3 224 5 256 23 71 42 71 45 67
460 -4 406 -4 409 -64 447 l-34 21 33 34 33 34 3 383 c3 431 1 449 -58 478
-31 16 -93 17 -761 18 -662 0 -728 -2 -740 -17 -11 -13 -14 -105 -14 -490 l0
-473 -70 0 c-112 0 -115 -4 -115 -161 0 -71 -2 -129 -4 -129 -16 0 -36 14 -36
25 0 8 -5 26 -11 42 -10 27 -11 28 -25 8 -15 -20 -16 -19 -45 15 -17 19 -53
69 -81 110 l-50 75 90 5 c50 3 93 8 97 12 8 8 7 882 -1 903 -5 13 -42 15 -235
15 -126 0 -229 4 -229 8 0 5 30 58 66 118 93 152 131 234 144 312 27 164 -58
330 -207 404 -84 41 -201 50 -284 23 -207 -69 -316 -286 -249 -495 12 -38 60
-134 106 -212 46 -78 84 -146 84 -150 0 -4 -101 -8 -225 -8 -222 0 -225 0
-239 -22 -13 -20 -15 -151 -17 -933 l-1 -910 613 -3 c338 -1 628 0 646 3 31 6
32 8 39 66 4 33 9 58 13 57 36 -17 232 -132 236 -138 3 -5 2 -57 -1 -117 l-7
-108 -854 0 -855 0 -29 33 -29 32 0 1680 0 1680 1033 3 c567 1 1375 2 1795 2
l762 0 0 -1669z m-2648 1014 c46 -13 105 -77 114 -125 15 -83 -10 -148 -76
-192 -70 -48 -157 -38 -221 26 -36 36 -64 104 -55 132 2 8 7 26 10 41 4 15 21
44 38 64 53 60 110 76 190 54z m-5072 -500 c289 -84 507 -307 592 -605 29
-105 32 -316 5 -414 -44 -162 -101 -263 -212 -376 -127 -130 -248 -201 -417
-247 -98 -26 -284 -31 -383 -9 -162 35 -348 140 -441 247 -156 181 -221 329
-231 529 -7 136 11 246 59 367 49 121 92 189 173 273 130 133 286 218 470 254
83 17 299 6 385 -19z m1903 -68 c17 -55 25 -66 59 -83 46 -23 48 -43 8 -84
l-30 -31 16 -74 c15 -70 14 -165 -1 -190 -10 -15 -112 -12 -145 5 -23 12 -30
22 -30 45 0 38 -18 48 -29 16 -7 -16 -6 -59 1 -120 6 -52 8 -102 5 -110 -5
-13 -23 -16 -84 -16 -72 1 -222 16 -229 23 -2 2 4 45 13 95 l16 92 31 0 c40 1
102 23 128 47 39 34 98 115 98 134 0 10 -16 36 -35 58 -56 62 -39 97 31 63 34
-16 36 -16 50 3 9 12 14 46 14 96 0 86 10 101 63 96 26 -2 31 -9 50 -65z
m5483 -77 c12 -3 30 -17 40 -32 16 -25 19 -59 22 -345 4 -310 -2 -412 -29
-472 -22 -47 -46 -51 -311 -51 -137 0 -248 2 -248 5 0 3 7 16 16 29 20 28 23
91 6 122 -8 13 -28 33 -45 44 -22 14 -32 28 -32 45 l0 25 220 5 c264 6 248 20
-22 20 l-192 0 -15 28 c-23 45 -54 66 -97 67 -32 0 -41 4 -45 22 -7 26 -42 59
-69 66 -11 3 130 5 313 6 214 1 332 5 332 11 0 6 -123 10 -348 10 l-349 0 -18
41 c-24 52 -45 63 -112 54 -50 -6 -55 -5 -74 19 -22 28 -53 33 -94 14 -19 -9
-28 -9 -37 0 -31 31 -102 -2 -129 -61 -26 -58 -25 -140 2 -179 19 -26 20 -32
8 -56 -8 -14 -26 -33 -41 -41 -31 -18 -36 -31 -13 -31 22 0 20 -9 -29 -114
-44 -95 -58 -111 -70 -80 -8 21 -6 728 2 784 7 45 7 45 52 50 57 6 1377 2
1406 -5z m-2467 -117 c40 -62 40 -63 18 -70 -12 -3 -105 -7 -207 -8 -155 -2
-174 -4 -115 -11 39 -5 136 -8 218 -7 102 1 151 -2 159 -10 7 -7 15 -12 20
-12 4 0 37 41 74 90 l66 90 232 0 233 0 6 -242 c9 -325 8 -600 -1 -616 -11
-17 -97 -26 -146 -15 -36 8 -43 16 -102 113 -35 57 -64 110 -64 117 0 9 17 13
58 14 70 1 120 17 56 18 -23 1 -62 4 -88 7 l-47 7 19 21 c30 33 33 43 21 70
-18 40 -159 148 -159 121 0 -21 81 -219 123 -299 84 -160 227 -384 282 -441
101 -104 207 -143 405 -151 186 -8 180 -5 126 -65 -25 -28 -58 -76 -73 -107
-27 -55 -28 -62 -27 -212 0 -146 2 -163 37 -294 36 -136 45 -225 28 -285 -7
-28 -127 -100 -141 -85 -4 5 -4 70 1 144 4 74 8 185 8 246 l1 111 -112 62
c-152 84 -332 206 -367 248 -18 21 -40 74 -61 141 -18 59 -61 202 -97 317 -35
116 -75 255 -88 310 -19 84 -32 113 -77 182 -30 45 -70 99 -88 120 -30 34 -32
38 -14 42 10 2 22 8 26 14 4 6 27 -11 57 -44 58 -62 66 -54 19 17 -28 41 -40
51 -79 60 -25 7 -55 17 -67 23 -27 14 -50 5 -54 -22 -3 -21 -8 -22 -188 -27
-131 -4 -176 -8 -156 -14 16 -5 105 -6 197 -3 l167 7 44 -48 c41 -44 128 -164
128 -176 0 -4 -129 -6 -286 -6 -187 0 -283 -3 -279 -10 4 -6 113 -10 295 -10
l288 0 16 -42 c22 -59 48 -179 41 -186 -7 -7 -806 -4 -813 2 -2 2 -4 188 -5
413 -2 317 1 413 11 431 13 22 15 22 246 22 l233 0 42 -62z m381 -443 c14 -17
5 -45 -17 -52 -11 -4 -53 77 -53 99 0 11 50 -23 70 -47z m944 39 c11 -4 16
-20 16 -53 1 -26 11 -70 25 -101 l24 -55 -28 -30 c-16 -16 -42 -50 -58 -75
-38 -55 -70 -86 -105 -99 -24 -9 -28 -7 -47 25 -11 18 -36 41 -55 50 l-34 17
29 52 c16 28 38 77 48 108 28 80 28 80 65 57 37 -22 56 -26 56 -10 0 6 -16 18
-35 27 -19 9 -35 22 -35 29 0 15 78 64 102 64 9 0 23 -3 32 -6z m-4596 -71
l172 -6 32 -36 32 -36 -70 -9 c-62 -8 -482 8 -492 19 -3 2 10 23 29 46 32 40
34 41 78 35 25 -4 124 -9 219 -13z m10 -118 l274 -3 46 -33 c70 -50 257 -241
343 -349 109 -137 156 -208 242 -360 113 -201 125 -231 133 -336 10 -131 2
-160 -44 -176 -20 -7 -82 -13 -137 -13 -87 0 -105 3 -140 23 -22 13 -117 103
-211 200 -94 98 -220 220 -279 272 -60 52 -142 125 -182 162 -115 106 -152
115 -70 19 209 -247 490 -585 516 -621 48 -66 106 -168 126 -223 21 -56 21
-56 -81 -106 -248 -119 -593 -133 -894 -35 -138 45 -156 60 -175 149 -31 150
-14 561 34 815 26 135 28 164 16 170 -16 8 -33 -58 -57 -221 -22 -146 -24
-150 -46 -144 -30 7 -71 -13 -51 -26 8 -5 27 -9 42 -9 l28 0 -7 -147 c-4 -82
-10 -179 -13 -218 l-6 -69 -65 55 c-36 30 -83 81 -105 113 l-40 58 1 97 c0
111 21 195 91 371 77 194 192 404 300 551 l41 56 49 -9 c26 -6 171 -11 321
-13z m4742 -45 c42 -42 19 -114 -49 -153 -30 -17 -30 -17 -47 7 -23 36 -10
101 26 138 34 33 44 34 70 8z m-2961 -105 c80 -13 174 -27 209 -31 72 -8 80
-23 33 -68 l-29 -28 -183 26 c-101 14 -203 28 -226 32 -47 6 -48 6 -32 37 19
38 52 68 67 62 8 -3 81 -16 161 -30z m3958 -86 c78 -37 75 -15 74 -582 l-1
-239 -34 -34 -34 -34 -226 0 -226 0 0 145 0 145 134 0 c83 0 137 4 141 10 5 8
-40 10 -141 9 l-148 -1 -58 76 -59 76 208 2 c172 1 193 2 118 9 -49 4 -148 7
-219 8 -123 1 -131 2 -165 27 -46 34 -131 116 -131 126 0 4 136 9 303 10 190
1 276 4 232 8 -89 9 -342 10 -462 2 l-91 -7 -25 40 c-14 22 -28 50 -32 63 -6
21 -3 22 39 22 39 0 50 5 80 36 24 25 41 34 52 30 26 -10 53 3 69 34 19 36 21
36 324 38 220 2 237 1 278 -19z m-3997 -39 c113 -17 211 -30 218 -30 6 0 12
-5 12 -10 0 -18 -360 -550 -371 -550 -8 0 -8 4 1 15 32 39 -35 83 -109 70 -57
-10 -128 -58 -159 -110 -18 -30 -34 -44 -48 -45 -12 0 -66 -9 -119 -20 -54
-11 -100 -18 -103 -16 -6 7 29 65 211 351 88 138 178 278 200 313 21 34 44 62
51 62 6 0 103 -14 216 -30z m1847 -65 c13 -49 46 -160 73 -245 27 -85 56 -179
64 -209 18 -60 42 -86 170 -178 l78 -56 -4 -53 c-3 -30 -8 -57 -12 -61 -4 -5
-284 -9 -622 -11 l-614 -2 0 455 0 455 422 -2 421 -3 24 -90z m1157 40 c25
-54 40 -67 97 -79 19 -4 30 -17 42 -48 9 -23 16 -43 14 -44 -1 -1 -49 -7 -106
-13 -56 -6 -113 -14 -126 -17 -19 -5 -23 -1 -28 33 -11 65 -8 110 9 123 8 8
27 33 41 57 13 24 26 43 28 43 2 0 15 -25 29 -55z m-488 8 c3 -16 10 -40 16
-55 5 -15 7 -40 3 -56 -3 -18 -2 -33 4 -37 6 -3 11 0 12 7 1 7 2 22 3 33 1 18
10 21 111 26 61 3 122 11 136 17 38 15 49 2 60 -73 9 -67 9 -69 -18 -99 -60
-67 -57 -66 -174 -66 -106 0 -109 1 -109 23 0 12 -3 33 -7 45 -7 30 -23 10
-23 -30 0 -24 -4 -28 -27 -27 -16 0 -57 8 -93 17 l-65 17 -3 123 c-3 160 -2
162 93 162 73 0 75 0 81 -27z m709 -243 c16 -16 27 -32 24 -34 -25 -24 -429
-50 -429 -28 0 5 13 21 29 36 24 23 43 29 127 40 54 8 126 14 160 15 55 1 63
-2 89 -29z m146 -137 c31 -32 78 -85 105 -117 l49 -59 -3 -346 c-4 -377 0
-451 53 -896 19 -159 39 -335 45 -390 6 -55 24 -203 40 -330 16 -126 31 -256
34 -287 l6 -57 -43 -30 c-49 -33 -238 -131 -254 -131 -6 0 -14 33 -17 73 -4
39 -20 162 -36 272 -16 110 -38 290 -49 400 -49 478 -53 556 -58 1158 -3 323
-9 587 -13 587 -17 0 -20 -37 -20 -218 0 -483 -49 -1143 -144 -1952 -14 -113
-28 -240 -31 -282 l-7 -78 -131 0 c-202 0 -347 30 -515 105 l-58 26 12 77 c7
42 36 228 65 412 96 614 113 705 129 701 8 -2 26 -6 40 -8 20 -4 32 -19 57
-75 l32 -70 98 52 c190 103 258 159 284 239 7 20 30 70 52 111 l39 75 -5 100
c-8 139 -82 486 -148 690 -44 137 -109 211 -202 230 l-29 6 25 19 c22 18 42
20 164 21 76 0 181 6 233 13 149 21 139 23 201 -41z m-568 -59 c45 -23 95 -72
118 -116 29 -57 75 -232 126 -478 54 -266 59 -357 24 -431 -26 -55 -79 -111
-136 -144 -39 -23 -233 -111 -267 -122 -12 -4 -29 14 -64 68 -60 94 -106 192
-99 211 3 8 38 31 78 52 74 39 197 115 197 122 0 3 -11 2 -24 -2 -22 -5 -23
-2 -29 53 -4 32 -22 122 -41 199 -45 186 -60 308 -47 400 16 109 52 179 101
197 24 9 29 8 63 -9z m-2978 -94 c4 -6 -5 -20 -19 -31 -14 -11 -26 -24 -26
-29 0 -5 20 -16 45 -26 49 -18 56 -29 24 -39 -19 -6 -19 -8 -4 -25 10 -11 12
-20 6 -24 -5 -3 -12 -19 -16 -35 -7 -33 -19 -38 -120 -48 -65 -6 -69 -5 -56
10 27 33 -31 18 -179 -47 l-145 -65 -5 82 c-3 45 -3 85 0 89 8 11 204 48 254
48 43 0 59 11 36 25 -5 3 -10 10 -10 15 0 19 57 74 95 91 44 20 110 25 120 9z
m2698 -1069 l36 -70 -42 -5 c-23 -3 -78 -8 -121 -11 l-80 -5 -105 -104 c-101
-98 -161 -143 -175 -129 -3 4 6 19 21 35 35 37 22 48 -17 14 -18 -14 -36 -23
-42 -20 -6 4 10 24 36 46 62 53 58 67 -6 23 -51 -34 -88 -45 -88 -26 0 5 23
29 51 53 42 36 50 48 45 66 -6 17 -15 22 -44 22 -38 0 -71 14 -61 25 4 3 48
10 99 16 131 15 264 51 362 97 46 22 86 41 90 41 3 1 22 -30 41 -68z m-583
-216 c0 -15 -43 -12 -48 3 -3 10 4 13 22 10 15 -2 26 -7 26 -13z m-3825 -203
c71 -80 85 -115 144 -350 51 -202 160 -827 146 -840 -7 -8 -236 102 -242 115
-3 7 16 74 41 150 83 253 87 274 71 359 -8 41 -33 145 -56 232 -23 86 -46 177
-52 202 -9 35 -29 63 -99 137 -48 50 -88 99 -88 108 0 23 56 -24 135 -113z
m3169 -612 l32 0 -1 -106 c0 -85 3 -108 15 -115 8 -5 44 -22 80 -38 36 -16 86
-42 112 -58 l48 -28 80 80 80 80 90 -90 90 -90 -81 -81 -82 -82 33 -58 c19
-32 46 -96 60 -143 l27 -86 111 -3 112 -3 0 -123 0 -124 -72 -6 c-40 -4 -95
-7 -122 -9 l-49 -2 -21 -66 c-12 -36 -41 -95 -65 -132 -50 -77 -55 -62 49
-170 l55 -58 -65 -60 c-36 -33 -80 -72 -98 -86 l-34 -27 -73 80 -72 79 -78
-38 c-42 -21 -110 -46 -150 -54 -84 -19 -79 -10 -91 -151 -3 -45 -10 -85 -16
-88 -5 -3 -62 -1 -126 6 l-117 12 7 107 c3 58 3 109 0 112 -4 3 -38 18 -77 33
-38 15 -95 45 -126 66 l-57 38 -83 -68 -84 -69 -93 92 -93 92 80 77 80 78 -30
67 c-17 38 -41 106 -53 153 l-23 85 -102 27 c-57 15 -104 28 -106 30 -6 6 16
173 26 197 9 23 12 23 120 20 l111 -4 24 60 c13 33 42 84 65 114 46 61 52 44
-54 159 -32 35 -57 67 -55 71 2 4 43 43 91 85 l88 78 84 -81 84 -82 51 26 c28
14 90 36 137 49 l87 23 19 99 c10 54 24 102 30 107 7 4 45 6 86 3 41 -3 88 -6
105 -6z m1972 -314 c63 -244 105 -366 202 -576 150 -328 308 -756 367 -998 24
-100 27 -138 9 -119 -3 3 -19 59 -34 124 -54 221 -204 631 -346 944 -109 242
-159 381 -220 614 -44 170 -55 241 -32 201 6 -10 30 -96 54 -190z m-540 -183
c3 -21 28 -150 54 -288 87 -447 116 -747 107 -1104 -6 -222 -15 -319 -29 -296
-3 6 -1 73 4 150 11 165 3 492 -18 692 -14 137 -46 331 -117 706 -26 135 -31
177 -21 177 7 0 16 -17 20 -37z m420 -178 c43 -129 99 -268 324 -805 45 -107
106 -260 136 -340 30 -80 65 -170 78 -201 l23 -56 -26 -10 c-17 -6 -38 -31
-59 -71 -25 -47 -58 -84 -141 -158 -119 -105 -136 -128 -128 -171 15 -75 29
-68 -139 -71 l-151 -3 -5 93 c-3 54 -14 118 -26 151 -14 42 -17 66 -11 85 10
32 72 415 94 584 42 326 36 571 -19 857 -30 152 -37 326 -11 281 8 -14 35 -88
61 -165z m-4833 101 c64 -30 117 -57 117 -59 0 -2 9 -62 20 -133 23 -153 68
-529 110 -924 38 -361 35 -346 71 -359 29 -10 29 -11 29 -85 0 -69 -2 -77 -24
-92 -39 -25 -60 -95 -61 -199 0 -54 5 -99 13 -112 l13 -23 -326 0 c-179 0
-325 2 -325 5 0 3 7 22 15 41 26 62 -12 109 -126 154 -92 37 -127 70 -185 172
-32 56 -49 75 -72 83 -17 6 -34 14 -38 18 -4 3 3 42 15 85 19 66 27 80 49 89
23 8 33 27 71 139 24 71 83 233 132 359 106 278 177 467 271 722 66 179 72
191 92 183 12 -4 74 -33 139 -64z m5267 -10 c0 -33 -17 -76 -30 -76 -13 0 -13
29 1 69 13 37 29 41 29 7z m-606 -32 c11 -29 7 -64 -9 -64 -11 0 -15 11 -15
40 0 40 13 53 24 24z m-5501 -1275 c55 -16 77 -27 76 -38 0 -9 -10 -47 -23
-86 l-22 -70 -42 1 c-51 1 -66 13 -101 83 -27 54 -28 58 -13 99 11 33 18 42
31 38 9 -3 51 -15 94 -27z m-136 -130 c40 -84 102 -116 208 -107 l40 3 43 -79
43 -78 -27 -41 -27 -42 32 28 c39 32 51 34 51 7 0 -16 5 -19 23 -15 12 3 31
-1 42 -9 17 -13 18 -17 5 -25 -22 -15 -6 -23 24 -11 30 11 72 -5 114 -43 29
-27 28 -45 -5 -58 -103 -39 -256 25 -457 194 -44 36 -114 84 -157 108 -43 23
-88 52 -100 65 -19 20 -20 27 -10 52 7 16 28 45 48 66 50 51 80 47 110 -15z
m1518 -104 c12 -124 -8 -165 -82 -165 -70 0 -83 21 -83 134 0 108 -5 103 97
105 l61 1 7 -75z m5050 64 c15 -23 -6 -60 -40 -75 -30 -12 -40 -12 -67 -1 -40
17 -65 44 -52 57 23 23 148 38 159 19z m-4917 -139 c33 -20 40 -34 22 -45 -15
-9 -12 -25 5 -25 7 0 18 7 23 16 8 14 13 14 33 4 13 -7 32 -19 41 -27 16 -14
16 -17 1 -39 -22 -34 -8 -43 17 -11 21 26 22 26 58 12 48 -21 48 -21 29 -54
-25 -42 -20 -61 7 -29 13 15 26 32 28 39 6 19 189 -17 230 -45 51 -34 44 -57
-27 -81 -54 -18 -84 -20 -300 -20 -219 1 -488 21 -541 42 -16 6 -14 48 8 146
10 45 28 61 44 36 3 -6 27 -20 51 -31 79 -35 109 -19 201 101 28 37 28 37 70
11z m3900 -16 c45 -4 82 -11 82 -15 0 -5 -14 -24 -31 -44 -49 -56 -113 -44
-159 30 -26 41 -25 48 3 42 12 -4 59 -9 105 -13z m1177 -64 c9 -17 13 -35 10
-40 -6 -10 -54 -29 -300 -117 -99 -35 -219 -75 -268 -88 l-87 -24 -14 22 c-8
12 -17 33 -21 46 -7 22 -5 23 16 16 42 -13 99 -5 208 30 78 26 333 133 438
184 1 1 10 -13 18 -29z m-1783 -211 c40 -21 45 -21 362 -10 177 6 335 13 352
17 37 7 51 -13 29 -43 -13 -17 -37 -18 -395 -21 -266 -2 -385 0 -395 8 -14 11
-26 56 -17 65 9 9 21 6 64 -16z"/>
<path d="M4672 9260 c-194 -52 -337 -184 -410 -378 -36 -94 -38 -263 -4 -369
27 -86 105 -207 170 -263 244 -209 610 -187 825 51 100 110 147 237 147 396 0
256 -168 480 -419 559 -79 25 -225 27 -309 4z m278 -32 c285 -69 470 -364 406
-651 -25 -111 -68 -189 -150 -273 -219 -221 -564 -221 -781 0 -321 326 -139
866 315 936 60 9 140 5 210 -12z"/>
<path d="M4681 9185 c-155 -44 -283 -161 -342 -313 -27 -71 -37 -212 -19 -291
38 -174 164 -313 338 -373 91 -31 239 -31 326 1 229 83 372 318 338 553 -26
176 -126 313 -288 390 -82 40 -91 42 -193 45 -73 2 -123 -2 -160 -12z m252
-30 c240 -62 394 -292 357 -532 -40 -260 -294 -446 -549 -403 -187 31 -349
181 -390 361 -58 250 96 507 342 574 69 18 169 18 240 0z"/>
<path d="M5865 8391 c-43 -19 -70 -60 -70 -107 0 -36 6 -49 33 -76 27 -27 40
-33 77 -33 37 0 50 6 77 33 27 27 33 40 33 77 0 36 -6 50 -30 75 -33 33 -85
46 -120 31z m95 -51 c27 -27 27 -83 -2 -110 -47 -43 -128 -9 -128 54 0 65 84
102 130 56z"/>
<path d="M6494 8386 c-43 -19 -64 -53 -64 -102 0 -118 151 -148 204 -41 16 34
17 42 5 74 -24 63 -89 94 -145 69z m93 -48 c47 -44 14 -128 -51 -128 -40 0
-76 35 -76 74 0 66 78 100 127 54z"/>
<path d="M6157 8370 c-30 -24 -51 -80 -42 -112 20 -65 98 -102 154 -73 42 21
61 53 61 103 0 62 -40 102 -103 102 -29 0 -53 -7 -70 -20z m120 -32 c47 -44
14 -128 -51 -128 -40 0 -76 35 -76 74 0 66 78 100 127 54z"/>
<path d="M8445 8016 l-50 -13 32 -15 33 -14 -38 -36 c-36 -34 -202 -168 -375
-302 l-89 -69 -100 6 -101 6 -166 -143 c-207 -178 -279 -245 -264 -246 15 0
118 82 293 234 l135 117 97 -4 c80 -3 103 -1 125 13 16 9 109 81 208 159 99
78 211 163 248 189 l68 47 18 -23 17 -23 13 53 c8 29 16 59 18 66 6 16 -54 15
-122 -2z"/>
<path d="M8570 7080 l0 -250 100 0 100 0 0 250 0 250 -100 0 -100 0 0 -250z"/>
<path d="M8280 6980 l0 -150 96 0 97 0 -6 83 c-4 45 -7 112 -7 150 l0 67 -90
0 -90 0 0 -150z"/>
<path d="M1189 6829 c-226 -19 -460 -168 -577 -365 -132 -225 -144 -479 -32
-709 119 -245 362 -407 635 -422 367 -20 696 221 782 575 22 92 22 266 -1 357
-26 103 -88 224 -147 289 -44 48 -79 70 -79 50 0 -3 23 -31 51 -62 58 -66 119
-186 145 -287 24 -98 22 -256 -5 -359 -91 -343 -447 -579 -793 -526 -373 57
-632 346 -631 705 1 337 233 627 561 704 112 26 176 29 285 12 123 -20 139 5
18 27 -83 16 -128 19 -212 11z"/>
<path d="M1180 6633 c-257 -43 -453 -261 -467 -518 -15 -275 158 -511 424
-580 179 -47 379 11 518 150 118 118 172 260 162 430 -14 246 -181 448 -422
510 -55 14 -157 18 -215 8z m215 -38 c90 -24 153 -62 236 -145 111 -110 159
-221 159 -370 0 -137 -46 -253 -140 -353 -67 -72 -139 -118 -237 -152 -174
-62 -386 -4 -525 143 -158 168 -193 393 -92 601 34 69 149 185 221 224 113 60
265 81 378 52z"/>
<path d="M1420 6224 c-41 -44 -97 -107 -124 -141 -27 -35 -52 -63 -57 -63 -11
0 -65 45 -132 109 l-57 56 -46 -46 c-38 -39 -44 -50 -36 -65 12 -23 258 -264
269 -264 5 0 91 82 191 183 l183 183 -58 63 -58 63 -75 -78z"/>
<path d="M7470 6552 c0 -18 1145 -30 1235 -13 33 6 21 8 -69 14 -155 10 -1166
9 -1166 -1z"/>
<path d="M6612 6561 c-14 -9 110 -21 213 -21 85 0 101 15 24 24 -86 9 -221 7
-237 -3z"/>
<path d="M6183 5597 c-50 -12 -95 -25 -99 -29 -8 -8 26 -562 35 -577 4 -5 57
-10 119 -13 l112 -3 0 40 c0 51 -17 391 -26 513 -7 107 3 102 -141 69z"/>
<path d="M5975 2714 c-239 -33 -423 -216 -457 -452 -21 -152 34 -312 148 -427
199 -202 528 -203 728 -3 185 185 205 475 47 681 -57 74 -160 147 -246 175
-62 21 -168 33 -220 26z m197 -54 c358 -110 459 -570 181 -820 -206 -185 -537
-154 -705 67 -72 96 -92 157 -92 288 -1 129 17 188 85 286 63 89 190 173 289
192 66 12 181 6 242 -13z"/>
<path d="M5895 2613 c-121 -44 -205 -118 -258 -231 -30 -63 -32 -74 -32 -182
0 -109 2 -119 32 -182 82 -173 273 -278 454 -249 294 48 455 349 330 617 -42
89 -108 157 -199 202 -70 34 -83 37 -176 40 -77 2 -113 -2 -151 -15z m288 -42
c80 -31 167 -114 209 -199 31 -62 33 -73 33 -172 0 -99 -2 -110 -33 -172 -41
-83 -107 -149 -191 -191 -61 -30 -73 -32 -171 -32 -93 0 -111 3 -163 27 -80
38 -160 117 -200 197 -30 61 -32 73 -32 166 1 80 5 111 23 157 42 104 153 204
261 235 66 19 193 11 264 -16z"/>
<path d="M1598 9559 c-14 -11 -18 -34 -20 -118 l-3 -104 -50 -13 c-40 -10
-115 -40 -156 -62 -4 -1 -35 31 -69 73 -35 41 -69 75 -77 75 -17 0 -141 -84
-198 -133 -44 -38 -43 -41 26 -134 22 -29 39 -56 39 -60 -1 -4 -21 -30 -45
-56 l-45 -49 -77 32 c-72 30 -78 31 -90 15 -14 -20 -103 -228 -103 -241 0 -5
32 -22 70 -38 39 -16 73 -32 76 -37 2 -4 0 -37 -6 -72 l-12 -64 -79 -6 c-44
-4 -84 -9 -90 -12 -11 -7 -12 -85 -2 -204 l6 -83 94 7 c51 4 93 5 93 3 0 -1 7
-24 14 -50 l15 -47 -62 -39 c-98 -62 -98 -61 -53 -148 20 -40 51 -91 67 -114
l30 -41 83 45 83 45 31 -32 31 -32 -40 -65 c-47 -78 -49 -110 -12 -140 48 -37
161 -100 180 -100 10 0 36 25 62 60 24 33 48 63 53 66 5 4 28 -2 50 -12 l41
-18 -7 -92 -6 -93 52 -10 c94 -18 208 -32 216 -27 5 3 17 41 27 84 18 80 18
80 54 86 76 12 76 12 112 -75 19 -44 39 -83 46 -86 12 -5 215 59 242 76 11 7
11 22 -4 92 -18 93 -20 90 60 134 l34 18 48 -40 c26 -22 61 -48 76 -58 l28
-18 35 34 c20 19 58 60 86 92 60 69 59 85 -8 157 l-46 49 33 62 c18 33 39 64
47 67 8 3 38 -2 66 -12 71 -22 103 -21 116 5 12 21 60 222 60 250 0 11 -26 23
-89 42 l-88 26 -7 83 c-4 46 -9 93 -13 106 -3 14 -1 22 8 22 7 0 48 16 91 37
52 24 78 42 78 53 0 38 -86 260 -101 260 -4 0 -43 -13 -86 -30 -42 -16 -83
-30 -89 -30 -6 0 -24 19 -39 43 -15 23 -43 61 -63 85 l-35 44 59 85 59 85 -30
25 c-48 39 -208 153 -214 153 -3 -1 -35 -39 -70 -86 -48 -65 -68 -83 -80 -78
-9 4 -52 20 -96 35 -44 16 -84 30 -89 32 -5 2 -10 49 -10 104 -1 56 -4 104 -8
108 -4 4 -71 9 -150 12 -111 4 -147 2 -160 -8z m245 -25 l37 -7 0 -91 c0 -107
7 -120 70 -136 25 -7 74 -25 109 -41 71 -32 86 -35 94 -16 3 6 28 45 56 85 60
84 49 85 174 -10 l78 -60 -18 -27 c-10 -14 -35 -52 -56 -83 l-39 -56 44 -54
c24 -29 58 -77 77 -105 18 -29 35 -53 37 -53 1 0 42 14 89 31 48 18 90 28 95
23 13 -15 70 -172 70 -194 0 -17 -16 -29 -74 -56 -41 -19 -80 -34 -86 -34 -7
0 -10 -6 -7 -14 3 -7 9 -65 12 -129 l8 -115 84 -22 c46 -13 85 -26 87 -29 5
-9 -42 -213 -52 -223 -4 -4 -30 -1 -58 7 -111 33 -133 22 -188 -94 l-30 -61
59 -60 58 -59 -36 -43 c-20 -24 -51 -61 -70 -83 l-35 -39 -39 27 c-22 15 -52
41 -68 57 -16 17 -33 30 -38 30 -6 0 -43 -19 -83 -42 -83 -48 -80 -40 -49
-165 l13 -52 -103 -34 -102 -35 -40 87 -40 87 -76 -6 c-43 -4 -78 -9 -80 -11
-2 -2 -11 -39 -21 -81 -20 -89 -11 -85 -151 -65 l-79 12 3 91 3 92 -58 26
c-32 15 -64 24 -71 22 -7 -3 -33 -33 -59 -68 -26 -35 -52 -62 -58 -60 -10 3
-156 89 -165 98 -2 1 18 42 43 90 l47 88 -48 48 c-26 26 -50 48 -54 48 -4 0
-40 -20 -80 -45 -39 -24 -76 -42 -80 -39 -9 5 -109 168 -109 177 0 4 87 60
157 102 6 3 -47 150 -54 149 -4 -1 -45 -4 -89 -8 l-81 -6 -7 37 c-3 21 -6 72
-6 114 l0 77 78 7 c43 4 83 10 89 13 6 4 18 41 26 82 15 70 15 77 -2 99 -10
15 -41 33 -74 44 -66 22 -66 13 -9 145 19 45 40 82 45 82 6 0 42 -14 80 -32
l69 -32 36 45 c20 24 49 57 64 72 32 32 32 29 -34 113 -26 34 -48 66 -48 70 1
12 169 134 185 134 7 0 39 -33 70 -73 l58 -73 81 33 c44 18 105 37 134 43 l52
11 0 109 c0 105 1 109 23 113 36 7 169 7 210 1z"/>
<path d="M1626 8984 c-226 -55 -396 -271 -396 -504 0 -240 177 -461 408 -509
276 -58 552 117 617 390 88 374 -255 714 -629 623z m278 -44 c225 -77 367
-313 327 -540 -71 -394 -546 -547 -825 -266 -72 72 -110 138 -131 227 -88 376
268 704 629 579z"/>
<path d="M1641 8894 c-166 -44 -291 -181 -323 -352 -43 -230 143 -469 379
-489 194 -16 361 77 440 244 68 143 55 294 -37 431 -100 147 -283 214 -459
166z m220 -30 c112 -33 199 -109 253 -223 28 -60 31 -75 31 -161 0 -86 -3
-101 -31 -161 -77 -163 -221 -248 -395 -236 -143 10 -267 94 -332 226 -30 61
-32 72 -32 171 0 93 3 112 27 162 47 102 148 191 251 223 58 19 163 18 228 -1z"/>
<path d="M1673 8751 c-210 -54 -281 -327 -123 -480 86 -83 218 -103 325 -48
63 32 97 68 129 137 83 179 -41 385 -239 396 -33 2 -74 -1 -92 -5z m198 -57
c78 -43 129 -129 129 -219 0 -89 -51 -176 -128 -218 -67 -37 -125 -43 -196
-23 -191 56 -244 302 -93 431 81 70 192 81 288 29z"/>
<path d="M9593 7620 c-110 -67 -64 -240 64 -240 108 0 167 88 125 184 -33 73
-119 99 -189 56z m138 -39 c64 -64 20 -171 -70 -171 -58 0 -94 33 -94 88 0 98
98 148 164 83z"/>
<path d="M4637 6983 c-40 -37 -91 -85 -114 -107 l-43 -40 -34 41 c-43 49 -83
67 -137 60 -58 -8 -79 -30 -79 -84 0 -59 17 -89 112 -195 88 -98 126 -122 168
-106 28 10 276 251 321 312 42 56 40 107 -5 152 -28 28 -42 34 -76 34 -38 0
-49 -6 -113 -67z m167 6 c45 -53 38 -69 -90 -202 -187 -196 -199 -207 -232
-207 -32 0 -51 18 -151 138 -83 102 -93 163 -29 186 40 14 77 -1 127 -54 27
-28 51 -50 56 -50 4 0 58 50 120 110 129 125 152 135 199 79z"/>
<path d="M5076 4149 c-2 -8 -7 -43 -11 -78 -8 -79 -29 -122 -89 -181 -25 -24
-46 -48 -46 -52 0 -4 33 -8 73 -8 89 0 135 -20 196 -84 53 -54 61 -49 61 42 0
73 6 87 72 163 26 30 48 58 48 61 0 3 -30 9 -67 13 -92 10 -110 18 -175 82
-40 39 -59 52 -62 42z m134 -138 c25 -11 57 -21 73 -21 33 0 34 -10 3 -39 -36
-34 -56 -83 -56 -136 l0 -47 -41 33 c-50 39 -100 58 -157 59 l-44 0 45 50 c43
47 67 108 67 167 0 13 8 9 33 -14 17 -18 52 -41 77 -52z"/>
</g>
</svg>
