<?xml version="1.0" standalone="no"?>
<!DOCTYPE svg PUBLIC "-//W3C//DTD SVG 20010904//EN"
 "http://www.w3.org/TR/2001/REC-SVG-20010904/DTD/svg10.dtd">
<svg version="1.0" xmlns="http://www.w3.org/2000/svg"
 width="1024.000000pt" height="1024.000000pt" viewBox="0 0 1024.000000 1024.000000"
 preserveAspectRatio="xMidYMid meet">

<g transform="translate(0.000000,1024.000000) scale(0.100000,-0.100000)"
fill="#e0e0e0" stroke="none">
<path d="M1810 10042 l-95 -17 0 -114 0 -114 -67 -23 -66 -22 -19 21 c-11 12
-36 45 -56 73 -60 83 -55 83 -154 25 -141 -82 -133 -66 -85 -168 22 -49 42
-93 44 -100 2 -7 -24 -34 -57 -61 l-59 -49 -84 64 c-47 35 -88 63 -92 63 -5 0
-47 -44 -95 -97 l-86 -98 81 -77 82 -77 -37 -66 c-21 -36 -42 -64 -49 -62 -24
9 -208 49 -210 45 -8 -8 -76 -217 -76 -230 0 -10 36 -32 96 -59 95 -43 96 -44
90 -74 -4 -16 -9 -47 -12 -67 -7 -40 -2 -38 -124 -58 -124 -20 -111 -3 -108
-142 l3 -122 80 -12 c154 -24 142 -19 154 -75 19 -87 20 -85 -83 -133 -51 -24
-96 -48 -99 -53 -6 -10 54 -204 71 -231 7 -10 29 -8 106 8 54 11 104 20 110
20 7 0 27 -31 45 -69 l34 -69 -44 -38 c-24 -22 -58 -53 -77 -69 l-33 -30 37
-50 c21 -28 60 -76 87 -107 l49 -57 87 58 87 59 62 -50 c34 -28 62 -53 62 -58
0 -4 -18 -46 -40 -93 -22 -47 -40 -88 -40 -91 0 -8 197 -136 210 -136 5 0 37
36 71 80 34 44 66 80 72 80 5 0 37 -10 69 -22 l60 -21 -7 -112 -7 -112 83 -16
c46 -9 105 -19 130 -22 l47 -7 23 96 c13 53 26 101 29 106 3 6 40 13 82 16
l75 7 28 -112 27 -111 42 6 c49 7 218 43 222 47 1 1 -4 47 -11 102 -8 55 -15
103 -15 107 0 10 158 60 169 54 5 -4 33 -45 62 -91 28 -47 54 -85 57 -85 8 0
137 77 189 112 l43 29 -45 89 c-25 49 -45 93 -44 97 0 5 27 30 59 56 l59 48
83 -60 83 -59 24 21 c13 12 54 58 92 101 l68 79 -70 76 c-38 42 -69 80 -69 84
0 15 72 137 80 137 5 0 51 -15 103 -33 l94 -34 37 99 c21 55 39 113 40 130 1
29 -5 33 -90 79 l-91 49 13 66 c6 36 16 69 20 73 5 4 52 13 104 20 52 7 99 16
103 20 5 5 5 62 1 128 l-7 120 -91 13 c-50 6 -98 12 -106 13 -13 2 -38 89 -40
137 0 10 33 32 90 60 61 30 90 50 90 61 0 19 -55 181 -74 215 l-11 22 -95 -29
c-52 -15 -100 -29 -105 -29 -6 0 -27 31 -48 68 l-36 68 73 73 74 74 -49 66
c-80 108 -106 134 -124 127 -9 -3 -50 -29 -90 -57 l-74 -51 -60 49 c-33 26
-60 53 -60 58 0 6 17 50 39 100 l40 90 -22 17 c-35 26 -183 108 -196 108 -10
0 -94 -111 -122 -160 -7 -12 -18 -11 -79 8 l-70 23 -3 112 -3 111 -70 12 c-38
6 -94 14 -123 17 -61 7 -58 11 -89 -117 l-18 -77 -79 3 -79 3 -30 98 c-35 112
-21 106 -177 79z m459 -417 c98 -19 216 -58 293 -96 l57 -29 -97 -149 c-53
-81 -109 -169 -124 -194 l-26 -45 -60 24 c-119 48 -261 51 -397 9 -27 -8 -55
-15 -62 -15 -11 0 -67 81 -226 323 l-38 58 76 35 c178 82 420 114 604 79z
m-639 -388 l109 -168 -77 -77 c-108 -108 -162 -216 -178 -353 -6 -53 -8 -57
-36 -63 -17 -3 -123 -6 -236 -6 l-205 0 8 82 c24 282 152 522 389 731 l79 70
19 -24 c10 -13 67 -100 128 -192z m1134 174 c59 -41 186 -178 241 -260 96
-145 160 -330 172 -498 l6 -83 -231 0 -230 0 -7 53 c-20 147 -88 282 -188 373
l-56 51 43 69 c23 38 77 126 120 197 42 70 80 127 82 127 3 0 25 -13 48 -29z
m-542 -615 c58 -28 115 -91 138 -152 37 -101 20 -198 -52 -279 -52 -59 -107
-86 -184 -93 -247 -19 -395 267 -233 452 86 98 218 126 331 72z m-721 -406
c31 -109 83 -201 159 -281 38 -41 70 -78 70 -82 0 -22 -217 -387 -230 -387
-18 0 -129 91 -187 153 -82 88 -135 168 -194 291 -69 145 -119 343 -92 370 4
3 108 5 231 4 l225 -3 18 -65z m1679 43 c0 -51 -48 -240 -81 -318 -17 -42 -58
-117 -91 -167 -58 -88 -204 -247 -262 -284 -28 -18 -30 -18 -40 -1 -6 10 -62
97 -124 194 l-112 175 74 78 c81 85 135 181 157 282 l12 58 211 3 c116 1 221
3 234 5 18 2 22 -3 22 -25z m-799 -476 c34 -47 219 -358 219 -368 0 -15 -116
-65 -206 -89 -169 -44 -353 -49 -539 -13 -89 16 -235 69 -235 84 0 5 9 28 21
51 25 50 188 330 198 341 4 4 34 -2 67 -13 122 -43 267 -41 387 4 34 13 64 24
67 25 3 0 12 -10 21 -22z"/>
<path d="M1035 7025 c-7 -49 -10 -56 -34 -61 -14 -3 -38 -10 -53 -14 -25 -8
-31 -5 -59 36 -18 24 -37 44 -43 44 -6 0 -30 -8 -54 -17 -47 -18 -49 -24 -27
-99 6 -18 -1 -27 -36 -47 l-43 -26 -39 36 -40 35 -45 -46 -46 -46 38 -39 39
-39 -23 -36 c-25 -41 -25 -41 -73 -21 -20 8 -41 15 -47 15 -10 0 -60 -91 -60
-109 0 -6 20 -22 45 -37 45 -26 49 -36 36 -84 -6 -22 -14 -26 -61 -30 l-55 -5
0 -65 0 -65 53 -11 c30 -7 55 -14 56 -16 2 -1 8 -22 13 -45 l10 -41 -49 -21
c-55 -23 -56 -26 -23 -104 16 -40 28 -43 85 -27 33 10 37 8 62 -22 15 -18 28
-36 28 -40 0 -4 -18 -24 -41 -45 l-40 -38 36 -43 c20 -23 41 -42 46 -42 6 0
30 13 53 29 l43 30 36 -26 36 -26 -16 -36 c-30 -70 -29 -77 21 -106 25 -15 51
-23 57 -19 6 3 20 26 31 50 10 24 22 44 27 44 4 0 28 -7 54 -16 l47 -16 0 -58
0 -58 60 -4 c58 -3 60 -2 65 25 17 90 16 87 43 87 15 0 37 3 48 6 18 5 25 -2
45 -50 12 -31 27 -56 33 -55 6 0 34 9 61 18 48 17 50 20 47 52 -8 84 -9 82 35
107 l43 23 43 -35 42 -35 49 43 50 43 -34 46 -33 47 19 36 c29 54 36 57 85 34
24 -11 49 -20 55 -20 11 0 54 82 54 104 0 8 -17 26 -37 42 -21 15 -40 29 -42
30 -1 2 0 26 4 53 l7 51 46 0 c67 0 74 7 70 76 l-3 59 -53 6 c-29 4 -55 9 -56
10 -2 2 -6 25 -9 50 l-6 46 50 23 c54 26 53 23 23 108 -9 23 -21 42 -27 42 -7
0 -32 -9 -56 -20 -49 -23 -49 -23 -86 47 l-19 34 42 42 42 43 -43 48 -42 48
-48 -36 -49 -37 -35 26 c-44 34 -47 42 -29 91 l14 41 -54 26 c-30 15 -58 27
-63 27 -4 0 -18 -23 -31 -51 -24 -51 -24 -51 -64 -45 -52 9 -52 9 -60 58 -10
59 -20 68 -82 68 l-53 0 -6 -55z m217 -205 c58 -21 180 -98 185 -116 2 -6 -38
-48 -90 -92 l-93 -80 -54 19 c-66 22 -112 23 -165 3 -22 -8 -47 -17 -55 -20
-10 -3 -49 32 -109 96 -106 115 -106 102 2 160 113 61 264 73 379 30z m-414
-235 l91 -95 -19 -42 c-25 -55 -25 -134 -1 -197 l19 -50 -101 -85 c-70 -58
-105 -82 -113 -75 -20 16 -84 152 -99 209 -27 101 -15 223 30 310 28 55 77
120 91 120 6 0 52 -43 102 -95z m689 -1 c105 -190 86 -388 -52 -569 -15 -18
-19 -15 -114 79 l-100 99 24 31 c13 17 28 51 35 76 10 44 7 65 -25 166 -5 17
10 35 87 102 51 45 98 80 103 79 6 -2 25 -30 42 -63z m-330 -97 c71 -48 93
-144 51 -219 -65 -115 -231 -110 -288 8 -36 73 -23 139 38 197 54 51 136 57
199 14z m-158 -343 c56 -18 88 -18 138 0 l40 14 103 -103 102 -103 -46 -27
c-84 -49 -146 -67 -247 -73 -76 -4 -109 -1 -155 14 -58 18 -208 110 -202 123
2 4 46 46 98 94 61 55 100 84 110 80 8 -3 35 -12 59 -19z"/>
<path d="M2577 6880 c-76 -14 -72 15 -72 -515 l0 -474 23 -23 23 -23 2530 -3
c2739 -2 2570 -5 2599 48 7 13 10 170 8 480 l-3 460 -28 27 -27 28 -2508 1
c-1379 1 -2524 -2 -2545 -6z m4427 -37 c511 -5 620 -9 632 -20 12 -12 14 -91
14 -462 0 -422 -1 -449 -18 -465 -17 -15 -201 -16 -2541 -14 -2484 3 -2523 3
-2537 22 -12 16 -14 97 -14 467 l0 448 22 15 c20 14 219 16 1924 16 1045 0
2179 -3 2518 -7z"/>
<path d="M3420 6498 c-48 -25 -90 -89 -90 -137 0 -50 38 -108 86 -132 63 -30
116 -22 162 25 31 30 36 43 40 94 5 68 -12 109 -56 140 -46 34 -91 36 -142 10z
m117 -38 c65 -39 66 -140 2 -195 -108 -90 -229 84 -128 185 36 36 78 39 126
10z"/>
<path d="M3867 6513 c-4 -3 -7 -53 -7 -109 0 -123 -10 -151 -58 -160 -28 -6
-38 -2 -60 20 -25 25 -27 33 -29 129 -1 56 -2 105 -2 110 -1 4 -8 7 -16 7 -22
0 -22 -208 0 -250 26 -50 82 -66 143 -41 44 18 56 58 55 179 0 95 -9 133 -26
115z"/>
<path d="M3970 6365 c0 -144 1 -156 18 -153 14 3 16 13 14 53 -2 32 2 57 11
69 14 19 16 19 39 4 14 -9 38 -41 54 -72 19 -37 35 -56 48 -56 22 0 19 11 -30
87 l-36 56 31 24 c30 24 38 52 25 88 -9 24 -52 42 -117 50 l-57 7 0 -157z m92
114 c76 -20 53 -99 -28 -99 -34 0 -34 0 -34 48 0 66 2 68 62 51z"/>
<path d="M4347 6513 c-9 -8 -7 -237 2 -277 11 -52 26 -33 29 37 l3 67 30 0
c96 0 154 83 96 138 -36 34 -139 56 -160 35z m125 -44 c21 -11 23 -48 5 -73
-7 -9 -32 -20 -55 -23 l-42 -6 0 63 0 62 37 -7 c21 -4 46 -11 55 -16z"/>
<path d="M4592 6370 c2 -112 6 -154 16 -158 8 -2 12 12 12 51 0 68 7 87 31 87
18 0 56 -45 91 -109 9 -17 24 -31 33 -31 13 0 9 15 -23 74 -40 74 -40 74 -20
93 72 65 36 125 -86 139 l-57 7 3 -153z m126 98 c35 -29 -8 -91 -61 -86 -29 3
-32 6 -35 42 -5 60 2 69 46 61 20 -4 43 -11 50 -17z"/>
<path d="M4900 6503 c-74 -38 -103 -138 -63 -220 45 -96 185 -97 243 -1 26 44
27 122 0 165 -39 65 -117 89 -180 56z m120 -42 c59 -42 58 -145 -1 -195 -59
-50 -137 -23 -160 54 -10 33 -9 47 6 86 29 78 91 99 155 55z"/>
<path d="M5180 6408 c0 -138 -4 -154 -41 -167 -48 -16 -33 -38 21 -31 8 1 24
10 34 21 18 16 20 33 20 151 1 118 -1 133 -16 136 -16 3 -18 -7 -18 -110z"/>
<path d="M5300 6365 l0 -155 69 0 c38 0 76 3 85 6 31 12 4 24 -55 24 l-59 0 0
54 0 53 41 6 c69 9 68 25 -2 30 l-44 3 -3 47 -3 47 48 0 c26 0 54 4 62 9 28
18 -1 31 -70 31 l-69 0 0 -155z"/>
<path d="M5580 6502 c-40 -21 -80 -90 -80 -137 1 -42 34 -110 64 -130 57 -38
156 -33 164 8 4 18 -22 24 -33 7 -9 -14 -50 -12 -90 4 -62 26 -82 103 -45 176
26 51 72 68 126 45 23 -9 41 -12 47 -6 15 15 0 29 -41 41 -52 14 -72 13 -112
-8z"/>
<path d="M5760 6500 c0 -17 7 -20 40 -20 l40 0 0 -119 c0 -66 3 -126 6 -135
16 -42 24 -4 24 119 l0 135 28 1 c15 0 36 4 47 8 19 8 19 8 -2 19 -12 7 -58
12 -102 12 -74 0 -81 -2 -81 -20z"/>
<path d="M6110 6391 c0 -132 12 -200 30 -171 6 8 10 43 10 78 l0 62 59 0 c90
0 91 -1 91 -81 0 -55 3 -69 15 -69 13 0 15 24 15 155 0 99 -4 155 -10 155 -17
0 -32 -53 -26 -92 l6 -38 -75 0 -75 0 0 49 c0 59 -7 81 -26 81 -11 0 -14 -25
-14 -129z"/>
<path d="M6410 6365 l0 -155 85 0 c69 0 85 3 85 15 0 12 -14 15 -65 15 l-65 0
0 54 c0 60 6 66 71 66 24 0 38 4 34 10 -3 6 -28 10 -56 10 l-49 0 0 55 0 55
61 0 c44 0 60 3 57 13 -3 8 -31 13 -81 15 l-77 3 0 -156z"/>
<path d="M6640 6366 c0 -145 1 -157 18 -154 14 3 17 14 17 65 0 34 3 65 7 69
16 15 57 -17 89 -70 30 -48 62 -76 74 -64 2 2 -14 32 -35 66 -22 35 -40 67
-40 71 0 5 11 16 25 25 20 13 25 25 25 61 0 57 -25 75 -115 83 l-65 5 0 -157z
m126 103 c8 -6 14 -24 14 -40 0 -32 -23 -49 -68 -49 -22 0 -31 6 -36 23 -8 31
-7 72 2 81 9 10 70 0 88 -15z"/>
<path d="M6900 6365 l0 -155 85 0 c79 0 102 8 73 26 -6 4 -36 7 -65 6 l-54 -1
3 57 3 57 48 3 c72 5 56 32 -19 32 l-34 0 0 49 0 48 53 -1 c28 0 58 3 65 8 27
16 -2 26 -79 26 l-79 0 0 -155z"/>
<path d="M3090 6505 c0 -10 52 -110 72 -138 15 -20 21 -46 22 -90 1 -48 5 -62
17 -65 13 -2 17 10 21 66 4 58 12 83 48 146 23 43 40 80 36 83 -13 13 -35 -10
-67 -71 -19 -36 -37 -66 -40 -66 -3 0 -13 17 -23 38 -26 56 -59 102 -73 102
-7 0 -13 -2 -13 -5z"/>
<path d="M8813 5939 c-63 -11 -152 -46 -210 -82 -52 -33 -142 -125 -190 -194
l-36 -53 -106 0 c-58 0 -113 -5 -121 -10 -24 -17 46 -71 156 -121 83 -38 94
-46 89 -64 -3 -11 -15 -63 -27 -115 -23 -106 -47 -159 -107 -239 -23 -30 -41
-61 -41 -70 0 -8 12 -28 27 -43 26 -27 27 -32 24 -117 -3 -125 20 -168 102
-191 26 -8 55 -8 90 -1 29 5 73 12 100 16 l47 6 0 -62 0 -62 -92 -125 c-121
-166 -229 -328 -250 -377 -10 -22 -43 -112 -73 -199 -31 -88 -74 -194 -95
-235 -43 -87 -127 -204 -143 -198 -17 5 -172 270 -264 450 -48 95 -94 172
-106 178 -25 14 -79 7 -190 -24 l-88 -25 -26 51 c-49 99 -106 187 -135 212
-39 33 -109 33 -247 0 -287 -70 -535 -256 -734 -550 l-60 -89 79 -74 c114
-107 614 -548 859 -758 334 -286 311 -271 358 -234 23 18 27 19 61 5 50 -21
122 -19 173 6 52 25 115 95 139 154 15 35 34 53 104 101 101 69 187 149 282
262 105 125 133 102 49 -43 -118 -205 -147 -462 -92 -815 53 -337 298 -1437
337 -1512 9 -17 13 -36 11 -43 -3 -7 -39 -17 -84 -24 -191 -28 -308 -100 -359
-220 -25 -60 -21 -66 57 -85 39 -9 110 -22 157 -28 104 -12 395 -5 470 12 l52
12 -1 41 c0 23 -8 71 -18 107 -10 36 -28 102 -41 148 -19 67 -21 86 -11 105 9
17 8 69 -4 232 -29 408 -38 798 -26 1090 7 148 15 273 19 277 4 4 137 -298
296 -670 357 -833 387 -899 429 -934 37 -30 41 -27 -82 -57 -46 -11 -107 -32
-136 -45 -100 -46 -184 -145 -185 -219 0 -43 32 -50 256 -55 215 -5 294 5 432
49 45 15 62 25 62 39 0 29 -48 167 -87 249 -19 42 -37 96 -39 121 -4 53 -132
623 -210 935 -110 438 -237 876 -320 1100 l-45 120 23 15 c13 8 79 59 148 114
149 118 292 261 340 342 34 56 35 62 35 154 -1 77 -6 110 -28 175 -60 174
-225 470 -351 630 -30 39 -69 93 -86 122 -17 28 -46 65 -64 81 -30 26 -33 33
-27 68 6 34 12 42 59 67 106 57 217 182 260 293 l20 49 51 1 c33 1 58 7 68 16
20 21 36 164 28 257 -23 273 -211 510 -463 585 -69 20 -183 27 -249 15z m211
-44 c97 -25 214 -92 287 -165 113 -111 179 -280 179 -456 0 -73 0 -74 -26 -74
-34 0 -231 66 -271 91 -20 13 -41 18 -53 14 -23 -7 -166 32 -278 76 -42 17
-161 71 -264 121 l-187 91 17 30 c29 51 184 201 238 229 105 57 243 73 358 43z
m-409 -437 c274 -133 278 -134 537 -208 234 -67 284 -84 310 -107 21 -19 8
-43 -23 -43 -31 0 -279 67 -389 105 -191 67 -610 247 -775 334 l-60 31 90 -3
90 -2 220 -107z m-29 -99 l132 -61 6 -47 c3 -26 2 -71 -4 -100 -15 -80 -13
-128 6 -135 25 -9 34 -7 34 8 0 8 12 28 26 45 20 24 34 31 62 31 59 -1 92 -38
92 -103 0 -43 -20 -61 -93 -82 -52 -15 -61 -21 -74 -53 -19 -45 -10 -108 21
-154 l22 -33 91 1 91 2 -5 -37 c-3 -20 -13 -42 -22 -49 -30 -24 -147 -54 -233
-59 l-88 -6 0 69 c0 38 -4 75 -9 83 -9 14 -12 14 -206 -5 -51 -5 -64 -3 -86
15 -55 43 -74 131 -28 131 10 0 19 7 19 15 0 20 -36 91 -66 131 l-23 31 29 28
c44 42 87 133 110 231 19 85 47 164 58 164 3 0 65 -27 138 -61z m452 -801 c-6
-17 -83 -45 -172 -64 -92 -19 -267 -30 -246 -15 8 6 34 11 56 11 66 0 206 27
275 54 75 28 92 31 87 14z m68 -89 c31 -60 44 -145 44 -280 0 -181 -30 -293
-140 -529 -92 -195 -112 -257 -116 -360 l-3 -84 -46 -18 c-88 -35 -219 -51
-365 -45 -74 3 -143 8 -153 12 -32 13 -12 88 49 184 137 213 332 671 310 728
-11 28 -31 -3 -61 -97 -40 -120 -115 -300 -179 -429 -130 -259 -386 -577 -558
-695 l-81 -56 -61 57 c-34 31 -67 62 -75 69 -12 11 -9 22 24 71 52 80 153 208
248 317 149 171 209 278 301 543 68 196 92 240 255 461 l75 102 46 0 c105 0
317 43 405 81 22 10 44 16 50 15 5 -1 19 -22 31 -47z m161 -219 c182 -272 295
-533 296 -686 0 -50 -5 -71 -28 -110 -37 -65 -243 -267 -383 -377 l-112 -88
-35 77 c-19 42 -46 107 -59 144 l-25 69 35 20 c112 66 314 240 314 270 0 18
-67 143 -112 210 l-29 44 28 101 c25 92 28 116 28 272 0 193 -8 188 82 54z
m-2132 -42 c12 -13 53 -75 90 -138 37 -63 116 -180 175 -260 58 -80 177 -243
264 -363 l157 -217 -76 -101 c-41 -55 -84 -118 -95 -139 -14 -27 -29 -41 -48
-46 -93 -19 -205 -72 -222 -105 -16 -30 8 -33 48 -6 64 42 115 64 162 70 44 6
46 5 114 -56 l69 -63 -22 -49 c-41 -93 -106 -155 -178 -170 -66 -13 -209 52
-201 92 2 7 37 31 78 51 79 39 101 70 45 64 -57 -6 -106 -2 -128 9 -12 7 -87
60 -167 119 -80 58 -345 241 -590 405 -245 164 -447 300 -450 302 -16 13 131
205 238 310 185 183 357 271 622 317 46 8 94 -3 115 -26z m510 -344 c39 -77
120 -220 179 -316 58 -97 106 -180 106 -185 0 -5 -19 -30 -42 -57 l-43 -47
-106 143 c-174 235 -389 537 -389 547 0 5 37 19 83 30 45 12 87 24 92 26 34
13 49 -4 120 -141z m1549 -218 l36 -70 -52 -54 c-74 -74 -248 -207 -248 -188
0 36 57 192 116 315 l64 135 24 -35 c13 -18 40 -65 60 -103z m-2519 -424 c233
-157 473 -325 564 -394 35 -26 89 -60 119 -75 l54 -26 -36 -19 c-20 -10 -36
-26 -37 -36 -3 -42 4 -67 24 -83 31 -25 14 -35 -22 -13 -55 35 -922 784 -966
834 -26 30 34 -8 300 -188z m2931 -2498 c8 -20 14 -37 12 -39 -12 -9 -77 -25
-104 -25 -27 0 -36 6 -49 30 -13 25 -13 31 -2 35 14 6 107 32 120 34 4 0 15
-15 23 -35z m-958 -53 c3 -28 -1 -33 -32 -46 -66 -28 -102 -18 -112 31 l-6 31
64 10 c81 13 82 12 86 -26z"/>
<path d="M8769 5835 c-70 -14 -129 -39 -129 -55 0 -21 24 -20 84 4 49 20 82
26 138 26 230 0 424 -134 493 -340 18 -54 32 -80 42 -80 22 0 10 69 -26 145
-103 220 -364 350 -602 300z"/>
<path d="M8723 5574 c-3 -8 -4 -16 -2 -18 7 -7 254 -143 308 -170 83 -42 86
-17 4 36 -83 55 -215 130 -266 152 -34 14 -39 14 -44 0z"/>
<path d="M8483 5234 c-15 -24 -15 -26 5 -46 17 -17 24 -19 35 -9 18 14 27 45
18 58 -15 23 -41 22 -58 -3z"/>
<path d="M4475 4624 c-848 -279 -1869 -617 -3135 -1037 -1243 -412 -1335 -444
-1338 -466 -3 -21 -1 -23 25 -17 26 7 1252 412 3663 1211 987 327 1157 381
1164 374 7 -8 127 -380 451 -1394 471 -1473 924 -2881 998 -3100 56 -167 66
-190 86 -193 20 -3 22 0 16 20 -4 13 -59 181 -121 373 -62 193 -252 784 -422
1315 -911 2842 -975 3040 -991 3039 -9 0 -187 -57 -396 -125z"/>
<path d="M2440 3518 c-2594 -863 -2434 -808 -2438 -835 -3 -20 2 -20 125 19
114 35 1414 461 1448 474 10 4 20 -15 35 -68 12 -40 48 -158 81 -262 33 -104
58 -190 57 -191 -2 -1 -33 -16 -70 -33 -171 -79 -263 -247 -228 -418 25 -122
108 -237 204 -283 91 -45 187 -49 303 -15 20 5 24 -3 59 -113 71 -226 132
-448 126 -454 -11 -11 -147 -67 -287 -119 -71 -27 -147 -55 -167 -64 -21 -9
-41 -16 -45 -16 -4 0 -21 21 -37 46 -143 226 -372 354 -636 354 -102 0 -219
-23 -304 -60 -27 -11 -50 -19 -51 -18 -2 2 -69 125 -150 273 -81 149 -154 278
-161 289 -10 15 -10 26 3 60 20 58 28 172 14 235 -33 154 -151 283 -298 326
-41 12 -24 -10 23 -29 166 -68 286 -250 271 -410 -3 -34 -15 -87 -27 -118
l-21 -56 44 -69 c73 -113 292 -512 285 -518 -2 -1 -23 -15 -48 -30 -25 -15
-81 -65 -126 -109 -95 -96 -162 -216 -190 -342 -22 -99 -15 -286 15 -389 11
-38 19 -71 17 -72 -1 -1 -60 -25 -131 -54 -138 -55 -141 -56 -133 -64 3 -3 38
8 78 25 114 47 210 80 207 72 -6 -19 85 -152 149 -218 239 -245 580 -302 885
-149 100 51 234 164 215 182 -3 3 -15 -6 -27 -20 -60 -77 -227 -175 -356 -207
-317 -82 -682 83 -829 372 l-24 48 41 21 c56 28 379 159 394 159 6 0 24 -14
41 -31 70 -75 188 -94 288 -45 l56 28 135 -97 c74 -52 172 -125 217 -160 46
-36 151 -115 233 -177 83 -61 171 -129 197 -151 26 -21 54 -37 62 -35 12 2
-194 167 -376 300 -17 12 -15 19 26 98 117 225 134 409 60 638 -14 42 -21 78
-17 82 9 8 396 161 456 180 22 7 42 8 46 4 4 -5 60 -184 125 -399 65 -214 154
-506 198 -648 l81 -257 35 0 c28 0 33 3 27 18 -3 9 -36 116 -71 237 -36 121
-76 255 -90 298 -15 43 -24 80 -23 81 9 7 171 58 174 54 7 -7 104 -299 160
-483 32 -104 61 -194 66 -199 22 -24 16 10 -21 120 -23 65 -79 243 -126 394
-79 255 -621 1960 -631 1987 -5 13 422 157 438 148 5 -4 31 -77 58 -163 52
-163 315 -1018 371 -1203 l32 -107 37 10 c36 9 383 121 1141 368 223 73 417
136 432 140 27 8 28 8 53 -78 15 -48 68 -217 120 -377 195 -604 358 -1126 353
-1129 -2 -1 -73 -24 -158 -50 -85 -27 -162 -52 -170 -57 -10 -6 14 -8 65 -6
69 3 124 17 400 106 469 150 629 203 638 211 4 4 -156 515 -357 1136 -200 621
-446 1383 -546 1694 -324 1010 -351 1090 -358 1089 -4 0 -981 -325 -2172 -721z
m2158 627 c17 -36 302 -923 302 -938 0 -10 -197 -87 -222 -87 -8 0 -17 27
-193 604 -63 208 -114 380 -113 381 12 9 177 64 194 64 13 1 25 -9 32 -24z
m-240 -82 c6 -16 32 -98 57 -183 26 -85 80 -261 120 -390 105 -337 116 -380
102 -385 -180 -59 -827 -264 -841 -267 -15 -2 -23 10 -43 67 -36 105 -275 878
-277 894 -1 16 56 37 514 187 173 56 325 103 336 103 15 1 25 -8 32 -26z
m-913 -397 c19 -62 35 -115 35 -119 0 -3 -46 -20 -102 -37 -55 -18 -107 -34
-115 -37 -13 -5 -34 34 -48 89 -6 24 -3 26 44 38 53 13 60 23 40 65 -8 16 -8
15 -4 -8 5 -23 1 -29 -20 -37 -68 -26 -71 -25 -89 26 -9 26 -16 51 -16 55 0 7
91 41 96 36 2 -1 8 -14 14 -27 10 -24 10 -24 5 5 -5 29 -3 31 52 51 32 12 61
19 65 17 4 -2 23 -55 43 -117z m-299 -33 c9 -32 27 -85 40 -118 l23 -60 -382
-127 c-210 -69 -390 -127 -399 -127 -13 -1 -25 24 -52 111 -20 62 -34 114 -31
116 5 6 394 139 490 167 44 14 123 40 175 59 52 19 100 35 107 35 7 1 20 -25
29 -56z m377 -223 c71 -214 185 -596 179 -601 -8 -8 -181 -59 -198 -59 -6 0
-16 12 -22 26 -23 50 -202 618 -196 623 10 11 189 70 204 68 9 -1 23 -26 33
-57z m-1144 -348 c57 -182 102 -334 99 -337 -11 -12 -433 -143 -439 -137 -10
11 -221 664 -216 669 10 10 423 143 437 140 10 -1 48 -109 119 -335z m1005
-54 c68 -211 141 -435 161 -498 21 -63 50 -142 65 -175 82 -181 259 -315 462
-351 413 -74 795 299 737 720 -6 44 -17 94 -25 110 -14 31 -14 31 -9 -19 24
-248 17 -312 -50 -450 -156 -325 -556 -447 -862 -263 -86 52 -182 159 -230
258 -56 114 -121 329 -103 340 28 17 203 61 210 53 5 -4 11 -20 15 -34 6 -23
2 -27 -34 -39 -45 -15 -47 -18 -28 -44 12 -17 18 -16 114 14 95 30 100 33 95
57 -4 21 -9 24 -31 20 -14 -3 -34 -9 -43 -12 -13 -5 -19 1 -26 27 -8 29 -6 35
13 45 12 7 172 59 356 117 184 58 365 116 402 128 68 22 69 22 83 3 19 -26 14
-37 -24 -54 -33 -15 -44 -47 -19 -57 20 -7 207 55 207 69 -1 32 -16 39 -59 26
-47 -14 -51 -12 -54 26 -2 27 2 29 105 64 68 22 111 32 117 26 5 -6 55 -154
111 -330 56 -176 133 -417 171 -536 38 -119 69 -221 69 -225 0 -12 -48 -28
-1165 -393 -1102 -359 -1093 -356 -1098 -350 -6 6 -164 505 -252 794 -42 138
-133 430 -201 649 -68 219 -123 400 -122 401 5 5 793 263 805 264 7 1 64 -158
137 -381z m-1474 -95 c60 -185 109 -337 107 -338 -1 -1 -33 -13 -72 -25 -38
-13 -75 -25 -82 -27 -6 -3 -20 21 -33 54 -33 87 -192 614 -187 619 4 5 138 52
149 53 4 1 57 -151 118 -336z m-118 -383 c29 -86 164 -549 170 -584 7 -41
-140 -60 -239 -31 -161 48 -275 216 -259 384 11 123 88 236 201 296 80 42 93
35 127 -65z m268 -76 c26 -71 55 -173 49 -177 -2 -2 -38 -13 -79 -25 -71 -21
-76 -22 -88 -5 -14 20 -62 170 -62 195 0 11 23 24 73 41 39 14 75 26 79 26 4
1 16 -24 28 -55z m98 -326 c48 -134 211 -641 214 -667 3 -21 -5 -26 -79 -51
l-82 -28 -14 37 c-9 20 -30 86 -47 147 -34 118 -156 522 -170 566 -8 25 -6 27
58 52 37 14 72 25 79 25 6 1 25 -36 41 -81z m3173 -249 c130 -405 255 -797
360 -1124 71 -219 125 -402 121 -406 -11 -10 -198 -73 -414 -139 -109 -33
-204 -63 -211 -66 -18 -6 -34 36 -166 451 -179 561 -355 1135 -349 1139 10 8
625 204 632 202 6 -1 18 -27 27 -57z m-4172 -380 c177 -48 316 -153 430 -322
l32 -47 -28 -11 c-15 -6 -92 -35 -171 -65 -79 -30 -170 -66 -204 -80 l-61 -26
-26 21 c-70 56 -115 76 -171 76 -30 0 -68 -3 -85 -7 l-30 -8 -108 203 c-121
228 -120 209 -18 248 136 52 297 58 440 18z m-427 -292 l97 -181 -49 -53 c-62
-68 -80 -133 -61 -219 7 -30 11 -57 9 -60 -5 -5 -416 -174 -431 -177 -14 -3
-44 90 -57 180 -22 140 2 281 70 418 52 107 123 191 217 260 l78 57 15 -23 c8
-12 59 -103 112 -202z m1677 145 c13 -24 181 -568 181 -585 0 -11 -137 -67
-163 -67 -14 0 -201 610 -190 621 9 8 131 48 150 48 7 1 17 -7 22 -17z m-759
-299 c40 -105 52 -189 47 -313 -5 -134 -34 -233 -98 -343 l-40 -68 -32 20
c-18 11 -113 80 -213 153 l-180 132 29 58 c37 71 45 139 23 192 -9 21 -16 42
-16 46 0 5 28 18 63 29 34 12 132 50 217 85 85 36 160 65 167 65 6 1 21 -25
33 -56z m-629 -34 c165 -50 208 -276 74 -387 -87 -71 -205 -68 -287 6 -103 93
-104 242 -3 331 68 59 133 74 216 50z"/>
<path d="M3048 3541 c-48 -16 -90 -26 -93 -23 -3 3 -5 0 -5 -6 0 -7 4 -12 8
-12 12 0 184 59 190 65 9 9 -12 4 -100 -24z"/>
<path d="M788 2646 c-119 -32 -188 -125 -188 -251 1 -215 260 -323 423 -176
125 112 97 330 -51 405 -61 30 -125 38 -184 22z m177 -39 c87 -49 136 -151
116 -247 -15 -75 -54 -128 -121 -163 -48 -25 -63 -28 -122 -25 -55 3 -75 9
-110 34 -129 90 -146 254 -38 362 72 72 185 88 275 39z"/>
<path d="M812 2448 c-24 -31 -23 -57 2 -83 30 -30 46 -31 76 -7 25 20 30 63
10 87 -15 18 -74 20 -88 3z m70 -15 c32 -29 16 -73 -27 -73 -43 0 -58 39 -28
72 20 22 31 23 55 1z"/>
<path d="M0 2433 c0 -5 13 -15 29 -25 16 -9 44 -40 61 -70 27 -47 31 -60 28
-118 -4 -82 -32 -138 -81 -165 -20 -11 -37 -22 -37 -25 0 -3 21 -22 48 -41 66
-50 152 -129 152 -140 0 -14 -118 -88 -162 -101 -34 -10 -52 -28 -29 -28 19 0
137 54 168 77 61 45 38 90 -95 193 l-43 33 25 26 c13 14 36 51 50 81 54 115
20 246 -76 296 -31 16 -38 17 -38 7z"/>
<path d="M3685 803 c-115 -24 -251 -105 -321 -191 -91 -112 -128 -217 -128
-367 0 -108 32 -245 58 -245 9 0 6 19 -12 73 -80 238 10 494 222 635 77 50
151 74 251 79 170 10 299 -40 421 -161 146 -146 191 -339 125 -536 -30 -86
-31 -111 -5 -75 26 35 46 117 51 210 10 169 -40 299 -162 420 -82 82 -144 118
-251 145 -71 18 -195 25 -249 13z"/>
</g>
</svg>
