<?xml version="1.0" standalone="no"?>
<!DOCTYPE svg PUBLIC "-//W3C//DTD SVG 20010904//EN"
 "http://www.w3.org/TR/2001/REC-SVG-20010904/DTD/svg10.dtd">
<svg version="1.0" xmlns="http://www.w3.org/2000/svg"
 width="1024.000000pt" height="1024.000000pt" viewBox="0 0 1024.000000 1024.000000"
 preserveAspectRatio="xMidYMid meet">

<g transform="translate(0.000000,1024.000000) scale(0.100000,-0.100000)"
fill="#e0e0e0" stroke="none">
<path d="M5270 9694 c-45 -19 -87 -59 -110 -105 -10 -20 -37 -112 -60 -205
-34 -138 -310 -1222 -726 -2851 -66 -262 -76 -327 -48 -321 11 2 74 235 259
973 134 534 306 1209 383 1500 76 292 158 610 182 707 24 98 51 190 60 206 20
32 75 62 129 69 25 3 215 -40 621 -140 837 -208 3405 -856 3437 -868 68 -25
134 -121 135 -193 1 -43 -68 -330 -331 -1381 -87 -346 -169 -681 -182 -742
-13 -62 -27 -113 -30 -113 -4 0 -13 17 -20 38 -6 20 -29 72 -50 114 l-39 77
16 88 c8 48 52 237 98 418 355 1412 380 1515 370 1525 -13 13 -3961 1002
-3987 998 -17 -3 -26 -27 -62 -163 -23 -88 -103 -389 -178 -670 -155 -584
-395 -1522 -533 -2085 -52 -212 -97 -392 -99 -401 -7 -22 9 -26 918 -253 428
-106 780 -195 783 -198 6 -7 -26 -140 -36 -152 -10 -11 -87 7 -470 109 -274
73 -1197 309 -1256 322 -26 6 -70 -15 -58 -27 15 -14 302 -90 1193 -314 315
-80 574 -146 576 -148 4 -5 -60 -286 -67 -293 -3 -4 -77 12 -164 33 -235 59
-214 62 -241 -33 -13 -44 -22 -98 -21 -120 l3 -39 95 -23 c343 -82 1220 -296
1452 -354 153 -38 287 -69 298 -69 26 0 44 40 61 134 10 50 10 72 2 85 -10 16
-6 20 30 31 23 7 59 21 79 31 21 11 40 19 43 19 11 0 5 -162 -11 -282 -19
-149 -32 -220 -274 -1478 -206 -1075 -304 -1573 -380 -1937 -34 -163 -46 -239
-41 -260 4 -15 4 -40 -1 -55 -11 -32 -39 -46 -278 -143 -287 -116 -280 -112
-304 -167 l-22 -49 -1341 1 c-738 0 -1363 3 -1388 6 -25 4 -45 11 -45 15 0 10
482 11 650 0 77 -4 119 -3 126 4 8 7 37 8 85 4 159 -16 186 -7 196 69 5 39 3
45 -29 75 -20 18 -84 55 -144 82 -211 93 -324 154 -324 174 0 10 -14 37 -31
61 -17 24 -85 133 -151 244 -166 277 -248 395 -352 503 -149 157 -249 190
-531 180 -83 -3 -243 -19 -360 -36 -328 -48 -694 -63 -852 -35 l-31 6 18 31
c10 18 28 62 40 99 12 38 25 68 29 68 4 0 22 -11 41 -25 43 -31 58 -31 70 -1
10 26 27 33 155 60 39 8 117 26 175 40 58 14 108 26 111 26 4 0 9 -9 12 -20 3
-11 18 -25 34 -31 19 -7 245 -9 738 -7 659 3 713 4 735 21 14 9 95 65 181 125
l157 107 252 498 251 498 -35 14 c-19 8 -43 15 -52 15 -10 0 -58 -24 -108 -54
-50 -29 -109 -63 -131 -74 -72 -36 -104 -79 -183 -247 -42 -88 -125 -258 -184
-377 l-108 -218 -140 0 -140 0 -51 35 c-61 42 -98 49 -205 42 -76 -5 -90 -3
-166 24 -46 17 -159 49 -253 70 -222 52 -289 73 -351 108 -33 19 -133 114
-284 270 -129 131 -255 256 -282 277 -46 37 -48 40 -48 91 l0 53 33 0 c48 0
129 44 152 82 41 70 6 301 -70 450 l-33 66 30 29 c50 47 78 113 78 185 0 80
-22 127 -72 151 -33 16 -44 17 -99 6 -89 -17 -297 -124 -394 -202 -56 -44 -92
-66 -118 -70 -58 -9 -124 -45 -149 -80 -19 -26 -23 -45 -23 -102 0 -96 41
-170 144 -267 l76 -71 -39 -31 c-22 -17 -53 -43 -70 -58 -30 -25 -30 -27 -13
-46 19 -21 71 -36 167 -50 l55 -8 -3 -62 c-3 -52 1 -72 22 -115 60 -123 192
-206 265 -167 25 13 51 81 51 133 0 99 -9 106 277 -189 147 -150 285 -286 307
-302 56 -40 126 -64 291 -102 213 -48 336 -80 363 -94 24 -13 22 -14 -52 -45
l-77 -32 -52 25 c-60 30 -191 51 -255 41 -38 -6 -46 -3 -59 14 -12 18 -25 21
-87 21 -40 0 -154 3 -253 7 l-180 6 -17 28 c-14 24 -15 41 -6 137 11 119 5
171 -30 265 -23 62 -60 112 -77 106 -7 -2 5 -43 30 -104 40 -98 41 -102 37
-200 -2 -55 -4 -130 -3 -167 l0 -68 -78 0 -78 0 -120 238 c-66 130 -147 278
-179 327 -60 92 -133 168 -140 146 -4 -12 5 -26 89 -142 25 -35 106 -181 179
-324 73 -143 137 -266 142 -272 8 -10 60 -13 198 -13 103 0 235 -3 294 -7
l107 -6 -3 -85 -3 -85 -130 -44 c-71 -24 -213 -64 -315 -88 -102 -24 -198 -48
-214 -55 -25 -9 -32 -8 -53 12 -56 52 -209 303 -369 601 -52 98 -79 137 -96
137 -31 0 38 -137 247 -485 l153 -256 -35 -92 c-49 -133 -48 -132 -152 -156
-284 -67 -612 -77 -736 -22 -54 24 -66 58 -54 148 34 244 327 833 563 1128 79
100 166 173 216 181 60 10 64 12 49 30 -10 12 -24 15 -52 11 -144 -19 -381
-327 -609 -793 -191 -389 -257 -629 -191 -695 19 -20 19 -21 1 -102 -27 -118
-34 -304 -15 -394 31 -145 110 -259 218 -314 33 -16 59 -34 59 -39 0 -6 -20
-45 -43 -88 -24 -42 -81 -148 -126 -234 l-82 -158 -312 -2 c-288 -3 -312 -4
-315 -20 -3 -17 230 -18 4797 -18 3195 0 4802 3 4806 10 17 27 -65 31 -659 30
l-611 -1 -7 88 c-3 48 -17 124 -31 168 -14 44 -28 99 -31 123 -6 38 -4 43 18
52 29 11 28 6 61 335 58 577 50 950 -27 1255 l-31 125 31 290 c54 494 56 522
56 825 0 309 -10 420 -55 625 -12 54 -18 104 -14 124 4 19 31 84 61 144 104
205 151 406 159 664 4 115 10 165 34 260 17 65 61 251 100 413 83 352 484
1969 542 2190 52 198 55 271 16 352 -31 63 -71 102 -134 130 -24 10 -162 48
-308 83 -222 53 -2175 547 -3183 805 -465 118 -577 136 -652 104z m2104 -748
c1066 -267 1940 -487 1943 -489 2 -3 -86 -364 -197 -803 -111 -440 -217 -868
-236 -953 -19 -85 -36 -156 -37 -158 -2 -1 -20 28 -42 65 -113 198 -324 312
-529 286 -81 -10 -80 -12 -34 48 l29 37 -94 82 -94 83 19 65 c10 36 26 96 34
133 l16 66 71 6 c40 4 93 9 118 12 l46 5 -4 132 c-3 73 -6 137 -8 143 -2 7
-46 14 -114 19 -63 4 -114 12 -119 19 -5 6 -19 40 -31 76 -13 36 -41 100 -63
142 l-40 77 54 68 c30 37 65 83 78 102 l24 35 -103 98 c-57 54 -108 98 -113
98 -4 0 -48 -36 -97 -80 -49 -44 -92 -80 -95 -80 -2 0 -27 14 -54 30 -26 17
-75 42 -108 55 -69 28 -71 33 -73 171 -1 55 -6 96 -13 106 -10 11 -50 19 -153
29 -77 8 -144 14 -150 14 -5 0 -21 -58 -35 -130 l-26 -129 -64 -13 c-36 -7
-93 -23 -127 -35 -35 -12 -64 -20 -66 -17 -2 2 -25 40 -51 84 -56 94 -94 145
-106 145 -13 0 -156 -110 -227 -175 -35 -31 -63 -54 -63 -51 0 20 47 97 62
102 27 8 22 20 -24 51 -60 40 -61 64 -4 105 25 17 46 36 46 41 0 5 -12 36 -26
67 l-26 58 -47 -14 c-64 -19 -67 -19 -91 22 -19 30 -21 44 -16 93 l7 57 -40
22 c-21 12 -44 22 -50 22 -6 0 -26 -22 -43 -50 -32 -47 -35 -50 -79 -50 -42 0
-47 3 -77 45 l-31 44 -46 -16 -47 -15 7 -57 c6 -55 5 -57 -29 -91 -36 -34 -37
-34 -81 -22 -25 7 -50 12 -56 12 -9 0 -64 -109 -57 -115 2 -1 24 -14 51 -29
43 -26 47 -31 47 -66 0 -35 -3 -38 -43 -54 -23 -9 -49 -16 -56 -16 -14 0 -9
-41 11 -92 10 -26 15 -28 67 -28 55 0 56 -1 83 -43 24 -39 26 -46 16 -89 -11
-44 -10 -48 13 -67 32 -27 38 -26 87 10 38 28 46 30 80 22 31 -7 41 -16 59
-56 24 -50 31 -53 106 -40 36 6 39 8 33 34 -11 58 2 85 55 110 38 17 52 20 61
11 7 -7 22 -12 34 -12 17 0 23 8 30 42 l9 42 63 -96 64 -97 -43 -58 c-45 -60
-119 -198 -119 -220 0 -7 -8 -14 -17 -14 -10 -1 -67 -4 -128 -8 l-110 -6 -11
-90 c-6 -49 -13 -120 -16 -156 l-5 -66 121 -28 121 -27 16 -82 c9 -44 13 -82
9 -84 -4 -1 -28 -16 -54 -32 -52 -34 -67 -57 -44 -74 8 -6 34 -48 57 -93 23
-44 57 -98 74 -118 33 -38 33 -38 64 -22 l31 17 50 -64 c28 -35 69 -76 91 -92
27 -19 39 -34 35 -44 -25 -60 -74 -203 -74 -213 1 -14 274 -142 287 -134 6 4
29 50 53 104 23 54 45 101 49 105 3 4 38 3 76 -3 39 -5 104 -12 146 -15 l77
-5 38 -106 39 -105 35 6 c35 5 249 65 261 72 4 2 -4 49 -17 105 -13 55 -22
105 -19 109 3 5 33 24 68 44 34 19 88 57 121 84 l58 48 82 -54 c44 -30 85 -57
89 -61 4 -5 -8 -56 -29 -114 -26 -76 -49 -123 -81 -164 -43 -55 -45 -60 -38
-103 4 -25 7 -93 8 -152 2 -139 12 -151 122 -156 87 -5 91 -9 101 -95 l6 -55
-89 -98 c-149 -164 -277 -278 -462 -414 l-74 -54 -29 34 c-16 19 -72 95 -126
170 -53 74 -151 207 -218 295 -66 89 -143 199 -172 246 -70 116 -130 184 -247
284 -99 85 -199 145 -240 145 -27 0 -51 -19 -60 -48 -6 -20 4 -34 57 -86 34
-34 81 -76 103 -93 35 -28 38 -34 27 -50 -14 -20 -62 -120 -62 -130 0 -3 38
-45 85 -93 83 -84 87 -91 156 -246 38 -87 74 -163 80 -169 5 -5 9 -14 9 -20 0
-12 -405 86 -1490 360 -421 106 -780 196 -798 200 -28 6 -33 11 -29 29 52 239
218 889 552 2171 145 556 267 1022 270 1037 6 22 12 27 29 23 11 -3 893 -223
1960 -489z m-1088 -81 c-6 -59 -6 -61 31 -103 l38 -44 46 20 47 20 17 -38 17
-39 -41 -39 c-53 -50 -55 -85 -7 -131 l34 -33 -23 -34 c-13 -18 -31 -56 -41
-83 -17 -47 -19 -49 -50 -44 -25 4 -46 -2 -88 -27 l-56 -32 6 -48 6 -47 -37
-7 c-42 -8 -51 -1 -61 51 -6 33 -13 36 -94 48 -38 5 -50 2 -79 -19 -19 -14
-39 -26 -44 -26 -6 0 -7 23 -4 56 5 50 3 59 -26 100 -30 43 -32 44 -89 44 -56
0 -58 1 -66 33 -5 17 -7 35 -5 39 2 3 26 14 53 23 l50 17 0 53 c0 52 -1 54
-45 82 -25 15 -45 32 -45 36 0 16 31 67 40 67 5 0 25 -7 44 -16 l34 -17 51 44
51 44 -5 57 c-5 52 -4 57 17 64 18 5 28 0 50 -27 15 -18 28 -37 28 -41 0 -4
31 -8 68 -8 l69 0 27 50 27 50 31 -17 c29 -18 30 -19 24 -78z m1194 -315 c0
-93 11 -190 22 -190 11 0 184 -83 230 -111 l37 -22 85 81 c47 45 89 82 94 82
4 0 42 -35 84 -77 l77 -78 -73 -98 -74 -98 40 -69 c39 -66 98 -218 98 -251 0
-13 14 -18 60 -23 33 -3 86 -9 119 -12 l59 -6 7 -99 c3 -54 4 -103 1 -108 -4
-5 -56 -13 -116 -16 -102 -7 -111 -9 -115 -29 -19 -95 -41 -180 -60 -228 l-23
-57 51 -48 c29 -27 72 -65 96 -85 l45 -36 -29 -39 c-43 -58 -97 -113 -112
-113 -8 0 -58 29 -112 64 l-99 64 -29 -30 c-35 -38 -131 -106 -201 -143 l-53
-29 6 -40 c4 -23 13 -66 21 -97 8 -31 14 -61 14 -66 0 -13 -223 -77 -228 -66
-2 4 -20 51 -40 103 l-37 95 -115 6 c-63 4 -135 12 -160 18 -75 18 -73 19
-120 -90 -25 -56 -50 -103 -56 -106 -12 -5 -54 14 -160 73 l-62 34 39 112 40
111 -23 15 c-13 8 -53 45 -90 82 -51 52 -76 88 -112 161 -52 110 -90 233 -105
344 -6 43 -13 80 -15 82 -2 2 -50 15 -107 28 -57 14 -109 27 -115 29 -10 4 -7
65 11 199 l7 47 41 0 c23 0 78 3 123 6 l81 7 19 56 c18 54 117 215 149 241 8
7 15 18 15 25 0 6 -30 54 -66 105 -66 91 -67 93 -47 109 12 9 56 45 99 79 42
35 88 71 102 80 30 19 27 22 114 -124 l60 -101 75 29 c42 16 110 36 151 44 42
8 78 16 80 19 2 2 13 55 23 117 11 62 21 118 23 123 3 8 44 6 130 -4 l126 -15
0 -66z m-1026 -1393 c25 -65 46 -120 46 -122 0 -2 -14 -8 -32 -14 -27 -10 -35
-9 -49 6 -29 29 -111 184 -105 199 7 18 79 64 88 55 3 -3 27 -59 52 -124z
m1733 -537 c6 0 30 9 54 20 70 31 77 28 84 -37 3 -32 19 -112 35 -178 37 -150
32 -176 -45 -252 -50 -48 -120 -93 -146 -93 -7 0 -9 9 -5 25 l6 25 -82 -6
c-74 -6 -86 -4 -109 15 -30 23 -40 59 -32 116 l5 40 52 -3 c38 -3 56 1 65 12
18 21 8 32 -47 52 -105 39 -113 58 -52 127 38 43 79 118 80 145 0 7 7 29 15
49 l16 37 47 -47 c26 -26 53 -47 59 -47z m-1641 -136 c14 -9 37 -38 51 -63 15
-25 33 -54 41 -63 31 -36 -6 -16 -86 47 -45 36 -82 72 -82 80 0 20 44 19 76
-1z m185 -131 c72 -61 114 -112 186 -224 32 -50 86 -130 121 -179 34 -49 62
-91 62 -94 0 -2 -21 -12 -48 -20 -26 -9 -78 -34 -116 -56 -38 -22 -70 -39 -71
-38 -1 2 -24 55 -50 118 -45 106 -55 121 -133 202 -66 67 -83 91 -78 106 14
42 31 43 66 7 59 -61 72 -33 15 34 -19 24 -32 48 -28 56 7 20 13 19 45 -12
l28 -27 0 36 c0 27 -11 51 -45 97 -50 69 -39 67 46 -6z m1265 -14 c29 -8 42
-15 36 -21 -13 -13 -67 -1 -83 18 -14 17 -10 17 47 3z m944 -340 c0 -6 -21
-95 -47 -196 -29 -114 -50 -178 -54 -166 -26 73 -90 271 -92 281 -1 8 22 23
58 36 33 12 74 30 90 39 36 19 45 21 45 6z m-675 -60 c28 -10 80 -21 117 -25
37 -3 65 -10 62 -15 -10 -17 -252 -5 -270 14 -1 1 0 15 3 30 4 21 9 26 22 21
9 -4 39 -15 66 -25z m463 -86 c54 -117 74 -218 79 -403 6 -192 -9 -324 -58
-496 -30 -110 -113 -299 -140 -321 -24 -19 -177 -60 -279 -73 -114 -16 -396
-16 -499 0 -41 6 -76 11 -76 13 -1 1 1 29 6 62 4 33 8 115 8 182 l1 122 93 55
c145 85 251 169 393 310 122 122 186 207 165 220 -17 11 -36 -5 -81 -65 -133
-179 -420 -403 -667 -521 -111 -54 -149 -58 -209 -23 -136 80 -361 370 -521
671 -45 85 -53 107 -43 119 19 23 112 73 177 96 l58 20 20 -27 c138 -185 279
-385 297 -424 13 -29 30 -49 39 -50 24 0 114 62 264 183 118 95 202 176 339
326 l49 53 96 -16 c129 -21 143 -21 279 14 125 31 151 37 168 39 6 0 25 -29
42 -66z m-2212 -213 c317 -77 396 -98 404 -107 21 -23 191 -296 187 -299 -2
-3 -44 7 -93 21 -49 15 -107 27 -129 28 l-40 2 -29 -118 -28 -118 -42 6 c-46
8 -598 144 -603 149 -9 8 97 462 114 489 6 9 -23 15 259 -53z m394 -680 c594
-144 634 -155 626 -177 -4 -9 -11 -36 -18 -62 -6 -25 -14 -49 -17 -53 -4 -5
-335 73 -736 172 -402 99 -802 196 -890 216 -88 20 -162 37 -164 39 -2 2 4 37
13 77 l16 73 333 -81 c182 -45 559 -137 837 -204z m216 211 c31 -8 48 -22 74
-58 19 -27 72 -88 119 -137 47 -49 77 -86 66 -82 -11 4 -139 37 -285 73 -146
35 -266 65 -267 66 -1 2 10 48 23 103 l26 100 101 -27 c56 -14 120 -32 143
-38z m1464 -635 c0 -33 -2 -35 -69 -59 -130 -48 -228 -62 -431 -61 -104 1
-220 8 -265 15 l-80 14 0 40 c0 22 5 39 10 38 96 -14 308 -25 420 -20 128 6
323 35 378 57 35 14 37 12 37 -24z m-6344 -598 c36 -70 84 -266 84 -340 0
-116 -44 -153 -174 -146 -63 4 -93 11 -134 32 -30 15 -57 25 -60 21 -12 -12
46 -56 104 -80 l59 -24 3 -78 c7 -174 -30 -265 -97 -242 -39 14 -123 100 -157
162 -35 65 -37 121 -6 164 12 17 27 57 33 88 12 67 2 84 -62 105 -118 39 -137
160 -23 147 l42 -4 7 113 7 113 31 -7 c56 -12 209 -6 252 11 22 9 46 16 52 16
7 1 25 -22 39 -51z m2519 -594 c-24 -19 -95 -56 -95 -50 0 5 102 66 110 65 3
0 -4 -7 -15 -15z m-184 -481 l-230 -458 -92 -60 c-50 -33 -104 -68 -120 -78
-24 -16 6 52 203 450 l232 468 115 67 c64 36 117 67 119 67 1 1 -101 -205
-227 -456z m79 422 c0 -2 -13 -11 -30 -20 -38 -19 -40 -11 -2 9 31 17 32 18
32 11z m-93 -57 c-21 -15 -99 -161 -289 -542 -144 -286 -263 -516 -265 -510
-2 5 111 242 251 525 231 467 258 516 288 531 44 22 48 21 15 -4z m3508 -315
c12 -135 53 -428 100 -713 85 -509 107 -707 120 -1040 6 -161 7 -165 32 -186
21 -16 24 -26 19 -50 -6 -25 -25 -39 -134 -101 -70 -40 -168 -88 -218 -107
-106 -40 -186 -79 -201 -98 -6 -7 -14 -28 -18 -46 l-7 -32 -214 -2 c-118 -1
-222 -2 -231 -2 -15 -1 -18 8 -20 49 -1 28 -7 91 -14 142 -15 119 -8 155 30
170 25 9 43 39 129 214 144 294 250 555 341 844 73 230 92 331 98 514 5 151 8
171 34 233 57 139 133 297 139 293 4 -3 11 -40 15 -82z m-4405 -439 c35 -10
66 -28 89 -52 l36 -37 -64 -3 c-35 -2 -69 -1 -75 1 -6 3 -26 28 -43 56 -37 59
-33 62 57 35z m-795 -74 c8 -92 22 -114 63 -103 38 11 276 7 410 -6 l112 -12
69 31 c62 27 80 30 169 30 117 0 132 4 132 36 0 24 0 24 115 24 63 0 115 -2
115 -5 0 -2 -14 -34 -32 -70 l-32 -65 -641 1 c-382 0 -628 4 -610 10 l30 8 -3
101 -4 100 50 0 50 0 7 -80z m676 60 c10 -6 26 -24 34 -40 l15 -29 -70 -39
-69 -38 -71 12 c-100 17 -103 24 -17 39 49 8 44 29 -8 33 -39 3 -39 3 41 37
86 35 115 41 145 25z m-402 -36 c31 -9 68 -30 89 -50 l37 -34 -120 6 c-66 3
-146 2 -177 -3 -53 -9 -57 -8 -62 11 -12 43 -6 84 12 90 29 9 167 -3 221 -20z
m754 -210 c43 -4 67 -10 67 -19 0 -20 -145 -25 -770 -25 -492 0 -589 2 -606
14 -20 15 -14 21 30 28 40 6 1214 8 1279 2z m-522 -308 c164 -35 264 -127 463
-426 78 -118 226 -362 226 -373 0 -6 -135 -107 -142 -107 -3 0 -51 60 -106
134 -56 73 -185 231 -288 350 -192 224 -271 297 -404 377 -39 23 -67 45 -64
50 8 14 242 10 315 -5z m-297 -70 c137 -82 198 -130 284 -221 129 -135 187
-262 187 -410 0 -78 -4 -97 -27 -140 -14 -27 -46 -69 -70 -92 -154 -150 -553
-267 -1068 -313 -142 -13 -514 -19 -524 -9 -4 3 1 35 11 70 11 41 17 103 17
171 1 107 1 108 26 112 305 58 457 96 695 171 210 67 320 111 323 129 2 10 -3
16 -14 16 -9 0 -133 -38 -274 -85 -450 -147 -716 -202 -1030 -212 -133 -4
-196 -2 -262 10 -279 49 -411 223 -395 522 5 96 31 242 46 258 4 4 36 1 72 -8
159 -38 441 -28 638 22 103 26 107 26 245 15 240 -21 469 -11 776 32 239 34
221 36 344 -38z m623 -616 c62 -79 113 -149 112 -155 0 -10 -82 -80 -183 -155
l-59 -44 -38 42 -38 43 36 50 c64 90 78 191 44 321 -22 86 -20 84 126 -102z
m4894 -188 c-7 -24 -14 -28 -62 -34 -70 -10 -165 0 -184 19 -14 14 -20 35 -11
44 2 2 63 3 134 1 l130 -3 -7 -27z m-4473 -5 c12 -18 22 -38 22 -44 0 -5 -27
-29 -61 -53 l-61 -42 -34 33 c-19 18 -34 38 -34 44 0 15 110 94 130 95 8 0 25
-15 38 -33z m3100 -37 c66 -16 92 -27 92 -37 0 -33 -244 9 -257 43 -3 8 -3 21
0 29 5 12 11 12 39 1 18 -7 75 -23 126 -36z m-3363 20 c4 -6 2 -17 -4 -24 -7
-9 -3 -22 16 -49 14 -20 24 -38 22 -40 -2 -1 -24 -19 -49 -38 -74 -59 -101
-70 -146 -57 -22 5 -52 17 -67 25 l-29 14 44 28 c23 15 75 55 113 89 70 62 88
71 100 52z m-2571 -8 c2 -4 -14 -39 -36 -77 -22 -39 -79 -143 -125 -232 -78
-149 -101 -180 -118 -153 -3 5 11 42 31 82 45 89 193 358 207 376 11 14 33 16
41 4z m507 -34 c-21 -9 -53 -34 -71 -56 -39 -49 -92 -72 -162 -72 -69 0 -126
-29 -187 -96 -61 -66 -89 -134 -74 -174 9 -23 8 -30 -4 -34 -20 -8 -203 -7
-203 0 0 4 36 73 79 153 44 80 96 180 116 221 l37 75 254 0 c246 0 253 -1 215
-17z m6763 -77 c7 -75 3 -81 -67 -116 -96 -48 -143 -27 -134 59 4 28 11 67 16
86 l11 35 84 0 84 0 6 -64z m-6715 40 c11 -7 13 -25 8 -84 -9 -108 -19 -129
-59 -125 -32 3 -33 5 -46 68 -15 76 -6 101 43 132 34 21 35 21 54 9z m5320
-18 c36 -9 70 -19 74 -23 5 -4 0 -28 -11 -53 -24 -53 -77 -92 -151 -109 -43
-9 -53 -9 -75 6 -34 22 -33 34 9 95 19 28 35 53 35 55 0 3 5 17 10 31 7 19 15
25 27 21 9 -4 46 -14 82 -23z m-3646 -41 c20 -26 44 -55 55 -65 17 -16 19 -28
14 -111 -3 -55 0 -107 6 -125 10 -30 10 -31 -16 -31 -15 0 -507 -3 -1095 -6
-587 -3 -1067 -3 -1067 0 0 10 93 53 149 70 64 19 173 20 325 5 190 -19 667
15 926 67 220 43 446 124 585 207 33 20 65 36 72 37 6 0 27 -21 46 -48z m672
38 c7 -11 -4 -30 -43 -79 -18 -22 -21 -23 -75 -11 -70 14 -79 26 -30 39 21 6
54 22 73 36 36 26 65 32 75 15z m79 -43 c16 -12 15 -16 -14 -55 -25 -35 -35
-42 -53 -36 -37 11 -37 18 -1 62 39 46 42 48 68 29z m-331 -23 c4 -4 -2 -19
-13 -34 -17 -24 -18 -29 -5 -40 8 -7 15 -19 15 -26 0 -23 -33 -15 -69 16 l-35
30 29 30 c27 28 63 39 78 24z m412 -60 c-8 -43 9 -45 30 -3 13 25 19 28 30 19
13 -11 13 -15 0 -33 -8 -12 -15 -27 -15 -34 0 -22 26 -14 38 12 11 25 36 33
46 16 6 -9 -67 -81 -82 -81 -5 0 -17 9 -26 19 -10 11 -31 25 -47 32 -17 6 -28
17 -26 23 2 6 7 22 11 36 7 24 6 24 -8 6 -9 -11 -16 -23 -16 -28 0 -4 -7 -8
-15 -8 -12 0 -7 11 16 40 27 33 35 38 51 29 16 -9 19 -17 13 -45z m4019 -53
c23 -12 51 -21 62 -21 27 1 105 37 131 62 l22 21 11 -29 c7 -16 14 -59 17 -96
l6 -68 -399 0 c-445 1 -434 -2 -252 64 93 33 217 93 293 140 l40 25 13 -39
c10 -30 23 -43 56 -59z m-6655 58 c6 -18 11 -49 11 -70 0 -37 -2 -39 -30 -39
-34 0 -45 16 -55 82 -6 40 -4 47 12 51 41 11 51 6 62 -24z m2257 16 c8 -20
-16 -49 -29 -36 -11 11 0 51 14 51 5 0 12 -7 15 -15z m-2372 -18 c12 -9 20
-31 23 -64 5 -46 3 -51 -18 -56 -12 -3 -26 -4 -31 -1 -12 8 -58 101 -58 119 0
19 58 21 84 2z m2641 -67 c104 -40 144 -72 131 -106 -6 -16 -22 -17 -203 -11
-108 4 -274 7 -370 7 l-173 0 0 86 c0 78 2 85 18 78 9 -4 50 -9 90 -10 68 -3
76 -5 124 -43 28 -23 56 -41 62 -41 6 0 33 25 61 55 l51 55 55 -16 c30 -9 99
-33 154 -54z m-2726 0 c18 -34 30 -67 27 -75 -9 -25 -49 -17 -106 22 l-54 36
45 39 c24 21 46 38 49 38 3 0 20 -27 39 -60z m5421 30 c17 -41 88 -74 138 -65
44 8 108 39 139 67 l22 21 6 -24 c11 -47 23 -134 18 -139 -2 -3 -179 -6 -391
-8 -213 -2 -384 -1 -381 3 7 6 419 174 430 175 4 0 12 -13 19 -30z m-2290 -84
c24 -43 -3 -56 -117 -56 -120 0 -127 11 -52 86 l53 54 50 -29 c28 -15 58 -40
66 -55z m-3230 -22 c22 -15 40 -31 40 -35 0 -5 -16 -17 -36 -26 -37 -18 -66
-11 -72 19 -3 16 14 68 23 68 3 0 23 -12 45 -26z m5840 -88 c0 -19 -95 -26
-380 -26 -297 0 -410 7 -410 26 0 12 70 14 395 14 326 0 395 -2 395 -14z
m1278 7 c59 -4 82 -10 82 -19 0 -21 -782 -20 -800 1 -10 12 -1 15 67 18 152 6
569 7 651 0z m-7145 -30 c-7 -2 -19 -2 -25 0 -7 3 -2 5 12 5 14 0 19 -2 13 -5z"/>
<path d="M5670 7553 c0 -6 -5 -34 -11 -62 l-10 -49 -70 -22 -70 -21 -43 47
c-41 46 -44 47 -72 36 -16 -7 -47 -27 -68 -46 l-39 -33 32 -57 33 -57 -25 -27
c-13 -15 -37 -46 -52 -70 l-28 -43 -67 7 -66 6 -13 -58 c-7 -33 -15 -68 -18
-80 -4 -17 5 -24 58 -45 34 -13 63 -28 65 -34 2 -5 8 -36 12 -68 l9 -59 -53
-35 -53 -35 15 -37 c9 -20 21 -49 26 -65 12 -30 8 -30 114 -10 26 5 36 1 62
-27 53 -57 58 -73 39 -127 -9 -26 -17 -52 -17 -58 0 -6 26 -23 58 -37 l57 -26
46 45 46 45 62 -12 61 -13 16 -58 17 -58 56 0 c70 0 80 7 87 56 10 77 12 80
84 123 l71 42 44 -37 c50 -41 47 -41 118 25 20 19 37 39 37 45 0 5 -16 32 -35
60 l-35 51 29 56 c15 30 30 64 33 75 4 15 22 25 71 38 l66 18 -6 71 c-3 40 -7
74 -9 76 -2 2 -29 6 -60 10 l-57 6 -27 65 c-14 36 -33 79 -42 95 -16 29 -15
32 20 97 l37 68 -51 50 -50 51 -50 -40 c-27 -23 -52 -41 -57 -41 -4 0 -41 14
-81 31 -76 32 -85 43 -86 99 -1 43 -14 52 -89 59 -53 5 -71 4 -71 -6z m108
-29 c17 -5 22 -14 22 -40 0 -56 15 -81 57 -94 21 -7 58 -23 82 -36 24 -13 48
-24 53 -24 6 0 33 16 60 36 l49 37 30 -29 c16 -15 29 -32 29 -37 0 -5 -16 -35
-36 -67 l-35 -57 35 -59 c20 -32 41 -82 47 -111 11 -47 15 -53 38 -53 14 0 43
-3 64 -6 37 -7 37 -7 37 -55 l0 -48 -59 -12 -59 -11 -17 -52 c-9 -28 -28 -68
-41 -89 l-25 -38 40 -55 40 -55 -40 -36 c-43 -39 -41 -39 -101 15 l-27 25 -48
-31 c-26 -17 -64 -38 -84 -47 -33 -16 -37 -22 -47 -77 -6 -34 -13 -62 -15 -64
-2 -3 -21 -5 -42 -7 l-39 -2 -13 55 -14 55 -82 17 -82 16 -42 -46 -42 -45 -40
17 -40 18 23 51 22 51 -47 62 c-26 34 -48 67 -51 74 -3 9 -21 7 -72 -8 l-67
-20 -20 45 c-22 51 -23 48 49 94 28 18 32 26 27 46 -3 14 -8 37 -10 52 -17
106 -11 97 -71 121 -56 23 -56 23 -49 59 13 73 12 73 63 66 26 -4 55 -9 64
-11 12 -4 23 7 38 36 12 23 40 62 62 86 l40 44 -31 55 -32 56 27 22 c60 48 55
48 101 -3 l43 -48 53 18 c28 10 68 21 88 25 35 7 37 9 49 66 12 54 15 59 39
59 14 0 36 -3 49 -6z"/>
<path d="M5615 7296 c-131 -41 -222 -132 -259 -256 -47 -157 18 -332 156 -420
239 -155 558 4 576 286 6 93 -11 160 -58 232 -86 134 -270 204 -415 158z m218
-42 c89 -31 176 -123 207 -219 7 -21 13 -69 13 -105 0 -132 -70 -243 -191
-302 -59 -29 -76 -33 -147 -33 -65 1 -91 6 -136 27 -79 36 -133 89 -171 166
-29 59 -33 76 -33 147 1 65 5 91 27 137 76 164 259 242 431 182z"/>
<path d="M5643 7211 c-113 -29 -200 -132 -210 -251 -11 -117 47 -223 151 -278
43 -22 64 -27 131 -27 70 0 87 4 132 29 250 138 168 514 -116 532 -31 2 -70
-1 -88 -5z m178 -45 c47 -22 95 -70 122 -120 30 -57 30 -165 0 -222 -100 -189
-358 -192 -455 -5 -70 134 -5 303 137 356 51 18 148 14 196 -9z"/>
<path d="M5740 6955 c-68 -68 -121 -127 -118 -131 8 -7 185 161 230 219 57 71
12 36 -112 -88z"/>
<path d="M6022 8772 c-48 -19 -105 -70 -130 -116 -23 -43 -23 -169 0 -212 40
-74 108 -121 188 -131 78 -9 137 12 196 71 76 77 94 168 50 262 -55 118 -187
172 -304 126z m202 -49 c92 -65 118 -185 60 -279 -68 -111 -209 -134 -309 -51
-118 97 -91 281 50 349 58 27 144 19 199 -19z"/>
<path d="M6034 8626 c-40 -40 -45 -83 -15 -132 57 -93 201 -47 201 65 0 51
-54 101 -110 101 -34 0 -48 -6 -76 -34z m134 -19 c47 -43 9 -130 -58 -130 -24
0 -40 7 -57 27 -28 33 -29 65 -3 99 32 40 75 42 118 4z"/>
<path d="M7095 8235 c-38 -8 -113 -35 -165 -61 -158 -78 -288 -226 -345 -391
-138 -397 85 -812 495 -919 99 -26 256 -24 350 5 268 82 450 278 507 545 19
91 12 235 -17 331 -70 227 -247 405 -474 477 -82 26 -257 32 -351 13z m320
-50 c214 -57 399 -235 463 -445 72 -240 8 -487 -173 -666 -79 -78 -189 -141
-300 -169 -79 -21 -242 -21 -320 -1 -235 62 -418 246 -480 481 -20 79 -21 242
0 320 93 358 457 573 810 480z"/>
<path d="M7153 8079 c-121 -21 -224 -79 -316 -178 -196 -213 -187 -543 22
-752 107 -107 231 -159 381 -159 102 0 181 19 263 63 322 171 389 604 135 866
-123 127 -316 191 -485 160z m240 -54 c167 -50 296 -176 343 -335 24 -79 22
-218 -5 -301 -26 -83 -84 -172 -146 -227 -60 -53 -167 -107 -242 -123 -80 -16
-214 -7 -286 21 -59 22 -178 97 -183 115 -2 6 76 61 174 123 266 170 417 279
501 360 81 79 79 83 -9 16 -30 -22 -181 -121 -335 -219 -154 -97 -297 -194
-318 -214 -38 -35 -39 -36 -53 -16 -58 76 -94 192 -94 300 0 142 52 266 155
371 74 75 130 108 226 134 83 23 188 21 272 -5z"/>
<path d="M8082 6554 c-39 -27 -23 -71 28 -76 30 -4 56 38 38 60 -22 26 -44 32
-66 16z"/>
<path d="M2150 3906 c0 -11 9 -16 26 -16 31 0 28 23 -4 28 -15 2 -22 -2 -22
-12z"/>
<path d="M1992 3878 c-31 -31 3 -39 39 -8 l24 19 -25 1 c-15 0 -31 -5 -38 -12z"/>
<path d="M2180 3810 c0 -27 27 -80 41 -80 12 0 4 29 -18 73 -16 32 -23 34 -23
7z"/>
<path d="M1786 3724 c-3 -8 -1 -24 4 -35 9 -15 15 -17 30 -9 28 15 32 27 14
44 -20 20 -40 20 -48 0z"/>
<path d="M2240 3617 c-21 -43 -43 -54 -80 -40 -31 12 -39 6 -18 -15 7 -7 27
-12 45 -12 39 0 83 37 83 69 0 32 -14 31 -30 -2z"/>
<path d="M3983 9600 c-5 -22 -7 -40 -4 -40 4 0 12 18 18 40 5 22 7 40 4 40 -4
0 -12 -18 -18 -40z"/>
<path d="M4111 9594 c0 -11 3 -14 6 -6 3 7 2 16 -1 19 -3 4 -6 -2 -5 -13z"/>
<path d="M3720 9550 l-25 -20 32 12 c29 11 35 10 59 -12 27 -25 24 -11 -4 23
-19 22 -31 21 -62 -3z"/>
<path d="M4128 9558 c5 -5 16 -8 23 -6 8 3 3 7 -10 11 -17 4 -21 3 -13 -5z"/>
<path d="M4304 9538 l-29 -33 35 30 c19 17 37 31 39 33 2 1 0 2 -5 2 -6 0 -23
-15 -40 -32z"/>
<path d="M4391 9524 c19 -22 36 -39 39 -37 2 2 -13 20 -35 41 l-39 37 35 -41z"/>
<path d="M3885 9540 c-13 -5 -14 -9 -5 -9 8 0 24 4 35 9 13 5 14 9 5 9 -8 0
-24 -4 -35 -9z"/>
<path d="M3675 9519 c-4 -6 -5 -12 -2 -15 2 -3 7 2 10 11 7 17 1 20 -8 4z"/>
<path d="M4018 9473 c12 -2 32 -2 45 0 12 2 2 4 -23 4 -25 0 -35 -2 -22 -4z"/>
<path d="M3691 9451 c-1 -8 -11 -26 -23 -40 l-22 -26 28 26 c16 15 26 33 23
40 -4 11 -6 11 -6 0z"/>
<path d="M1864 9403 c-10 -48 -13 -53 -36 -63 -22 -8 -22 -9 -2 -9 26 -1 44
17 44 45 0 13 7 30 16 38 14 14 14 16 0 16 -9 0 -18 -12 -22 -27z"/>
<path d="M1968 9423 c12 -2 30 -2 40 0 9 3 -1 5 -23 4 -22 0 -30 -2 -17 -4z"/>
<path d="M4429 9378 c24 -32 45 -58 48 -58 7 0 -55 86 -73 101 -10 8 2 -12 25
-43z"/>
<path d="M2021 9384 c0 -11 3 -14 6 -6 3 7 2 16 -1 19 -3 4 -6 -2 -5 -13z"/>
<path d="M3754 9358 l-29 -33 33 29 c30 28 37 36 29 36 -2 0 -16 -15 -33 -32z"/>
<path d="M4310 9366 c0 -2 8 -10 18 -17 15 -13 16 -12 3 4 -13 16 -21 21 -21
13z"/>
<path d="M3988 9353 c6 -2 18 -2 25 0 6 3 1 5 -13 5 -14 0 -19 -2 -12 -5z"/>
<path d="M4058 9353 c6 -2 18 -2 25 0 6 3 1 5 -13 5 -14 0 -19 -2 -12 -5z"/>
<path d="M2038 9333 c7 -3 16 -2 19 1 4 3 -2 6 -13 5 -11 0 -14 -3 -6 -6z"/>
<path d="M3525 9329 c-4 -6 -5 -12 -2 -15 2 -3 7 2 10 11 7 17 1 20 -8 4z"/>
<path d="M1480 9311 c-34 -18 -80 -61 -66 -61 4 0 28 16 53 35 l46 35 31 -27
31 -28 -29 33 c-17 17 -30 32 -30 32 -1 -1 -17 -9 -36 -19z"/>
<path d="M2098 9323 c7 -3 16 -2 19 1 4 3 -2 6 -13 5 -11 0 -14 -3 -6 -6z"/>
<path d="M1738 9313 c7 -3 16 -2 19 1 4 3 -2 6 -13 5 -11 0 -14 -3 -6 -6z"/>
<path d="M2369 9303 c-13 -15 -12 -15 8 -3 19 12 26 10 77 -28 31 -24 56 -46
56 -50 0 -4 -11 -24 -25 -45 l-25 -37 43 -53 c24 -30 58 -79 76 -110 20 -36
39 -57 49 -56 14 1 14 2 2 5 -9 3 -26 24 -39 48 -12 25 -45 72 -72 105 l-49
62 25 37 c14 20 25 41 25 47 -1 13 -109 95 -125 95 -7 0 -19 -7 -26 -17z"/>
<path d="M4562 9303 c9 -2 23 -22 32 -44 22 -54 29 -49 8 6 -12 34 -21 45 -37
44 -15 -1 -16 -2 -3 -6z"/>
<path d="M1660 9290 c-8 -5 -10 -10 -5 -10 6 0 17 5 25 10 8 5 11 10 5 10 -5
0 -17 -5 -25 -10z"/>
<path d="M4230 9275 c13 -14 26 -25 28 -25 3 0 -5 11 -18 25 -13 14 -26 25
-28 25 -3 0 5 -11 18 -25z"/>
<path d="M4518 9293 c7 -3 16 -2 19 1 4 3 -2 6 -13 5 -11 0 -14 -3 -6 -6z"/>
<path d="M2230 9280 c8 -5 20 -10 25 -10 6 0 3 5 -5 10 -8 5 -19 10 -25 10 -5
0 -3 -5 5 -10z"/>
<path d="M1610 9270 c-8 -5 -10 -10 -5 -10 6 0 17 5 25 10 8 5 11 10 5 10 -5
0 -17 -5 -25 -10z"/>
<path d="M2329 9253 c-13 -16 -12 -17 4 -4 16 13 21 21 13 21 -2 0 -10 -8 -17
-17z"/>
<path d="M1410 9214 c0 -5 6 -19 14 -29 13 -18 9 -24 -35 -73 -27 -30 -54 -64
-60 -76 -6 -11 4 -3 22 19 18 22 49 54 68 72 l34 32 -21 33 c-12 18 -22 28
-22 22z"/>
<path d="M4554 9184 c-18 -14 -18 -15 4 -4 12 6 22 13 22 15 0 8 -5 6 -26 -11z"/>
<path d="M1878 9183 c12 -2 30 -2 40 0 9 3 -1 5 -23 4 -22 0 -30 -2 -17 -4z"/>
<path d="M1978 9183 c12 -2 32 -2 45 0 12 2 2 4 -23 4 -25 0 -35 -2 -22 -4z"/>
<path d="M1818 9173 c7 -3 16 -2 19 1 4 3 -2 6 -13 5 -11 0 -14 -3 -6 -6z"/>
<path d="M2068 9173 c7 -3 16 -2 19 1 4 3 -2 6 -13 5 -11 0 -14 -3 -6 -6z"/>
<path d="M2161 9146 c10 -9 89 -46 89 -41 0 5 -75 45 -86 45 -4 0 -5 -2 -3 -4z"/>
<path d="M3641 9134 c0 -11 3 -14 6 -6 3 7 2 16 -1 19 -3 4 -6 -2 -5 -13z"/>
<path d="M4543 9070 c0 -47 2 -66 4 -42 2 23 2 61 0 85 -2 23 -4 4 -4 -43z"/>
<path d="M4313 9080 c0 -25 2 -35 4 -22 2 12 2 32 0 45 -2 12 -4 2 -4 -23z"/>
<path d="M2305 9060 c10 -11 20 -20 23 -20 3 0 -3 9 -13 20 -10 11 -20 20 -23
20 -3 0 3 -9 13 -20z"/>
<path d="M1530 9015 c-24 -25 -42 -45 -39 -45 3 0 25 20 49 45 24 25 42 45 39
45 -3 0 -25 -20 -49 -45z"/>
<path d="M3537 9040 c-3 -11 -1 -20 4 -20 5 0 9 9 9 20 0 11 -2 20 -4 20 -2 0
-6 -9 -9 -20z"/>
<path d="M4431 9024 c0 -11 3 -14 6 -6 3 7 2 16 -1 19 -3 4 -6 -2 -5 -13z"/>
<path d="M3641 9014 c0 -11 3 -14 6 -6 3 7 2 16 -1 19 -3 4 -6 -2 -5 -13z"/>
<path d="M1928 9013 c12 -2 32 -2 45 0 12 2 2 4 -23 4 -25 0 -35 -2 -22 -4z"/>
<path d="M1858 9003 c7 -3 16 -2 19 1 4 3 -2 6 -13 5 -11 0 -14 -3 -6 -6z"/>
<path d="M2018 9003 c7 -3 16 -2 19 1 4 3 -2 6 -13 5 -11 0 -14 -3 -6 -6z"/>
<path d="M1818 8993 c7 -3 16 -2 19 1 4 3 -2 6 -13 5 -11 0 -14 -3 -6 -6z"/>
<path d="M2385 8980 c10 -11 20 -20 23 -20 3 0 -3 9 -13 20 -10 11 -20 20 -23
20 -3 0 3 -9 13 -20z"/>
<path d="M1285 8960 c-15 -29 -17 -30 -74 -24 l-58 7 -12 -33 c-17 -49 -12
-61 6 -16 l16 38 57 -6 56 -7 17 36 c20 43 14 47 -8 5z"/>
<path d="M2110 8976 c0 -2 7 -7 16 -10 8 -3 12 -2 9 4 -6 10 -25 14 -25 6z"/>
<path d="M3472 8960 c0 -14 2 -19 5 -12 2 6 2 18 0 25 -3 6 -5 1 -5 -13z"/>
<path d="M2170 8946 c0 -2 8 -10 18 -17 15 -13 16 -12 3 4 -13 16 -21 21 -21
13z"/>
<path d="M2696 8940 c12 -5 25 -25 33 -51 7 -24 14 -51 17 -60 3 -9 -5 -20
-18 -27 -13 -6 -18 -11 -12 -11 5 -1 18 5 28 12 18 13 18 16 -3 80 -19 56 -26
67 -44 66 -22 0 -22 0 -1 -9z"/>
<path d="M1679 8913 l-24 -28 28 24 c25 23 32 31 24 31 -2 0 -14 -12 -28 -27z"/>
<path d="M2430 8920 c6 -11 13 -20 16 -20 2 0 0 9 -6 20 -6 11 -13 20 -16 20
-2 0 0 -9 6 -20z"/>
<path d="M3481 8914 c0 -11 3 -14 6 -6 3 7 2 16 -1 19 -3 4 -6 -2 -5 -13z"/>
<path d="M2230 8895 c13 -14 26 -25 28 -25 3 0 -5 11 -18 25 -13 14 -26 25
-28 25 -3 0 5 -11 18 -25z"/>
<path d="M1430 8879 c-7 -11 -10 -23 -7 -25 2 -2 9 7 15 21 14 30 7 33 -8 4z"/>
<path d="M3528 8893 c12 -2 30 -2 40 0 9 3 -1 5 -23 4 -22 0 -30 -2 -17 -4z"/>
<path d="M3835 8880 c10 -11 20 -20 23 -20 3 0 -3 9 -13 20 -10 11 -20 20 -23
20 -3 0 3 -9 13 -20z"/>
<path d="M1629 8863 c-13 -16 -12 -17 4 -4 9 7 17 15 17 17 0 8 -8 3 -21 -13z"/>
<path d="M2275 8836 c10 -14 19 -26 22 -26 7 0 -17 39 -28 46 -6 3 -3 -5 6
-20z"/>
<path d="M1121 8828 c0 -16 1 -28 3 -28 2 0 13 -3 23 -6 17 -6 17 -6 1 7 -9 8
-18 23 -21 34 -4 15 -5 13 -6 -7z"/>
<path d="M3750 8795 c13 -14 26 -25 28 -25 3 0 -5 11 -18 25 -13 14 -26 25
-28 25 -3 0 5 -11 18 -25z"/>
<path d="M1190 8776 c14 -8 27 -12 29 -10 6 6 -1 11 -29 18 l-25 7 25 -15z"/>
<path d="M2671 8764 c0 -11 3 -14 6 -6 3 7 2 16 -1 19 -3 4 -6 -2 -5 -13z"/>
<path d="M1381 8744 c0 -11 3 -14 6 -6 3 7 2 16 -1 19 -3 4 -6 -2 -5 -13z"/>
<path d="M1203 8705 c0 -22 2 -30 4 -17 2 12 2 30 0 40 -3 9 -5 -1 -4 -23z"/>
<path d="M2682 8720 c0 -14 2 -19 5 -12 2 6 2 18 0 25 -3 6 -5 1 -5 -13z"/>
<path d="M2331 8714 c0 -11 3 -14 6 -6 3 7 2 16 -1 19 -3 4 -6 -2 -5 -13z"/>
<path d="M2512 8710 c0 -14 2 -19 5 -12 2 6 2 18 0 25 -3 6 -5 1 -5 -13z"/>
<path d="M1372 8680 c0 -19 2 -27 5 -17 2 9 2 25 0 35 -3 9 -5 1 -5 -18z"/>
<path d="M3630 8675 c13 -14 26 -25 28 -25 3 0 -5 11 -18 25 -13 14 -26 25
-28 25 -3 0 5 -11 18 -25z"/>
<path d="M2343 8610 c0 -47 2 -66 4 -42 2 23 2 61 0 85 -2 23 -4 4 -4 -43z"/>
<path d="M2694 8580 c0 -58 1 -81 3 -52 2 28 2 76 0 105 -2 28 -3 5 -3 -53z"/>
<path d="M4023 8673 c9 -2 25 -2 35 0 9 3 1 5 -18 5 -19 0 -27 -2 -17 -5z"/>
<path d="M1543 8615 c0 -33 2 -45 4 -27 2 18 2 45 0 60 -2 15 -4 0 -4 -33z"/>
<path d="M2523 8610 c0 -36 2 -50 4 -32 2 17 2 47 0 65 -2 17 -4 3 -4 -33z"/>
<path d="M4263 8633 c-8 -3 -12 -22 -11 -51 l1 -47 4 40 c3 22 9 45 15 52 11
14 10 14 -9 6z"/>
<path d="M3992 8581 c-8 -4 19 -6 60 -3 71 4 74 3 87 -22 8 -14 16 -24 19 -21
3 2 -3 16 -12 30 -15 22 -23 25 -79 25 -34 0 -68 -4 -75 -9z"/>
<path d="M1202 8555 c0 -16 2 -22 5 -12 2 9 2 23 0 30 -3 6 -5 -1 -5 -18z"/>
<path d="M1373 8545 c0 -22 2 -30 4 -17 2 12 2 30 0 40 -3 9 -5 -1 -4 -23z"/>
<path d="M3840 8540 c0 -5 5 -10 11 -10 5 0 7 5 4 10 -3 6 -8 10 -11 10 -2 0
-4 -4 -4 -10z"/>
<path d="M1551 8524 c0 -11 3 -14 6 -6 3 7 2 16 -1 19 -3 4 -6 -2 -5 -13z"/>
<path d="M2512 8510 c0 -14 2 -19 5 -12 2 6 2 18 0 25 -3 6 -5 1 -5 -13z"/>
<path d="M1381 8484 c0 -11 3 -14 6 -6 3 7 2 16 -1 19 -3 4 -6 -2 -5 -13z"/>
<path d="M1145 8470 c-25 -11 1 -11 35 0 20 6 21 8 5 8 -11 0 -29 -3 -40 -8z"/>
<path d="M2501 8464 c0 -11 3 -14 6 -6 3 7 2 16 -1 19 -3 4 -6 -2 -5 -13z"/>
<path d="M1391 8444 c0 -11 3 -14 6 -6 3 7 2 16 -1 19 -3 4 -6 -2 -5 -13z"/>
<path d="M2301 8433 c-10 -26 -10 -27 4 -9 8 11 15 23 15 28 0 15 -7 8 -19
-19z"/>
<path d="M1111 8434 c0 -11 3 -14 6 -6 3 7 2 16 -1 19 -3 4 -6 -2 -5 -13z"/>
<path d="M2755 8437 c17 -13 17 -16 1 -62 -24 -72 -18 -79 8 -10 20 53 21 61
7 73 -8 6 -19 12 -25 12 -5 0 -2 -6 9 -13z"/>
<path d="M1400 8415 c0 -5 5 -17 10 -25 5 -8 10 -10 10 -5 0 6 -5 17 -10 25
-5 8 -10 11 -10 5z"/>
<path d="M1121 8394 c0 -11 3 -14 6 -6 3 7 2 16 -1 19 -3 4 -6 -2 -5 -13z"/>
<path d="M2476 8395 c-9 -26 -7 -32 5 -12 6 10 9 21 6 23 -2 3 -7 -2 -11 -11z"/>
<path d="M2231 8337 l-55 -62 48 45 c39 37 75 82 64 79 -2 0 -28 -28 -57 -62z"/>
<path d="M1630 8357 c0 -2 15 -16 33 -33 l32 -29 -29 33 c-28 30 -36 37 -36
29z"/>
<path d="M2440 8320 c-6 -11 -8 -20 -6 -20 3 0 10 9 16 20 6 11 8 20 6 20 -3
0 -10 -9 -16 -20z"/>
<path d="M1200 8326 c0 -2 15 -6 34 -8 19 -2 32 0 30 4 -5 8 -64 12 -64 4z"/>
<path d="M1450 8310 c6 -11 13 -20 16 -20 2 0 0 9 -6 20 -6 11 -13 20 -16 20
-2 0 0 -9 6 -20z"/>
<path d="M2607 8275 c-9 -19 -15 -35 -12 -35 7 0 37 61 33 66 -3 2 -12 -12
-21 -31z"/>
<path d="M1291 8263 c12 -23 44 -69 72 -103 49 -60 50 -61 31 -83 l-18 -22 24
22 24 23 -22 27 c-27 34 -102 133 -120 159 -7 11 -3 0 9 -23z"/>
<path d="M2361 8217 c-51 -57 -55 -63 -17 -27 41 39 94 101 84 100 -2 -1 -32
-33 -67 -73z"/>
<path d="M1470 8276 c0 -2 8 -10 18 -17 15 -13 16 -12 3 4 -13 16 -21 21 -21
13z"/>
<path d="M2144 8264 c-18 -14 -18 -15 4 -4 12 6 22 13 22 15 0 8 -5 6 -26 -11z"/>
<path d="M1767 8249 c7 -7 15 -10 18 -7 3 3 -2 9 -12 12 -14 6 -15 5 -6 -5z"/>
<path d="M2090 8240 c-8 -5 -10 -10 -5 -10 6 0 17 5 25 10 8 5 11 10 5 10 -5
0 -17 -5 -25 -10z"/>
<path d="M1530 8205 c19 -19 36 -35 39 -35 3 0 -10 16 -29 35 -19 19 -36 35
-39 35 -3 0 10 -16 29 -35z"/>
<path d="M2048 8223 c7 -3 16 -2 19 1 4 3 -2 6 -13 5 -11 0 -14 -3 -6 -6z"/>
<path d="M2565 8204 c-9 -15 -12 -23 -6 -20 11 7 35 46 28 46 -3 0 -12 -12
-22 -26z"/>
<path d="M1873 8213 c9 -2 23 -2 30 0 6 3 -1 5 -18 5 -16 0 -22 -2 -12 -5z"/>
<path d="M1993 8213 c9 -2 23 -2 30 0 6 3 -1 5 -18 5 -16 0 -22 -2 -12 -5z"/>
<path d="M1589 8156 c13 -16 51 -41 51 -33 0 2 -15 14 -32 27 -21 15 -28 17
-19 6z"/>
<path d="M2519 8143 l-24 -28 28 24 c25 23 32 31 24 31 -2 0 -14 -12 -28 -27z"/>
<path d="M1650 8115 c0 -7 81 -47 86 -43 2 3 -17 14 -41 26 -25 12 -45 20 -45
17z"/>
<path d="M2460 8071 c0 -6 4 -13 10 -16 6 -3 7 1 4 9 -7 18 -14 21 -14 7z"/>
<path d="M1788 8053 c7 -3 16 -2 19 1 4 3 -2 6 -13 5 -11 0 -14 -3 -6 -6z"/>
<path d="M1364 8038 c-8 -13 91 -108 112 -108 7 0 27 12 44 27 l32 26 55 -27
c30 -15 57 -25 59 -23 2 2 -23 16 -55 32 l-60 28 -31 -27 c-17 -14 -37 -26
-43 -26 -21 0 -108 82 -103 96 7 17 0 18 -10 2z"/>
<path d="M1828 8043 c6 -2 18 -2 25 0 6 3 1 5 -13 5 -14 0 -19 -2 -12 -5z"/>
<path d="M2048 8043 c6 -2 18 -2 25 0 6 3 1 5 -13 5 -14 0 -19 -2 -12 -5z"/>
<path d="M1908 8033 c23 -2 59 -2 80 0 20 2 1 4 -43 4 -44 0 -61 -2 -37 -4z"/>
<path d="M2489 8023 c6 -12 11 -24 11 -26 0 -3 -25 -22 -55 -43 l-55 -38 -33
32 c-35 34 -51 39 -63 20 -4 -7 -3 -8 5 -4 7 4 26 -5 47 -23 19 -17 40 -31 46
-31 14 0 118 78 118 88 0 5 -7 17 -16 28 -15 18 -15 18 -5 -3z"/>
<path d="M1690 7920 c8 -5 20 -10 25 -10 6 0 3 5 -5 10 -8 5 -19 10 -25 10 -5
0 -3 -5 5 -10z"/>
<path d="M2190 7920 c-8 -5 -10 -10 -5 -10 6 0 17 5 25 10 8 5 11 10 5 10 -5
0 -17 -5 -25 -10z"/>
<path d="M1765 7895 c22 -8 48 -14 57 -14 9 -1 19 -10 21 -21 4 -18 4 -17 3 2
-1 17 -11 24 -51 35 -64 16 -82 15 -30 -2z"/>
<path d="M2118 7893 c7 -3 16 -2 19 1 4 3 -2 6 -13 5 -11 0 -14 -3 -6 -6z"/>
<path d="M2068 7883 c7 -3 16 -2 19 1 4 3 -2 6 -13 5 -11 0 -14 -3 -6 -6z"/>
<path d="M2011 7858 c0 -16 2 -18 6 -8 3 8 11 18 17 22 7 5 4 8 -6 8 -12 0
-18 -7 -17 -22z"/>
<path d="M3838 7864 c-46 -24 -48 -72 -6 -141 48 -80 163 -29 137 62 -10 33
-54 80 -84 88 -11 4 -32 -1 -47 -9z m63 -26 c8 -7 21 -22 29 -33 11 -15 8 -14
-13 4 -15 14 -30 21 -34 17 -4 -4 9 -22 30 -41 41 -38 46 -59 18 -75 -30 -16
-50 -12 -76 15 -19 18 -25 35 -25 68 0 24 3 47 7 50 11 11 48 8 64 -5z"/>
<path d="M1852 7795 c0 -16 2 -22 5 -12 2 9 2 23 0 30 -3 6 -5 -1 -5 -18z"/>
<path d="M1913 7763 c15 -2 37 -2 50 0 12 2 0 4 -28 4 -27 0 -38 -2 -22 -4z"/>
<path d="M3546 7736 c-65 -64 -1 -203 101 -222 33 -6 40 -3 65 25 15 17 28 39
28 49 0 32 -44 105 -80 133 -53 42 -84 46 -114 15z m112 -51 c46 -46 52 -78 7
-35 -14 13 -28 21 -31 17 -9 -9 42 -57 61 -57 10 0 15 -10 15 -30 0 -69 -97
-56 -147 19 -26 38 -29 67 -11 106 18 39 53 33 106 -20z"/>
<path d="M2448 7503 c23 -2 59 -2 80 0 20 2 1 4 -43 4 -44 0 -61 -2 -37 -4z"/>
<path d="M2603 7493 c9 -2 25 -2 35 0 9 3 1 5 -18 5 -19 0 -27 -2 -17 -5z"/>
<path d="M2402 7465 c0 -16 2 -22 5 -12 2 9 2 23 0 30 -3 6 -5 -1 -5 -18z"/>
<path d="M2668 7483 c6 -2 18 -2 25 0 6 3 1 5 -13 5 -14 0 -19 -2 -12 -5z"/>
<path d="M2717 7473 c6 -4 13 -24 16 -43 4 -34 4 -33 3 4 -1 26 -6 41 -16 43
-10 3 -11 2 -3 -4z"/>
<path d="M2392 7360 c0 -19 2 -27 5 -17 2 9 2 25 0 35 -3 9 -5 1 -5 -18z"/>
<path d="M1842 7354 c15 -8 39 -34 54 -59 33 -56 43 -60 12 -4 -24 43 -62 79
-82 79 -6 -1 1 -7 16 -16z"/>
<path d="M1770 7350 c-8 -5 -10 -10 -5 -10 6 0 17 5 25 10 8 5 11 10 5 10 -5
0 -17 -5 -25 -10z"/>
<path d="M2372 7292 c-4 -1 -34 -6 -67 -11 -47 -7 -35 -8 55 -4 63 3 116 7
118 8 4 4 -96 11 -106 7z"/>
<path d="M1612 7257 c-32 -34 -27 -70 18 -152 l40 -72 -31 -22 c-98 -73 -277
-277 -303 -346 -9 -25 0 -14 48 57 87 130 243 282 375 363 33 21 61 40 61 42
0 5 0 5 -78 -42 -36 -21 -67 -34 -72 -29 -17 18 -70 132 -70 151 0 11 9 32 21
47 25 32 20 34 -9 3z"/>
<path d="M2528 7273 c12 -2 32 -2 45 0 12 2 2 4 -23 4 -25 0 -35 -2 -22 -4z"/>
<path d="M2721 7269 c-1 -11 -9 -15 -33 -12 -18 2 0 -6 39 -17 249 -69 430
-177 603 -356 102 -107 170 -199 210 -288 31 -67 67 -102 163 -156 65 -37 40
-13 -39 36 -70 43 -78 52 -114 123 -21 42 -48 90 -58 106 l-20 30 80 77 80 77
-19 33 c-10 18 -56 71 -103 118 -47 47 -62 61 -34 30 28 -30 73 -82 99 -114
l47 -59 -76 -76 -76 -76 -42 50 c-178 214 -371 349 -615 430 -52 17 -83 33
-86 43 -4 15 -5 15 -6 1z"/>
<path d="M2203 7263 c9 -2 23 -2 30 0 6 3 -1 5 -18 5 -16 0 -22 -2 -12 -5z"/>
<path d="M2613 7263 c9 -2 23 -2 30 0 6 3 -1 5 -18 5 -16 0 -22 -2 -12 -5z"/>
<path d="M2095 7245 c-27 -8 -69 -20 -92 -29 -40 -14 -42 -14 -58 7 l-16 22
12 -24 c11 -23 1 -40 -25 -41 -5 0 -7 -2 -4 -5 3 -3 27 4 54 16 27 11 87 31
134 44 47 13 76 24 65 24 -11 0 -42 -6 -70 -14z"/>
<path d="M3369 7133 c-13 -16 -12 -17 3 -5 9 8 23 10 29 6 8 -4 9 -3 5 4 -10
17 -21 15 -37 -5z"/>
<path d="M3299 7073 l-34 -38 38 34 c20 19 37 36 37 38 0 8 -8 0 -41 -34z"/>
<path d="M1100 6990 c-17 -5 6 -8 68 -9 60 -1 91 3 87 9 -7 12 -119 12 -155 0z"/>
<path d="M1229 6953 c-13 -16 -12 -17 4 -4 16 13 21 21 13 21 -2 0 -10 -8 -17
-17z"/>
<path d="M2368 6963 c34 -2 90 -2 125 0 34 2 6 3 -63 3 -69 0 -97 -1 -62 -3z"/>
<path d="M2205 6945 c-52 -17 -35 -17 40 0 37 8 49 13 30 13 -16 0 -48 -5 -70
-13z"/>
<path d="M2568 6953 c6 -2 18 -2 25 0 6 3 1 5 -13 5 -14 0 -19 -2 -12 -5z"/>
<path d="M2618 6943 c6 -2 18 -2 25 0 6 3 1 5 -13 5 -14 0 -19 -2 -12 -5z"/>
<path d="M1199 6913 c-13 -16 -12 -17 4 -4 16 13 21 21 13 21 -2 0 -10 -8 -17
-17z"/>
<path d="M2058 6896 c-100 -44 -159 -78 -235 -138 -85 -67 -187 -189 -233
-278 -19 -38 -7 -22 48 61 102 152 265 282 446 356 44 18 74 33 66 33 -8 0
-50 -15 -92 -34z"/>
<path d="M2705 6920 c27 -12 43 -12 25 0 -8 5 -22 9 -30 9 -10 0 -8 -3 5 -9z"/>
<path d="M2825 6869 c44 -22 105 -59 135 -82 79 -59 189 -175 230 -242 19 -31
43 -67 53 -78 l18 -22 -12 25 c-48 99 -181 252 -284 325 -61 44 -192 115 -210
115 -5 0 26 -19 70 -41z"/>
<path d="M1119 6883 c-13 -16 -12 -17 4 -4 16 13 21 21 13 21 -2 0 -10 -8 -17
-17z"/>
<path d="M1148 6763 c7 -3 16 -2 19 1 4 3 -2 6 -13 5 -11 0 -14 -3 -6 -6z"/>
<path d="M1195 6750 c27 -12 43 -12 25 0 -8 5 -22 9 -30 9 -10 0 -8 -3 5 -9z"/>
<path d="M1240 6736 c0 -2 7 -7 16 -10 8 -3 12 -2 9 4 -6 10 -25 14 -25 6z"/>
<path d="M1090 6710 c-6 -11 -8 -20 -6 -20 3 0 10 9 16 20 6 11 8 20 6 20 -3
0 -10 -9 -16 -20z"/>
<path d="M1300 6599 c-12 -23 -20 -43 -18 -45 3 -2 14 17 26 41 27 56 20 60
-8 4z"/>
<path d="M1023 6520 c2 -41 36 -68 129 -102 57 -20 60 -23 54 -50 -14 -68 -16
-92 -3 -48 29 97 29 95 -2 96 -16 1 -59 16 -97 35 -62 30 -70 38 -76 69 l-6
35 1 -35z"/>
<path d="M3587 6463 c-4 -3 -7 -51 -7 -105 0 -88 2 -99 17 -96 20 4 31 36 32
99 2 85 -16 129 -42 102z"/>
<path d="M3983 6388 c-17 -29 -39 -69 -49 -90 -16 -35 -14 -68 5 -68 13 0 90
140 97 179 10 50 -17 39 -53 -21z"/>
<path d="M1552 6405 c-17 -37 -14 -45 4 -12 9 16 14 31 11 33 -2 2 -9 -7 -15
-21z"/>
<path d="M3154 6406 c-7 -19 77 -192 91 -185 18 8 7 60 -27 127 -34 68 -53 86
-64 58z"/>
<path d="M1182 6245 c0 -16 2 -22 5 -12 2 9 2 23 0 30 -3 6 -5 -1 -5 -18z"/>
<path d="M832 6220 c0 -14 2 -19 5 -12 2 6 2 18 0 25 -3 6 -5 1 -5 -13z"/>
<path d="M1492 6200 c0 -14 2 -19 5 -12 2 6 2 18 0 25 -3 6 -5 1 -5 -13z"/>
<path d="M2764 6205 c-13 -33 167 -189 190 -164 8 7 -8 28 -54 72 -36 34 -80
73 -98 85 -28 21 -33 22 -38 7z"/>
<path d="M4335 6164 c-78 -58 -115 -94 -115 -111 0 -24 26 -14 91 36 79 60
113 96 104 110 -10 17 -15 14 -80 -35z"/>
<path d="M1172 6170 c0 -19 2 -27 5 -17 2 9 2 25 0 35 -3 9 -5 1 -5 -18z"/>
<path d="M822 6155 c0 -16 2 -22 5 -12 2 9 2 23 0 30 -3 6 -5 -1 -5 -18z"/>
<path d="M1483 6120 c0 -25 2 -35 4 -22 2 12 2 32 0 45 -2 12 -4 2 -4 -23z"/>
<path d="M3465 6119 c-290 -40 -544 -222 -660 -473 -52 -112 -68 -197 -62
-336 8 -196 55 -304 267 -625 73 -110 156 -247 185 -305 48 -96 105 -242 105
-269 0 -6 -16 -11 -35 -11 -53 0 -85 -36 -85 -95 0 -26 5 -55 11 -66 8 -16 7
-29 -5 -54 -19 -39 -21 -107 -4 -138 6 -12 22 -30 35 -40 19 -15 23 -28 23
-73 0 -71 29 -104 89 -104 39 0 40 0 55 -53 32 -109 77 -139 210 -140 129 -2
181 31 217 135 17 51 20 53 60 60 23 4 47 12 53 18 6 6 12 42 14 80 2 38 8 67
13 65 14 -9 47 32 60 75 10 34 10 51 0 88 -15 54 -15 51 1 119 9 40 9 58 0 78
-15 34 -74 59 -119 50 -18 -3 -33 -4 -33 -2 0 3 11 38 24 78 52 160 127 298
317 587 175 265 219 379 220 567 1 160 -37 290 -122 421 -119 182 -299 304
-515 349 -100 21 -229 27 -319 14z m235 -54 c333 -50 582 -265 654 -567 20
-85 21 -223 0 -307 -23 -98 -100 -248 -209 -411 -181 -271 -268 -437 -316
-600 l-23 -80 -63 0 c-55 0 -63 2 -63 19 0 35 31 185 75 361 51 205 89 398
110 563 26 205 17 261 -44 287 -30 12 -32 11 -128 -74 -53 -47 -103 -86 -109
-86 -13 0 -84 53 -177 133 -56 48 -58 49 -83 33 -39 -26 -64 -75 -64 -128 0
-72 55 -348 125 -628 64 -257 107 -465 97 -475 -3 -3 -33 -5 -66 -5 l-61 0
-23 88 c-32 125 -103 261 -265 504 -230 347 -272 448 -272 653 0 115 21 207
67 300 62 124 210 270 339 335 94 48 264 91 384 99 11 0 63 -6 115 -14z m-258
-833 c46 -37 97 -78 114 -90 l31 -22 74 64 c41 35 85 75 98 90 33 35 55 33 82
-10 20 -33 21 -44 16 -138 -8 -121 -48 -326 -122 -614 -45 -173 -85 -364 -85
-404 0 -14 -130 -9 -134 5 -2 6 -10 57 -19 112 -9 55 -48 219 -86 365 -90 339
-135 551 -128 606 5 45 40 104 62 104 8 0 51 -31 97 -68z m515 -1198 c15 -21
17 -63 3 -84 -14 -23 -671 -28 -706 -5 -25 16 -33 65 -16 92 6 9 74 14 257 16
373 5 446 2 462 -19z m6 -190 c3 -20 3 -49 0 -65 l-5 -29 -363 0 c-322 0 -364
2 -369 16 -8 21 -8 99 1 107 3 4 169 7 368 7 l362 0 6 -36z m-73 -196 c0 -29
-4 -59 -9 -66 -13 -21 -578 -13 -591 8 -11 17 -13 93 -3 103 3 4 141 7 305 7
l298 0 0 -52z m-106 -126 c7 -12 -28 -85 -52 -105 -27 -25 -88 -46 -132 -47
-89 0 -155 42 -177 113 l-11 36 57 4 c117 7 310 7 315 -1z"/>
<path d="M815 5930 c4 -192 21 -295 75 -454 31 -92 90 -229 97 -223 2 2 -12
37 -31 78 -81 177 -126 372 -136 604 l-8 170 3 -175z"/>
<path d="M1163 6030 c0 -41 2 -58 4 -37 2 20 2 54 0 75 -2 20 -4 3 -4 -38z"/>
<path d="M1483 5960 c0 -30 2 -43 4 -27 2 15 2 39 0 55 -2 15 -4 2 -4 -28z"/>
<path d="M1167 5928 c-3 -12 -2 -29 3 -37 7 -12 9 -6 10 22 0 42 -5 48 -13 15z"/>
<path d="M1095 5903 c-110 -24 -146 -53 -144 -113 1 -34 2 -34 9 9 8 51 18 58
120 88 64 18 75 30 15 16z"/>
<path d="M1490 5884 c0 -40 42 -180 79 -260 116 -248 323 -434 575 -520 85
-29 214 -54 270 -53 27 1 10 6 -50 14 -270 37 -500 161 -655 352 -99 124 -151
229 -195 398 -12 50 -23 81 -24 69z"/>
<path d="M2512 5848 c2 -16 25 -34 86 -66 87 -46 133 -51 96 -11 -24 27 -88
64 -142 83 -43 15 -43 15 -40 -6z"/>
<path d="M4611 5829 c-115 -51 -197 -119 -145 -119 23 0 169 77 190 101 28 31
5 41 -45 18z"/>
<path d="M961 5734 c0 -11 3 -14 6 -6 3 7 2 16 -1 19 -3 4 -6 -2 -5 -13z"/>
<path d="M971 5694 c0 -11 3 -14 6 -6 3 7 2 16 -1 19 -3 4 -6 -2 -5 -13z"/>
<path d="M985 5645 c7 -35 35 -77 56 -83 8 -3 4 4 -8 14 -13 10 -30 37 -38 59
-12 31 -14 33 -10 10z"/>
<path d="M1241 5610 c0 -14 28 -72 29 -59 0 4 -7 22 -15 40 -8 19 -14 27 -14
19z"/>
<path d="M1115 5575 c-28 -8 -39 -13 -25 -13 14 0 43 5 65 13 51 17 25 17 -40
0z"/>
<path d="M1270 5537 c0 -10 64 -140 92 -187 12 -19 41 -61 65 -92 l44 -58 -48
-52 -47 -53 50 48 50 47 59 -52 c59 -52 59 -52 -16 29 -88 94 -135 162 -201
288 -26 50 -48 87 -48 82z"/>
<path d="M2393 5414 c-7 -3 -13 -11 -13 -19 0 -15 53 -25 142 -25 65 0 91 11
71 31 -11 11 -181 22 -200 13z"/>
<path d="M4602 5393 c-24 -3 -32 -9 -30 -21 5 -25 215 -31 224 -7 4 9 4 18 1
21 -8 8 -154 13 -195 7z"/>
<path d="M1025 5175 c15 -27 32 -54 38 -60 6 -5 -2 13 -18 40 -15 28 -32 55
-38 60 -6 6 2 -12 18 -40z"/>
<path d="M1351 5044 c0 -11 3 -14 6 -6 3 7 2 16 -1 19 -3 4 -6 -2 -5 -13z"/>
<path d="M1630 5056 c0 -2 8 -10 18 -17 15 -13 16 -12 3 4 -13 16 -21 21 -21
13z"/>
<path d="M1702 4996 c20 -20 40 -36 43 -36 4 0 26 -14 50 -30 62 -43 198 -107
277 -131 52 -16 68 -25 71 -42 4 -21 4 -21 6 -2 1 20 3 21 84 9 45 -7 114 -13
152 -12 65 1 62 1 -32 9 -243 20 -438 90 -624 224 -58 43 -61 44 -27 11z"/>
<path d="M2552 5001 c-84 -17 -126 -41 -105 -62 7 -7 36 -4 100 11 96 22 131
40 119 58 -9 15 -12 15 -114 -7z"/>
<path d="M4513 4994 c-8 -21 7 -30 87 -54 86 -26 135 -30 135 -10 0 10 -27 24
-80 41 -123 40 -135 42 -142 23z"/>
<path d="M1400 4960 c17 -21 50 -54 73 -71 32 -24 25 -15 -28 39 -38 40 -71
72 -73 72 -2 0 10 -18 28 -40z"/>
<path d="M1655 4888 c-28 -28 -36 -41 -20 -27 29 22 81 79 73 79 -2 0 -26 -23
-53 -52z"/>
<path d="M1534 4846 c11 -9 31 -16 45 -15 24 1 24 2 -5 8 -17 4 -37 11 -45 15
-8 4 -5 0 5 -8z"/>
<path d="M2503 4710 c0 -25 2 -35 4 -22 2 12 2 32 0 45 -2 12 -4 2 -4 -23z"/>
<path d="M2133 4635 c0 -38 2 -53 4 -32 2 20 2 52 0 70 -2 17 -4 1 -4 -38z"/>
<path d="M4324 4679 c-8 -14 13 -34 110 -103 71 -51 96 -60 96 -36 0 13 -62
68 -127 112 -60 41 -68 44 -79 27z"/>
<path d="M2740 4592 c-87 -59 -103 -78 -76 -88 24 -9 186 101 186 126 0 24
-36 12 -110 -38z"/>
<path d="M2483 4533 c-10 -34 -10 -36 3 -19 12 17 20 56 11 56 -1 0 -7 -17
-14 -37z"/>
<path d="M2140 4541 c0 -5 8 -18 18 -30 15 -19 31 -22 137 -27 80 -4 128 -2
145 5 l25 11 -27 -5 c-16 -3 -78 -2 -140 1 -99 6 -115 10 -135 30 -13 13 -23
19 -23 15z"/>
</g>
</svg>
