<?xml version="1.0" standalone="no"?>
<!DOCTYPE svg PUBLIC "-//W3C//DTD SVG 20010904//EN"
 "http://www.w3.org/TR/2001/REC-SVG-20010904/DTD/svg10.dtd">
<svg version="1.0" xmlns="http://www.w3.org/2000/svg"
 width="1024.000000pt" height="1024.000000pt" viewBox="0 0 1024.000000 1024.000000"
 preserveAspectRatio="xMidYMid meet">

<g transform="translate(0.000000,1024.000000) scale(0.100000,-0.100000)"
fill="#e0e0e0" stroke="none">
<path d="M6615 9561 c-433 -131 -617 -186 -696 -207 l-87 -23 -193 21 c-266
30 -846 32 -1074 5 -305 -37 -574 -91 -850 -173 -88 -26 -192 -50 -230 -55
-144 -15 -229 -85 -199 -163 16 -43 189 4 251 68 26 28 55 40 190 79 339 100
639 155 1008 187 237 20 746 9 910 -19 39 -7 39 -7 -60 -35 -55 -15 -239 -70
-410 -121 -359 -108 -3142 -927 -3535 -1040 -146 -42 -269 -80 -274 -85 -11
-11 5 -94 48 -246 l34 -119 -72 -110 c-156 -236 -338 -602 -446 -895 -17 -47
-44 -98 -59 -115 -37 -39 -56 -77 -75 -153 -18 -67 -12 -93 24 -112 28 -15 55
-12 74 9 29 32 68 161 62 203 -14 86 205 571 416 926 50 83 94 152 98 152 4 0
19 -39 33 -87 118 -390 467 -1560 548 -1836 55 -188 118 -395 139 -460 21 -64
35 -119 31 -122 -13 -8 -872 -345 -993 -390 -206 -76 -284 -127 -350 -229 -51
-79 -78 -170 -78 -260 0 -88 10 -118 195 -591 309 -791 654 -1700 869 -2290
64 -176 126 -343 137 -370 41 -105 140 -204 249 -247 73 -29 210 -31 290 -4
30 10 208 77 395 148 187 72 411 157 497 188 l157 58 143 -39 c453 -124 751
-171 1158 -185 836 -28 1763 224 2488 677 102 63 189 125 330 234 l78 61 344
62 c190 34 514 91 720 127 468 81 719 130 732 143 11 11 3 66 -72 467 -22 116
-46 249 -53 297 l-14 86 59 41 58 42 -19 37 c-30 58 -79 206 -116 344 l-33
126 103 66 c56 36 108 72 114 80 13 15 -3 39 -196 298 -122 164 -124 169 -114
200 13 39 42 232 68 438 25 205 25 696 0 900 -140 1137 -690 2158 -1541 2859
-224 186 -488 362 -710 477 l-100 51 -72 236 c-110 365 -138 438 -164 436 -3
0 -77 -22 -165 -48z m184 -168 c91 -289 337 -1101 827 -2727 l518 -1719 -24
-16 c-70 -46 -1431 -1046 -1578 -1158 -67 -52 -142 -103 -165 -113 -53 -24
-212 -59 -737 -165 -228 -46 -428 -89 -444 -95 -28 -10 -29 -11 -22 -73 3 -34
27 -159 51 -277 89 -425 295 -1455 295 -1473 0 -10 -6 -19 -12 -21 -7 -2 -116
-34 -243 -71 -394 -115 -549 -165 -904 -292 -190 -68 -348 -123 -353 -123 -4
0 -21 27 -37 59 l-30 59 517 192 c284 106 549 206 589 222 207 85 298 204 310
408 7 122 -21 217 -170 586 -69 170 -162 406 -207 524 -45 118 -118 300 -161
403 -44 104 -79 190 -79 191 0 2 18 8 40 15 49 14 63 37 50 82 -13 44 -25 49
-79 33 -25 -7 -48 -10 -52 -6 -19 21 -62 136 -52 139 5 2 30 14 54 26 48 24
61 56 39 98 -11 19 -18 21 -64 16 -28 -3 -59 -8 -69 -12 -14 -6 -22 3 -41 46
-43 97 -43 95 14 109 89 21 121 66 84 118 -18 26 -39 27 -116 6 -32 -9 -61
-14 -64 -11 -5 5 -174 416 -174 423 0 2 19 8 43 15 23 6 63 20 90 31 50 22 57
39 38 91 -15 38 -42 41 -124 12 -40 -14 -78 -25 -83 -25 -5 0 -21 32 -36 70
l-26 70 84 26 c116 35 128 50 100 119 -16 38 -10 38 -145 -2 -45 -13 -84 -23
-86 -21 -5 5 -55 131 -55 138 0 4 45 22 100 39 113 36 128 50 110 106 -15 44
-27 45 -162 2 l-104 -34 -57 53 c-102 95 -240 125 -397 85 -72 -18 -404 -148
-1090 -426 -91 -37 -178 -68 -194 -69 -27 -1 -29 2 -56 94 -16 52 -70 235
-120 405 -50 171 -154 515 -230 765 -325 1068 -482 1602 -472 1611 4 3 246 74
537 158 1013 293 3091 908 4190 1240 308 94 568 170 577 170 14 1 26 -27 57
-126z m407 -634 c1114 -651 1877 -1780 2064 -3052 57 -392 51 -920 -16 -1317
-9 -52 -19 -99 -24 -103 -4 -5 -66 70 -137 165 -215 286 -468 631 -518 706
l-47 71 -44 -30 c-24 -16 -96 -70 -161 -119 -65 -49 -119 -86 -120 -82 -1 4
-36 124 -77 268 -41 143 -142 480 -225 750 -82 269 -193 635 -246 814 -53 179
-189 627 -302 995 -319 1040 -312 1015 -296 1015 5 0 72 -37 149 -81z m-3398
-3304 c65 -20 131 -69 159 -121 12 -22 137 -332 277 -690 140 -357 338 -860
441 -1119 337 -847 519 -1330 536 -1423 13 -68 4 -142 -25 -207 -49 -108 -88
-134 -326 -220 -328 -119 -1943 -739 -2280 -876 -114 -46 -191 -54 -276 -31
-60 17 -129 67 -162 118 -17 24 -67 144 -112 267 -373 1008 -890 2365 -1034
2712 -63 154 -79 222 -74 320 10 175 103 267 364 358 54 19 194 72 309 117
368 144 1748 691 1810 717 124 53 251 93 296 93 25 0 68 -7 97 -15z m4745
-382 c24 -32 84 -114 132 -183 49 -69 218 -298 375 -510 341 -459 460 -624
460 -639 0 -15 -118 -91 -142 -91 -27 0 -22 25 12 63 17 19 30 41 30 48 0 16
-57 95 -504 704 -186 253 -352 475 -369 492 -17 18 -45 37 -63 43 -68 23 -144
-42 -144 -123 0 -49 13 -73 50 -92 46 -24 85 -19 125 16 40 35 45 34 90 -31
15 -22 25 -46 22 -54 -3 -8 -24 -24 -46 -36 -52 -26 -141 -27 -197 -1 -50 23
-116 81 -145 127 -26 42 -14 47 -217 -105 -87 -65 -213 -158 -282 -208 -69
-49 -269 -195 -445 -324 -176 -129 -365 -267 -420 -307 -55 -39 -123 -90 -151
-112 -34 -27 -66 -43 -100 -49 -54 -10 -65 -7 -42 12 71 57 450 337 1083 800
413 302 768 564 790 583 22 18 43 33 47 34 4 0 27 -26 51 -57z m-83 -171 c0
-37 -22 -67 -44 -59 -25 10 -30 34 -12 62 23 35 56 33 56 -3z m-250 -317 c26
-19 78 -50 116 -67 63 -30 77 -33 159 -32 56 1 106 7 134 18 24 9 47 16 51 16
9 0 180 -227 180 -239 0 -4 -53 -19 -117 -35 -143 -34 -391 -99 -653 -171
-107 -29 -256 -70 -330 -90 l-134 -37 -92 22 c-66 16 -113 21 -168 18 -63 -3
-73 -1 -62 10 13 14 858 620 865 621 2 1 25 -15 51 -34z m735 -469 c11 -36 15
-84 13 -142 l-3 -89 -128 -26 -127 -26 -60 64 c-33 35 -74 89 -91 119 -22 39
-36 53 -48 50 -9 -3 -54 -15 -101 -26 -47 -12 -182 -50 -300 -85 -475 -141
-1087 -301 -1375 -360 -257 -52 -1319 -253 -1408 -266 -126 -19 -119 11 8 32
38 6 210 40 380 74 897 184 1337 288 2210 524 226 60 536 144 690 184 l280 74
22 -24 c13 -13 30 -48 38 -77z m157 -163 c25 -23 23 -41 -7 -49 -33 -8 -37 -4
-29 34 7 37 11 38 36 15z m-1657 -33 c19 0 26 -3 19 -10 -11 -11 -435 -123
-441 -116 -8 7 76 67 129 91 58 26 171 46 228 39 19 -2 48 -4 65 -4z m1016
-91 l35 -38 -35 -6 c-141 -22 -1087 -145 -1099 -143 -9 2 42 16 113 32 144 31
651 159 815 205 l105 29 15 -20 c8 -12 31 -38 51 -59z m727 9 c11 -15 45 -178
97 -478 49 -278 106 -581 170 -909 30 -151 53 -276 52 -277 -6 -6 -744 -135
-1512 -265 -549 -93 -1782 -307 -2203 -383 -167 -30 -184 -31 -192 -16 -5 9
-16 59 -25 111 -21 126 -280 1420 -307 1533 -22 96 -19 106 30 106 12 0 129
18 260 41 543 93 1056 169 1874 279 854 114 1283 180 1623 249 113 23 120 24
133 9z m-1593 -2094 c-112 -99 -418 -284 -670 -405 -447 -214 -875 -340 -1395
-409 -229 -31 -663 -38 -910 -16 -174 17 -516 68 -562 85 -22 8 154 76 502
193 264 89 926 288 957 288 5 0 14 -13 20 -30 14 -38 37 -39 210 -5 186 36
786 143 1256 225 224 38 447 79 495 89 48 10 98 19 112 19 24 1 23 -1 -15 -34z
m-3703 -626 c9 -20 20 -47 23 -61 l7 -25 -79 18 c-87 21 -138 38 -131 45 10
10 144 63 153 61 6 -1 18 -18 27 -38z"/>
<path d="M6000 8735 c-118 -35 -241 -70 -272 -79 -39 -11 -58 -21 -58 -31 0
-22 109 -414 180 -650 89 -291 340 -1127 340 -1130 0 -6 -91 -27 -96 -22 -7 6
-84 261 -185 607 -116 398 -161 540 -172 540 -15 0 -136 -36 -319 -96 -104
-34 -168 -60 -168 -68 0 -8 14 -58 30 -112 17 -55 73 -242 126 -417 52 -175
112 -373 133 -440 58 -184 57 -173 15 -187 -19 -7 -37 -10 -38 -8 -2 1 -38
110 -80 240 -42 130 -80 239 -85 242 -10 7 -107 -20 -313 -85 -153 -48 -158
-51 -158 -77 0 -58 144 -542 161 -542 23 0 384 110 804 245 143 46 391 124
550 173 362 111 365 113 365 149 -1 42 -41 185 -218 773 -89 294 -194 647
-234 784 -40 137 -77 250 -83 251 -5 2 -107 -26 -225 -60z m198 -57 c86 -299
164 -565 313 -1064 98 -331 179 -604 179 -606 0 -5 -159 -58 -173 -58 -8 0
-25 51 -87 269 -34 117 -113 383 -176 590 -188 611 -255 844 -247 852 9 9 140
47 165 48 11 1 20 -11 26 -31z m-224 -180 c94 -301 466 -1553 466 -1568 0 -11
-174 -60 -182 -52 -15 15 -463 1517 -502 1684 -6 26 -4 28 71 52 43 14 83 25
90 26 7 0 31 -60 57 -142z m-264 -643 c27 -71 310 -1050 307 -1059 -3 -7 -29
-18 -58 -25 -30 -8 -108 -31 -174 -52 -80 -25 -124 -34 -132 -27 -6 5 -16 30
-22 56 -5 26 -73 261 -150 524 -78 262 -141 483 -141 492 0 11 29 24 98 45 53
16 126 38 162 49 87 27 99 27 110 -3z m-356 -928 c49 -154 90 -306 85 -311 -2
-2 -82 -28 -176 -58 -124 -40 -175 -52 -182 -44 -10 12 -134 417 -129 421 5 4
301 102 323 107 11 2 25 3 32 0 6 -2 27 -54 47 -115z"/>
<path d="M3345 7794 c-489 -86 -845 -486 -872 -980 -9 -170 25 -348 98 -500
187 -395 614 -639 1038 -595 270 28 485 133 667 324 191 201 287 439 287 717
0 188 -35 327 -122 494 -204 392 -660 617 -1096 540z m321 -53 c50 -10 130
-35 178 -54 86 -35 211 -101 220 -115 3 -5 -32 -60 -77 -123 -154 -216 -480
-649 -489 -649 -4 0 -119 30 -255 66 -137 36 -324 85 -418 110 -93 25 -184 49
-202 55 l-32 10 23 62 c61 164 136 277 256 390 139 131 284 207 470 246 121
25 211 26 326 2z m550 -303 c145 -156 238 -363 263 -589 11 -96 4 -269 -10
-269 -4 0 -83 18 -176 40 -92 23 -289 68 -438 101 -148 33 -271 61 -272 62 -1
1 76 106 170 234 95 127 217 292 271 366 81 110 103 134 116 127 9 -5 43 -37
76 -72z m-106 -847 c399 -89 365 -67 310 -209 -85 -221 -287 -427 -518 -528
-42 -19 -84 -34 -93 -34 -12 0 -23 25 -42 93 -33 116 -197 777 -197 793 0 8
29 4 98 -13 53 -14 252 -60 442 -102z"/>
<path d="M6370 6654 c-239 -74 -599 -184 -800 -245 -498 -151 -488 -147 -495
-169 -8 -25 11 -60 33 -60 10 0 112 30 227 66 116 36 455 139 755 230 844 256
770 230 770 263 0 30 -16 51 -39 50 -9 0 -212 -61 -451 -135z"/>
<path d="M6920 6297 c-201 -60 -1746 -524 -1843 -553 -121 -36 -128 -39 -123
-60 12 -47 26 -75 41 -80 18 -7 150 30 555 156 173 54 403 124 510 155 259 75
875 260 925 278 43 16 48 32 26 90 -12 30 -30 33 -91 14z"/>
<path d="M6565 5885 c-264 -79 -644 -192 -845 -250 -201 -59 -435 -130 -520
-158 l-155 -52 2 -39 c3 -43 17 -66 42 -66 9 0 104 27 211 61 107 33 389 116
625 185 634 185 1157 343 1172 356 30 24 2 109 -35 107 -9 0 -233 -65 -497
-144z"/>
<path d="M6065 5428 c-33 -10 -231 -69 -440 -129 -209 -60 -409 -119 -444
-131 l-63 -20 6 -36 c3 -20 14 -45 25 -55 19 -20 20 -20 118 11 54 17 249 74
433 127 490 141 499 144 510 165 8 14 6 29 -4 55 -13 30 -19 35 -48 34 -18 -1
-60 -10 -93 -21z"/>
<path d="M6740 5009 c-316 -93 -762 -223 -991 -288 -443 -128 -469 -136 -469
-148 0 -23 22 -82 34 -92 11 -9 69 5 263 63 136 41 590 172 1007 291 418 119
767 220 777 226 30 16 38 41 25 79 -9 29 -16 35 -41 37 -16 1 -289 -74 -605
-168z"/>
<path d="M6225 4553 c-27 -8 -169 -50 -315 -93 -146 -43 -294 -86 -330 -95
-111 -28 -220 -67 -220 -79 0 -33 23 -86 39 -91 23 -7 755 200 909 257 48 18
52 22 52 52 0 39 -26 66 -61 65 -13 -1 -46 -8 -74 -16z"/>
<path d="M3555 5146 c-49 -18 -182 -71 -295 -116 -257 -103 -839 -331 -1480
-580 -272 -106 -508 -199 -523 -207 -16 -8 -35 -30 -43 -49 -18 -43 -15 -57
70 -281 142 -373 188 -483 209 -498 39 -27 89 -17 273 56 99 39 265 104 369
144 105 40 474 185 820 322 347 138 713 282 815 322 200 78 233 101 246 166 4
25 0 56 -15 100 -23 72 -167 445 -209 544 -48 112 -99 129 -237 77z m152 -180
c48 -113 180 -478 185 -506 3 -21 -4 -27 -52 -46 -389 -160 -2214 -875 -2259
-886 -10 -2 -25 23 -46 73 -32 74 -187 484 -199 525 -8 25 -63 1 614 263 256
98 728 282 1050 409 661 259 640 251 660 249 8 -1 29 -37 47 -81z"/>
<path d="M3910 3981 c-86 -28 -160 -91 -202 -171 -19 -38 -23 -60 -23 -140 0
-80 4 -102 23 -138 35 -66 88 -119 150 -149 48 -24 69 -28 137 -28 102 1 166
27 230 96 66 71 89 127 89 219 0 178 -127 312 -304 317 -41 1 -86 -1 -100 -6z
m200 -81 c50 -25 114 -99 128 -148 30 -100 0 -208 -77 -273 -171 -147 -441 -7
-418 216 18 178 210 285 367 205z"/>
<path d="M3215 3692 c-73 -35 -147 -113 -169 -179 -18 -52 -21 -150 -6 -203
16 -57 65 -126 117 -164 133 -97 312 -80 423 40 61 66 84 124 84 214 1 123
-59 227 -166 285 -44 24 -67 30 -138 33 -77 3 -90 1 -145 -26z m242 -64 c53
-25 116 -94 131 -146 38 -127 -16 -253 -133 -308 -93 -44 -196 -28 -275 43
-214 192 16 533 277 411z"/>
<path d="M2592 3442 c-66 -24 -118 -65 -159 -126 -43 -63 -56 -116 -51 -201
11 -165 131 -283 298 -293 99 -5 175 22 240 87 71 72 95 129 94 231 0 100 -24
160 -89 225 -85 85 -221 116 -333 77z m213 -72 c188 -80 198 -354 17 -453
-106 -58 -218 -42 -301 41 -74 74 -96 159 -67 256 44 147 206 219 351 156z"/>
<path d="M4145 3281 c-107 -51 -154 -126 -155 -244 0 -63 10 -95 116 -385 64
-174 137 -376 163 -448 55 -151 88 -214 134 -247 46 -35 91 -47 171 -47 86 0
154 28 210 86 61 63 71 88 70 184 0 82 -3 92 -83 295 -45 116 -116 300 -156
410 -98 265 -127 328 -167 358 -102 76 -198 88 -303 38z m227 -63 c48 -28 79
-75 116 -179 17 -46 92 -248 167 -449 100 -267 137 -378 138 -412 2 -104 -109
-208 -222 -208 -69 0 -128 28 -162 78 -14 20 -101 244 -193 497 -152 418 -167
465 -164 512 7 79 62 145 152 180 41 16 121 7 168 -19z"/>
<path d="M1933 3192 c-227 -81 -288 -375 -110 -539 56 -52 87 -68 159 -82 103
-22 211 12 288 89 62 62 83 112 88 212 4 76 1 92 -21 141 -55 120 -152 187
-280 194 -52 3 -86 -1 -124 -15z m212 -71 c193 -87 202 -350 17 -459 -40 -23
-58 -27 -122 -27 -64 0 -82 4 -122 27 -189 112 -175 376 24 463 47 20 154 18
203 -4z"/>
<path d="M3570 3011 c-89 -27 -163 -90 -207 -174 -24 -46 -28 -63 -28 -142 0
-109 23 -164 97 -237 68 -66 139 -91 243 -86 132 7 226 71 280 190 28 62 35
161 16 226 -28 94 -106 178 -198 212 -55 20 -154 26 -203 11z m208 -88 c157
-75 189 -287 62 -414 -76 -76 -172 -97 -274 -58 -65 24 -140 100 -156 157 -28
103 2 217 75 280 84 75 185 87 293 35z"/>
<path d="M2880 2751 c-90 -28 -165 -96 -207 -188 -22 -48 -25 -65 -21 -141 3
-72 9 -96 33 -141 33 -60 86 -109 154 -143 37 -18 63 -23 131 -23 107 0 169
26 235 96 68 73 90 127 90 225 0 73 -3 88 -35 150 -39 76 -103 133 -179 159
-46 16 -158 19 -201 6z m169 -67 c107 -32 181 -132 181 -246 -1 -182 -165
-299 -344 -246 -63 19 -141 101 -161 172 -40 137 33 272 172 322 50 18 88 17
152 -2z"/>
<path d="M2205 2477 c-66 -22 -98 -43 -146 -94 -149 -160 -101 -416 96 -514
42 -20 64 -24 145 -24 87 0 100 3 149 30 231 128 229 456 -3 575 -77 39 -171
50 -241 27z m189 -72 c56 -24 122 -90 143 -143 66 -174 -57 -356 -242 -355
-72 0 -119 18 -173 68 -58 52 -82 107 -82 186 0 110 66 211 161 245 48 18 150
17 193 -1z"/>
<path d="M3844 2300 c-98 -20 -187 -89 -235 -182 -34 -66 -38 -185 -8 -263 77
-206 354 -273 521 -126 70 62 101 130 106 232 4 77 1 93 -23 146 -61 138 -219
222 -361 193z m129 -71 c145 -36 232 -214 173 -351 -76 -177 -314 -213 -439
-67 -166 193 17 481 266 418z"/>
<path d="M3150 2031 c-88 -27 -175 -104 -213 -189 -27 -61 -29 -167 -4 -239
24 -69 93 -145 165 -180 48 -24 70 -28 138 -28 73 0 88 4 150 35 113 58 174
158 174 286 0 182 -143 326 -323 323 -34 0 -73 -4 -87 -8z m187 -77 c48 -17
117 -87 140 -142 20 -47 20 -146 0 -193 -23 -56 -82 -114 -139 -139 -71 -31
-166 -25 -233 14 -172 101 -164 361 13 451 69 34 138 37 219 9z"/>
<path d="M2480 1777 c-141 -40 -240 -173 -240 -322 0 -265 295 -418 519 -270
45 30 76 68 112 135 20 38 24 59 24 135 0 78 -4 97 -28 147 -68 138 -242 216
-387 175z m202 -81 c52 -25 107 -82 130 -134 25 -55 26 -153 3 -208 -20 -49
-77 -109 -130 -137 -57 -31 -173 -30 -231 0 -211 112 -193 405 29 490 44 17
154 11 199 -11z"/>
<path d="M8735 4107 c-65 -65 -54 -162 22 -193 33 -14 40 -14 70 0 78 37 96
143 34 198 -44 39 -84 37 -126 -5z m95 -76 c0 -29 -32 -63 -53 -56 -21 9 -22
43 -1 73 12 18 19 20 35 12 10 -6 19 -19 19 -29z"/>
<path d="M8939 3736 c-41 -28 -49 -43 -49 -93 0 -47 54 -103 99 -103 37 0 77
34 87 74 3 14 9 26 13 26 6 0 24 -67 47 -177 3 -18 -1 -24 -22 -29 -45 -11
-138 3 -190 29 -85 43 -130 103 -175 233 -3 8 -54 3 -169 -17 -231 -41 -1332
-202 -2035 -299 -781 -107 -797 -109 -803 -115 -3 -2 0 -37 7 -77 25 -162 -51
-275 -232 -343 -34 -12 -63 -29 -65 -37 -1 -8 26 -164 62 -348 35 -184 67
-359 71 -387 4 -29 8 -53 10 -53 33 0 167 -35 208 -55 99 -46 183 -138 201
-220 23 -102 25 -105 59 -105 18 0 417 67 887 149 724 127 1247 217 1931 333
l126 21 6 76 c7 91 26 149 70 214 30 45 126 131 174 156 20 10 22 8 33 -42 15
-70 49 -271 46 -274 -1 -1 -20 -5 -41 -8 l-40 -7 -1 51 c-1 68 -30 101 -89
101 -48 0 -78 -18 -95 -59 -17 -42 -6 -90 31 -130 l30 -33 112 5 c139 6 177
18 177 57 0 16 -31 185 -69 377 -82 410 -132 679 -161 858 -26 169 -35 200
-69 237 -24 27 -36 32 -87 35 -50 4 -64 1 -95 -21z m81 -70 c0 -23 -45 -70
-58 -62 -17 10 -15 19 9 50 22 28 49 35 49 12z m-340 -180 c75 -118 161 -178
306 -213 38 -9 72 -19 76 -22 4 -3 28 -118 53 -256 l46 -250 -33 -24 c-66 -49
-176 -168 -202 -219 -31 -62 -56 -152 -56 -204 0 -21 -4 -38 -8 -38 -26 0
-2087 -350 -2481 -421 -122 -22 -224 -39 -226 -37 -1 2 -15 29 -30 61 -43 92
-133 180 -229 227 -45 21 -100 44 -123 51 -29 8 -43 18 -47 34 -16 61 -106
509 -106 523 0 10 21 29 50 45 133 75 224 206 237 339 6 66 7 68 37 73 17 3
137 21 266 40 129 19 402 59 605 90 987 148 1763 263 1792 264 30 1 36 -5 73
-63z m500 -1156 c14 -26 -7 -62 -35 -58 -26 4 -31 35 -9 59 22 24 31 24 44 -1z"/>
<path d="M7310 3320 c-144 -20 -274 -83 -370 -180 -122 -124 -180 -253 -188
-421 -9 -207 45 -348 187 -489 143 -142 283 -196 481 -187 175 8 304 64 424
183 120 121 176 248 184 417 6 129 -8 205 -53 303 -119 258 -392 412 -665 374z
m270 -94 c169 -58 300 -191 361 -366 33 -94 33 -258 1 -350 -85 -247 -295
-401 -546 -401 -51 0 -117 7 -150 16 -246 65 -424 291 -427 541 -3 171 50 303
164 418 162 162 387 215 597 142z"/>
<path d="M7248 3131 c-216 -71 -354 -294 -319 -513 41 -259 283 -440 533 -399
182 29 319 147 379 322 18 54 20 80 17 166 -4 94 -8 109 -42 178 -50 100 -121
172 -222 222 -73 36 -83 38 -183 40 -82 2 -119 -1 -163 -16z m69 -79 c6 -4 15
-20 18 -35 7 -25 11 -27 54 -27 73 0 138 -41 163 -101 5 -13 -3 -20 -33 -32
-40 -16 -41 -15 -82 14 -79 55 -94 21 -46 -106 l19 -52 58 0 c89 0 134 -30
171 -114 19 -43 20 -49 5 -92 -16 -46 -72 -112 -105 -122 -14 -5 -19 -16 -19
-45 0 -29 -5 -42 -21 -50 -29 -16 -41 -9 -54 31 -10 29 -16 34 -38 31 -53 -7
-132 25 -171 68 -20 22 -36 44 -36 49 0 5 18 16 41 25 l41 17 34 -31 c23 -19
45 -30 66 -30 29 0 30 2 24 30 -3 17 -13 55 -21 84 l-16 53 -58 7 c-35 4 -73
16 -93 29 -95 64 -90 224 9 292 33 22 37 29 34 61 -4 45 23 67 56 46z"/>
<path d="M7267 2858 c-16 -16 -27 -38 -27 -53 0 -32 50 -85 80 -85 19 0 21 4
15 32 -4 17 -15 54 -24 82 l-18 50 -26 -26z"/>
<path d="M7440 2610 c0 -6 7 -40 16 -75 19 -74 38 -84 73 -39 29 37 27 78 -5
103 -28 22 -84 29 -84 11z"/>
<path d="M5460 3209 c-67 -28 -76 -77 -37 -209 l22 -75 34 3 c45 3 102 38 94
58 -3 8 -19 14 -38 14 -18 0 -38 7 -45 15 -15 18 -16 17 35 36 52 19 51 40 -3
58 l-44 14 21 20 c19 20 24 20 63 8 24 -7 58 -15 76 -18 31 -5 33 -3 30 17 -5
38 -48 62 -119 66 -35 2 -75 -1 -89 -7z"/>
<path d="M5712 1859 c-48 -24 -61 -55 -43 -104 6 -17 11 -50 11 -72 0 -57 33
-83 104 -83 125 1 199 88 131 155 -27 28 -57 32 -74 12 -8 -11 -6 -20 9 -37
19 -22 19 -24 4 -42 -12 -12 -31 -18 -61 -18 -52 0 -56 16 -12 49 38 28 33 43
-16 57 l-38 10 46 28 c53 31 58 42 21 56 -33 13 -32 13 -82 -11z"/>
<path d="M2715 8790 c-104 -52 -141 -114 -95 -160 27 -27 43 -25 116 15 115
65 157 121 118 159 -24 24 -72 19 -139 -14z"/>
<path d="M696 5818 c-23 -32 -33 -74 -52 -222 -18 -147 -14 -170 37 -181 59
-13 71 17 102 255 18 135 12 163 -40 168 -23 2 -35 -3 -47 -20z"/>
</g>
</svg>
