<?xml version="1.0" standalone="no"?>
<!DOCTYPE svg PUBLIC "-//W3C//DTD SVG 20010904//EN"
 "http://www.w3.org/TR/2001/REC-SVG-20010904/DTD/svg10.dtd">
<svg version="1.0" xmlns="http://www.w3.org/2000/svg"
 width="1024.000000pt" height="1024.000000pt" viewBox="0 0 1024.000000 1024.000000"
 preserveAspectRatio="xMidYMid meet">

<g transform="translate(0.000000,1024.000000) scale(0.100000,-0.100000)"
fill="#e0e0e0" stroke="none">
<path d="M7425 10034 c-66 -30 -163 -73 -215 -96 -52 -22 -153 -67 -225 -100
-238 -111 -548 -249 -750 -335 -110 -47 -226 -98 -257 -114 -73 -37 -772 -350
-1068 -479 -234 -101 -689 -305 -990 -442 -96 -44 -249 -113 -340 -153 -91
-40 -232 -104 -315 -142 -82 -39 -224 -104 -315 -146 -91 -41 -336 -154 -545
-250 -209 -96 -517 -236 -685 -312 -168 -75 -384 -173 -480 -217 -96 -44 -216
-98 -267 -120 -98 -43 -163 -91 -191 -142 -16 -29 -16 -238 -13 -3371 3 -2788
5 -3344 17 -3366 17 -35 78 -82 151 -119 78 -40 126 -39 228 4 132 54 553 236
821 354 323 142 470 202 495 202 10 0 204 -92 429 -205 225 -113 419 -205 429
-205 11 0 73 24 138 54 267 122 704 318 2208 989 2571 1147 3492 1564 4095
1852 135 64 249 121 254 125 14 13 -72 63 -509 295 -340 181 -1351 727 -1533
828 -84 47 -163 88 -176 91 -18 4 -25 15 -30 43 -3 21 -6 1245 -6 2720 l0
2682 -32 24 c-57 41 -174 107 -189 106 -8 0 -68 -25 -134 -55z m270 -126 c3
-18 4 -167 3 -332 l-3 -299 -135 -57 c-260 -109 -4857 -2168 -5450 -2440 -589
-270 -1108 -500 -1131 -500 -8 0 -10 71 -7 273 4 265 4 273 28 315 27 48 93
96 187 136 34 14 124 56 200 92 298 142 4030 1833 4568 2069 66 29 246 109
400 178 154 68 422 188 595 265 173 77 407 183 520 236 113 52 208 95 212 95
4 1 10 -14 13 -31z m-1 -779 c3 -17 6 -647 6 -1399 l0 -1367 -27 -12 c-36 -17
-280 -122 -708 -304 -187 -80 -396 -171 -465 -202 -69 -31 -246 -110 -395
-175 -148 -64 -317 -139 -374 -164 -81 -37 -106 -44 -113 -34 -14 21 1 2761
15 2771 7 4 122 57 257 118 135 61 429 193 653 295 225 101 452 203 505 225
53 23 210 92 347 154 245 110 274 123 286 124 4 1 9 -13 13 -30z m-2174 -2057
c0 -615 -3 -1449 -7 -1853 l-6 -735 -46 -19 c-25 -10 -284 -129 -576 -263
-291 -134 -676 -309 -855 -389 -179 -80 -435 -197 -570 -260 -135 -63 -260
-121 -277 -129 l-33 -14 0 1860 0 1859 29 15 c16 9 154 71 307 140 154 68 540
242 859 386 319 144 702 316 850 381 149 66 279 123 290 128 11 6 23 10 28 10
4 1 7 -502 7 -1117z m-2480 -1135 l0 -1143 -222 -99 c-303 -133 -1146 -512
-1516 -680 -166 -76 -305 -135 -308 -132 -4 3 -7 516 -7 1139 l-1 1133 145 68
c79 38 324 149 544 247 447 199 713 319 1075 485 245 112 268 123 283 124 4 1
7 -513 7 -1142z m4653 131 c4 -100 4 -790 0 -1532 l-6 -1350 -26 -51 c-33 -62
-30 -61 -531 -279 -206 -90 -402 -176 -435 -191 -33 -15 -112 -49 -175 -75
-101 -42 -239 -102 -765 -336 -66 -30 -126 -54 -132 -54 -10 0 -13 318 -13
1558 0 1231 3 1562 13 1575 6 9 32 25 57 35 25 11 70 31 100 45 30 14 127 57
215 95 88 39 201 89 250 112 50 23 164 73 255 112 188 80 631 274 955 419 121
54 223 99 226 99 3 0 9 -82 12 -182z m-4655 -2223 l-3 -826 -995 -444 c-547
-245 -1005 -448 -1017 -451 l-23 -6 0 819 0 819 138 63 c951 436 1870 848
1895 850 4 1 6 -370 5 -824z m4807 632 c30 -17 39 -29 38 -45 -3 -20 0 -22 36
-16 33 5 41 3 51 -16 6 -12 17 -19 24 -17 13 5 67 -23 705 -368 172 -94 341
-185 375 -203 33 -18 116 -63 184 -98 68 -36 122 -71 122 -79 0 -8 6 -12 14
-9 21 8 138 -56 132 -72 -3 -8 0 -11 8 -8 15 6 129 -49 339 -163 l139 -76 -82
-38 c-46 -22 -91 -39 -101 -39 -11 0 -19 -4 -19 -9 0 -8 -260 -141 -275 -141
-2 0 -120 -55 -262 -121 -142 -67 -391 -182 -553 -256 -162 -74 -414 -190
-560 -258 -146 -67 -431 -196 -635 -285 -594 -261 -3668 -1632 -4040 -1803
l-141 -64 -414 208 -415 207 80 37 c44 21 179 81 300 135 2021 894 3661 1619
3900 1725 165 73 388 172 495 218 312 137 348 155 391 200 42 42 75 99 90 151
5 16 9 311 9 656 1 344 3 636 7 648 7 27 9 27 58 -1z m-2335 -1221 l0 -1115
-22 -7 c-13 -4 -135 -58 -273 -119 -137 -62 -594 -262 -1015 -445 -421 -183
-827 -361 -903 -396 -75 -35 -140 -64 -142 -64 -3 0 -5 492 -5 1093 l0 1094
138 65 c75 36 263 122 417 191 154 68 489 220 745 337 838 383 1035 472 1058
479 1 1 2 -500 2 -1113z m-2472 -1278 l-3 -921 -555 -244 c-883 -387 -1418
-615 -1437 -611 -43 8 -43 12 -43 919 l0 866 128 61 c70 33 309 141 532 241
223 99 619 276 880 395 261 118 481 215 488 215 10 1 12 -186 10 -921z"/>
<path d="M7355 9621 c-59 -36 -95 -100 -95 -166 0 -50 48 -100 87 -90 67 16
143 117 143 189 0 73 -70 108 -135 67z m94 -17 c27 -34 27 -89 1 -131 -25 -41
-34 -42 -26 -3 6 31 1 32 -32 7 -9 -7 -9 -13 -1 -24 18 -21 -16 -53 -58 -53
-43 0 -58 30 -49 94 8 53 35 89 84 116 49 25 57 25 81 -6z"/>
<path d="M7345 9549 c-32 -28 -34 -34 -22 -47 32 -32 124 19 101 56 -18 28
-40 25 -79 -9z"/>
<path d="M6932 9432 c-42 -42 -67 -88 -77 -142 -5 -28 -2 -42 15 -63 34 -43
84 -31 147 35 88 91 81 208 -12 208 -27 0 -43 -8 -73 -38z m107 2 c20 -15 22
-22 16 -63 -12 -80 -46 -121 -116 -141 -46 -13 -63 7 -57 68 6 60 44 117 92
138 39 17 37 17 65 -2z"/>
<path d="M6980 9330 c0 -5 -12 -10 -27 -10 -19 0 -24 -3 -15 -9 10 -6 10 -10
-3 -21 -22 -18 -19 -39 5 -33 25 7 80 56 80 72 0 6 -9 11 -20 11 -11 0 -20 -4
-20 -10z"/>
<path d="M6575 9296 c-70 -30 -135 -139 -119 -201 7 -28 57 -75 80 -75 8 0 27
6 42 14 93 49 142 181 90 240 -30 32 -56 38 -93 22z m77 -43 c22 -19 24 -61 3
-69 -9 -4 -12 -15 -9 -33 4 -19 -1 -34 -20 -54 -14 -16 -30 -26 -35 -23 -13 8
-34 103 -26 116 12 20 25 9 25 -22 1 -31 2 -32 15 -14 10 13 11 24 5 37 -6 10
-10 27 -10 38 0 23 -12 26 -42 10 -14 -8 -18 -17 -14 -34 3 -13 2 -35 -3 -48
-7 -18 -6 -28 5 -39 20 -20 8 -68 -17 -68 -40 0 -64 82 -38 133 6 12 27 37 46
55 39 36 85 43 115 15z"/>
<path d="M1699 6929 c-16 -30 3 -45 25 -20 10 11 15 25 11 30 -10 17 -23 13
-36 -10z"/>
<path d="M1561 6872 c-6 -11 -11 -25 -11 -31 0 -16 26 -13 40 5 11 12 11 18
-2 31 -15 14 -17 13 -27 -5z"/>
<path d="M1410 6795 c-9 -11 -10 -19 -3 -26 14 -14 43 0 43 22 0 23 -23 25
-40 4z"/>
<path d="M1272 6738 c-17 -17 -15 -48 3 -48 22 0 38 35 22 49 -10 8 -17 7 -25
-1z"/>
<path d="M7477 8874 c-26 -13 -201 -94 -390 -178 -188 -85 -463 -210 -612
-278 -148 -69 -363 -166 -477 -217 l-206 -93 -4 -582 c-2 -319 -3 -582 -2
-584 1 -1 73 32 160 74 281 134 430 202 894 409 250 112 508 227 572 256 l118
54 0 583 c0 320 -1 582 -2 582 -2 -1 -24 -12 -51 -26z m-67 -583 c5 -11 7 -26
5 -34 -7 -16 -14 -20 -300 -149 -121 -54 -273 -124 -338 -155 -92 -44 -120
-54 -130 -44 -24 24 13 64 103 109 127 63 623 290 637 291 7 1 17 -8 23 -18z
m-503 -6 c3 -9 -2 -24 -12 -35 -22 -25 -223 -122 -235 -115 -20 13 -9 45 25
72 37 30 168 91 198 92 10 1 20 -6 24 -14z m-541 -264 c73 -33 114 -109 114
-210 -1 -244 -193 -493 -394 -508 -52 -4 -66 -2 -96 19 -74 50 -105 130 -97
248 10 147 109 321 229 404 98 67 170 81 244 47z m885 -27 c20 -24 3 -42 -81
-86 -125 -66 -480 -228 -501 -228 -26 0 -25 43 2 69 11 10 58 34 102 51 45 18
129 57 187 88 92 49 253 121 271 122 4 0 12 -7 20 -16z"/>
<path d="M6200 7958 c-79 -31 -169 -124 -217 -224 -31 -65 -37 -90 -40 -158
-5 -95 11 -137 66 -173 46 -31 93 -38 160 -23 49 10 64 20 122 79 91 92 142
196 147 298 4 63 1 81 -21 126 -43 87 -119 113 -217 75z m68 -97 c5 -30 -91
-225 -96 -197 -2 10 13 54 33 98 21 43 34 82 31 86 -4 3 -21 0 -39 -7 -46 -19
-77 -25 -77 -15 0 16 69 56 85 50 8 -3 15 -1 15 5 0 6 10 9 23 7 14 -2 23 -11
25 -27z m-208 -101 c0 -5 -9 -14 -21 -20 -19 -11 -20 -10 -9 9 11 22 30 29 30
11z m89 -157 c-13 -21 -33 -59 -46 -85 -23 -46 -40 -65 -49 -55 -8 8 49 119
63 124 7 3 13 13 13 22 0 21 9 31 28 31 11 0 8 -9 -9 -37z"/>
<path d="M6565 7004 c-144 -65 -197 -86 -210 -80 -18 6 -31 -6 -39 -36 l-6
-27 52 21 c104 41 148 62 148 69 0 5 7 6 15 2 9 -3 21 2 28 10 14 18 117 35
117 20 0 -5 -15 -17 -32 -25 -113 -52 -149 -68 -203 -89 -98 -38 -156 -79
-112 -79 22 0 171 68 175 79 2 6 7 9 12 6 8 -5 49 10 136 51 64 30 65 31 51
61 -8 18 -8 29 1 44 20 32 -22 24 -133 -27z"/>
<path d="M6722 6930 c-18 -16 -41 -30 -52 -30 -10 0 -20 -7 -24 -15 -3 -8 -15
-15 -26 -15 -20 0 -89 -29 -171 -71 -20 -11 -42 -19 -48 -19 -17 0 -91 -49
-91 -60 0 -17 33 -11 75 13 22 12 73 36 114 52 40 16 75 35 78 42 3 7 14 13
26 13 17 0 118 42 167 69 8 4 15 17 15 27 0 30 -27 27 -63 -6z"/>
<path d="M6023 6875 c-54 -23 -102 -83 -124 -157 -14 -44 -19 -81 -15 -101 8
-39 53 -87 80 -87 37 1 102 37 133 74 31 39 63 120 63 162 0 30 -24 89 -39 99
-30 18 -69 22 -98 10z m82 -50 c75 -74 -21 -255 -134 -255 -41 0 -54 28 -49
105 5 74 41 139 91 160 46 20 65 18 92 -10z"/>
<path d="M6043 6743 c-15 -6 -17 -39 -3 -48 16 -10 50 14 50 35 0 20 -19 25
-47 13z"/>
<path d="M5966 6699 c-21 -17 -24 -24 -15 -35 18 -22 37 -17 54 16 8 16 15 31
15 35 0 12 -29 4 -54 -16z"/>
<path d="M6653 6529 c-6 -6 -35 -22 -65 -34 -183 -78 -234 -97 -255 -97 -19 0
-23 -6 -23 -29 0 -35 12 -36 53 -7 18 13 37 22 43 20 15 -3 135 54 145 69 4 8
19 9 44 5 29 -6 34 -10 25 -21 -6 -7 -23 -16 -38 -20 -15 -3 -36 -14 -47 -24
-11 -10 -31 -18 -44 -19 -13 0 -31 -8 -40 -16 -10 -9 -35 -16 -57 -17 -21 0
-33 -3 -26 -6 9 -3 3 -12 -17 -24 -25 -15 -42 -39 -28 -39 5 0 126 50 145 59
9 5 46 21 82 36 36 15 72 33 80 40 8 7 24 15 35 17 11 2 21 11 23 21 3 13 -2
16 -20 15 -17 -2 -24 3 -26 20 -3 19 1 22 27 22 24 0 31 4 31 20 0 22 -29 27
-47 9z"/>
<path d="M6770 6416 c0 -8 -10 -14 -22 -14 -33 0 -112 -31 -121 -48 -5 -8 -12
-12 -17 -9 -4 3 -42 -11 -83 -30 -41 -19 -78 -35 -82 -35 -19 0 -135 -65 -132
-75 5 -13 31 -8 82 15 41 18 146 65 295 130 81 36 134 80 96 80 -9 0 -16 -6
-16 -14z"/>
<path d="M5982 6304 c-64 -55 -97 -117 -97 -185 0 -59 16 -88 58 -111 45 -24
137 35 180 116 29 56 31 164 3 195 -32 35 -93 29 -144 -15z m115 -16 c18 -17
23 -32 23 -70 0 -114 -103 -211 -174 -165 -21 14 -24 22 -21 81 2 69 12 91 66
144 39 38 73 41 106 10z"/>
<path d="M6063 6219 c-12 -4 -26 -17 -32 -28 -7 -13 -17 -17 -31 -14 -25 7
-50 -13 -50 -38 0 -26 22 -24 49 5 13 13 30 22 40 19 20 -5 54 29 49 50 -2 11
-9 12 -25 6z"/>
<path d="M5090 7752 c-91 -41 -491 -219 -890 -397 -399 -177 -737 -328 -751
-335 l-27 -12 -7 -1557 c-4 -856 -4 -1580 0 -1609 4 -29 11 -52 17 -52 6 0
105 43 222 96 116 53 497 227 846 385 842 383 756 340 765 386 9 48 6 3085 -3
3134 l-7 35 -165 -74z m160 -1541 l0 -1579 -149 -66 c-83 -37 -442 -200 -798
-362 -934 -426 -853 -391 -863 -374 -11 17 -14 2869 -3 3048 l6 113 66 33 c36
19 174 81 306 139 132 58 373 166 535 240 558 255 881 397 893 390 4 -2 7
-714 7 -1582z"/>
<path d="M4389 6910 c-95 -11 -159 -42 -222 -108 -96 -101 -144 -232 -154
-413 -7 -122 6 -175 57 -239 17 -21 37 -54 45 -72 l14 -34 -82 -85 c-45 -46
-126 -125 -179 -175 -54 -51 -98 -96 -98 -102 0 -16 94 -99 138 -121 102 -52
239 -64 348 -30 217 66 411 227 579 479 68 101 91 149 78 161 -4 4 -55 17
-113 28 -152 31 -210 49 -210 67 0 8 13 40 29 72 39 79 63 189 64 302 1 121
-20 197 -69 245 -33 33 -38 35 -97 34 -34 -1 -92 -5 -128 -9z m176 -248 c22
-61 31 -248 16 -323 -8 -39 -25 -75 -55 -115 -128 -173 -207 -211 -310 -150
-36 21 -51 39 -73 86 -16 33 -33 60 -39 60 -27 0 -26 73 1 83 13 6 30 94 26
139 -3 34 23 84 52 99 12 7 56 24 97 39 41 15 115 52 164 83 49 31 92 54 97
52 4 -3 15 -26 24 -53z m78 -190 c-3 -21 -11 -48 -17 -62 -10 -25 -10 -24 -14
10 -2 19 -1 55 3 80 6 40 8 43 20 26 9 -11 11 -31 8 -54z m-174 -402 c-7 -5
-14 -19 -16 -31 -8 -50 -74 -121 -130 -140 -26 -8 -39 -7 -68 7 -30 14 -38 25
-51 71 -9 30 -14 57 -11 59 2 3 16 0 31 -6 40 -15 118 -12 161 6 21 8 49 29
64 47 22 26 26 28 29 13 2 -10 -2 -22 -9 -26z"/>
<path d="M4459 6561 c-43 -14 -69 -31 -69 -46 0 -19 11 -19 36 0 10 8 39 15
63 15 35 0 42 3 37 16 -3 9 -6 18 -6 20 0 6 -32 3 -61 -5z"/>
<path d="M4212 6459 c-46 -26 -69 -59 -42 -59 29 0 111 72 97 86 -1 2 -26 -10
-55 -27z"/>
<path d="M4441 6469 c-19 -7 -21 -12 -11 -24 11 -14 33 -11 58 8 31 24 0 35
-47 16z"/>
<path d="M4209 6351 c-17 -14 -21 -23 -13 -30 7 -8 16 -5 32 9 40 37 23 55
-19 21z"/>
<path d="M4332 6330 c2 -26 7 -43 13 -40 12 6 7 61 -6 75 -7 7 -9 -5 -7 -35z"/>
<path d="M4380 6213 c-23 -16 -44 -23 -62 -21 -26 4 -44 -12 -31 -26 10 -10
53 -7 76 5 42 22 85 71 60 68 -5 0 -24 -12 -43 -26z"/>
<path d="M4595 5319 c-181 -83 -440 -200 -575 -260 -134 -60 -254 -116 -267
-124 -23 -16 -33 -68 -14 -79 11 -7 702 299 1053 467 162 78 192 102 162 131
-8 9 -18 16 -22 16 -4 0 -155 -68 -337 -151z"/>
<path d="M4505 5059 c-647 -292 -728 -330 -753 -352 -25 -24 -26 -60 -1 -65
15 -3 966 419 1127 499 74 37 106 81 73 99 -11 5 -21 10 -23 9 -2 0 -192 -86
-423 -190z"/>
<path d="M4490 4831 c-480 -216 -718 -328 -742 -349 -21 -17 -24 -61 -5 -63
25 -3 44 5 374 155 861 390 872 396 843 430 -7 9 -22 16 -34 15 -11 0 -208
-85 -436 -188z"/>
<path d="M1403 6064 c-64 -23 -137 -95 -174 -170 -115 -234 80 -380 257 -192
53 56 69 83 88 148 20 66 20 110 2 155 -27 63 -97 87 -173 59z m103 -20 c154
-73 2 -404 -185 -404 -31 0 -49 7 -73 29 -31 27 -33 34 -33 93 1 79 27 140 90
207 47 50 114 91 148 91 11 0 34 -7 53 -16z"/>
<path d="M7375 5871 c-92 -33 -289 -118 -387 -167 -37 -19 -129 -61 -205 -93
-180 -77 -864 -382 -925 -412 l-48 -23 0 -1135 c0 -624 2 -1132 5 -1129 3 3 6
511 6 1129 l-1 1124 58 27 c143 67 1344 597 1549 684 l33 14 -3 -1306 -2
-1307 -25 -19 c-14 -10 -207 -97 -430 -194 -382 -166 -791 -346 -1015 -448
-103 -47 -138 -55 -152 -33 -4 6 -11 59 -14 117 l-5 105 -2 -142 c-1 -79 0
-143 3 -143 2 0 134 59 292 131 159 72 374 168 478 214 105 46 253 111 330
145 77 34 206 90 286 125 231 100 256 113 263 138 4 17 10 2394 7 2595 -1 17
-4 32 -8 32 -5 0 -44 -13 -88 -29z"/>
<path d="M7096 5355 c-62 -26 -86 -42 -86 -56 0 -16 35 -10 101 17 67 27 89
41 89 55 0 16 -43 9 -104 -16z"/>
<path d="M6290 4909 c-63 -28 -157 -69 -208 -91 -90 -40 -136 -78 -94 -78 11
0 98 36 195 80 97 44 180 80 185 80 13 0 62 40 62 51 0 16 -24 9 -140 -42z"/>
<path d="M6640 4757 c-14 -6 -131 -59 -261 -118 -130 -59 -272 -122 -315 -140
-93 -37 -96 -40 -84 -59 7 -12 21 -9 87 19 199 86 589 266 603 278 21 19 1 33
-30 20z"/>
<path d="M6940 4583 c-8 -3 -112 -50 -231 -104 -118 -54 -258 -116 -310 -139
-252 -111 -419 -193 -419 -207 0 -22 33 -11 184 58 71 33 276 126 455 205 179
80 334 153 343 161 26 23 13 39 -22 26z"/>
<path d="M6345 4006 c-376 -167 -365 -161 -365 -186 0 -18 2 -18 38 -3 54 22
602 271 632 286 23 12 41 48 23 46 -4 0 -152 -64 -328 -143z"/>
<path d="M6685 3849 c-132 -61 -312 -142 -400 -181 -273 -120 -305 -137 -305
-158 0 -11 2 -20 4 -20 4 0 251 111 566 255 129 59 258 116 285 127 73 29 125
60 125 75 0 7 -8 13 -17 12 -10 0 -126 -50 -258 -110z"/>
<path d="M6475 3444 c-406 -179 -495 -223 -495 -246 0 -15 29 -8 107 28 43 19
184 83 313 141 222 99 270 125 270 145 0 16 -26 7 -195 -68z"/>
<path d="M7110 3423 c-69 -30 -278 -125 -465 -211 -187 -85 -407 -184 -490
-219 -161 -70 -175 -78 -175 -100 0 -23 48 -8 174 53 151 72 812 370 966 435
121 51 160 73 160 91 0 19 -52 4 -170 -49z"/>
<path d="M1845 3892 c-27 -15 -52 -30 -53 -35 -2 -4 -8 -5 -13 -1 -5 3 -9 1
-9 -4 0 -6 -9 -8 -20 -5 -13 4 -20 0 -20 -10 0 -10 9 -13 30 -11 41 5 100 31
100 44 0 6 5 8 10 5 6 -4 18 -1 27 7 9 7 19 12 22 11 3 -2 6 3 6 9 0 22 -29
18 -80 -10z"/>
<path d="M1988 3873 c-46 -19 -52 -45 -9 -37 16 3 37 2 46 -4 14 -7 4 -16 -58
-45 -81 -39 -102 -57 -65 -57 28 0 138 51 156 73 11 12 10 22 -2 51 -17 41
-17 41 -68 19z"/>
<path d="M1904 3835 c-10 -8 -26 -15 -35 -15 -9 0 -22 -7 -29 -15 -10 -12 -9
-16 4 -21 21 -8 90 28 94 49 4 21 -8 22 -34 2z"/>
<path d="M1615 3788 c-2 -7 -6 -35 -8 -61 -6 -61 8 -68 67 -33 25 14 52 26 60
26 9 0 16 4 16 8 0 5 16 14 35 22 36 14 48 40 18 40 -10 0 -27 -7 -37 -15 -27
-20 -49 -19 -79 5 -28 22 -66 26 -72 8z m62 -53 c2 -6 -9 -10 -24 -9 -36 3
-35 2 -28 15 8 12 47 8 52 -6z"/>
<path d="M1843 3730 c-22 -9 -33 -40 -14 -40 12 0 41 29 41 41 0 5 -1 9 -2 8
-2 0 -13 -4 -25 -9z"/>
<path d="M1277 3689 c-34 -28 -37 -35 -37 -82 0 -42 -5 -56 -27 -79 -21 -22
-28 -40 -31 -89 -5 -71 -15 -70 125 -12 129 54 154 88 113 155 -11 18 -20 47
-20 63 0 75 -59 97 -123 44z m81 -41 c7 -7 12 -27 12 -45 0 -42 -40 -86 -73
-81 -20 3 -22 9 -22 57 1 40 6 57 20 67 23 17 47 18 63 2z"/>
<path d="M1341 3624 c0 -11 3 -14 6 -6 3 7 2 16 -1 19 -3 4 -6 -2 -5 -13z"/>
<path d="M1762 3685 c-17 -14 -32 -21 -34 -16 -3 10 -101 -28 -119 -46 -7 -7
-8 -17 -3 -26 8 -13 21 -9 89 26 46 24 79 48 77 55 -2 9 4 11 18 7 15 -5 18
-3 14 9 -8 20 -7 21 -42 -9z"/>
<path d="M1760 3377 c-102 -44 -146 -68 -148 -81 -3 -15 0 -17 20 -11 12 4 28
13 34 21 7 8 30 14 58 14 25 0 45 3 44 8 -6 19 26 48 47 44 25 -4 95 36 95 56
0 6 -1 12 -2 11 -2 0 -68 -28 -148 -62z"/>
<path d="M1941 3372 c-46 -20 -83 -41 -82 -47 3 -15 43 -7 73 15 17 12 43 20
69 20 41 0 42 -1 25 -19 -19 -21 -7 -37 19 -27 27 10 13 98 -14 95 -4 0 -44
-17 -90 -37z"/>
<path d="M1780 3306 c-133 -55 -170 -75 -170 -92 0 -9 5 -14 13 -11 6 3 44 19
83 35 105 44 134 61 134 77 0 8 -1 15 -2 14 -2 0 -28 -11 -58 -23z"/>
<path d="M1965 3310 c-10 -11 -22 -17 -26 -14 -5 3 -9 -2 -9 -11 0 -11 -6 -15
-19 -10 -11 3 -56 -13 -117 -42 -55 -26 -118 -56 -142 -66 -28 -13 -42 -25
-42 -37 0 -21 22 -18 51 7 9 7 19 10 22 6 4 -3 7 5 7 18 0 17 3 20 9 11 6 -11
21 -8 72 13 118 50 240 116 237 127 -7 20 -24 19 -43 -2z"/>
<path d="M1300 3273 c-41 -28 -49 -45 -50 -104 0 -45 -6 -64 -31 -103 -39 -59
-52 -136 -23 -136 28 0 194 77 221 102 28 26 30 59 3 83 -15 14 -20 31 -20 74
0 62 -5 73 -37 90 -29 15 -34 14 -63 -6z m48 -65 c2 -8 -5 -18 -15 -21 -10 -2
-26 -8 -37 -12 -17 -7 -17 -6 -6 16 22 41 52 49 58 17z m1 -107 c-12 -28 -25
-51 -30 -51 -14 0 -50 53 -47 69 3 14 86 44 96 36 2 -2 -6 -26 -19 -54z"/>
<path d="M1795 2920 c-71 -33 -133 -67 -138 -76 -7 -12 -12 -13 -23 -3 -11 9
-15 8 -20 -5 -4 -9 -4 -20 0 -23 7 -8 102 36 118 54 6 7 16 13 24 13 47 0 190
77 173 94 -3 3 -63 -22 -134 -54z"/>
<path d="M2027 2866 c-16 -15 -34 -22 -45 -19 -19 4 -52 -19 -52 -38 0 -16 29
-10 80 16 35 18 50 31 50 45 0 25 -2 25 -33 -4z"/>
<path d="M1788 2834 c-16 -8 -28 -19 -28 -25 0 -5 -11 -7 -24 -3 -26 6 -44
-12 -28 -28 7 -7 18 -5 34 6 12 9 40 21 61 27 21 5 37 16 37 24 0 19 -17 18
-52 -1z"/>
<path d="M1282 2762 c-17 -16 -35 -46 -41 -68 -34 -127 -41 -162 -41 -194 0
-61 8 -64 90 -33 86 33 154 89 144 119 -4 11 -17 28 -30 39 -20 17 -22 25 -15
61 18 93 -42 136 -107 76z m63 -52 c17 -19 17 -20 -1 -20 -10 0 -29 -3 -41 -6
-18 -5 -23 -2 -23 14 0 35 38 42 65 12z m15 -60 c0 -59 -59 -103 -87 -65 -17
25 -17 26 12 58 31 32 75 37 75 7z"/>
<path d="M1769 2739 c-12 -12 -27 -18 -39 -14 -21 7 -34 -9 -26 -31 4 -11 15
-9 60 13 35 17 52 31 49 40 -7 18 -20 16 -44 -8z"/>
<path d="M1660 2695 c-12 -14 -6 -35 10 -35 5 0 7 7 4 15 -4 8 -1 15 5 15 6 0
11 5 11 10 0 15 -16 12 -30 -5z"/>
<path d="M1622 2678 c-15 -15 -16 -38 -2 -38 12 0 23 25 18 40 -2 7 -7 7 -16
-2z"/>
<path d="M4858 3328 l-98 -51 0 -359 c0 -209 4 -358 9 -358 5 0 52 21 105 46
l96 47 0 363 c0 200 -3 364 -7 364 -5 0 -52 -24 -105 -52z"/>
<path d="M4526 2885 l-109 -187 -5 -113 c-2 -62 -2 -128 2 -148 l6 -35 103 45
c56 25 105 48 110 52 4 4 6 135 5 290 l-3 283 -109 -187z"/>
<path d="M4180 2856 l-95 -43 0 -271 c0 -149 3 -273 6 -277 4 -3 53 15 109 41
l102 48 -6 35 c-3 20 -6 143 -6 274 0 130 -3 237 -7 237 -5 0 -51 -20 -103
-44z"/>
<path d="M3845 2472 l-110 -48 -8 -114 c-5 -62 -5 -137 0 -166 l8 -54 115 54
115 53 3 161 c1 89 -1 162 -5 162 -5 0 -57 -22 -118 -48z"/>
<path d="M2795 2530 c-11 -5 -144 -63 -295 -129 -151 -65 -410 -179 -575 -253
-165 -74 -364 -161 -442 -193 -77 -32 -167 -72 -200 -89 l-58 -31 -3 -657 c-2
-602 -1 -658 14 -658 9 0 204 82 433 181 742 323 1075 469 1129 494 l52 25 0
298 c0 514 -12 1022 -24 1021 -6 0 -20 -4 -31 -9z m32 -662 l-2 -642 -65 -28
c-36 -15 -272 -118 -525 -229 -253 -111 -570 -250 -705 -309 -135 -59 -255
-111 -267 -114 -28 -9 -26 -64 -23 719 1 476 3 552 16 562 17 12 52 28 594
269 529 235 943 413 962 413 15 1 16 -49 15 -641z"/>
<path d="M2355 1982 c-66 -29 -304 -135 -530 -235 l-410 -182 -3 -42 c-2 -25
1 -43 7 -43 17 0 90 31 406 170 584 257 640 283 653 292 13 11 15 53 4 78 -6
13 -27 7 -127 -38z"/>
<path d="M1340 1746 c0 -9 5 -16 10 -16 6 0 10 4 10 9 0 6 -4 13 -10 16 -5 3
-10 -1 -10 -9z"/>
<path d="M9335 9416 c-55 -24 -172 -77 -260 -118 -88 -41 -310 -144 -493 -228
-184 -84 -348 -163 -365 -174 -17 -12 -34 -34 -38 -50 -5 -16 -6 -747 -4
-1624 5 -1554 6 -1595 24 -1626 26 -41 70 -66 116 -66 43 0 149 45 710 299
215 98 417 189 449 202 33 13 74 38 92 54 31 30 32 32 39 150 4 66 5 588 2
1160 -4 572 -7 1255 -7 1517 l0 477 -76 36 c-42 19 -80 35 -83 35 -3 0 -51
-20 -106 -44z m253 -1297 l-3 -1250 -265 -120 c-378 -172 -971 -435 -997 -443
-19 -6 -22 -2 -28 36 -3 24 -4 585 -3 1247 l3 1205 32 19 c34 19 165 81 693
324 405 186 509 230 553 232 16 1 17 -63 15 -1250z m-13 -1985 c-13 -32 -28
-42 -157 -104 -312 -149 -1065 -480 -1093 -480 -8 0 -17 10 -19 23 -7 32 -15
649 -9 681 3 14 9 26 14 26 8 0 312 135 924 409 149 67 288 130 310 140 l40
18 3 -338 c2 -282 0 -345 -13 -375z"/>
<path d="M9235 8952 c-53 -25 -170 -77 -302 -133 -40 -16 -53 -36 -36 -52 3
-4 11 -3 18 3 15 12 55 1 55 -15 0 -14 -22 -25 -51 -25 -16 0 -19 -7 -19 -55
l0 -54 33 18 c17 10 55 26 83 35 61 20 94 48 94 81 0 32 19 44 177 105 73 28
135 56 138 61 11 16 -34 9 -67 -11 -18 -11 -44 -20 -57 -20 -14 0 -32 -6 -40
-13 -20 -17 -137 -67 -156 -67 -8 0 -17 5 -20 10 -8 13 13 40 31 40 8 0 51 18
98 40 46 22 91 40 100 40 9 0 16 8 16 20 0 28 -23 25 -95 -8z m-177 -154 c-3
-27 -41 -36 -64 -17 -12 10 -12 13 3 25 10 7 28 14 41 14 19 0 23 -5 20 -22z
m-21 -75 c6 -17 -35 -27 -52 -13 -8 7 -12 17 -9 22 8 13 57 6 61 -9z"/>
<path d="M8573 8729 c-79 -39 -137 -131 -137 -218 0 -48 3 -56 32 -82 49 -44
99 -37 166 22 140 123 89 353 -61 278z m115 -98 c-3 -32 -8 -36 -115 -91
l-113 -57 0 46 c0 68 9 90 39 98 14 3 57 21 96 39 64 29 71 31 83 16 7 -10 12
-32 10 -51z"/>
<path d="M8659 8653 c0 -11 -3 -13 -6 -5 -4 10 -8 10 -19 1 -15 -12 -20 -59
-6 -59 18 0 52 33 52 50 0 24 -20 37 -21 13z"/>
<path d="M9105 8352 c-219 -89 -215 -87 -215 -113 0 -23 45 -27 53 -5 7 18 66
31 80 17 17 -17 -9 -38 -74 -62 -33 -12 -59 -26 -59 -30 0 -14 13 -11 91 25
76 34 110 49 119 50 21 4 308 132 319 142 12 11 8 12 -25 7 -21 -3 -41 -9 -44
-13 -3 -4 -55 -28 -116 -54 -61 -26 -119 -53 -130 -60 -16 -12 -23 -12 -47 1
-34 17 -29 24 35 48 26 9 49 23 52 31 3 7 12 11 20 8 8 -3 17 -1 21 5 3 6 12
11 20 11 31 0 125 42 125 56 0 24 -28 16 -225 -64z"/>
<path d="M9096 8194 c-3 -8 -18 -14 -35 -14 -16 0 -33 -5 -36 -10 -4 -6 -34
-24 -67 -41 -88 -44 -63 -47 39 -5 103 43 144 70 120 79 -9 3 -18 -1 -21 -9z"/>
<path d="M8569 8170 c-82 -43 -129 -116 -129 -197 0 -122 107 -147 200 -47 52
56 73 106 71 164 -3 79 -71 118 -142 80z m81 -66 c0 -17 -4 -23 -12 -18 -8 5
-9 2 -5 -11 6 -14 3 -17 -17 -13 -37 7 -51 -5 -35 -30 7 -12 11 -23 9 -24 -3
-2 -27 -14 -55 -28 -27 -13 -53 -26 -57 -28 -14 -7 -19 40 -8 73 10 29 23 40
83 70 85 42 97 43 97 9z m30 -24 c0 -5 -2 -10 -4 -10 -3 0 -8 5 -11 10 -3 6
-1 10 4 10 6 0 11 -4 11 -10z"/>
<path d="M8480 7999 c0 -11 4 -18 10 -14 5 3 7 12 3 20 -7 21 -13 19 -13 -6z"/>
<path d="M9154 7821 c-228 -91 -248 -102 -252 -129 -3 -18 1 -22 22 -22 37 0
41 -17 7 -34 -22 -12 -30 -24 -33 -51 -2 -20 -2 -37 0 -39 4 -5 171 63 200 82
21 14 33 40 12 27 -6 -4 -17 -4 -25 -1 -22 8 -6 36 20 36 13 0 26 4 29 9 6 9
57 31 214 91 45 18 82 36 82 41 0 12 -45 1 -90 -22 -69 -35 -273 -109 -301
-109 -36 0 -38 16 -4 32 14 6 25 15 25 19 0 4 8 7 19 6 22 -1 261 102 261 114
0 21 -28 13 -186 -50z m-105 -170 c10 -7 8 -12 -9 -24 -24 -17 -50 -13 -50 8
0 22 35 31 59 16z"/>
<path d="M8563 7601 c-71 -52 -123 -135 -126 -203 -1 -33 4 -45 26 -64 40 -34
84 -31 143 9 61 41 105 111 112 177 4 44 2 52 -26 80 -39 39 -76 39 -129 1z
m124 -48 c4 -9 1 -19 -5 -21 -7 -2 -12 -9 -12 -16 0 -19 -50 -62 -104 -89 -53
-27 -76 -26 -76 3 0 10 -6 20 -12 23 -20 7 -2 21 92 71 94 50 108 54 117 29z"/>
<path d="M9145 7280 c-82 -33 -171 -67 -197 -76 -43 -14 -48 -19 -48 -45 0
-27 1 -28 25 -17 14 6 25 15 25 20 0 4 10 8 21 8 12 0 67 21 123 46 73 33 109
44 129 40 22 -4 27 -2 25 11 -2 11 10 20 40 30 41 14 52 35 21 40 -8 1 -81
-24 -164 -57z"/>
<path d="M9380 7286 c-35 -14 -193 -79 -240 -99 -14 -6 -29 -12 -35 -12 -5 -1
-41 -16 -78 -33 -38 -18 -74 -32 -80 -32 -14 -1 -47 -24 -47 -34 0 -11 35 -6
54 9 22 17 52 20 61 6 3 -5 -21 -22 -52 -38 -75 -37 -84 -61 -11 -32 72 28
168 80 168 90 0 12 -17 11 -25 -1 -9 -15 -68 -13 -63 3 3 6 93 47 201 91 108
43 197 82 197 87 0 12 -8 11 -50 -5z"/>
<path d="M8650 7026 c-73 -31 -159 -74 -192 -98 -22 -15 -28 -27 -28 -56 0
-64 9 -67 86 -36 97 38 156 69 193 100 28 23 32 32 29 68 -4 50 -15 53 -88 22z
m-19 -76 c-13 -11 -29 -20 -36 -20 -7 0 -18 -7 -25 -15 -13 -16 -40 -20 -40
-6 0 7 106 61 120 60 3 0 -6 -9 -19 -19z"/>
</g>
</svg>
