<?xml version="1.0" standalone="no"?>
<!DOCTYPE svg PUBLIC "-//W3C//DTD SVG 20010904//EN"
 "http://www.w3.org/TR/2001/REC-SVG-20010904/DTD/svg10.dtd">
<svg version="1.0" xmlns="http://www.w3.org/2000/svg"
 width="1024.000000pt" height="1024.000000pt" viewBox="0 0 1024.000000 1024.000000"
 preserveAspectRatio="xMidYMid meet">

<g transform="translate(0.000000,1024.000000) scale(0.100000,-0.100000)"
fill="#e0e0e0" stroke="none">
<path d="M2548 9920 c-112 -39 -218 -117 -287 -212 l-28 -36 -154 91 c-85 51
-179 105 -210 121 l-56 30 -74 -43 c-41 -23 -85 -50 -99 -61 l-25 -19 0 -2246
0 -2247 31 -28 c17 -15 177 -114 355 -220 178 -106 599 -358 934 -560 609
-366 810 -485 1575 -935 223 -131 468 -275 546 -321 77 -45 146 -90 154 -99
11 -13 12 -118 8 -598 -4 -320 -4 -605 -1 -634 l5 -51 97 -62 c53 -34 452
-280 886 -547 693 -425 907 -558 1274 -790 46 -29 94 -53 106 -53 12 0 195
104 406 231 585 353 1496 898 1697 1015 46 27 97 60 115 75 l32 27 0 1202 0
1202 -29 21 c-16 12 -539 329 -1164 704 l-1134 682 -32 -16 c-17 -9 -112 -66
-211 -128 -418 -259 -1188 -722 -1324 -794 l-22 -12 1 1323 c1 728 1 1382 1
1453 l-1 131 -127 78 c-71 43 -165 102 -211 130 l-83 51 8 70 c31 272 -28 474
-166 569 -52 36 -99 46 -171 36 -98 -14 -182 -62 -285 -161 l-91 -88 -88 52
-89 52 -2 170 c-1 142 -5 180 -22 232 -44 132 -113 211 -209 239 -64 18 -129
11 -207 -24 -66 -30 -163 -107 -209 -167 l-43 -54 -45 26 c-69 39 -70 42 -70
187 0 206 -35 328 -120 420 -132 143 -307 115 -513 -83 l-68 -66 -65 35 c-36
19 -69 39 -74 45 -5 6 -4 30 2 55 17 71 13 246 -6 319 -61 229 -235 346 -418
281z m216 -78 c59 -32 104 -93 132 -178 15 -47 19 -87 19 -194 0 -177 0 -177
-66 -140 l-53 28 0 124 c-1 114 -3 127 -29 180 -37 76 -91 111 -146 96 -178
-49 -301 -205 -318 -404 -14 -174 90 -343 222 -359 41 -6 56 -12 61 -27 9 -31
-14 -48 -65 -48 -123 0 -264 137 -305 295 -60 228 57 494 265 605 126 67 191
72 283 22z m-85 -152 c10 -5 26 -29 36 -52 21 -52 34 -238 17 -238 -6 0 -46
21 -89 46 -43 25 -104 59 -135 75 -31 16 -60 34 -64 41 -16 25 146 138 199
138 10 0 26 -4 36 -10z m-740 -128 l193 -109 4 -104 c1 -57 10 -131 19 -163
46 -174 185 -311 339 -336 95 -15 153 25 163 112 4 37 1 49 -20 73 -22 26 -31
29 -85 30 -57 0 -64 2 -101 39 -22 21 -49 60 -60 86 -21 50 -38 130 -27 130 7
0 552 -310 609 -346 l37 -24 0 -78 c1 -231 101 -412 276 -498 84 -42 124 -41
167 2 60 59 41 123 -50 172 -70 37 -96 63 -122 123 -23 52 -38 129 -24 129 8
0 336 -187 498 -284 l80 -48 -3 -66 c-6 -126 38 -270 114 -373 62 -85 201
-178 266 -179 64 0 108 46 108 112 0 47 -22 74 -74 87 -82 20 -148 117 -181
265 l-6 29 33 -20 c18 -10 165 -95 325 -188 l293 -170 0 -65 c1 -153 68 -309
185 -424 134 -133 247 -175 301 -113 26 30 33 92 14 127 -6 10 -37 33 -70 51
-93 49 -160 138 -186 244 l-7 29 29 -19 c16 -11 144 -86 284 -168 140 -82 288
-169 328 -194 l72 -45 0 -235 0 -235 -23 15 c-27 17 -404 236 -547 317 -168
95 -1669 959 -1850 1065 -96 56 -312 181 -480 278 -168 96 -411 238 -541 315
-130 77 -294 171 -365 209 l-129 68 -3 249 c-2 197 0 247 10 243 7 -3 100 -54
207 -115z m1639 -218 c107 -44 164 -168 178 -391 4 -55 4 -112 0 -127 l-7 -27
-52 30 -52 30 -12 126 c-13 141 -39 207 -94 239 -72 43 -217 -37 -298 -162
-75 -118 -81 -305 -13 -438 31 -61 70 -103 130 -141 56 -36 63 -56 19 -61 -37
-5 -103 33 -163 92 -145 146 -175 370 -76 574 15 31 58 89 96 129 116 123 242
170 344 127z m-55 -182 c9 -10 23 -36 30 -57 17 -49 31 -195 19 -195 -5 0 -67
35 -137 77 l-128 77 40 35 c43 39 118 81 144 81 9 0 23 -8 32 -18z m-1545
-193 c294 -174 1344 -781 1872 -1084 1211 -694 1501 -861 1648 -948 l152 -91
-2 -1204 -3 -1203 -145 -81 c-80 -44 -176 -101 -215 -127 l-70 -46 3 -420 c4
-392 0 -495 -17 -495 -4 0 -90 50 -192 111 -101 61 -299 178 -439 259 -297
172 -530 309 -905 535 -344 207 -1341 801 -1635 975 -124 73 -244 146 -267
162 l-43 29 0 1885 0 1884 60 -30 c33 -17 122 -67 198 -111z m2435 -101 c82
-41 134 -162 144 -334 3 -55 3 -121 -1 -146 l-7 -46 -53 31 -53 32 -6 110 c-6
128 -33 215 -75 243 -61 40 -147 6 -243 -95 -66 -69 -84 -101 -104 -185 -46
-198 27 -397 177 -479 33 -19 43 -30 43 -49 0 -90 -220 59 -284 193 -98 204
-54 455 110 620 66 66 155 119 219 129 39 6 91 -3 133 -24z m-79 -173 c13 -14
26 -39 30 -57 12 -61 17 -163 8 -176 -7 -10 -35 2 -123 53 -63 37 -116 69
-118 71 -15 14 135 134 166 134 8 0 24 -11 37 -25z m970 -329 c50 -27 100 -99
127 -184 17 -53 21 -93 22 -187 0 -66 -3 -134 -7 -152 l-7 -32 -55 36 c-52 34
-55 39 -50 68 8 39 -8 199 -25 255 -19 62 -58 100 -105 100 -68 0 -176 -70
-250 -163 -70 -86 -93 -243 -55 -366 33 -108 84 -170 224 -276 24 -18 25 -22
14 -43 l-13 -23 -64 33 c-167 85 -279 272 -280 463 0 225 167 439 383 491 60
14 86 10 141 -20z m-89 -162 c48 -48 84 -219 55 -264 -11 -18 -32 -8 -174 79
l-100 61 50 47 c42 41 123 92 146 93 4 0 14 -7 23 -16z m633 -2210 l-3 -1425
-53 -30 -52 -31 0 1431 1 1430 42 26 c23 13 48 25 55 25 10 0 12 -288 10
-1426z m1721 -586 c31 -18 99 -60 151 -94 52 -34 219 -134 370 -223 151 -89
279 -166 283 -170 5 -5 -144 -95 -330 -201 -186 -106 -373 -215 -416 -242 -43
-26 -84 -48 -90 -48 -7 0 -57 28 -112 62 -55 33 -239 142 -410 241 -170 99
-316 185 -323 192 -11 10 30 39 215 153 125 77 309 190 407 251 99 61 184 111
189 111 5 0 35 -14 66 -32z m-916 -579 c45 -23 204 -115 352 -204 149 -89 506
-302 795 -472 677 -400 953 -567 957 -579 2 -6 -53 -43 -121 -83 l-125 -73
-58 33 c-32 18 -105 62 -163 98 -100 62 -1838 1097 -1928 1149 -24 13 -42 25
-40 27 8 6 241 145 245 145 2 0 40 -19 86 -41z m1965 -51 c67 -40 122 -75 122
-78 0 -10 -814 -490 -830 -490 -5 0 -68 35 -140 77 -124 74 -129 78 -110 93
11 8 97 60 192 115 452 263 614 354 629 355 8 0 70 -32 137 -72z m-2310 -167
c73 -40 618 -360 711 -418 13 -9 19 -19 14 -24 -28 -28 -819 -499 -831 -494
-13 5 -802 473 -811 481 -6 6 23 27 99 73 112 68 723 431 725 431 1 0 43 -22
93 -49z m2708 -78 c88 -53 260 -157 384 -231 124 -73 240 -145 258 -159 l33
-25 -137 -80 c-76 -44 -172 -101 -213 -127 -108 -67 -399 -236 -443 -257 -35
-16 -38 -16 -65 1 -15 11 -80 49 -143 85 -63 37 -242 143 -397 237 l-283 170
293 170 c160 94 346 202 412 241 66 39 125 71 131 71 7 1 83 -42 170 -96z
m-1771 -474 c122 -70 178 -110 168 -119 -4 -4 -111 -67 -238 -140 -126 -73
-309 -182 -406 -242 -97 -59 -180 -108 -184 -108 -4 0 -66 35 -137 77 -126 74
-130 77 -111 93 11 9 96 62 189 119 93 56 268 163 389 237 121 73 225 134 230
134 6 0 51 -23 100 -51z m-1789 -62 c65 -41 211 -127 323 -191 112 -65 244
-143 293 -173 l88 -54 0 -333 c0 -250 3 -336 13 -348 29 -38 388 -248 423
-248 15 0 25 8 30 23 4 12 10 158 13 324 l6 303 255 -151 c140 -83 342 -203
448 -266 l192 -114 0 -926 0 -925 -37 23 c-21 13 -83 52 -138 87 -222 143
-876 551 -1310 817 -253 156 -524 322 -602 371 l-143 88 0 852 c0 802 2 914
19 914 4 0 61 -33 127 -73z m4274 -894 l0 -918 -293 -174 c-160 -96 -576 -346
-924 -557 -837 -507 -856 -518 -865 -494 -4 10 -4 426 -1 924 l6 905 56 34
c31 19 171 101 311 182 140 82 292 172 338 202 l82 53 1 -298 c1 -163 4 -308
8 -322 12 -45 46 -37 191 49 74 44 168 100 208 125 l72 45 0 339 0 340 403
240 c221 133 403 241 405 241 1 1 2 -412 2 -916z m-1857 581 c172 -102 363
-216 424 -252 62 -37 113 -69 113 -72 0 -6 -49 -35 -240 -142 -126 -71 -484
-281 -552 -324 -21 -13 -42 -24 -48 -24 -6 0 -79 42 -163 94 -83 51 -264 160
-402 241 -137 81 -265 157 -283 168 -19 11 -30 23 -25 27 4 5 121 74 260 154
139 80 321 188 405 239 125 76 157 92 176 85 12 -4 163 -91 335 -194z m-1467
-250 l134 -75 0 -286 c0 -164 -4 -283 -9 -281 -5 2 -67 39 -139 83 l-129 80
-7 80 c-10 139 -7 475 5 475 6 0 71 -34 145 -76z m2404 -246 l0 -283 -127 -75
c-69 -41 -130 -76 -135 -78 -9 -4 -9 180 1 417 l6 154 125 72 c69 40 126 74
128 74 1 1 2 -126 2 -281z m-3418 -1047 c35 -21 194 -119 353 -216 160 -98
629 -389 1043 -648 l752 -470 0 -129 c0 -70 -4 -128 -8 -128 -4 0 -54 28 -110
62 -56 35 -551 340 -1101 678 l-1000 615 -1 138 c0 75 2 137 4 137 3 0 33 -18
68 -39z m4338 -208 l-1 -138 -47 -29 c-26 -16 -155 -93 -287 -171 -132 -78
-535 -319 -895 -535 -650 -390 -836 -500 -845 -500 -3 0 -5 58 -5 129 l0 129
548 327 c592 354 1202 723 1402 847 69 43 126 78 128 78 1 0 2 -62 2 -137z"/>
<path d="M2031 8482 c-10 -19 -5 -35 40 -125 53 -105 182 -323 202 -343 9 -9
37 -2 112 28 55 22 106 45 113 50 18 16 15 72 -6 91 -25 23 -58 21 -146 -7
l-74 -23 -77 132 c-42 72 -93 151 -114 175 -37 44 -38 44 -50 22z"/>
<path d="M2786 8153 c-3 -4 -6 -14 -6 -24 0 -19 56 -55 345 -219 359 -204
1391 -808 2025 -1184 80 -47 151 -86 157 -86 7 0 13 9 13 20 0 23 -37 48 -290
197 -80 47 -345 203 -590 347 -245 145 -607 356 -805 471 -198 114 -450 261
-560 325 -232 136 -280 161 -289 153z"/>
<path d="M2780 7971 c0 -25 17 -36 235 -161 322 -184 1612 -938 1929 -1127
169 -102 323 -191 342 -199 33 -14 34 -14 34 11 0 22 -36 46 -317 213 -458
272 -768 455 -1273 747 -245 142 -509 296 -587 342 -145 85 -344 193 -356 193
-4 0 -7 -9 -7 -19z"/>
<path d="M2780 7812 c0 -32 7 -37 510 -324 335 -192 1577 -919 1760 -1031 219
-133 251 -150 262 -139 26 26 -8 52 -267 202 -88 51 -344 202 -570 335 -225
133 -601 354 -835 490 -234 136 -429 251 -435 255 -20 16 -387 219 -406 225
-14 5 -19 2 -19 -13z"/>
<path d="M1980 7701 c-6 -12 -10 -127 -10 -305 0 -283 0 -285 23 -306 54 -51
564 -350 597 -350 38 0 40 16 40 313 l0 289 -27 27 c-45 44 -570 351 -601 351
-6 0 -16 -9 -22 -19z m255 -169 c72 -41 179 -104 239 -140 l109 -65 -7 -256
c-4 -140 -8 -257 -10 -259 -2 -2 -123 66 -268 150 l-263 154 -3 268 -2 268 37
-22 c21 -12 97 -56 168 -98z"/>
<path d="M2773 7653 c-9 -22 15 -40 176 -130 151 -85 1799 -1053 2066 -1213
171 -103 276 -160 295 -160 5 0 10 9 10 20 0 22 -23 37 -255 172 -77 44 -480
281 -895 526 -1056 624 -1363 802 -1378 802 -7 0 -15 -7 -19 -17z"/>
<path d="M2866 7179 c-3 -17 -6 -155 -6 -307 l0 -275 33 -30 c32 -30 486 -301
566 -339 36 -16 45 -18 52 -7 5 8 9 149 9 313 l0 299 -32 29 c-30 27 -331 209
-513 309 -86 48 -101 49 -109 8z m216 -131 c85 -51 208 -122 271 -158 l117
-65 0 -267 c0 -148 -2 -268 -5 -268 -3 0 -461 263 -532 307 -23 13 -23 14 -23
278 0 146 4 265 8 265 4 0 78 -42 164 -92z"/>
<path d="M1972 6863 c-5 -21 -9 -163 -8 -315 1 -232 3 -280 16 -292 25 -25
417 -263 516 -313 137 -70 128 -87 132 258 1 156 0 298 -3 314 -4 24 -19 40
-68 72 -116 76 -538 313 -557 313 -14 0 -22 -10 -28 -37z m91 -49 c39 -20 429
-249 474 -278 l33 -21 0 -272 c0 -150 -4 -273 -8 -273 -5 0 -76 40 -158 88
-82 49 -202 119 -266 156 l-118 68 0 274 c0 151 2 274 5 274 4 0 20 -7 38 -16z"/>
<path d="M3770 6670 c-7 -14 -10 -116 -8 -310 l3 -290 25 -24 c14 -14 142 -95
285 -182 143 -86 274 -165 290 -175 59 -35 59 -33 59 311 l1 312 -35 29 c-36
30 -135 91 -315 193 -55 31 -136 79 -180 106 -88 55 -109 60 -125 30z m306
-198 c137 -82 259 -155 272 -163 22 -14 22 -15 22 -286 l0 -272 -147 88 c-82
49 -208 124 -280 167 l-133 78 0 268 c0 147 4 268 8 268 5 0 121 -67 258 -148z"/>
<path d="M2863 6373 c-9 -24 -10 -572 -1 -603 5 -18 36 -45 100 -87 128 -83
348 -213 449 -263 78 -40 84 -41 96 -24 10 14 13 85 13 315 0 295 0 298 -22
322 -34 37 -582 357 -612 357 -9 0 -20 -8 -23 -17z m410 -261 c97 -57 179
-107 181 -111 6 -9 19 -551 14 -551 -6 0 -457 266 -510 301 l-38 24 0 272 0
272 88 -51 c48 -28 167 -98 265 -156z"/>
<path d="M4673 6123 c-5 -16 -8 -147 -8 -293 0 -216 3 -270 15 -293 30 -56
594 -389 634 -374 14 6 16 41 16 294 0 158 -3 298 -6 311 -4 15 -47 47 -133
101 -186 116 -478 281 -495 281 -9 0 -19 -12 -23 -27z m105 -77 c26 -13 146
-83 267 -155 l220 -131 5 -265 c3 -175 2 -264 -5 -261 -13 5 -377 219 -472
277 l-72 44 -1 258 c0 141 2 257 5 257 3 0 27 -11 53 -24z"/>
<path d="M1975 6061 c-3 -5 -5 -148 -5 -317 0 -248 2 -311 14 -328 8 -12 72
-54 142 -95 71 -40 195 -113 276 -162 154 -91 204 -111 219 -88 10 16 11 533
1 599 -8 55 -9 55 -361 259 -234 135 -273 153 -286 132z m205 -143 c80 -47
201 -119 270 -159 l125 -74 3 -277 c1 -153 0 -278 -3 -278 -11 0 -91 44 -180
98 -49 30 -144 85 -210 122 -66 36 -130 73 -142 81 -23 14 -23 14 -23 297 0
156 3 281 8 279 4 -2 72 -42 152 -89z"/>
<path d="M3766 5854 c-3 -9 -6 -150 -6 -314 l0 -298 35 -30 c53 -47 138 -102
280 -182 72 -40 155 -90 185 -110 88 -60 141 -83 154 -70 13 13 16 567 3 613
-9 31 -53 62 -364 250 -176 106 -265 157 -277 157 -2 0 -7 -7 -10 -16z m146
-123 c51 -32 163 -100 248 -150 85 -51 167 -102 183 -114 l27 -23 -2 -261 -3
-261 -277 166 -278 167 0 267 c0 148 2 268 4 268 3 0 47 -26 98 -59z"/>
<path d="M2864 5528 c-5 -18 -8 -161 -7 -318 2 -256 4 -287 20 -307 20 -26
455 -290 551 -336 49 -23 66 -27 75 -18 9 9 12 98 12 323 l0 310 -32 27 c-18
15 -68 47 -110 71 -43 24 -145 85 -228 135 -151 93 -246 145 -264 145 -5 0
-13 -15 -17 -32z m190 -121 c66 -40 185 -111 264 -157 l142 -85 0 -278 0 -278
-21 12 c-12 6 -85 50 -163 98 -78 48 -192 116 -254 151 l-112 64 0 273 c0 194
3 273 11 273 6 0 66 -33 133 -73z"/>
<path d="M4682 5312 c-9 -6 -13 -80 -15 -309 -2 -282 -1 -302 17 -322 19 -21
246 -163 473 -296 98 -57 137 -75 153 -70 21 7 21 8 18 322 l-3 315 -25 20
c-13 11 -56 38 -95 60 -38 22 -160 93 -270 158 -211 124 -232 134 -253 122z
m233 -169 c72 -44 180 -107 241 -141 l111 -62 6 -187 c11 -313 10 -376 -9
-369 -28 11 -268 153 -406 240 l-135 86 -6 91 c-9 116 -9 237 0 361 l6 98 31
-19 c17 -10 90 -55 161 -98z"/>
<path d="M6656 1924 c-6 -270 -5 -340 6 -355 7 -10 90 -66 183 -125 413 -260
540 -333 553 -319 9 8 16 628 8 661 -4 16 -42 47 -119 98 -179 118 -599 376
-612 376 -9 0 -14 -86 -19 -336z m245 145 c90 -56 231 -145 312 -197 l148 -94
-3 -289 c-1 -159 -5 -289 -8 -289 -3 0 -39 21 -80 46 -41 26 -147 90 -235 144
-88 53 -199 121 -247 151 l-87 54 0 225 c-1 262 6 363 24 356 7 -2 86 -50 176
-107z"/>
<path d="M6750 1877 c0 -19 29 -43 155 -128 99 -66 157 -111 160 -124 2 -11 6
-36 10 -56 4 -25 19 -50 47 -78 49 -48 73 -50 73 -4 0 40 6 46 39 34 68 -26
75 26 12 88 -25 24 -47 55 -51 70 -3 14 -8 34 -12 45 -5 18 -4 18 18 2 33 -22
49 -20 49 7 0 28 -54 113 -80 127 -47 25 -110 0 -110 -44 0 -9 16 -38 36 -64
29 -38 33 -48 20 -50 -19 -4 -51 14 -220 122 -65 42 -125 76 -132 76 -8 0 -14
-10 -14 -23z"/>
<path d="M6780 1642 c0 -10 10 -28 23 -39 33 -30 495 -313 511 -313 29 0 25
30 -7 54 -89 68 -497 316 -519 316 -5 0 -8 -8 -8 -18z"/>
<path d="M8066 2934 c-261 -145 -308 -178 -319 -229 -5 -22 -7 -142 -5 -267 4
-240 9 -264 52 -256 25 5 455 260 492 291 l26 23 -9 258 c-7 243 -9 259 -28
272 -18 12 -39 3 -209 -92z m193 -259 l1 -171 -227 -132 c-214 -124 -228 -130
-236 -110 -4 11 -6 118 -5 237 l3 215 135 79 c74 44 176 101 225 128 l90 49 6
-63 c4 -34 7 -139 8 -232z"/>
<path d="M8181 2859 c-13 -5 -59 -31 -103 -56 -76 -45 -79 -49 -123 -134 -81
-156 -146 -349 -118 -349 25 0 69 78 99 175 l19 60 5 -40 5 -40 23 23 c12 12
33 22 47 22 14 0 34 9 45 20 10 10 22 15 25 11 3 -5 28 -14 56 -21 65 -16 79
-5 53 41 -24 41 -72 78 -82 63 -4 -6 -14 -11 -22 -12 -57 -4 -85 -19 -96 -51
l-11 -33 -17 27 c-19 28 -16 71 6 121 12 26 28 32 28 10 0 -17 28 -41 37 -32
3 3 1 18 -6 33 -10 23 -9 29 8 46 l20 20 -6 -21 c-7 -29 13 -28 28 0 8 14 14
18 17 10 6 -19 19 -14 25 9 3 12 10 18 16 15 5 -4 12 -2 16 3 3 5 -3 14 -12
20 -16 9 -14 10 10 11 24 0 27 -3 27 -34 0 -40 -31 -69 -65 -60 -15 4 -27 -3
-44 -26 l-23 -32 23 7 c51 15 127 66 133 88 12 45 4 118 -13 116 -3 0 -17 -5
-30 -10z"/>
<path d="M5290 9130 c-81 -8 -112 -18 -107 -33 6 -17 208 -12 219 5 8 14 -17
39 -36 37 -6 -1 -40 -5 -76 -9z"/>
<path d="M5560 9126 c0 -22 6 -23 123 -31 103 -7 107 -7 107 13 0 28 -17 32
-131 32 -80 0 -99 -3 -99 -14z"/>
<path d="M5940 9106 c0 -8 15 -19 33 -25 46 -17 187 -27 187 -14 0 19 -24 31
-84 42 -84 15 -136 14 -136 -3z"/>
<path d="M4922 9075 c-60 -14 -75 -24 -63 -43 6 -10 22 -9 81 3 75 16 104 30
94 46 -7 12 -48 10 -112 -6z"/>
<path d="M6310 9041 c0 -16 11 -24 53 -36 28 -9 72 -19 96 -22 39 -5 43 -4 39
13 -3 20 -67 46 -145 59 -39 6 -43 5 -43 -14z"/>
<path d="M6656 8951 c-4 -6 -5 -15 -2 -20 5 -8 167 -71 182 -71 3 0 4 10 2 22
-2 17 -17 29 -60 46 -75 29 -114 37 -122 23z"/>
<path d="M5295 8900 c-71 -9 -97 -18 -92 -34 3 -7 34 -10 92 -8 93 2 124 14
104 38 -12 15 -13 15 -104 4z"/>
<path d="M5560 8890 c0 -19 7 -20 104 -20 58 0 107 4 111 9 11 19 -36 31 -124
31 -84 0 -91 -1 -91 -20z"/>
<path d="M5930 8875 c0 -21 26 -32 113 -45 82 -12 93 -10 84 14 -7 17 -56 31
-139 40 -47 5 -58 3 -58 -9z"/>
<path d="M8700 8820 c-157 -42 -333 -147 -501 -300 l-83 -75 -67 -3 c-63 -4
-71 -2 -106 25 -21 17 -68 49 -106 72 l-67 43 -48 -27 c-84 -49 -109 -84 -81
-112 13 -13 -83 -21 -366 -29 l-220 -6 -92 -91 c-51 -51 -93 -97 -93 -104 0
-19 48 -40 135 -58 311 -64 647 -145 643 -154 -2 -4 -115 -116 -253 -249
l-249 -241 -227 6 -228 6 -88 -87 c-70 -68 -85 -89 -73 -96 8 -5 101 -39 206
-76 l192 -68 5 -45 c7 -59 33 -81 96 -81 25 0 62 4 81 10 19 5 38 6 43 1 4 -4
50 -104 101 -221 51 -118 100 -219 110 -224 14 -9 31 3 101 75 l85 86 0 58 c0
32 -7 132 -15 224 -8 91 -17 190 -19 218 l-5 53 62 55 c113 99 382 305 399
305 26 0 46 -47 158 -380 109 -324 138 -400 151 -400 13 0 143 117 178 160
l32 40 -10 187 c-6 104 -14 224 -17 267 l-6 79 48 -35 c91 -66 118 -70 88 -12
-11 21 -14 43 -9 81 9 72 -12 113 -81 158 -60 40 -62 45 -66 164 l-3 84 135
101 c275 207 410 372 410 505 0 41 -29 94 -60 111 -40 21 -141 21 -220 0z
m179 -41 c63 -22 67 -80 14 -183 -50 -93 -146 -194 -297 -308 -159 -121 -617
-483 -781 -617 -307 -252 -517 -413 -650 -501 -77 -49 -123 -62 -169 -44 -44
17 8 137 112 259 92 107 1024 1009 1184 1146 222 189 463 291 587 248z m-1053
-304 l49 -35 -70 0 c-43 1 -77 6 -88 14 -16 13 -15 15 15 35 18 11 36 21 39
21 3 0 28 -16 55 -35z m214 -94 c0 -5 -46 -52 -102 -105 -77 -71 -110 -96
-130 -96 -31 0 -620 65 -728 80 -41 6 -76 13 -79 16 -3 3 12 23 35 44 l40 37
295 8 c162 4 362 11 444 15 83 4 167 8 188 8 20 1 37 -2 37 -7z m-970 -157
c200 -32 519 -75 608 -81 51 -3 95 -9 97 -13 2 -4 -13 -24 -34 -44 l-39 -38
-78 25 c-44 14 -137 37 -209 52 -301 62 -451 97 -459 106 -14 12 2 12 114 -7z
m1339 -663 l21 -414 -40 -43 c-22 -24 -40 -43 -40 -41 0 1 -29 112 -65 247
-36 135 -77 299 -91 365 -27 120 -42 154 -64 140 -20 -13 -8 -65 140 -599 22
-82 40 -161 38 -175 l-3 -26 -17 30 c-9 17 -66 178 -127 360 -62 181 -118 337
-126 346 -14 14 2 29 162 157 l178 140 7 -36 c4 -20 16 -223 27 -451z m89 230
c16 -14 22 -30 22 -60 l0 -42 -30 16 c-27 14 -30 21 -30 60 0 50 5 53 38 26z
m-1446 -339 l38 -7 -48 -51 -47 -51 -159 41 c-157 42 -159 43 -136 59 20 14
49 17 170 16 80 0 162 -3 182 -7z m-271 -108 c73 -20 146 -42 162 -49 24 -10
26 -13 13 -24 -12 -10 -44 -3 -175 40 -88 29 -157 57 -155 61 7 12 10 11 155
-28z m679 -46 c0 -7 9 -119 20 -248 l21 -235 -23 -17 c-13 -9 -26 -14 -30 -10
-4 4 -41 94 -83 201 l-76 195 33 25 c18 14 53 43 78 63 49 40 60 45 60 26z
m-142 -300 c99 -254 99 -255 80 -275 -16 -15 -18 -15 -28 11 -16 42 -94 223
-134 308 l-35 77 22 16 c12 8 25 15 29 15 3 0 33 -69 66 -152z"/>
<path d="M7002 8813 c3 -19 131 -92 161 -93 45 -1 -5 49 -86 84 -68 31 -80 32
-75 9z"/>
<path d="M6292 8809 c7 -22 72 -50 133 -56 45 -5 55 -3 55 10 0 20 -70 47
-139 54 -43 5 -53 3 -49 -8z"/>
<path d="M6640 8716 c0 -27 163 -97 183 -77 7 7 7 14 -2 24 -15 19 -95 53
-143 62 -31 6 -38 4 -38 -9z"/>
<path d="M7320 8656 c0 -14 115 -96 153 -109 27 -10 21 22 -10 47 -38 30 -116
76 -130 76 -7 0 -13 -6 -13 -14z"/>
<path d="M6982 8588 c2 -18 25 -34 93 -70 61 -32 92 -43 97 -35 11 18 -20 45
-97 88 -81 45 -98 48 -93 17z"/>
<path d="M8710 7455 c0 -48 97 -181 117 -161 11 11 -43 109 -82 146 -29 28
-35 31 -35 15z"/>
<path d="M8610 7212 c0 -22 48 -99 79 -126 15 -14 25 -16 32 -9 13 13 2 36
-48 106 -36 48 -63 61 -63 29z"/>
<path d="M8910 7133 c0 -27 44 -114 71 -143 l24 -25 3 27 c3 29 -16 74 -55
126 -27 35 -43 41 -43 15z"/>
<path d="M1162 7033 c-10 -15 -27 -43 -37 -62 -15 -29 -15 -35 -2 -48 13 -13
19 -7 51 44 20 32 35 64 34 72 -5 25 -25 23 -46 -6z"/>
<path d="M1299 6877 c-54 -86 -62 -104 -47 -113 13 -8 47 30 88 102 62 106 25
116 -41 11z"/>
<path d="M8796 6922 c-9 -16 18 -99 44 -132 29 -38 45 -16 29 38 -15 51 -62
111 -73 94z"/>
<path d="M9073 6796 c9 -57 53 -146 73 -146 13 0 15 6 9 37 -10 53 -44 122
-68 134 -19 11 -20 9 -14 -25z"/>
<path d="M971 6711 c-34 -53 -54 -127 -32 -120 17 6 78 106 87 142 10 45 -20
33 -55 -22z"/>
<path d="M8924 6583 c9 -48 48 -127 61 -124 18 3 8 89 -15 126 -30 49 -54 47
-46 -2z"/>
<path d="M1113 6543 c-41 -77 -47 -99 -29 -106 19 -8 75 78 83 127 9 56 -17
45 -54 -21z"/>
<path d="M9195 6448 c13 -79 39 -143 59 -146 17 -4 18 1 11 44 -11 73 -38 138
-59 142 -16 3 -17 -1 -11 -40z"/>
<path d="M815 6359 c-29 -66 -37 -119 -19 -126 12 -4 45 65 62 129 8 28 7 40
-3 48 -9 8 -19 -4 -40 -51z"/>
<path d="M9020 6277 c0 -35 28 -123 44 -136 31 -26 25 88 -7 139 -16 27 -37
25 -37 -3z"/>
<path d="M981 6243 c-23 -44 -51 -157 -41 -167 6 -6 13 -6 19 0 18 18 51 115
51 149 0 38 -14 46 -29 18z"/>
<path d="M9280 6089 c0 -49 19 -127 32 -135 19 -12 29 21 23 76 -9 89 -55 138
-55 59z"/>
<path d="M711 6041 c-13 -24 -41 -128 -41 -153 0 -27 25 -22 39 8 6 15 18 53
25 85 12 48 12 60 1 69 -10 9 -16 7 -24 -9z"/>
<path d="M9093 5916 c10 -101 47 -128 47 -35 0 57 -13 89 -37 89 -13 0 -15 -9
-10 -54z"/>
<path d="M871 5877 c-15 -40 -33 -138 -27 -153 10 -27 25 -14 41 39 26 89 29
123 11 130 -11 5 -19 0 -25 -16z"/>
<path d="M8725 5800 c-8 -12 18 -60 217 -405 228 -394 271 -465 278 -465 12 0
49 61 262 435 221 388 238 419 238 435 0 14 -986 14 -995 0z m945 -25 c0 -30
-425 -776 -446 -781 -5 -2 -72 106 -148 239 -77 133 -167 289 -201 347 -62
104 -105 184 -105 195 0 3 203 5 450 5 248 0 450 -2 450 -5z"/>
<path d="M625 5668 c-16 -48 -25 -99 -25 -140 0 -103 37 -45 47 73 4 44 2 68
-6 73 -6 4 -13 1 -16 -6z"/>
<path d="M790 5471 c-13 -77 -11 -123 6 -128 17 -6 36 75 32 136 -4 80 -24 76
-38 -8z"/>
<path d="M574 5275 c-12 -31 -9 -163 3 -176 21 -21 26 -3 27 93 1 64 -3 92
-11 95 -7 3 -16 -3 -19 -12z"/>
<path d="M765 5096 c-9 -80 0 -128 23 -124 14 3 18 18 20 82 3 73 -6 106 -28
106 -5 0 -11 -29 -15 -64z"/>
<path d="M566 4872 c-5 -37 7 -142 19 -162 16 -27 25 -3 25 69 0 115 -30 179
-44 93z"/>
<path d="M783 4691 c6 -92 21 -136 38 -109 23 36 0 186 -30 196 -12 4 -13 -11
-8 -87z"/>
<path d="M604 4506 c-15 -39 21 -186 45 -186 25 0 3 159 -25 189 -11 13 -14
12 -20 -3z"/>
<path d="M834 4386 c-17 -44 26 -200 49 -177 14 14 -9 161 -28 180 -12 13 -15
12 -21 -3z"/>
<path d="M2270 4174 c-14 -2 -56 -9 -95 -15 -582 -93 -1259 -767 -1573 -1564
-125 -319 -181 -610 -169 -885 15 -346 128 -601 324 -732 102 -68 341 -204
457 -258 123 -59 189 -73 326 -73 119 1 222 20 348 65 660 233 1312 1048 1497
1873 138 617 11 1109 -340 1310 -47 28 -128 74 -178 103 -149 87 -245 132
-321 152 -71 18 -229 32 -276 24z m278 -84 c41 -11 104 -35 140 -52 l67 -32
-120 -7 c-364 -22 -716 -208 -1070 -564 -425 -428 -720 -994 -810 -1555 -23
-142 -23 -386 -1 -504 30 -159 88 -314 150 -401 l21 -29 -40 24 c-108 65 -151
98 -191 149 -82 104 -149 253 -179 397 -21 102 -22 359 -1 507 53 374 210 765
451 1127 111 166 196 271 335 414 284 292 605 485 900 541 99 19 253 13 348
-15z m277 -195 c106 -22 220 -82 298 -154 169 -159 242 -370 240 -696 -2 -305
-69 -600 -210 -925 -93 -213 -179 -361 -324 -555 -371 -496 -766 -772 -1198
-835 -138 -21 -309 15 -439 92 -76 44 -188 158 -235 238 -97 167 -133 343
-124 600 12 315 90 604 257 945 247 506 658 949 1075 1158 244 122 482 169
660 132z"/>
<path d="M2490 3775 c-557 -106 -1156 -705 -1431 -1432 -41 -107 -91 -287
-109 -389 -33 -191 -29 -464 10 -604 47 -169 157 -331 278 -409 346 -222 853
-53 1329 442 288 301 506 672 616 1052 62 214 72 286 72 525 0 204 -1 220 -28
315 -72 260 -203 409 -427 487 -73 26 -213 32 -310 13z m239 -80 c184 -44 340
-198 405 -400 106 -332 33 -814 -189 -1256 -341 -678 -976 -1163 -1443 -1101
-216 29 -373 167 -453 399 -28 83 -23 98 10 22 83 -195 224 -324 397 -365 82
-19 236 -14 328 11 217 58 454 206 680 425 324 313 551 727 648 1180 19 90 22
135 22 320 0 191 -2 224 -22 295 -74 270 -246 441 -476 475 -49 7 -50 8 -11 9
22 0 69 -6 104 -14z m-54 -39 c77 -20 115 -39 177 -87 230 -176 309 -532 217
-983 -63 -311 -244 -678 -473 -962 -201 -250 -508 -473 -776 -565 -87 -30
-105 -33 -220 -33 -107 0 -133 3 -182 22 -180 72 -306 224 -370 447 -20 70
-23 102 -23 255 0 143 5 194 23 276 99 454 328 870 662 1205 184 184 325 286
509 367 149 66 338 90 456 58z"/>
<path d="M2404 3506 c-32 -67 -38 -106 -14 -91 10 6 50 90 61 127 17 59 -13
36 -47 -36z"/>
<path d="M2592 3518 c-42 -65 -62 -118 -44 -118 11 0 49 56 81 119 37 71 10
71 -37 -1z"/>
<path d="M2214 3493 c-20 -48 -31 -143 -16 -128 14 13 52 121 52 147 0 30 -19
20 -36 -19z"/>
<path d="M2759 3458 c-20 -24 -45 -57 -56 -74 -37 -52 -43 -113 -7 -66 66 85
115 165 107 173 -6 6 -22 -6 -44 -33z"/>
<path d="M2017 3437 c-33 -24 -62 -188 -37 -213 6 -6 -7 -79 -36 -204 -61
-259 -65 -333 -28 -505 16 -71 27 -146 26 -165 -8 -136 -7 -133 -75 -247 -36
-61 -79 -138 -95 -170 -60 -118 -145 -424 -124 -445 10 -10 36 14 133 123 161
181 255 337 294 484 11 40 28 79 40 91 12 11 30 32 39 46 9 14 29 29 43 33 60
15 324 225 450 359 96 101 163 210 143 230 -22 22 -154 -50 -278 -153 -34 -29
-130 -104 -213 -167 -113 -86 -154 -112 -164 -104 -14 11 -13 31 11 231 13
114 13 134 -1 195 -24 104 -105 366 -121 391 -15 23 -17 90 -5 133 6 20 10 11
20 -47 7 -40 16 -73 21 -73 21 0 27 107 9 159 -12 33 -25 38 -52 18z m55 -477
c44 -158 44 -152 18 -395 -12 -115 -15 -125 -32 -125 -9 0 -20 39 -33 123 -22
133 -23 182 -10 360 6 86 5 117 -3 117 -7 0 -12 -5 -12 -12 0 -6 -3 -9 -6 -6
-5 6 10 75 23 108 5 12 7 11 10 -5 2 -11 23 -85 45 -165z m-96 -51 c-8 -46
-17 -105 -21 -130 -7 -57 19 -243 46 -323 18 -52 18 -61 6 -74 -13 -12 -18 -2
-37 79 -12 51 -26 133 -32 181 -11 89 -9 114 33 311 18 80 21 46 5 -44z m608
-287 c-49 -48 -138 -126 -198 -172 -191 -151 -206 -160 -206 -119 0 11 4 17
10 14 6 -4 22 0 35 9 41 27 286 221 365 290 41 36 77 65 80 65 3 0 -36 -39
-86 -87z m-464 -242 c48 -48 -5 -180 -71 -180 -22 0 -30 6 -35 25 -9 36 2 81
32 132 28 48 44 53 74 23z m-90 -230 c12 -7 11 -18 -9 -77 -30 -86 -80 -189
-121 -248 -42 -62 -131 -167 -136 -162 -13 13 222 497 241 497 5 0 17 -4 25
-10z"/>
<path d="M2845 3288 c-52 -58 -79 -104 -66 -112 9 -6 100 93 120 131 22 43 -8
32 -54 -19z"/>
<path d="M1807 3244 c-10 -10 -9 -43 4 -86 14 -53 29 -47 29 10 0 47 -19 90
-33 76z"/>
<path d="M2905 3026 c-36 -32 -47 -47 -39 -55 12 -13 96 45 114 79 20 37 -22
23 -75 -24z"/>
<path d="M1600 3031 c0 -11 12 -34 27 -51 22 -27 28 -29 35 -16 10 18 -5 53
-31 73 -23 18 -31 16 -31 -6z"/>
<path d="M2915 2855 c-70 -48 -95 -80 -95 -119 0 -58 18 -60 90 -10 102 70
101 70 98 117 -4 55 -26 58 -93 12z m12 -70 c-52 -48 -86 -61 -67 -25 13 24
79 70 100 70 9 -1 -5 -19 -33 -45z"/>
<path d="M1430 2807 c0 -21 22 -37 52 -37 32 0 35 10 10 33 -22 20 -62 22 -62
4z"/>
<path d="M1300 2580 c0 -19 19 -30 52 -30 33 0 17 33 -20 41 -26 5 -32 3 -32
-11z"/>
<path d="M2910 2558 c-53 -27 -67 -52 -23 -42 54 13 93 33 93 48 0 22 -18 20
-70 -6z"/>
<path d="M1235 2351 c-18 -4 -31 -13 -33 -25 -4 -16 0 -18 34 -11 44 8 54 13
54 25 0 12 -22 17 -55 11z"/>
<path d="M2855 2330 c-44 -6 -65 -16 -65 -31 0 -14 84 -11 106 5 27 21 7 34
-41 26z"/>
<path d="M1173 2119 c-39 -19 -59 -49 -33 -49 22 0 76 28 94 49 19 21 19 21 0
21 -10 0 -38 -9 -61 -21z"/>
<path d="M2710 2085 c0 -18 31 -35 64 -35 34 0 36 35 4 44 -40 10 -68 7 -68
-9z"/>
<path d="M1174 1962 c-92 -60 -130 -128 -89 -162 12 -10 24 -7 67 20 97 58
107 70 110 125 4 64 -10 67 -88 17z m56 -26 c0 -16 -48 -60 -91 -82 -51 -26
-35 10 24 55 57 44 67 48 67 27z"/>
<path d="M2582 1858 c4 -30 52 -58 70 -40 9 9 7 17 -12 37 -30 32 -63 34 -58
3z"/>
<path d="M1161 1654 c-46 -42 -65 -74 -42 -74 12 0 100 79 112 101 18 35 -16
21 -70 -27z"/>
<path d="M2419 1678 c-3 -36 5 -65 22 -83 19 -19 19 -19 19 18 0 41 -14 77
-30 77 -6 0 -10 -6 -11 -12z"/>
<path d="M2225 1529 c-10 -15 4 -117 17 -125 26 -16 36 49 17 105 -11 32 -23
39 -34 20z"/>
<path d="M1253 1507 c-30 -32 -83 -109 -83 -119 0 -33 73 39 109 109 15 30 -2
37 -26 10z"/>
<path d="M2073 1485 c-28 -18 -53 -44 -57 -57 -3 -13 -6 -60 -6 -105 0 -80 1
-83 23 -83 25 1 67 32 67 50 0 6 -8 9 -17 6 -10 -3 -24 -2 -31 3 -22 14 -9 43
28 64 59 33 67 58 15 50 -47 -8 -45 10 5 42 38 24 50 47 32 59 -5 3 -31 -10
-59 -29z"/>
<path d="M1347 1343 c-39 -59 -54 -99 -43 -111 9 -9 38 29 73 95 19 36 25 55
17 63 -7 7 -22 -8 -47 -47z"/>
<path d="M1491 1248 c-30 -59 -40 -108 -22 -108 8 0 52 92 65 137 15 48 -14
29 -43 -29z"/>
<path d="M1839 1283 c-17 -44 -24 -123 -11 -123 11 0 42 89 42 121 0 30 -20
32 -31 2z"/>
<path d="M1674 1255 c-24 -37 -46 -117 -34 -129 11 -11 48 66 57 120 7 40 0
43 -23 9z"/>
<path d="M674 4088 c12 -113 66 -209 66 -120 0 53 -28 137 -53 159 -20 18 -20
17 -13 -39z"/>
<path d="M913 3979 c10 -81 25 -119 49 -119 17 0 19 5 13 33 -16 78 -26 105
-46 123 l-22 19 6 -56z"/>
<path d="M770 3738 c0 -38 29 -100 49 -106 11 -4 13 4 7 38 -7 48 -32 100 -46
100 -6 0 -10 -15 -10 -32z"/>
<path d="M3130 1430 c0 -15 21 -29 83 -60 91 -44 107 -47 107 -26 0 18 -42 49
-112 81 -64 30 -78 31 -78 5z"/>
<path d="M2930 1287 c0 -20 28 -42 90 -71 53 -25 68 -22 56 9 -5 14 -116 75
-136 75 -5 0 -10 -6 -10 -13z"/>
<path d="M3470 1286 c0 -22 37 -44 109 -66 78 -25 81 -25 81 -1 0 21 -2 22
-104 57 -81 28 -86 29 -86 10z"/>
<path d="M5667 1214 c-70 -23 -100 -44 -84 -61 8 -8 132 24 169 43 30 15 33
37 7 41 -8 1 -49 -9 -92 -23z"/>
<path d="M3812 1174 c2 -14 23 -24 83 -41 101 -27 117 -28 113 -5 -3 19 -82
49 -155 59 -41 5 -45 4 -41 -13z"/>
<path d="M3242 1134 c2 -12 28 -31 67 -51 84 -41 111 -46 111 -22 0 18 -93 69
-153 85 -25 6 -28 4 -25 -12z"/>
<path d="M5325 1139 c-61 -14 -96 -30 -92 -43 9 -26 197 11 197 39 0 17 -41
19 -105 4z"/>
<path d="M4162 1103 c4 -20 58 -36 151 -46 45 -4 57 -3 57 8 0 22 -28 32 -113
44 -100 14 -99 14 -95 -6z"/>
<path d="M4892 1079 c-29 -9 -32 -12 -21 -26 11 -13 27 -14 93 -8 84 7 121 19
111 36 -8 12 -139 10 -183 -2z"/>
<path d="M4533 1073 c-28 -20 6 -35 88 -40 68 -5 87 -3 97 10 10 12 10 17 0
23 -18 11 -171 17 -185 7z"/>
<path d="M5896 1037 c-96 -36 -109 -83 -14 -52 75 25 108 43 108 60 0 20 -24
18 -94 -8z"/>
<path d="M3580 1006 c0 -15 75 -50 130 -61 19 -3 43 -9 53 -11 12 -4 17 0 17
14 0 21 -19 31 -109 56 -67 20 -91 20 -91 2z"/>
<path d="M5535 937 c-55 -15 -80 -27 -80 -37 0 -34 187 7 193 43 4 22 -12 21
-113 -6z"/>
<path d="M3940 909 c0 -14 15 -21 73 -33 97 -21 129 -23 134 -9 7 18 -28 32
-121 46 -81 13 -86 13 -86 -4z"/>
<path d="M5164 876 c-95 -15 -110 -22 -93 -42 8 -10 27 -12 73 -8 96 9 138 22
134 42 -4 22 -17 23 -114 8z"/>
<path d="M4310 852 c0 -24 20 -30 128 -38 78 -7 82 -6 82 14 0 18 -8 21 -57
27 -32 3 -79 8 -105 11 -42 4 -48 2 -48 -14z"/>
<path d="M4708 843 c-24 -6 -23 -20 3 -34 23 -12 165 -4 189 11 35 22 -124 41
-192 23z"/>
</g>
</svg>
