<?xml version="1.0" standalone="no"?>
<!DOCTYPE svg PUBLIC "-//W3C//DTD SVG 20010904//EN"
 "http://www.w3.org/TR/2001/REC-SVG-20010904/DTD/svg10.dtd">
<svg version="1.0" xmlns="http://www.w3.org/2000/svg"
 width="1024.000000pt" height="1024.000000pt" viewBox="0 0 1024.000000 1024.000000"
 preserveAspectRatio="xMidYMid meet">

<g transform="translate(0.000000,1024.000000) scale(0.100000,-0.100000)"
fill="#e0e0e0" stroke="none">
<path d="M7874 9565 c-162 -35 -256 -137 -285 -307 l-11 -68 -148 0 -148 0 -7
-40 -7 -40 -378 0 c-207 0 -391 -3 -408 -6 -26 -5 -31 -11 -35 -48 -3 -22 -7
-921 -9 -1996 -3 -1868 -2 -1956 15 -1981 10 -15 30 -32 45 -38 33 -14 2955
-21 2969 -8 4 5 9 466 11 1025 l2 1016 134 135 c101 103 137 147 151 183 53
140 -60 302 -218 313 l-52 3 -5 687 c-4 595 -7 687 -20 695 -9 6 -183 10 -423
10 -318 0 -408 3 -411 13 -2 6 -7 26 -12 42 l-9 30 -151 3 -151 3 -6 59 c-10
116 -88 230 -194 284 -44 22 -70 29 -153 41 -14 2 -53 -2 -86 -10z m166 -57
c115 -35 220 -171 220 -283 0 -35 0 -35 -45 -35 -31 0 -45 4 -45 13 0 7 -7 37
-16 66 -33 112 -130 173 -244 151 -103 -20 -156 -76 -175 -189 -7 -41 -7 -41
-51 -41 l-44 0 0 38 c0 202 199 340 400 280z m-50 -139 c69 -16 110 -62 124
-142 l7 -38 -160 3 c-105 2 -164 7 -172 15 -28 28 26 118 91 151 50 25 50 25
110 11z m576 -242 c11 -11 12 -433 1 -443 -11 -11 -1223 -11 -1234 -1 -9 9
-13 344 -5 415 l4 43 613 -3 c338 -2 617 -7 621 -11z m-1528 -74 l232 -6 0
-94 0 -93 -264 0 c-233 0 -265 -2 -277 -17 -12 -13 -14 -318 -17 -1883 l-3
-1868 -63 -7 c-72 -7 -141 7 -150 31 -8 22 -8 3929 1 3937 8 9 242 9 541 0z
m2394 -686 l0 -679 -34 -28 c-19 -16 -61 -61 -94 -101 l-59 -72 -7 54 c-4 30
-7 307 -5 617 2 548 1 564 -17 578 -11 8 -36 14 -57 14 l-36 0 -5 50 c-3 28
-8 54 -12 58 -4 4 -113 8 -242 10 l-234 3 0 84 0 85 173 3 c94 1 275 3 400 2
l229 0 0 -678z m-372 -356 l0 -810 -52 -63 c-29 -35 -95 -113 -148 -173 -52
-61 -105 -124 -117 -140 l-21 -30 -489 -5 c-268 -3 -494 -9 -500 -13 -7 -5
-13 -17 -13 -27 0 -10 6 -22 13 -27 6 -4 213 -10 458 -13 l447 -5 -48 -54 -48
-55 -42 13 c-32 9 -125 11 -396 5 -374 -7 -402 -11 -378 -51 10 -17 38 -18
382 -23 204 -3 373 -8 377 -12 3 -3 -6 -29 -20 -58 -14 -29 -33 -86 -41 -128
-9 -50 -24 -90 -42 -115 -15 -21 -31 -45 -37 -53 -7 -9 -6 -20 1 -31 15 -24
169 -35 350 -27 146 7 169 13 142 41 -16 15 -39 17 -218 14 -110 -1 -200 0
-200 3 0 3 7 23 16 45 14 36 19 40 42 35 53 -11 222 74 222 110 0 8 -16 33
-35 56 -53 63 -42 62 21 -2 31 -32 65 -58 76 -58 11 0 74 57 158 143 l139 142
1 -648 0 -649 -1140 4 c-742 2 -1142 6 -1148 13 -6 6 -8 670 -4 1728 l5 1717
247 0 247 0 7 -46 c3 -26 6 -66 6 -90 0 -41 2 -43 33 -49 17 -4 314 -5 659 -3
498 2 630 6 640 16 8 8 14 46 17 97 l3 85 214 0 214 0 0 -809z m122 77 c3
-769 7 -694 -31 -732 l-31 -31 0 683 0 682 30 0 30 0 2 -602z m421 -452 c42
-17 93 -76 107 -123 14 -45 10 -105 -6 -110 -13 -4 -255 194 -261 214 -10 28
105 42 160 19z m-134 -120 c36 -30 96 -82 133 -114 l67 -60 -23 -21 c-12 -12
-26 -21 -31 -21 -14 0 -257 204 -264 222 -4 11 28 48 42 48 5 0 40 -24 76 -54z
m-44 -137 c39 -34 87 -77 109 -96 l38 -35 -48 -49 c-47 -48 -48 -48 -73 -32
-42 26 -231 187 -231 195 0 4 19 32 42 62 l42 54 26 -18 c14 -10 57 -46 95
-81z m-156 -138 l24 -19 -328 -346 c-180 -190 -330 -346 -332 -346 -11 0 -43
22 -43 30 0 4 91 113 203 242 263 302 301 349 355 430 l45 68 26 -20 c14 -11
37 -28 50 -39z m129 -110 l31 -24 -102 -101 c-57 -56 -206 -208 -331 -338
-125 -131 -231 -238 -235 -238 -3 0 -23 14 -44 31 l-38 31 37 41 c19 23 167
177 327 343 241 249 295 299 307 290 9 -6 30 -22 48 -35z m19 -2037 c-1 -2
-600 -6 -1330 -10 l-1327 -7 0 46 0 47 588 3 c323 1 874 2 1224 2 509 0 639 3
650 13 10 10 13 173 15 829 l2 817 88 88 88 88 3 -956 c1 -527 1 -959 -1 -960z
m-237 906 l0 -770 -1210 0 -1210 0 0 35 0 35 1169 2 c643 2 1173 7 1178 11 4
5 8 321 8 702 l0 694 29 30 c17 17 31 31 33 31 2 0 3 -346 3 -770z m-530 370
c0 -12 -112 -60 -140 -60 -28 0 -30 3 -30 36 0 20 12 64 27 97 l27 60 58 -64
c32 -35 58 -66 58 -69z"/>
<path d="M6973 8358 c-13 -21 -7 -548 7 -562 14 -14 555 -16 568 -1 5 6 12
134 16 286 l6 276 -82 6 c-154 12 -506 8 -515 -5z m537 -283 l0 -235 -245 0
-245 0 0 146 c0 172 -4 172 100 18 39 -57 75 -104 79 -104 5 0 50 46 101 103
51 56 113 120 138 143 51 46 52 66 7 119 l-25 30 -124 -127 c-69 -71 -127
-128 -129 -128 -3 0 -27 29 -53 65 -27 37 -59 68 -71 71 -21 6 -23 12 -23 70
l0 64 245 0 245 0 0 -235z"/>
<path d="M7750 8342 c-18 -6 -25 -15 -25 -32 0 -21 6 -26 40 -32 70 -12 350
-9 363 4 18 18 14 36 -10 50 -26 14 -327 22 -368 10z"/>
<path d="M7765 8171 c-34 -5 -40 -10 -43 -32 -3 -23 1 -27 35 -32 67 -12 1062
-8 1084 3 10 6 19 19 19 30 0 11 -9 24 -19 30 -21 11 -1003 12 -1076 1z"/>
<path d="M7736 7977 c-27 -20 -16 -51 19 -58 55 -12 690 -10 724 2 43 15 40
51 -4 60 -16 4 -186 7 -376 8 -271 1 -349 -2 -363 -12z"/>
<path d="M7035 7682 l-60 -7 -6 -50 c-4 -28 -5 -151 -4 -274 1 -179 5 -225 16
-232 8 -5 139 -9 291 -9 254 0 278 1 286 18 10 21 6 532 -5 543 -11 11 -440
19 -518 11z m475 -287 l0 -235 -245 0 -245 0 0 145 c0 80 2 145 5 145 3 0 39
-51 80 -114 40 -63 78 -117 84 -120 11 -7 51 31 198 191 l102 111 -30 41 c-24
34 -33 40 -48 32 -10 -6 -69 -63 -131 -128 l-113 -118 -21 29 c-67 93 -84 111
-104 114 -20 3 -22 9 -22 73 l0 69 245 0 245 0 0 -235z"/>
<path d="M7770 7632 c-39 -6 -45 -10 -45 -31 0 -36 37 -42 231 -39 154 3 168
5 180 23 26 40 7 46 -162 50 -87 2 -179 0 -204 -3z"/>
<path d="M8235 7470 l-510 -5 0 -30 0 -30 554 -3 c573 -2 581 -2 581 38 0 36
-14 37 -625 30z"/>
<path d="M7732 7281 c-8 -4 -12 -19 -10 -32 l3 -24 384 0 c347 0 385 2 394 17
8 12 7 21 -2 32 -12 14 -58 16 -385 16 -204 0 -377 -4 -384 -9z"/>
<path d="M6972 6983 c-3 -10 -7 -136 -7 -280 0 -202 3 -265 13 -275 10 -10 77
-13 295 -13 l282 0 8 184 c5 100 5 231 0 290 l-8 106 -288 3 c-267 2 -288 1
-295 -15z m538 -283 l0 -240 -245 0 -245 0 0 152 c0 83 2 149 4 147 2 -2 36
-52 75 -111 39 -59 75 -109 81 -113 8 -5 141 126 259 257 l43 47 -21 35 c-36
58 -48 63 -73 30 -12 -16 -69 -77 -126 -136 l-105 -107 -30 47 c-40 64 -67 92
-89 92 -16 0 -18 9 -18 70 l0 70 245 0 245 0 0 -240z"/>
<path d="M7862 6951 c-102 -5 -135 -9 -142 -21 -16 -24 22 -47 90 -55 90 -10
308 4 326 22 18 18 18 27 -1 43 -19 16 -103 19 -273 11z"/>
<path d="M6968 6261 c-15 -40 -6 -507 10 -523 10 -10 74 -13 289 -11 151 1
279 5 284 10 11 11 15 521 3 533 -5 5 -137 10 -293 12 l-283 3 -10 -24z m442
-41 c0 -13 -104 -131 -180 -205 l-62 -60 -16 23 c-68 100 -90 128 -110 137
-19 8 -22 18 -22 62 l0 53 195 0 c120 0 195 -4 195 -10z m100 -215 l0 -225
-245 0 -245 0 0 148 0 147 80 -120 c44 -66 85 -122 91 -124 14 -4 74 54 200
193 l99 109 -35 48 -35 49 45 0 45 0 0 -225z"/>
<path d="M7727 6175 c-19 -19 -20 -24 -7 -45 7 -12 45 -14 211 -15 181 0 203
2 213 17 8 14 7 22 -7 35 -15 16 -42 18 -206 22 -165 3 -189 1 -204 -14z"/>
<path d="M7755 6011 c-25 -5 -30 -11 -30 -36 l0 -30 160 -6 c217 -8 838 -9
900 -1 47 7 50 9 50 37 l0 30 -90 6 c-117 9 -951 9 -990 0z"/>
<path d="M7752 5830 c-28 -12 -38 -36 -22 -55 11 -13 63 -15 347 -15 211 0
341 4 354 10 10 6 19 21 19 34 0 21 -6 24 -61 30 -93 9 -611 6 -637 -4z"/>
<path d="M2375 9450 c-217 -22 -407 -76 -600 -169 -260 -125 -472 -289 -650
-502 -616 -737 -585 -1839 70 -2528 574 -603 1432 -778 2156 -439 314 148 603
403 792 701 134 210 247 522 272 752 11 99 12 101 43 72 39 -36 179 -137 190
-137 14 0 66 62 98 115 22 38 31 45 48 40 12 -3 58 -16 102 -27 l81 -22 6 -97
c3 -54 8 -103 12 -110 17 -26 296 11 316 42 10 15 6 57 -14 148 -9 46 -9 55 3
59 8 3 51 24 95 47 l81 42 39 -35 c69 -59 123 -92 140 -86 31 12 200 247 192
268 -3 7 -42 32 -86 55 -45 23 -81 45 -81 48 0 4 11 34 25 69 14 34 28 86 33
116 l7 53 55 8 c30 4 73 11 95 15 l40 7 0 105 c-1 111 -18 205 -39 213 -7 3
-49 -1 -92 -9 -98 -17 -104 -17 -104 -1 0 7 -23 52 -50 101 l-51 87 66 72 c35
40 65 77 65 84 0 15 -114 117 -187 166 -54 36 -57 37 -75 20 -14 -13 -88 -111
-113 -150 -1 -2 -26 7 -56 18 -30 12 -81 27 -114 33 l-59 13 -13 104 c-8 57
-18 108 -23 113 -11 11 -182 -7 -252 -27 -39 -12 -43 -16 -46 -47 -1 -19 3
-67 11 -107 l14 -72 -42 -16 c-23 -8 -72 -35 -108 -60 l-65 -44 -74 59 c-40
33 -81 60 -90 60 -19 0 -133 -139 -165 -201 -28 -56 -20 -69 68 -117 79 -42
77 -34 35 -147 -14 -38 -26 -84 -26 -102 0 -89 -33 -84 -60 10 -79 271 -170
455 -325 652 -71 90 -229 247 -322 318 -218 167 -524 302 -788 347 -139 24
-350 33 -480 20z m413 -65 c660 -99 1203 -549 1406 -1166 61 -187 62 -189 32
-189 -13 0 -38 -3 -56 -7 l-33 -6 7 -73 c8 -95 34 -210 51 -228 12 -11 25 -12
82 -1 37 7 69 12 71 10 6 -5 20 -115 27 -205 8 -110 -7 -278 -36 -400 -77
-334 -237 -624 -483 -878 -114 -118 -288 -258 -306 -247 -5 3 -10 19 -10 35 0
36 -42 263 -80 437 -53 238 -125 428 -181 479 -13 12 -69 44 -124 71 -87 43
-505 291 -528 313 -5 4 13 13 39 19 77 20 145 60 209 125 129 129 175 297 175
641 0 147 -13 390 -25 457 -4 24 2 32 48 61 75 48 144 129 162 190 19 64 19
97 -1 185 -16 71 -44 115 -67 107 -6 -3 -27 -35 -46 -71 -40 -76 -136 -186
-127 -144 15 67 27 195 22 225 -11 56 -30 63 -76 26 -73 -58 -100 -62 -253
-30 -130 27 -311 23 -427 -11 -246 -70 -431 -239 -484 -442 -33 -129 -29 -343
10 -493 9 -33 20 -103 24 -155 9 -114 32 -167 90 -209 22 -16 63 -34 90 -41
56 -14 59 -19 81 -160 14 -94 7 -277 -12 -295 -21 -19 -632 -332 -694 -356
-75 -28 -107 -57 -138 -127 -48 -107 -61 -176 -62 -323 l0 -135 -36 45 c-74
93 -153 219 -209 336 -99 205 -145 373 -176 640 -15 130 -16 168 -6 294 21
244 73 441 178 659 162 340 423 625 756 822 165 99 411 185 613 215 124 18
383 18 503 0z m-128 -316 c62 -11 138 -19 168 -17 l54 3 -53 -48 c-195 -174
-375 -266 -525 -267 -17 0 -46 -3 -64 -6 -27 -6 -31 -10 -27 -32 3 -15 -9 -55
-33 -106 -45 -98 -94 -231 -125 -341 l-22 -80 -54 3 c-44 3 -61 -1 -91 -22
l-37 -25 -11 55 c-34 161 -39 324 -15 439 50 236 247 400 539 449 115 20 166
19 296 -5z m290 -132 c-27 -126 -24 -122 -98 -152 -47 -20 -91 -29 -147 -33
-126 -7 -131 -3 -50 49 103 67 215 160 260 217 l40 49 3 -39 c2 -22 -2 -63 -8
-91z m239 -26 c3 -172 -195 -301 -463 -301 -93 0 -197 17 -308 51 l-73 22 75
15 c61 13 87 13 142 4 93 -16 159 -15 231 4 143 37 272 130 345 248 34 54 37
57 43 35 4 -13 7 -48 8 -78z m1865 -48 c5 -16 26 -175 26 -194 0 -4 24 -10 53
-14 28 -4 90 -22 137 -41 46 -19 90 -34 97 -34 8 0 38 39 69 86 l55 86 42 -34
c23 -19 61 -49 85 -68 23 -18 42 -37 42 -41 0 -4 -24 -34 -53 -66 -87 -96 -84
-82 -31 -160 26 -37 60 -96 75 -130 15 -35 32 -63 36 -63 4 0 45 8 90 17 45 9
85 14 89 10 8 -8 32 -208 27 -219 -2 -5 -46 -8 -97 -8 l-93 0 -7 -60 c-7 -61
-41 -172 -70 -228 -21 -42 -20 -59 5 -67 12 -4 50 -20 85 -37 57 -27 63 -32
53 -49 -20 -38 -122 -179 -129 -179 -4 0 -39 29 -78 65 -38 36 -75 65 -80 65
-6 0 -43 -20 -83 -45 -40 -24 -94 -52 -121 -61 -55 -18 -55 -16 -28 -134 12
-54 15 -87 9 -91 -18 -10 -209 -33 -217 -25 -4 4 -9 52 -10 107 -4 92 -5 99
-25 103 -98 19 -140 30 -191 51 -33 13 -61 23 -61 22 -1 -1 -25 -37 -54 -79
-28 -43 -56 -78 -62 -78 -12 0 -159 110 -159 119 0 3 29 40 64 81 l64 75 -47
51 c-25 28 -64 83 -86 122 -22 40 -47 71 -55 71 -8 0 -54 -8 -102 -18 -80 -17
-88 -17 -92 -2 -13 44 -37 194 -32 199 4 3 48 8 99 10 52 3 95 9 99 16 4 6 8
29 8 52 0 52 33 181 59 233 12 22 21 45 21 50 0 6 -38 31 -85 57 l-85 48 17
25 c42 65 117 150 127 144 6 -4 38 -31 72 -60 34 -29 66 -53 73 -53 6 0 32 16
58 37 27 20 85 54 131 75 93 44 89 35 68 161 -7 43 -9 80 -4 83 10 6 143 31
175 33 13 1 24 -6 27 -16z m-2532 -289 c93 -21 260 -23 361 -5 42 8 79 12 82
10 14 -15 28 -228 29 -434 0 -282 -15 -388 -69 -502 -68 -146 -191 -235 -323
-236 -55 -1 -78 5 -132 31 -87 41 -195 135 -304 264 -89 105 -90 106 -148 118
-94 18 -147 77 -151 168 -2 60 18 109 54 127 36 19 58 19 105 -1 35 -15 39
-15 50 1 7 9 16 36 19 58 12 68 94 315 135 403 l38 82 91 -34 c49 -19 123 -41
163 -50z m1969 -977 l39 -59 -29 -36 c-16 -21 -38 -45 -48 -55 -20 -17 -20
-16 -26 65 -3 46 -9 112 -12 148 l-7 65 22 -35 c13 -19 40 -61 61 -93z m-2199
-104 c40 -34 106 -81 148 -104 82 -46 130 -77 173 -113 23 -18 27 -28 21 -50
-9 -39 -79 -142 -108 -161 -25 -16 -28 -16 -93 21 -91 50 -144 86 -233 158
l-75 60 0 181 0 181 47 -56 c26 -30 80 -83 120 -117z m-104 -311 c54 -42 118
-91 145 -107 32 -20 45 -35 41 -45 -15 -41 -179 -281 -183 -269 -11 35 -121
341 -144 402 l-26 67 32 14 c18 8 34 15 35 15 2 1 47 -34 100 -77z m546 -14
c26 -46 140 -328 134 -334 -2 -1 -42 32 -89 74 -66 61 -149 129 -177 148 -2 1
12 22 30 46 19 25 40 59 47 76 7 18 17 32 22 32 4 0 19 -19 33 -42z m-717 -88
c22 -58 61 -172 88 -253 27 -82 55 -156 64 -164 14 -14 18 -12 44 18 15 19 71
99 124 179 53 80 98 147 100 149 1 2 14 -1 27 -7 61 -27 197 -531 292 -1079
19 -113 33 -208 30 -211 -13 -13 -191 -19 -319 -11 -130 8 -273 34 -427 77
l-65 19 -6 79 c-3 43 -12 106 -18 139 -16 79 -94 343 -126 430 -74 198 -181
361 -292 446 l-62 48 47 27 c100 60 447 232 453 226 4 -4 24 -54 46 -112z
m938 -16 c71 -41 150 -87 177 -100 26 -13 48 -26 48 -28 0 -2 20 -120 45 -262
40 -228 105 -645 118 -761 l5 -41 -67 -30 c-122 -57 -409 -138 -426 -121 -3 3
-21 98 -41 210 -84 488 -161 799 -259 1052 -10 25 15 22 53 -6 17 -13 82 -68
143 -123 135 -120 174 -148 189 -139 27 17 -5 121 -127 413 -9 22 11 13 142
-64z m-1507 -183 c174 -89 323 -375 428 -821 40 -170 43 -220 15 -220 -26 0
-232 106 -322 165 -87 59 -224 172 -294 244 l-50 52 0 177 c1 223 20 307 91
391 31 37 75 41 132 12z m1885 -173 c20 -58 47 -150 61 -205 49 -194 104 -519
93 -548 -4 -8 -24 -23 -46 -34 l-39 -20 -7 52 c-24 192 -81 561 -110 719 -19
103 -35 197 -35 210 1 36 41 -48 83 -174z"/>
<path d="M4925 8413 c-121 -44 -205 -119 -258 -231 -24 -52 -32 -83 -35 -147
-7 -138 33 -240 133 -334 168 -159 422 -155 586 8 208 209 149 551 -118 683
-59 29 -78 33 -162 35 -73 3 -108 -1 -146 -14z m277 -65 c154 -71 247 -239
219 -394 -32 -169 -145 -284 -309 -314 -214 -38 -416 124 -430 346 -11 167 99
328 258 379 70 23 192 15 262 -17z"/>
<path d="M2786 8384 c-36 -20 -24 -34 35 -41 24 -2 54 -9 67 -16 16 -8 25 -8
34 1 17 17 -15 58 -53 66 -43 8 -50 8 -83 -10z"/>
<path d="M2368 8368 c-38 -22 -55 -49 -43 -68 4 -7 23 -2 51 15 37 22 51 25
93 19 58 -8 77 9 41 38 -31 25 -96 23 -142 -4z"/>
<path d="M2402 8200 c-39 -63 30 -138 72 -78 21 30 20 54 -4 78 -25 25 -52 26
-68 0z"/>
<path d="M2809 8196 c-16 -35 -4 -74 26 -82 30 -7 43 1 56 33 22 57 -57 104
-82 49z"/>
<path d="M2630 8183 c0 -14 18 -74 40 -134 22 -60 40 -113 40 -119 0 -5 -14
-10 -31 -10 -55 0 -94 -38 -53 -54 24 -9 124 5 139 21 12 11 12 21 -1 62 -18
62 -57 165 -79 213 -22 45 -55 58 -55 21z"/>
<path d="M2705 7718 c-12 -8 -55 -12 -107 -11 -82 2 -88 1 -88 -18 0 -44 129
-66 202 -36 34 14 58 42 58 66 0 15 -40 13 -65 -1z"/>
<path d="M2459 6561 c-17 -13 -23 -29 -23 -56 0 -95 132 -102 150 -8 13 65
-73 108 -127 64z"/>
<path d="M2529 6209 c-37 -14 -55 -60 -39 -98 22 -54 103 -61 129 -12 36 66
-22 135 -90 110z"/>
<path d="M2552 5837 c-13 -14 -22 -36 -22 -54 0 -64 93 -98 138 -50 31 33 28
70 -9 101 -38 32 -79 33 -107 3z m62 -33 c20 -8 21 -44 2 -44 -18 0 -39 27
-31 40 7 12 8 12 29 4z"/>
<path d="M5870 6580 c-77 -58 -97 -64 -178 -51 -61 10 -102 6 -102 -10 0 -5
30 -40 66 -78 l65 -70 -15 -90 c-15 -87 -14 -121 5 -121 5 0 26 15 46 34 21
18 55 45 77 60 37 25 42 26 136 20 69 -5 99 -3 104 5 4 7 -17 38 -53 78 l-61
66 3 101 c3 122 -2 125 -93 56z m77 -213 l36 -49 -40 7 c-48 8 -116 -8 -156
-37 l-29 -21 2 54 c3 75 4 74 -31 114 l-31 35 43 0 c47 0 116 29 145 61 19 21
19 21 22 -47 3 -60 7 -73 39 -117z"/>
<path d="M5108 6173 c-50 -8 -53 -22 -50 -203 l2 -167 -67 -18 c-81 -21 -206
-69 -248 -95 l-30 -18 -110 100 c-60 55 -118 104 -128 109 -14 8 -28 2 -66
-30 -56 -47 -183 -179 -206 -215 -16 -24 -16 -28 -1 -51 9 -14 58 -69 110
-122 l93 -98 -30 -45 c-58 -89 -106 -205 -131 -322 l-6 -28 -139 0 c-76 0
-153 -3 -171 -6 l-32 -7 4 -194 c3 -157 7 -196 18 -203 8 -6 83 -10 166 -10
l152 0 7 -27 c16 -67 89 -236 125 -292 22 -34 40 -64 40 -67 0 -3 -50 -58
-111 -122 -61 -65 -115 -125 -120 -134 -7 -14 14 -41 113 -143 67 -69 130
-131 140 -136 24 -13 46 3 190 139 l106 99 86 -43 c47 -24 127 -55 177 -70
l92 -28 -7 -176 c-7 -161 -6 -179 10 -194 15 -16 37 -17 210 -14 140 2 197 7
206 16 13 13 14 100 2 278 l-6 91 35 7 c57 11 156 45 240 84 l78 35 92 -89
c129 -125 172 -158 194 -145 29 16 263 257 263 271 0 7 -52 66 -115 130 -63
64 -115 121 -115 127 0 5 22 52 49 104 27 52 61 133 76 180 l26 86 154 6 c84
3 162 10 173 16 11 6 22 23 26 38 11 49 18 327 8 342 -7 9 -50 16 -138 23 -71
5 -152 11 -180 14 l-51 5 -17 73 c-18 79 -59 172 -108 248 l-30 48 102 109
c101 108 150 168 150 183 0 18 -295 271 -310 266 -5 -2 -64 -55 -132 -119
l-124 -116 -66 33 c-36 18 -113 49 -170 69 l-105 36 -7 180 c-4 99 -9 186 -13
194 -4 13 -34 15 -177 14 -94 -1 -183 -4 -198 -6z m332 -110 c0 -38 3 -124 6
-193 l7 -126 86 -22 c48 -12 138 -48 205 -81 l118 -59 115 119 c64 66 120 119
125 119 4 0 60 -45 123 -101 l115 -101 -42 -51 c-24 -28 -80 -90 -125 -138
-46 -48 -83 -90 -83 -93 0 -4 18 -34 41 -67 56 -83 86 -151 113 -260 17 -68
29 -94 42 -99 11 -4 78 -10 149 -14 72 -3 147 -9 168 -13 l39 -6 -7 -141 c-4
-78 -9 -144 -11 -147 -2 -4 -78 -10 -168 -14 -90 -4 -168 -10 -173 -14 -5 -3
-18 -37 -27 -76 -20 -82 -78 -209 -129 -285 l-36 -53 119 -124 c66 -68 120
-129 120 -135 0 -16 -193 -208 -208 -208 -7 0 -70 56 -140 124 l-128 125 -69
-40 c-89 -49 -159 -76 -260 -99 -44 -9 -79 -21 -79 -26 1 -5 5 -89 9 -186 l7
-178 -171 0 -172 0 5 78 c3 42 8 125 11 184 l6 107 -28 7 c-142 31 -234 66
-345 130 l-47 27 -136 -128 -136 -129 -105 105 c-57 57 -104 106 -104 109 0 4
46 55 101 116 56 60 111 119 122 131 l20 22 -51 84 c-65 106 -100 182 -127
277 l-22 75 -160 3 -160 2 -7 38 c-3 20 -6 89 -6 153 l0 116 161 6 c89 3 163
8 165 10 3 3 16 47 30 98 30 114 69 200 129 286 l45 64 -117 120 -117 119 99
103 c55 56 103 106 106 111 4 5 64 -44 134 -109 91 -85 129 -114 138 -107 18
15 152 81 200 98 23 9 74 21 112 28 l70 12 3 187 2 186 88 4 c48 1 122 4 165
5 l77 2 0 -67z"/>
<path d="M5171 5560 c-211 -44 -422 -171 -536 -322 -60 -79 -120 -204 -141
-294 -20 -89 -20 -259 1 -349 21 -93 92 -236 152 -307 136 -163 335 -259 571
-277 236 -18 449 39 612 164 249 192 338 571 205 878 -54 126 -95 186 -190
283 -160 161 -301 225 -510 230 -66 2 -140 -1 -164 -6z m329 -70 c176 -59 309
-162 410 -316 191 -292 165 -672 -62 -904 -100 -103 -90 -102 -220 -30 -62 34
-119 69 -125 78 -7 9 -13 30 -13 47 0 25 6 34 33 47 51 24 130 102 160 155 40
74 57 154 64 295 6 119 7 127 27 130 20 3 21 9 21 103 0 202 -79 296 -305 366
-97 30 -259 34 -287 7 -16 -17 -16 -19 6 -42 20 -21 170 -106 449 -252 74 -39
92 -53 90 -69 -4 -28 -54 -23 -186 21 -181 59 -270 121 -375 259 -31 41 -62
71 -74 73 -33 5 -97 -33 -138 -80 -46 -55 -90 -147 -110 -231 -17 -73 -34
-260 -35 -382 -2 -122 -25 -197 -99 -308 -49 -73 -67 -94 -77 -86 -7 5 -31 47
-53 92 -132 270 -75 595 143 813 118 117 285 204 446 233 85 15 235 6 310 -19z
m-102 -46 c98 -20 186 -62 248 -118 45 -40 105 -126 88 -126 -4 0 -64 31 -133
69 -69 38 -177 94 -238 125 -62 31 -113 58 -113 61 0 10 73 5 148 -11z m-281
-56 c6 -7 18 -37 28 -67 35 -107 1 -225 -93 -331 l-49 -54 -51 33 c-59 37 -59
40 -36 144 22 99 66 187 120 241 47 48 65 55 81 34z m156 -182 c87 -70 225
-133 352 -160 l60 -13 3 -131 c4 -204 -26 -303 -119 -386 -120 -109 -269 -102
-397 18 -61 57 -97 122 -122 222 -29 112 -28 117 38 189 67 74 109 153 125
236 6 32 12 59 15 59 2 0 22 -15 45 -34z m-327 -318 c10 -16 18 -32 17 -37 -1
-4 -11 -73 -22 -155 -22 -155 -36 -197 -95 -279 -20 -27 -45 -75 -57 -108 -12
-32 -25 -59 -30 -59 -15 0 -58 53 -52 64 4 6 35 57 70 113 35 56 70 121 79
145 17 48 33 196 34 301 0 63 1 66 18 56 10 -7 27 -25 38 -41z m88 -313 c-1
-63 -15 -99 -94 -235 -21 -36 -44 -85 -51 -110 -16 -59 -20 -62 -48 -41 l-24
18 22 66 c12 36 37 85 55 109 62 81 86 143 101 263 l7 50 16 -30 c10 -19 16
-53 16 -90z m86 -130 c0 -107 -4 -114 -88 -173 -43 -28 -79 -47 -80 -42 -2 6
18 50 45 98 45 80 72 137 87 186 5 15 9 16 21 6 10 -9 15 -32 15 -75z m125
-21 c45 -25 82 -37 127 -42 l63 -7 7 -55 c3 -30 4 -58 1 -62 -13 -22 -111 -68
-144 -68 -32 0 -119 45 -134 70 -6 9 6 200 12 200 3 0 33 -16 68 -36z m-54
-269 c-8 -5 -30 -24 -47 -42 l-32 -32 -56 14 c-31 8 -73 22 -93 30 l-36 15 84
58 84 58 56 -46 c48 -38 54 -47 40 -55z m422 33 c76 -41 77 -42 54 -55 -13 -7
-59 -24 -101 -38 l-76 -26 -55 38 c-30 21 -54 41 -55 45 0 3 19 18 43 31 24
14 50 33 57 42 17 21 37 16 133 -37z m-219 -107 c19 -21 19 -21 -10 -21 -55 0
-74 10 -74 39 0 15 3 31 6 34 8 7 50 -21 78 -52z m-109 16 c0 -15 -3 -27 -7
-27 -5 0 -28 0 -53 0 -55 0 -57 13 -7 39 48 26 67 23 67 -12z"/>
<path d="M5510 5005 c-38 -20 -26 -30 38 -30 31 0 65 -4 75 -9 24 -11 22 9 -3
34 -23 23 -73 26 -110 5z"/>
<path d="M5183 5003 c-7 -2 -13 -16 -13 -29 0 -17 6 -24 19 -24 11 0 23 5 26
11 4 6 22 8 46 4 44 -8 51 5 17 29 -22 15 -69 20 -95 9z"/>
<path d="M5525 4881 c-20 -23 -17 -60 8 -75 15 -9 21 -7 33 8 34 46 -4 107
-41 67z"/>
<path d="M5206 4874 c-12 -31 -6 -54 20 -71 25 -16 27 -16 40 2 8 10 14 27 14
36 0 39 -61 67 -74 33z"/>
<path d="M5360 4748 c-12 -25 -11 -30 5 -48 20 -22 55 -26 86 -10 31 17 23 33
-13 26 -40 -7 -55 1 -60 34 l-4 25 -14 -27z"/>
<path d="M5310 4624 c-18 -21 -5 -43 35 -59 41 -18 81 -19 124 -4 27 10 51 34
51 53 0 10 -37 7 -84 -6 -39 -10 -47 -9 -79 10 -30 17 -37 18 -47 6z"/>
<path d="M1570 5305 c-5 -13 -17 -50 -26 -82 -45 -156 -90 -200 -276 -267 -27
-10 -48 -22 -48 -27 0 -14 39 -35 127 -69 59 -22 91 -41 114 -67 33 -38 99
-166 99 -193 0 -18 27 -60 40 -60 4 0 18 30 31 68 56 170 98 212 269 271 99
34 98 48 -5 82 -107 35 -137 51 -179 100 -37 44 -50 74 -86 197 -22 76 -43 93
-60 47z m63 -210 c43 -83 89 -126 164 -155 l47 -18 -52 -26 c-71 -36 -128 -89
-164 -153 -17 -29 -33 -53 -36 -53 -4 0 -23 28 -42 61 -41 72 -95 124 -158
151 l-45 20 64 34 c76 40 120 87 150 160 13 30 25 54 28 54 3 0 23 -34 44 -75z"/>
<path d="M3394 4758 c-49 -21 -150 -64 -224 -95 -74 -30 -427 -180 -785 -333
-357 -153 -796 -340 -975 -415 -179 -75 -355 -151 -393 -167 l-67 -31 6 -36
c3 -20 35 -166 70 -326 34 -159 131 -603 213 -985 169 -780 219 -1003 232
-1037 6 -16 29 -33 66 -50 66 -29 809 -329 1233 -497 157 -62 308 -122 335
-133 l50 -20 721 326 c397 179 840 379 985 444 145 65 325 149 399 185 l135
67 3 81 3 82 -128 52 c-249 102 -1139 481 -1225 522 l-86 41 -10 56 c-63 346
-193 1045 -237 1271 -31 157 -80 416 -110 575 -30 160 -63 326 -75 369 -11 44
-20 80 -20 82 0 15 -43 5 -116 -28z m87 -70 c6 -24 28 -135 49 -248 21 -113
75 -392 119 -620 85 -439 251 -1343 251 -1367 0 -16 -11 -21 -315 -145 -121
-50 -617 -254 -1102 -454 -485 -200 -886 -364 -891 -364 -4 0 -97 413 -206
918 -109 504 -216 996 -237 1092 -22 96 -42 187 -45 201 -7 30 -50 9 571 268
160 66 625 264 1035 440 410 176 748 320 752 321 4 0 12 -19 19 -42z m-2417
-1063 c18 -71 281 -1270 394 -1795 62 -290 77 -371 69 -393 -5 -17 -13 -25
-18 -20 -5 5 -88 371 -184 814 -97 442 -208 949 -247 1126 -61 274 -69 324
-58 338 17 20 23 11 44 -70z m2926 -1273 c41 -16 212 -87 380 -159 168 -72
442 -188 610 -258 168 -70 309 -131 313 -135 4 -4 -47 -32 -115 -62 -654 -296
-1406 -635 -1593 -720 -126 -58 -275 -124 -330 -147 l-100 -42 -146 55 c-81
30 -272 106 -425 169 -154 63 -427 175 -609 248 -181 72 -333 135 -337 138 -4
4 138 66 315 138 470 193 855 351 1352 557 556 231 588 244 600 245 6 1 44
-12 85 -27z m1360 -630 c0 -27 -9 -33 -167 -110 -93 -44 -283 -132 -423 -195
-140 -63 -408 -184 -595 -270 -353 -161 -972 -437 -980 -437 -3 0 -5 15 -5 34
l0 34 318 142 c561 252 1098 494 1467 664 198 91 366 165 373 165 7 1 12 -11
12 -27z m-3653 -368 c105 -45 1047 -425 1306 -527 l127 -50 0 -35 c0 -31 -2
-34 -24 -28 -25 6 -1440 571 -1518 605 l-47 21 17 30 c9 16 20 30 24 30 3 0
55 -21 115 -46z"/>
<path d="M3220 4413 c-41 -19 -165 -72 -275 -118 -188 -78 -1600 -679 -1656
-705 -25 -11 -25 -14 -17 -59 4 -25 53 -228 109 -451 108 -436 200 -829 254
-1085 40 -190 48 -215 73 -215 21 0 158 57 577 240 154 67 420 180 590 250
349 144 735 309 796 340 35 18 40 25 35 48 -3 15 -26 137 -51 272 -117 628
-288 1477 -301 1498 -19 30 -45 27 -134 -15z m90 -57 c-19 -18 -212 -101
-1171 -505 -432 -182 -793 -331 -802 -331 -24 0 -21 17 5 34 24 14 451 196
1418 605 505 213 603 248 550 197z m38 -123 c20 -105 210 -1084 257 -1327 25
-132 42 -243 38 -247 -12 -12 -245 -113 -505 -220 -123 -50 -328 -136 -457
-190 -129 -55 -236 -97 -238 -95 -3 2 -17 62 -33 133 -15 70 -37 164 -49 208
-52 203 -271 1221 -271 1259 0 8 127 68 318 149 174 74 418 178 542 230 124
53 254 109 290 126 91 42 94 41 108 -26z m-1294 -579 c12 -65 91 -439 113
-534 5 -21 -1 -17 -36 22 -46 52 -85 68 -164 68 -81 0 -87 7 -87 108 0 100
-11 146 -42 179 -42 45 -171 22 -240 -44 -37 -35 -36 -75 2 -167 26 -61 36
-75 67 -90 l36 -17 -80 -74 c-114 -105 -131 -151 -98 -263 18 -60 33 -65 85
-29 38 25 40 42 7 42 -12 0 -28 4 -34 8 -19 12 -15 77 8 127 l21 45 43 -49
c24 -26 51 -63 61 -82 19 -35 29 -40 53 -25 11 7 4 21 -34 67 -102 125 -85
148 28 37 l82 -82 46 24 c42 22 47 28 62 84 9 33 18 69 18 78 1 10 5 -12 9
-49 7 -76 13 -86 35 -68 11 9 15 33 15 97 l0 84 30 -21 c16 -11 41 -43 56 -70
17 -31 34 -50 48 -52 47 -7 18 -33 -89 -78 -171 -73 -499 -199 -526 -202 -23
-3 -26 4 -55 122 -18 69 -54 213 -82 320 -28 107 -54 218 -57 246 l-7 51 73
28 c100 37 444 179 532 220 40 18 75 30 80 26 4 -4 14 -43 21 -87z m-253 -213
c25 -25 29 -37 29 -84 0 -45 -5 -61 -25 -85 -32 -38 -77 -50 -109 -28 -33 21
-68 98 -64 138 3 28 11 37 53 60 64 35 80 35 116 -1z m44 -260 c-7 -24 -18
-27 -34 -7 -9 11 -8 18 5 31 21 20 39 6 29 -24z m91 -53 c-3 -18 -8 -52 -12
-75 -4 -24 -9 -43 -13 -43 -3 0 -15 -3 -26 -6 -21 -5 -21 -4 -6 75 14 75 17
81 39 81 22 0 24 -3 18 -32z m-116 -65 c-5 -19 -10 -36 -12 -38 -4 -4 -45 32
-72 63 -18 21 -18 23 -2 41 17 19 18 18 55 -6 36 -23 38 -27 31 -60z m412
-255 c49 -196 139 -610 141 -650 l2 -40 -180 -78 c-99 -43 -243 -105 -320
-139 -77 -33 -143 -57 -146 -53 -4 4 -21 72 -39 152 -17 80 -56 251 -86 380
-30 129 -57 245 -60 258 -4 19 1 26 27 35 18 7 163 64 323 128 160 64 296 116
301 115 6 -1 22 -50 37 -108z"/>
<path d="M3120 4058 c-63 -28 -214 -92 -335 -143 -152 -64 -221 -98 -223 -110
-8 -35 15 -37 84 -7 38 17 159 67 269 112 308 125 355 149 355 177 0 33 -17
29 -150 -29z"/>
<path d="M3035 3789 c-377 -156 -410 -171 -413 -197 -2 -14 2 -22 12 -22 8 0
79 26 158 59 287 117 513 213 521 220 12 12 -3 41 -22 40 -9 0 -124 -45 -256
-100z"/>
<path d="M2295 3745 c-73 -39 -105 -92 -105 -173 0 -88 73 -162 159 -162 87 0
161 72 169 165 6 70 -12 119 -55 152 -44 33 -123 42 -168 18z m146 -74 c46
-46 34 -132 -26 -179 -38 -30 -45 -28 -45 12 0 28 6 38 34 56 38 23 54 56 38
72 -8 8 -19 6 -36 -6 -34 -22 -34 -21 -38 21 -4 51 -35 59 -40 11 -2 -28 -7
-34 -30 -36 -34 -4 -35 -16 -3 -53 24 -29 43 -94 31 -106 -12 -12 -75 68 -82
103 -14 73 44 133 129 134 29 0 46 -7 68 -29z"/>
<path d="M3030 3474 c-179 -74 -332 -138 -340 -143 -8 -4 -15 -19 -15 -32 0
-16 5 -23 15 -22 8 2 139 55 290 119 151 64 305 127 342 141 59 23 66 28 59
46 -4 12 -12 22 -17 23 -5 1 -155 -58 -334 -132z"/>
<path d="M3355 3378 c-22 -12 -157 -68 -300 -125 -290 -117 -335 -138 -335
-156 1 -41 19 -35 355 106 319 135 340 145 343 170 4 33 -9 34 -63 5z"/>
<path d="M2385 3254 c-67 -35 -97 -83 -97 -155 1 -82 52 -148 132 -169 75 -20
170 28 200 100 20 47 8 132 -23 173 -48 63 -145 86 -212 51z m85 -40 c0 -18
-23 -44 -39 -44 -26 0 -66 -34 -57 -48 4 -7 20 -12 36 -12 36 0 47 -16 21 -29
-55 -30 -63 -75 -11 -65 22 5 31 1 40 -16 6 -12 9 -24 6 -27 -11 -11 -93 38
-104 63 -26 55 -7 123 44 163 25 19 64 29 64 15z m98 -85 c5 -45 -13 -101 -38
-124 -20 -18 -20 -18 -20 7 0 14 9 33 20 43 27 24 25 32 -10 50 l-30 16 27 24
c35 31 47 27 51 -16z"/>
<path d="M3225 2994 c-318 -129 -465 -195 -465 -208 0 -6 4 -18 10 -26 8 -12
16 -11 62 9 29 13 150 63 268 112 306 128 370 159 370 180 0 10 -3 20 -7 22
-5 2 -111 -38 -238 -89z"/>
<path d="M3415 2844 c-33 -14 -157 -66 -275 -116 -313 -131 -310 -130 -310
-137 0 -4 6 -15 13 -24 13 -18 10 -20 597 231 48 21 65 33 65 47 0 28 -22 28
-90 -1z"/>
<path d="M2525 2756 c-67 -30 -125 -123 -125 -200 0 -46 40 -118 78 -139 112
-65 262 32 262 170 0 30 -7 67 -15 82 -20 39 -69 78 -113 91 -46 12 -50 12
-87 -4z m124 -81 c17 -20 31 -44 31 -55 0 -23 -42 -53 -67 -48 -30 6 -20 31
15 40 22 6 32 15 32 27 0 22 -11 27 -71 36 -57 8 -87 -11 -70 -43 10 -18 8
-24 -14 -38 -36 -24 -33 -48 5 -40 28 5 30 4 20 -14 -15 -28 -12 -37 11 -43
26 -7 20 -31 -8 -35 -13 -2 -30 8 -47 28 -43 52 -32 134 26 186 50 46 96 45
137 -1z m31 -135 c0 -16 -61 -80 -71 -74 -16 10 -10 25 23 55 34 30 48 36 48
19z"/>
<path d="M1915 2693 c-103 -25 -151 -76 -136 -143 12 -52 55 -131 90 -164 17
-17 31 -35 31 -42 0 -7 -34 -43 -75 -80 -92 -82 -115 -126 -115 -216 0 -69 9
-83 43 -66 13 7 17 22 17 71 0 70 13 102 30 77 11 -17 50 -117 50 -129 0 -4
-25 -18 -55 -30 -55 -23 -71 -41 -36 -41 10 0 49 9 85 21 77 23 75 10 20 149
l-34 84 20 20 20 20 68 -67 c37 -37 73 -67 79 -67 7 0 20 14 29 31 l16 31 23
-22 c14 -13 22 -26 20 -31 -3 -4 -27 -15 -54 -24 -48 -16 -80 -40 -68 -51 8
-9 106 23 153 50 l39 22 3 102 c1 56 6 102 10 102 19 0 73 -42 86 -67 25 -50
23 -62 -13 -80 -73 -38 -33 -59 49 -27 37 15 40 19 40 53 0 46 -47 123 -92
151 -18 10 -61 26 -96 34 -36 8 -68 18 -73 23 -5 5 -4 24 1 43 25 86 5 187
-45 237 -33 33 -70 40 -130 26z m92 -65 c73 -81 41 -208 -53 -208 -50 0 -63 9
-88 59 -50 98 -43 128 34 155 62 21 83 20 107 -6z m121 -363 c2 -27 0 -60 -3
-74 l-7 -26 -20 25 c-16 20 -18 33 -13 70 8 53 13 62 28 57 7 -2 13 -25 15
-52z m-149 -20 c32 -67 26 -74 -24 -25 -34 33 -42 47 -33 57 19 23 35 14 57
-32z"/>
<path d="M3440 2030 c-239 -102 -565 -242 -725 -310 -420 -178 -465 -200 -465
-221 0 -26 96 -74 355 -179 66 -27 140 -57 164 -68 l44 -20 56 25 c31 13 130
56 221 95 91 39 259 113 375 165 346 157 793 353 900 394 115 45 167 80 147
100 -18 19 73 57 -1077 -447 -335 -147 -617 -266 -625 -266 -13 1 -327 129
-440 181 -43 19 -44 20 -20 29 125 49 295 120 715 302 270 117 571 245 669
286 l179 74 129 -45 c71 -25 136 -48 144 -53 18 -10 54 6 -421 -197 -209 -89
-470 -202 -580 -250 -110 -48 -227 -97 -260 -109 -52 -18 -60 -25 -60 -46 0
-20 5 -25 23 -23 33 4 1303 550 1407 606 l30 16 -70 31 c-95 44 -324 120 -355
119 -14 -1 -221 -86 -460 -189z"/>
<path d="M3816 1541 c-132 -59 -241 -112 -243 -118 -10 -30 172 -119 331 -164
l70 -19 145 67 c236 107 361 172 361 187 0 9 -39 30 -103 54 -111 43 -295 103
-312 101 -5 -1 -118 -49 -249 -108z m425 -1 c73 -27 134 -51 135 -53 4 -4
-402 -187 -416 -187 -18 0 -290 103 -290 109 0 12 384 179 412 180 14 1 86
-21 159 -49z"/>
<path d="M7747 3850 c-347 -63 -629 -240 -827 -518 -163 -229 -240 -466 -240
-741 0 -216 43 -401 139 -604 l38 -79 -50 -38 -50 -38 -44 20 -44 19 -57 -31
c-72 -40 -539 -352 -692 -462 -155 -112 -182 -156 -146 -242 21 -50 82 -113
122 -126 68 -23 79 -17 359 176 72 50 216 148 320 218 263 177 298 215 273
287 -9 25 -6 32 19 53 67 59 61 60 185 -60 173 -166 322 -260 514 -322 132
-44 222 -56 394 -56 167 -1 267 14 406 60 454 148 788 531 870 997 21 123 21
336 0 451 -100 529 -490 925 -1016 1031 -126 26 -346 28 -473 5z m488 -59
c257 -64 446 -172 626 -358 398 -412 452 -1056 129 -1539 -105 -156 -303 -330
-475 -417 -73 -36 -208 -82 -305 -103 -118 -26 -371 -26 -488 -1 -384 84 -693
324 -863 672 -168 344 -170 729 -5 1070 184 381 519 628 941 695 97 15 347 4
440 -19z m-1335 -1946 c0 -14 -80 -75 -99 -75 -27 0 -7 33 36 60 53 34 63 36
63 15z m-135 -120 c44 -63 44 -85 1 -122 -38 -34 -745 -512 -791 -535 -84 -43
-200 108 -137 180 9 11 105 80 212 153 107 73 253 173 323 222 70 49 167 113
213 143 l86 53 29 -21 c16 -12 45 -45 64 -73z"/>
<path d="M7825 3630 c-264 -42 -474 -154 -645 -346 -235 -263 -320 -620 -230
-969 29 -113 116 -284 195 -382 352 -439 998 -521 1446 -183 400 301 532 846
314 1297 -138 284 -393 487 -708 563 -96 23 -285 33 -372 20z m332 -66 c184
-38 349 -123 481 -248 135 -129 216 -254 271 -423 80 -243 61 -503 -52 -738
-183 -377 -583 -600 -998 -555 -347 37 -650 254 -799 573 -57 121 -81 222 -87
363 -7 145 7 250 47 370 113 333 390 582 730 654 110 24 303 26 407 4z"/>
<path d="M8447 3251 l-92 -90 -542 -3 c-298 -2 -545 -7 -550 -11 -4 -5 -7
-271 -5 -590 3 -459 6 -585 16 -595 18 -18 1353 -30 1385 -12 21 11 21 14 21
593 0 519 2 585 16 605 18 26 20 23 -76 125 -74 80 -69 81 -173 -22z m129 -6
c18 -14 42 -39 54 -55 l22 -31 -324 -325 c-177 -179 -340 -339 -360 -356 l-38
-30 -111 104 c-61 57 -117 107 -125 111 -11 6 -38 -12 -95 -64 -44 -39 -84
-79 -89 -89 -7 -13 17 -42 123 -147 73 -72 170 -165 217 -207 l84 -76 176 173
c96 95 207 203 246 240 l72 67 -24 77 c-14 43 -26 101 -27 128 l-2 50 121 3
121 3 7 -47 c3 -26 6 -210 6 -409 l0 -363 -36 -4 c-19 -2 -316 -2 -660 0
l-624 5 0 413 0 414 403 1 402 0 210 219 c116 120 212 219 214 219 2 1 19 -10
37 -24z m-388 -255 l-103 -109 -387 -1 -388 0 0 110 0 110 491 0 491 0 -104
-110z m432 -30 l0 -90 -85 0 c-47 0 -85 3 -85 7 0 7 161 173 167 173 2 0 3
-40 3 -90z m-276 -297 l26 -78 -218 -217 -218 -217 -179 173 -180 174 30 32
c17 17 43 41 58 52 l28 20 108 -105 c60 -58 120 -108 132 -112 21 -7 44 13
199 173 96 99 178 181 182 181 3 1 18 -34 32 -76z"/>
<path d="M7900 2711 c-62 -58 -44 -108 19 -56 l31 27 26 -21 c34 -27 54 -27
54 0 0 21 -62 89 -80 89 -5 0 -28 -18 -50 -39z"/>
<path d="M7369 3051 c-17 -13 -23 -29 -23 -56 0 -46 31 -75 80 -75 78 0 89
112 13 139 -42 14 -43 14 -70 -8z"/>
<path d="M7535 3045 c-30 -30 -32 -64 -4 -99 41 -52 129 -20 129 48 0 34 -41
76 -75 76 -14 0 -37 -11 -50 -25z m69 -43 c8 -13 -11 -35 -23 -28 -16 10 -14
36 3 36 8 0 17 -4 20 -8z"/>
<path d="M7718 3060 c-9 -6 -22 -26 -28 -45 -10 -30 -9 -40 5 -61 31 -48 81
-50 115 -6 25 31 26 74 2 95 -23 21 -72 30 -94 17z"/>
</g>
</svg>
