<?xml version="1.0" standalone="no"?>
<!DOCTYPE svg PUBLIC "-//W3C//DTD SVG 20010904//EN"
 "http://www.w3.org/TR/2001/REC-SVG-20010904/DTD/svg10.dtd">
<svg version="1.0" xmlns="http://www.w3.org/2000/svg"
 width="1024.000000pt" height="1024.000000pt" viewBox="0 0 1024.000000 1024.000000"
 preserveAspectRatio="xMidYMid meet">

<g transform="translate(0.000000,1024.000000) scale(0.100000,-0.100000)"
fill="#e0e0e0" stroke="none">
<path d="M6430 9721 c-41 -21 -311 -166 -600 -323 -454 -246 -690 -373 -1267
-681 l-113 -60 0 -1423 0 -1424 38 -23 c20 -13 93 -55 162 -94 69 -38 607
-340 1195 -670 589 -329 1122 -628 1185 -663 63 -34 157 -88 208 -118 l93 -55
70 34 70 34 32 -19 c18 -10 89 -50 159 -88 l127 -70 203 115 c112 63 313 175
448 249 135 75 427 236 650 359 223 122 468 258 545 300 l140 77 3 1399 2
1398 -627 344 c-346 190 -1031 564 -1523 834 -492 269 -938 513 -991 542 -52
29 -104 55 -115 59 -12 4 -46 -8 -94 -33z m220 -82 c234 -125 2318 -1266 2762
-1512 131 -72 250 -141 265 -153 25 -20 26 -23 10 -29 -12 -5 -42 7 -90 35
-39 24 -121 70 -182 103 -60 33 -582 320 -1160 637 -577 317 -1162 637 -1300
710 -137 73 -292 157 -344 185 l-94 52 -51 -22 c-47 -21 -260 -134 -727 -388
-242 -131 -315 -167 -339 -167 -12 0 -19 4 -16 9 7 11 224 134 381 216 61 32
207 111 325 175 381 209 404 220 425 215 11 -2 72 -32 135 -66z m-160 -148 l0
-110 -57 -34 c-32 -19 -152 -85 -268 -147 -115 -62 -283 -153 -372 -202 l-163
-90 -62 35 c-35 19 -82 45 -105 57 -24 12 -41 26 -38 31 7 11 127 78 465 259
279 149 338 181 490 266 112 63 110 64 110 -65z m711 -252 c603 -332 1170
-641 1889 -1031 504 -274 535 -292 518 -305 -7 -6 -48 -29 -90 -53 l-78 -42
-127 68 c-71 37 -182 97 -249 135 -67 37 -296 163 -510 280 -214 116 -567 310
-784 429 -403 222 -916 500 -1117 606 l-113 59 0 108 0 107 39 -19 c21 -11
301 -165 622 -342z m-567 48 c56 -30 143 -78 195 -107 l93 -53 -68 -37 c-567
-308 -759 -410 -770 -410 -17 0 -141 62 -297 148 l-109 59 79 45 c43 25 195
107 338 183 143 76 294 157 335 181 41 24 81 43 89 44 8 0 60 -24 115 -53z
m462 -249 c61 -34 122 -69 133 -77 21 -16 20 -17 -41 -52 -196 -112 -766 -419
-779 -419 -20 0 -279 154 -272 161 8 8 422 235 673 370 80 43 151 78 159 78 8
1 65 -27 127 -61z m-1739 26 c5 -14 -22 -25 -42 -18 -12 5 -13 9 -4 21 14 16
40 14 46 -3z m-96 -55 c-53 -43 -663 -369 -691 -369 -9 0 -20 3 -23 6 -10 10
706 391 722 386 11 -4 9 -10 -8 -23z m125 -18 c5 -5 108 -61 229 -124 121 -63
549 -293 950 -512 402 -219 917 -499 1145 -622 432 -234 766 -419 788 -436 9
-7 -1 -18 -41 -42 -88 -53 -455 -258 -559 -313 l-98 -51 -52 31 c-44 26 -2397
1298 -2952 1596 l-169 90 49 27 c27 15 150 80 274 145 124 65 263 141 310 168
87 51 109 59 126 43z m2044 -136 c153 -84 210 -116 214 -124 3 -4 -46 -35
-107 -68 -362 -197 -600 -325 -659 -354 l-68 -33 -47 23 c-61 29 -303 161
-303 165 0 3 329 183 695 379 92 50 147 74 160 70 10 -3 62 -29 115 -58z m426
-232 c74 -42 131 -79 127 -83 -8 -7 -577 -316 -753 -408 l-85 -45 -135 73
c-74 39 -139 76 -143 80 -9 8 69 54 333 195 433 232 496 265 508 265 7 0 73
-34 148 -77z m-2211 -616 c1074 -577 1896 -1023 2038 -1104 l77 -45 0 -109 c0
-60 -3 -109 -6 -109 -3 0 -46 24 -97 54 -95 55 -635 348 -1357 736 -1256 674
-1738 934 -1767 952 l-33 20 0 109 0 109 43 -21 c23 -12 519 -278 1102 -592z
m2573 416 c84 -47 149 -90 145 -93 -11 -11 -510 -283 -685 -374 l-146 -77 -99
52 c-54 28 -129 69 -166 91 l-69 40 30 18 c163 100 791 429 818 430 11 0 89
-39 172 -87z m-3633 -121 c39 -21 203 -110 365 -199 287 -156 1547 -831 1920
-1028 102 -54 241 -129 310 -168 69 -38 220 -121 335 -184 116 -63 219 -123
230 -134 20 -19 20 -35 23 -1206 2 -653 0 -1198 -3 -1211 -7 -30 -8 -29 -157
56 l-118 67 -2 1106 c-3 951 -5 1108 -18 1123 -19 24 -93 71 -210 133 -52 28
-257 137 -455 243 -352 188 -860 463 -1595 862 -249 136 -373 198 -390 196
-19 -2 -28 -12 -37 -38 -9 -26 -12 -308 -12 -1127 -1 -696 -5 -1094 -11 -1098
-10 -6 -203 96 -246 130 l-25 20 7 1248 c4 686 10 1247 13 1247 3 0 38 -18 76
-38z m3988 -73 c70 -39 127 -74 127 -78 0 -4 -91 -56 -202 -116 -112 -60 -257
-139 -323 -176 -66 -36 -162 -88 -214 -113 l-93 -47 -126 66 c-120 63 -162 90
-151 98 2 2 135 74 294 160 160 85 344 185 410 220 66 36 127 63 135 60 8 -2
72 -36 143 -74z m445 -242 l92 -51 -177 -91 c-98 -50 -288 -151 -422 -225
l-245 -134 -164 84 c-90 47 -168 90 -173 97 -8 9 4 19 43 38 29 15 145 78 258
140 113 62 277 151 365 198 l160 86 85 -46 c47 -25 127 -68 178 -96z m259
-139 c62 -34 113 -65 113 -68 0 -3 -53 -34 -117 -70 -122 -66 -354 -194 -575
-319 -70 -39 -132 -71 -138 -71 -12 0 -220 117 -237 133 -13 13 -1 20 562 319
143 76 264 138 269 138 5 0 60 -28 123 -62z m463 -42 c0 -103 0 -105 -27 -124
-16 -10 -156 -90 -313 -177 -157 -87 -575 -320 -929 -518 -505 -283 -645 -357
-652 -346 -10 16 -12 132 -3 177 5 25 20 37 93 77 272 152 451 252 656 370
418 241 1150 645 1168 645 4 0 7 -47 7 -104z m-4780 43 c455 -244 1348 -733
1360 -745 30 -29 -35 -15 -96 22 -32 20 -113 63 -179 96 -170 85 -1176 628
-1197 646 -10 8 -18 19 -18 24 0 19 41 5 130 -43z m-105 -1044 c0 -942 -1
-1010 -17 -1013 -16 -3 -17 52 -20 820 -2 453 -2 910 0 1016 3 176 4 193 20
190 16 -3 17 -69 17 -1013z m63 -7 c-1 -535 -5 -914 -9 -843 -11 209 -11 1815
1 1815 7 0 9 -330 8 -972z m76 936 c14 -6 16 -96 16 -920 l0 -914 43 -21 c23
-12 103 -56 177 -99 207 -118 365 -200 387 -200 16 0 97 43 548 292 494 273
647 356 728 392 52 23 161 79 243 123 172 94 190 100 222 75 l24 -19 -179
-101 c-98 -56 -223 -129 -278 -164 l-100 -63 -3 -697 -3 -697 43 -27 c91 -58
350 -202 465 -259 112 -55 121 -62 122 -89 1 -21 -2 -26 -11 -19 -7 6 -159 90
-338 188 -179 98 -654 362 -1057 586 -403 225 -812 452 -910 505 -98 54 -197
109 -221 124 -47 29 -46 33 16 64 l32 17 0 964 c0 579 4 965 9 965 5 0 16 -3
25 -6z m212 -115 c65 -39 175 -99 244 -134 69 -35 134 -71 145 -80 28 -23
-246 119 -395 205 -134 77 -139 80 -123 80 5 0 63 -32 129 -71z m-116 -12 c0
-16 -35 -1 -38 16 -3 16 -1 17 17 5 12 -7 21 -17 21 -21z m4650 -1179 l0
-1213 -63 -36 c-138 -81 -668 -376 -1112 -619 -258 -142 -531 -292 -605 -335
-74 -43 -138 -80 -142 -82 -5 -2 -8 542 -8 1209 l0 1213 33 19 c17 10 127 71
242 136 874 489 1167 652 1350 753 116 63 230 127 255 141 25 14 46 26 48 26
1 0 2 -546 2 -1212z m-4545 1139 c22 -11 93 -51 158 -89 151 -89 262 -142 285
-135 9 2 26 8 37 13 17 7 18 6 7 -8 -7 -9 -25 -21 -40 -27 l-27 -11 3 -368 c3
-336 2 -366 -13 -351 -14 13 -16 58 -16 359 l0 344 -25 33 c-14 18 -33 33 -44
33 -38 0 -410 206 -410 227 0 17 24 11 85 -20z m88 -137 c4 -4 6 -66 5 -139
l-3 -133 -102 54 -103 53 0 138 0 138 98 -52 c53 -28 101 -55 105 -59z m139
-71 c153 -85 138 -62 138 -210 0 -97 -3 -129 -12 -129 -7 0 -61 27 -120 60
l-108 61 0 134 c0 74 2 135 5 135 3 0 46 -23 97 -51z m395 -71 l63 -33 0 -61
0 -62 -91 -52 c-49 -29 -92 -51 -94 -49 -2 2 -6 61 -10 131 l-8 126 29 16 c39
21 39 21 111 -16z m-147 -153 c0 -100 3 -145 11 -145 6 0 85 41 175 91 128 71
170 90 189 85 14 -4 25 -10 25 -14 0 -7 -382 -214 -407 -220 -10 -3 -13 35
-13 172 0 111 4 176 10 176 6 0 10 -55 10 -145z m320 61 c0 -6 -65 -46 -74
-46 -3 0 -6 20 -6 45 l0 45 40 -20 c22 -11 40 -22 40 -24z m-848 -2 c99 -50
357 -193 391 -216 29 -21 28 -38 -4 -38 -23 0 -321 160 -409 220 -33 22 -60
47 -60 55 0 20 1 20 82 -21z m45 -129 l93 -50 0 -137 0 -136 -92 50 c-51 27
-98 55 -103 61 -12 13 -8 270 3 265 4 -2 49 -25 99 -53z m985 -15 c4 -30 5
-82 2 -115 l-6 -60 -109 -63 c-60 -34 -111 -62 -114 -62 -3 0 -5 57 -5 128 l0
127 93 52 c116 66 130 66 139 -7z m379 -61 c63 -34 166 -88 229 -122 155 -81
230 -130 208 -135 -19 -4 -122 45 -333 160 -77 41 -167 90 -200 107 -72 39
-73 40 -56 51 18 10 14 12 152 -61z m-334 -51 c-2 -24 -4 -7 -4 37 0 44 2 63
4 43 2 -21 2 -57 0 -80z m30 0 c-2 -24 -4 -7 -4 37 0 44 2 63 4 43 2 -21 2
-57 0 -80z m20 -320 c-1 -79 -3 -15 -3 142 0 157 2 221 3 143 2 -79 2 -207 0
-285z m92 378 l44 -23 -45 -27 c-24 -14 -48 -26 -51 -26 -4 0 -7 23 -7 50 0
28 3 50 8 50 4 -1 27 -11 51 -24z m-889 -93 l85 -48 3 -128 c2 -99 0 -127 -10
-127 -8 0 -61 26 -118 58 l-105 58 -3 138 -3 138 33 -20 c18 -11 71 -42 118
-69z m440 -50 l0 -128 -104 -57 c-56 -32 -106 -58 -109 -58 -4 0 -7 58 -7 129
l0 130 103 55 c56 31 105 56 110 56 4 0 7 -57 7 -127z m547 82 c2 -8 -61 -46
-139 -83 -5 -2 -8 3 -8 10 0 43 135 109 147 73z m-727 -10 c0 -2 -10 -9 -22
-15 -22 -11 -22 -10 -4 4 21 17 26 19 26 11z m788 -167 l-3 -133 -98 -54 c-54
-29 -99 -52 -101 -50 -2 2 -6 67 -9 144 -4 81 -3 134 2 126 7 -11 28 -3 103
41 51 31 97 56 101 57 4 1 6 -59 5 -131z m148 75 c57 -32 100 -61 96 -64 -14
-14 -201 -119 -211 -119 -7 0 -11 22 -11 53 0 67 11 187 18 187 3 0 51 -26
108 -57z m-996 -118 c0 -77 -4 -125 -10 -125 -6 0 -10 41 -10 103 0 93 6 147
16 147 2 0 4 -56 4 -125z m540 105 c0 -11 -8 -24 -17 -27 -10 -4 -95 -51 -189
-104 -281 -160 -344 -188 -344 -155 0 11 319 202 485 289 42 23 65 21 65 -3z
m-930 -120 c74 -42 170 -96 213 -119 72 -40 91 -61 67 -76 -12 -7 -191 86
-350 181 -132 80 -144 89 -136 109 7 19 6 19 206 -95z m953 28 c2 -13 5 -176
6 -363 l2 -340 -30 -42 c-46 -63 -301 -211 -301 -173 0 13 103 80 223 145 l88
47 -1 157 c-1 86 1 164 5 173 4 9 4 52 1 95 -14 184 -17 323 -8 323 5 0 12
-10 15 -22z m602 9 c16 -13 11 -18 -66 -64 -120 -73 -448 -253 -459 -253 -6 0
-10 11 -10 24 0 21 18 35 113 89 217 125 382 216 393 216 5 1 18 -5 29 -12z
m265 -47 c59 -30 76 -50 43 -50 -23 0 -123 57 -123 70 0 16 17 12 80 -20z
m-1904 -55 l81 -48 6 -88 c6 -80 0 -179 -10 -179 -8 0 -90 44 -145 78 l-58 35
0 140 0 139 23 -14 c12 -8 59 -36 103 -63z m974 -54 l0 -129 -67 -40 c-68 -39
-148 -82 -156 -82 -12 0 -16 73 -11 157 l7 93 106 65 c58 36 109 65 113 65 4
0 8 -58 8 -129z m727 67 c-2 -13 -4 -5 -4 17 -1 22 1 32 4 23 2 -10 2 -28 0
-40z m162 -24 c58 -31 112 -61 119 -67 15 -12 -36 -44 -161 -101 l-77 -35 0
129 c0 72 3 130 7 130 3 0 54 -25 112 -56z m-236 -255 c-11 -10 -238 -129
-247 -129 -3 0 -5 57 -4 127 l3 127 125 72 125 72 3 -131 c1 -72 -1 -134 -5
-138z m500 204 c84 -44 98 -55 77 -68 -12 -7 -202 96 -208 114 -6 19 25 8 131
-46z m-428 -211 c-3 -3 -11 0 -17 6 -9 9 -9 12 0 12 9 0 13 34 14 118 l2 117
3 -124 c2 -68 1 -126 -2 -129z m-1280 -649 c-8 -87 -18 -91 -86 -39 -24 18
-60 39 -79 45 -39 13 -355 191 -391 220 -13 11 -21 22 -17 26 7 7 48 -12 323
-159 110 -58 205 -104 210 -103 14 5 19 276 5 292 -8 9 -8 15 0 20 5 3 10 23
10 44 l0 38 -43 -1 c-37 -1 -57 8 -138 61 -52 34 -142 85 -201 113 -135 64
-205 120 -151 120 19 0 220 -116 231 -134 4 -6 32 -19 62 -29 30 -9 93 -39
140 -66 47 -27 88 -47 92 -44 4 2 6 98 5 212 -1 171 1 212 13 226 13 16 15
-27 18 -376 2 -217 0 -427 -3 -466z m-169 785 l114 -63 0 -132 c0 -73 -3 -133
-7 -133 -5 0 -57 27 -118 59 l-110 58 -5 137 c-3 75 -1 136 4 136 5 0 60 -28
122 -62z m457 27 c2 -14 5 -67 6 -118 2 -79 -1 -95 -16 -108 -21 -18 -181
-109 -193 -109 -11 0 -20 162 -10 205 5 22 20 48 37 61 27 22 151 93 164 94 4
0 9 -11 12 -25z m1262 -71 c-10 -7 -22 -11 -28 -7 -6 3 -3 11 8 19 10 7 22 11
28 7 6 -3 3 -11 -8 -19z m-625 -114 l0 -129 -70 -41 c-39 -23 -90 -50 -113
-60 l-42 -19 -3 122 c-3 115 -2 123 18 137 40 28 195 120 202 120 5 0 8 -58 8
-130z m-868 -37 c-5 -161 -22 -188 -22 -36 0 94 10 163 23 163 1 0 1 -57 -1
-127z m504 62 c-14 -11 -103 -60 -197 -109 -95 -49 -202 -107 -238 -128 -76
-44 -84 -46 -79 -16 2 16 62 54 268 168 238 132 265 145 268 126 3 -13 -5 -28
-22 -41z m1269 13 c3 -24 2 -61 -2 -83 -10 -43 11 -29 -304 -207 l-117 -65
-71 40 c-56 33 -69 44 -59 53 20 19 521 304 535 304 6 0 15 -19 18 -42z
m-1168 -276 c-1 -53 -3 -7 -3 103 0 110 2 154 3 97 2 -57 2 -147 0 -200z m743
288 c0 -15 -78 -52 -85 -40 -3 6 -3 15 0 21 14 22 85 39 85 19z m-133 -55 c2
-6 -39 -32 -89 -59 -51 -27 -154 -84 -228 -126 -162 -93 -235 -130 -252 -130
-27 1 65 68 163 119 55 30 163 89 238 132 129 75 160 87 168 64z m-708 -161
c0 -34 -2 -82 -5 -108 l-7 -46 -107 -65 c-59 -36 -111 -65 -114 -65 -3 0 -6
61 -6 135 l0 135 42 27 c24 14 74 43 113 64 l70 39 6 -28 c4 -15 7 -54 8 -88z
m-937 12 c28 -16 37 -28 42 -56 7 -44 6 -176 -3 -213 l-6 -28 -102 61 -103 61
0 135 0 136 68 -38 c37 -21 83 -47 104 -58z m2171 -10 c4 -18 -189 -126 -225
-126 -20 0 -20 2 -8 15 20 19 213 125 223 122 5 -2 9 -6 10 -11z m-1920 -128
l67 -39 0 -129 c0 -72 -2 -130 -5 -130 -9 0 -105 49 -172 88 l-63 36 0 133 0
133 53 -26 c28 -15 82 -44 120 -66z m1949 -141 l-3 -107 -137 69 c-192 98
-187 93 -126 124 27 14 96 52 154 86 l105 61 5 -62 c3 -35 4 -111 2 -171z
m-1532 94 c0 -91 -4 -132 -12 -139 -7 -5 -56 -33 -109 -61 l-96 -51 -7 37 c-3
21 -6 82 -6 135 l0 97 73 40 c110 61 131 71 145 71 9 0 12 -32 12 -129z m1031
26 c30 -18 59 -36 64 -39 6 -4 32 4 59 18 26 13 54 24 62 24 24 0 15 -17 -16
-30 -59 -24 -57 -35 17 -78 37 -22 107 -60 155 -86 136 -73 127 -90 -12 -22
-107 52 -374 197 -392 213 -16 15 -16 33 1 33 4 0 32 -15 62 -33z m-1265 -307
c9 -9 30 -4 85 21 41 17 84 38 96 46 42 28 33 -6 -9 -35 -73 -50 -198 -114
-199 -103 -6 53 -6 95 -1 216 l7 140 5 -137 c3 -82 10 -142 16 -148z m1335
159 l109 -62 0 -149 c0 -81 -2 -148 -5 -148 -2 0 -34 18 -69 39 -95 59 -144
82 -150 72 -8 -13 4 -41 17 -41 6 0 117 -61 248 -135 130 -74 245 -135 254
-135 14 0 15 11 9 98 -8 120 4 274 18 227 13 -45 9 -340 -5 -360 -11 -14 -24
-9 -118 39 -58 30 -177 97 -265 148 -87 52 -167 92 -176 90 -17 -3 -18 11 -18
193 0 232 -16 219 151 124z m382 -209 c4 0 7 -67 7 -150 0 -105 -3 -150 -11
-150 -7 0 -63 30 -125 66 l-114 66 0 148 0 148 118 -64 c64 -35 120 -64 125
-64z m-2323 -80 c74 -42 317 -177 540 -300 465 -256 544 -300 920 -512 233
-132 545 -306 798 -445 34 -18 62 -38 62 -43 0 -5 -11 -17 -25 -26 -23 -15
-28 -15 -87 13 -64 30 -694 381 -983 548 -88 51 -308 175 -490 275 -181 100
-411 228 -510 284 -99 57 -246 140 -327 185 l-148 83 0 40 0 39 58 -32 c31
-18 118 -67 192 -109z m1810 -83 c0 -18 24 -36 120 -90 l120 -68 0 -145 c0
-79 -4 -144 -8 -144 -4 0 -51 25 -104 55 -102 59 -121 65 -116 38 2 -9 70 -53
158 -103 85 -47 197 -112 249 -143 52 -31 100 -57 107 -57 20 0 27 80 21 227
-5 122 2 166 17 111 10 -38 7 -321 -4 -360 l-11 -38 -37 24 c-20 12 -89 51
-152 86 -63 34 -166 92 -228 128 -84 47 -117 61 -125 53 -6 -6 -15 -11 -19
-11 -4 0 -8 106 -8 236 0 154 3 233 10 229 6 -3 10 -16 10 -28z m265 -122
c121 -69 225 -131 230 -137 6 -6 -6 -2 -25 9 -19 11 -62 35 -95 53 -115 64
-345 201 -345 206 0 3 3 3 8 1 4 -3 106 -62 227 -132z m135 -131 l120 -66 -1
-107 c0 -58 -3 -123 -7 -144 l-7 -38 -105 62 c-58 34 -110 66 -116 73 -16 16
-30 286 -14 286 6 0 65 -30 130 -66z m-100 -354 c126 -72 192 -118 90 -62
-199 108 -316 175 -325 184 -16 16 97 -43 235 -122z m-137 23 l77 -45 0 -139
c0 -76 -3 -139 -7 -139 -5 0 -62 31 -128 69 l-120 68 -3 109 c-2 60 0 123 3
141 l6 32 47 -26 c26 -14 82 -46 125 -70z m252 -139 c66 -36 126 -73 133 -82
13 -17 17 -176 6 -243 l-6 -36 -67 38 c-36 20 -97 55 -136 76 l-70 39 -3 54
c-4 67 7 220 16 220 4 0 61 -30 127 -66z"/>
<path d="M9365 7047 c-55 -29 -154 -83 -220 -121 l-120 -70 0 -262 c0 -144 3
-265 6 -268 3 -3 61 26 130 66 68 39 174 100 234 134 147 84 157 92 153 117
-2 16 -11 23 -30 25 l-28 3 0 215 c0 165 -3 214 -12 214 -7 -1 -58 -24 -113
-53z m77 -199 c-3 -183 -2 -194 17 -209 19 -16 16 -19 -92 -78 -62 -34 -155
-86 -207 -116 -101 -59 -137 -71 -104 -34 10 12 37 31 59 44 195 110 262 149
278 160 16 11 18 29 18 184 0 94 -3 180 -6 192 -6 18 15 47 35 49 3 0 4 -87 2
-192z m-77 -42 l0 -158 -144 -84 c-79 -46 -145 -84 -147 -84 -2 0 -4 74 -4
165 l0 164 93 54 c158 92 182 105 192 103 6 -2 10 -63 10 -160z"/>
<path d="M8370 6530 c-25 -17 -118 -71 -207 -122 l-163 -93 0 -227 c0 -126 2
-228 5 -228 6 0 234 129 312 176 l61 38 -5 160 c-5 166 1 246 18 246 7 0 9
-67 7 -188 -2 -155 0 -192 12 -207 13 -15 12 -19 -8 -36 -13 -10 -106 -66
-208 -124 -137 -78 -189 -103 -198 -96 -18 15 -26 4 -26 -34 0 -42 7 -47 44
-29 52 27 440 257 459 272 23 20 22 45 -3 67 -19 17 -20 31 -20 214 0 202 -4
241 -24 240 -6 0 -31 -13 -56 -29z m-36 -131 c8 -42 6 -269 -2 -291 -6 -14
-223 -148 -270 -165 -10 -4 -12 30 -10 163 l3 169 122 70 c67 38 125 73 129
78 14 14 22 7 28 -24z"/>
<path d="M9395 6092 c-50 -26 -153 -83 -228 -127 l-138 -80 3 -212 c2 -116 6
-215 10 -218 7 -8 48 13 246 128 l122 71 0 186 c0 148 3 190 15 206 13 17 14
-2 15 -172 0 -185 1 -191 21 -200 19 -9 12 -15 -62 -59 -260 -151 -325 -187
-347 -189 -38 -4 -46 -39 -17 -74 2 -2 83 44 181 101 99 57 211 123 251 146
72 41 89 63 77 95 -5 12 -14 16 -31 13 l-24 -4 2 213 c1 118 0 216 -2 218 -2
3 -45 -17 -94 -42z m-20 -137 c3 -33 3 -108 -1 -167 l-7 -107 -101 -57 c-55
-31 -120 -68 -143 -81 l-43 -24 0 159 c0 136 2 162 17 173 16 14 266 166 270
164 1 0 5 -28 8 -60z"/>
<path d="M8247 5480 c-87 -49 -178 -104 -203 -121 l-44 -30 0 -148 c0 -81 3
-182 6 -224 l7 -77 91 49 c175 94 184 74 13 -29 -103 -61 -117 -67 -117 -50 0
16 -19 11 -29 -8 -11 -20 -3 -72 11 -72 6 0 47 22 92 49 44 27 156 90 247 140
92 50 172 98 179 106 17 20 3 52 -25 59 l-25 6 -2 218 c-3 208 -4 217 -23 220
-11 1 -91 -38 -178 -88z m161 -387 c1 -2 10 -3 20 -3 14 0 12 -4 -8 -20 -41
-32 -94 -23 -55 10 12 10 15 46 15 205 0 107 3 202 8 212 4 10 10 -76 13 -192
3 -115 6 -211 7 -212z m-85 303 c4 -24 9 -98 13 -163 l7 -120 -120 -65 c-178
-97 -160 -106 -165 74 -3 84 -3 159 0 166 5 14 230 151 248 152 6 0 14 -20 17
-44z m-3 -375 c0 -15 -16 -22 -34 -15 -25 9 -19 24 9 24 14 0 25 -4 25 -9z"/>
<path d="M1840 8301 c-25 -49 -32 -44 350 -253 596 -328 1312 -724 1384 -766
l78 -47 -85 -6 c-48 -3 -93 -12 -102 -19 -25 -21 -15 -54 20 -61 50 -11 282
-10 311 1 24 10 26 14 22 53 -7 54 -85 256 -109 282 -15 15 -23 17 -37 9 -25
-16 -26 -47 -3 -109 11 -30 17 -55 13 -55 -4 0 -43 21 -87 46 -168 97 -420
236 -665 369 -346 187 -627 342 -794 438 -147 84 -253 137 -273 137 -7 0 -17
-9 -23 -19z"/>
<path d="M1743 7240 c-32 -19 -32 -21 -35 -102 l-3 -83 -120 -66 c-66 -36
-169 -92 -230 -125 -105 -57 -110 -61 -118 -99 -5 -22 -7 -120 -4 -217 l5
-178 -26 -18 c-31 -21 -221 -126 -299 -166 l-53 -26 0 354 0 354 -52 29 -52
30 -36 -20 c-77 -44 -70 13 -70 -601 l0 -551 -48 -30 c-44 -29 -47 -32 -44
-70 1 -22 4 -85 5 -140 2 -94 5 -106 39 -175 41 -84 110 -160 173 -190 80 -39
153 -23 274 59 l60 41 36 -17 c34 -16 37 -16 81 6 42 20 46 20 40 4 -21 -53
-27 -128 -16 -195 33 -192 202 -370 338 -355 59 6 251 102 338 168 l66 50 136
-72 c76 -40 205 -107 288 -151 l152 -78 163 91 c90 51 236 132 324 182 88 49
217 118 288 153 l127 64 0 -87 c0 -87 0 -88 32 -114 l32 -27 -32 -30 c-18 -17
-32 -39 -32 -50 0 -19 -112 -86 -432 -261 l-78 -42 0 -74 c0 -64 3 -74 23 -87
32 -22 338 -191 667 -371 157 -85 424 -234 595 -330 l310 -175 50 29 c49 28
50 29 55 85 l5 57 80 50 c44 27 156 94 249 147 l169 97 66 -48 65 -48 67 35
c76 40 79 47 79 165 0 78 6 72 -147 154 l-73 39 0 168 0 168 -62 31 c-88 44
-365 196 -415 228 l-43 26 0 210 0 210 -33 19 c-17 10 -178 94 -357 186 -179
92 -340 176 -358 186 l-32 19 -53 -29 c-28 -15 -129 -76 -224 -134 l-172 -106
-3 -97 -3 -98 -251 132 c-138 73 -261 139 -273 147 -20 13 -31 56 -86 335 -67
340 -92 447 -156 667 -21 75 -39 139 -39 142 0 3 13 12 30 21 36 18 70 81 70
128 0 64 -59 85 -130 48 l-34 -19 -54 44 c-31 26 -156 95 -296 166 -132 66
-283 149 -334 184 -51 35 -103 64 -115 64 -12 0 -36 -9 -54 -20z m92 -46 c14
-9 25 -20 25 -25 0 -10 -49 9 -70 28 -12 11 -12 13 3 13 10 0 29 -7 42 -16z
m-27 -57 c10 -8 7 -14 -15 -28 -39 -26 -43 -24 -43 21 0 39 1 40 23 29 12 -6
28 -16 35 -22z m377 -143 c140 -70 255 -131 255 -136 0 -27 -53 -7 -282 108
-139 70 -255 128 -257 130 -6 5 10 24 20 24 5 0 124 -57 264 -126z m-295 92
c0 -21 -128 -103 -281 -181 -74 -38 -150 -78 -169 -90 -19 -12 -45 -25 -57
-29 -38 -12 -28 21 15 48 32 21 483 266 490 266 1 0 2 -6 2 -14z m269 -170
l204 -103 -54 -30 c-187 -106 -471 -253 -488 -253 -4 0 -96 49 -205 109 l-197
109 183 95 c101 52 215 113 253 135 39 23 77 41 85 41 8 0 107 -46 219 -103z
m-1374 -60 c18 -13 18 -14 -3 -25 -16 -8 -28 -9 -42 -1 -23 12 -26 26 -7 33
21 9 33 7 52 -7z m0 -76 l25 23 0 -459 -1 -459 -49 -23 c-44 -21 -50 -27 -50
-53 0 -17 -4 -28 -9 -24 -6 3 -10 214 -10 516 l-1 510 35 -27 36 -27 24 23z
m1695 16 c0 -15 -42 -42 -98 -65 -69 -29 -47 15 27 54 53 28 71 31 71 11z
m235 -25 c0 -16 -11 -29 -38 -45 -37 -21 -38 -21 -52 -2 -22 29 -19 41 18 59
44 22 72 18 72 -12z m-1280 -82 c72 -39 162 -89 202 -111 76 -42 98 -61 88
-77 -7 -12 -89 28 -215 104 -110 66 -191 107 -198 100 -3 -3 -5 -225 -4 -493
2 -283 -1 -498 -6 -512 -18 -47 -22 72 -18 525 4 533 4 535 14 535 4 0 66 -32
137 -71z m1110 -22 c38 -120 120 -445 154 -615 32 -154 93 -553 86 -560 -12
-12 -24 16 -30 70 -36 347 -93 623 -229 1111 -30 109 -16 105 19 -6z m-9 -185
c97 -371 140 -582 117 -582 -14 0 -217 117 -239 137 -16 14 -22 37 -28 92 -8
86 -25 125 -66 146 -18 9 -40 35 -55 64 -21 43 -23 51 -9 62 8 7 14 24 12 38
-2 22 -14 30 -67 52 -36 14 -66 30 -68 36 -5 14 28 34 192 119 113 59 141 70
148 58 4 -8 33 -107 63 -222z m105 58 c51 -156 99 -338 99 -374 0 -49 -22 10
-50 134 -25 111 -59 228 -116 407 -5 15 -4 16 5 3 6 -8 34 -85 62 -170z m-321
165 c0 -2 -9 -9 -20 -15 -22 -12 -44 -5 -35 11 6 9 55 13 55 4z m361 -26 c-13
-11 -27 -17 -30 -13 -3 3 5 14 18 25 13 11 27 17 30 13 3 -3 -5 -14 -18 -25z
m-451 -18 c0 -6 -5 -13 -10 -16 -15 -9 -43 3 -35 15 8 13 45 13 45 1z m-664
-144 l191 -107 26 -88 c35 -115 48 -176 97 -443 23 -123 64 -330 91 -459 69
-323 63 -290 44 -258 -22 40 -85 325 -149 678 -62 337 -110 519 -150 559 -24
24 -28 24 -63 12 -81 -29 -113 -82 -113 -192 0 -55 -4 -76 -20 -96 -11 -14
-22 -40 -26 -59 -3 -19 -8 -34 -11 -34 -2 0 -31 15 -64 33 l-59 32 0 268 c0
148 4 267 8 265 4 -1 94 -51 198 -111z m584 104 c0 -9 -68 -49 -193 -114 -57
-30 -81 -31 -57 -2 14 16 196 108 248 124 1 1 2 -3 2 -8z m-40 -125 c0 -35
-18 -79 -38 -94 -30 -23 11 -42 89 -42 l66 0 23 -61 c21 -58 21 -62 5 -78 -16
-15 -17 -15 -6 6 6 12 11 24 11 27 0 3 -37 -13 -82 -34 -85 -42 -157 -52 -199
-30 -23 13 -26 40 -4 40 8 0 15 9 15 20 0 13 -7 20 -19 20 -15 0 -26 17 -46
71 -16 40 -24 74 -19 79 15 15 178 100 192 100 6 0 12 -11 12 -24z m-254 -91
c13 -33 31 -82 39 -110 14 -48 116 -494 210 -920 25 -110 49 -216 55 -235 13
-43 -3 -90 -31 -90 -24 0 -39 30 -49 94 -4 28 -24 125 -45 216 -66 300 -86
393 -135 645 -27 138 -60 288 -74 335 -14 47 -26 95 -26 108 0 43 30 19 56
-43z m322 49 c16 -5 22 -14 22 -35 0 -26 -3 -29 -35 -29 -36 0 -44 15 -29 54
7 18 9 18 42 10z m-453 -159 c12 -34 25 -76 29 -95 6 -33 5 -32 -20 15 -14 28
-37 59 -50 70 -13 11 -26 33 -30 48 -6 27 -5 28 21 25 23 -3 31 -12 50 -63z
m-88 3 c56 -60 143 -204 143 -237 0 -17 -4 -31 -10 -31 -5 0 -10 6 -10 14 0
17 -115 84 -159 92 -31 6 -31 7 -31 69 0 61 15 125 29 125 4 0 21 -15 38 -32z
m-401 -13 c7 -30 1 -371 -7 -379 -6 -7 -306 143 -352 177 l-29 20 29 18 c47
30 338 188 345 189 4 0 10 -11 14 -25z m1099 -88 c7 -18 17 -61 21 -95 6 -57
5 -62 -13 -62 -34 0 -49 23 -61 89 -10 57 -9 67 5 83 23 25 32 23 48 -15z
m-195 -37 c-8 -5 -43 -17 -78 -26 -60 -16 -64 -16 -80 0 -16 17 -15 18 28 13
26 -3 62 0 85 8 49 16 65 18 45 5z m102 -59 c1 -17 -1 -33 -3 -35 -2 -2 -53
-13 -114 -24 -112 -21 -129 -18 -122 17 2 17 218 92 230 81 5 -4 9 -21 9 -39z
m548 -158 c70 -359 90 -464 90 -478 0 -8 -51 -40 -127 -78 -71 -35 -146 -74
-168 -87 -22 -13 -67 -36 -99 -52 -33 -16 -89 -49 -125 -72 -89 -58 -149 -88
-155 -77 -14 22 15 46 123 102 64 33 154 80 201 105 47 24 117 61 155 82 39
20 90 44 115 53 25 9 44 22 42 29 -2 7 -9 56 -17 109 -8 53 -28 177 -45 276
-39 223 -45 277 -30 253 6 -9 24 -84 40 -165z m-1196 141 c9 -3 16 -13 16 -22
0 -22 -42 -122 -51 -122 -10 0 -29 58 -29 89 0 30 9 46 30 54 8 3 16 6 17 6 1
1 8 -2 17 -5z m-114 -107 c9 -7 28 -33 42 -58 31 -52 75 -95 166 -158 34 -24
62 -47 62 -51 0 -4 -7 -13 -15 -20 -8 -7 -15 -19 -15 -26 0 -8 -6 -14 -12 -14
-7 0 -85 43 -173 94 l-160 94 -3 102 -3 102 48 -27 c26 -14 55 -31 63 -38z
m252 2 c66 -44 78 -56 84 -86 3 -18 3 -37 0 -41 -6 -5 -152 66 -191 94 -14 11
-14 15 1 48 10 20 20 36 23 36 3 0 40 -23 83 -51z m-667 -53 c179 -97 185
-103 171 -162 -6 -23 -9 -22 -191 68 l-185 93 0 47 c0 39 3 48 18 47 9 0 94
-42 187 -93z m1170 77 c9 -11 25 -16 56 -15 32 1 40 -1 29 -8 -13 -9 -13 -12
3 -21 21 -13 22 -33 1 -54 -20 -20 -44 -4 -44 30 0 28 -17 42 -55 47 -19 2
-31 9 -33 21 -4 22 27 23 43 0z m-104 -12 c-11 -7 -10 -10 4 -18 25 -14 1 -27
-25 -13 -30 16 -25 40 8 40 19 0 23 -3 13 -9z m-57 -36 c17 -26 21 -45 8 -45
-8 0 -42 52 -42 64 0 14 19 4 34 -19z m455 -39 c47 -30 98 -60 113 -66 14 -7
28 -23 30 -35 7 -32 -3 -135 -12 -135 -10 0 -312 159 -325 171 -6 6 3 7 21 3
45 -9 94 19 94 52 0 14 -5 34 -10 45 -6 10 -8 19 -4 19 4 0 46 -24 93 -54z
m-483 -34 c-9 -8 -14 0 -21 33 l-6 30 16 -28 c9 -16 14 -31 11 -35z m104 29
c0 -10 -30 -24 -37 -17 -3 3 -2 9 2 15 8 13 35 15 35 2z m-470 -42 c96 -52
149 -95 156 -125 4 -14 4 -27 2 -30 -6 -6 -148 95 -203 144 -73 65 -60 68 45
11z m567 10 c27 -10 27 -11 9 -25 -29 -21 -46 -17 -46 11 0 29 -1 29 37 14z
m-1324 -33 c52 -23 81 -46 57 -46 -6 0 -31 9 -55 20 -42 19 -47 19 -81 5 -75
-31 -95 -12 -26 25 47 24 42 24 105 -4z m1187 -46 c0 -5 -9 -14 -20 -20 -15
-8 -21 -6 -30 9 -12 23 -13 54 -3 65 8 8 53 -38 53 -54z m330 -56 c232 -131
260 -148 260 -156 0 -13 -12 -9 -24 6 -18 24 -62 30 -70 10 -9 -23 13 -47 37
-40 11 3 16 1 11 -3 -16 -15 -470 -251 -482 -251 -6 0 -14 10 -17 23 -31 142
-74 337 -79 357 -6 23 0 28 101 77 59 28 112 52 118 52 5 1 70 -33 145 -75z
m-1323 -70 c125 -64 263 -134 306 -156 42 -22 75 -43 72 -48 -3 -5 -47 -31
-99 -59 -52 -28 -105 -64 -118 -80 -14 -16 -44 -39 -67 -51 l-43 -21 -32 34
c-17 19 -61 85 -96 147 -72 127 -145 207 -223 246 -33 17 -47 30 -45 42 3 16
79 61 105 62 6 0 114 -52 240 -116z m-51 101 c19 -14 19 -14 -2 -15 -12 0 -27
7 -34 15 -17 20 9 21 36 0z m455 -74 c74 -43 156 -92 183 -110 28 -17 59 -31
70 -31 12 -1 34 -12 51 -25 28 -23 29 -25 12 -42 -15 -16 -19 -16 -27 -3 -5 8
-10 23 -10 33 0 31 -28 18 -37 -18 l-8 -34 -192 100 -193 100 0 55 c0 29 4 54
8 54 5 0 69 -35 143 -79z m-387 43 c9 -3 16 -10 16 -16 0 -14 -43 -5 -48 10
-4 13 7 15 32 6z m-424 -33 c0 -13 -109 -81 -115 -71 -10 16 8 41 44 60 38 20
71 26 71 11z m528 -21 c39 -24 44 -44 6 -30 -42 16 -64 30 -64 40 0 16 22 12
58 -10z m537 -40 c8 -24 -1 -40 -22 -40 -10 0 -13 6 -9 16 3 9 6 22 6 30 0 21
18 17 25 -6z m-967 -9 c39 -20 97 -77 125 -122 26 -42 57 -145 57 -187 0 -97
-31 -145 -101 -157 -80 -14 -196 71 -251 183 -15 31 -24 70 -26 117 -3 61 -1
75 20 105 29 42 83 80 115 80 13 0 40 -9 61 -19z m577 -22 c71 -36 99 -59 72
-59 -24 0 -167 72 -161 82 9 14 28 9 89 -23z m475 -4 c5 -46 -1 -53 -29 -36
-12 8 -12 12 -3 24 7 8 12 19 11 23 -1 5 -1 13 0 19 2 16 19 -8 21 -30z m2176
-62 l103 -57 -27 -19 c-15 -10 -55 -34 -90 -54 -54 -30 -67 -34 -88 -24 -23
10 -24 15 -24 96 l0 85 -27 -6 -28 -5 24 20 c13 12 30 21 38 21 9 0 62 -26
119 -57z m-2438 -42 c156 -76 239 -138 273 -203 30 -58 23 -57 -36 4 -30 32
-79 74 -110 93 -30 20 -55 42 -55 49 0 9 -7 12 -19 9 -18 -5 -154 58 -166 77
-13 21 34 9 113 -29z m2232 35 c0 -2 -65 -41 -145 -87 -80 -45 -145 -86 -145
-90 0 -4 24 -19 53 -32 28 -14 70 -39 91 -56 21 -17 51 -31 65 -31 15 0 78 30
143 69 230 137 276 159 266 130 -4 -11 -54 -39 -337 -192 l-75 -40 -80 43
c-98 52 -146 86 -146 104 0 14 61 56 200 140 65 39 110 56 110 42z m-1110 -59
c0 -32 0 -32 -254 -161 -140 -71 -261 -126 -269 -123 -8 3 -16 16 -19 29 -4
23 13 33 251 156 141 72 264 132 274 132 13 0 17 -8 17 -33z m-805 -114 c19
-80 15 -124 -5 -53 -7 26 -25 56 -43 72 l-31 28 24 25 c29 30 31 28 55 -72z
m1968 14 l27 -23 -79 -42 -80 -43 -58 29 c-32 17 -69 39 -82 49 l-24 20 79 45
79 45 55 -29 c30 -16 67 -39 83 -51z m-13 67 c0 -14 -3 -14 -15 -4 -8 7 -15
14 -15 16 0 2 7 4 15 4 8 0 15 -7 15 -16z m-2280 -19 c17 -9 30 -19 30 -24 0
-12 -31 -37 -77 -60 -35 -17 -53 -20 -97 -15 -46 6 -61 3 -91 -15 -40 -23 -67
-29 -47 -9 9 9 228 129 250 137 2 1 16 -6 32 -14z m1612 -141 l272 -136 -39
-24 c-42 -25 -96 -44 -129 -44 -19 0 -19 0 0 21 18 20 18 21 0 35 -11 7 -100
54 -197 104 l-178 91 -63 -32 c-59 -30 -61 -32 -43 -46 35 -27 363 -183 402
-191 l38 -8 -50 -37 c-76 -56 -176 -80 -114 -27 23 20 24 20 5 35 -26 20 -371
195 -385 195 -6 0 -34 -14 -62 -32 -48 -29 -50 -32 -33 -46 42 -31 375 -192
399 -192 14 0 25 -6 25 -13 0 -11 -318 -201 -436 -260 l-50 -25 -65 35 c-35
19 -144 75 -241 125 -169 85 -178 91 -178 119 0 16 4 29 9 29 5 0 42 20 82 44
141 83 485 274 584 324 55 28 114 60 130 71 17 11 33 20 38 20 4 1 130 -60
279 -135z m1016 116 c-7 -11 -23 -20 -35 -20 -36 0 -27 -18 27 -51 46 -28 57
-49 27 -49 -7 0 -66 -31 -132 -69 l-119 -69 -35 17 c-20 9 -53 26 -74 37 l-39
22 54 30 c81 46 322 172 331 172 4 0 2 -9 -5 -20z m138 -23 c7 -7 -55 -47 -72
-47 -5 0 -18 6 -27 13 -14 11 -14 16 -2 44 l14 33 41 -19 c22 -10 43 -21 46
-24z m-2622 -36 c67 -46 116 -107 157 -198 21 -45 44 -83 50 -83 6 0 8 -8 4
-20 -4 -11 -7 -43 -9 -70 -3 -62 -27 -90 -118 -136 -37 -19 -70 -34 -73 -34
-3 0 -5 36 -5 79 0 140 -51 263 -151 363 l-56 57 76 35 c42 19 77 35 79 36 2
0 22 -13 46 -29z m2772 -38 c46 -27 84 -50 84 -53 0 -3 -30 -23 -66 -45 l-67
-38 -73 39 c-41 21 -83 46 -95 55 -21 16 -21 16 37 52 32 21 67 37 77 37 11 0
57 -21 103 -47z m-3438 -4 c11 -17 10 -23 -10 -39 -23 -18 -23 -18 -26 7 -7
50 14 68 36 32z m418 -38 c111 -51 195 -179 218 -333 14 -93 -33 -175 -114
-199 -35 -11 -44 -9 -94 15 -131 64 -234 264 -211 411 5 38 15 58 45 87 44 45
88 50 156 19z m1539 -27 c55 -25 70 -44 38 -44 -31 0 -143 58 -143 74 0 18 14
14 105 -30z m600 -3 l90 -48 3 -178 2 -177 -25 6 c-14 4 -60 26 -103 49 l-77
43 -3 144 c-3 143 2 210 16 210 4 0 48 -22 97 -49z m718 -26 c42 -25 77 -47
77 -49 0 -5 -162 -107 -198 -125 -19 -10 -34 -5 -117 41 -51 29 -92 54 -90 56
17 17 214 121 230 122 11 0 55 -20 98 -45z m257 6 c-43 -34 -372 -232 -376
-228 -10 9 171 127 321 209 78 42 92 47 55 19z m-2625 -90 c34 -50 46 -75 40
-88 -6 -15 -9 -12 -17 17 -5 19 -19 44 -32 55 -21 18 -56 74 -56 90 0 14 21
-9 65 -74z m2683 -108 l2 -171 -201 -120 c-111 -66 -207 -118 -214 -116 -17 7
-25 60 -25 164 0 139 5 154 64 198 55 41 261 172 271 172 3 0 23 11 43 25 20
14 41 24 47 22 6 -2 11 -70 13 -174z m-1488 152 c17 -9 30 -20 30 -25 0 -15
-38 -12 -65 6 -49 32 -19 47 35 19z m-300 -65 c87 -43 110 -59 95 -64 -23 -7
-247 101 -253 123 -6 19 23 8 158 -59z m1052 40 c63 -42 44 -56 -23 -18 -39
22 -45 29 -32 42 8 8 8 8 55 -24z m-72 -33 l95 -54 3 -144 c2 -79 0 -159 -3
-176 l-6 -33 -99 53 -100 52 0 178 c0 97 3 177 8 177 4 0 50 -24 102 -53z
m181 -23 c7 -8 9 -17 5 -21 -9 -9 -56 18 -56 33 0 15 35 7 51 -12z m83 -40 c9
-3 16 -15 16 -25 0 -18 -2 -19 -30 -4 -41 21 -28 45 14 29z m-1079 -27 c12
-10 15 -16 6 -21 -15 -10 -48 2 -55 19 -7 19 23 20 49 2z m1051 -38 l94 -50 0
-170 c0 -149 -2 -169 -16 -169 -9 0 -57 21 -105 47 l-89 47 0 173 c0 122 3
173 11 173 6 0 54 -23 105 -51z m101 16 c3 -9 3 -18 0 -21 -9 -9 -48 16 -42
27 9 14 35 11 42 -6z m-2187 -46 c0 -6 -4 -7 -10 -4 -5 3 -10 11 -10 16 0 6 5
7 10 4 6 -3 10 -11 10 -16z m1560 -131 c0 -12 114 -88 153 -101 19 -7 24 -37
5 -37 -7 1 -38 16 -68 35 -30 19 -69 41 -86 49 -39 18 -49 33 -34 51 15 18 30
19 30 3z m91 -13 c37 -20 29 -38 -11 -24 -36 13 -61 39 -36 39 9 0 30 -7 47
-15z m1029 -19 c0 -4 -192 -118 -348 -206 -167 -95 -107 -46 80 65 101 59 197
116 213 126 28 17 55 25 55 15z m73 -47 c23 -12 52 -29 65 -37 l23 -15 -43
-25 c-151 -87 -272 -161 -327 -200 l-65 -46 -65 35 c-35 19 -66 39 -68 46 -2
6 27 31 64 56 69 46 352 205 366 206 4 1 27 -9 50 -20z m-1023 -287 l0 -184
-72 40 c-40 22 -88 48 -105 58 l-33 19 0 182 0 181 105 -56 105 -57 0 -183z
m192 196 c-15 -15 -167 66 -156 83 3 5 41 -10 85 -33 48 -25 76 -45 71 -50z
m-452 41 c0 -14 -13 -26 -46 -41 -68 -30 -80 -8 -18 31 58 36 64 37 64 10z
m324 -23 c10 -16 22 -23 33 -20 11 3 28 -5 42 -20 13 -13 29 -22 37 -19 7 3
28 -4 46 -15 25 -14 41 -17 66 -12 42 10 49 -3 16 -29 -34 -27 -34 -27 -97 8
-28 15 -82 45 -119 65 -47 26 -66 41 -62 51 9 21 19 19 38 -9z m1105 -20 c-23
-21 -442 -257 -447 -251 -12 13 52 56 245 165 105 60 192 103 197 99 5 -5 8
-10 5 -13z m-914 -18 c25 -11 34 -28 15 -28 -19 0 -59 23 -54 31 7 11 8 11 39
-3z m-505 -17 c0 -13 -24 -33 -77 -64 -141 -83 -217 -117 -228 -106 -7 8 -3
16 14 27 36 26 275 162 284 162 4 0 7 -9 7 -19z m1573 -33 c42 -22 77 -43 77
-47 0 -4 -98 -64 -217 -135 l-217 -129 -99 50 -100 50 74 46 c202 126 365 215
384 210 11 -3 55 -23 98 -45z m-1723 22 c-14 -11 -62 -39 -107 -62 -46 -23
-90 -49 -99 -59 -15 -17 -15 -20 6 -46 12 -15 30 -28 39 -29 25 -2 72 -34 65
-45 -6 -10 -204 89 -204 102 0 4 35 26 78 50 42 23 104 57 137 75 33 19 71 34
85 34 l25 0 -25 -20z m546 -46 l104 -55 0 -174 c0 -109 -4 -176 -10 -180 -6
-4 -56 19 -110 50 l-100 56 0 180 c0 98 3 179 6 179 4 0 53 -25 110 -56z m274
-9 c0 -3 -8 -17 -17 -32 -16 -25 -16 -26 7 -45 23 -19 25 -27 28 -149 3 -76 1
-129 -5 -129 -5 0 -39 -18 -76 -40 -36 -22 -67 -40 -69 -40 -3 0 -2 257 1 356
1 26 9 37 44 58 38 23 87 34 87 21z m-670 -29 c0 -37 -199 -151 -223 -127 -16
16 3 32 113 90 104 56 110 57 110 37z m1664 -26 c-19 -19 -429 -261 -452 -267
-27 -6 -112 30 -139 59 -15 17 -15 18 1 18 28 0 86 -28 92 -45 8 -20 47 -19
92 4 20 10 120 69 222 130 180 108 204 121 184 101z m-844 -51 c88 -46 126
-74 113 -82 -12 -8 -117 46 -183 94 -66 49 -38 44 70 -12z m874 -201 l-6 -176
-177 -105 c-226 -134 -266 -157 -274 -157 -4 0 -7 88 -7 195 l0 195 43 27 c23
15 125 78 227 140 l185 113 8 -28 c4 -15 5 -107 1 -204z m-1690 170 c6 -26 -9
-41 -63 -65 -33 -14 -81 -11 -81 5 0 8 118 82 131 82 4 0 9 -10 13 -22z m856
-61 c71 -38 79 -45 84 -77 7 -44 6 -217 -3 -292 l-6 -57 -100 53 -100 53 -3
191 -2 192 26 -10 c15 -6 61 -29 104 -53z m-1235 20 c33 -19 224 -125 425
-236 201 -112 453 -252 560 -312 107 -59 249 -139 315 -177 109 -63 120 -73
123 -101 2 -17 1 -31 -3 -31 -3 0 -83 44 -178 99 -95 54 -390 218 -657 366
-672 370 -677 373 -684 391 -17 44 20 44 99 1z m196 -37 l24 -19 -22 -1 c-12
0 -27 9 -33 20 -14 26 1 26 31 0z m1218 -5 c8 -8 12 -17 8 -21 -12 -12 -56 6
-68 27 -10 20 -9 21 17 15 16 -4 35 -14 43 -21z m-969 -15 c0 -19 -63 -38 -88
-27 -23 11 -23 11 14 33 28 17 42 20 56 13 10 -5 18 -14 18 -19z m-105 -55
c93 -53 107 -65 79 -65 -12 0 -29 9 -39 20 -10 11 -23 20 -28 20 -21 0 -95 41
-101 55 -8 23 3 19 89 -30z m204 11 l25 -14 -41 -20 c-37 -19 -42 -20 -63 -5
l-23 16 34 18 c41 22 38 22 68 5z m916 -39 l100 -52 0 -187 c0 -102 -3 -189
-6 -192 -3 -3 -51 20 -107 50 l-102 56 0 189 c0 104 3 189 8 189 4 -1 52 -24
107 -53z m-807 -20 c10 -8 4 -14 -25 -23 -21 -8 -41 -14 -45 -14 -17 0 -7 30
14 44 21 15 29 14 56 -7z m-167 -37 c23 -19 23 -19 4 -20 -21 0 -45 17 -45 32
0 14 17 9 41 -12z m229 -42 c-32 -14 -46 -15 -62 -7 -19 10 -18 12 18 29 30
13 44 14 63 6 23 -10 22 -11 -19 -28z m-145 -8 c3 -6 0 -10 -7 -10 -15 0 -38
19 -38 32 0 10 36 -8 45 -22z m1578 13 c18 -9 49 -27 71 -40 l38 -25 -83 -47
c-46 -26 -214 -122 -372 -214 -159 -92 -292 -167 -296 -167 -5 0 -14 6 -20 14
-10 12 15 31 146 109 213 127 458 266 499 283 39 16 46 49 14 59 -11 3 -25 15
-30 26 -13 23 -8 24 33 2z m-1085 -20 c-2 -11 -40 -37 -93 -65 -101 -53 -108
-55 -103 -31 3 17 161 112 186 113 8 0 12 -8 10 -17z m-343 -73 c9 -14 -10
-12 -52 5 -40 17 -73 43 -73 57 0 10 116 -47 125 -62z m118 58 c21 -11 20 -12
-18 -28 -30 -13 -47 -15 -68 -7 l-28 9 28 18 c33 22 57 24 86 8z m240 -87 c7
-29 -85 -78 -119 -62 -13 6 -24 14 -24 19 0 9 122 71 131 66 4 -2 9 -12 12
-23z m1211 -22 c3 -17 6 -40 6 -50 0 -19 -68 -72 -82 -63 -4 3 -8 27 -8 54 0
44 3 50 33 68 43 27 44 27 51 -9z m-1425 -25 c18 -9 35 -22 38 -30 3 -8 13
-14 24 -14 20 0 120 -56 160 -89 l24 -21 -42 15 c-23 7 -59 25 -80 39 -21 15
-41 26 -45 26 -14 0 -128 71 -128 80 0 14 12 12 49 -6z m296 -18 c18 -13 15
-15 -33 -40 -47 -24 -55 -25 -73 -12 -20 14 -20 15 17 40 44 29 62 32 89 12z
m1005 -16 c0 -31 -6 -35 -34 -24 -21 8 -20 24 2 40 26 20 32 17 32 -16z m-905
-34 c18 -13 15 -15 -33 -40 -73 -37 -120 -33 -74 6 17 15 72 47 83 48 3 0 14
-6 24 -14z m82 -53 c5 -13 -71 -63 -97 -63 -32 0 -23 16 28 48 48 31 63 34 69
15z m-181 -47 c22 -17 11 -35 -13 -20 -19 12 -29 34 -16 34 5 0 18 -6 29 -14z
m254 -9 c0 -21 -77 -60 -96 -49 -14 8 -9 14 27 36 49 29 69 33 69 13z m105
-27 c11 -18 -118 -80 -134 -64 -10 9 31 34 56 34 13 0 23 6 23 14 0 22 43 35
55 16z m-205 -51 c37 -22 71 -47 74 -55 3 -8 10 -13 16 -9 5 3 24 -2 42 -12
28 -15 30 -18 13 -21 -12 -1 -63 21 -115 51 -124 70 -140 80 -140 90 0 13 35
-1 110 -44z m210 -152 c0 -20 -32 -47 -55 -47 -15 0 -1 41 17 54 30 22 38 20
38 -7z"/>
<path d="M712 5563 c-20 -8 -42 -59 -42 -98 0 -47 20 -93 60 -139 61 -69 124
-85 159 -40 75 95 -69 321 -177 277z m93 -70 c51 -51 80 -144 56 -182 -24 -37
-121 43 -141 117 -22 84 28 121 85 65z"/>
<path d="M744 5476 c-6 -17 16 -62 46 -93 45 -49 53 -18 15 57 -25 49 -50 64
-61 36z"/>
<path d="M2489 5098 c-19 -11 -42 -27 -52 -36 -16 -14 -15 -17 22 -41 21 -14
107 -59 190 -100 l152 -75 66 33 c36 17 64 34 62 35 -2 2 -94 49 -205 104
l-201 101 -34 -21z m192 -105 c82 -42 149 -80 149 -84 0 -23 -31 -13 -151 47
-155 77 -181 93 -173 105 9 16 24 10 175 -68z"/>
<path d="M2276 4976 c-31 -17 -56 -33 -56 -36 0 -3 42 -28 93 -56 50 -28 134
-74 184 -103 51 -28 98 -51 105 -51 14 0 118 62 118 70 0 3 -42 27 -92 52 -51
26 -139 71 -194 101 l-102 54 -56 -31z m194 -91 c116 -58 168 -94 137 -95 -26
0 -250 116 -273 141 -19 22 -19 22 6 14 14 -4 72 -31 130 -60z"/>
<path d="M1394 5181 c-78 -47 -63 -176 32 -281 19 -21 55 -46 79 -56 41 -15
46 -15 70 0 13 9 32 30 41 48 41 80 -32 234 -138 289 -46 23 -46 23 -84 0z
m112 -67 c66 -67 96 -180 58 -218 -21 -21 -35 -20 -75 7 -60 40 -99 118 -99
198 0 44 5 49 46 49 25 0 43 -9 70 -36z"/>
<path d="M1410 5097 c0 -26 69 -132 103 -159 55 -44 77 -3 26 47 -16 16 -46
53 -65 82 -37 56 -64 69 -64 30z"/>
<path d="M6775 4214 c-45 -25 -814 -459 -1280 -724 -225 -128 -463 -262 -528
-299 -128 -72 -207 -126 -207 -141 0 -5 30 -27 68 -48 64 -38 838 -467 1117
-620 72 -39 138 -77 147 -84 15 -11 0 -23 -120 -89 -75 -42 -427 -238 -782
-436 -604 -337 -742 -413 -754 -413 -3 0 11 34 30 74 39 82 39 120 1 114 -17
-2 -37 -32 -84 -123 -72 -140 -84 -182 -58 -201 24 -18 104 -40 192 -53 110
-17 140 -15 154 10 17 33 -14 57 -91 70 -97 17 -101 22 -49 55 25 16 91 54
147 84 57 30 432 237 835 461 654 362 732 408 735 431 2 19 -4 31 -25 46 -28
19 -708 398 -1037 576 -98 54 -199 110 -223 125 l-45 28 34 20 c61 38 1062
603 1788 1010 63 36 124 73 135 84 17 17 18 21 5 34 -24 23 -71 27 -105 9z
m-55 -89 c0 -2 -10 -9 -22 -15 -22 -11 -22 -10 -4 4 21 17 26 19 26 11z m-110
-60 c0 -2 -10 -9 -22 -15 -22 -11 -22 -10 -4 4 21 17 26 19 26 11z m-1763
-1009 c0 -8 -6 -12 -15 -9 -11 5 -11 7 0 14 7 5 13 9 14 9 0 0 1 -6 1 -14z
m1266 -720 c26 -15 47 -30 47 -33 0 -7 -92 45 -120 69 l-25 20 25 -14 c14 -8
46 -27 73 -42z"/>
<path d="M1315 3999 c-198 -111 -439 -244 -535 -296 -96 -52 -181 -102 -187
-111 -10 -12 -13 -152 -13 -622 l0 -607 40 -16 c48 -19 50 -32 8 -55 -66 -36
-68 -40 -68 -176 l0 -125 53 -29 c28 -16 80 -45 114 -63 l61 -34 46 22 46 23
0 100 0 100 -51 29 c-28 16 -47 31 -41 34 5 4 29 -5 53 -18 24 -14 74 -41 112
-60 37 -19 67 -39 67 -43 0 -5 -27 -16 -60 -25 -38 -11 -60 -22 -60 -31 0 -25
17 -27 101 -10 93 19 140 14 208 -20 79 -40 175 -122 184 -156 9 -35 -19 -22
-58 26 -52 63 -163 135 -218 141 -110 13 -196 -88 -197 -228 0 -164 95 -325
230 -387 88 -41 135 -36 277 31 65 31 135 57 156 59 l38 3 3 -58 c2 -31 5 -59
8 -62 7 -7 530 -286 563 -300 26 -12 35 -10 77 11 58 29 56 29 51 1 -3 -13 0
-59 6 -103 22 -158 121 -302 253 -369 91 -45 127 -45 215 1 109 57 108 55 95
172 -20 169 -81 302 -181 394 -57 52 -76 62 -151 84 -41 11 -42 13 -14 13 17
1 58 -13 92 -30 147 -73 267 -290 275 -495 l3 -68 85 -45 85 -45 195 103 c107
57 307 163 444 236 138 72 260 138 272 145 46 29 34 167 -17 203 -17 12 -19
37 -22 292 l-4 280 -48 209 c-49 219 -100 385 -143 471 -56 112 -126 171 -309
263 l-100 50 -1 219 c0 143 -4 226 -11 239 -12 22 -268 170 -797 461 -421 232
-863 473 -867 473 -2 0 -165 -91 -363 -201z m574 38 c113 -63 463 -255 776
-427 314 -172 576 -318 583 -325 11 -10 -6 -23 -85 -67 -113 -64 -757 -410
-851 -457 l-63 -32 -117 64 c-64 36 -418 226 -787 422 -369 197 -674 361 -678
365 -5 4 92 64 215 133 345 195 782 435 792 436 5 1 101 -50 215 -112z m-1204
-517 c6 -5 44 -26 85 -48 355 -187 1401 -749 1423 -764 l27 -19 0 -575 0 -574
-52 26 c-29 15 -123 66 -208 114 -85 48 -263 146 -395 218 -132 71 -349 188
-482 260 -132 72 -291 156 -352 186 l-111 56 0 524 c0 288 3 544 6 570 6 41 9
46 28 40 12 -4 26 -10 31 -14z m2625 -480 c0 -104 -4 -190 -8 -190 -5 0 -33
13 -62 29 l-54 29 -50 -25 c-28 -14 -177 -95 -331 -181 -154 -85 -308 -170
-343 -189 -84 -46 -128 -86 -144 -131 -10 -28 -13 -118 -11 -375 l2 -338 23
-19 c13 -10 75 -47 138 -81 171 -92 330 -189 330 -201 0 -18 -46 0 -142 55
-51 29 -140 79 -198 112 -58 32 -124 69 -148 82 l-42 24 2 527 3 527 95 50
c52 28 187 100 300 160 428 227 615 325 628 325 9 0 12 -45 12 -190z m13 -257
c296 -160 353 -202 392 -296 27 -65 15 -74 -16 -12 -17 33 -37 70 -45 82 l-14
22 -62 -38 c-35 -21 -198 -114 -363 -206 -165 -92 -314 -178 -330 -190 -28
-20 -33 -21 -50 -8 -11 8 -78 46 -150 85 -71 39 -172 93 -223 121 -98 53 -109
70 -62 95 14 7 194 105 400 217 206 113 377 205 378 205 2 0 68 -34 145 -77z
m338 -339 c58 -128 182 -617 166 -657 -2 -7 -47 -34 -98 -61 -52 -27 -155 -84
-229 -126 -173 -99 -319 -172 -329 -165 -5 2 -12 26 -15 52 -22 151 -114 419
-196 569 l-39 70 212 117 c117 65 271 151 342 191 72 41 136 75 143 75 7 1 27
-29 43 -65z m-1122 -190 c183 -96 263 -147 238 -152 -9 -2 -70 25 -135 59
-153 82 -209 109 -226 109 -11 0 -14 -49 -18 -262 -3 -145 -2 -269 2 -277 11
-21 494 -271 499 -258 6 17 -57 62 -164 118 -55 28 -144 76 -197 106 l-98 54
0 230 c0 126 3 229 6 229 15 0 264 -134 308 -166 39 -29 55 -51 87 -119 48
-102 101 -287 132 -460 13 -71 28 -130 33 -130 5 0 10 30 12 66 2 50 -6 101
-38 224 -45 180 -43 165 -31 165 12 0 24 -36 65 -190 40 -154 59 -255 54 -293
l-3 -26 -62 39 c-34 22 -142 84 -240 138 -98 54 -229 127 -290 163 l-113 64 1
317 c0 174 3 319 7 322 11 12 28 5 171 -70z m1278 -65 c18 -68 39 -158 48
-199 8 -41 22 -104 31 -140 14 -52 18 -126 20 -367 l4 -302 -164 -90 c-171
-95 -306 -161 -328 -161 -40 1 128 104 355 216 l117 59 0 236 c0 131 -3 245
-6 254 -6 14 -9 14 -28 -4 -11 -11 -59 -41 -106 -66 -47 -26 -142 -78 -211
-116 -70 -38 -153 -79 -185 -90 -76 -27 -93 -36 -129 -69 -32 -29 -106 -80
-116 -80 -3 0 -9 39 -12 88 -10 159 -118 530 -198 682 -23 44 -31 65 -18 50
62 -73 168 -349 199 -516 17 -97 46 -188 63 -198 12 -8 30 -4 74 18 53 25 642
345 652 353 14 11 -55 337 -117 557 -3 13 -1 17 9 14 8 -3 27 -55 46 -129z
m-2876 -16 c30 -35 -78 3 -169 61 -23 14 -42 33 -42 42 0 11 25 2 100 -37 55
-29 105 -58 111 -66z m-205 41 c24 -14 41 -30 38 -35 -7 -11 -126 51 -132 69
-5 16 31 3 94 -34z m-96 -114 c0 -101 -7 -121 -28 -75 -15 32 -15 88 -1 138
18 65 29 41 29 -63z m138 23 l62 -37 0 -72 c0 -63 -3 -75 -22 -88 -29 -20 -38
-12 -38 35 0 21 -4 39 -10 39 -5 0 -10 -4 -10 -10 0 -18 -18 -10 -25 10 -8 26
-25 16 -25 -15 0 -18 -4 -22 -20 -18 -17 5 -20 14 -20 62 0 87 10 131 29 131
9 0 44 -17 79 -37z m262 2 c50 -25 65 -45 34 -45 -17 0 -101 46 -110 61 -10
17 26 9 76 -16z m1803 -63 c22 -24 85 -160 93 -199 12 -62 -14 -34 -46 50 -18
45 -43 101 -57 125 -25 42 -20 57 10 24z m-1632 -29 c39 -21 73 -43 76 -50 3
-7 14 -13 25 -13 11 0 38 -11 61 -24 23 -13 87 -47 142 -76 140 -74 190 -107
174 -112 -16 -6 -132 50 -194 92 -22 15 -50 30 -61 34 -12 4 -47 21 -79 39
-31 17 -96 53 -143 79 -80 43 -110 68 -83 68 7 0 43 -17 82 -37z m-12 -127
c82 -39 166 -156 196 -271 21 -83 19 -123 -10 -182 -23 -45 -31 -52 -70 -62
-64 -16 -94 -14 -150 13 -113 54 -205 202 -205 333 0 83 32 145 94 184 34 21
81 16 145 -15z m359 -145 l67 -37 -4 -99 c-3 -92 -10 -114 -33 -115 -5 0 -8
33 -8 73 0 115 -28 183 -63 148 -8 -8 -6 -20 6 -46 19 -40 23 -160 6 -185 -7
-11 -8 -5 -3 23 13 78 -25 206 -85 287 l-26 34 38 -23 c20 -12 68 -39 105 -60z
m-87 -103 c27 -87 23 -169 -9 -201 l-22 -22 6 76 c6 66 3 86 -20 157 -15 45
-24 87 -20 93 12 20 42 -27 65 -103z m375 29 c120 -64 167 -104 82 -70 -58 23
-158 82 -158 93 0 5 -12 10 -27 12 -24 3 -47 28 -25 28 6 0 63 -28 128 -63z
m-86 -200 c0 -157 -1 -169 -17 -162 -10 4 -30 12 -45 17 l-28 10 0 174 0 174
45 -22 45 -22 0 -169z m380 -38 l85 -47 3 -153 c1 -84 0 -159 -2 -166 -6 -15
-97 28 -308 144 l-118 64 0 170 0 170 128 -68 c70 -37 165 -88 212 -114z
m1730 171 c0 -6 -24 -21 -53 -34 -29 -13 -69 -37 -88 -53 -18 -17 -59 -43 -89
-58 -30 -15 -110 -59 -178 -98 l-124 -70 5 -127 c4 -133 8 -150 35 -150 27 0
292 142 303 162 15 27 2 56 -27 60 l-25 3 30 36 c25 31 29 41 24 77 -3 23 -6
42 -7 42 -15 0 -85 -43 -90 -55 -10 -26 -7 -70 5 -82 7 -7 7 -23 -2 -54 -17
-59 -27 -71 -49 -59 -37 20 -56 12 -73 -30 -16 -42 -47 -55 -47 -20 0 17 -5
19 -25 14 -23 -6 -25 -4 -25 30 0 34 1 36 21 25 17 -9 25 -7 43 10 12 12 32
21 43 21 12 0 36 12 53 26 38 33 37 64 -4 79 -24 8 -31 6 -47 -14 -10 -13 -19
-32 -19 -43 0 -14 -5 -18 -17 -14 -10 3 -30 8 -45 12 -60 14 -27 42 174 148
59 31 115 56 124 56 13 0 15 -10 10 -67 -6 -86 -6 -79 0 -141 4 -34 10 -52 17
-49 8 2 14 55 18 158 3 85 7 155 7 156 3 4 121 63 127 63 3 0 5 -75 5 -167 l0
-168 -133 -68 c-72 -37 -195 -103 -272 -147 -77 -44 -142 -80 -145 -80 -3 0
-7 55 -9 123 -4 173 -10 202 -41 202 -35 0 -39 -32 -6 -45 l26 -10 0 -143 0
-144 -113 -58 c-107 -56 -114 -58 -141 -44 -25 12 -31 23 -42 74 -16 80 -35
123 -89 205 -45 68 -123 136 -186 163 -28 12 -399 215 -449 246 -11 6 -12 12
-5 20 12 12 20 9 180 -83 55 -32 210 -114 345 -183 135 -69 251 -130 258 -135
8 -8 12 -51 12 -154 0 -139 1 -144 21 -144 20 0 20 4 18 191 -1 105 2 194 7
199 9 8 551 311 664 371 56 30 90 37 90 19z m-1818 -46 c21 -11 27 -19 20 -26
-7 -7 -20 -4 -41 8 -53 31 -35 47 21 18z m89 -44 c18 -10 27 -40 11 -40 -16 0
-52 32 -47 41 8 11 12 11 36 -1z m89 -68 c0 -10 -5 -10 -20 -2 -11 6 -20 17
-20 25 0 13 3 13 20 3 11 -7 20 -19 20 -26z m142 -50 c46 -27 113 -65 151 -86
37 -20 65 -41 62 -46 -3 -5 -25 -7 -49 -4 -73 10 -149 -42 -195 -134 -15 -30
-27 -42 -39 -40 -15 3 -17 23 -20 181 -1 97 0 177 2 177 3 0 43 -22 88 -48z
m1269 -75 c-20 -20 -21 -20 -21 -3 0 11 8 28 18 39 16 18 17 18 20 2 2 -10 -5
-27 -17 -38z m-763 -1 c15 -8 35 -24 45 -36 10 -11 22 -18 27 -15 13 8 120
-54 120 -71 0 -8 -3 -14 -7 -14 -14 0 -233 132 -233 141 0 13 17 11 48 -5z
m-189 -93 c128 -74 187 -139 237 -261 21 -51 34 -145 17 -129 -9 10 -83 208
-83 224 0 7 -5 13 -12 13 -6 0 -37 25 -68 54 -32 30 -83 67 -114 83 -31 15
-56 31 -56 35 0 16 34 8 79 -19z m959 -31 c2 -7 -6 -12 -17 -12 -21 0 -27 11
-14 24 9 9 26 2 31 -12z m-1053 -36 c131 -61 242 -254 260 -452 l7 -71 -66
-31 c-37 -17 -78 -35 -92 -38 -37 -9 -163 57 -215 113 -85 92 -146 285 -120
379 30 110 120 150 226 100z m1385 -39 l0 -52 -93 -52 c-50 -28 -173 -94 -272
-146 -99 -52 -246 -131 -328 -176 -81 -44 -151 -81 -157 -81 -15 0 -21 18 -14
44 5 20 48 48 231 146 124 67 231 123 237 124 6 1 16 4 21 7 6 4 22 9 36 13
15 3 44 21 66 38 21 18 89 60 151 93 101 54 112 62 107 83 -4 15 -2 21 5 17 5
-3 10 -30 10 -58z m-590 -237 c0 -5 -7 -10 -15 -10 -8 0 -18 0 -22 -1 -4 0 -9
4 -11 10 -2 6 8 11 22 11 14 0 26 -4 26 -10z m-80 -37 c0 -8 -29 -27 -139 -90
-57 -33 -106 -43 -99 -20 2 6 49 35 103 64 94 49 135 63 135 46z m-330 -84 c0
-20 -4 -29 -12 -27 -15 5 -22 33 -14 54 9 24 26 6 26 -27z m85 -129 c-4 -14
-8 -26 -10 -28 -1 -2 -24 7 -49 20 -56 27 -61 59 -11 69 41 8 79 -25 70 -61z"/>
<path d="M3150 2070 c0 -12 503 -260 526 -260 2 0 4 4 4 8 0 5 -39 29 -87 54
-101 53 -427 208 -437 208 -3 0 -6 -5 -6 -10z"/>
<path d="M3160 1896 c25 -24 349 -188 362 -184 15 5 -81 62 -238 142 -111 56
-154 71 -124 42z"/>
<path d="M3161 1772 c30 -43 132 -113 212 -147 53 -22 46 -11 -20 32 -32 20
-91 59 -132 87 -48 32 -69 42 -60 28z"/>
<path d="M2677 1969 c-10 -36 -8 -87 2 -94 14 -8 25 80 13 100 -8 15 -10 15
-15 -6z"/>
<path d="M2610 1801 c0 -50 4 -92 9 -95 10 -6 21 121 13 159 -10 55 -22 20
-22 -64z"/>
<path d="M2663 1817 c2 -6 21 -15 42 -22 42 -11 57 -31 75 -100 7 -26 24 -51
47 -70 l36 -29 -16 31 c-9 17 -23 33 -30 36 -8 3 -18 26 -21 52 -10 63 -49
107 -99 110 -22 1 -36 -2 -34 -8z"/>
<path d="M1066 1789 c-70 -83 11 -263 134 -300 40 -12 42 -11 71 17 52 52 48
137 -9 222 -63 94 -147 120 -196 61z m72 -72 c0 -78 9 -97 67 -133 25 -16 45
-35 45 -42 0 -35 -64 -17 -106 30 -32 34 -64 103 -64 136 0 30 36 86 50 77 4
-2 8 -33 8 -68z m87 -6 c14 -21 29 -55 32 -76 6 -34 5 -37 -13 -27 -44 24 -74
77 -66 119 6 33 18 29 47 -16z"/>
<path d="M3789 1519 c-16 -16 -18 -24 -10 -32 16 -16 45 3 49 32 4 27 -12 27
-39 0z"/>
<path d="M2481 1041 c-27 -25 -31 -36 -31 -82 0 -87 60 -184 149 -240 57 -37
82 -36 123 0 30 27 33 34 32 83 -2 86 -63 186 -148 242 -51 34 -86 33 -125 -3z
m73 -75 c-9 -79 34 -145 118 -180 43 -17 43 -46 1 -46 -67 0 -155 91 -177 182
-7 31 8 78 31 95 26 20 33 5 27 -51z m136 -92 c15 -43 7 -53 -27 -34 -41 23
-65 63 -70 116 l-4 49 45 -48 c24 -26 50 -63 56 -83z"/>
<path d="M7955 3392 l-290 -167 -3 -216 -2 -215 -46 -23 c-99 -47 -660 -374
-686 -399 -34 -31 -25 -34 -233 88 -148 86 -1099 617 -1204 672 -79 41 -136
36 -129 -13 2 -19 35 -41 168 -114 91 -50 253 -140 360 -199 107 -60 300 -167
429 -238 128 -72 304 -171 390 -222 l156 -92 3 -47 c3 -47 4 -49 70 -91 37
-24 150 -87 252 -141 357 -189 1001 -543 1360 -747 103 -58 209 -117 237 -131
l50 -26 59 28 c82 39 94 56 98 131 l3 62 269 143 269 142 6 -39 c8 -57 19 -63
76 -44 26 9 71 31 100 48 l53 32 0 91 c0 49 -3 100 -6 113 -7 24 -132 106
-248 164 -78 38 -77 36 -75 254 1 120 -2 159 -13 169 -12 12 -273 164 -510
298 l-88 49 0 262 c-1 258 -1 261 -23 277 -38 27 -543 309 -553 308 -5 0 -139
-75 -299 -167z m390 72 c41 -25 75 -47 75 -48 0 -2 -37 -25 -82 -51 -215 -124
-438 -279 -364 -251 21 7 184 104 359 213 l119 74 34 -18 c20 -10 36 -22 36
-28 3 -21 -467 -285 -507 -285 -16 0 -205 100 -258 135 -18 13 -28 6 388 247
55 32 105 58 112 58 7 0 46 -21 88 -46z m402 -228 c10 -9 -1 -22 -48 -60 -68
-55 -114 -75 -179 -76 -42 0 -53 -7 -152 -90 -103 -87 -107 -90 -135 -78 -47
20 -183 99 -183 106 0 4 82 52 182 107 100 55 216 121 257 147 l76 47 85 -46
c47 -25 91 -50 97 -57z m37 -72 c3 -9 6 -118 6 -242 l0 -227 -208 -121 c-251
-147 -299 -174 -306 -174 -3 0 -6 105 -6 233 l0 232 73 66 c152 137 141 131
227 145 71 11 87 18 138 58 64 51 67 53 76 30z m-911 -111 l77 -45 0 -228 0
-229 -32 14 c-45 18 -179 94 -200 113 -16 13 -18 35 -18 177 0 89 3 190 6 223
l7 61 41 -21 c22 -11 76 -41 119 -65z m72 4 c6 -6 -21 7 -60 28 -38 21 -74 42
-80 48 -5 6 22 -7 60 -28 39 -21 75 -42 80 -48z m-2415 -3 c0 -2 -9 0 -20 6
-11 6 -20 13 -20 16 0 2 9 0 20 -6 11 -6 20 -13 20 -16z m2470 -30 c0 -2 -9 0
-20 6 -11 6 -20 13 -20 16 0 2 9 0 20 -6 11 -6 20 -13 20 -16z m-2340 -40 c0
-2 -13 2 -30 11 -16 9 -30 18 -30 21 0 2 14 -2 30 -11 17 -9 30 -18 30 -21z
m2489 -91 l83 -46 -4 -218 c-2 -120 -7 -221 -10 -224 -7 -8 -47 12 -154 76
l-81 49 -5 49 c-3 26 -3 130 0 229 l5 182 41 -26 c22 -13 79 -45 125 -71z
m-2399 41 c0 -2 -13 2 -30 11 -16 9 -30 18 -30 21 0 2 14 -2 30 -11 17 -9 30
-18 30 -21z m70 -40 c0 -2 -13 2 -30 11 -16 9 -30 18 -30 21 0 2 14 -2 30 -11
17 -9 30 -18 30 -21z m1840 -162 c0 -16 -34 -39 -82 -57 -26 -10 -48 -25 -51
-35 -3 -10 -22 -29 -43 -43 -67 -41 -433 -239 -454 -244 -38 -10 -20 17 33 51
128 81 499 286 518 286 12 0 23 8 26 19 6 23 53 42 53 23z m1340 -173 c0 -8
-90 -64 -270 -169 -69 -40 -151 -91 -183 -112 l-58 -39 -94 53 c-52 29 -95 56
-95 60 0 16 146 88 180 88 22 0 30 3 22 9 -19 11 -3 22 172 122 l151 87 87
-47 c48 -25 88 -49 88 -52z m-1203 25 c67 -37 79 -54 38 -54 -16 0 -42 16 -70
41 -24 22 -48 38 -53 35 -11 -6 -52 21 -52 35 0 12 56 -11 137 -57z m-90 -52
l102 -67 0 -233 1 -233 -22 7 c-13 3 -64 29 -114 57 -91 50 -92 51 -98 95 -3
25 -6 137 -6 249 0 191 1 205 18 199 9 -4 63 -37 119 -74z m-177 19 c0 -11
-12 -28 -28 -39 -53 -38 -386 -222 -402 -222 -8 0 -21 4 -29 9 -11 7 -5 15 25
33 67 42 418 238 426 238 4 0 8 -9 8 -19z m1566 -42 c19 -11 34 -22 34 -24 0
-1 -62 -38 -137 -80 -221 -125 -348 -202 -362 -219 -12 -14 -17 -14 -52 6 -22
12 -39 28 -39 35 0 7 31 33 68 57 102 66 424 246 440 246 8 0 30 -9 48 -21z
m-1133 -15 c29 -15 88 -47 131 -72 l79 -45 -23 -19 c-12 -10 -25 -16 -29 -15
-54 28 -261 153 -261 158 0 7 19 14 43 18 4 0 31 -11 60 -25z m-430 -59 c-4
-13 -14 -19 -187 -115 -145 -81 -174 -91 -195 -66 -10 12 -8 16 11 21 23 7
236 126 318 177 41 26 45 27 51 11 3 -10 5 -23 2 -28z m1798 -61 l43 -27 -70
-34 c-38 -19 -161 -85 -274 -146 l-204 -110 -71 36 c-39 21 -80 44 -91 52 -19
14 -18 15 6 35 35 29 179 115 350 208 l145 80 62 -33 c34 -19 81 -46 104 -61z
m-1241 -296 c0 -131 -3 -238 -7 -238 -5 0 -60 31 -123 68 l-115 67 -3 242 -2
241 125 -71 125 -71 0 -238z m-557 276 c4 -23 -3 -31 -64 -70 -145 -93 -178
-108 -206 -95 -17 8 -23 15 -16 22 7 7 265 162 279 168 1 1 4 -11 7 -25z m726
-191 c-1 -251 -2 -255 -69 -297 l-55 -35 -3 227 c-1 125 0 232 2 239 7 17 64
41 99 42 l27 1 -1 -177z m-1389 141 c0 -2 -9 0 -20 6 -11 6 -20 13 -20 16 0 2
9 0 20 -6 11 -6 20 -13 20 -16z m185 -45 c130 -68 153 -84 141 -96 -8 -8 -286
150 -286 163 0 9 16 1 145 -67z m2345 -213 l0 -264 -262 -140 c-221 -117 -264
-137 -270 -124 -4 10 -7 128 -7 263 l-1 245 143 76 c114 61 384 202 395 207 1
1 2 -118 2 -263z m-1059 210 c11 -13 60 -48 109 -78 l90 -53 0 -191 c0 -105 3
-213 7 -239 8 -59 13 -60 -139 27 l-108 61 0 249 c0 259 3 273 41 224z m-811
-14 c0 -24 -10 -33 -63 -65 -65 -38 -91 -44 -116 -28 -12 8 -7 14 20 30 19 11
59 36 89 55 30 19 58 35 63 35 4 1 7 -12 7 -27z m-422 -89 c29 -18 134 -76
235 -129 196 -104 470 -256 877 -485 141 -79 331 -184 423 -234 l166 -90 1
-39 c0 -32 -3 -37 -17 -32 -9 4 -163 89 -342 190 -443 249 -844 471 -1096 606
-342 184 -430 231 -437 239 -4 3 -5 23 -1 44 l6 37 66 -36 c36 -21 90 -52 119
-71z m422 -27 c0 -51 -21 -63 -65 -36 -20 12 -35 23 -33 25 8 7 84 45 90 45 5
0 8 -15 8 -34z m-252 6 c3 -9 -2 -13 -14 -10 -9 1 -19 9 -22 16 -3 9 2 13 14
10 9 -1 19 -9 22 -16z m1422 -48 c0 -2 -13 2 -30 11 -16 9 -30 18 -30 21 0 2
14 -2 30 -11 17 -9 30 -18 30 -21z m-1346 17 c3 -4 3 -11 0 -14 -8 -8 -34 3
-34 14 0 11 27 12 34 0z m1418 -101 l48 -25 0 -237 c0 -131 -3 -238 -7 -238
-8 0 -215 109 -230 122 -10 8 -13 71 -13 250 l0 240 78 -43 c42 -24 98 -55
124 -69z m-1164 52 c21 -14 22 -16 7 -25 -11 -6 -27 -5 -45 3 -25 10 -27 15
-17 30 6 10 16 16 22 13 5 -4 20 -13 33 -21z m1182 -17 c0 -3 -18 4 -40 15
-22 11 -40 23 -40 25 0 3 18 -4 40 -15 22 -11 40 -23 40 -25z m-1250 -35 c62
-31 77 -45 60 -55 -16 -10 -130 57 -130 77 0 12 6 10 70 -22z m204 -29 c14
-23 -36 -21 -75 2 -37 22 -39 26 -23 35 14 8 28 5 55 -9 21 -10 40 -23 43 -28z
m171 -90 c3 -6 -3 -15 -13 -20 -15 -8 -29 -4 -64 18 -50 32 -62 46 -53 61 6
10 118 -41 130 -59z m-228 25 c4 -8 21 -16 37 -18 31 -3 49 -28 21 -28 -30 0
-129 62 -114 71 15 9 44 -4 56 -25z m1883 -48 c0 -5 -12 -8 -26 -8 -37 0 -94
37 -94 61 0 18 5 17 60 -13 33 -18 60 -36 60 -40z m-1742 -20 c7 -7 12 -18 12
-25 0 -11 -6 -10 -30 2 -17 9 -28 20 -25 25 8 14 29 12 43 -2z m198 -17 c45
-28 46 -29 25 -40 -18 -10 -30 -7 -77 20 -41 23 -52 34 -42 40 23 15 47 10 94
-20z m1461 -4 c-2 -7 -11 -13 -20 -15 -12 -3 -17 4 -17 23 0 23 2 25 21 15 11
-6 18 -17 16 -23z m-1233 -3 c3 -9 6 -24 6 -35 0 -12 18 -30 50 -50 28 -17 50
-35 50 -40 0 -15 -14 -10 -66 22 -27 18 -67 43 -88 57 l-40 25 23 18 c28 23
57 24 65 3z m-288 -51 c74 -41 96 -63 61 -63 -22 1 -168 91 -162 101 9 14 12
13 101 -38z m1679 37 c-9 -14 -113 -74 -325 -185 -102 -53 -260 -137 -352
-187 l-166 -89 -43 22 -43 21 25 14 c14 7 61 27 105 44 81 32 133 59 361 187
179 100 316 163 355 163 18 0 40 5 48 10 20 13 43 13 35 0z m-1467 -57 c23
-14 23 -15 5 -33 -17 -17 -20 -17 -48 -1 -16 9 -31 27 -33 39 -3 20 0 22 25
16 15 -3 39 -13 51 -21z m1537 8 c0 -8 -34 -33 -75 -56 -41 -23 -131 -74 -200
-114 -110 -64 -359 -190 -520 -263 -77 -35 -74 -35 -78 -17 -2 13 50 46 203
129 351 191 639 339 655 337 8 -1 15 -8 15 -16z m-1601 -79 c12 -10 42 -26 67
-36 45 -16 88 -51 77 -61 -7 -7 -181 90 -186 104 -6 17 19 13 42 -7z m177 1
c35 -21 37 -31 5 -39 -36 -9 -93 26 -80 48 8 13 44 9 75 -9z m1435 -37 c-6
-30 -16 -41 -67 -71 -33 -19 -62 -35 -65 -35 -7 0 -4 74 4 86 14 20 117 73
126 64 5 -5 6 -24 2 -44z m-1302 28 c22 -8 20 -24 -3 -24 -10 0 -21 7 -25 15
-6 16 3 19 28 9z m-4 -74 c53 -27 54 -28 28 -35 -31 -8 -136 44 -115 57 18 12
28 9 87 -22z m192 -32 c97 -55 123 -78 90 -78 -23 0 -176 90 -207 122 l-20 20
25 -7 c14 -4 64 -30 112 -57z m-286 -3 c4 -8 15 -15 26 -15 10 0 29 -10 42
-23 13 -13 30 -24 38 -24 14 0 207 -100 243 -127 11 -8 17 -17 13 -21 -7 -8
-76 26 -214 105 -55 32 -121 69 -147 81 -26 13 -47 27 -47 31 0 14 40 8 46 -7z
m212 -30 c54 -29 57 -32 43 -49 -12 -14 -18 -13 -62 11 -50 27 -58 38 -36 46
20 9 27 8 55 -8z m140 -81 c32 -22 27 -33 -10 -25 -20 4 -34 14 -36 24 -4 21
17 22 46 1z m102 -135 c69 -43 63 -56 -10 -19 -33 17 -60 35 -60 40 0 17 17
11 70 -21z m170 -87 c0 -47 -1 -48 -45 -70 l-45 -22 -6 25 c-10 41 9 78 44 87
17 5 34 13 37 18 12 19 15 10 15 -38z"/>
</g>
</svg>
