<?xml version="1.0" standalone="no"?>
<!DOCTYPE svg PUBLIC "-//W3C//DTD SVG 20010904//EN"
 "http://www.w3.org/TR/2001/REC-SVG-20010904/DTD/svg10.dtd">
<svg version="1.0" xmlns="http://www.w3.org/2000/svg"
 width="1024.000000pt" height="1024.000000pt" viewBox="0 0 1024.000000 1024.000000"
 preserveAspectRatio="xMidYMid meet">

<g transform="translate(0.000000,1024.000000) scale(0.100000,-0.100000)"
fill="#e0e0e0" stroke="none">
<path d="M4855 9413 c-176 -9 -553 -56 -627 -79 -9 -3 -15 -10 -13 -17 2 -7 6
-24 9 -38 l6 -26 97 18 c295 52 427 64 743 64 298 -1 413 -8 644 -42 99 -14
109 -14 124 1 23 22 6 47 -41 63 -131 44 -617 73 -942 56z"/>
<path d="M6149 9360 c-47 -25 -84 -96 -75 -143 19 -99 122 -156 205 -112 52
26 81 71 81 123 0 116 -111 185 -211 132z m105 -34 c112 -47 68 -212 -51 -193
-99 17 -121 146 -32 190 42 20 42 20 83 3z"/>
<path d="M2815 9348 c-2 -7 -29 -130 -59 -273 -31 -143 -62 -282 -69 -309
l-13 -49 -106 -34 c-58 -18 -167 -64 -242 -102 l-135 -68 -281 184 -281 184
-96 -88 c-52 -48 -126 -121 -164 -161 l-69 -74 27 -46 c15 -26 85 -139 157
-252 71 -113 138 -219 148 -237 l19 -32 -44 -83 c-50 -92 -127 -284 -148 -367
-7 -29 -18 -55 -24 -57 -5 -2 -116 -20 -245 -39 -129 -19 -272 -40 -318 -47
l-82 -12 0 -247 c0 -137 4 -250 8 -253 4 -2 147 -28 317 -57 171 -28 320 -55
333 -60 12 -5 22 -15 22 -23 0 -29 82 -260 126 -356 l47 -100 -73 -122 c-41
-68 -114 -188 -163 -267 -49 -79 -90 -149 -91 -156 -1 -16 301 -335 317 -335
7 0 35 15 62 33 28 18 93 57 145 87 52 29 109 61 126 72 l32 18 45 -92 c121
-248 352 -378 671 -378 l101 0 169 -288 c613 -1038 1298 -2221 1507 -2600 46
-84 103 -177 125 -206 73 -93 168 -141 305 -153 132 -12 259 39 360 144 141
146 180 314 113 492 -15 41 -111 196 -263 425 -252 382 -555 854 -921 1436
-123 195 -328 519 -455 720 -238 375 -255 402 -255 418 0 5 54 33 121 62 66
29 159 77 207 107 l87 55 44 -22 c24 -11 145 -87 269 -167 124 -80 233 -148
241 -150 10 -2 73 53 169 150 l154 154 -48 74 c-27 41 -105 169 -175 284
l-126 210 83 165 c46 91 94 199 108 240 19 58 30 77 48 82 13 5 151 28 308 53
157 26 295 48 308 51 l22 4 0 238 0 238 -322 58 c-178 32 -325 60 -327 62 -3
2 -22 57 -43 121 -36 110 -108 271 -160 356 -18 31 -20 41 -10 55 6 9 60 94
119 187 58 94 133 210 165 259 l59 90 -167 167 c-103 103 -172 165 -178 160
-33 -25 -421 -295 -468 -325 l-56 -36 -144 69 c-78 38 -188 83 -243 101 l-101
31 -26 137 c-40 204 -96 473 -102 488 -7 20 -494 21 -501 2z m415 -1079 c130
-20 227 -50 336 -103 335 -165 562 -455 629 -809 19 -101 19 -300 0 -409 -60
-344 -282 -651 -600 -833 -44 -25 -84 -45 -90 -45 -5 0 -21 28 -34 63 -33 87
-102 187 -172 251 l-61 54 104 53 c87 44 117 66 193 143 146 147 215 307 215
500 0 116 -20 199 -72 306 -34 68 -59 102 -128 170 -122 122 -238 179 -406
200 -343 43 -662 -164 -764 -495 -70 -230 -8 -509 151 -679 l60 -65 -36 -16
c-21 -8 -39 -15 -42 -15 -2 0 -19 -7 -38 -14 l-35 -15 100 -148 c55 -81 135
-197 176 -256 42 -59 74 -110 72 -112 -9 -9 -109 24 -169 56 -110 59 -511 440
-588 559 -103 159 -156 405 -132 621 46 425 320 791 715 954 192 79 437 113
616 84z m22 -562 c199 -73 346 -226 404 -422 24 -81 24 -229 0 -310 -39 -132
-122 -255 -233 -343 -71 -58 -140 -92 -234 -117 l-65 -17 -105 35 c-78 27
-129 38 -204 43 -119 8 -139 18 -225 111 -107 117 -160 256 -160 421 0 178 57
320 180 443 100 100 178 141 355 183 11 3 65 3 120 1 75 -2 117 -9 167 -28z
m-282 -1279 c208 -63 363 -227 416 -438 15 -60 15 -72 0 -170 -10 -58 -26
-140 -37 -182 l-19 -77 68 -108 c38 -59 341 -538 674 -1063 332 -525 704
-1108 824 -1295 332 -512 382 -597 400 -666 12 -47 13 -70 5 -110 -24 -110
-95 -199 -201 -253 -160 -80 -311 -45 -409 94 -21 30 -84 136 -138 235 -55 99
-342 596 -638 1105 -296 509 -621 1068 -722 1243 -196 340 -286 488 -308 510
-9 9 -52 16 -127 21 -311 20 -463 90 -577 265 -50 78 -73 164 -74 276 -1 83
18 225 31 225 3 0 21 -19 41 -42 20 -24 90 -101 156 -171 66 -71 140 -152 165
-179 l46 -51 203 161 c111 89 214 170 227 179 l24 18 -86 120 c-118 164 -244
352 -244 364 0 26 201 19 300 -11z"/>
<path d="M3254 5383 c-33 -26 -95 -77 -139 -112 -44 -36 -79 -69 -77 -74 2 -6
81 -139 176 -296 326 -539 647 -1086 1025 -1746 117 -203 216 -373 220 -377 3
-4 54 19 111 51 58 32 144 79 193 105 48 26 87 51 87 56 0 10 -298 487 -526
841 -362 565 -922 1463 -974 1564 -8 15 -20 30 -26 32 -7 2 -38 -17 -70 -44z
m256 -399 c230 -369 873 -1392 1018 -1619 63 -99 139 -219 168 -267 l53 -87
-52 -24 c-29 -13 -87 -45 -129 -70 l-78 -46 -23 42 c-345 609 -969 1675 -1276
2176 -28 46 -51 87 -51 91 0 4 31 31 70 59 38 29 72 57 76 63 12 18 40 -22
224 -318z"/>
<path d="M4829 2642 c-180 -94 -180 -343 0 -434 94 -48 192 -35 269 35 58 54
82 106 82 182 0 77 -24 129 -83 181 -80 71 -177 84 -268 36z m180 -127 c43
-37 56 -83 36 -132 -19 -48 -59 -73 -115 -73 -57 0 -110 50 -110 104 0 44 21
89 52 110 35 25 101 20 137 -9z"/>
<path d="M6562 9168 c-19 -19 -14 -46 11 -62 12 -8 87 -40 165 -70 264 -103
533 -242 780 -402 481 -314 949 -778 1211 -1202 69 -112 101 -143 126 -122 26
21 17 60 -32 139 -119 190 -315 432 -523 645 -411 420 -848 718 -1432 975
-211 93 -288 117 -306 99z"/>
<path d="M5093 8889 c-7 -7 -13 -21 -13 -30 0 -9 6 -21 13 -26 6 -6 89 -13
182 -16 714 -26 1393 -240 1970 -622 214 -142 475 -360 601 -503 71 -80 99
-99 119 -82 8 7 15 22 15 34 0 69 -368 402 -665 602 -447 301 -953 504 -1480
593 -267 46 -718 76 -742 50z"/>
<path d="M5897 8251 l-48 -118 -67 -7 c-37 -3 -95 -6 -129 -6 -35 0 -63 -3
-63 -7 1 -5 24 -27 53 -51 29 -23 72 -60 96 -80 l43 -38 -27 -117 c-15 -65
-25 -120 -22 -123 3 -3 53 24 111 61 l106 66 104 -65 c58 -36 107 -66 109 -66
2 0 -9 53 -24 117 -22 92 -25 120 -16 132 7 8 51 47 99 87 l86 72 -30 6 c-17
3 -65 6 -107 7 -120 2 -116 -1 -166 123 -24 60 -48 113 -52 117 -4 4 -30 -45
-56 -110z"/>
<path d="M9162 8340 c-45 -28 -76 -97 -67 -151 10 -57 67 -114 122 -124 57 -9
122 20 153 69 18 31 22 47 18 93 -4 50 -9 60 -46 95 -37 34 -47 38 -94 38 -36
0 -64 -7 -86 -20z"/>
<path d="M7415 7469 c-86 -12 -209 -76 -276 -143 l-54 -54 -225 -4 c-271 -5
-305 -14 -389 -103 l-52 -55 -317 0 c-394 0 -434 -9 -525 -110 -46 -50 -62
-83 -75 -150 -7 -37 -12 -874 -14 -2605 l-3 -2550 29 -63 c38 -83 126 -165
198 -187 44 -13 265 -15 1792 -15 1928 -1 1797 -5 1889 65 30 23 55 54 74 92
l28 58 0 2620 -1 2620 -21 46 c-30 66 -86 124 -151 156 l-57 28 -350 3 -349 3
-48 50 c-84 88 -106 93 -377 97 l-235 4 -51 52 c-114 115 -274 168 -440 145z
m207 -95 c44 -14 168 -87 168 -99 0 -3 -134 -5 -297 -5 l-298 1 30 25 c74 61
220 108 305 98 25 -3 66 -12 92 -20z m800 -219 c28 -20 53 -49 71 -85 28 -54
28 -56 25 -215 -3 -145 -5 -165 -27 -208 -32 -66 -85 -102 -169 -117 -48 -8
-296 -11 -877 -8 -796 3 -811 3 -855 24 -62 29 -106 81 -119 144 -16 75 -14
303 3 344 27 66 94 125 166 147 14 4 410 7 882 6 l856 -2 44 -30z m873 -141
c57 -30 104 -99 115 -171 6 -36 10 -1042 10 -2618 l0 -2561 -22 -44 c-28 -55
-90 -96 -169 -110 -36 -7 -626 -9 -1760 -8 l-1704 3 -45 21 c-51 23 -102 71
-128 118 -16 29 -17 190 -17 2621 l0 2590 22 41 c30 56 94 109 148 123 27 7
159 11 346 11 l302 0 -7 -37 c-3 -21 -6 -57 -6 -79 l0 -42 -254 -3 -254 -4
-43 -30 c-53 -38 -78 -71 -89 -121 -14 -58 -13 -4878 1 -4927 5 -21 23 -52 39
-70 l28 -32 1677 -3 c1860 -2 1721 -7 1751 63 12 29 14 387 13 2472 0 1341 -4
2471 -8 2512 -6 66 -10 77 -39 102 l-32 29 -285 0 -285 0 0 91 0 90 328 -3
c310 -3 329 -4 367 -24z m-2906 -310 c21 -107 60 -169 130 -211 32 -19 73 -34
105 -38 28 -3 429 -5 891 -3 784 3 843 4 887 21 101 40 180 142 194 255 l7 53
273 -3 c150 -2 276 -7 281 -11 4 -5 8 -1129 8 -2497 0 -1975 -3 -2492 -12
-2501 -18 -18 -3302 -14 -3319 4 -14 14 -24 4917 -11 4954 4 12 22 31 40 42
30 20 44 21 271 18 l239 -2 16 -81z"/>
<path d="M6958 6201 c-18 -21 -73 -94 -123 -162 -188 -260 -357 -484 -367
-488 -6 -2 -90 77 -188 174 l-179 178 -52 -14 c-29 -8 -54 -19 -56 -25 -9 -27
446 -484 482 -484 19 0 25 7 165 201 69 95 187 255 263 356 133 178 184 251
176 257 -32 24 -69 46 -77 46 -6 0 -25 -18 -44 -39z"/>
<path d="M6171 6115 c-40 -12 -141 -97 -141 -117 0 -4 11 -15 25 -24 24 -16
26 -15 64 19 66 59 71 61 210 51 286 -20 383 -11 417 41 25 37 4 48 -65 34
-58 -11 -188 -9 -401 6 -41 3 -81 -1 -109 -10z"/>
<path d="M7123 5868 c-22 -29 -23 -38 -3 -58 20 -20 29 -20 753 -20 557 0 736
3 745 12 18 18 14 56 -7 68 -31 16 -1476 14 -1488 -2z"/>
<path d="M6067 5602 c-25 -28 -23 -140 4 -201 34 -80 114 -120 213 -106 56 7
76 19 76 45 0 33 -28 45 -101 41 -67 -3 -70 -2 -99 29 -33 36 -39 78 -15 120
19 34 18 47 -5 70 -25 25 -52 26 -73 2z"/>
<path d="M6775 5596 c-14 -21 -15 -33 -5 -83 15 -76 4 -107 -45 -123 -21 -7
-54 -9 -77 -6 -31 5 -45 3 -59 -10 -22 -20 -24 -45 -7 -62 21 -21 138 -15 188
11 61 31 82 71 88 169 4 72 3 81 -18 103 -29 31 -45 31 -65 1z"/>
<path d="M7108 5545 c-8 -19 -8 -28 2 -40 11 -13 83 -15 579 -15 428 0 570 3
579 12 18 18 14 46 -7 58 -13 6 -213 10 -581 10 l-560 0 -12 -25z"/>
<path d="M6952 5178 c-22 -29 -133 -185 -247 -345 -114 -161 -210 -293 -214
-293 -3 0 -80 74 -171 165 -113 114 -172 165 -187 165 -12 0 -34 -11 -50 -24
-24 -21 -26 -26 -16 -49 24 -52 340 -370 403 -406 l39 -22 69 93 c38 51 126
174 196 273 69 99 162 230 206 290 44 61 82 118 86 128 6 20 -40 77 -63 77 -7
0 -30 -24 -51 -52z"/>
<path d="M6350 5144 c-87 -23 -198 -82 -253 -135 -40 -38 -48 -52 -39 -61 18
-18 95 6 167 52 33 21 78 46 100 54 57 23 160 33 230 23 110 -16 130 -14 133
9 4 28 -13 40 -83 59 -73 19 -182 18 -255 -1z"/>
<path d="M7090 4915 c-17 -20 -6 -43 25 -55 17 -6 304 -10 765 -10 729 0 739
0 750 20 8 14 8 26 0 40 -11 20 -21 20 -769 20 -659 0 -760 -2 -771 -15z"/>
<path d="M6064 4605 c-24 -37 -28 -97 -10 -152 27 -80 95 -131 190 -139 67 -6
100 11 104 53 3 29 0 32 -31 38 -19 4 -43 6 -53 5 -50 -6 -86 2 -105 21 -20
20 -21 29 -15 100 6 71 5 79 -13 89 -31 16 -49 12 -67 -15z"/>
<path d="M6777 4608 c-12 -19 -13 -33 -4 -80 17 -96 -11 -128 -112 -128 -60 0
-80 -18 -62 -57 11 -25 14 -25 81 -21 120 9 166 51 183 173 9 64 9 81 -4 103
-20 36 -63 41 -82 10z"/>
<path d="M7122 4617 c-21 -28 -22 -37 -2 -57 20 -20 30 -20 560 -20 465 0 545
2 570 15 40 21 39 50 -2 64 -47 17 -1113 14 -1126 -2z"/>
<path d="M6222 4131 c-162 -9 -157 -1 -166 -255 -9 -237 0 -462 20 -493 26
-41 79 -47 391 -47 409 1 378 -32 378 399 0 419 21 391 -295 397 -118 3 -266
2 -328 -1z m525 -95 c4 -4 8 -138 8 -298 0 -278 -1 -290 -20 -304 -17 -12 -66
-14 -297 -12 -152 2 -280 7 -285 11 -4 5 -9 139 -11 299 -2 223 0 293 10 305
11 13 51 15 300 11 158 -2 291 -8 295 -12z"/>
<path d="M7116 3874 c-20 -20 -20 -27 2 -47 17 -16 84 -17 751 -17 486 0 739
3 752 10 21 12 25 40 7 58 -9 9 -190 12 -754 12 -662 0 -744 -2 -758 -16z"/>
<path d="M7108 3575 c-8 -19 -8 -28 2 -40 11 -13 80 -15 589 -13 l576 3 3 27
c3 22 -2 30 -23 38 -16 6 -235 10 -581 10 l-554 0 -12 -25z"/>
<path d="M8667 3508 c-71 -89 -90 -119 -81 -127 44 -39 279 -201 292 -201 6 0
35 37 66 82 42 61 53 85 45 94 -31 38 -257 194 -280 194 -4 0 -23 -19 -42 -42z"/>
<path d="M8503 3283 c-27 -38 -146 -198 -263 -357 -269 -367 -315 -436 -298
-451 108 -99 250 -200 271 -192 18 7 638 841 636 857 0 3 -58 46 -130 95 -71
50 -138 96 -148 103 -16 11 -23 5 -68 -55z"/>
<path d="M6141 3181 c-18 -5 -45 -21 -60 -35 l-26 -26 -1 -308 c-1 -169 2
-323 7 -343 5 -19 20 -46 35 -60 l26 -24 306 -3 c344 -3 357 -1 396 67 18 31
19 56 20 335 1 428 29 399 -384 402 -157 2 -300 -1 -319 -5z m597 -97 c22 -15
22 -17 22 -301 0 -253 -2 -289 -17 -305 -15 -17 -38 -18 -298 -18 -205 0 -284
3 -293 12 -9 9 -12 92 -12 313 0 166 3 305 7 308 3 4 133 7 287 7 239 0 285
-2 304 -16z"/>
<path d="M7128 2953 c-25 -6 -33 -42 -14 -62 15 -14 66 -16 501 -16 444 0 486
1 501 17 15 14 16 22 6 43 l-12 25 -482 -1 c-266 -1 -491 -3 -500 -6z"/>
<path d="M7122 2640 c-18 -8 -23 -16 -20 -37 l3 -28 405 0 405 0 0 35 0 35
-385 2 c-221 1 -395 -2 -408 -7z"/>
<path d="M7915 2368 c-3 -29 -8 -65 -11 -79 -4 -22 3 -34 42 -67 l46 -41 37
15 c20 9 53 22 74 31 20 8 37 19 37 23 0 8 -140 121 -191 154 l-27 17 -7 -53z"/>
<path d="M7896 2184 c-4 -19 -10 -42 -13 -51 -5 -12 3 -10 36 6 22 12 41 25
41 29 0 9 -43 52 -52 52 -3 0 -9 -16 -12 -36z"/>
<path d="M790 5024 c-84 -72 -79 -187 12 -245 26 -16 45 -19 87 -16 48 3 58 8
93 45 34 37 38 47 38 92 0 96 -52 150 -147 150 -41 0 -58 -5 -83 -26z m159
-49 c38 -38 37 -107 -2 -141 -38 -33 -68 -38 -111 -20 -75 31 -82 134 -12 177
40 25 91 19 125 -16z"/>
<path d="M834 4598 c10 -107 72 -444 107 -583 127 -502 372 -1025 676 -1443
720 -987 1775 -1590 3025 -1729 207 -22 665 -23 868 0 170 19 403 57 420 67 8
5 10 18 6 35 -7 27 -9 27 -64 22 -31 -2 -118 -14 -192 -25 -74 -12 -187 -26
-250 -31 -146 -14 -539 -14 -690 -1 -534 46 -1042 185 -1515 414 -428 207
-773 453 -1116 795 -651 651 -1057 1470 -1189 2398 -11 76 -20 141 -20 146 0
4 -16 7 -36 7 l-37 0 7 -72z"/>
<path d="M2256 4547 l-47 -114 -46 -7 c-25 -3 -69 -6 -97 -7 -28 0 -68 -3 -88
-7 l-37 -7 95 -79 c52 -43 94 -82 94 -87 0 -17 -40 -176 -54 -216 -8 -24 -12
-43 -8 -43 4 0 57 29 117 65 60 36 110 65 111 65 6 0 180 -103 206 -121 15
-11 28 -17 28 -13 0 4 -14 63 -31 132 l-31 124 28 30 c16 16 60 55 97 86 l68
57 -53 6 c-29 4 -87 10 -128 14 l-75 6 -37 98 c-59 153 -56 152 -112 18z"/>
<path d="M1663 3592 c-18 -9 -33 -18 -33 -21 0 -12 138 -289 185 -371 254
-446 641 -874 1052 -1162 460 -324 953 -530 1518 -638 159 -30 525 -69 553
-59 16 6 22 17 22 38 0 36 7 35 -245 56 -530 46 -1103 233 -1565 510 -598 359
-1085 894 -1389 1525 l-66 138 -32 -16z"/>
<path d="M3280 3164 c-29 -76 -93 -214 -103 -222 -7 -5 -59 -13 -117 -16 -58
-4 -120 -10 -138 -13 l-32 -5 57 -40 c32 -22 81 -60 109 -84 l51 -43 -13 -70
c-7 -39 -20 -98 -28 -133 -8 -35 -13 -64 -12 -65 1 -2 53 31 115 72 61 41 118
75 124 75 7 0 66 -37 132 -82 65 -45 116 -74 112 -65 -9 25 -54 197 -61 233
-6 36 19 63 143 158 l73 56 -83 1 c-46 1 -111 4 -144 8 l-59 6 -54 125 c-29
69 -55 127 -57 129 -3 2 -9 -9 -15 -25z"/>
<path d="M1304 2211 c-72 -44 -98 -112 -69 -187 49 -127 231 -127 280 0 21 56
14 104 -22 146 -51 61 -129 78 -189 41z"/>
<path d="M6285 1181 c-94 -56 -94 -176 -1 -245 35 -26 112 -27 151 -2 86 56
87 195 2 246 -41 26 -112 26 -152 1z m146 -50 c22 -23 29 -39 29 -70 0 -91
-109 -139 -173 -76 -29 30 -36 58 -25 102 19 74 114 98 169 44z"/>
</g>
</svg>
