<?xml version="1.0" standalone="no"?>
<!DOCTYPE svg PUBLIC "-//W3C//DTD SVG 20010904//EN"
 "http://www.w3.org/TR/2001/REC-SVG-20010904/DTD/svg10.dtd">
<svg version="1.0" xmlns="http://www.w3.org/2000/svg"
 width="1024.000000pt" height="1024.000000pt" viewBox="0 0 1024.000000 1024.000000"
 preserveAspectRatio="xMidYMid meet">

<g transform="translate(0.000000,1024.000000) scale(0.100000,-0.100000)"
fill="#e0e0e0" stroke="none">
<path d="M2695 9672 c-84 -46 -558 -323 -705 -414 -58 -35 -249 -149 -425
-252 -584 -344 -690 -407 -710 -422 -20 -15 -20 -28 -22 -1286 l-2 -1270 -81
-46 c-44 -25 -98 -61 -120 -79 l-40 -35 0 -778 0 -778 103 -65 c56 -35 179
-108 272 -162 94 -54 187 -109 208 -123 l37 -25 -127 -75 c-310 -181 -462
-273 -484 -292 l-24 -20 29 -24 c32 -27 326 -203 529 -318 71 -40 129 -77 129
-83 0 -5 -62 -47 -138 -93 -220 -131 -235 -142 -250 -178 -19 -45 -19 -233 0
-277 20 -50 142 -132 454 -308 168 -94 173 -98 150 -112 -96 -59 -210 -126
-378 -220 -312 -175 -450 -258 -450 -272 0 -24 30 -43 460 -292 124 -72 277
-160 340 -196 63 -35 337 -198 609 -361 272 -163 499 -296 506 -296 6 0 56 26
111 59 294 173 1162 671 1171 671 12 0 213 -114 518 -295 160 -95 340 -199
400 -232 61 -33 159 -90 219 -127 60 -36 116 -66 125 -66 10 0 44 16 77 36 32
20 221 128 419 241 198 113 419 239 490 281 285 166 284 166 313 152 15 -6
299 -170 632 -363 332 -192 609 -350 615 -350 14 0 543 302 1160 663 568 332
662 387 726 423 25 14 52 33 59 42 19 23 23 20 -363 246 -180 106 -326 194
-324 195 10 11 175 107 262 154 55 29 124 68 153 87 l52 33 0 106 0 106 31 27
c82 69 89 78 89 118 0 38 -18 75 -50 101 -8 7 -124 78 -257 158 l-243 145 0
309 0 310 23 14 c12 7 150 89 306 181 157 92 317 188 355 213 l70 45 -34 29
c-19 16 -93 64 -165 106 -71 42 -526 315 -1010 605 -986 592 -934 554 -838
610 26 15 140 80 253 146 l205 118 6 77 c7 85 12 95 33 77 17 -14 75 -6 118
15 45 23 63 17 116 -45 l51 -58 -19 -79 c-10 -43 -16 -82 -13 -87 3 -4 59 -51
124 -103 126 -100 135 -103 179 -62 21 20 22 22 5 34 -17 13 -17 16 -1 58 l17
44 62 -25 c34 -14 69 -28 77 -32 14 -7 39 -93 54 -183 l7 -37 115 -27 115 -27
57 40 c31 22 56 44 55 49 -9 46 -24 186 -21 194 2 6 34 -26 72 -70 l68 -80 82
57 c148 103 156 111 156 148 0 26 -12 48 -52 96 -29 34 -62 73 -74 87 -17 21
-20 35 -16 81 5 61 12 71 57 71 17 0 47 5 69 11 l39 11 -7 86 c-8 93 -19 162
-37 229 -11 41 -13 42 -103 77 l-91 36 -52 99 -51 99 59 52 60 52 -38 47
c-150 187 -245 281 -285 281 -7 0 -31 -12 -52 -26 -50 -34 -90 -27 -151 29
-46 41 -47 43 -57 128 l-11 86 -111 56 c-61 31 -125 65 -141 76 l-31 20 -52
-45 -52 -46 0 -73 c0 -95 -4 -105 -45 -105 -28 0 -41 9 -80 53 -45 51 -49 65
-31 108 6 13 -3 21 -39 34 l-46 18 -56 -39 c-83 -57 -184 -154 -200 -193 -16
-38 -26 -23 109 -166 l47 -50 -17 -104 -17 -103 -70 6 c-95 8 -99 4 -92 -85
10 -134 16 -145 113 -191 46 -22 84 -46 84 -52 0 -6 18 -51 40 -100 22 -49 39
-90 37 -91 -1 -1 -25 -16 -54 -34 l-52 -32 -263 167 c-145 92 -290 186 -323
209 -56 40 -63 42 -85 29 -14 -7 -46 -16 -72 -20 -43 -6 -48 -9 -49 -33 -1
-26 -1 -26 -14 5 -9 21 -13 63 -11 130 2 54 1 105 -2 113 -6 16 -180 131 -199
131 -22 0 -23 17 -3 119 13 64 18 117 14 143 -8 48 -47 96 -107 131 -23 14
-63 45 -88 69 -25 24 -80 70 -122 102 -71 53 -79 57 -114 50 -21 -4 -51 -13
-66 -21 -27 -14 -29 -13 -130 81 -56 52 -118 107 -136 121 -19 14 -37 29 -40
33 -3 4 -40 35 -81 67 -41 32 -195 157 -342 278 -257 210 -267 220 -273 260
-10 61 -19 73 -116 167 -111 107 -210 165 -284 164 -107 -2 -208 -80 -271
-210 -42 -88 -47 -115 -80 -434 -31 -310 -32 -313 -53 -304 -9 3 -47 18 -86
31 -121 44 -221 21 -353 -80 -109 -83 -241 -298 -283 -462 -41 -162 -35 -343
14 -417 13 -19 75 -68 145 -114 68 -45 125 -83 127 -86 2 -2 -58 -40 -133 -84
-156 -92 -577 -348 -822 -499 -91 -57 -302 -186 -470 -288 -168 -102 -445
-273 -615 -380 l-310 -195 -7 57 c-4 31 -14 144 -22 251 -9 107 -25 303 -36
434 -11 132 -33 476 -50 765 -35 624 -52 833 -86 1081 -14 102 -28 201 -30
220 -5 34 -3 36 53 69 32 18 171 100 308 181 138 81 315 184 395 230 80 46
204 119 275 163 72 44 144 87 160 97 17 9 158 94 315 187 157 94 304 180 326
191 l42 21 6 -32 c3 -18 17 -131 31 -252 51 -428 96 -791 109 -873 l13 -82
-56 -34 c-31 -19 -135 -79 -231 -134 -326 -186 -435 -252 -452 -273 -23 -27
-23 -56 2 -193 11 -61 33 -190 49 -286 35 -213 42 -234 76 -226 14 4 159 84
322 178 164 94 326 187 360 207 35 20 63 43 63 52 0 58 -93 599 -109 631 -10
21 -15 41 -10 44 16 9 10 82 -31 399 -34 271 -90 746 -103 889 -3 26 -11 54
-18 61 -31 29 -861 526 -878 525 -3 0 -37 -18 -76 -38z m255 -104 c80 -47 201
-118 270 -158 181 -106 400 -243 400 -251 0 -4 -168 -107 -372 -229 -205 -123
-382 -228 -393 -235 -18 -11 -64 14 -435 237 -228 137 -421 256 -429 263 -17
17 -11 20 384 252 160 94 313 184 340 201 42 25 53 28 70 18 11 -7 85 -51 165
-98z m-955 -418 c22 -15 94 -59 160 -97 262 -153 635 -384 635 -393 0 -7 -335
-206 -898 -532 l-153 -89 -27 19 c-47 33 -289 181 -492 300 -107 62 -228 134
-268 159 l-73 45 348 208 c565 336 707 418 718 412 6 -3 28 -17 50 -32z m3265
-525 c28 -14 50 -29 50 -34 0 -4 -18 -13 -39 -20 -88 -26 -176 -155 -205 -301
-8 -41 -30 -212 -47 -380 -18 -168 -34 -307 -36 -309 -1 -2 -13 7 -25 20 -13
14 -48 43 -79 66 -63 47 -59 22 -34 238 8 66 19 179 25 250 20 232 55 330 150
419 87 81 153 95 240 51z m121 -85 c24 -14 57 -77 65 -128 6 -37 17 -49 153
-160 149 -122 181 -151 165 -153 -5 -1 2 -4 16 -8 14 -4 25 -13 25 -20 0 -7
15 -18 32 -25 18 -6 74 -45 124 -86 166 -136 554 -471 553 -478 -2 -22 -38 -6
-94 44 -36 31 -123 104 -195 162 -71 58 -157 129 -190 158 -117 100 -488 396
-512 407 -13 5 -26 7 -30 4 -11 -11 35 -53 166 -154 68 -53 243 -195 390 -317
146 -122 301 -250 344 -285 l78 -63 -26 -34 c-15 -19 -38 -59 -51 -89 -14 -30
-29 -55 -33 -55 -4 0 -18 12 -32 26 -13 14 -60 56 -104 92 -150 124 -483 411
-637 547 -163 146 -238 221 -238 242 0 8 12 46 26 86 41 115 33 199 -21 213
-84 21 -174 -78 -175 -192 0 -42 5 -56 26 -77 14 -15 44 -30 66 -34 31 -6 44
-16 61 -46 l21 -37 -39 -314 -39 -313 -65 2 c-36 1 -81 8 -99 15 -18 7 -49 10
-68 7 -34 -6 -34 -5 -34 31 0 48 32 313 37 308 5 -4 -14 -225 -23 -286 -4 -22
-2 -31 4 -25 14 15 68 446 92 729 12 146 33 200 96 256 62 54 122 72 165 50z
m-4111 -255 c195 -117 370 -220 388 -231 33 -19 33 -19 28 -79 -4 -33 -9 -588
-12 -1233 -5 -1087 -7 -1173 -22 -1167 -26 9 -250 138 -527 302 l-250 149 -3
1247 -2 1248 22 -12 c13 -7 183 -108 378 -224z m4090 114 c11 -20 11 -20 -15
-3 -21 13 -31 15 -50 6 -55 -25 -82 -114 -49 -160 20 -30 40 -28 75 7 34 34
38 23 8 -25 -12 -20 -29 -34 -40 -34 -26 0 -66 41 -75 75 -9 35 21 109 53 135
34 27 79 26 93 -1z m180 -30 c0 -21 -4 -27 -15 -23 -17 7 -30 48 -20 64 11 18
35 -9 35 -41z m-173 -21 c-3 -8 -6 -5 -6 6 -1 11 2 17 5 13 3 -3 4 -12 1 -19z
m-90 -60 c-3 -8 -6 -5 -6 6 -1 11 2 17 5 13 3 -3 4 -12 1 -19z m162 -270 c21
-18 116 -103 212 -189 96 -86 289 -254 429 -374 140 -119 261 -223 267 -229
10 -9 10 -26 2 -75 -12 -77 1 -158 33 -201 13 -18 50 -44 88 -61 36 -17 94
-45 130 -62 l65 -32 3 -112 3 -113 -42 -27 c-93 -63 -94 -65 -113 -208 -15
-108 -21 -133 -38 -145 -12 -8 -190 -113 -397 -233 -207 -120 -482 -281 -611
-357 -294 -173 -352 -203 -362 -187 -13 20 -9 253 4 282 9 20 9 59 -1 172
l-13 147 30 25 c37 31 56 91 102 318 l33 162 58 36 c75 46 151 131 188 208
127 268 68 534 -144 643 l-57 29 6 40 c3 22 20 160 38 308 17 147 36 267 41
267 5 0 26 -15 46 -32z m-372 -60 c-2 -13 -4 -3 -4 22 0 25 2 35 4 23 2 -13 2
-33 0 -45z m-10 -105 c-3 -10 -5 -2 -5 17 0 19 2 27 5 18 2 -10 2 -26 0 -35z
m-3294 -253 c15 -140 43 -509 62 -820 20 -311 51 -770 71 -1020 50 -644 49
-620 34 -620 -14 0 -187 85 -207 102 -10 8 -13 251 -13 1153 0 1093 5 1485 20
1468 4 -4 19 -123 33 -263z m2025 155 c14 -41 65 -335 77 -435 l6 -55 -108
-61 c-59 -33 -220 -125 -356 -203 -136 -79 -250 -141 -254 -138 -3 4 -25 124
-50 268 -35 213 -41 265 -31 275 13 12 312 189 553 326 66 37 127 67 135 65 8
-1 21 -20 28 -42z m687 -43 c-48 -25 -99 -65 -161 -127 -79 -78 -97 -103 -142
-195 -29 -58 -59 -132 -68 -165 -30 -110 -29 -308 0 -410 4 -11 -3 -1 -14 21
-118 244 84 750 353 884 88 44 117 37 32 -8z m295 -21 c75 -38 105 -61 77 -61
-9 0 -40 -11 -69 -24 -199 -88 -387 -350 -443 -616 -19 -90 -19 -233 -1 -293
8 -26 11 -47 8 -46 -4 0 -45 28 -91 62 -98 72 -115 100 -130 211 -17 123 9
285 67 418 49 111 182 278 223 278 11 0 18 4 15 9 -7 11 19 33 64 56 105 54
182 56 280 6z m144 -97 c22 -8 10 -24 -18 -24 -45 0 -141 -59 -214 -132 -133
-131 -219 -286 -257 -462 -21 -96 -16 -295 9 -366 l16 -45 -30 34 c-47 55 -64
121 -63 236 1 123 26 222 87 350 95 201 223 336 376 396 49 20 70 22 94 13z
m54 -66 c7 -7 12 -34 12 -60 0 -56 15 -68 54 -43 13 9 37 15 53 13 28 -4 28
-4 -12 -24 -67 -32 -130 -81 -177 -135 -39 -45 -48 -51 -71 -45 -38 9 -51 39
-37 82 6 19 21 39 33 45 17 10 24 8 38 -10 26 -32 41 -26 37 15 -2 22 -10 42
-21 48 -39 25 -137 -63 -137 -123 0 -36 22 -65 63 -85 l34 -16 -18 -56 c-11
-32 -19 -63 -19 -70 0 -20 -18 -26 -41 -14 -18 10 -25 8 -50 -16 -37 -36 -52
-86 -39 -136 13 -46 23 -53 80 -53 l45 0 17 -83 c23 -106 68 -195 113 -225 31
-20 35 -26 35 -69 l0 -46 -52 -13 c-136 -32 -252 -6 -324 73 -78 87 -109 197
-101 363 8 164 64 336 151 466 101 151 282 269 334 217z m1774 -78 l49 -39
-61 -27 c-142 -63 -246 -256 -221 -410 5 -32 7 -61 5 -64 -7 -6 -67 28 -97 55
-36 35 -45 112 -23 222 9 47 26 103 37 126 49 94 181 196 238 182 14 -4 47
-24 73 -45z m1893 -65 c44 -25 94 -50 112 -56 41 -13 42 -23 4 -38 -31 -14
-30 -14 -176 54 l-79 38 29 23 c17 13 30 24 31 24 0 0 36 -20 79 -45z m-3292
-3 c110 -59 177 -155 199 -280 32 -187 -95 -448 -256 -527 -68 -33 -151 -36
-199 -7 -132 82 -109 359 42 510 68 68 174 103 250 82 32 -8 50 -22 73 -55 18
-25 34 -43 36 -40 13 13 -14 81 -46 117 -73 82 -168 98 -296 52 -95 -34 -153
-91 -110 -108 31 -12 51 -6 65 20 7 14 36 37 63 51 88 44 198 41 242 -8 18
-20 18 -20 -11 -9 -123 47 -293 -36 -368 -178 -68 -129 -84 -259 -42 -358 8
-20 14 -39 12 -40 -10 -10 -105 67 -124 101 -38 69 -52 276 -19 275 16 -1 63
-29 48 -30 -22 0 6 -40 29 -40 27 0 34 24 19 61 -11 24 -17 29 -35 25 -15 -4
-32 1 -46 13 -32 26 -30 79 6 159 44 99 180 217 280 243 50 13 135 1 188 -29z
m1487 -12 c0 -5 -19 -18 -42 -28 -53 -24 -143 -117 -169 -176 -10 -24 -24 -79
-30 -122 -15 -107 -16 -109 -34 -94 -34 28 -7 179 48 272 33 55 91 112 142
137 43 22 85 27 85 11z m1410 -30 c0 -33 7 -48 40 -84 22 -24 40 -48 40 -54 0
-29 -25 -18 -85 38 -35 33 -70 60 -77 60 -7 0 -46 -27 -87 -60 -40 -34 -76
-59 -78 -56 -21 21 187 190 240 195 4 1 7 -17 7 -39z m403 -64 c26 -10 51 -25
56 -35 5 -9 17 -52 26 -96 9 -44 19 -83 23 -86 4 -4 47 -36 95 -73 95 -72 100
-73 154 -23 20 18 29 19 70 11 42 -8 54 -17 116 -89 97 -114 96 -112 53 -183
-20 -33 -36 -67 -36 -76 0 -9 27 -70 59 -135 l60 -118 58 -21 c32 -12 69 -24
83 -27 24 -6 28 -15 49 -118 13 -62 24 -119 25 -127 1 -11 -18 -17 -79 -25
l-80 -10 -7 -45 c-3 -25 -7 -77 -7 -115 l-1 -71 75 -74 c41 -41 75 -82 75 -91
0 -19 -100 -110 -112 -103 -5 3 -8 14 -8 25 0 12 -4 17 -11 13 -7 -4 -34 18
-64 52 l-52 59 -72 -34 c-39 -19 -73 -43 -77 -53 -3 -9 5 -58 17 -108 12 -49
20 -92 18 -94 -7 -8 -173 36 -185 48 -6 6 -19 54 -29 107 l-18 97 -38 11 c-21
7 -68 25 -103 41 l-64 28 -11 -26 c-6 -15 -20 -53 -31 -84 -12 -32 -24 -58
-26 -58 -9 0 -204 162 -204 169 0 3 7 31 15 61 8 30 15 64 15 76 0 11 -28 53
-62 93 -57 68 -64 72 -92 66 -95 -19 -91 -20 -112 27 -10 23 -31 57 -46 74
l-27 31 44 31 c28 20 45 39 45 52 0 11 -19 67 -42 126 l-41 105 -88 44 -87 44
-7 58 c-3 32 -9 71 -12 86 l-5 28 74 -7 c90 -8 96 -3 109 97 5 39 13 88 19
107 11 40 14 34 -74 136 l-60 68 25 19 c14 10 48 36 75 58 l49 39 63 -60 c54
-52 66 -59 90 -54 15 4 55 13 90 19 36 7 67 19 72 27 4 8 11 45 15 82 l6 66
52 -22 c29 -13 73 -31 100 -40z m-1712 16 c90 -55 104 -77 103 -165 -1 -143
-33 -222 -104 -261 -27 -15 -56 -37 -65 -48 l-15 -22 -24 24 c-30 27 -27 36
16 45 19 5 53 29 84 60 42 42 56 65 73 120 27 86 26 114 -2 156 -29 43 -64 56
-114 41 -119 -36 -199 -198 -174 -354 7 -38 17 -68 28 -75 9 -7 18 -12 19 -10
1 1 -2 47 -7 101 -11 118 1 169 57 235 60 70 120 90 148 49 20 -28 21 -107 2
-152 -50 -121 -167 -147 -153 -33 5 45 25 103 32 95 3 -2 -2 -23 -11 -46 -42
-105 44 -144 102 -47 18 31 24 53 20 70 -4 14 -2 25 4 25 14 0 13 53 -2 68
-30 30 -101 -3 -143 -67 -17 -25 -31 -65 -37 -109 -10 -61 -9 -74 5 -96 14
-21 15 -29 5 -45 -14 -24 4 -49 64 -87 47 -30 50 -30 118 2 68 31 100 60 100
91 l0 23 43 -21 c23 -12 62 -36 86 -53 l43 -31 -4 -73 c-3 -40 -8 -75 -12 -79
-8 -9 -69 50 -114 112 -27 36 -38 45 -40 32 -4 -21 -21 -22 -28 -2 -4 8 -10
15 -16 15 -5 0 -6 -5 -3 -11 4 -5 -7 -15 -24 -22 -34 -12 -35 -17 -47 -220 -3
-59 -9 -107 -12 -105 -4 2 -42 23 -84 48 l-77 45 -1 127 0 127 -59 40 c-96 66
-94 60 -89 176 3 91 7 108 37 170 50 101 127 169 197 174 7 1 40 -16 75 -37z
m1881 -49 c2 -61 -1 -77 -19 -91 -22 -16 -30 -6 -38 49 -6 41 -4 48 16 63 34
23 39 20 41 -21z m-4930 -47 c3 -29 -14 -44 -99 -88 -28 -14 -53 -4 -53 22 0
28 44 45 48 19 3 -18 5 -18 35 -3 39 20 49 34 36 50 -7 9 -5 15 8 22 22 13 20
14 25 -22z m-184 -108 c3 -23 -7 -32 -80 -76 -46 -27 -146 -85 -223 -127 -77
-43 -152 -86 -167 -97 -32 -22 -54 -23 -62 -3 -10 27 4 39 107 97 56 31 121
69 145 83 l43 27 -6 -25 c-4 -14 -2 -27 3 -31 15 -9 44 30 40 53 -2 16 7 27
32 42 l35 21 -28 -22 c-30 -24 -27 -44 6 -34 41 12 126 67 130 86 6 23 6 23
-53 -7 -66 -33 -64 -25 3 14 59 35 71 35 75 -1z m5211 -27 l80 -48 -23 -22
c-12 -11 -27 -21 -33 -21 -16 0 -133 113 -133 128 0 22 28 13 109 -37z m-1991
-12 c-3 -20 -5 -19 -9 9 -3 20 -2 29 4 23 5 -5 7 -19 5 -32z m2289 -61 c40
-40 95 -102 123 -138 l50 -65 -42 -37 c-50 -44 -68 -49 -39 -12 12 15 21 31
21 36 0 8 -52 71 -150 180 -24 27 -52 45 -88 57 l-53 17 37 26 c45 33 47 32
141 -64z m-4730 20 c-3 -8 -6 -5 -6 6 -1 11 2 17 5 13 3 -3 4 -12 1 -19z m319
-4 c9 -35 -2 -105 -18 -115 -65 -41 -108 54 -51 113 34 35 61 36 69 2z m-329
-46 c-3 -7 -5 -2 -5 12 0 14 2 19 5 13 2 -7 2 -19 0 -25z m-10 -95 c-2 -16 -4
-3 -4 27 0 30 2 43 4 28 2 -16 2 -40 0 -55z m2368 37 c3 -5 -1 -10 -9 -10 -9
0 -16 5 -16 10 0 6 4 10 9 10 6 0 13 -4 16 -10z m190 -59 c1 -13 -7 -28 -19
-37 -32 -22 -94 -36 -113 -26 -14 8 -12 12 13 27 16 10 45 29 64 42 40 27 53
26 55 -6z m-2542 -191 c6 -31 6 -32 -4 -10 -6 14 -12 57 -14 95 l-4 70 8 -60
c4 -33 11 -76 14 -95z m2261 79 c8 -40 8 -127 0 -156 -13 -48 -24 -7 -24 88 0
97 11 130 24 68z m341 -10 c4 -12 32 -50 62 -86 l55 -65 -43 -39 c-24 -22 -56
-46 -71 -54 -15 -8 -32 -24 -38 -35 -25 -46 37 -82 75 -44 23 23 31 9 11 -21
-9 -14 -26 -25 -37 -25 -30 0 -77 30 -83 54 -3 12 -6 92 -6 179 l0 157 34 0
c26 0 36 -5 41 -21z m2265 -174 c51 -101 51 -101 108 -123 31 -12 69 -24 84
-28 15 -3 32 -12 37 -18 14 -17 55 -272 47 -292 -3 -8 -13 -14 -23 -12 -12 2
-22 29 -39 108 -13 58 -23 120 -24 138 0 19 -5 32 -12 32 -7 0 -46 10 -85 21
l-73 22 -60 108 c-64 115 -66 120 -49 151 15 28 25 16 89 -107z m-4398 49 c23
-12 27 -18 17 -24 -16 -10 -44 3 -53 25 -7 19 -2 19 36 -1z m-447 -104 c116
-93 160 -114 269 -128 l59 -7 1 -90 c2 -107 16 -140 86 -205 l48 -45 -8 -80
c-5 -44 -6 -186 -3 -315 l5 -235 -42 -28 c-44 -30 -60 -59 -60 -112 0 -38 24
-21 -285 -202 -99 -58 -188 -108 -197 -111 -17 -4 -18 40 -18 833 l0 837 38
-28 c20 -15 69 -53 107 -84z m2704 24 c-12 -13 -27 -24 -33 -24 -6 0 -1 8 10
18 12 9 25 35 30 57 l8 40 4 -34 c2 -24 -3 -40 -19 -57z m-2069 -6 c0 -11
-131 -69 -141 -62 -15 9 -10 42 11 84 l20 40 55 -27 c30 -15 55 -31 55 -35z
m2477 -61 c70 -46 200 -129 288 -184 224 -142 244 -157 267 -209 11 -25 26
-48 34 -51 16 -6 19 -23 4 -23 -6 0 -26 22 -45 48 -29 41 -73 73 -272 198
-131 81 -286 180 -344 219 -59 38 -115 75 -125 82 -16 10 -17 13 -5 22 19 12
35 4 198 -102z m-3292 -728 l0 -820 -142 -82 c-677 -391 -964 -557 -1533 -891
-360 -211 -657 -382 -660 -379 -3 3 -4 356 -2 786 3 774 4 782 24 797 50 37
563 357 983 613 253 154 501 305 550 335 89 55 379 232 629 384 71 43 134 78
140 78 8 0 11 -222 11 -821z m2453 763 c91 -61 171 -104 182 -97 5 3 11 39 12
78 l1 72 6 -82 c5 -71 10 -86 32 -109 51 -51 159 -38 159 19 0 16 11 27 43 41
23 10 48 20 56 22 23 5 36 23 25 34 -12 12 -57 -1 -69 -19 -3 -6 -15 -11 -27
-11 -17 0 -18 2 -8 15 7 8 18 15 24 15 6 0 22 7 34 16 17 12 20 19 12 29 -7 9
-7 15 -1 19 5 4 14 -1 20 -11 9 -17 10 -17 28 0 28 25 53 22 50 -5 -1 -16 10
-30 46 -54 l48 -32 -158 -88 c-87 -48 -207 -116 -266 -151 -60 -35 -116 -63
-125 -63 -22 1 -303 172 -316 193 -20 31 4 30 57 -3 32 -19 54 -39 53 -49 -1
-11 6 -15 24 -13 17 2 45 -11 83 -37 77 -54 117 -75 117 -60 0 24 -73 79 -209
159 -78 45 -141 85 -141 88 0 4 3 17 6 29 6 21 6 21 47 -7 118 -79 228 -142
241 -137 30 12 96 58 96 67 0 16 -33 11 -60 -10 -14 -11 -30 -20 -37 -20 -7 0
-60 29 -119 65 -58 35 -115 67 -126 71 -17 5 -14 11 28 40 27 19 54 32 61 29
8 -2 39 -22 71 -43z m-1563 -79 c-9 -37 -21 -90 -26 -118 -16 -91 -50 -187
-74 -211 -24 -24 -58 -30 -103 -18 l-22 6 26 45 c41 71 80 174 100 263 17 81
18 83 58 101 23 10 45 14 50 9 4 -4 1 -39 -9 -77z m1905 37 c0 -11 -4 -20 -10
-20 -5 0 -10 9 -10 20 0 11 5 20 10 20 6 0 10 -9 10 -20z m-2030 -30 c0 -39
-22 -120 -39 -141 l-17 -21 -77 38 c-86 43 -100 67 -44 82 38 11 47 7 47 -18
0 -24 10 -50 20 -50 4 0 10 23 14 50 6 44 11 52 39 64 45 20 57 19 57 -4z
m2680 -153 c309 -193 342 -216 338 -235 -4 -20 -14 -26 -653 -397 -578 -335
-689 -400 -780 -455 -33 -20 -168 -99 -300 -175 -346 -199 -1803 -1049 -3105
-1810 -1463 -857 -1403 -822 -1455 -840 -114 -38 -190 -13 -481 163 -329 199
-305 181 -302 220 3 32 12 38 283 200 155 92 328 193 385 225 58 32 130 73
160 91 159 95 207 121 229 126 14 3 24 9 22 13 -5 19 1130 688 1165 687 5 0
-14 -14 -42 -30 -60 -35 -81 -57 -68 -70 14 -13 164 -105 352 -215 94 -55 172
-103 172 -106 0 -3 -22 -18 -49 -32 l-49 -27 -258 155 c-141 86 -263 154 -269
153 -12 -3 -98 -53 -422 -243 -75 -45 -138 -86 -140 -92 -5 -14 88 -77 312
-213 94 -56 172 -104 173 -105 2 -2 -15 -16 -39 -31 l-43 -27 -51 29 c-27 15
-135 80 -240 144 -278 171 -234 160 -351 88 -55 -33 -118 -70 -142 -81 -23
-12 -42 -24 -42 -27 0 -4 24 -19 53 -35 64 -35 398 -229 444 -259 18 -11 33
-24 33 -27 0 -8 -75 -49 -91 -49 -7 0 -96 51 -198 114 -102 63 -219 133 -260
155 l-75 40 -32 -29 c-18 -16 -63 -45 -101 -66 -37 -21 -140 -80 -227 -131
-114 -66 -169 -93 -193 -93 -42 0 -59 -28 -44 -72 19 -54 14 -66 -37 -92 -86
-44 -86 -47 19 -116 178 -117 287 -173 344 -178 87 -7 87 -7 605 303 257 154
1132 662 1645 955 215 122 527 305 695 405 418 251 813 482 1655 968 286 165
544 316 573 334 29 19 191 113 360 210 477 274 546 314 560 325 30 25 9 46
-144 142 -86 55 -158 106 -161 114 -10 24 17 153 30 145 7 -3 113 -69 237
-146z m-310 119 c-21 -20 -312 -187 -317 -182 -4 4 67 49 227 144 85 51 117
64 90 38z m8 -258 l-3 -212 -55 -31 c-264 -151 -521 -296 -532 -300 -14 -5
-328 168 -481 264 l-68 43 87 53 87 52 56 -42 c31 -23 93 -64 139 -91 l83 -49
-7 -62 c-7 -72 6 -102 57 -128 44 -23 59 -7 59 64 l0 56 113 115 c68 71 144
137 194 170 45 30 85 61 88 68 3 8 -6 35 -20 60 -15 26 -22 49 -17 54 12 12
204 126 215 127 4 1 6 -94 5 -211z m-842 128 c33 -19 97 -57 144 -86 l86 -51
3 -155 3 -154 -79 49 c-43 27 -112 69 -153 93 l-75 44 -3 105 c-3 92 4 189 12
189 2 0 30 -15 62 -34z m-1663 -6 c33 -14 57 -31 57 -40 0 -8 -11 -35 -25 -59
-14 -23 -25 -49 -25 -57 0 -12 -4 -12 -21 -4 -18 10 -19 13 -6 23 13 10 13 18
4 46 -14 41 -33 50 -42 20 -6 -17 -9 -19 -16 -8 -16 26 -8 115 10 107 4 -2 33
-14 64 -28z m2682 -128 c65 -42 118 -81 116 -87 -1 -5 -15 -18 -30 -27 -27
-17 -27 -17 -124 47 -96 64 -97 66 -97 105 0 22 3 40 8 40 4 -1 61 -36 127
-78z m-560 43 c-16 -14 -38 -25 -47 -25 -21 0 -23 -19 -6 -55 14 -32 24 -32
41 1 l14 26 21 -36 c28 -47 28 -50 -5 -72 -16 -9 -70 -60 -120 -113 l-93 -96
0 105 c0 170 1 172 81 220 64 38 127 69 139 69 3 0 -8 -11 -25 -24z m151 -17
c14 -26 14 -32 2 -45 -12 -12 -18 -8 -41 24 -25 35 -26 39 -11 50 21 15 30 10
50 -29z m-716 -1 c0 -26 -45 -54 -500 -312 -162 -92 -358 -204 -435 -250 -271
-159 -336 -195 -346 -189 -5 3 -17 0 -25 -7 -8 -6 -17 -9 -20 -6 -4 3 25 26
62 50 129 84 1241 727 1257 727 4 0 7 -6 7 -13z m653 -36 c19 -28 23 -41 14
-50 -22 -22 -46 -5 -67 47 -23 54 18 56 53 3z m-677 -70 c-20 -22 -53 -33 -61
-21 -6 10 42 39 64 40 11 0 10 -4 -3 -19z m1106 -32 c26 -17 48 -34 48 -38 0
-9 -101 -69 -534 -318 -175 -101 -323 -183 -328 -183 -6 0 -22 8 -36 19 -15
10 -92 56 -172 101 -80 46 -185 107 -235 137 -49 29 -97 53 -105 53 -8 0 -33
-12 -55 -27 -22 -16 -150 -91 -285 -169 -184 -105 -245 -145 -245 -159 0 -14
31 -37 115 -83 153 -85 400 -231 400 -237 0 -3 -18 -14 -41 -26 l-41 -21 -57
35 c-31 19 -157 94 -280 167 -181 107 -228 130 -240 121 -9 -6 -44 -27 -79
-47 -75 -43 -122 -81 -122 -97 1 -7 48 -39 106 -72 58 -33 105 -64 105 -70 0
-9 -359 -234 -456 -286 l-40 -22 -65 45 c-36 25 -127 82 -203 126 l-138 80 73
43 c40 23 94 55 121 70 26 16 52 29 57 29 6 0 10 -33 10 -75 l0 -75 61 -40
c85 -55 94 -57 140 -23 22 15 77 51 122 79 l82 50 3 97 3 96 112 64 c62 35
175 101 252 146 77 46 252 148 389 226 l249 143 101 -62 c112 -69 379 -223
440 -253 l39 -20 91 52 c50 28 179 103 287 166 108 63 211 122 228 131 28 16
31 21 31 68 0 54 13 90 32 90 6 0 33 -14 60 -31z m-2582 -33 c0 -25 5 -48 10
-51 6 -3 10 1 10 9 0 9 9 16 20 16 11 0 20 -7 20 -15 0 -20 -32 -35 -58 -28
-19 5 -22 12 -22 59 0 30 5 54 10 54 6 0 10 -20 10 -44z m58 32 c8 -8 9 -15 1
-25 -18 -21 -39 -15 -39 12 0 27 18 33 38 13z m4380 -37 c-11 -64 -4 -79 86
-181 l75 -85 -26 -27 c-33 -34 -43 -35 -43 -4 0 15 -24 49 -67 96 l-68 73 -3
89 -4 88 30 0 29 0 -9 -49z m-8475 -34 c67 -40 251 -150 410 -243 l288 -169
-3 -120 c-3 -141 -3 -140 -101 -78 -34 22 -111 68 -172 103 -99 57 -378 221
-652 383 -57 33 -103 63 -103 66 0 4 191 124 208 130 1 1 57 -32 125 -72z
m5417 48 c-6 -8 -42 -32 -78 -53 -144 -84 -515 -299 -667 -387 -88 -51 -206
-120 -261 -154 -107 -64 -149 -79 -116 -40 9 11 35 31 57 44 22 12 177 102
344 200 167 97 316 182 330 188 14 6 28 14 31 18 5 6 257 152 315 182 40 21
62 22 45 2z m1679 -138 c-12 -9 -72 -46 -133 -81 -61 -34 -381 -220 -711 -413
-330 -193 -847 -493 -1150 -668 -302 -175 -1088 -632 -1745 -1015 -657 -383
-1393 -812 -1635 -952 -242 -141 -505 -295 -585 -342 -80 -48 -192 -111 -250
-139 -102 -50 -108 -52 -191 -52 -82 0 -90 2 -180 47 -139 70 -509 290 -546
326 -32 29 -44 74 -24 86 14 9 123 -54 458 -265 110 -70 196 -114 240 -124 53
-11 39 10 -35 51 -99 55 -475 279 -564 336 -43 28 -76 54 -73 59 3 5 43 -15
88 -43 189 -119 440 -269 504 -302 84 -42 161 -58 226 -45 85 16 158 54 597
317 41 24 174 102 295 172 121 70 285 166 365 212 80 46 411 239 735 428 1060
617 2792 1628 3160 1845 198 117 493 289 655 383 162 93 345 199 405 235 l110
65 3 -51 c3 -43 0 -55 -19 -70z m-3069 14 c0 -5 10 -13 22 -17 15 -4 25 -1 35
12 7 9 15 15 19 12 11 -11 17 -86 10 -124 -10 -48 -24 -32 -28 31 -3 43 -6 50
-25 53 -22 3 -23 0 -23 -58 0 -45 -3 -61 -12 -58 -26 9 -32 158 -7 158 5 0 9
-4 9 -9z m-4175 -138 c157 -95 651 -385 750 -442 l90 -51 0 -750 c0 -663 -2
-750 -15 -745 -8 4 -107 61 -220 129 -113 68 -320 190 -460 271 -140 81 -274
161 -297 177 l-43 29 0 749 0 749 48 -28 c26 -15 92 -55 147 -88z m6021 -1 c8
-50 -6 -73 -31 -52 -10 8 -15 30 -15 66 0 51 1 54 20 42 12 -8 22 -29 26 -56z
m-558 -16 c51 -32 369 -217 414 -240 20 -11 35 -23 32 -27 -4 -7 -441 -262
-500 -292 l-32 -16 -208 122 c-115 68 -228 134 -251 147 -24 13 -43 26 -43 29
0 3 30 22 68 42 37 19 154 86 261 147 107 62 200 112 208 112 7 0 30 -11 51
-24z m-1246 -55 c4 -3 10 -54 14 -113 10 -154 -20 -245 -57 -175 -15 26 -25
219 -15 272 6 31 10 35 29 29 12 -3 25 -9 29 -13z m4174 -56 c16 -86 -29 -115
-56 -37 -14 41 -14 44 4 58 31 22 45 17 52 -21z m-1627 -205 c6 -58 25 -226
41 -375 17 -148 37 -324 45 -390 8 -66 15 -126 15 -132 0 -8 -14 -13 -35 -13
-19 0 -35 4 -35 8 0 4 -7 61 -15 127 -36 301 -85 777 -85 837 0 26 6 38 23 45
12 6 25 8 28 4 4 -3 12 -53 18 -111z m1641 85 c0 -14 -8 -29 -19 -35 -22 -11
-25 -8 -35 33 -6 25 -4 27 24 27 25 0 30 -4 30 -25z m-1754 -78 c-6 -37 12
-179 29 -237 2 -8 9 -71 15 -140 5 -69 14 -159 20 -200 5 -41 14 -122 20 -180
6 -58 13 -119 16 -136 3 -26 0 -33 -21 -42 -39 -18 -42 -16 -48 36 -66 605
-91 910 -75 930 6 6 19 12 30 12 18 0 20 -5 14 -43z m246 -21 c394 -230 1921
-1153 1920 -1161 -1 -13 -667 -405 -688 -405 -2 0 -4 47 -4 104 0 57 -3 124
-6 150 -7 45 -10 49 -73 90 -36 23 -107 67 -158 97 -80 47 -92 58 -98 87 -8
45 -58 97 -110 118 -53 20 -126 14 -188 -16 -36 -18 -41 -18 -64 -3 -32 21
-53 64 -53 108 0 82 -50 124 -159 133 -61 5 -75 11 -201 89 -74 46 -140 89
-147 96 -9 10 -24 121 -68 520 -3 26 -3 47 -1 47 3 0 47 -24 98 -54z m-323
-216 c11 -107 23 -226 26 -265 4 -38 17 -160 30 -270 13 -110 22 -201 21 -203
-2 -2 -125 68 -272 156 -148 87 -288 169 -311 182 -54 30 -54 16 -7 325 4 27
20 40 162 121 197 115 202 117 202 104 0 -5 7 -10 15 -10 8 0 15 9 15 19 0 13
16 29 43 45 38 24 43 24 49 8 4 -9 16 -105 27 -212z m-2221 148 l62 -52 0 -71
c0 -68 -1 -72 -27 -84 -15 -7 -64 -37 -109 -66 -79 -51 -83 -53 -110 -39 -85
44 -92 52 -99 107 -4 29 -5 74 -3 101 l3 50 43 -57 c23 -31 45 -70 48 -87 10
-45 24 -36 24 16 0 40 -6 53 -56 115 -47 57 -54 72 -44 84 16 19 44 19 60 -1
28 -32 50 -37 91 -18 25 11 39 24 39 36 0 27 9 23 78 -34z m18 20 l19 -23 -25
20 c-14 11 -27 21 -29 22 -2 2 0 3 6 3 5 0 18 -10 29 -22z m580 -136 c136 -82
249 -153 251 -158 2 -6 -35 -31 -82 -57 -98 -55 -71 -61 -264 51 -63 37 -116
75 -119 84 -2 10 -8 18 -13 18 -20 0 -197 115 -186 121 47 26 162 89 164 89 1
0 113 -67 249 -148z m-3943 -40 l107 -54 0 -769 c0 -423 -2 -769 -4 -769 -2 0
-33 19 -69 42 -36 24 -86 55 -111 70 l-46 28 0 756 c0 415 3 754 8 752 4 -1
56 -27 115 -56z m5013 -94 c-3 -13 -11 -65 -17 -115 l-12 -93 -53 -30 c-87
-49 -96 -90 -33 -144 23 -19 38 -39 34 -46 -4 -7 1 -9 18 -5 19 5 55 -12 168
-82 79 -48 206 -122 283 -163 76 -42 139 -80 139 -86 1 -5 -30 -21 -68 -37
-93 -37 -135 -70 -135 -107 0 -25 -10 -34 -92 -83 -51 -30 -108 -62 -125 -71
l-33 -17 0 -438 0 -439 -35 -26 c-19 -15 -72 -48 -117 -75 -46 -27 -229 -135
-408 -241 -179 -106 -602 -352 -940 -548 -338 -195 -939 -543 -1335 -772 -396
-229 -880 -508 -1075 -620 -195 -112 -372 -214 -394 -227 -24 -16 -46 -23 -60
-19 -12 3 -233 132 -492 287 -258 154 -638 378 -844 497 -206 118 -410 237
-453 265 l-78 50 33 20 c40 24 267 153 528 300 107 60 210 118 229 130 l34 21
-7 -45 c-3 -24 -18 -106 -32 -182 l-26 -138 -59 -32 -59 -32 2 -70 3 -70 55
-36 c64 -43 699 -410 753 -435 l36 -17 113 65 113 66 -2 53 c-1 50 -12 70 -45
81 -5 2 -24 190 -43 418 -19 228 -39 467 -45 530 -13 137 -30 114 173 231 159
91 1360 788 1820 1056 313 182 370 213 387 213 11 0 14 -131 3 -193 -5 -33
-13 -42 -57 -67 -28 -16 -57 -34 -63 -40 -19 -16 -16 -84 5 -102 9 -9 91 -57
182 -108 91 -52 257 -146 370 -211 113 -64 221 -125 242 -134 l36 -18 59 33
c125 70 153 93 153 122 0 17 -11 40 -29 58 -34 36 -37 54 -81 535 -17 182 -35
368 -40 415 -5 47 -10 103 -10 126 l0 41 98 60 c53 34 189 114 302 178 113 65
257 148 320 186 224 133 685 397 698 398 8 1 11 -7 8 -21z m-1114 -101 l86
-52 -46 -27 c-46 -27 -47 -27 -77 -9 -16 10 -51 31 -77 46 l-48 27 0 55 0 55
38 -22 c20 -12 76 -45 124 -73z m-203 4 c3 -122 2 -124 -108 -188 -53 -31
-163 -96 -245 -144 -82 -49 -152 -86 -155 -83 -10 9 -5 198 5 201 5 2 115 69
244 147 129 79 240 144 246 145 7 1 12 -27 13 -78z m-949 30 c0 -20 -21 -33
-1100 -654 -726 -418 -979 -565 -1420 -827 -333 -197 -619 -366 -974 -571
-140 -82 -153 -97 -122 -144 17 -25 21 -55 9 -55 -15 0 -73 65 -73 82 0 33 54
77 190 156 74 43 284 166 465 274 182 107 447 263 590 348 143 84 346 204 450
265 105 62 354 207 555 323 201 115 601 347 890 515 289 168 528 306 533 306
4 1 7 -8 7 -18z m110 -46 c34 -19 75 -44 90 -55 15 -11 31 -20 35 -20 3 0 42
-23 86 -51 65 -42 79 -55 79 -77 0 -25 0 -25 -22 -6 -13 10 -32 24 -43 30 -11
6 -75 43 -142 81 l-122 71 -7 -56 c-4 -31 -3 -62 3 -70 5 -9 79 -57 164 -108
l154 -93 6 27 c4 21 6 16 10 -25 2 -28 2 -50 -1 -49 -17 9 -152 90 -247 150
l-113 69 0 109 c0 59 2 108 4 108 2 0 32 -16 66 -35z m-112 -52 c-3 -17 -82
-67 -318 -200 -299 -168 -465 -263 -675 -383 -121 -70 -308 -176 -415 -235
-212 -117 -378 -214 -680 -395 -107 -64 -251 -150 -320 -190 -69 -40 -201
-119 -295 -175 -155 -93 -303 -179 -595 -348 -58 -33 -139 -82 -180 -109 -41
-27 -81 -47 -88 -46 -23 5 -17 22 13 41 63 38 212 127 549 324 191 112 506
298 700 412 290 172 535 316 850 497 21 12 45 20 52 17 8 -3 14 1 14 10 0 17
35 32 64 28 12 -2 17 2 14 11 -4 9 26 32 91 69 544 314 766 438 789 441 15 2
26 8 25 14 -3 15 247 156 264 150 7 -3 13 1 13 9 0 17 31 35 61 35 12 0 19 3
16 7 -11 10 14 33 35 33 13 0 18 -6 16 -17z m1046 -29 c25 -14 48 -29 51 -33
2 -5 -136 -89 -308 -188 -171 -100 -328 -190 -348 -202 l-35 -21 -94 63 c-52
34 -119 76 -150 92 -30 17 -92 54 -138 83 -46 29 -97 55 -115 59 l-32 6 24
-27 c13 -14 115 -80 225 -147 213 -127 242 -147 235 -153 -2 -2 -42 -27 -88
-55 l-85 -52 -40 22 c-23 12 -81 47 -131 77 -49 31 -156 95 -238 143 l-148 87
48 27 c27 15 100 58 163 95 63 38 125 71 138 75 20 6 22 3 22 -29 0 -31 6 -40
42 -66 81 -59 365 -230 382 -230 9 0 65 29 124 64 59 35 165 96 237 136 209
117 205 114 205 160 0 22 2 40 4 40 2 0 24 -12 50 -26z m-850 -60 c135 -78
166 -102 166 -130 0 -24 0 -24 -32 -8 -18 9 -77 44 -130 78 -78 48 -98 65 -98
83 0 13 3 23 7 23 3 0 42 -21 87 -46z m3001 -37 c39 -24 89 -56 113 -71 l43
-27 -24 -19 c-14 -11 -28 -35 -31 -55 -4 -19 -12 -35 -19 -35 -6 0 -37 -18
-68 -40 -32 -22 -60 -40 -63 -40 -3 0 -6 21 -6 48 0 26 -7 92 -15 147 -17 116
-18 135 -7 135 4 0 39 -19 77 -43z m-928 -24 c15 -11 105 -64 198 -118 303
-175 435 -256 435 -266 0 -5 -15 -16 -33 -25 l-33 -16 -100 60 c-54 32 -160
94 -234 137 -382 220 -378 217 -310 263 33 22 34 22 41 4 4 -11 20 -28 36 -39z
m1242 -103 c58 -16 81 -46 81 -104 l0 -51 -59 -19 c-76 -24 -133 -18 -172 20
-21 21 -29 37 -29 63 0 20 4 31 8 25 18 -26 96 -44 162 -37 58 7 65 10 68 32
4 22 1 23 -30 17 -97 -19 -109 -19 -159 4 -53 25 -53 33 1 48 47 13 88 14 129
2z m-3669 -197 c113 -66 229 -134 258 -150 l53 -30 -45 -27 c-24 -14 -50 -26
-56 -26 -6 0 -124 68 -262 150 -138 83 -256 150 -263 150 -6 0 -128 -68 -270
-151 -143 -83 -272 -157 -288 -165 -23 -12 -26 -18 -17 -29 7 -8 122 -80 257
-161 l245 -146 -33 -20 c-31 -19 -34 -19 -68 -3 -55 26 -530 309 -530 317 -1
3 18 17 42 30 23 14 119 69 212 123 94 55 249 143 345 197 171 95 175 97 195
79 11 -10 112 -72 225 -138z m3460 5 c0 -46 3 -107 6 -135 4 -32 3 -53 -3 -53
-5 0 -10 6 -11 13 -14 120 -30 160 -69 180 l-26 14 43 32 c24 17 47 31 52 31
4 0 8 -37 8 -82z m-3554 -114 c115 -69 220 -132 233 -141 23 -15 22 -16 -85
-80 -60 -36 -175 -103 -256 -150 l-147 -84 -235 143 c-130 79 -235 145 -235
148 0 9 484 290 500 290 9 0 110 -57 225 -126z m3442 95 c49 -17 71 -99 34
-132 -28 -26 -88 -47 -132 -47 -83 0 -140 45 -144 111 -3 72 127 108 242 68z
m183 5 c26 -23 96 -28 154 -10 27 8 51 13 53 11 10 -9 -11 -167 -24 -179 -17
-17 -103 -30 -142 -21 -53 11 -70 41 -78 133 -7 88 0 100 37 66z m295 -35 c7
-12 8 -27 18 -234 3 -79 2 -120 -3 -105 -5 14 -9 73 -10 132 -1 65 -5 109 -12
114 -6 3 -9 17 -6 30 3 18 0 24 -14 24 -15 0 -19 8 -19 35 0 32 2 35 19 25 11
-5 23 -15 27 -21z m274 8 c76 -40 77 -127 2 -163 -42 -20 -122 -22 -174 -5
-39 13 -58 47 -58 102 l0 27 50 -19 c77 -29 210 -24 210 8 0 12 -14 14 -72 13
-102 -3 -112 -2 -134 14 -19 15 -19 15 1 30 32 24 123 21 175 -7z m-306 -142
c9 -45 -1 -63 -20 -37 -9 13 -12 32 -8 51 8 38 20 32 28 -14z m-724 28 c-1
-23 -50 -53 -86 -53 -37 1 -38 2 -20 15 11 8 29 12 39 9 12 -4 17 -2 13 4 -4
6 2 15 11 21 21 12 43 14 43 4z m1254 -103 c69 -41 126 -78 126 -81 0 -4 -60
-42 -132 -85 -73 -42 -317 -187 -541 -322 -305 -182 -414 -242 -430 -238 -12
3 -116 58 -232 121 -115 64 -264 146 -330 182 -221 121 -269 153 -245 161 16
6 90 -38 90 -53 0 -8 6 -12 14 -9 8 3 168 -81 356 -187 321 -180 343 -191 368
-180 24 11 837 494 965 574 47 29 48 31 30 48 -10 10 -54 38 -98 62 -59 32
-81 50 -83 67 -4 28 -10 30 142 -60z m-914 -36 c0 -52 -4 -94 -9 -94 -5 0 -25
7 -44 15 -42 17 -122 19 -186 4 -24 -5 -46 -8 -48 -5 -9 9 -27 166 -20 172 4
4 26 -1 49 -12 58 -26 151 -25 203 2 22 11 43 18 48 16 4 -2 7 -46 7 -98z
m-2446 60 c3 -9 6 -33 6 -54 0 -35 11 -147 70 -750 11 -113 23 -215 26 -227 5
-18 0 -25 -30 -39 -20 -10 -39 -15 -42 -11 -4 4 -15 96 -26 204 -15 163 -58
576 -83 799 -6 50 -5 52 27 72 41 25 44 26 52 6z m3182 -190 c-16 -43 -160
-70 -220 -43 -31 14 -36 33 -36 143 0 80 2 87 18 81 9 -4 49 -9 87 -12 54 -3
79 1 110 15 l40 18 3 -95 c1 -52 1 -100 -2 -107z m-565 174 c36 -8 56 -7 100
5 51 16 55 15 73 -2 18 -19 18 -19 -10 -37 -21 -14 -46 -19 -104 -19 -93 1
-151 23 -143 55 4 15 11 19 22 15 9 -4 37 -11 62 -17z m-558 -16 l20 -21 -37
-7 c-48 -8 -143 1 -161 16 -18 15 -35 5 -35 -20 0 -35 153 -51 224 -24 23 9
21 -48 -2 -69 -24 -22 -88 -34 -140 -27 -114 17 -150 139 -49 169 53 17 156 7
180 -17z m1192 -39 c7 -31 0 -40 -20 -23 -8 7 -15 26 -15 42 0 25 3 28 14 19
8 -7 17 -23 21 -38z m-768 5 c-3 -8 -6 -5 -6 6 -1 11 2 17 5 13 3 -3 4 -12 1
-19z m362 -131 c1 -32 6 -67 12 -78 7 -15 7 -24 -2 -35 -9 -11 -9 -21 1 -43
13 -32 7 -51 -15 -51 -17 0 -25 65 -23 200 1 70 -3 105 -10 108 -8 2 -6 11 6
27 l17 23 7 -47 c3 -25 7 -72 7 -104z m-2959 116 c0 -16 5 -71 10 -123 37
-378 80 -811 84 -844 5 -48 -1 -66 -24 -66 -29 0 -38 21 -45 115 -8 115 -51
586 -70 774 -13 134 -13 145 3 157 27 21 42 16 42 -13z m3462 -29 c0 -5 -7
-13 -15 -18 -21 -13 -47 10 -47 41 l0 25 31 -20 c17 -10 31 -23 31 -28z
m-5159 -105 c122 -73 250 -149 285 -169 l63 -37 -98 -57 c-86 -51 -100 -56
-118 -45 -11 7 -123 75 -250 152 -126 76 -234 142 -239 147 -4 4 5 16 20 26
41 25 84 66 84 79 0 10 19 35 28 35 2 0 103 -59 225 -131z m4304 39 c-2 -18
-4 -4 -4 32 0 36 2 50 4 33 2 -18 2 -48 0 -65z m104 76 c36 -9 89 -14 128 -12
l66 3 3 -37 c3 -33 0 -39 -29 -53 -44 -23 -131 -31 -169 -15 -42 17 -70 56
-70 96 0 19 2 34 4 34 2 0 32 -7 67 -16z m-2808 -36 c12 -66 87 -854 87 -910
l0 -27 -107 63 c-60 35 -183 107 -275 160 l-166 97 -7 137 c-4 75 -8 158 -9
184 l-1 48 230 139 c127 77 233 140 236 140 4 1 9 -14 12 -31z m2334 -35 c-3
-10 -5 -2 -5 17 0 19 2 27 5 18 2 -10 2 -26 0 -35z m1130 3 c-11 -27 -27 -17
-27 16 0 30 1 31 16 16 9 -9 14 -24 11 -32z m-1457 16 c0 -13 -31 -38 -77 -61
-24 -12 -43 -26 -43 -32 0 -6 23 -20 50 -32 49 -20 68 -47 33 -47 -10 1 -51
18 -91 38 l-73 38 88 51 c87 51 113 61 113 45z m1738 -277 l2 -284 -370 -221
c-436 -260 -714 -420 -729 -420 -8 0 -11 85 -11 284 l0 283 113 70 c370 230
958 573 982 573 6 0 11 -103 13 -285z m-1149 254 c39 -14 39 -23 -1 -40 -50
-21 -148 -18 -183 5 l-30 20 30 12 c37 16 141 18 184 3z m-514 -29 c46 -23
103 -26 166 -7 l45 14 -8 -51 c-4 -28 -11 -76 -15 -106 l-8 -55 -53 -14 c-50
-13 -55 -13 -102 9 -29 13 -51 31 -54 44 -8 27 -20 186 -15 186 3 0 22 -9 44
-20z m-88 -35 c-7 -16 -37 -21 -37 -5 0 10 32 31 39 25 2 -2 1 -11 -2 -20z
m693 -7 c11 -18 20 -44 20 -58 -1 -20 -4 -17 -15 15 -8 22 -15 41 -15 43 0 2
-4 1 -9 -2 -5 -4 -12 -24 -16 -46 -6 -34 -13 -44 -47 -61 -91 -46 -186 -31
-228 36 -40 66 -21 85 61 61 75 -23 109 -20 170 13 30 17 55 30 57 30 1 1 11
-14 22 -31z m106 0 c46 -20 54 -20 122 -9 41 7 75 11 78 9 2 -2 6 -47 10 -99
l7 -96 -49 -24 c-36 -18 -66 -24 -112 -24 -56 0 -66 3 -86 26 -19 22 -22 39
-24 132 -2 59 -1 107 1 107 3 0 26 -10 53 -22z m-466 -65 c-1 -36 -3 -44 -10
-31 -9 14 -3 78 6 78 2 0 4 -21 4 -47z m894 24 c19 -9 19 -10 1 -23 -10 -8
-24 -14 -31 -14 -13 0 -44 37 -44 52 0 9 45 0 74 -15z m-6802 -199 c185 -112
337 -205 337 -208 0 -5 -289 -175 -516 -304 -92 -52 -107 -58 -125 -47 -11 7
-137 80 -279 162 -143 82 -289 168 -325 190 l-65 41 158 93 c87 50 228 133
313 183 85 50 157 91 160 91 2 1 156 -90 342 -201z m6279 49 c-13 -13 -15 34
-3 73 6 21 7 18 10 -19 2 -24 -2 -49 -7 -54z m-4718 31 c45 -28 150 -93 233
-143 l151 -92 -106 -65 c-172 -106 -387 -228 -400 -228 -16 0 -471 281 -471
291 0 4 35 28 78 52 42 24 151 87 242 140 91 53 171 96 178 97 7 0 49 -23 95
-52z m4103 -107 c159 -88 341 -188 404 -223 l115 -64 2 -275 c2 -151 -1 -280
-6 -288 -10 -16 -52 5 -331 165 -96 56 -247 140 -334 189 l-159 88 6 180 c4
99 7 227 7 284 0 56 2 103 4 103 2 0 133 -72 292 -159z m432 92 c30 3 71 14
93 25 l39 19 0 -97 c0 -123 -13 -145 -93 -155 -46 -6 -59 -3 -110 26 -32 17
-60 36 -62 43 -2 6 -6 50 -8 98 l-5 86 47 -25 c38 -20 55 -24 99 -20z m-258
-43 c0 -5 -7 -10 -15 -10 -8 0 -15 5 -15 10 0 6 7 10 15 10 8 0 15 -4 15 -10z
m568 -60 c31 0 27 -15 -10 -33 -31 -15 -32 -15 -80 26 -26 23 -48 45 -48 48 0
4 26 -4 58 -17 31 -13 67 -24 80 -24z m-93 -60 c3 -5 -3 -10 -14 -10 -12 0
-21 5 -21 10 0 6 6 10 14 10 8 0 18 -4 21 -10z m-75 -61 c0 -15 -69 -41 -89
-34 -12 5 -6 11 24 25 47 21 65 24 65 9z m-2974 -238 c403 -231 488 -281 503
-295 14 -15 7 -56 -10 -56 -5 0 -60 29 -122 64 -62 35 -191 107 -287 161 -321
180 -409 242 -382 269 15 15 58 -5 298 -143z m-2269 6 c269 -164 263 -161 263
-167 0 -3 -26 -19 -58 -37 -31 -18 -75 -43 -97 -57 l-41 -25 -248 149 c-136
81 -246 152 -245 156 4 11 179 112 196 113 6 1 110 -59 230 -132z m6319 -753
c-3 -7 -79 -53 -169 -103 -91 -50 -332 -187 -537 -306 -204 -118 -376 -215
-381 -215 -6 0 -8 165 -7 427 l3 426 215 125 c118 68 334 196 480 282 146 87
294 174 330 194 l65 35 3 -427 c1 -235 0 -432 -2 -438z m-1784 575 c78 -45
215 -123 303 -174 88 -51 201 -114 251 -141 l91 -48 7 -312 c3 -172 3 -361 0
-422 l-7 -109 -56 32 c-31 18 -94 53 -141 79 -47 25 -96 52 -110 61 -27 16
-323 186 -380 218 -19 10 -54 30 -77 44 l-43 25 -1 151 c-1 84 -3 242 -5 352
-5 205 1 325 16 325 4 0 73 -37 152 -81z m-5073 39 c76 -43 411 -249 411 -253
0 -4 -222 -135 -364 -215 l-129 -72 -121 75 c-305 186 -345 212 -338 219 4 3
95 57 202 118 107 62 210 123 229 136 20 13 40 24 45 24 5 0 34 -14 65 -32z
m3488 -93 c7 -20 -19 -49 -75 -80 -24 -14 -46 -25 -48 -25 -2 0 -10 13 -19 30
l-15 29 52 31 c58 33 95 38 105 15z m3488 -48 c126 -70 381 -231 413 -260 31
-30 41 -68 24 -92 -17 -25 -75 -60 -807 -482 -247 -143 -508 -293 -580 -333
-71 -40 -177 -103 -234 -138 l-104 -65 -46 23 c-49 24 -612 343 -873 495
l-157 92 22 21 c12 12 69 48 127 82 l105 60 3 -27 c5 -40 13 -47 126 -110 56
-31 246 -139 424 -240 l323 -184 517 297 c284 163 536 308 560 321 75 43 76
44 80 325 3 136 7 248 11 248 3 0 33 -15 66 -33z m-2105 -280 l0 -273 -131
-78 c-72 -43 -140 -87 -150 -97 -17 -17 -19 -35 -19 -150 0 -123 1 -132 23
-151 13 -11 151 -92 307 -180 157 -88 392 -221 524 -295 l238 -136 37 18 c20
9 270 153 556 320 287 167 532 309 547 315 22 10 31 9 64 -13 22 -13 93 -55
159 -92 144 -81 443 -258 469 -277 21 -17 84 22 -724 -446 -267 -154 -579
-335 -695 -402 -276 -161 -458 -262 -470 -263 -6 0 -84 43 -173 96 -89 54
-363 212 -610 353 -663 379 -1712 988 -1711 994 0 3 71 45 157 94 86 48 303
175 482 281 179 105 417 246 530 311 113 65 288 169 390 231 102 61 188 112
193 112 4 1 7 -122 7 -272z m-5279 37 c210 -126 279 -171 279 -182 0 -4 -15
-16 -34 -26 l-33 -18 -194 115 c-107 64 -201 121 -210 129 -22 17 -35 98 -16
98 7 0 101 -52 208 -116z m-79 -96 c248 -150 267 -170 158 -170 -41 0 -68 8
-124 37 -74 39 -266 161 -266 170 0 6 72 44 85 45 6 0 72 -37 147 -82z m7782
-206 c10 -93 1 -117 -55 -147 l-49 -25 0 89 c0 86 1 90 28 109 25 18 49 29 63
31 4 1 9 -25 13 -57z m-139 -128 c-6 -64 -9 -72 -35 -87 -47 -28 -50 -24 -50
71 l0 87 38 20 37 21 8 -21 c5 -11 6 -52 2 -91z m-125 -48 l0 -84 -36 -21
c-19 -12 -37 -21 -40 -21 -2 0 -4 38 -4 85 l0 85 33 20 c17 11 35 20 40 20 4
0 7 -38 7 -84z m-6832 -223 c13 -159 32 -386 43 -505 25 -285 27 -261 -25
-298 l-45 -30 -5 42 c-3 24 -7 93 -10 153 -3 61 -17 279 -31 485 -14 206 -25
380 -25 387 0 10 56 52 70 53 3 0 16 -129 28 -287z m6716 215 c3 -13 6 -51 6
-85 l0 -62 -45 -27 c-25 -14 -47 -25 -49 -23 -2 2 -6 41 -9 86 l-5 82 41 25
c52 31 53 31 61 4z m-6853 -5 c11 -128 56 -790 64 -945 5 -99 4 -118 -8 -118
-8 0 -20 6 -26 14 -8 9 -21 154 -36 398 -14 210 -29 439 -35 507 -9 113 -9
125 7 137 20 15 33 18 34 7z m-81 -154 c12 -127 61 -862 57 -865 -2 -2 -612
347 -621 356 -2 3 16 116 42 250 l47 245 30 -5 c17 -3 62 -5 100 -4 77 1 169
34 275 98 30 18 56 32 58 31 1 -1 7 -49 12 -106z m6800 22 l0 -89 -42 -25
c-39 -23 -44 -24 -50 -9 -9 22 -9 122 0 145 6 13 74 65 90 67 1 0 2 -40 2 -89z
m-2090 -82 l0 -100 -22 12 c-54 28 -58 36 -58 136 l0 93 40 -20 40 -20 0 -101z
m1966 56 c3 -19 3 -59 0 -88 -7 -51 -9 -55 -51 -75 -52 -25 -55 -22 -55 78 l0
68 43 26 c23 14 45 25 49 26 4 0 10 -16 14 -35z m-1867 -21 c17 -22 21 -41 21
-105 0 -43 -4 -80 -9 -83 -5 -3 -24 5 -42 17 -32 22 -34 26 -37 90 -4 101 24
136 67 81z m1741 -70 c0 -17 -3 -51 -6 -76 -6 -39 -11 -48 -49 -71 -52 -31
-55 -27 -55 74 l0 69 47 30 c52 33 63 29 63 -26z m-1635 19 l35 -17 0 -93 c0
-103 -5 -109 -62 -75 -30 17 -30 18 -24 87 3 39 5 80 6 93 0 26 0 26 45 5z
m156 -184 c-1 -52 -4 -96 -6 -98 -3 -2 -23 8 -46 23 -38 25 -40 30 -35 64 3
20 5 63 6 94 l0 57 41 -24 42 -23 -2 -93z m1337 54 l-3 -88 -42 -23 -43 -23 0
88 0 89 38 22 c20 12 41 22 45 22 4 0 6 -39 5 -87z m-3104 -87 c105 -62 350
-204 545 -316 195 -111 381 -219 414 -240 l59 -38 -68 -40 c-38 -22 -307 -175
-598 -341 -291 -166 -538 -308 -549 -316 -25 -17 -30 -15 -286 137 -102 61
-285 167 -406 236 -321 182 -544 313 -550 322 -6 9 153 105 580 350 165 95
377 217 470 272 94 54 176 96 184 93 8 -3 100 -57 205 -119z m1894 -27 c4
-111 2 -114 -48 -89 l-40 20 0 101 0 100 43 -25 42 -25 3 -82z m1090 44 c3
-88 0 -92 -75 -132 l-23 -12 0 93 0 93 38 21 c20 12 42 21 47 20 6 -2 11 -39
13 -83z m-1004 -14 l36 -21 0 -98 0 -99 -45 26 -45 25 0 94 c0 52 4 94 9 94 6
0 26 -9 45 -21z m870 5 c7 -19 8 -112 0 -139 -4 -17 -70 -65 -88 -65 -4 0 -6
40 -6 90 l0 90 38 19 c46 25 48 25 56 5z m-124 -139 l0 -95 -40 -20 c-21 -11
-44 -20 -50 -20 -6 0 -10 33 -10 85 l0 85 47 30 c26 17 48 30 50 30 2 0 3 -43
3 -95z m-625 68 c19 -9 36 -24 36 -32 3 -32 -2 -175 -6 -179 -2 -3 -19 4 -37
15 l-33 19 -3 97 c-1 53 0 97 2 97 3 0 21 -8 41 -17z m165 -193 l0 -99 -45 26
-45 25 0 98 0 99 45 -26 45 -25 0 -98z m329 48 l2 -93 -79 -42 c-44 -24 -82
-43 -86 -43 -3 0 -6 40 -6 88 0 85 1 89 25 100 36 16 35 17 35 -32 0 -25 5
-48 10 -51 6 -4 10 16 10 54 0 58 1 61 37 86 21 14 41 25 44 25 4 0 7 -42 8
-92z m-6499 44 c0 -27 -10 -33 -33 -20 -20 10 -20 11 -2 24 25 19 35 18 35 -4z
m6288 -156 c1 -53 -1 -96 -5 -96 -4 0 -23 9 -40 20 -35 21 -35 19 -38 150 0
30 1 58 2 62 2 4 21 -3 41 -16 l37 -23 3 -97z m-6252 59 c54 -30 234 -133 399
-228 l300 -172 3 -42 c2 -24 1 -43 -2 -43 -8 0 -486 273 -653 373 l-153 92 0
37 c0 21 2 38 4 38 1 0 48 -25 102 -55z m899 -319 c25 -37 6 -59 -80 -94 -82
-33 -92 -28 -51 27 23 31 93 90 108 91 4 0 15 -11 23 -24z"/>
<path d="M1739 6173 c-11 -13 -14 -64 -13 -241 0 -207 2 -226 19 -238 24 -18
30 -18 49 2 14 13 16 49 16 239 0 190 -2 226 -16 239 -20 20 -38 20 -55 -1z
m39 -228 c0 -93 -3 -183 -7 -200 -10 -44 -23 261 -15 343 12 112 23 42 22
-143z"/>
<path d="M5252 7013 c-75 -37 -132 -139 -132 -236 0 -42 5 -54 34 -83 54 -54
101 -47 185 30 99 91 108 253 16 292 -44 18 -62 17 -103 -3z m112 -42 c49 -54
24 -165 -51 -231 -113 -99 -210 -2 -139 139 50 97 144 143 190 92z"/>
<path d="M5286 6960 c-63 -19 -103 -79 -112 -168 -6 -52 -4 -58 12 -59 11 -1
30 -5 44 -8 60 -15 146 91 136 168 -2 21 -12 47 -22 58 -19 21 -17 21 -58 9z
m-5 -76 c-16 -12 -20 -19 -12 -27 17 -17 13 -64 -6 -71 -21 -9 -35 13 -27 44
6 28 41 70 58 70 6 0 0 -7 -13 -16z m35 -82 c-17 -16 -18 -16 -5 5 7 12 15 20
18 17 3 -2 -3 -12 -13 -22z"/>
<path d="M8447 6906 c-62 -31 -92 -59 -118 -112 -79 -165 -8 -451 166 -672 78
-98 158 -164 255 -211 67 -32 84 -36 155 -36 70 0 87 4 133 29 105 58 148 155
140 315 -21 410 -458 821 -731 687z m220 -32 c173 -59 356 -254 434 -461 29
-80 32 -99 33 -203 1 -102 -2 -120 -22 -160 -54 -103 -110 -134 -226 -128 -65
4 -93 11 -141 36 -216 111 -390 382 -403 628 -6 112 9 178 50 229 59 71 169
95 275 59z"/>
<path d="M8629 6531 c-16 -16 -29 -39 -29 -52 0 -74 63 -168 134 -200 53 -24
59 -24 96 8 30 25 32 30 28 79 -6 66 -45 126 -107 166 -57 36 -85 35 -122 -1z
m145 -62 c39 -42 49 -70 44 -119 -6 -63 -62 -66 -122 -6 -56 57 -70 131 -31
170 22 21 66 4 109 -45z"/>
<path d="M3351 6910 c-30 -16 -69 -41 -87 -55 -18 -14 -42 -25 -53 -25 -12 0
-21 -7 -21 -15 0 -19 24 -20 39 -1 6 7 24 16 39 19 33 7 152 82 152 97 0 15
-10 12 -69 -20z"/>
<path d="M3925 6138 c-115 -71 -266 -161 -335 -200 -69 -39 -147 -88 -175
-108 -27 -20 -115 -76 -195 -123 -80 -48 -189 -115 -243 -149 l-99 -63 0 -475
c0 -261 0 -480 1 -487 1 -7 8 -10 19 -6 38 14 570 319 592 340 3 3 5 223 5
490 0 473 0 485 20 499 20 15 20 13 23 -466 2 -392 5 -480 16 -480 7 0 42 19
77 41 35 23 136 83 224 134 88 51 184 107 213 125 56 35 68 35 58 -3 -4 -17
-30 -39 -83 -70 -43 -26 -133 -79 -199 -119 -464 -278 -720 -431 -1159 -693
-275 -164 -502 -299 -505 -301 -3 -1 -5 223 -5 497 l0 500 25 19 25 19 3 -465
c1 -255 6 -464 11 -464 15 0 535 307 561 332 l26 23 3 481 c2 328 -1 484 -8
488 -6 4 -61 -24 -123 -62 -259 -156 -515 -314 -537 -331 l-24 -19 -1 -525
c-1 -289 2 -528 6 -532 4 -4 18 -5 31 -1 20 5 496 287 1862 1105 l130 78 3
552 c2 520 1 551 -15 550 -10 -1 -112 -59 -228 -131z m215 -347 c0 -230 -3
-439 -6 -463 -5 -38 -11 -48 -38 -60 -17 -9 -138 -79 -268 -156 -180 -106
-238 -136 -242 -125 -3 8 -6 213 -6 456 l1 442 267 163 c146 89 272 162 279
162 10 0 13 -88 13 -419z m-680 -450 l0 -448 -247 -146 c-137 -79 -258 -150
-269 -156 -21 -10 -22 -8 -27 47 -2 31 -2 234 1 449 l5 393 26 17 c93 62 497
300 503 297 5 -3 8 -207 8 -453z m-670 -402 c0 -404 -1 -437 -17 -451 -19 -17
-325 -201 -435 -262 l-68 -38 0 450 0 449 178 110 c295 183 326 201 334 189 4
-6 7 -207 8 -447z"/>
<path d="M3997 5963 c-9 -51 -7 -143 2 -168 7 -16 9 -14 14 14 4 19 7 63 7
100 0 79 -14 111 -23 54z"/>
<path d="M3863 5931 c-36 -23 -40 -28 -47 -65 -8 -47 1 -58 35 -40 28 14 29
14 30 -8 4 -69 -13 -94 -39 -60 -10 13 -21 20 -25 16 -12 -12 -8 -51 8 -64 55
-46 118 84 73 152 -14 20 -14 25 0 46 22 33 3 46 -35 23z"/>
<path d="M3716 5841 c-10 -16 -13 -197 -3 -207 14 -14 18 4 24 93 6 87 -5 141
-21 114z"/>
<path d="M3251 5493 c0 -37 4 -77 9 -88 7 -19 8 -18 14 5 11 41 3 143 -11 148
-10 3 -13 -14 -12 -65z"/>
<path d="M3106 5446 c-12 -77 16 -134 30 -61 7 39 -2 105 -15 105 -5 0 -12
-20 -15 -44z"/>
<path d="M2573 5145 c-13 -9 -23 -25 -23 -35 0 -13 -5 -17 -15 -14 -19 8 -25
-9 -27 -71 -2 -85 1 -105 17 -105 8 0 15 3 15 8 0 4 11 8 25 8 50 3 91 67 76
120 -7 28 -8 27 -15 -17 -6 -40 -12 -49 -46 -68 -29 -16 -40 -19 -41 -9 -3 28
4 43 27 65 16 15 24 33 24 57 0 28 4 35 23 38 27 4 29 32 2 36 -11 1 -30 -5
-42 -13z"/>
<path d="M2436 5055 c-3 -9 -6 -57 -6 -107 0 -67 3 -89 13 -86 15 5 23 170 9
194 -8 15 -10 15 -16 -1z"/>
<path d="M2386 5004 c-3 -9 -6 -42 -6 -74 0 -62 7 -90 21 -90 5 0 9 41 9 90 0
83 -9 112 -24 74z"/>
<path d="M4483 3655 c-79 -40 -143 -101 -143 -136 0 -23 -10 -36 -49 -64 -42
-30 -61 -52 -61 -71 0 -3 14 3 31 11 29 15 32 15 45 -2 7 -10 14 -26 14 -35 0
-22 13 -22 76 -2 64 22 74 31 74 67 0 17 8 39 17 49 10 11 22 34 28 51 7 21
21 37 43 46 37 17 50 50 33 87 -14 31 -43 31 -108 -1z"/>
<path d="M7745 4389 c-16 -5 -67 -7 -112 -4 -86 7 -117 -6 -66 -27 79 -32 242
-13 227 26 -7 18 -7 18 -49 5z"/>
<path d="M8546 3589 c-3 -13 -7 -42 -8 -64 -3 -35 -8 -42 -45 -63 l-41 -22 -7
50 c-4 27 -11 50 -15 50 -12 0 -23 -64 -18 -95 4 -20 -1 -29 -27 -45 -48 -30
-55 -26 -55 29 0 53 -16 77 -25 38 -4 -13 -5 -48 -3 -78 3 -48 5 -54 23 -51
32 5 242 131 249 148 8 20 -3 106 -14 118 -5 5 -11 -1 -14 -15z"/>
<path d="M8555 3082 c-83 -49 -201 -117 -262 -151 l-113 -63 0 -188 c0 -213 5
-254 29 -245 8 3 129 72 267 152 227 131 253 148 258 175 8 41 6 347 -3 377
-4 14 -11 26 -16 28 -6 2 -78 -37 -160 -85z m145 -144 l0 -183 -73 -45 c-39
-24 -146 -86 -237 -137 -143 -81 -166 -91 -172 -76 -3 10 -7 93 -7 184 l-1
165 33 17 c17 9 124 70 237 136 113 66 208 120 213 120 4 1 7 -81 7 -181z"/>
<path d="M7186 2844 c-25 -25 -19 -42 27 -75 51 -37 206 -129 269 -160 39 -19
49 -20 62 -9 27 21 19 57 -18 85 -55 42 -289 175 -307 175 -10 0 -25 -7 -33
-16z"/>
<path d="M6011 9598 l-33 -21 7 -77 7 -77 -39 -14 -38 -15 -52 61 c-29 33 -53
63 -53 67 0 4 24 8 53 10 l52 3 -38 20 -38 19 -43 -22 c-23 -13 -65 -43 -93
-67 -39 -34 -59 -45 -85 -45 l-33 0 33 -20 c26 -16 32 -26 32 -53 0 -27 11
-43 60 -92 43 -42 58 -65 55 -79 -2 -12 -7 -42 -10 -68 -6 -44 -8 -48 -39 -54
-19 -3 -48 -14 -65 -25 -34 -20 -34 -19 -9 -118 10 -38 19 -48 77 -85 63 -40
67 -46 90 -110 23 -66 23 -67 4 -89 -43 -50 -43 -50 -19 -103 30 -64 82 -124
109 -124 11 0 35 12 54 26 39 29 41 29 121 -43 40 -35 45 -44 60 -123 l17 -85
54 -29 c114 -61 161 -51 161 35 0 48 1 49 30 49 25 0 43 -13 96 -70 50 -53 73
-70 93 -70 27 1 118 61 127 85 3 8 -6 40 -20 71 -42 90 -32 113 34 79 73 -38
76 -38 122 8 24 23 52 49 64 57 17 13 20 23 16 68 -3 45 -8 55 -30 66 -51 27
-81 69 -99 140 -16 66 -16 69 2 79 11 6 30 21 43 34 22 22 24 30 18 75 -5 35
-3 53 5 58 20 13 2 27 -71 56 -75 29 -126 75 -157 140 -14 28 -15 38 -5 52 7
9 15 23 18 29 6 13 -98 133 -149 174 l-29 22 -29 -22 -29 -22 -51 43 c-28 24
-61 63 -74 88 -32 64 -52 77 -131 94 -38 8 -81 19 -95 24 -20 8 -32 6 -58 -10z
m111 -68 c41 -18 49 -27 66 -73 11 -28 23 -67 27 -85 4 -18 14 -36 23 -40 10
-3 39 -18 65 -34 26 -15 53 -28 60 -28 7 0 35 20 64 45 l51 45 71 -78 70 -77
-49 -50 -49 -50 49 -91 50 -92 65 -12 c76 -14 103 -33 111 -77 6 -29 3 -33
-35 -52 -62 -32 -73 -55 -60 -127 6 -32 13 -68 15 -80 2 -11 31 -42 64 -68 84
-66 90 -80 50 -121 l-32 -33 -61 28 c-45 20 -67 25 -79 19 -31 -17 -32 -55 -4
-120 14 -33 26 -64 26 -68 0 -4 -22 -22 -50 -39 l-49 -31 -70 75 -70 75 -53
-3 -52 -3 -4 -60 c-2 -33 -5 -62 -7 -64 -7 -6 -100 29 -123 47 -19 15 -26 34
-36 101 l-11 82 -65 50 c-36 28 -73 55 -82 60 -20 11 -49 -1 -85 -34 -21 -19
-24 -19 -41 -3 -11 9 -31 39 -46 66 l-27 49 31 42 c16 23 30 47 30 53 0 6 -14
45 -31 87 -29 73 -33 78 -85 104 -61 31 -80 53 -88 105 -9 48 4 62 61 67 l49
5 17 91 17 90 -58 61 c-33 34 -62 71 -66 84 -9 27 20 78 62 109 l30 22 66 -79
66 -79 60 27 60 27 -7 67 c-10 108 -2 113 99 68z m265 -207 c-17 -17 -20 -16
-75 12 -55 29 -57 32 -78 100 -12 39 -20 74 -17 78 3 4 46 -33 96 -83 87 -86
90 -91 74 -107z m231 -224 c44 -79 71 -107 124 -127 43 -16 57 -27 76 -61 13
-22 22 -49 19 -58 -2 -13 -9 -5 -21 24 -19 46 -20 46 -114 64 l-62 12 -37 72
c-34 68 -38 105 -13 105 6 0 19 -14 28 -31z m163 -434 c15 -88 15 -87 64 -120
35 -24 45 -36 45 -58 l0 -28 -47 40 c-27 22 -58 48 -70 58 -28 23 -51 146 -32
169 18 21 28 6 40 -61z"/>
<path d="M6060 9223 c-40 -17 -82 -60 -106 -109 -24 -50 -26 -62 -21 -137 20
-304 289 -577 501 -507 44 14 102 78 115 127 26 93 0 251 -61 366 -42 80 -157
196 -228 232 -55 28 -165 43 -200 28z m182 -62 c97 -46 202 -166 249 -283 15
-36 23 -83 26 -148 4 -85 2 -100 -19 -139 -34 -65 -67 -86 -136 -85 -34 1 -77
10 -105 23 -93 40 -204 171 -259 303 -31 75 -32 227 -2 278 34 58 79 82 144
78 30 -2 77 -14 102 -27z"/>
<path d="M6197 8932 c-21 -23 -21 -45 -3 -80 33 -63 95 -81 111 -32 9 29 -32
109 -62 121 -31 11 -27 12 -46 -9z m47 -37 c13 -13 13 -20 4 -35 -14 -22 -28
-9 -28 28 0 26 3 27 24 7z"/>
<path d="M5155 9440 c-4 -6 8 -10 30 -10 22 0 34 4 30 10 -3 6 -17 10 -30 10
-13 0 -27 -4 -30 -10z"/>
<path d="M5300 9440 c0 -5 16 -10 35 -10 19 0 35 5 35 10 0 6 -16 10 -35 10
-19 0 -35 -4 -35 -10z"/>
<path d="M5460 9440 c0 -5 17 -10 38 -9 30 0 33 2 17 9 -28 12 -55 12 -55 0z"/>
<path d="M5015 9430 c-18 -8 -17 -9 8 -9 15 -1 27 4 27 9 0 12 -8 12 -35 0z"/>
<path d="M4850 9410 c0 -6 11 -8 28 -4 39 10 40 14 4 14 -18 0 -32 -5 -32 -10z"/>
<path d="M4695 9390 c-7 -12 22 -12 50 0 17 7 15 9 -12 9 -17 1 -35 -3 -38 -9z"/>
<path d="M4575 9372 c-29 -6 -43 -22 -19 -22 20 0 52 16 44 23 -3 2 -14 1 -25
-1z"/>
<path d="M4410 9330 c-12 -8 -12 -10 5 -10 11 0 27 5 35 10 12 8 12 10 -5 10
-11 0 -27 -5 -35 -10z"/>
<path d="M4264 9284 c-18 -14 -18 -15 6 -8 14 3 32 10 40 15 12 7 11 8 -6 9
-11 0 -29 -7 -40 -16z"/>
<path d="M4137 9244 c-16 -9 -27 -18 -24 -21 6 -5 67 24 67 32 0 8 -14 5 -43
-11z"/>
<path d="M3988 9188 c-16 -5 -28 -14 -28 -18 0 -11 58 8 66 21 6 11 -3 10 -38
-3z"/>
<path d="M3846 9125 c-15 -11 -16 -15 -5 -15 8 0 24 7 35 15 14 11 15 14 4 14
-8 0 -24 -6 -34 -14z"/>
<path d="M6950 8921 c0 -10 24 -21 43 -21 7 0 3 7 -7 15 -22 17 -36 19 -36 6z"/>
<path d="M7086 8855 c27 -20 51 -20 34 0 -7 8 -22 15 -33 15 -20 0 -20 0 -1
-15z"/>
<path d="M3411 8815 c-36 -19 -69 -39 -75 -45 -5 -5 -24 -10 -42 -10 -46 0
-109 -25 -189 -75 -85 -53 -179 -147 -171 -173 2 -9 7 -39 11 -67 15 -119 67
-420 75 -434 7 -13 10 -10 15 11 6 24 -20 242 -31 260 -12 19 24 4 100 -41
170 -102 227 -118 310 -86 54 21 138 105 166 167 24 52 26 148 5 207 -8 23
-24 92 -35 154 -24 132 -37 167 -59 167 -9 0 -45 -16 -80 -35z m97 -91 c18
-114 14 -127 -23 -74 -16 24 -49 56 -73 71 l-43 27 53 31 c29 17 58 29 63 27
6 -1 16 -38 23 -82z m-132 -23 c23 -10 49 -29 58 -42 17 -24 16 -24 -31 -38
-84 -23 -150 -84 -195 -179 -28 -58 -30 -70 -26 -138 l5 -74 -31 20 c-17 11
-59 36 -93 56 -34 19 -65 44 -68 55 -4 11 -10 54 -14 95 -7 73 -7 75 23 105
38 38 102 84 181 126 70 38 128 42 191 14z m132 -131 c45 -28 66 -80 59 -151
-6 -66 -26 -110 -76 -162 -52 -56 -105 -80 -158 -74 -110 12 -148 131 -83 263
57 117 176 174 258 124z"/>
<path d="M7199 8806 c6 -8 22 -16 34 -19 22 -6 22 -6 -2 14 -27 22 -49 26 -32
5z"/>
<path d="M7314 8745 c11 -8 27 -15 35 -15 13 1 12 4 -3 15 -11 8 -27 15 -35
15 -13 -1 -12 -4 3 -15z"/>
<path d="M7420 8685 c7 -8 20 -15 29 -15 13 1 13 3 -3 15 -26 19 -42 19 -26 0z"/>
<path d="M7525 8620 c10 -11 25 -20 34 -20 12 1 10 5 -8 20 -30 26 -49 26 -26
0z"/>
<path d="M7619 8556 c8 -9 24 -22 35 -28 19 -10 20 -10 7 6 -8 9 -24 22 -35
28 -19 10 -20 10 -7 -6z"/>
<path d="M7730 8472 c0 -13 23 -32 38 -32 7 0 10 4 7 10 -9 14 -45 32 -45 22z"/>
<path d="M2630 8376 c-58 -35 -172 -103 -255 -151 -82 -49 -216 -129 -297
-179 l-148 -90 0 -428 0 -427 65 -36 c46 -26 71 -35 87 -30 13 4 91 46 173 95
375 220 562 332 590 354 l29 23 -3 401 c-1 221 -6 414 -10 429 -5 18 -27 41
-61 66 -29 20 -56 37 -59 36 -3 0 -53 -29 -111 -63z m152 -2 c21 -15 38 -30
38 -33 0 -7 -41 -33 -275 -169 -99 -58 -251 -147 -338 -199 l-158 -93 -39 23
c-22 12 -38 26 -37 32 5 15 740 460 766 464 3 1 22 -11 43 -25z m51 -251 c9
-210 9 -411 1 -452 -5 -24 -12 -31 -30 -31 -26 0 -38 -18 -48 -71 -6 -33 -14
-40 -129 -104 -465 -263 -488 -277 -474 -291 3 -3 45 16 94 44 48 27 194 109
323 182 129 73 243 139 253 148 15 14 17 13 17 -5 0 -26 -137 -114 -478 -310
-130 -75 -246 -142 -257 -149 -11 -8 -23 -14 -27 -14 -5 0 -7 176 -6 392 l3
392 153 94 c176 106 583 342 593 342 3 0 9 -75 12 -167z m-803 -651 l0 -374
-22 6 c-13 3 -26 6 -30 6 -5 0 -8 174 -8 386 l0 385 30 -18 30 -17 0 -374z
m790 94 c0 -2 -7 -6 -15 -10 -8 -3 -15 -1 -15 4 0 6 7 10 15 10 8 0 15 -2 15
-4z"/>
<path d="M2533 8031 c-283 -163 -379 -224 -366 -228 10 -4 158 78 430 239 138
81 190 118 167 118 -5 0 -109 -58 -231 -129z"/>
<path d="M2530 7914 c-283 -163 -383 -225 -376 -231 8 -8 573 312 606 343 38
36 -29 4 -230 -112z"/>
<path d="M2722 7900 c-73 -33 -572 -322 -572 -331 0 -5 3 -9 6 -9 4 0 88 47
188 104 99 57 235 134 301 171 132 74 130 73 124 79 -2 3 -24 -4 -47 -14z"/>
<path d="M2614 7722 c-333 -182 -464 -258 -464 -270 0 -16 52 11 310 158 113
65 224 127 247 139 39 20 60 38 51 46 -2 2 -67 -31 -144 -73z"/>
<path d="M2399 7492 c-24 -16 -90 -54 -146 -86 -95 -54 -131 -86 -83 -73 37
10 280 160 280 174 0 17 1 17 -51 -15z"/>
<path d="M7850 8365 c13 -14 28 -25 33 -25 6 0 0 11 -13 25 -13 14 -28 25 -33
25 -6 0 0 -11 13 -25z"/>
<path d="M7960 8265 c13 -14 26 -23 28 -20 7 7 -29 45 -41 45 -6 0 0 -11 13
-25z"/>
<path d="M8036 8186 c4 -9 16 -22 27 -28 21 -11 21 -10 6 12 -19 28 -42 39
-33 16z"/>
<path d="M3465 8137 c-115 -61 -389 -220 -423 -245 l-23 -18 15 -100 c17 -113
23 -134 39 -134 18 0 513 286 548 316 13 12 14 24 8 67 -12 76 -41 167 -53
167 -6 0 -56 -24 -111 -53z m119 -43 c7 -58 0 -86 -11 -46 -8 34 -23 26 -23
-13 0 -38 2 -40 31 -25 15 8 19 7 19 -4 0 -8 -10 -16 -22 -18 -13 -2 -22 -9
-21 -16 3 -12 -31 -36 -127 -89 -30 -17 -84 -48 -120 -71 -36 -22 -67 -38 -69
-36 -8 8 44 56 82 75 39 21 46 39 22 59 -25 20 2 48 56 55 36 5 49 12 58 31 6
13 15 24 21 24 15 0 60 42 60 56 0 25 -20 25 -52 1 -18 -14 -56 -36 -84 -50
-28 -15 -54 -33 -58 -42 -3 -9 -10 -14 -16 -10 -12 7 -47 -10 -77 -38 -21 -18
-21 -22 -8 -48 8 -15 15 -41 15 -56 l-1 -28 -19 23 c-11 13 -22 38 -26 57 l-6
33 -39 -16 c-43 -17 -89 -54 -89 -72 0 -7 6 -10 13 -7 6 2 22 0 34 -4 29 -11
53 -2 50 19 -4 30 17 28 28 -2 7 -22 7 -30 -2 -33 -10 -4 -9 -8 2 -20 8 -8 13
-19 9 -24 -5 -9 -78 -49 -88 -49 -2 0 -9 14 -15 30 -5 17 -14 30 -20 30 -11 0
-3 -39 13 -59 8 -11 8 -13 -4 -9 -16 5 -26 38 -33 111 l-5 47 107 64 c121 73
393 226 402 226 3 0 9 -25 13 -56z m-269 -183 c7 -12 -32 -34 -45 -26 -6 3
-10 11 -10 17 0 7 6 6 15 -2 12 -10 15 -10 15 4 0 17 15 22 25 7z"/>
<path d="M3520 8023 c-8 -3 -29 -21 -46 -39 -25 -26 -40 -34 -67 -34 -36 0
-47 -12 -39 -43 6 -22 16 -19 105 35 53 32 67 45 67 64 0 13 -1 24 -2 23 -2 0
-10 -3 -18 -6z"/>
<path d="M3110 7788 c0 -28 25 -51 48 -44 26 9 29 26 5 26 -9 0 -25 7 -35 17
-15 13 -18 14 -18 1z"/>
<path d="M3145 7790 c3 -5 10 -10 16 -10 5 0 9 5 9 10 0 6 -7 10 -16 10 -8 0
-12 -4 -9 -10z"/>
<path d="M8121 8090 c9 -13 22 -26 30 -29 11 -3 10 1 -2 19 -9 13 -22 26 -30
29 -11 3 -10 -1 2 -19z"/>
<path d="M8200 8003 c0 -7 11 -25 25 -40 13 -15 25 -23 25 -16 0 7 -11 25 -25
40 -13 15 -25 23 -25 16z"/>
<path d="M8290 7881 c0 -6 14 -25 31 -43 l30 -33 -15 31 c-16 34 -46 63 -46
45z"/>
<path d="M8380 7751 c0 -6 14 -25 31 -43 l31 -33 -19 33 c-21 38 -43 61 -43
43z"/>
<path d="M8494 7572 c9 -17 21 -34 27 -37 6 -4 4 7 -5 23 -9 17 -21 34 -27 37
-6 4 -4 -7 5 -23z"/>
<path d="M2655 7204 c-105 -58 -201 -117 -214 -129 -26 -25 -30 -69 -22 -230
l4 -80 -64 -37 c-122 -72 -119 -68 -119 -156 0 -43 5 -83 11 -89 8 -8 7 -19
-4 -40 -18 -33 -37 -130 -37 -184 0 -36 3 -40 73 -83 93 -58 162 -84 184 -70
26 16 31 46 18 99 -23 92 -24 153 -4 179 23 29 106 79 118 71 5 -3 19 -35 31
-71 24 -71 55 -113 72 -96 7 7 0 32 -21 75 -34 70 -40 117 -17 117 8 0 18 -4
21 -10 3 -5 16 -10 29 -10 12 0 37 -15 56 -35 19 -19 42 -35 51 -35 25 0 74
45 89 81 7 17 38 56 69 86 l55 56 94 -47 c52 -26 91 -51 86 -55 -5 -5 -67 -44
-139 -88 -71 -44 -170 -105 -220 -137 -49 -32 -148 -92 -220 -135 -71 -42
-166 -100 -209 -129 l-80 -51 -76 40 c-43 22 -84 45 -93 52 -12 9 -20 62 -36
227 -35 360 -35 322 -1 345 36 24 39 45 6 45 -15 0 -33 -11 -46 -27 -25 -32
-25 -55 4 -368 9 -88 16 -258 16 -378 l0 -217 53 -34 c28 -18 82 -49 118 -69
l66 -37 364 221 c200 121 405 248 455 281 l92 59 7 65 c4 36 4 128 0 205 -7
132 -9 140 -34 165 -14 15 -66 46 -116 69 -66 31 -109 60 -160 107 l-70 66 28
29 c25 27 27 36 27 106 0 67 -3 80 -22 99 -21 21 -24 36 -29 153 -4 71 -7 131
-8 133 -7 15 -79 -16 -236 -104z m195 -55 c0 -98 -2 -110 -15 -99 -8 7 -12 16
-9 21 3 5 -6 14 -20 21 -24 10 -26 16 -26 74 0 59 2 64 28 78 15 8 30 15 35
16 4 0 7 -50 7 -111z m-118 -17 l-4 -68 41 -28 c23 -16 39 -32 36 -35 -4 -3
-77 -47 -163 -97 -132 -78 -158 -90 -164 -76 -4 10 -7 62 -7 118 l-1 101 103
63 c56 35 111 69 122 76 38 24 43 18 37 -54z m158 -162 c0 -13 -5 -18 -14 -14
-8 3 -34 -7 -58 -24 -24 -16 -74 -46 -113 -67 -38 -22 -135 -79 -214 -128 -90
-55 -149 -86 -159 -82 -12 4 -6 12 24 29 22 12 67 41 100 63 69 46 372 228
394 236 29 10 40 7 40 -13z m11 -78 c-26 -17 -27 -29 -3 -34 15 -3 14 -5 -4
-16 -20 -10 -22 -9 -27 15 -3 19 2 33 21 52 19 19 27 22 30 11 3 -8 -5 -20
-17 -28z m-63 -29 c-2 -20 -16 -33 -62 -59 -55 -30 -61 -31 -73 -16 -12 16
-13 15 -19 -6 -5 -19 -11 -22 -31 -17 -21 5 -24 3 -21 -16 2 -18 -16 -34 -115
-95 -136 -85 -151 -90 -155 -52 -3 24 6 32 95 83 54 31 121 71 148 88 117 72
201 117 218 117 14 0 18 -6 15 -27z m-18 -68 c-7 -8 -17 -15 -23 -15 -6 0 -2
7 9 15 25 19 30 19 14 0z m55 -44 c9 -16 -48 -73 -109 -110 -55 -33 -57 -33
-77 -15 -20 18 -21 18 -65 -5 -24 -13 -44 -28 -44 -32 0 -5 -4 -9 -10 -9 -18
0 -11 25 10 38 12 7 44 25 73 41 29 16 77 45 107 64 53 35 103 47 115 28z
m124 -142 c-5 -10 -22 -27 -38 -38 l-29 -21 -36 57 c-41 65 -42 74 -19 109
l16 25 58 -57 c47 -46 56 -61 48 -75z m-334 102 c-9 -8 -230 -152 -259 -168
-8 -4 -8 -2 -1 5 10 11 257 171 265 172 2 0 0 -4 -5 -9z m-364 -124 c-10 -15
-9 -22 4 -37 11 -12 13 -20 6 -25 -21 -12 -31 6 -29 53 2 57 8 70 21 47 7 -13
6 -24 -2 -38z m530 -49 c2 -54 -1 -101 -5 -105 -4 -5 -15 2 -24 13 -10 12 -27
34 -40 50 l-23 29 4 -28 c3 -22 2 -25 -9 -16 -18 14 -17 57 0 88 11 20 85 75
92 68 2 -1 4 -46 5 -99z m-146 41 c10 -30 -3 -56 -30 -61 -29 -6 -35 -2 -35
26 0 53 51 80 65 35z m198 -13 c8 -19 -4 -96 -14 -96 -5 0 -9 25 -9 55 0 52
11 72 23 41z m-328 -33 c35 -24 37 -27 21 -37 -152 -89 -169 -125 -131 -271 9
-37 11 -63 6 -68 -11 -11 -171 65 -192 89 -10 12 -7 31 14 94 15 44 27 95 27
115 0 28 5 37 23 44 14 5 25 4 29 -2 7 -12 67 12 108 43 33 26 48 25 95 -7z
m682 -235 l2 -166 -112 -70 c-62 -39 -233 -143 -380 -231 -148 -89 -288 -175
-312 -191 -24 -17 -46 -30 -49 -30 -3 0 -4 77 -2 171 l2 170 45 29 c24 15 166
103 314 195 149 92 315 196 370 231 55 34 105 61 110 60 6 -2 11 -68 12 -168z
m-899 -532 l3 -158 -91 48 -90 48 0 162 0 162 88 -52 87 -52 3 -158z"/>
</g>
</svg>
