<?xml version="1.0" standalone="no"?>
<!DOCTYPE svg PUBLIC "-//W3C//DTD SVG 20010904//EN"
 "http://www.w3.org/TR/2001/REC-SVG-20010904/DTD/svg10.dtd">
<svg version="1.0" xmlns="http://www.w3.org/2000/svg"
 width="1024.000000pt" height="1024.000000pt" viewBox="0 0 1024.000000 1024.000000"
 preserveAspectRatio="xMidYMid meet">

<g transform="translate(0.000000,1024.000000) scale(0.100000,-0.100000)"
fill="#e0e0e0" stroke="none">
<path d="M5905 9713 c-55 -30 -206 -114 -335 -187 -407 -230 -710 -400 -870
-489 -85 -46 -243 -133 -350 -193 -107 -59 -253 -139 -325 -177 -186 -99 -266
-147 -297 -178 l-27 -27 -1 -1500 0 -1500 45 -26 45 -27 137 70 c76 39 174 91
218 117 125 72 287 163 1480 831 231 130 441 249 468 265 l47 30 0 1169 0
1169 61 -37 c101 -64 218 -161 349 -293 407 -409 657 -933 709 -1484 12 -123
31 -152 31 -47 0 123 -41 347 -97 531 -103 339 -308 693 -550 950 -150 160
-238 237 -410 358 l-93 65 0 298 0 299 -47 35 c-27 19 -57 34 -68 34 -11 0
-65 -25 -120 -56z m123 -55 c-3 -7 -34 -29 -69 -49 -227 -127 -1466 -812
-1769 -977 l-365 -200 -2 -1458 c-1 -911 -6 -1460 -12 -1462 -5 -2 -12 2 -16
7 -4 8 -9 2359 -5 2871 l0 55 48 25 c209 112 1374 755 1782 983 212 119 391
216 398 216 8 1 12 -5 10 -11z m24 -155 c2 -60 3 -700 3 -1423 l0 -1315 -145
-80 c-177 -99 -1628 -911 -1869 -1047 -96 -54 -176 -96 -177 -95 -2 2 -4 648
-5 1436 l-1 1434 434 236 c238 131 622 342 852 471 504 280 888 490 898 490 4
0 8 -48 10 -107z"/>
<path d="M5791 8965 c-51 -25 -123 -63 -160 -84 -36 -21 -228 -125 -426 -231
-198 -105 -368 -199 -378 -208 -10 -9 -14 -19 -8 -25 10 -10 31 0 406 203 160
86 376 203 482 259 172 92 228 131 189 131 -7 0 -54 -20 -105 -45z"/>
<path d="M5830 8809 c-30 -17 -188 -102 -350 -189 -317 -170 -624 -338 -655
-357 -15 -9 -17 -15 -8 -24 9 -9 124 49 500 251 506 273 583 316 583 330 0 20
-19 17 -70 -11z"/>
<path d="M4459 8546 c-36 -19 -84 -45 -105 -59 -22 -13 -69 -39 -104 -57 -92
-47 -128 -77 -156 -131 -33 -67 -42 -145 -37 -349 5 -203 6 -213 35 -240 37
-34 72 -25 222 56 248 135 283 164 305 264 17 73 14 455 -3 489 -33 64 -72 70
-157 27z m107 -37 c18 -19 19 -39 19 -248 0 -205 -2 -230 -20 -266 -27 -54
-90 -99 -266 -190 -174 -89 -183 -89 -195 2 -4 31 -5 143 -2 248 6 228 10 238
116 308 85 57 292 167 313 167 9 0 24 -9 35 -21z"/>
<path d="M4467 8338 c-13 -24 -54 -103 -91 -175 -36 -73 -69 -133 -71 -133 -3
0 -28 11 -55 25 -27 14 -56 25 -63 25 -21 0 -38 -25 -31 -45 8 -20 165 -99
175 -88 15 18 214 412 209 416 -3 2 -15 7 -26 11 -18 5 -26 -1 -47 -36z"/>
<path d="M5665 8267 c-110 -60 -344 -187 -519 -281 -296 -158 -356 -196 -310
-196 43 0 1064 553 1064 577 0 26 -37 10 -235 -100z"/>
<path d="M5655 8079 c-121 -66 -330 -179 -465 -251 -279 -149 -362 -198 -368
-215 -10 -33 13 -22 618 306 217 118 412 225 433 238 35 22 42 43 14 43 -7 0
-111 -55 -232 -121z"/>
<path d="M5755 7831 c-72 -37 -229 -122 -350 -188 -121 -66 -291 -157 -377
-204 -181 -96 -207 -114 -193 -128 11 -10 1013 523 1049 558 40 40 -6 27 -129
-38z"/>
<path d="M4415 7669 c-49 -28 -125 -68 -167 -90 -176 -89 -183 -107 -183 -452
l0 -259 28 -24 c15 -13 39 -24 53 -24 27 0 253 118 359 189 81 53 101 86 117
188 16 103 6 439 -15 479 -31 60 -75 59 -192 -7z m142 -13 l28 -24 -1 -234
c-1 -284 -2 -288 -109 -359 -100 -68 -292 -169 -319 -169 -47 0 -49 14 -47
277 2 174 6 256 15 278 20 46 72 86 192 147 60 31 129 68 154 82 25 14 48 26
52 26 4 0 20 -11 35 -24z"/>
<path d="M4466 7472 c-13 -21 -52 -95 -86 -163 -34 -68 -66 -129 -72 -136 -7
-8 -24 -4 -65 18 l-56 30 -24 -23 c-29 -27 -25 -32 77 -88 68 -37 76 -39 87
-24 27 37 204 397 200 407 -9 27 -37 17 -61 -21z"/>
<path d="M5535 7534 c-597 -325 -705 -387 -705 -400 0 -8 5 -14 11 -14 6 0
129 64 273 142 143 78 378 205 521 283 163 88 261 147 263 158 2 9 -2 17 -10
16 -7 0 -166 -83 -353 -185z"/>
<path d="M5555 7216 c-27 -12 -115 -59 -195 -103 -80 -44 -212 -115 -295 -158
-179 -93 -241 -133 -227 -147 17 -17 782 393 782 419 0 18 -7 17 -65 -11z"/>
<path d="M5809 7157 c-24 -13 -134 -72 -244 -131 -110 -60 -299 -161 -421
-226 -234 -125 -304 -167 -304 -182 0 -25 45 -2 695 349 292 158 355 194 355
205 0 15 -37 8 -81 -15z"/>
<path d="M5705 6919 c-728 -389 -865 -466 -865 -485 0 -8 4 -14 10 -14 8 0
977 520 1030 552 22 14 27 38 8 38 -7 -1 -89 -42 -183 -91z"/>
<path d="M4344 6773 c-190 -100 -223 -124 -257 -188 -21 -37 -22 -56 -25 -294
-4 -279 0 -301 50 -322 28 -11 35 -10 67 9 20 12 94 52 164 89 139 73 230 140
258 188 15 25 19 67 25 255 7 240 1 293 -37 329 -40 37 -59 32 -245 -66z m226
12 c11 -24 14 -78 15 -255 0 -258 -3 -271 -85 -324 -88 -56 -345 -196 -360
-196 -37 0 -40 18 -40 260 1 300 5 315 119 387 87 57 301 164 319 161 9 -2 23
-17 32 -33z"/>
<path d="M4415 6528 c-37 -73 -79 -152 -92 -175 l-25 -43 -36 25 c-43 30 -82
33 -82 8 0 -10 4 -23 8 -28 7 -11 89 -77 108 -88 15 -9 47 40 151 234 67 125
84 165 76 178 -24 37 -39 21 -108 -111z"/>
<path d="M4720 9373 c-169 -25 -239 -40 -334 -67 -288 -86 -604 -254 -854
-456 -130 -105 -342 -322 -433 -445 -190 -257 -327 -556 -388 -850 -26 -122
-47 -349 -37 -390 13 -52 24 -9 35 141 19 260 81 486 200 729 123 250 257 432
478 645 370 359 873 611 1319 661 75 9 104 15 104 25 0 14 -32 16 -90 7z"/>
<path d="M8311 8735 c-79 -18 -182 -65 -237 -110 -209 -172 -279 -559 -170
-937 l24 -82 -24 -65 c-13 -35 -51 -116 -84 -180 -33 -63 -57 -118 -53 -122 5
-4 49 3 98 17 92 24 244 54 280 54 11 0 58 -32 105 -71 174 -145 406 -213 572
-169 175 48 318 206 374 415 25 93 30 311 9 420 -44 238 -149 448 -304 605
-117 120 -285 211 -413 225 -29 3 -66 8 -83 10 -16 2 -59 -3 -94 -10z m219
-50 c215 -51 405 -222 534 -482 48 -97 88 -215 106 -313 17 -92 14 -271 -5
-360 -41 -183 -162 -351 -291 -400 -73 -28 -213 -38 -293 -20 -115 25 -245 99
-358 203 l-43 39 -67 -7 c-63 -6 -221 -37 -268 -52 -16 -5 -18 -3 -8 8 19 24
84 158 104 216 25 72 24 98 -6 212 -52 197 -57 394 -16 554 80 308 324 469
611 402z"/>
<path d="M8619 8029 c-118 -83 -221 -157 -230 -165 -8 -8 -18 -14 -21 -14 -3
0 -22 25 -41 55 -64 95 -111 106 -183 43 -50 -44 -56 -60 -39 -101 19 -47 192
-347 212 -369 35 -40 62 -25 263 143 296 246 388 328 395 350 9 28 0 60 -36
121 -33 57 -64 87 -90 88 -9 0 -112 -68 -230 -151z m278 50 c56 -97 76 -68
-242 -340 -157 -134 -289 -245 -293 -247 -4 -1 -24 26 -44 60 -150 263 -179
318 -173 328 4 6 25 25 48 41 l40 29 24 -22 c14 -13 40 -49 60 -80 19 -32 38
-58 42 -58 4 0 48 30 97 67 176 134 389 283 399 280 6 -2 24 -28 42 -58z"/>
<path d="M2005 7174 c-176 -37 -302 -109 -445 -253 -236 -237 -400 -620 -400
-933 0 -230 78 -386 228 -460 63 -31 73 -33 172 -32 95 0 113 3 195 35 122 47
222 115 331 225 144 145 241 301 307 490 52 150 71 251 71 389 -1 290 -131
496 -338 534 -60 11 -85 12 -121 5z m193 -59 c101 -45 170 -135 214 -275 20
-65 23 -95 22 -220 -1 -122 -5 -160 -27 -241 -94 -356 -302 -636 -581 -785
-117 -62 -220 -87 -309 -75 -217 30 -331 197 -329 481 2 413 274 889 613 1074
144 79 282 93 397 41z"/>
<path d="M2058 6560 c-100 -154 -187 -280 -191 -280 -5 0 -105 43 -222 95
-118 52 -221 95 -229 95 -9 0 -16 -6 -16 -13 0 -23 385 -626 409 -641 5 -4 18
5 29 19 35 45 445 983 435 998 -14 24 -49 -20 -215 -273z m56 -22 c-69 -164
-298 -678 -300 -675 -5 5 -344 540 -344 542 0 3 354 -155 387 -173 27 -15 28
-13 178 221 59 92 109 167 111 167 2 0 -13 -37 -32 -82z"/>
<path d="M7115 6554 c-44 -25 -110 -61 -146 -79 -36 -18 -70 -40 -77 -48 -9
-10 -13 -328 -14 -1313 l-3 -1299 -82 -225 c-45 -124 -96 -262 -113 -307 l-31
-81 -92 -52 c-51 -29 -263 -153 -472 -275 -209 -122 -450 -262 -535 -310 -85
-48 -167 -99 -182 -113 -26 -24 -28 -31 -28 -104 0 -88 14 -130 56 -170 16
-14 130 -85 254 -156 124 -71 421 -243 660 -382 745 -433 1090 -629 1128 -640
59 -16 157 -12 218 10 31 10 145 71 253 133 251 146 498 287 1106 632 581 329
575 325 600 367 20 33 20 51 20 1488 l0 1455 -29 58 c-40 82 -116 153 -232
217 -432 236 -456 251 -528 324 -49 49 -98 86 -158 119 l-88 48 0 97 c0 183
-30 282 -110 362 -64 64 -113 85 -197 84 -62 -1 -83 -6 -140 -35 -75 -38 -107
-75 -117 -138 -3 -22 -11 -43 -16 -46 -11 -7 -161 70 -559 287 -140 76 -257
138 -260 138 -4 0 -42 -21 -86 -46z m140 -102 c33 -16 97 -52 141 -80 44 -27
133 -76 197 -108 l117 -57 -60 -34 c-33 -18 -62 -33 -65 -33 -2 0 -62 33 -132
73 -71 41 -186 104 -256 141 l-128 68 33 23 c30 21 55 31 83 34 6 0 37 -12 70
-27z m-116 -106 c31 -18 138 -77 239 -131 174 -94 181 -99 166 -117 -19 -20
-13 -23 -274 124 -63 35 -158 84 -210 108 -111 50 -125 60 -84 60 16 0 36 5
44 10 10 6 22 4 39 -6 13 -9 49 -31 80 -48z m-168 -18 c12 -11 13 -64 9 -343
-3 -181 -3 -685 0 -1119 4 -705 3 -794 -11 -825 -15 -34 -16 -24 -22 223 -10
367 -9 2076 1 2076 5 0 15 -6 23 -12z m1380 -16 c64 -41 117 -107 136 -172 13
-42 17 -89 15 -202 l-1 -148 112 -53 c183 -88 216 -139 225 -339 5 -120 -2
-148 -34 -148 -11 0 -13 24 -13 109 0 167 -23 208 -172 307 -85 56 -104 64
-130 59 -20 -5 -38 -1 -54 9 -24 16 -24 17 -23 178 1 189 -9 227 -75 283 -45
39 -61 42 -113 20 -52 -22 -64 -60 -64 -211 0 -69 -3 -124 -7 -122 -5 2 -25
12 -45 23 l-38 19 0 130 c0 150 9 192 47 228 71 66 159 77 234 30z m-1303 -15
c9 -7 12 -214 12 -974 0 -946 0 -967 -21 -1055 -12 -49 -23 -87 -26 -84 -3 3
-8 485 -11 1071 -5 1042 -4 1065 14 1059 10 -4 25 -11 32 -17z m257 -141 l190
-104 -3 -76 -3 -76 38 -17 c60 -27 1656 -895 1672 -909 11 -10 12 -90 2 -505
-12 -525 -19 -648 -52 -909 -38 -310 -120 -686 -196 -904 -79 -227 -199 -433
-328 -562 -92 -92 -131 -114 -311 -173 -150 -49 -272 -99 -403 -165 -39 -20
-75 -36 -81 -36 -5 0 -38 17 -72 38 -84 52 -921 516 -1125 625 -195 104 -243
133 -243 150 0 22 73 138 188 297 62 85 127 184 146 220 53 102 168 394 304
775 235 658 264 751 316 1008 13 65 26 120 28 122 4 4 397 -214 430 -240 l26
-20 -53 -184 c-30 -101 -56 -186 -60 -189 -6 -6 -71 25 -229 112 -93 51 -116
58 -116 36 0 -20 311 -190 349 -190 10 0 23 11 29 25 14 31 112 386 112 406 0
16 0 16 -172 115 -168 97 -316 174 -333 174 -14 0 -26 -45 -45 -165 -29 -183
-198 -697 -441 -1340 -119 -314 -177 -442 -234 -520 -21 -27 -35 -43 -32 -35
3 8 48 125 100 260 85 221 163 437 335 940 l57 165 3 978 c1 537 6 977 10 976
4 0 93 -47 197 -103z m1042 -44 c25 -41 36 -101 21 -112 -3 -3 -41 15 -83 40
-75 44 -76 45 -71 80 3 19 15 43 27 52 20 17 23 17 51 0 16 -9 41 -36 55 -60z
m-427 -3 c93 -51 110 -65 110 -85 0 -23 -4 -22 -130 41 -71 36 -135 65 -142
65 -16 0 -150 -62 -166 -77 -8 -7 -23 -18 -34 -24 -18 -9 -18 -9 -9 10 27 49
190 144 234 136 15 -2 77 -32 137 -66z m-20 -88 c108 -59 126 -72 130 -97 4
-24 17 -35 70 -63 36 -18 136 -71 222 -118 135 -72 160 -83 178 -73 17 9 30 5
82 -26 88 -54 144 -111 157 -161 7 -24 10 -82 9 -131 l-3 -88 -330 183 c-181
101 -452 249 -602 330 l-271 147 13 26 c7 14 25 36 39 49 25 24 150 90 171 91
6 0 66 -31 135 -69z m395 -115 c69 -42 70 -43 73 -90 l3 -47 -83 42 c-46 23
-85 43 -87 45 -6 5 10 94 17 94 4 0 39 -20 77 -44z m648 -412 c18 -9 135 -73
262 -143 243 -133 292 -170 329 -250 l21 -46 3 -1403 c1 -771 -1 -1417 -6
-1435 -9 -38 -92 -97 -297 -209 -152 -84 -1151 -649 -1419 -803 -154 -89 -194
-108 -244 -115 -118 -16 -143 -7 -412 147 -867 499 -1598 925 -1658 965 -79
53 -112 96 -112 143 l1 30 13 -30 c8 -16 26 -42 42 -57 16 -14 187 -117 379
-228 193 -112 413 -240 490 -285 77 -46 311 -181 520 -301 209 -119 414 -237
455 -261 95 -55 170 -83 221 -83 63 0 152 35 298 119 75 43 303 172 506 286
204 115 476 269 605 343 129 75 303 173 385 220 83 46 160 90 173 98 l23 15
-3 1422 c-3 1597 4 1459 -80 1532 -25 22 -135 89 -244 149 -254 140 -294 165
-294 182 0 18 4 18 43 -2z m92 -126 c72 -41 182 -102 246 -137 64 -34 134 -80
155 -102 l38 -39 7 -118 c4 -64 8 -707 8 -1429 l1 -1312 -92 -54 c-116 -67
-639 -364 -1153 -655 -214 -121 -442 -250 -505 -287 l-115 -66 -91 3 -90 4
-360 206 c-197 113 -378 215 -401 227 -24 12 -43 25 -43 29 0 4 29 22 65 40
119 62 156 91 153 121 -2 21 -24 38 -128 99 l-125 74 -55 -22 c-78 -32 -160
-78 -193 -108 -25 -24 -30 -25 -50 -12 -12 7 -170 99 -352 203 -453 260 -481
279 -504 338 -15 42 -23 36 444 304 132 76 310 179 395 230 85 50 190 111 234
134 l79 43 -7 -29 c-4 -15 -47 -110 -96 -210 l-90 -183 -92 -46 c-107 -54
-301 -165 -337 -193 l-25 -19 55 -34 c30 -19 155 -90 279 -158 307 -168 760
-422 1085 -608 149 -85 275 -155 280 -155 6 0 195 106 420 235 226 129 534
298 685 376 151 77 356 183 455 235 l180 95 5 1333 6 1334 -27 27 c-27 26
-202 133 -391 239 -97 54 -98 54 -98 92 0 21 3 36 8 34 4 -3 66 -38 137 -79z
m21 -130 c330 -193 332 -194 307 -219 -9 -9 -23 -2 -60 29 -26 22 -86 61 -133
87 -47 26 -121 68 -165 92 -83 47 -115 70 -115 85 0 19 33 4 166 -74z m-1 -75
c88 -49 180 -102 204 -118 l44 -29 -7 -346 c-19 -945 -64 -1372 -195 -1836
-98 -346 -193 -537 -340 -685 -104 -103 -124 -104 -40 -1 196 239 329 605 423
1162 69 410 86 644 89 1253 l2 428 -23 18 c-13 9 -102 59 -198 110 -96 51
-174 96 -174 101 0 9 43 39 50 35 3 -2 77 -43 165 -92z m310 -1451 c0 -698 -2
-1273 -5 -1275 -11 -11 -290 138 -290 154 0 8 11 49 25 90 72 210 142 523 174
779 35 277 61 775 61 1161 0 251 8 371 24 366 8 -3 11 -359 11 -1275z m-3004
-1140 c-6 -12 -11 -32 -11 -45 0 -30 28 -49 232 -159 198 -106 1038 -572 1179
-654 l76 -44 114 54 c112 53 327 136 351 136 14 0 -54 -41 -217 -132 -55 -31
-171 -97 -258 -147 -86 -50 -164 -91 -172 -91 -9 0 -151 78 -318 174 -166 95
-516 291 -777 436 -261 144 -490 271 -508 282 l-33 20 53 31 c143 83 293 165
296 162 2 -2 -1 -12 -7 -23z m2840 -109 l130 -67 -43 -21 c-24 -12 -141 -72
-260 -134 -120 -62 -218 -110 -218 -107 0 3 28 43 61 88 34 46 87 134 118 196
30 61 61 112 68 112 7 0 72 -30 144 -67z m-2514 -582 c45 -24 94 -54 109 -66
l27 -22 -34 -25 c-19 -14 -68 -44 -111 -66 -68 -36 -79 -39 -100 -27 -157 85
-219 127 -206 141 10 9 223 114 228 111 3 -1 42 -22 87 -46z"/>
<path d="M7246 5763 c-3 -3 -6 -64 -6 -134 l0 -127 113 -65 c61 -35 215 -119
341 -187 126 -67 403 -220 615 -340 402 -227 657 -367 703 -387 17 -8 30 -9
33 -3 4 6 6 63 6 127 0 102 -2 119 -18 131 -35 26 -495 283 -923 517 -239 130
-527 289 -640 352 -113 64 -208 117 -211 119 -3 2 -9 1 -13 -3z m167 -129 c67
-37 156 -86 197 -109 41 -23 311 -172 600 -330 289 -158 587 -324 663 -368
l137 -81 0 -76 c0 -41 -4 -80 -8 -87 -5 -9 -67 21 -212 103 -238 135 -1110
620 -1347 750 l-163 89 0 87 c0 49 2 88 5 88 3 0 61 -30 128 -66z"/>
<path d="M7161 5338 c-4 -12 -5 -31 -2 -41 7 -20 428 -249 446 -244 6 2 11 17
13 33 3 27 -4 33 -115 96 -65 36 -166 92 -226 123 l-107 57 -9 -24z"/>
<path d="M7395 4790 c-3 -5 -3 -15 0 -21 4 -5 8 -31 9 -57 4 -64 78 -236 103
-240 17 -2 43 13 184 105 41 27 65 64 56 87 -10 26 -37 19 -130 -35 -48 -28
-90 -50 -91 -48 -2 2 -27 50 -55 106 -51 103 -65 121 -76 103z"/>
<path d="M7955 4649 c-4 -11 -5 -22 -3 -23 7 -7 676 -385 715 -405 51 -26 49
-26 56 -1 4 17 -13 31 -111 89 -173 102 -635 361 -643 361 -4 0 -11 -9 -14
-21z"/>
<path d="M7934 4555 c-4 -8 -1 -22 6 -30 6 -8 114 -71 238 -141 125 -70 286
-163 359 -206 72 -43 134 -78 138 -78 3 0 9 10 14 23 10 27 0 34 -259 177 -96
54 -244 136 -329 184 -85 47 -156 86 -158 86 -2 0 -6 -7 -9 -15z"/>
<path d="M7907 4393 c-19 -18 4 -38 126 -111 157 -94 242 -142 251 -142 13 0
5 48 -11 63 -19 16 -343 197 -354 197 -3 0 -9 -3 -12 -7z"/>
<path d="M7267 4111 c-32 -92 -66 -198 -77 -235 l-19 -66 32 -24 c18 -12 68
-42 112 -66 44 -24 131 -72 194 -108 89 -51 115 -62 122 -51 21 35 147 486
137 493 -35 26 -421 226 -435 226 -5 0 -34 -76 -66 -169z m171 80 c81 -41 284
-150 291 -157 8 -7 -112 -416 -123 -420 -10 -4 -335 166 -380 199 -19 13 -18
19 43 198 64 184 77 219 87 219 2 0 39 -18 82 -39z"/>
<path d="M7310 4029 c0 -34 60 -216 75 -229 16 -13 71 22 220 140 78 63 89 82
55 100 -24 13 -19 15 -134 -67 -48 -35 -93 -63 -100 -63 -6 0 -27 28 -46 61
-38 68 -70 94 -70 58z"/>
<path d="M7856 3935 c-3 -9 3 -23 13 -32 11 -9 142 -83 293 -165 150 -82 295
-163 321 -179 50 -31 67 -31 67 0 0 13 -42 42 -142 98 -309 174 -529 293 -542
293 -2 0 -6 -7 -10 -15z"/>
<path d="M7825 3849 c-9 -26 3 -37 80 -76 28 -14 172 -95 321 -179 149 -85
276 -154 281 -154 15 0 26 31 15 42 -5 5 -139 82 -298 170 -159 89 -312 174
-341 190 l-51 29 -7 -22z"/>
<path d="M7785 3689 c-6 -17 -2 -27 13 -40 38 -30 282 -160 291 -155 5 3 11
15 14 26 4 16 -13 29 -112 81 -64 34 -135 72 -158 86 l-41 24 -7 -22z"/>
<path d="M7039 3442 c-42 -114 -80 -217 -83 -228 -6 -19 3 -27 61 -59 37 -21
141 -81 231 -133 99 -57 167 -91 173 -85 11 11 169 439 169 459 0 6 -458 254
-468 254 -4 0 -41 -94 -83 -208z m204 105 c50 -29 138 -77 195 -107 56 -29
102 -59 102 -66 0 -17 -74 -237 -109 -324 -15 -36 -31 -64 -36 -63 -6 1 -98
52 -206 115 l-197 113 38 105 c38 106 98 258 106 272 8 12 7 12 107 -45z"/>
<path d="M7110 3439 c0 -38 77 -289 89 -289 12 0 229 126 266 155 36 27 44 52
23 73 -16 16 -38 15 -57 -2 -9 -8 -54 -36 -101 -61 -97 -54 -79 -61 -156 63
-43 67 -64 88 -64 61z"/>
<path d="M7697 3216 c-4 -9 0 -22 8 -29 7 -8 129 -79 270 -158 141 -79 272
-156 291 -172 32 -27 45 -57 25 -57 -9 0 -335 181 -496 275 -115 68 -135 74
-135 43 0 -20 32 -41 211 -143 232 -132 401 -225 410 -225 6 0 49 100 49 116
0 12 -102 73 -400 242 -226 128 -225 128 -233 108z"/>
<path d="M6885 3040 c-11 -17 2 -27 143 -103 248 -135 344 -180 340 -160 -4
22 -111 86 -320 193 -93 48 -159 76 -163 70z"/>
<path d="M7617 2977 c-8 -21 16 -40 146 -117 114 -68 123 -70 126 -24 1 9
-207 133 -250 149 -10 4 -19 0 -22 -8z"/>
<path d="M6785 2817 c-22 -12 -40 -29 -40 -37 0 -8 47 -40 110 -73 409 -217
958 -523 1132 -631 l92 -57 38 20 c45 24 78 49 72 55 -9 8 -433 255 -704 409
-405 231 -606 337 -635 337 -14 0 -43 -11 -65 -23z m204 -84 c42 -25 195 -111
341 -190 146 -80 386 -215 533 -301 248 -144 266 -157 246 -168 -18 -9 -27 -9
-43 1 -12 7 -181 105 -376 217 -407 236 -620 353 -772 429 -60 30 -108 56
-108 60 0 3 10 11 23 16 25 12 35 8 156 -64z"/>
<path d="M7540 2656 c0 -20 22 -34 290 -186 129 -73 247 -142 262 -152 31 -21
48 -17 48 12 0 14 -18 29 -62 51 -35 17 -139 75 -233 129 -185 106 -286 160
-297 160 -5 0 -8 -6 -8 -14z"/>
<path d="M2427 4856 c-169 -96 -443 -253 -610 -349 -166 -96 -444 -256 -617
-354 -173 -99 -325 -186 -338 -194 l-23 -14 3 -965 c2 -773 6 -970 16 -988 17
-29 103 -84 333 -212 242 -135 1101 -622 1353 -767 109 -63 204 -112 211 -109
17 6 158 85 785 443 300 170 637 361 750 423 113 62 231 128 263 147 l57 34 0
80 c0 43 3 79 6 79 11 0 353 -201 359 -210 3 -5 -27 -28 -67 -51 -40 -23 -102
-58 -138 -79 -173 -100 -1753 -998 -1880 -1069 l-145 -80 -90 48 c-49 27 -362
205 -695 396 -333 191 -749 428 -925 528 -374 210 -557 319 -562 333 -2 6 20
23 49 39 108 58 213 130 195 133 -18 4 -277 -139 -297 -163 -13 -16 29 -43
360 -230 246 -139 744 -423 1485 -848 220 -126 418 -238 441 -249 l41 -21 869
495 c478 272 995 566 1148 653 270 153 278 158 257 174 -12 9 -109 67 -216
130 l-195 114 0 897 0 896 -752 441 c-892 522 -1105 644 -1120 643 -2 0 -141
-79 -311 -174z m375 52 c29 -17 182 -106 340 -198 l287 -167 -352 -201 -352
-200 -70 35 c-38 20 -162 91 -275 158 -113 68 -235 138 -272 156 -38 18 -68
36 -68 39 0 5 38 28 245 149 119 69 457 260 462 261 1 0 26 -14 55 -32z m721
-419 c23 -12 73 -40 110 -62 60 -35 66 -41 50 -52 -10 -6 -108 -63 -218 -125
-110 -62 -260 -148 -334 -192 l-134 -79 -81 47 c-45 26 -93 55 -108 63 -16 9
-28 19 -28 22 0 3 134 82 298 174 376 214 396 225 400 225 1 0 22 -10 45 -21z
m-1419 -52 c114 -65 1040 -598 1387 -798 109 -63 212 -122 230 -132 18 -10 28
-21 23 -27 -5 -4 -55 -34 -111 -65 l-101 -56 -69 39 c-37 21 -219 126 -403
234 -184 107 -450 259 -590 338 -140 79 -356 202 -479 273 -219 127 -224 131
-202 146 40 28 186 111 195 111 4 0 58 -28 120 -63z m1750 -144 c163 -91 610
-354 623 -367 9 -8 -18 -28 -115 -82 -70 -40 -225 -128 -346 -198 -120 -69
-220 -126 -222 -126 -3 0 -467 268 -628 363 l-119 70 49 29 c65 39 648 367
653 368 1 0 49 -26 105 -57z m-1919 -74 c116 -67 266 -153 333 -192 123 -70
124 -71 101 -87 -12 -10 -160 -96 -328 -191 -168 -96 -320 -184 -339 -196
l-33 -23 -267 149 c-403 225 -422 236 -422 242 0 13 707 419 730 419 8 0 110
-55 225 -121z m625 -355 c55 -31 98 -60 95 -65 -3 -5 -83 -52 -178 -105 -95
-54 -254 -144 -354 -201 -100 -56 -187 -103 -193 -103 -7 0 -57 25 -112 57
-68 38 -96 59 -86 64 7 4 168 98 358 208 190 111 351 201 357 201 7 0 58 -25
113 -56z m-1486 -98 c72 -41 214 -121 316 -178 102 -56 193 -107 202 -113 14
-9 16 -103 20 -922 l5 -912 -51 26 c-44 22 -166 90 -527 294 -48 27 -92 55
-98 63 -17 20 -27 1816 -10 1816 6 0 70 -33 143 -74z m3444 -853 l-3 -917
-125 -74 c-69 -41 -271 -155 -450 -255 -179 -99 -482 -270 -673 -379 -381
-217 -486 -273 -496 -263 -3 4 -5 417 -3 918 2 692 6 914 15 920 11 7 382 210
617 337 l105 57 3 -309 c1 -169 5 -308 9 -308 8 0 24 21 99 133 l65 98 48 -40
c27 -23 54 -41 59 -41 24 0 32 85 32 362 l0 287 28 16 c293 168 659 374 665
375 4 0 6 -413 5 -917z m-1519 698 c141 -82 304 -177 363 -212 l106 -62 -216
-120 c-120 -66 -286 -157 -369 -204 l-153 -84 -52 27 c-102 51 -656 370 -676
389 -15 14 30 42 413 257 306 172 298 168 314 162 7 -2 129 -71 270 -153z
m-1156 -273 l67 -39 0 -909 c0 -501 -3 -910 -7 -910 -5 1 -57 29 -118 64 -105
60 -110 65 -117 102 -8 47 -10 1730 -2 1761 l6 22 52 -26 c28 -14 81 -43 119
-65z m1922 -466 c-3 -3 -25 14 -49 37 l-44 43 -24 -38 c-14 -22 -37 -60 -52
-86 -15 -27 -30 -48 -32 -48 -2 0 -4 117 -4 259 l0 260 103 55 102 55 3 -266
c1 -146 0 -268 -3 -271z m-1745 363 c19 -12 161 -93 315 -180 154 -87 295
-168 312 -179 l33 -21 0 -909 c0 -795 -2 -907 -15 -902 -18 7 -678 386 -686
395 -4 3 -10 417 -14 920 -6 769 -5 912 6 905 8 -4 30 -17 49 -29z"/>
<path d="M4387 2310 c-27 -17 -108 -64 -180 -106 -179 -102 -177 -99 -176
-232 1 -59 3 -124 6 -145 l5 -38 31 21 c18 11 110 65 205 121 l172 101 -1 136
c-1 179 -1 181 -62 142z m18 -154 l0 -107 -32 -20 -33 -21 0 115 c0 108 1 116
23 130 12 9 27 15 32 13 6 -2 10 -47 10 -110z m-105 -64 l0 -107 -44 -27 -43
-26 -6 49 c-4 28 -3 79 0 114 5 59 9 67 37 85 54 34 56 30 56 -88z m-130 -71
l0 -110 -42 -25 c-23 -14 -45 -23 -50 -20 -4 3 -8 52 -8 109 l0 105 38 24 c61
40 62 39 62 -83z"/>
</g>
</svg>
