<?xml version="1.0" standalone="no"?>
<!DOCTYPE svg PUBLIC "-//W3C//DTD SVG 20010904//EN"
 "http://www.w3.org/TR/2001/REC-SVG-20010904/DTD/svg10.dtd">
<svg version="1.0" xmlns="http://www.w3.org/2000/svg"
 width="1024.000000pt" height="1024.000000pt" viewBox="0 0 1024.000000 1024.000000"
 preserveAspectRatio="xMidYMid meet">

<g transform="translate(0.000000,1024.000000) scale(0.100000,-0.100000)"
fill="#e0e0e0" stroke="none">
<path d="M8575 9998 c-213 -92 -1731 -761 -3612 -1594 -1176 -520 -2428 -1074
-2783 -1231 -355 -156 -676 -298 -713 -316 -78 -35 -121 -80 -164 -173 l-28
-59 -5 -2518 -5 -2518 -165 -75 c-91 -42 -248 -113 -350 -159 -265 -118 -500
-233 -500 -244 0 -31 47 -60 371 -222 499 -249 538 -266 662 -284 56 -9 143
-29 192 -44 120 -38 161 -44 219 -31 27 6 186 73 355 149 664 300 1177 524
1202 524 14 0 126 -48 250 -108 123 -59 404 -193 624 -297 220 -105 524 -250
676 -324 153 -74 286 -134 296 -134 36 0 2270 1012 2586 1171 l57 29 0 60 0
59 -87 41 c-187 88 -578 268 -798 366 -169 76 -231 108 -237 124 -19 52 -108
494 -101 501 16 15 450 214 1758 806 237 107 458 207 491 223 117 53 180 133
204 258 10 49 12 697 8 2962 -5 2848 -5 2901 -24 2928 -18 25 -236 142 -289
155 -11 3 -51 -9 -90 -25z m148 -39 c53 -27 59 -33 42 -40 -143 -57 -1251
-547 -4885 -2158 -1031 -458 -1957 -869 -2058 -913 -136 -60 -193 -91 -220
-119 -44 -44 -90 -131 -100 -191 -11 -64 1 -5909 12 -5932 8 -17 6 -18 -20
-12 -67 17 -138 53 -158 79 l-21 28 -7 2912 c-4 1785 -3 2933 3 2967 12 73 63
174 102 204 18 13 136 69 262 124 127 55 667 293 1200 530 2638 1169 5766
2550 5778 2551 4 1 36 -13 70 -30z m140 -63 c18 -7 41 -23 52 -36 20 -22 20
-36 20 -2964 l0 -2941 -21 -46 c-32 -68 -84 -121 -151 -151 -32 -15 -231 -106
-443 -202 -212 -95 -1458 -661 -2770 -1256 -3726 -1691 -3823 -1734 -3901
-1735 -51 0 -84 21 -101 65 -16 40 -24 5819 -8 5895 22 105 70 179 140 215 38
19 1872 832 4510 2000 910 403 1876 831 2145 951 270 119 491 218 493 218 1 1
17 -5 35 -13z m-2355 -7386 c59 -272 75 -350 71 -353 -18 -15 -2262 -1027
-2275 -1027 -23 0 -19 18 63 347 67 270 67 272 98 284 16 7 237 107 490 222
633 288 1334 606 1430 649 44 20 83 33 86 29 3 -3 20 -71 37 -151z m409 -516
c164 -75 370 -169 458 -209 222 -100 293 -137 275 -143 -8 -3 -121 -54 -250
-115 -129 -60 -509 -234 -845 -387 -335 -153 -689 -315 -785 -360 -96 -45
-227 -104 -291 -131 -135 -57 -122 -58 -289 26 -52 26 -214 103 -360 170 -146
67 -319 149 -385 182 l-119 60 42 22 c23 12 206 96 406 186 200 90 458 208
573 261 393 184 1248 573 1260 573 6 1 145 -60 310 -135z m-2531 -291 c-3 -10
-16 -63 -30 -118 -13 -55 -45 -180 -70 -278 -25 -97 -46 -188 -46 -201 0 -25
-43 -3 565 -291 165 -78 342 -163 394 -189 91 -46 93 -48 75 -67 -9 -10 -21
-19 -25 -19 -4 0 -148 67 -321 149 -172 82 -385 181 -473 221 -88 40 -190 87
-227 106 l-66 33 19 88 c10 48 45 193 76 322 57 229 59 234 88 247 40 18 47
17 41 -3z m-162 -229 c-53 -202 -89 -352 -98 -405 l-7 -37 98 -50 c54 -27 271
-131 483 -230 212 -98 416 -195 453 -213 l68 -35 -56 -23 c-58 -24 -67 -44
-22 -49 36 -4 34 -18 -4 -37 -23 -12 -37 -14 -57 -7 -15 6 -178 82 -362 170
-184 88 -569 271 -855 407 -286 135 -526 253 -534 260 -13 13 1 22 105 71 260
124 829 374 832 365 1 -4 -18 -89 -44 -187z m3486 111 c0 -8 -26 -28 -59 -44
-137 -70 -611 -284 -685 -310 -45 -16 -119 -50 -166 -77 -120 -67 -230 -116
-341 -153 -53 -17 -123 -48 -155 -67 -85 -52 -171 -94 -190 -94 -29 0 -204
-79 -334 -150 -72 -40 -151 -75 -185 -83 -33 -8 -107 -38 -164 -66 -102 -50
-131 -59 -131 -43 0 22 128 93 265 147 39 15 75 31 81 36 19 15 157 69 202 80
51 11 187 77 257 124 28 18 106 52 175 75 139 47 188 70 240 111 41 33 111 65
274 125 66 24 129 53 141 64 12 11 133 71 271 134 137 63 292 134 344 159 98
47 160 60 160 32z m-6443 -415 c-6 -332 0 -446 28 -500 15 -30 15 -30 -13 -30
-16 0 -51 7 -78 15 -47 14 -765 362 -863 418 l-44 25 74 38 c111 56 825 381
869 396 9 3 18 -4 24 -16 4 -12 6 -167 3 -346z m3994 -696 c10 -13 10 -17 -2
-25 -15 -9 -49 -12 -49 -4 0 9 25 45 31 45 4 0 12 -7 20 -16z"/>
<path d="M8620 9504 c-52 -23 -252 -112 -445 -197 -790 -349 -1902 -841 -3300
-1462 -814 -362 -1846 -819 -2294 -1016 -447 -197 -824 -365 -837 -374 l-24
-15 0 -2766 c0 -2445 2 -2765 15 -2770 25 -10 1851 808 4500 2014 l2500 1138
0 2737 c0 1811 -3 2739 -10 2745 -6 5 -48 -8 -105 -34z m80 -2718 l0 -2703
-112 -53 c-62 -29 -212 -97 -333 -150 -290 -129 -818 -369 -2605 -1187 -1325
-607 -2095 -954 -3445 -1553 -225 -100 -418 -185 -427 -187 -17 -5 -18 130
-18 2734 l0 2739 2448 1084 c1346 596 2776 1229 3177 1406 402 177 856 379
1010 448 154 69 286 125 293 126 9 0 12 -547 12 -2704z"/>
<path d="M8419 9080 c-20 -10 -218 -99 -440 -196 -222 -97 -570 -251 -774
-341 -828 -369 -1886 -842 -2135 -955 -146 -67 -300 -136 -342 -154 -43 -18
-118 -52 -168 -75 l-90 -42 0 -368 c0 -312 2 -369 14 -369 8 0 711 314 1563
699 851 384 1622 731 1713 771 288 127 633 282 683 306 l47 24 0 360 c0 403 5
380 -71 340z m40 -426 l1 -251 -27 -12 c-108 -50 -3784 -1701 -3845 -1727
l-78 -33 0 333 0 334 53 22 c28 12 255 113 502 225 779 351 2227 997 2560
1143 176 77 410 180 520 229 110 49 223 99 250 110 l50 20 6 -71 c4 -39 7
-184 8 -322z"/>
<path d="M7395 8299 c-60 -28 -116 -53 -122 -56 -14 -5 -19 -93 -5 -92 4 0 66
26 137 58 l130 57 3 42 c4 55 -4 54 -143 -9z"/>
<path d="M6748 8007 c-145 -65 -155 -75 -139 -133 l6 -24 139 65 c77 36 141
65 143 65 2 0 3 20 3 45 0 25 -3 45 -7 44 -5 0 -70 -28 -145 -62z"/>
<path d="M6210 7768 c-198 -88 -230 -107 -230 -142 0 -47 13 -48 96 -13 43 19
103 46 132 61 50 25 52 28 52 66 0 43 -7 47 -50 28z m28 -30 c-3 -12 -202
-117 -221 -118 -5 0 -7 7 -5 16 2 10 46 36 108 64 115 53 123 56 118 38z"/>
<path d="M5506 7465 c-66 -30 -123 -61 -128 -67 -11 -19 -10 -66 3 -73 5 -4
66 17 134 47 l125 53 0 48 c0 26 -3 47 -8 47 -4 0 -61 -25 -126 -55z m104 0
c0 -15 -207 -122 -217 -112 -12 13 48 56 112 80 39 15 77 32 85 37 20 13 20
13 20 -5z"/>
<path d="M8410 8103 c-210 -98 -881 -403 -1502 -683 -555 -249 -698 -317 -702
-334 -8 -28 -5 -713 3 -996 6 -173 8 -85 9 377 l2 603 61 30 c33 17 286 131
562 254 276 123 702 315 947 426 643 294 654 298 663 293 4 -2 7 -460 7 -1018
0 -800 -3 -1015 -12 -1022 -7 -4 -49 -24 -93 -44 -44 -20 -237 -109 -430 -199
-417 -193 -1237 -569 -1422 -651 -202 -89 -303 -141 -303 -156 0 -7 7 -13 16
-13 16 0 466 206 1604 732 706 327 658 303 665 330 3 13 4 492 3 1065 l-3
1041 -75 -35z"/>
<path d="M8302 7787 c-22 -57 -93 -264 -157 -461 l-117 -357 -26 17 c-15 9
-92 69 -172 132 -80 64 -150 120 -157 125 -17 12 -36 -29 -138 -298 -48 -126
-90 -236 -94 -242 -4 -8 -47 30 -120 107 -62 66 -118 120 -125 120 -14 0 -56
-86 -122 -247 -20 -51 -41 -90 -45 -87 -4 2 -53 80 -108 172 -104 172 -136
220 -144 212 -2 -3 -48 -142 -102 -310 -107 -332 -163 -490 -175 -490 -8 0
-41 66 -149 293 -28 59 -55 107 -61 107 -12 0 -21 -71 -18 -145 5 -118 -14
-790 -23 -807 -17 -32 -28 -19 -32 40 -2 41 -4 31 -5 -35 -1 -51 0 -93 3 -93
3 0 40 17 83 39 78 39 318 148 434 197 35 14 326 147 648 294 322 147 667 305
768 350 101 46 192 90 202 99 19 15 20 38 20 676 1 363 1 668 1 678 -1 9 -7
17 -15 17 -9 0 -30 -39 -54 -103z"/>
<path d="M3935 7086 c-137 -62 -608 -272 -1045 -466 -437 -194 -810 -360 -828
-368 l-32 -16 0 -683 c0 -540 3 -685 13 -688 11 -5 434 178 1612 697 514 227
554 246 560 272 3 12 4 322 3 691 -3 586 -5 670 -18 672 -8 1 -127 -49 -265
-111z m245 -597 l0 -650 -112 -54 c-62 -29 -347 -155 -633 -280 -286 -125
-697 -306 -913 -401 -216 -96 -406 -177 -421 -180 l-28 -6 -8 610 c-4 335 -4
627 -1 648 l7 39 862 383 c474 211 945 421 1047 466 102 46 188 82 193 79 4
-2 7 -297 7 -654z"/>
<path d="M3745 6728 c-3 -13 -17 -72 -31 -133 -14 -60 -50 -217 -80 -348 -29
-131 -58 -246 -63 -254 -6 -12 -25 19 -75 122 -43 89 -70 135 -76 129 -5 -5
-28 -77 -51 -159 -23 -83 -51 -185 -63 -227 l-21 -76 -155 68 c-183 80 -204
87 -198 69 4 -11 169 -88 320 -149 l48 -20 24 83 c14 45 39 138 56 207 17 68
35 131 40 139 6 11 28 -26 80 -128 39 -79 73 -141 75 -139 2 2 31 121 65 263
33 143 74 318 91 388 31 126 32 128 51 110 11 -10 59 -83 106 -163 46 -80 103
-173 125 -207 40 -63 64 -83 47 -39 -22 59 -288 486 -302 486 -4 0 -10 -10
-13 -22z"/>
<path d="M2595 6213 c-232 -97 -394 -356 -396 -631 -1 -153 42 -247 134 -293
54 -28 152 -23 220 10 199 97 348 360 348 616 0 144 -40 238 -121 284 -54 30
-133 36 -185 14z m118 -44 c164 -45 197 -328 67 -577 -40 -77 -125 -182 -148
-182 -22 0 -13 15 41 71 69 71 110 144 142 254 24 79 26 101 21 183 -5 80 -10
99 -33 135 -92 136 -277 98 -417 -87 -52 -67 -116 -207 -117 -254 -1 -20 -4
-48 -9 -62 l-7 -25 -8 27 c-14 54 44 220 114 322 56 83 155 162 239 192 46 16
67 17 115 3z m13 -120 c40 -24 66 -78 72 -147 15 -176 -107 -396 -262 -472
-56 -28 -67 -30 -105 -21 -139 31 -173 235 -74 441 38 78 143 181 213 208 62
24 106 21 156 -9z m-454 -520 c20 -81 56 -135 104 -155 46 -19 84 -18 154 7
73 25 98 20 50 -10 -42 -25 -122 -51 -162 -51 -64 0 -124 44 -152 112 -33 77
-42 168 -18 168 4 0 15 -32 24 -71z"/>
<path d="M5920 6981 c-57 -30 -384 -181 -1034 -477 -209 -95 -386 -180 -395
-189 -14 -14 -16 -118 -16 -1070 0 -751 3 -1057 11 -1065 8 -8 56 10 173 65
90 42 394 181 676 310 283 129 548 251 589 271 l75 37 3 1056 c2 581 -1 1064
-5 1074 -10 22 -11 22 -77 -12z m53 -103 c2 -40 2 -505 -2 -1033 l-6 -959
-240 -112 c-132 -61 -400 -183 -595 -272 -195 -88 -411 -186 -479 -217 -71
-33 -127 -53 -132 -48 -5 5 -8 450 -7 1032 l3 1024 88 38 c48 21 252 115 453
209 200 94 408 190 462 214 53 24 171 78 262 119 91 42 170 76 176 76 7 1 13
-28 17 -71z"/>
<path d="M5260 6466 c-129 -62 -290 -137 -357 -167 -114 -50 -123 -56 -123
-81 0 -16 3 -28 6 -28 6 0 580 263 667 306 44 22 57 33 57 50 0 13 -3 25 -7
27 -5 3 -114 -45 -243 -107z"/>
<path d="M5420 6329 c-443 -204 -630 -297 -630 -314 0 -10 22 -4 78 23 42 20
261 122 486 227 362 168 452 216 404 215 -7 -1 -159 -68 -338 -151z"/>
<path d="M5281 6147 c-462 -216 -532 -256 -488 -272 8 -4 79 24 158 61 79 37
295 136 479 220 328 149 335 153 338 183 2 17 0 31 -5 30 -4 0 -221 -101 -482
-222z"/>
<path d="M5420 5966 c-36 -18 -184 -88 -330 -155 -255 -117 -321 -153 -309
-165 6 -7 22 0 394 171 261 121 335 159 335 174 0 15 -23 9 -90 -25z"/>
<path d="M5280 5786 c-482 -228 -520 -250 -494 -276 10 -10 212 78 516 227
190 92 228 119 201 143 -4 4 -105 -39 -223 -94z"/>
<path d="M5420 5596 c-184 -90 -398 -191 -475 -225 -77 -34 -146 -69 -154 -76
-30 -30 1 -27 76 7 379 173 808 370 851 392 36 18 52 32 52 46 0 11 -3 20 -7
20 -5 0 -159 -74 -343 -164z"/>
<path d="M5205 5376 c-408 -193 -425 -203 -425 -227 0 -17 5 -20 23 -16 34 8
691 319 699 331 12 18 9 46 -4 46 -7 0 -139 -60 -293 -134z"/>
<path d="M5610 5163 c-74 -36 -277 -130 -450 -210 -347 -160 -370 -171 -370
-190 0 -18 2 -17 73 18 34 18 193 92 352 164 573 262 565 258 565 276 0 19
-40 5 -170 -58z"/>
<path d="M5645 5062 c-60 -30 -254 -121 -430 -202 -398 -181 -429 -198 -433
-229 -3 -21 -1 -23 22 -17 14 3 132 57 263 120 131 62 315 148 408 191 245
112 283 132 290 156 4 11 3 25 -2 29 -4 5 -57 -17 -118 -48z"/>
<path d="M7930 5537 l-45 -12 -3 -358 -2 -358 112 61 c62 33 185 97 273 142
88 44 161 81 162 82 1 1 -3 37 -8 81 -27 219 -188 377 -383 374 -34 0 -81 -6
-106 -12z m222 -42 c57 -20 139 -91 173 -149 28 -47 58 -131 69 -188 l7 -36
-163 -85 c-90 -46 -198 -103 -240 -126 l-78 -43 0 315 0 314 33 11 c41 14 138
8 199 -13z"/>
<path d="M4035 5400 c-308 -140 -1509 -671 -1740 -770 -132 -56 -244 -105
-248 -109 -4 -5 -8 -707 -7 -1562 0 -1715 -4 -1594 62 -1572 18 6 121 52 228
101 107 49 472 214 810 365 686 307 1051 474 1062 485 9 9 17 2716 9 2951 -4
103 -10 175 -16 177 -5 1 -77 -29 -160 -66z m145 -1510 l0 -1520 -24 -15 c-25
-17 -715 -330 -1371 -622 -203 -91 -435 -195 -515 -233 -80 -37 -154 -70 -166
-74 -20 -6 -21 -3 -27 174 -4 100 -4 498 0 885 l6 703 166 75 c864 389 1680
761 1699 773 27 17 29 34 4 34 -10 0 -92 -34 -183 -76 -90 -42 -396 -181 -679
-309 -283 -128 -596 -270 -695 -315 -229 -104 -304 -134 -313 -125 -4 3 -8
285 -10 625 l-2 619 47 21 c27 12 176 77 333 145 399 172 823 359 1180 520
426 192 523 235 538 235 9 0 12 -311 12 -1520z"/>
<path d="M3540 4836 c-642 -286 -689 -310 -666 -333 3 -3 99 36 213 87 115 51
338 151 498 222 159 71 304 138 322 149 31 20 36 39 10 39 -7 -1 -176 -74
-377 -164z"/>
<path d="M3153 4805 c-248 -111 -293 -134 -287 -150 4 -8 10 -15 15 -15 10 0
241 103 372 165 71 34 92 57 56 62 -8 1 -78 -27 -156 -62z"/>
<path d="M3800 4808 c-86 -41 -543 -250 -853 -390 -74 -34 -98 -54 -75 -63 7
-3 220 88 473 203 538 244 585 267 585 287 0 22 -15 18 -130 -37z"/>
<path d="M2441 4517 c-140 -65 -188 -97 -148 -97 31 0 301 123 313 142 20 32
-29 19 -165 -45z"/>
<path d="M2438 4392 c-131 -58 -170 -84 -154 -100 13 -13 316 135 316 154 0 8
-3 14 -7 13 -5 0 -74 -30 -155 -67z"/>
<path d="M3673 4326 c-404 -182 -788 -358 -797 -367 -5 -4 -6 -15 -3 -23 5
-12 29 -4 129 44 68 32 296 135 506 229 387 171 432 193 432 211 0 21 -43 6
-267 -94z"/>
<path d="M3100 4206 c-153 -69 -226 -107 -228 -119 -2 -9 1 -17 6 -17 13 0
283 116 396 169 80 39 104 63 65 67 -8 1 -115 -44 -239 -100z"/>
<path d="M3580 4139 c-179 -82 -372 -171 -430 -196 -172 -75 -280 -132 -280
-148 0 -8 4 -15 8 -15 5 0 100 42 213 94 112 51 305 139 429 195 124 56 268
123 320 149 91 45 123 72 83 72 -10 -1 -164 -68 -343 -151z"/>
<path d="M2458 4152 c-130 -58 -188 -94 -176 -107 9 -9 36 2 196 76 80 38 122
63 122 73 0 9 -3 16 -7 16 -5 -1 -65 -27 -135 -58z"/>
<path d="M2455 4024 c-66 -29 -131 -62 -144 -72 -27 -20 -29 -39 -3 -34 33 7
287 137 290 150 6 20 -18 13 -143 -44z"/>
<path d="M2440 3771 c-93 -43 -146 -73 -148 -84 -2 -9 2 -17 8 -17 13 0 247
106 277 126 21 13 32 45 16 43 -5 0 -73 -31 -153 -68z"/>
<path d="M2500 3672 c-191 -86 -234 -111 -217 -129 15 -15 317 131 317 153 0
19 -5 18 -100 -24z"/>
<path d="M3575 3532 c-386 -180 -449 -211 -442 -218 3 -3 128 52 279 121 416
193 508 237 508 247 0 4 -1 8 -2 8 -2 0 -156 -71 -343 -158z"/>
<path d="M3790 3254 c-63 -31 -200 -95 -305 -144 -104 -48 -281 -131 -392
-184 -112 -53 -210 -96 -218 -96 -13 0 -15 23 -15 150 0 83 -1 150 -3 150 -2
0 -30 -11 -63 -24 l-59 -24 -3 -154 c-1 -84 -5 -160 -8 -167 -2 -8 -5 -191 -4
-406 l0 -391 -36 -13 c-19 -7 -37 -11 -39 -9 -2 2 -6 181 -9 398 -6 390 -12
586 -21 687 l-5 51 45 17 c50 20 90 54 46 40 -14 -4 -38 -13 -55 -20 l-31 -13
-12 66 c-11 62 -12 56 -7 -81 3 -81 7 -161 10 -176 6 -26 2 -31 -47 -57 l-53
-29 3 -277 c3 -262 2 -278 -16 -285 -59 -21 -185 -84 -180 -90 4 -3 49 15 102
40 l95 46 0 -114 0 -114 -47 -22 c-32 -15 -42 -23 -31 -26 9 -2 30 3 47 12
l31 16 0 -68 0 -68 -92 -43 c-50 -23 -89 -45 -86 -48 12 -12 1604 715 1601
731 -1 6 -11 11 -23 13 -27 5 -25 16 5 30 14 6 25 16 25 22 0 15 -9 12 -70
-19 l-55 -29 28 -13 c27 -12 27 -14 11 -26 -10 -7 -26 -13 -36 -13 -17 0 -18
14 -18 194 l0 194 43 17 c45 17 100 54 80 55 -6 0 -49 -18 -95 -40 -46 -23
-90 -39 -99 -37 -9 2 -21 -4 -28 -14 -17 -28 -31 -23 -31 11 0 33 26 52 40 29
12 -19 22 -6 18 24 -3 25 -3 25 -38 8 l-35 -16 -5 -128 -5 -129 -62 -26 -63
-27 0 -122 c0 -110 -2 -125 -20 -143 -11 -11 -27 -20 -35 -20 -13 0 -15 25
-15 169 0 211 2 224 44 239 18 7 41 19 51 27 20 16 15 14 -72 -22 -10 -4 -13
25 -13 126 0 142 0 142 -56 121 -34 -13 -38 -9 -30 35 7 33 13 39 79 70 40 18
159 74 266 124 107 49 199 95 204 100 25 25 -23 8 -133 -45z m-486 -396 c-2
-84 -4 -168 -4 -186 0 -32 -3 -35 -85 -73 -47 -21 -87 -39 -89 -39 -2 0 -6 10
-10 22 -6 25 -22 16 -28 -17 -2 -14 -33 -35 -98 -67 -52 -26 -100 -48 -106
-48 -12 0 -26 311 -16 339 4 11 415 221 433 221 3 0 4 -69 3 -152z m-4 -431
l0 -194 -25 -11 c-14 -7 -30 -12 -35 -12 -6 0 -10 67 -10 165 0 177 -1 178
-50 150 -14 -8 -33 -14 -42 -15 -29 0 -20 24 15 42 33 18 140 68 145 68 1 0 2
-87 2 -193z m-210 23 l0 -81 -60 -26 -60 -26 0 -77 c0 -42 -3 -98 -6 -123 -6
-40 -11 -47 -37 -56 -16 -6 -34 -11 -38 -11 -5 0 -9 87 -9 193 l0 192 98 47
c53 25 100 47 105 47 4 1 7 -35 7 -79z"/>
<path d="M2954 3246 c-114 -54 -133 -77 -26 -32 92 40 142 65 142 71 0 12 -32
1 -116 -39z"/>
<path d="M2394 3006 c-30 -14 -54 -36 -37 -36 11 0 73 38 73 45 0 6 0 7 -36
-9z"/>
<path d="M2421 2619 c-55 -22 -91 -42 -91 -50 0 -15 12 -11 75 26 58 33 65 44
16 24z"/>
<path d="M7764 5409 c-10 -12 -53 -45 -95 -75 -108 -76 -170 -134 -237 -223
-92 -122 -199 -360 -218 -486 l-7 -48 30 6 c34 7 252 102 431 188 l122 59 0
300 c0 165 -2 300 -3 300 -2 0 -12 -9 -23 -21z m-11 -119 c-7 -8 -200 -90
-210 -90 -9 0 67 61 137 109 l75 52 3 -32 c2 -17 0 -35 -5 -39z m-13 -110
c-13 -10 -67 -33 -121 -54 -99 -36 -144 -46 -101 -23 12 7 20 16 17 19 -3 3
31 22 76 42 44 21 83 35 85 33 8 -8 -24 -28 -73 -47 -26 -11 -43 -19 -36 -20
19 0 122 40 129 51 3 6 -2 19 -11 29 -16 18 -16 20 16 33 34 14 34 14 37 -17
3 -21 -2 -34 -18 -46z m-102 15 c-62 -33 -156 -69 -143 -56 12 12 165 81 180
80 6 0 -11 -11 -37 -24z m120 -96 c3 -31 -1 -37 -20 -43 -62 -16 -92 5 -40 29
12 5 22 13 22 17 0 15 -33 8 -84 -17 -75 -36 -243 -105 -257 -105 -7 0 -5 8 6
20 10 11 22 20 28 20 5 0 64 23 130 52 195 82 210 84 215 27z m-134 -65 c9 -3
16 -10 16 -14 0 -4 -43 -26 -96 -50 -77 -33 -98 -39 -105 -28 -15 23 -6 29 81
63 47 18 86 33 87 34 1 1 8 -2 17 -5z m136 -38 l0 -44 -170 -86 c-166 -84
-216 -103 -191 -72 12 14 107 63 256 132 l70 32 -42 7 c-24 4 -43 11 -43 15 0
5 95 53 118 59 1 1 2 -19 2 -43z m-162 -54 c6 -19 -183 -106 -204 -94 -20 11
-21 10 96 68 87 43 101 47 108 26z m162 -65 c0 -31 -3 -34 -52 -51 -29 -10
-66 -24 -83 -31 -72 -31 -98 -36 -112 -22 -12 12 -4 19 49 45 80 39 192 92
196 92 1 0 2 -15 2 -33z m-403 -50 c-7 -21 -36 -32 -49 -19 -11 11 -10 16 5
27 20 15 50 9 44 -8z m16 -61 c3 -15 -29 -30 -49 -22 -18 7 -18 8 1 22 21 15
45 15 48 0z m104 -23 c4 -11 -203 -123 -227 -123 -5 0 -10 8 -9 18 0 11 33 34
102 69 102 52 127 58 134 36z"/>
<path d="M8154 4861 c-98 -54 -202 -112 -231 -130 l-52 -32 33 -77 c18 -42 66
-155 106 -250 41 -95 78 -171 84 -169 21 6 132 204 173 307 57 147 83 258 83
356 0 46 -4 85 -8 88 -5 3 -89 -39 -188 -93z m166 2 c0 -59 -35 -209 -69 -303
-35 -94 -131 -282 -148 -287 -5 -2 -18 18 -28 44 -10 26 -51 121 -91 210 l-72
163 96 54 c186 103 287 156 300 156 7 0 12 -14 12 -37z"/>
<path d="M6465 4717 c-174 -58 -283 -145 -400 -322 -92 -137 -149 -258 -180
-379 -57 -226 -39 -420 55 -564 66 -103 162 -153 290 -153 375 0 731 467 730
960 0 172 -44 294 -137 382 -101 95 -222 121 -358 76z m253 -32 c74 -33 133
-94 169 -171 27 -59 52 -181 53 -254 0 -45 0 -45 -49 -63 -27 -9 -51 -17 -53
-17 -3 0 -8 34 -12 76 -12 127 -57 218 -134 269 -78 51 -169 49 -288 -5 l-62
-28 -22 50 c-12 27 -20 57 -18 66 4 19 131 86 193 101 66 16 155 7 223 -24z
m-72 -164 c85 -38 143 -144 159 -288 6 -48 4 -64 -13 -93 -11 -19 -39 -89 -62
-155 -22 -66 -52 -139 -65 -162 -15 -25 -25 -57 -25 -82 0 -36 -5 -45 -60 -93
-70 -62 -169 -124 -219 -138 -20 -5 -58 -10 -85 -10 -162 0 -256 117 -256 319
0 134 56 306 124 382 19 20 73 89 120 153 47 63 97 123 112 132 78 52 199 67
270 35z m-574 -309 l26 -24 -32 -77 c-47 -109 -66 -194 -66 -297 0 -174 54
-284 162 -328 116 -49 317 21 440 152 l45 48 38 -31 c49 -42 44 -54 -59 -152
-219 -207 -486 -242 -631 -81 -70 77 -124 232 -125 354 0 112 44 295 103 427
33 75 25 75 99 9z"/>
<path d="M6568 4255 c-43 -86 -74 -200 -59 -224 7 -10 18 -9 55 7 l46 21 5
-22 c2 -12 6 -32 7 -45 l3 -22 28 25 c30 29 35 45 12 45 -18 0 -19 14 -4 42 8
14 8 27 1 42 -6 11 -13 29 -16 40 -9 27 -36 1 -36 -35 0 -22 -7 -32 -31 -44
-17 -9 -33 -15 -35 -12 -2 2 9 48 26 103 36 115 35 151 -2 79z"/>
<path d="M6413 4169 c-44 -22 -61 -55 -23 -45 11 3 30 9 42 12 16 5 20 3 15
-9 -3 -8 -13 -56 -22 -107 -13 -66 -22 -94 -36 -103 -19 -12 -26 -37 -10 -37
29 0 52 39 65 112 8 42 22 100 30 129 9 29 16 56 16 61 0 14 -34 9 -77 -13z"/>
<path d="M6182 4081 c-50 -50 -68 -86 -49 -98 5 -3 17 3 26 14 72 93 73 94 99
91 39 -4 41 -50 5 -104 -88 -129 -103 -154 -109 -178 -8 -34 2 -33 81 5 69 34
111 69 83 69 -8 0 -29 -5 -46 -11 -52 -18 -55 -6 -14 51 77 109 92 165 50 194
-41 29 -73 20 -126 -33z"/>
<path d="M7515 4607 c-148 -73 -282 -141 -297 -151 -34 -22 -35 -46 -8 -169
24 -110 58 -172 130 -241 89 -85 185 -105 312 -66 50 15 350 151 366 165 5 4
-89 224 -164 386 l-59 126 -11 -41 c-22 -82 -281 -613 -302 -621 -41 -15 -32
20 47 185 44 94 81 173 81 176 0 3 43 91 95 195 52 104 91 189 87 189 -4 0
-128 -60 -277 -133z m202 36 c-8 -16 -38 -77 -67 -138 -214 -454 -209 -443
-229 -431 -18 12 -13 38 23 111 19 39 71 145 115 237 61 127 85 166 96 162 12
-5 15 2 15 29 0 35 18 56 48 57 10 0 10 -6 -1 -27z m-97 -29 c0 -13 -54 -104
-62 -104 -4 0 -8 4 -8 9 0 5 -3 16 -6 25 -4 10 6 27 24 46 28 28 52 39 52 24z
m-117 -79 c-18 -39 -25 -42 -42 -21 -9 11 -6 18 15 35 38 30 46 26 27 -14z
m335 -57 c41 -71 112 -241 112 -265 0 -24 -37 -81 -65 -99 -20 -13 -20 -11
-21 89 0 92 -15 159 -31 144 -2 -3 -4 -66 -4 -140 l1 -135 -26 -6 c-15 -4 -28
-6 -30 -4 -1 2 3 48 10 103 7 55 12 101 11 103 -1 1 -35 -57 -75 -130 -74
-136 -82 -148 -113 -148 -15 0 -15 4 6 38 50 78 217 400 217 417 0 41 -41 -23
-145 -226 -67 -131 -117 -216 -132 -226 -13 -9 -26 -14 -28 -11 -5 5 239 513
257 536 17 20 25 14 56 -40z m-504 -119 l-78 -153 -9 36 c-7 32 -3 47 43 137
37 74 59 107 82 121 18 11 34 18 36 15 2 -2 -31 -72 -74 -156z m126 102 c0 -9
-5 -23 -10 -31 -8 -13 -11 -13 -25 1 -13 13 -14 20 -4 42 9 21 15 24 26 16 7
-6 13 -19 13 -28z m79 22 c6 -11 6 -24 0 -35 -14 -25 -26 -22 -33 7 -11 42 13
62 33 28z m-265 -52 c6 -10 -35 -91 -46 -91 -13 0 -9 75 4 88 14 14 35 16 42
3z m144 -53 c-2 -12 -8 -23 -15 -25 -17 -6 -26 33 -12 58 10 20 12 21 21 5 5
-9 8 -26 6 -38z m62 -31 c0 -29 -15 -51 -29 -43 -7 5 -11 -5 -11 -29 0 -42
-38 -120 -75 -154 -23 -22 -25 -22 -25 -4 0 20 93 226 112 250 14 17 28 7 28
-20z m-104 -31 c3 -14 1 -32 -4 -42 -9 -16 -11 -15 -21 5 -13 23 -6 61 9 61 6
0 12 -11 16 -24z m-38 -86 c4 -25 -26 -100 -39 -100 -5 0 -13 9 -19 20 -8 15
-5 30 12 65 23 48 41 54 46 15z m390 -201 c-32 -21 -37 -8 -15 37 l22 47 3
-38 c2 -24 -2 -41 -10 -46z"/>
<path d="M5190 4097 c-90 -28 -145 -55 -226 -113 -155 -110 -312 -344 -380
-570 -24 -78 -27 -107 -28 -229 -1 -164 14 -224 79 -320 49 -71 130 -119 219
-130 77 -10 204 18 291 63 97 50 262 214 344 342 194 301 223 672 67 863 -87
107 -217 140 -366 94z m260 -33 c87 -47 148 -138 170 -252 18 -89 8 -287 -20
-382 -26 -91 -106 -257 -157 -325 l-38 -50 -3 68 c-3 61 1 76 39 160 62 139
82 228 77 356 -3 91 -7 114 -31 163 -55 112 -150 161 -269 139 -241 -44 -464
-321 -518 -641 -24 -143 8 -260 95 -344 l47 -45 -7 -51 c-4 -28 -10 -62 -14
-75 l-6 -25 -50 24 c-89 41 -161 143 -186 266 -6 31 -9 103 -7 170 4 95 10
131 36 207 38 113 89 214 155 313 65 96 113 147 201 214 184 140 358 180 486
110z m-81 -182 c30 -18 57 -47 78 -81 96 -160 57 -394 -108 -637 -61 -91 -124
-146 -219 -192 -69 -34 -82 -37 -161 -37 -78 0 -89 3 -127 29 -30 20 -51 48
-75 95 -30 62 -32 72 -32 176 0 120 17 188 78 310 87 176 252 331 390 366 54
14 127 2 176 -29z"/>
<path d="M5257 3620 c-8 -19 -18 -47 -23 -62 -11 -34 -27 -37 -34 -7 -7 27
-32 44 -53 36 -60 -23 -84 -214 -34 -264 14 -14 18 -13 41 10 13 14 32 51 42
83 9 33 20 64 24 69 17 21 62 145 57 157 -3 7 -11 -3 -20 -22z m-80 -123 c6
-41 -12 -121 -33 -138 -18 -15 -28 26 -22 101 7 93 42 116 55 37z"/>
<path d="M5279 3528 c-7 -13 -13 -50 -13 -83 -1 -49 2 -60 17 -63 37 -8 64
120 31 152 -20 20 -21 20 -35 -6z m26 -84 c-9 -51 -29 -43 -21 8 4 22 10 46
14 52 10 17 15 -21 7 -60z"/>
<path d="M4945 3516 c-35 -15 -85 -70 -85 -93 0 -14 3 -14 23 1 75 55 97 67
108 61 23 -15 -1 -78 -66 -177 -36 -55 -65 -111 -65 -123 0 -22 3 -21 77 21
43 24 86 53 98 65 l20 21 -30 -5 c-16 -3 -38 -9 -47 -12 -28 -11 -22 16 22
100 46 87 50 117 18 139 -27 19 -34 19 -73 2z"/>
<path d="M5607 2530 c-21 -35 -15 -66 14 -75 38 -12 79 48 59 86 -16 29 -53
24 -73 -11z m51 -27 c-2 -10 -10 -18 -18 -18 -8 0 -16 8 -18 18 -2 12 3 17 18
17 15 0 20 -5 18 -17z"/>
<path d="M6443 9560 c-57 -34 -33 -56 27 -25 30 15 41 45 18 45 -7 0 -28 -9
-45 -20z"/>
<path d="M6278 9489 c-36 -19 -52 -49 -25 -49 17 0 77 38 77 49 0 19 -15 19
-52 0z"/>
<path d="M6093 9406 c-24 -21 -26 -25 -11 -31 21 -8 78 21 78 40 0 23 -36 18
-67 -9z"/>
<path d="M5940 9341 c-40 -21 -41 -37 -3 -34 28 2 65 31 57 44 -7 13 -15 11
-54 -10z"/>
<path d="M5761 9259 c-24 -14 -31 -23 -23 -31 12 -12 86 20 84 37 -2 18 -26
16 -61 -6z"/>
<path d="M5603 9195 c-42 -18 -46 -50 -5 -40 35 8 59 32 47 44 -6 6 -22 4 -42
-4z"/>
<path d="M5428 9114 c-29 -15 -38 -44 -14 -44 7 0 25 9 40 21 46 36 27 52 -26
23z"/>
<path d="M2688 8509 c-36 -19 -52 -49 -25 -49 19 0 90 43 95 58 6 18 -28 14
-70 -9z"/>
<path d="M2478 8419 c-37 -19 -45 -29 -32 -42 16 -15 109 36 98 54 -8 13 -25
10 -66 -12z"/>
<path d="M2284 8336 c-36 -16 -50 -34 -38 -46 11 -10 91 27 98 46 7 18 -18 18
-60 0z"/>
<path d="M2075 8244 c-42 -21 -51 -32 -39 -44 12 -12 96 28 102 48 5 17 -27
15 -63 -4z"/>
<path d="M1864 8151 c-64 -39 -48 -55 25 -25 46 18 62 44 28 44 -12 0 -36 -9
-53 -19z"/>
<path d="M1660 8062 c-18 -11 -36 -24 -38 -30 -6 -19 40 -14 76 8 60 37 27 56
-38 22z"/>
<path d="M2004 7701 c-38 -23 -48 -37 -34 -46 15 -9 100 34 100 51 0 20 -29
17 -66 -5z"/>
<path d="M1783 7610 c-24 -10 -43 -26 -43 -35 0 -18 -4 -18 53 1 50 17 84 54
50 54 -10 0 -37 -9 -60 -20z"/>
<path d="M1560 7518 c-45 -31 -52 -53 -14 -44 38 10 86 38 92 54 6 20 -42 14
-78 -10z"/>
<path d="M1360 7439 c-44 -18 -78 -59 -48 -59 24 0 98 42 98 56 0 16 -14 17
-50 3z"/>
<path d="M1126 7337 c-44 -24 -58 -47 -29 -47 24 0 96 42 95 55 -2 18 -26 15
-66 -8z"/>
<path d="M9083 3103 c-32 -16 -45 -43 -20 -43 21 0 78 40 72 50 -8 13 -13 12
-52 -7z"/>
<path d="M9905 3104 c-39 -20 -61 -42 -51 -51 9 -10 102 39 99 52 -3 16 -16
16 -48 -1z"/>
<path d="M8876 3007 c-40 -23 -58 -47 -34 -47 20 0 91 44 90 55 -1 17 -16 15
-56 -8z"/>
<path d="M9683 3000 c-28 -17 -46 -50 -28 -50 19 0 85 43 85 55 0 20 -19 19
-57 -5z"/>
<path d="M8660 2908 c-36 -25 -50 -48 -28 -48 19 0 91 43 96 58 6 20 -32 14
-68 -10z"/>
<path d="M9466 2897 c-50 -28 -61 -53 -20 -43 33 8 76 36 82 54 6 18 -19 14
-62 -11z"/>
<path d="M8443 2810 c-33 -20 -45 -50 -19 -50 17 0 78 42 84 58 6 18 -29 14
-65 -8z"/>
<path d="M9250 2798 c-36 -25 -50 -48 -28 -48 20 0 91 44 90 55 -2 19 -28 16
-62 -7z"/>
<path d="M8228 2709 c-42 -22 -54 -55 -15 -44 12 4 37 16 55 27 62 38 27 53
-40 17z"/>
<path d="M9028 2700 c-41 -22 -52 -35 -43 -50 4 -6 18 -4 38 6 42 22 68 45 61
55 -7 12 -14 11 -56 -11z"/>
<path d="M8029 2620 c-45 -24 -69 -50 -45 -50 23 0 96 38 96 50 0 18 -16 18
-51 0z"/>
<path d="M8801 2594 c-40 -25 -49 -38 -33 -48 12 -7 89 32 96 49 9 24 -20 24
-63 -1z"/>
<path d="M7804 2515 c-35 -15 -60 -42 -50 -53 9 -9 102 40 99 53 -2 15 -15 15
-49 0z"/>
<path d="M8583 2490 c-35 -21 -43 -40 -18 -40 21 0 68 25 84 44 12 14 10 16
-10 16 -13 0 -39 -9 -56 -20z"/>
<path d="M7578 2409 c-39 -20 -47 -34 -25 -42 17 -6 87 34 87 50 0 18 -18 16
-62 -8z"/>
</g>
</svg>
