<?xml version="1.0" standalone="no"?>
<!DOCTYPE svg PUBLIC "-//W3C//DTD SVG 20010904//EN"
 "http://www.w3.org/TR/2001/REC-SVG-20010904/DTD/svg10.dtd">
<svg version="1.0" xmlns="http://www.w3.org/2000/svg"
 width="1024.000000pt" height="1024.000000pt" viewBox="0 0 1024.000000 1024.000000"
 preserveAspectRatio="xMidYMid meet">

<g transform="translate(0.000000,1024.000000) scale(0.100000,-0.100000)"
fill="#e0e0e0" stroke="none">
<path d="M750 9299 c-111 -39 -202 -131 -236 -238 -16 -51 -17 -238 -15 -2842
l2 -2788 58 -133 c83 -189 136 -292 194 -376 58 -84 107 -126 179 -154 50 -19
81 -19 969 -18 l917 1 6 -28 c10 -50 35 -205 61 -378 14 -93 39 -249 56 -345
76 -436 77 -442 144 -481 26 -16 36 -29 41 -57 13 -80 36 -159 59 -208 30 -62
30 -64 5 -64 -59 0 -154 -82 -192 -165 -34 -75 -33 -200 3 -275 25 -52 89
-127 113 -132 6 -2 -559 -5 -1256 -8 -1290 -5 -1316 -6 -1282 -40 11 -11 9129
-15 9158 -4 27 10 19 34 -11 34 -16 0 -1155 0 -2533 0 l-2505 1 46 42 c62 57
86 94 104 163 25 93 5 192 -55 278 -16 25 -30 47 -30 50 0 3 156 6 346 6 l346
0 29 29 c45 46 32 123 -26 149 -20 9 -278 12 -1054 12 -871 0 -1030 2 -1040
14 -13 16 -41 137 -34 148 2 5 460 8 1016 8 1147 0 1065 -5 1124 81 40 58 43
70 112 389 68 316 171 769 238 1045 38 159 44 200 39 253 l-5 62 874 0 c589 0
875 -3 875 -10 0 -15 -52 -91 -59 -88 -110 52 -155 48 -222 -21 -34 -35 -51
-64 -64 -109 l-19 -61 -48 45 c-84 78 -165 95 -249 51 -65 -35 -99 -105 -99
-203 0 -41 -3 -74 -7 -74 -5 0 -35 -5 -68 -10 -33 -5 -139 -19 -235 -30 -96
-11 -186 -25 -201 -31 -22 -9 -29 -25 -62 -152 -60 -231 -247 -1019 -247
-1043 0 -16 130 -56 355 -108 105 -25 276 -66 380 -91 356 -86 322 -84 557
-46 111 18 347 57 522 87 176 30 320 53 321 52 3 -3 -32 -444 -39 -505 -4 -29
-1 -45 9 -53 8 -7 15 -16 15 -20 0 -17 -69 -50 -200 -95 -161 -56 -225 -87
-241 -117 -10 -18 -8 -24 10 -40 50 -40 133 -46 389 -28 216 16 302 33 330 66
22 25 24 35 20 110 -3 82 -3 83 23 88 20 4 28 13 33 38 9 49 178 612 185 620
6 7 297 -248 431 -377 30 -29 65 -58 76 -64 18 -9 24 -26 34 -95 15 -96 8
-134 -41 -249 -35 -84 -36 -101 -4 -133 32 -32 55 -26 112 29 103 99 279 578
235 643 -12 19 -50 34 -85 34 -25 0 -36 6 -44 23 -13 28 -197 325 -387 622
-80 126 -146 239 -146 251 0 11 34 157 75 323 89 359 104 438 112 593 7 128 6
128 79 128 83 0 194 62 242 135 65 98 65 155 2 478 -21 111 -50 264 -65 339
-14 76 -37 177 -51 225 -25 86 -26 88 -128 193 -77 80 -112 126 -140 180 -20
40 -35 75 -33 77 2 2 28 -1 57 -7 193 -37 365 13 496 144 148 148 206 358 154
560 -27 105 -63 169 -140 247 -77 78 -172 130 -292 160 -56 14 -95 31 -126 55
-26 19 -76 49 -112 67 -60 30 -73 32 -165 32 -86 0 -106 -3 -144 -23 -106 -57
-184 -168 -198 -280 -7 -61 16 -144 56 -199 l30 -41 -55 -137 c-104 -264 -113
-322 -68 -414 28 -55 71 -93 142 -125 23 -11 42 -24 42 -30 0 -21 -40 -76 -55
-76 -41 0 -208 -123 -298 -219 -26 -28 -50 -51 -54 -51 -3 0 -3 638 -1 1417 3
779 3 1436 0 1460 l-5 43 -1338 0 -1339 0 0 -2036 c1 -1120 -1 -2039 -4 -2041
-3 -3 -45 -2 -94 2 l-89 7 -7 1016 c-4 560 -4 1415 -1 1902 l6 885 26 20 c14
11 45 34 67 50 54 41 56 66 11 156 -37 72 -37 73 -20 103 28 49 43 56 121 56
l71 0 22 51 c31 77 28 92 -29 140 l-51 43 6 55 c10 85 11 87 73 109 90 33 95
39 93 111 -3 114 -27 141 -131 149 l-70 5 -45 84 -45 84 30 59 c17 33 30 69
30 81 0 11 -21 45 -47 75 -40 47 -50 54 -77 52 l-31 -3 -7 68 c-8 83 -32 134
-104 217 -31 36 -74 90 -97 120 -22 30 -58 78 -80 107 -26 35 -56 61 -90 78
l-51 25 -2060 -1 c-2016 -1 -2062 -1 -2116 -20z m4207 -48 c46 -23 69 -48 117
-123 20 -32 68 -93 106 -135 72 -79 114 -150 108 -179 -2 -11 -20 5 -55 50
-29 36 -72 76 -95 89 -95 54 2 52 -2143 52 -1856 0 -1994 -1 -2046 -17 -30
-10 -74 -31 -97 -47 -48 -36 -111 -118 -138 -181 -18 -44 -19 -123 -24 -2835
l-5 -2790 -41 85 c-23 47 -54 117 -70 155 l-29 70 -3 2715 c-1 1696 1 2748 7
2802 11 100 40 164 98 220 52 50 114 80 181 87 31 3 965 5 2074 4 1979 -2
2018 -2 2055 -22z m54 -386 c4 -3 11 -42 15 -86 l7 -80 41 -17 c22 -9 69 -31
104 -50 l64 -34 71 37 71 36 44 -44 43 -44 -38 -72 -38 -73 23 -36 c13 -21 37
-67 55 -103 l31 -67 51 -6 c27 -3 67 -6 87 -6 40 0 44 -8 50 -103 l3 -39 -70
-25 c-38 -14 -71 -27 -73 -28 -2 -2 -9 -45 -17 -97 l-14 -93 51 -46 c47 -43
50 -49 44 -79 -10 -54 -21 -60 -102 -60 -71 0 -74 -1 -97 -32 -52 -69 -52 -70
-6 -168 23 -50 40 -92 38 -94 -2 -2 -28 -20 -58 -40 l-54 -36 -70 62 -70 62
-99 -35 c-55 -19 -104 -36 -109 -39 -5 -3 -15 -44 -22 -90 l-13 -85 -71 -3
-70 -3 -19 73 c-25 96 -41 112 -139 136 -44 11 -87 23 -96 27 -12 4 -39 -12
-87 -54 -39 -34 -73 -61 -76 -61 -10 0 -106 72 -106 78 0 4 16 38 35 76 40 79
42 92 14 126 -11 14 -42 58 -70 98 l-50 72 -85 0 c-96 0 -96 0 -107 95 l-6 50
65 29 c36 16 69 37 74 46 5 9 9 53 9 96 0 43 5 95 11 114 5 19 10 38 10 41 0
4 -30 25 -66 48 -72 45 -72 45 -39 125 l16 39 92 -7 92 -7 29 46 c16 25 48 62
71 82 l43 35 -18 32 c-10 17 -26 53 -35 79 -20 54 -20 54 62 99 l43 23 55 -55
55 -54 67 17 c38 9 92 19 122 21 54 3 55 4 68 42 7 22 20 59 29 83 l17 43 55
-6 c30 -4 58 -9 63 -11z m-675 -223 l30 -78 -62 -67 -62 -67 -75 12 c-60 9
-79 9 -91 -1 -23 -19 -66 -111 -66 -142 0 -36 30 -72 80 -94 40 -18 42 -20 36
-54 -3 -20 -6 -71 -6 -114 l0 -77 -64 -30 c-35 -17 -68 -36 -74 -43 -6 -7 -6
-41 -1 -87 11 -100 32 -120 127 -120 37 0 72 -4 78 -8 7 -4 39 -44 72 -89 l61
-82 -34 -57 c-36 -60 -44 -107 -22 -135 14 -19 126 -99 138 -99 5 0 38 27 75
60 36 33 69 60 73 60 23 -2 164 -39 171 -46 5 -5 20 -48 35 -96 l26 -88 87 0
c113 0 128 10 137 88 9 85 16 112 26 112 5 0 9 -759 9 -1925 0 -1533 -3 -1925
-12 -1925 -14 0 -1775 132 -2023 151 -133 11 -153 14 -175 35 -14 12 -45 34
-70 48 l-45 26 95 -2 c111 -2 138 5 151 39 5 14 9 330 9 777 0 634 -2 755 -14
772 -14 18 -29 19 -276 19 l-262 0 -19 -24 c-18 -22 -19 -50 -19 -773 l0 -750
-52 8 c-90 15 -137 9 -164 -18 -35 -35 -41 -86 -14 -120 27 -35 84 -51 265
-77 265 -38 261 -36 289 -147 21 -82 67 -375 60 -386 -8 -13 -1591 -10 -1639
3 -56 16 -92 44 -116 92 l-21 41 1 2705 c2 2702 2 2706 22 2748 23 47 65 82
113 93 17 5 740 8 1607 9 l1575 1 30 -78z m3842 -1339 l-3 -138 -1292 -3
-1293 -2 0 140 0 140 1295 0 1296 0 -3 -137z m2 -1513 l0 -1330 -180 -362
c-99 -200 -215 -444 -259 -543 l-79 -180 -918 -3 c-797 -2 -930 -1 -999 13
-44 8 -96 16 -115 18 l-35 2 -3 1852 -2 1852 27 4 c16 2 598 5 1296 6 l1267 1
0 -1330z m748 318 c18 -5 72 -38 120 -72 57 -40 98 -63 119 -64 43 -3 158 -39
216 -68 87 -45 168 -143 214 -261 24 -60 27 -82 27 -188 0 -106 -3 -128 -26
-186 -65 -166 -179 -274 -333 -314 -68 -17 -188 -18 -260 -2 -48 12 -50 14
-53 49 -6 67 9 99 53 114 56 19 115 84 115 126 0 35 -19 70 -55 100 -19 17
-43 17 -98 1 -17 -4 -17 -3 -1 34 37 87 56 153 50 177 -17 69 -111 129 -221
141 -52 6 -158 -5 -200 -21 -15 -6 -48 74 -60 143 -11 69 17 146 76 208 58 61
101 85 173 95 54 7 91 4 144 -12z m-74 -479 c120 -39 134 -72 82 -187 -38 -83
-45 -125 -23 -139 6 -4 39 -6 73 -5 79 4 94 -11 73 -71 -16 -48 -51 -65 -131
-66 -56 -1 -66 -13 -39 -47 16 -21 19 -35 14 -72 -7 -57 -20 -69 -87 -77 -113
-14 -276 45 -324 117 -43 66 -30 136 79 412 49 124 57 137 84 145 53 16 133
12 199 -10z m61 -756 c11 -38 14 -63 8 -73 -6 -8 -63 -59 -128 -112 -65 -53
-153 -132 -196 -174 -44 -43 -79 -73 -79 -66 0 23 49 205 69 257 10 28 35 84
54 127 l35 76 69 7 c37 3 77 7 88 9 61 10 63 9 80 -51z m-351 -100 c-23 -52
-75 -222 -89 -292 -18 -87 -17 -122 3 -129 7 -2 57 39 110 91 91 89 359 317
372 317 3 -1 20 -21 38 -46 l33 -45 -23 -20 c-39 -34 -356 -280 -498 -388
l-135 -102 -3 33 c-7 62 18 323 36 389 22 79 60 147 103 183 36 31 65 35 53 9z
m619 -250 c20 -39 48 -164 111 -498 78 -413 81 -438 66 -509 -10 -49 -20 -67
-59 -105 -76 -76 -83 -78 -621 -126 -151 -14 -294 -27 -316 -30 l-41 -4 -7 46
c-3 25 -6 83 -6 128 l0 82 163 46 c89 26 247 69 350 97 104 27 197 55 208 60
24 13 24 33 -1 185 -35 209 -23 387 34 511 29 63 83 144 96 144 5 0 16 -12 23
-27z m-1068 -508 c-26 -138 -54 -292 -64 -344 l-17 -94 -64 -34 c-36 -19 -82
-51 -103 -71 -39 -38 -87 -123 -87 -153 0 -28 -17 -32 -51 -12 -25 15 -30 23
-25 46 16 79 449 974 454 937 2 -14 -18 -138 -43 -275z m880 -217 l7 -55 -33
-7 c-18 -3 -34 -5 -35 -3 -2 2 6 38 18 81 24 85 31 83 43 -16z m-6565 -89
c240 -37 290 -51 367 -110 45 -34 59 -39 105 -39 29 0 100 -4 158 -10 58 -5
409 -32 780 -60 371 -28 873 -66 1115 -85 242 -19 510 -39 597 -44 170 -10
201 -20 238 -71 25 -35 25 -33 -45 -330 -25 -107 -100 -438 -166 -735 -65
-297 -124 -553 -131 -569 -16 -39 -56 -86 -84 -96 -13 -5 -522 -10 -1132 -12
-1233 -2 -1148 -7 -1171 64 -6 18 -76 429 -156 913 -80 484 -152 904 -161 934
-18 63 -47 95 -100 110 -22 6 -115 23 -209 37 -185 28 -255 50 -255 83 0 29
33 48 77 44 21 -2 99 -13 173 -24z m5720 -229 c19 -14 35 -18 66 -13 41 5 41
5 48 -32 10 -52 -1 -94 -27 -100 -32 -8 -168 23 -190 43 -21 19 -51 71 -44 78
4 4 107 42 117 43 3 0 16 -8 30 -19z m-388 -240 c68 -38 129 -73 137 -77 21
-13 -47 -135 -73 -129 -31 8 -238 130 -244 144 -4 11 46 132 54 132 2 0 58
-31 126 -70z m-282 -35 c11 -13 8 -21 -17 -48 -48 -50 -57 -75 -63 -172 l-5
-90 -29 3 c-17 2 -43 13 -59 24 -29 21 -29 22 -25 98 5 87 33 148 83 180 36
24 98 26 115 5z m90 -105 c0 -9 -14 -36 -30 -58 -22 -30 -37 -42 -55 -42 -47
0 -42 56 11 125 l27 36 23 -22 c13 -13 24 -30 24 -39z m463 -27 c3 -43 8 -87
12 -99 6 -20 2 -21 -85 -28 -51 -4 -95 -4 -98 -1 -7 6 68 162 84 176 7 6 16 4
24 -6 19 -22 28 -18 35 15 11 49 22 26 28 -57z m-926 11 c48 -28 48 -44 2 -44
-37 0 -89 -21 -108 -44 -14 -16 -17 -96 -6 -147 5 -23 1 -28 -37 -42 -24 -10
-47 -17 -50 -17 -13 0 -30 85 -30 147 -1 141 114 215 229 147z m628 -53 c38
-21 71 -45 73 -53 5 -27 -17 -96 -33 -102 -12 -4 -15 3 -15 35 0 36 -2 40 -22
37 -16 -2 -31 -19 -50 -58 -15 -30 -29 -63 -32 -72 -4 -13 -16 -18 -40 -18
-34 0 -35 0 -40 53 -15 148 -15 145 16 188 34 47 36 46 143 -10z m-540 -45
c13 -13 32 -41 44 -64 l20 -40 -42 -6 c-138 -19 -141 -19 -161 3 -40 44 -14
98 59 120 46 14 54 13 80 -13z m315 -40 c0 -2 3 -11 6 -20 5 -13 -1 -16 -25
-16 -24 0 -31 4 -31 20 0 15 7 20 25 20 14 0 25 -2 25 -4z m559 -68 c5 -18 38
-134 72 -258 l61 -225 -6 -155 c-3 -85 -10 -168 -15 -185 l-8 -30 -10 40 c-6
22 -27 121 -47 220 -21 99 -58 264 -83 368 -36 150 -48 187 -61 187 -10 0 -48
-5 -86 -10 -38 -6 -71 -8 -73 -6 -3 2 3 18 11 34 17 33 35 38 151 45 28 2 58
4 67 5 11 1 20 -9 27 -30z m-545 -30 c17 -65 11 -71 -89 -83 -49 -6 -51 -6
-95 39 l-44 46 49 1 c28 0 73 4 100 9 28 4 55 8 61 9 7 0 14 -9 18 -21z m-673
-55 c7 -19 -1 -24 -98 -58 l-106 -37 -113 28 c-63 16 -108 31 -101 35 6 3 66
11 132 18 66 7 152 19 190 26 83 15 86 15 96 -12z m417 13 c15 -8 36 -23 46
-35 23 -26 39 -21 -215 -65 -201 -35 -332 -45 -343 -27 -7 11 274 106 370 125
91 18 110 19 142 2z m736 -223 c149 -649 160 -710 158 -838 -1 -66 -5 -140 -9
-165 l-8 -44 -513 -85 c-282 -46 -515 -81 -519 -78 -3 4 -21 107 -39 229 -18
123 -60 383 -92 578 -70 413 -75 450 -67 450 3 0 169 27 368 61 329 55 599 95
653 98 19 1 25 -17 68 -206z m-1402 6 c-10 -253 -25 -562 -37 -779 -8 -140
-15 -267 -15 -282 0 -20 -5 -28 -18 -28 -20 0 -460 105 -466 111 -5 5 17 101
125 554 86 361 124 511 138 548 l10 25 133 -42 133 -43 -3 -64z m268 -23 c6
-28 22 -118 35 -201 14 -82 52 -314 85 -515 32 -201 62 -391 66 -424 7 -54 6
-58 -12 -52 -10 3 -115 28 -233 56 -118 27 -215 51 -216 52 -1 2 4 104 11 228
11 176 44 875 44 925 0 7 36 6 104 -4 l105 -14 11 -51z m-3596 -1121 c9 -77
32 -130 64 -146 22 -12 203 -15 1057 -17 715 -2 1033 -6 1042 -14 18 -15 16
-48 -4 -70 -15 -17 -40 -18 -376 -18 -338 0 -364 1 -439 22 l-80 22 -76 -20
c-71 -17 -116 -19 -557 -19 -479 0 -480 1 -570 25 -89 25 -90 26 -112 70 -22
43 -55 197 -46 213 2 4 24 7 47 7 l43 0 7 -55z m6106 -175 c0 -57 -90 -293
-106 -277 -4 4 -34 150 -34 167 0 15 122 150 131 144 5 -3 9 -18 9 -34z m100
5 c25 -30 -109 -415 -183 -526 -35 -54 -80 -89 -94 -76 -11 11 55 182 135 348
22 46 55 126 73 177 31 91 45 106 69 77z m-5170 -140 c0 -3 -16 -28 -35 -56
-46 -67 -69 -147 -62 -215 7 -71 50 -163 97 -209 22 -21 38 -41 36 -44 -2 -3
-200 -5 -440 -3 l-435 2 43 40 c23 21 56 63 72 92 26 48 29 62 29 143 0 79 -3
96 -28 140 -15 28 -39 65 -53 83 l-27 32 402 0 c220 0 401 -2 401 -5z m-962
-57 c62 -15 125 -78 140 -140 21 -83 -12 -170 -80 -215 -36 -24 -52 -28 -114
-28 -66 0 -76 3 -110 31 -61 49 -77 78 -82 142 -7 102 47 184 138 210 47 14
54 14 108 0z m1265 -12 c41 -17 91 -74 107 -121 39 -117 -43 -243 -163 -253
-94 -8 -160 26 -199 101 -38 75 -20 186 39 239 50 45 152 61 216 34z m3768
-183 c15 -15 -19 -52 -59 -62 -56 -15 -205 -25 -249 -16 l-38 7 50 23 c28 13
65 34 83 47 31 22 40 23 119 17 47 -4 89 -11 94 -16z m-220 -123 c48 0 120 7
160 15 40 9 74 13 76 11 7 -7 -7 -65 -18 -71 -18 -12 -230 -35 -374 -41 -150
-7 -265 0 -265 16 0 4 55 28 122 52 118 44 123 45 166 31 25 -7 85 -13 133
-13z"/>
<path d="M4745 8525 c-83 -18 -140 -45 -210 -98 -251 -190 -275 -559 -51 -783
274 -274 740 -165 867 203 99 290 -87 614 -390 679 -80 17 -137 17 -216 -1z
m184 -146 c77 -17 151 -61 202 -118 67 -75 92 -143 93 -252 1 -79 -2 -90 -37
-161 -42 -86 -89 -133 -177 -176 -49 -24 -66 -27 -160 -27 -95 0 -110 3 -160
28 -94 48 -162 128 -195 226 -26 78 -17 197 19 273 74 156 253 245 415 207z"/>
<path d="M1840 8104 c-196 -29 -331 -119 -401 -269 -107 -227 -21 -485 203
-606 l63 -34 -113 -3 -113 -3 3 -132 3 -132 994 -3 c688 -1 998 1 1005 8 8 8
12 197 13 580 l2 570 -734 0 c-414 0 -755 4 -782 9 -72 14 -115 19 -143 15z
m203 -87 c90 -45 156 -112 201 -207 29 -60 31 -73 31 -175 0 -103 -2 -114 -32
-177 -44 -93 -109 -160 -201 -205 -66 -33 -85 -38 -167 -41 -113 -5 -197 19
-276 78 -273 205 -215 625 104 746 53 21 77 24 163 21 94 -2 106 -5 177 -40z
m1421 -19 c3 -29 6 -220 6 -425 l0 -371 -727 -4 c-401 -2 -729 -3 -731 -2 -2
1 22 16 53 33 170 96 254 248 243 440 -5 76 -11 102 -40 163 -35 72 -99 146
-163 188 -30 20 -30 20 545 22 316 2 627 4 691 6 l116 2 7 -52z m-4 -938 l0
-110 -975 0 -975 0 0 104 c0 101 1 105 23 109 12 2 451 5 975 6 l952 1 0 -110z"/>
<path d="M1774 8000 c-105 -21 -211 -109 -261 -215 -24 -52 -28 -72 -28 -150
0 -78 4 -98 29 -152 33 -73 113 -154 180 -184 190 -83 402 -7 492 177 40 81
46 202 14 286 -65 174 -243 274 -426 238z m218 -57 c100 -44 180 -149 194
-257 l7 -46 -167 0 -166 0 0 138 c0 127 -8 177 -26 159 -9 -9 -10 -310 0 -325
5 -9 58 -12 182 -12 l176 0 -7 -32 c-19 -95 -94 -191 -187 -239 -65 -34 -194
-38 -271 -9 -73 28 -149 100 -185 177 -38 82 -38 194 0 274 82 177 272 250
450 172z"/>
<path d="M2417 7843 c-4 -3 -7 -14 -7 -24 0 -26 47 -28 490 -25 495 4 452 1
448 29 l-3 22 -461 3 c-253 1 -464 -1 -467 -5z"/>
<path d="M2410 7585 l0 -25 470 0 c454 0 470 1 470 19 0 10 -7 22 -16 25 -9 3
-220 6 -470 6 l-454 0 0 -25z"/>
<path d="M2468 7363 c-116 -3 -128 -5 -128 -22 0 -15 11 -19 68 -24 87 -9 516
-9 755 0 166 5 187 8 187 23 0 15 -24 17 -232 23 -222 7 -368 6 -650 0z"/>
<path d="M1626 7074 c-3 -8 -3 -26 0 -39 l6 -24 846 5 c466 2 852 4 859 4 15
0 25 32 17 54 -6 15 -78 16 -864 16 -772 0 -858 -2 -864 -16z m1672 -10 c12
-4 22 -10 22 -15 0 -12 -1657 -12 -1665 0 -3 5 5 12 17 14 36 7 1600 7 1626 1z"/>
<path d="M3985 6795 c-66 -12 -153 -28 -192 -35 l-73 -12 52 -47 51 -47 -109
-80 c-60 -44 -174 -125 -254 -179 -80 -54 -221 -153 -315 -220 -93 -67 -244
-173 -335 -237 -91 -63 -200 -140 -244 -172 l-79 -56 -15 22 c-87 130 -167
238 -177 238 -16 0 -168 -103 -420 -285 -340 -245 -398 -286 -437 -309 -21
-11 -38 -23 -37 -26 0 -3 17 -25 38 -49 l39 -44 249 178 c374 269 543 388 547
384 1 -2 30 -44 64 -94 64 -95 115 -155 130 -155 5 0 36 18 70 39 83 54 1052
737 1180 831 57 43 120 87 141 98 l38 22 38 -55 c20 -30 40 -55 44 -55 6 0
151 349 151 364 0 8 -8 7 -145 -19z"/>
<path d="M4118 6198 c-17 -12 -18 -85 -20 -1230 -3 -1157 -2 -1218 15 -1235
16 -16 44 -18 272 -21 224 -3 257 -1 279 14 l26 16 0 1218 c0 1120 -1 1219
-17 1231 -23 20 -530 26 -555 7z"/>
<path d="M3260 5670 c-20 -20 -20 -29 -18 -970 3 -896 4 -950 21 -967 16 -16
44 -18 275 -21 254 -3 257 -3 270 19 11 17 13 194 13 960 -1 538 -5 948 -10
962 -13 34 -39 37 -302 37 -216 0 -230 -1 -249 -20z"/>
<path d="M1535 4950 c-19 -22 -20 -40 -20 -691 0 -628 1 -669 18 -686 16 -16
44 -18 281 -21 238 -3 264 -2 277 14 12 14 14 123 14 690 0 633 -1 674 -18
691 -16 16 -44 18 -275 21 -254 3 -258 3 -277 -18z"/>
<path d="M6380 6801 l-55 -48 -195 -6 c-170 -5 -196 -8 -208 -24 -9 -13 -12
-66 -10 -213 l3 -195 191 -3 c110 -1 203 2 218 8 l26 10 0 154 c0 147 1 156
23 183 97 116 114 153 79 172 -14 8 -29 0 -72 -38z m8 -63 c-30 -35 -97 -117
-148 -183 -51 -66 -98 -120 -104 -120 -13 0 -108 136 -101 144 3 3 20 -13 38
-34 73 -89 64 -84 93 -50 14 17 49 64 79 106 54 75 171 199 188 199 5 0 -15
-28 -45 -62z m-128 -40 c0 -15 -110 -178 -119 -178 -4 0 -24 23 -45 50 -40 53
-63 70 -92 70 -14 0 -16 -7 -11 -36 10 -60 125 -234 154 -234 4 0 19 17 32 38
47 74 126 182 134 182 4 0 7 -54 7 -119 l0 -120 -42 -6 c-24 -3 -108 -5 -188
-3 l-145 3 -3 160 c-1 88 0 170 3 183 5 22 8 22 160 22 117 0 155 -3 155 -12z"/>
<path d="M6785 6620 c-3 -5 -3 -14 0 -20 4 -6 193 -10 536 -10 522 0 529 0
529 20 0 20 -7 20 -529 20 -343 0 -532 -4 -536 -10z"/>
<path d="M6780 6390 c0 -20 7 -20 530 -20 446 0 530 2 530 14 0 8 -7 17 -16
20 -9 3 -247 6 -530 6 -507 0 -514 0 -514 -20z"/>
<path d="M6460 6015 c-6 -8 -39 -28 -73 -45 -60 -30 -61 -30 -232 -30 -201 0
-232 -4 -241 -34 -4 -11 -7 -105 -7 -208 0 -141 4 -192 14 -204 11 -14 38 -15
205 -12 141 2 197 6 206 16 9 9 14 57 16 160 4 166 -1 151 110 280 45 52 52
65 42 77 -16 19 -24 19 -40 0z m-66 -97 c-9 -14 -104 -134 -192 -242 l-56 -68
-26 30 c-29 35 -86 128 -96 157 -4 11 17 -11 47 -50 30 -38 62 -70 71 -70 9 0
51 43 93 95 42 52 95 110 118 127 47 36 52 39 41 21z m-114 -28 c0 -17 -126
-165 -140 -165 -8 0 -31 22 -51 49 -21 27 -45 53 -54 58 -21 12 -45 -7 -45
-37 0 -24 103 -188 137 -217 26 -24 37 -15 118 97 l65 90 0 -122 0 -121 -104
-7 c-57 -4 -140 -4 -185 0 l-81 7 0 158 c0 87 3 172 6 189 l7 31 163 0 c100 0
164 -4 164 -10z"/>
<path d="M6878 5833 c-85 -3 -98 -6 -98 -21 0 -16 32 -17 533 -16 435 2 532 5
532 16 0 9 -26 15 -95 19 -96 7 -692 8 -872 2z"/>
<path d="M6837 5623 c-48 -3 -67 -8 -64 -16 6 -19 1077 -22 1077 -4 0 10 -19
16 -61 21 -62 6 -824 5 -952 -1z"/>
<path d="M6407 5164 l-58 -47 -211 -2 c-165 -2 -212 -5 -219 -16 -5 -8 -8
-111 -6 -229 l2 -215 208 0 c174 0 209 2 217 15 5 8 10 81 10 161 0 164 2 171
94 269 66 71 70 78 56 95 -19 23 -30 19 -93 -31z m-62 -136 c-60 -84 -165
-207 -186 -219 -11 -5 -24 -7 -29 -4 -14 8 -102 137 -97 142 3 2 27 -23 53
-56 27 -33 52 -59 56 -58 3 1 43 47 87 102 80 98 140 159 149 150 3 -2 -13
-28 -33 -57z m-52 40 c-14 -19 -135 -172 -144 -182 -4 -5 -22 9 -41 30 -53 61
-71 75 -93 72 -29 -4 -30 -34 -2 -76 13 -20 45 -70 70 -109 31 -49 51 -71 61
-67 7 3 47 45 87 95 40 49 77 89 82 89 11 0 5 -215 -6 -227 -5 -4 -88 -8 -185
-8 l-177 0 -3 198 -2 197 181 0 c144 0 179 -3 172 -12z"/>
<path d="M6790 4978 c0 -17 28 -18 530 -18 355 0 530 3 530 10 0 28 -66 31
-557 29 -475 -3 -503 -4 -503 -21z"/>
<path d="M6818 4782 c-25 -2 -38 -8 -38 -18 0 -12 76 -14 531 -14 500 0 530 1
527 18 -3 16 -35 17 -493 17 -270 0 -507 -1 -527 -3z"/>
<path d="M6444 4319 c-16 -12 -41 -34 -56 -47 -27 -25 -29 -25 -238 -27 -151
-1 -214 -5 -223 -14 -19 -19 -23 -400 -4 -426 14 -18 28 -19 202 -19 240 1
225 -12 225 193 l0 147 80 89 c44 49 79 96 78 105 -5 23 -32 23 -64 -1z m-188
-166 c-25 -32 -61 -76 -80 -98 l-34 -39 -54 57 c-61 65 -88 73 -88 28 0 -19
17 -55 47 -98 67 -99 86 -123 94 -123 10 0 77 72 125 133 20 26 41 47 45 47 5
0 9 -47 9 -104 0 -82 -3 -108 -16 -120 -13 -13 -44 -16 -185 -16 l-169 0 0
195 0 195 176 0 175 0 -45 -57z"/>
<path d="M6893 4163 c-91 -3 -113 -7 -113 -18 0 -13 71 -15 529 -15 316 0 532
4 536 9 3 5 0 13 -7 18 -13 8 -733 13 -945 6z"/>
<path d="M6791 3951 c-44 -28 9 -31 524 -31 515 0 568 3 524 31 -8 5 -243 9
-524 9 -280 0 -516 -4 -524 -9z"/>
<path d="M2836 3481 c-8 -12 0 -64 83 -541 68 -391 130 -765 186 -1110 14 -91
33 -175 41 -187 l14 -23 1090 0 c954 0 1090 2 1104 15 8 8 24 57 35 107 12 51
79 354 150 673 72 319 141 630 155 690 34 145 34 151 -6 158 -129 23 -843 82
-1643 137 -288 20 -968 70 -1075 80 -128 12 -128 12 -134 1z m311 -62 c111 -7
207 -15 212 -18 11 -7 38 -149 47 -252 l7 -67 -49 5 c-190 18 -420 46 -425 51
-3 4 -16 66 -28 137 -12 72 -24 138 -28 149 -4 16 -1 18 28 13 19 -3 125 -11
236 -18z m593 -44 c135 -9 255 -19 268 -21 18 -4 22 -11 22 -42 0 -20 5 -92
12 -160 6 -67 9 -125 5 -128 -6 -7 -566 51 -574 60 -7 6 -42 247 -43 289 0 26
2 28 33 23 17 -3 142 -13 277 -21z m690 -51 c118 -9 218 -21 221 -26 6 -10 29
-259 29 -316 0 -31 -1 -32 -37 -27 -21 3 -126 14 -233 25 -107 11 -220 23
-251 26 l-56 6 -6 51 c-4 29 -9 105 -13 170 l-7 119 69 -6 c38 -3 166 -13 284
-22z m714 -56 l159 -12 -6 -86 c-4 -47 -9 -129 -13 -182 l-7 -98 -41 1 c-22 0
-144 13 -271 27 l-230 27 -6 50 c-4 28 -10 109 -14 181 l-7 130 138 -12 c77
-7 210 -19 298 -26z m399 -32 c65 -7 119 -15 121 -17 2 -2 -15 -84 -37 -181
l-41 -178 -41 1 c-22 0 -80 6 -130 12 l-90 12 2 40 c1 22 8 104 14 183 l12
142 36 0 c20 -1 89 -7 154 -14z m-2317 -186 c103 -11 190 -22 192 -25 5 -5 75
-422 87 -517 l7 -58 -230 0 -230 0 -16 88 c-8 48 -32 186 -52 307 -20 121 -38
224 -41 229 -4 5 15 6 44 2 28 -3 135 -15 239 -26z m534 -50 c284 -26 289 -27
295 -54 4 -18 22 -209 41 -438 l6 -76 -258 5 c-143 2 -264 6 -270 8 -6 2 -14
30 -18 62 -3 32 -20 141 -35 243 -16 102 -32 207 -36 233 l-7 49 29 -6 c15 -3
129 -15 253 -26z m635 -65 c138 -14 260 -28 271 -30 23 -5 23 -3 40 -352 l7
-133 -214 0 c-118 0 -244 3 -281 6 l-66 7 -6 51 c-5 44 -46 469 -46 480 0 2
10 2 23 0 12 -2 135 -15 272 -29z m644 -70 c124 -14 226 -27 228 -28 2 -2 -3
-98 -9 -213 l-13 -209 -241 -3 -241 -2 -6 77 c-4 43 -10 154 -13 246 l-7 168
39 -6 c21 -3 140 -16 263 -30z m526 -57 c6 -6 -19 -140 -62 -330 l-15 -68 -96
0 -95 0 7 147 c3 81 9 177 12 213 l6 65 119 -10 c65 -6 121 -13 124 -17z
m-2052 -418 c10 -9 64 -316 73 -416 l7 -71 -104 -8 c-57 -4 -156 -12 -219 -19
-63 -7 -116 -12 -117 -12 -2 1 -93 532 -93 540 0 6 447 -8 453 -14z m514 -6
c72 -6 72 -6 77 -37 11 -69 38 -388 33 -393 -3 -3 -101 -14 -219 -25 -117 -10
-226 -20 -243 -21 l-29 -3 -22 155 c-13 85 -29 194 -37 243 -7 48 -12 89 -10
91 5 5 355 -3 450 -10z m684 -22 c4 -4 10 -84 14 -179 l7 -172 -24 -5 c-19 -4
-219 -26 -469 -50 l-47 -5 -6 47 c-3 26 -10 108 -16 182 -6 74 -12 150 -15
169 l-4 34 277 -8 c152 -4 280 -10 283 -13z m528 -8 c7 -6 -17 -286 -26 -295
-8 -8 -423 -50 -431 -44 -5 4 -20 340 -15 348 5 8 463 -1 472 -9z m230 -6 c-2
-48 -58 -261 -70 -268 -8 -4 -39 -10 -69 -11 -50 -4 -55 -2 -53 16 1 11 5 77
9 148 l7 127 88 0 c65 0 89 -3 88 -12z m-69 -328 c0 -8 -44 -216 -67 -317 -7
-32 -29 -46 -59 -39 l-26 7 7 127 c4 69 10 147 14 172 6 42 9 45 41 51 56 10
90 10 90 -1z m-185 -169 c-3 -80 -9 -154 -11 -163 -5 -16 -23 -18 -204 -18
l-199 0 -5 53 c-3 28 -7 93 -9 144 -5 104 -6 102 71 104 26 0 112 8 192 18 80
9 151 15 159 13 11 -4 12 -32 6 -151z m-474 39 c4 -36 7 -100 8 -142 l1 -78
-264 0 c-165 0 -267 4 -271 10 -3 5 -9 57 -12 115 -5 84 -3 105 8 109 19 7
478 55 504 53 17 -2 21 -12 26 -67z m-586 -87 c4 -54 9 -106 12 -116 4 -16
-10 -17 -243 -15 l-248 3 -7 40 c-4 22 -9 63 -13 91 l-6 51 127 13 c251 25
279 27 325 29 l46 1 7 -97z m-543 -13 c4 -30 9 -70 12 -87 l5 -33 -219 0
c-251 0 -237 -6 -247 96 -6 52 -5 54 18 55 13 0 80 7 149 14 69 7 159 12 200
11 l75 -1 7 -55z"/>
<path d="M3254 1001 c-11 -5 -33 -24 -48 -42 -38 -45 -33 -107 13 -153 27 -26
39 -31 81 -31 40 0 54 5 79 29 53 50 51 124 -4 176 -25 24 -88 35 -121 21z
m100 -60 c39 -43 14 -112 -45 -126 -61 -15 -108 76 -64 125 24 26 85 27 109 1z"/>
<path d="M4494 996 c-47 -21 -74 -61 -74 -113 0 -38 5 -50 34 -79 29 -29 41
-34 81 -34 40 0 52 5 81 34 29 29 34 41 34 79 0 53 -27 93 -76 113 -40 17 -41
17 -80 0z m106 -66 c16 -30 12 -57 -16 -89 -31 -37 -74 -41 -104 -11 -54 54
10 153 82 128 16 -6 33 -18 38 -28z"/>
</g>
</svg>
