<?xml version="1.0" standalone="no"?>
<!DOCTYPE svg PUBLIC "-//W3C//DTD SVG 20010904//EN"
 "http://www.w3.org/TR/2001/REC-SVG-20010904/DTD/svg10.dtd">
<svg version="1.0" xmlns="http://www.w3.org/2000/svg"
 width="1024.000000pt" height="1024.000000pt" viewBox="0 0 1024.000000 1024.000000"
 preserveAspectRatio="xMidYMid meet">

<g transform="translate(0.000000,1024.000000) scale(0.100000,-0.100000)"
fill="#e0e0e0" stroke="none">
<path d="M5006 9531 c-50 -4 -81 -11 -84 -18 -3 -10 37 -13 176 -13 361 0 724
-45 1105 -137 108 -26 152 -32 160 -24 6 6 8 14 4 18 -13 12 -326 81 -509 112
-302 52 -656 77 -852 62z"/>
<path d="M4703 9505 c-3 -9 -3 -18 0 -22 11 -10 57 7 57 22 0 20 -49 20 -57 0z"/>
<path d="M4440 9483 c-235 -39 -550 -116 -550 -134 0 -18 21 -16 145 16 120
30 331 74 449 92 61 10 76 34 19 32 -21 -1 -49 -4 -63 -6z"/>
<path d="M6820 9360 c-73 -13 -157 -49 -208 -89 -125 -100 -175 -199 -174
-351 1 -91 24 -170 98 -338 30 -67 54 -125 54 -127 0 -2 -373 -5 -828 -7
l-828 -3 -43 -28 c-27 -18 -50 -44 -62 -70 -18 -41 -19 -90 -19 -1532 0 -859
4 -1507 10 -1529 10 -45 34 -81 74 -110 27 -21 37 -21 882 -24 470 -1 854 -5
854 -9 0 -17 -66 -106 -106 -143 -57 -52 -122 -81 -244 -109 -120 -27 -157
-48 -166 -95 -14 -77 20 -121 100 -131 28 -3 458 -5 956 -3 721 2 911 6 935
16 45 20 75 52 75 82 0 44 -26 68 -98 89 -135 41 -380 205 -424 284 -9 18 14
19 754 15 l763 -3 33 23 c67 48 63 -78 60 1631 l-3 1550 -21 28 c-12 15 -36
37 -55 48 -32 19 -55 19 -964 17 -511 -1 -951 0 -977 4 l-46 6 50 106 c98 210
121 321 94 450 -20 95 -56 159 -127 228 -75 71 -160 110 -270 124 -46 5 -84 9
-84 9 0 -1 -20 -5 -45 -9z m250 -106 c116 -55 190 -155 211 -283 18 -115 -14
-215 -167 -516 -83 -165 -195 -368 -214 -388 -26 -29 -331 578 -375 748 -39
152 9 303 127 396 107 85 289 103 418 43z m-987 -921 l578 -6 25 -48 c13 -27
24 -50 24 -51 0 -2 -378 -3 -839 -3 -547 0 -843 -3 -850 -10 -6 -6 -11 -511
-13 -1359 l-3 -1349 1070 7 c589 4 1502 7 2031 8 l961 1 6 320 c3 176 4 779 0
1341 -5 912 -7 1022 -21 1034 -12 9 -225 12 -989 12 -667 0 -973 3 -973 10 0
6 9 28 20 49 l19 39 513 7 c282 4 734 5 1005 3 478 -3 493 -4 507 -23 14 -18
15 -188 15 -1435 -1 -778 -4 -1459 -8 -1513 -4 -70 -10 -100 -21 -107 -10 -6
-774 -9 -2090 -7 -1653 1 -2080 5 -2097 15 -13 7 -27 29 -33 52 -7 27 -10 493
-8 1504 l3 1464 24 26 24 26 271 0 c149 0 531 -3 849 -7z m-140 -161 c-11 -9
-37 -30 -57 -45 -46 -36 -73 -89 -83 -164 l-8 -60 -155 75 c-85 41 -215 103
-287 138 -73 34 -133 64 -133 66 0 2 168 4 373 5 350 1 371 0 350 -15z m827
-54 c82 -139 99 -159 128 -156 23 2 38 22 93 113 l65 110 965 3 c530 1 974 0
987 -3 l22 -5 0 -1040 c0 -572 -4 -1040 -8 -1040 -4 0 -12 4 -17 9 -6 5 -194
104 -420 221 -225 117 -491 256 -590 310 -99 54 -371 199 -605 322 -234 124
-492 262 -575 307 -82 45 -259 139 -392 207 -132 69 -260 142 -283 161 l-42
36 62 23 c75 27 112 60 148 134 21 43 27 70 27 120 0 79 -30 137 -102 199
l-48 41 271 0 272 0 42 -72z m-1637 41 c23 -12 43 -22 44 -24 4 -3 -28 -95
-33 -95 -2 0 -24 10 -49 22 -44 22 -45 23 -45 70 0 42 3 48 20 48 12 0 40 -10
63 -21z m1008 -14 c104 -37 163 -145 139 -253 -21 -95 -115 -172 -211 -172
-46 0 -116 31 -153 67 -105 105 -79 276 53 345 61 32 108 35 172 13z m-807
-80 c42 -19 76 -38 76 -42 0 -5 -5 -25 -11 -46 -12 -45 -17 -45 -123 2 l-65
30 16 45 c10 26 20 46 24 46 4 0 41 -16 83 -35z m-199 -81 c22 -12 69 -34 105
-48 71 -27 338 -149 550 -252 l135 -66 37 -79 37 -80 75 -34 c41 -19 181 -91
311 -160 130 -70 260 -138 290 -151 31 -14 53 -29 50 -34 -9 -14 -207 -127
-382 -216 -92 -48 -220 -117 -283 -154 -63 -37 -176 -100 -250 -140 -74 -40
-214 -116 -310 -168 -96 -52 -229 -124 -295 -160 -66 -35 -125 -68 -131 -73
-6 -5 -14 -6 -17 -2 -4 3 -7 422 -7 930 l0 924 23 -7 c12 -3 40 -17 62 -30z
m429 -30 c83 -38 80 -33 55 -101 -9 -25 -8 -25 -113 21 -47 21 -57 29 -51 43
3 10 9 30 12 46 3 15 9 27 13 27 4 0 42 -16 84 -36z m240 -104 c7 0 30 -25 51
-55 48 -70 79 -93 149 -106 43 -9 56 -16 60 -34 3 -12 24 -40 46 -62 39 -37
40 -40 29 -73 -17 -51 -24 -55 -67 -41 -31 10 -43 23 -66 67 -47 90 -91 130
-211 192 -107 56 -110 58 -109 90 3 61 8 64 59 42 26 -11 52 -20 59 -20z m570
-450 c0 -22 -4 -43 -7 -47 -4 -4 -47 14 -95 40 -92 49 -95 53 -71 113 l8 23
83 -44 83 -45 -1 -40z m168 -47 c67 -35 87 -51 83 -62 -4 -9 -9 -28 -12 -43
-3 -16 -10 -28 -16 -28 -5 0 -47 20 -92 45 l-82 45 10 45 c6 25 12 45 15 45 3
0 45 -21 94 -47z m239 -128 c62 -31 69 -39 64 -58 -4 -12 -9 -30 -11 -39 -7
-24 -26 -23 -82 6 -83 43 -86 47 -73 89 7 21 17 37 22 37 5 0 41 -16 80 -35z
m219 -125 c79 -40 79 -40 68 -68 -7 -15 -15 -31 -20 -37 -12 -13 -181 -15
-190 -1 -16 23 -8 53 16 64 17 8 27 22 32 47 3 19 8 35 10 35 3 0 40 -18 84
-40z m-211 -120 c14 -41 13 -41 -85 -92 -70 -36 -81 -34 -90 23 -5 34 -5 34
73 76 43 23 81 39 84 35 4 -4 12 -23 18 -42z m506 -41 c8 -12 -14 -79 -26 -79
-21 0 -159 76 -159 88 0 7 6 28 14 46 l14 34 76 -39 c41 -22 78 -44 81 -50z
m-120 -99 c99 -49 248 -126 330 -170 209 -114 293 -158 580 -305 138 -71 318
-165 400 -210 83 -45 239 -125 348 -178 l197 -96 0 -159 0 -159 -147 -4 c-82
-2 -976 -4 -1988 -4 l-1840 0 -3 182 -2 182 42 22 c24 12 167 90 318 174 413
228 690 380 740 405 25 12 86 46 135 75 145 84 432 239 543 294 80 39 111 49
135 45 18 -3 113 -45 212 -94z m-625 20 c11 -21 20 -42 20 -44 0 -7 -161 -89
-165 -84 -11 12 -34 83 -28 86 4 1 37 20 73 41 36 22 68 40 72 40 4 1 17 -17
28 -39z m900 5 c39 -19 70 -39 70 -44 0 -5 -7 -25 -15 -45 l-16 -37 -67 36
c-37 20 -71 40 -75 45 -8 7 17 80 28 80 3 0 37 -16 75 -35z m-1127 -132 l15
-48 -75 -38 c-40 -21 -78 -35 -83 -32 -21 13 -42 67 -31 78 13 13 143 86 153
87 4 0 14 -21 21 -47z m1357 12 c39 -19 70 -40 70 -46 0 -15 -29 -69 -38 -69
-4 1 -36 15 -72 33 -69 34 -82 56 -60 96 14 28 19 27 100 -14z m237 -131 l63
-35 -15 -36 c-9 -21 -17 -39 -20 -41 -2 -3 -135 69 -153 83 -2 2 4 20 12 40
18 42 17 43 113 -11z m-1823 -5 c9 -23 16 -43 14 -44 -14 -11 -157 -85 -166
-85 -12 0 -36 64 -30 81 4 11 135 86 154 88 7 0 19 -18 28 -40z m2102 -172
c-11 -53 -20 -54 -106 -12 -85 42 -83 38 -59 103 l9 22 81 -40 c80 -41 81 -42
75 -73z m-2333 36 l16 -42 -75 -40 c-42 -23 -79 -41 -83 -41 -11 0 -46 79 -38
86 16 17 153 90 158 85 3 -3 13 -25 22 -48z m2563 -139 c-3 -9 -9 -27 -12 -40
-3 -13 -10 -24 -15 -24 -14 0 -159 74 -159 81 0 4 7 23 15 43 l15 36 81 -41
c60 -30 79 -44 75 -55z m-2795 22 c13 -25 21 -47 19 -49 -23 -19 -162 -87
-169 -83 -18 11 -34 77 -22 89 12 12 132 85 142 86 3 1 17 -19 30 -43z m3036
-130 c5 -5 -33 -75 -41 -76 -16 0 -148 74 -153 86 -2 7 3 26 12 43 l15 31 83
-41 c45 -23 83 -42 84 -43z m-3274 3 c9 -23 14 -45 12 -50 -5 -7 -152 -89
-161 -89 -3 0 -13 19 -23 43 l-18 42 81 47 c45 26 84 48 87 48 3 0 13 -19 22
-41z m3486 -115 c6 -6 -31 -85 -38 -82 -3 2 -39 20 -79 41 l-72 37 20 40 20
40 73 -36 c39 -20 74 -38 76 -40z m-3719 -14 c11 -21 20 -41 20 -44 0 -5 -117
-76 -126 -76 -2 0 -4 26 -4 58 0 53 2 58 33 79 45 30 54 28 77 -17z m3835 -43
c37 -21 40 -26 43 -70 2 -29 -1 -47 -8 -47 -6 0 -33 11 -60 25 -53 27 -60 43
-38 90 14 30 13 30 63 2z m-1437 -960 c61 -109 199 -228 345 -298 26 -13 47
-25 47 -28 0 -4 -386 -7 -858 -8 -471 -1 -852 0 -847 2 6 3 50 16 100 30 179
52 294 139 382 290 l38 65 382 0 381 0 30 -53z"/>
<path d="M6785 9091 c-61 -36 -92 -80 -106 -152 -15 -71 0 -127 48 -180 77
-85 175 -103 274 -51 77 40 114 102 114 191 0 54 -5 74 -28 114 -42 71 -94
101 -181 105 -64 3 -76 0 -121 -27z m202 -36 c110 -65 113 -228 6 -301 -89
-60 -219 -23 -259 73 -68 161 103 315 253 228z"/>
<path d="M6035 8110 c-131 -30 -184 -179 -99 -280 36 -42 79 -62 134 -62 69 0
126 36 159 100 16 30 16 114 1 143 -39 76 -119 117 -195 99z m116 -76 c103
-98 -3 -265 -134 -211 -44 19 -68 54 -74 110 -11 112 127 179 208 101z"/>
<path d="M3702 9298 c-20 -20 -14 -30 15 -26 32 4 46 38 16 38 -11 0 -24 -5
-31 -12z"/>
<path d="M3345 9161 c-227 -99 -265 -118 -265 -136 0 -8 3 -15 7 -15 4 0 110
46 234 102 152 69 225 107 222 115 -3 7 -8 13 -12 13 -3 0 -87 -36 -186 -79z"/>
<path d="M2875 8930 c-4 -7 -3 -16 3 -22 14 -14 47 -6 47 12 0 18 -40 26 -50
10z"/>
<path d="M4845 8894 c-16 -2 -82 -9 -145 -15 -220 -21 -504 -82 -735 -156
-179 -57 -456 -171 -469 -191 -17 -28 25 -19 142 31 354 152 746 254 1102 287
157 15 201 22 203 35 2 10 -47 15 -98 9z"/>
<path d="M5220 8888 c0 -18 47 -28 140 -28 186 0 591 -71 843 -146 26 -8 21
25 -5 36 -35 15 -250 66 -373 89 -132 25 -327 48 -487 57 -102 6 -118 5 -118
-8z"/>
<path d="M7575 8840 c-3 -5 27 -31 67 -57 40 -26 105 -71 144 -100 73 -54 94
-63 94 -39 0 34 -290 221 -305 196z"/>
<path d="M2615 8758 c-55 -39 -164 -123 -242 -185 -204 -162 -563 -503 -563
-533 0 -29 35 -1 196 158 213 212 373 348 586 501 141 102 172 132 135 131 -7
0 -57 -33 -112 -72z"/>
<path d="M3330 8455 c-10 -12 -10 -19 -2 -27 13 -13 42 6 42 28 0 19 -24 18
-40 -1z"/>
<path d="M3024 8278 c-417 -283 -651 -498 -918 -842 -58 -74 -74 -102 -66
-110 9 -8 19 -2 38 24 194 253 434 503 647 674 61 48 191 142 290 208 165 110
210 148 172 148 -7 0 -81 -46 -163 -102z"/>
<path d="M1561 7751 c-33 -42 -40 -71 -16 -71 20 0 75 78 68 96 -8 22 -19 17
-52 -25z"/>
<path d="M3064 7719 c-345 -40 -654 -381 -654 -721 0 -217 116 -502 412 -1018
254 -442 309 -535 323 -549 12 -12 17 -9 37 25 232 390 537 970 619 1176 81
204 104 391 66 538 -23 86 -85 211 -141 282 -151 190 -414 296 -662 267z m241
-124 c189 -50 327 -160 408 -327 50 -103 67 -168 67 -262 0 -149 -43 -280
-191 -576 -91 -183 -377 -725 -427 -810 -7 -11 -24 13 -68 93 -32 60 -126 226
-208 370 -276 487 -355 674 -364 867 -5 129 7 193 58 299 28 58 59 102 113
158 172 179 392 246 612 188z"/>
<path d="M3099 7320 c-71 -12 -133 -44 -183 -93 -170 -171 -119 -443 103 -545
118 -55 270 -26 368 70 95 93 126 251 72 368 -68 146 -210 225 -360 200z m176
-64 c179 -85 227 -319 96 -469 -41 -46 -124 -87 -193 -94 -172 -18 -323 122
-321 296 1 119 68 223 176 272 63 28 177 26 242 -5z"/>
<path d="M1291 7326 c-134 -227 -271 -499 -271 -538 0 -40 29 -14 55 50 44
104 167 346 234 457 55 92 64 115 41 115 -5 0 -32 -38 -59 -84z"/>
<path d="M1930 7165 c0 -17 5 -25 13 -22 6 2 12 12 12 22 0 10 -6 20 -12 23
-8 2 -13 -6 -13 -23z"/>
<path d="M1822 7008 c-20 -25 -112 -205 -170 -333 -195 -428 -297 -833 -333
-1318 -9 -125 -9 -164 1 -185 11 -25 13 -26 20 -7 4 11 10 85 13 165 22 507
169 1038 423 1528 41 79 74 148 74 153 0 13 -16 11 -28 -3z"/>
<path d="M937 6598 c-7 -25 -1 -38 17 -38 18 0 29 42 13 52 -19 12 -24 10 -30
-14z"/>
<path d="M877 6403 c-10 -18 -68 -258 -96 -398 -42 -206 -68 -422 -83 -666
-12 -208 -10 -239 15 -239 11 0 15 40 20 198 12 357 63 701 151 1014 13 48 21
89 18 92 -8 8 -20 7 -25 -1z"/>
<path d="M9462 5799 c17 -223 44 -465 52 -471 21 -14 26 5 21 70 -29 327 -46
454 -64 460 -11 4 -13 -8 -9 -59z"/>
<path d="M9512 5118 c2 -12 11 -24 21 -26 14 -3 18 1 15 20 -2 12 -11 24 -21
26 -14 3 -18 -1 -15 -20z"/>
<path d="M1324 4868 c17 -245 68 -539 132 -763 54 -187 64 -215 80 -215 20 0
18 16 -22 142 -78 248 -135 539 -156 794 -9 114 -15 144 -26 144 -12 0 -13
-16 -8 -102z"/>
<path d="M8856 4924 c-3 -26 -6 -74 -6 -108 0 -153 -56 -489 -125 -751 -28
-107 -41 -173 -35 -179 5 -5 12 -7 16 -4 11 11 84 292 114 438 51 249 83 637
54 647 -7 2 -14 -15 -18 -43z"/>
<path d="M9506 4858 c-2 -18 -12 -107 -21 -198 -9 -91 -28 -230 -41 -309 -18
-101 -22 -147 -14 -155 6 -6 13 -6 19 0 22 22 102 640 88 677 -10 27 -26 19
-31 -15z"/>
<path d="M710 4796 c0 -101 37 -371 81 -591 51 -254 56 -275 74 -275 21 0 19
19 -15 153 -47 186 -75 365 -108 696 -9 98 -32 110 -32 17z"/>
<path d="M1925 4666 c-90 -28 -149 -76 -186 -148 -21 -40 -21 -49 -20 -1389 0
-1327 1 -1349 20 -1387 22 -43 69 -88 110 -105 14 -5 100 -11 189 -11 l164 -1
23 -91 c31 -121 72 -200 149 -281 115 -123 250 -183 411 -185 280 -4 525 198
581 480 l17 82 1036 3 c1463 3 1559 3 1566 -5 4 -3 13 -39 21 -80 46 -229 211
-407 429 -463 127 -32 295 -10 426 56 132 66 245 223 287 396 l17 73 160 0
c261 0 338 35 385 175 8 22 28 56 46 75 48 53 56 75 57 159 0 85 -14 123 -61
163 l-29 24 -6 175 c-9 270 -44 367 -187 509 -98 98 -191 156 -375 236 -206
89 -253 125 -439 339 -651 750 -669 771 -769 846 -171 129 -394 217 -630 250
-66 9 -86 16 -125 46 -97 74 55 68 -1672 70 -1237 1 -1563 -1 -1595 -11z
m3037 -95 c92 -6 112 -11 145 -34 21 -15 47 -41 58 -59 19 -32 20 -56 23 -940
l2 -908 -1682 0 -1683 0 0 908 c1 848 2 909 19 944 9 20 26 44 36 53 50 45 13
44 1535 44 792 0 1488 -4 1547 -8z m443 -133 c209 -41 422 -148 554 -278 l76
-75 -399 -3 c-220 -1 -400 -1 -401 0 -1 2 -5 89 -8 194 l-5 192 42 -5 c22 -3
86 -14 141 -25z m722 -465 c32 -37 92 -104 134 -149 42 -45 157 -175 256 -290
99 -115 225 -252 279 -304 105 -101 165 -137 347 -215 48 -20 110 -49 138 -65
70 -38 180 -132 227 -193 34 -45 72 -108 72 -120 0 -9 -1624 -18 -1974 -11
l-376 7 0 704 0 703 419 0 420 0 58 -67z m-1589 -1693 l652 0 0 -120 0 -120
-965 0 c-960 0 -965 0 -977 20 -19 30 -115 103 -176 134 -123 62 -299 83 -426
50 -90 -23 -183 -76 -263 -149 l-71 -65 -240 0 -239 0 -8 120 c-3 65 -3 125 1
131 6 10 237 11 1033 6 564 -4 1320 -7 1679 -7z m3082 -64 l0 -65 -205 -3
c-191 -3 -206 -4 -225 -24 -26 -26 -37 -108 -20 -159 19 -58 47 -65 270 -65
l190 0 0 -28 c0 -38 -39 -111 -71 -135 -61 -44 -181 -39 -239 10 -19 16 -34
41 -41 69 l-11 44 -58 0 -57 0 -53 88 c-134 220 -315 322 -553 310 -144 -7
-247 -53 -388 -171 l-70 -59 -429 8 -430 7 0 118 0 119 1195 0 1195 0 0 -64z
m-4673 -97 c296 -101 415 -443 251 -717 -136 -226 -452 -291 -677 -141 -79 53
-125 107 -170 199 -35 74 -36 77 -36 200 0 123 0 126 37 202 110 231 359 338
595 257z m3743 20 c76 -17 172 -71 232 -130 108 -106 163 -272 138 -419 -32
-191 -173 -347 -355 -395 -174 -45 -370 13 -487 144 -56 63 -105 170 -119 259
-35 235 122 474 352 536 64 17 176 20 239 5z m995 -54 c19 -18 25 -35 25 -68
0 -71 -12 -79 -126 -84 -145 -6 -363 10 -375 28 -13 21 -11 123 3 137 9 9 74
12 230 12 l219 0 24 -25z"/>
<path d="M3328 4260 c-149 -17 -312 -66 -447 -134 -140 -71 -339 -231 -356
-287 -7 -19 0 -30 40 -66 26 -24 55 -43 64 -43 9 0 39 23 66 51 73 74 202 164
307 214 397 187 856 108 1193 -207 l75 -70 48 41 c66 54 75 67 67 91 -8 25
-192 177 -279 230 -230 140 -527 208 -778 180z m355 -46 c160 -31 343 -109
470 -202 85 -62 197 -162 197 -175 0 -14 -60 -77 -73 -77 -5 0 -36 25 -69 56
-113 104 -260 195 -391 244 -131 48 -175 55 -362 55 -166 0 -188 -2 -279 -28
-110 -30 -253 -95 -336 -150 -29 -20 -88 -67 -131 -106 -42 -39 -80 -71 -82
-71 -3 0 -24 16 -47 35 l-42 35 53 51 c290 282 698 407 1092 333z"/>
<path d="M3271 3935 c-146 -32 -270 -85 -376 -160 -62 -44 -145 -130 -145
-150 0 -13 110 -105 126 -105 5 0 26 16 45 36 84 89 228 171 358 206 99 26
260 28 351 4 130 -35 248 -105 361 -213 l45 -44 40 30 c21 16 53 41 69 54 l30
26 -55 56 c-111 114 -280 208 -449 251 -110 28 -292 32 -400 9z m419 -42 c116
-33 234 -94 330 -170 114 -92 118 -104 48 -154 l-28 -21 -64 59 c-86 78 -157
119 -279 161 -87 30 -119 36 -217 40 -217 9 -373 -52 -580 -227 l-35 -29 -44
37 c-27 23 -41 42 -37 50 19 31 190 156 261 191 198 97 440 121 645 63z"/>
<path d="M3359 3640 c-69 -11 -173 -49 -229 -85 -55 -35 -130 -104 -130 -120
0 -16 99 -105 117 -105 6 0 46 24 87 54 42 30 91 59 110 66 155 51 317 15 437
-97 54 -50 51 -51 128 19 61 55 60 58 -20 124 -140 115 -332 170 -500 144z
m204 -35 c97 -17 227 -79 285 -136 l43 -42 -38 -39 c-20 -21 -41 -38 -45 -38
-5 0 -32 19 -61 43 -177 144 -415 142 -582 -4 -22 -20 -41 -28 -52 -25 -27 9
-85 65 -78 75 3 5 33 31 67 56 151 114 276 143 461 110z"/>
<path d="M3393 3400 c-92 -19 -178 -86 -217 -169 -29 -64 -29 -178 1 -242 83
-183 320 -231 470 -95 23 21 52 62 68 97 24 54 27 71 23 134 -6 85 -41 159
-102 211 -60 52 -164 79 -243 64z m165 -76 c201 -100 160 -408 -62 -454 -225
-47 -382 210 -241 394 64 84 201 111 303 60z"/>
<path d="M3386 3295 c-57 -20 -87 -46 -113 -95 -104 -197 162 -385 311 -220
54 60 68 131 40 198 -41 99 -147 151 -238 117z m120 -56 c77 -37 105 -136 59
-206 -58 -88 -205 -82 -249 11 -37 78 -8 162 67 196 54 25 71 25 123 -1z"/>
<path d="M5405 3896 l-26 -26 3 -421 3 -421 28 -24 28 -24 610 0 610 0 24 25
c44 43 31 106 -44 220 -41 62 -115 154 -434 538 -136 162 -104 151 -469 155
l-307 4 -26 -26z m686 -61 c44 -43 464 -560 519 -640 41 -60 64 -130 49 -156
-9 -18 -30 -19 -612 -19 -456 0 -606 3 -615 12 -18 18 -17 819 1 837 9 9 81
11 314 9 l302 -3 42 -40z"/>
<path d="M5443 2828 c-17 -22 -21 -42 -12 -65 12 -34 73 -45 206 -39 128 6
157 18 151 65 -2 20 -12 28 -43 37 -56 17 -289 18 -302 2z"/>
<path d="M2660 1979 c-66 -27 -146 -103 -180 -174 -34 -69 -36 -207 -3 -277
30 -66 105 -143 172 -175 48 -24 68 -28 141 -28 74 0 93 4 144 29 72 35 126
88 163 158 25 47 28 64 28 148 0 84 -3 102 -28 151 -31 63 -93 126 -159 160
-64 34 -202 37 -278 8z m199 -95 c87 -16 161 -120 161 -224 -1 -198 -236 -303
-382 -172 -54 49 -78 102 -78 178 0 106 65 192 167 220 45 12 62 12 132 -2z"/>
<path d="M6497 2010 c-98 -25 -190 -102 -235 -198 -23 -49 -27 -70 -27 -147 0
-78 4 -97 28 -147 131 -266 495 -270 634 -7 25 49 28 64 28 154 0 114 -17 160
-86 239 -77 87 -229 134 -342 106z m164 -112 c121 -36 196 -183 155 -305 -81
-243 -427 -223 -477 28 -21 106 36 220 133 267 49 24 130 28 189 10z"/>
<path d="M9374 4017 c-8 -21 1 -47 16 -47 19 0 23 31 7 48 -15 14 -17 14 -23
-1z"/>
<path d="M9291 3748 c-26 -86 -124 -344 -167 -436 -46 -99 -51 -117 -34 -127
13 -8 60 94 156 336 78 199 97 269 72 269 -9 0 -20 -17 -27 -42z"/>
<path d="M904 3745 c-8 -19 12 -36 33 -28 19 7 12 37 -10 41 -9 2 -20 -4 -23
-13z"/>
<path d="M8616 3722 c-2 -4 -26 -57 -51 -117 -160 -374 -376 -724 -608 -984
-74 -82 -97 -121 -73 -121 15 0 117 112 213 235 140 179 273 388 376 590 73
143 174 378 169 393 -4 14 -18 16 -26 4z"/>
<path d="M986 3542 c-16 -27 208 -502 352 -743 85 -143 108 -172 117 -148 3 8
-38 86 -91 174 -104 174 -263 489 -316 627 -30 80 -50 109 -62 90z"/>
<path d="M8959 2983 c-18 -32 -68 -115 -112 -185 -71 -115 -84 -148 -57 -148
10 0 139 200 195 302 30 55 33 67 21 77 -11 10 -20 1 -47 -46z"/>
<path d="M8555 2370 c-18 -26 -25 -46 -20 -57 6 -15 11 -12 41 22 35 41 44 75
20 75 -7 0 -26 -18 -41 -40z"/>
<path d="M8250 2037 c-287 -297 -588 -529 -964 -742 -152 -86 -238 -128 -369
-181 -123 -50 -136 -59 -121 -74 22 -22 394 154 634 300 338 205 630 439 894
716 79 84 102 114 94 122 -7 7 -14 11 -17 11 -4 -1 -71 -69 -151 -152z"/>
<path d="M3997 1534 c-14 -14 -6 -23 36 -38 62 -23 193 -52 420 -91 235 -41
250 -42 245 -17 -3 14 -22 19 -102 29 -166 21 -505 90 -577 118 -8 3 -18 2
-22 -1z"/>
<path d="M5800 1459 c-127 -32 -525 -73 -757 -79 -7 0 -13 -7 -13 -17 0 -15
16 -16 166 -10 293 12 679 67 679 97 0 18 -28 21 -75 9z"/>
<path d="M4840 1376 c0 -15 37 -32 47 -22 3 3 3 12 0 21 -8 19 -47 20 -47 1z"/>
<path d="M3406 1054 c-7 -18 21 -32 186 -93 229 -84 571 -172 591 -152 14 14
-19 26 -157 57 -138 30 -342 94 -503 157 -87 35 -113 41 -117 31z"/>
<path d="M6560 976 c-7 -10 -8 -21 -3 -31 13 -22 47 3 37 28 -8 21 -18 22 -34
3z"/>
<path d="M6180 869 c-176 -44 -388 -81 -600 -106 -189 -22 -735 -24 -923 -4
-95 10 -131 11 -139 3 -7 -7 -9 -14 -6 -17 33 -33 861 -42 1108 -12 191 23
344 49 543 93 158 34 214 55 202 74 -8 13 -8 13 -185 -31z"/>
</g>
</svg>
