<?xml version="1.0" standalone="no"?>
<!DOCTYPE svg PUBLIC "-//W3C//DTD SVG 20010904//EN"
 "http://www.w3.org/TR/2001/REC-SVG-20010904/DTD/svg10.dtd">
<svg version="1.0" xmlns="http://www.w3.org/2000/svg"
 width="1024.000000pt" height="1024.000000pt" viewBox="0 0 1024.000000 1024.000000"
 preserveAspectRatio="xMidYMid meet">

<g transform="translate(0.000000,1024.000000) scale(0.100000,-0.100000)"
fill="#e0e0e0" stroke="none">
<path d="M4185 9668 c-50 -26 -55 -33 -55 -85 l0 -43 -82 -41 c-84 -42 -615
-325 -2031 -1083 -428 -229 -780 -416 -783 -416 -4 0 -19 11 -35 24 -15 13
-48 32 -73 41 -45 17 -45 17 -91 -9 l-45 -27 -2 -2267 -3 -2267 -240 -127
c-366 -193 -385 -207 -332 -240 12 -8 157 -88 322 -178 740 -402 2650 -1447
3477 -1901 499 -275 914 -499 922 -499 16 0 60 24 2121 1170 1447 805 1668
926 2135 1170 395 207 437 229 460 248 22 18 22 18 -112 94 -137 78 -804 443
-985 539 l-103 54 0 951 0 951 56 38 c95 66 89 31 92 520 2 236 0 453 -5 480
-7 43 -14 54 -46 74 -36 24 -37 26 -37 86 0 75 -16 100 -92 143 -168 94 -784
415 -813 423 -26 7 -60 4 -146 -16 -119 -27 -141 -39 -168 -95 -10 -19 -118
-334 -241 -700 l-223 -665 16 -55 c25 -85 67 -126 206 -199 l121 -65 0 -673 0
-674 -72 40 c-40 21 -165 87 -278 146 -113 60 -443 237 -735 393 -291 157
-572 307 -622 334 l-93 50 0 1601 c0 881 -3 1707 -7 1834 l-6 233 -64 35 c-35
19 -68 35 -73 35 -6 0 -39 -14 -74 -30 l-63 -30 -119 68 c-65 38 -218 123
-339 190 -121 67 -272 152 -335 190 l-115 69 -3 56 c-3 57 -4 58 -55 92 -60
40 -77 42 -132 13z m90 -30 l26 -12 -32 -17 c-25 -13 -39 -14 -56 -6 -28 12
-29 22 -5 36 23 14 36 13 67 -1z m53 -79 c3 -24 2 -24 -83 -24 -81 0 -85 1
-85 23 0 26 10 27 50 7 27 -14 32 -14 62 5 40 24 52 21 56 -11z m-27 -63 c19
-7 134 -69 255 -138 120 -69 314 -179 429 -243 116 -65 247 -142 293 -171 76
-50 82 -56 82 -88 0 -18 -6 -38 -12 -44 -7 -5 -152 -83 -323 -172 -170 -89
-638 -339 -1040 -555 -401 -215 -854 -456 -1005 -535 -151 -79 -331 -176 -400
-216 l-125 -72 -5 54 c-5 53 -6 54 -64 89 -32 19 -63 35 -69 35 -15 0 -120
-60 -129 -74 -4 -6 -8 -21 -8 -33 0 -28 -6 -28 -45 -5 -16 10 -158 85 -315
166 -157 82 -356 187 -443 234 l-158 86 3 60 3 61 315 167 c173 92 321 167
328 168 9 0 12 -53 12 -234 l0 -235 315 -158 315 -158 58 31 c31 18 171 91
311 163 140 73 267 141 283 152 l28 20 0 200 c0 109 4 199 9 199 4 0 83 -39
176 -86 195 -101 190 -100 321 -27 48 26 211 111 363 188 l276 140 -3 280 c-2
277 -2 280 -25 297 -51 40 -413 262 -427 262 -22 0 -789 -397 -784 -406 3 -4
79 -43 170 -87 l165 -80 132 73 c73 40 230 126 350 189 l219 117 79 -46 c43
-25 76 -50 73 -55 -3 -5 -42 -28 -87 -51 -45 -22 -202 -105 -348 -184 l-266
-144 -279 136 c-259 126 -277 137 -259 151 11 8 119 64 240 125 121 61 297
151 390 201 94 49 226 119 294 155 213 113 256 125 332 98z m-328 -284 c43
-26 89 -56 103 -67 l25 -20 -83 -41 -83 -40 -124 64 -123 64 88 49 c49 27 96
46 104 43 8 -3 50 -26 93 -52z m-214 -118 c137 -72 142 -77 99 -95 -18 -7 -94
-47 -168 -87 -74 -41 -171 -92 -214 -113 l-80 -39 -105 56 c-58 30 -112 61
-119 68 -11 11 22 32 191 119 112 58 219 115 238 126 19 12 38 21 43 21 5 0
57 -25 115 -56z m1706 -106 c25 -12 45 -25 45 -29 0 -4 -13 -10 -30 -14 -27
-6 -54 6 -100 42 -5 4 21 23 32 23 4 0 28 -10 53 -22z m-1166 -333 c0 -82 -3
-156 -7 -162 -4 -7 -102 -59 -217 -116 -116 -57 -269 -136 -342 -175 -72 -40
-134 -72 -137 -72 -3 0 -6 105 -6 233 l0 232 348 186 347 187 7 -82 c3 -44 6
-148 7 -231z m1113 276 c15 -15 17 -182 20 -2406 3 -2291 0 -2588 -25 -2308
-4 49 -6 673 -4 1388 1 715 0 1687 -3 2161 l-5 861 -961 -511 c-528 -281
-1079 -577 -1225 -657 -360 -200 -736 -399 -753 -399 -3 0 -6 9 -6 20 0 14 20
28 78 56 74 35 174 89 827 444 160 87 675 364 1145 615 470 251 860 462 867
467 7 5 17 7 23 3 6 -4 10 11 10 40 l0 47 -197 -103 c-284 -146 -350 -181
-828 -437 -841 -450 -1100 -589 -1540 -827 -295 -160 -374 -200 -382 -191 -16
15 36 52 179 128 559 296 867 460 1463 781 369 198 796 425 950 504 394 204
365 185 365 243 0 43 -4 51 -30 70 -16 12 -30 26 -30 31 0 14 41 1 62 -20z
m116 -2372 l-3 -2372 -24 -16 -24 -16 6 275 c4 151 7 1223 7 2381 0 1158 3
2109 7 2113 3 3 13 6 21 6 12 0 14 -311 10 -2371z m-66 -2395 c-4 -8 -9 408
-10 923 -1 516 -5 1583 -9 2371 -5 1223 -4 1435 8 1443 12 7 14 -333 17 -2357
1 -1301 -2 -2372 -6 -2380z m-2453 4479 c0 -106 -2 -193 -5 -193 -13 0 -424
204 -424 210 0 4 93 56 208 117 l207 111 6 -26 c4 -15 7 -114 8 -219z m241 57
c0 -43 -4 -52 -27 -67 -39 -24 -43 -32 -43 -80 0 -47 19 -71 82 -104 71 -36
108 -21 108 44 0 50 -12 70 -55 97 -34 21 -35 24 -35 81 0 41 4 59 13 59 6 0
66 -29 132 -64 l120 -63 3 -242 c1 -132 -1 -241 -5 -241 -21 1 -348 178 -355
193 -4 9 -12 25 -16 35 -5 9 -34 31 -65 47 l-57 30 0 213 0 212 100 -50 100
-50 0 -50z m2140 6 c0 -7 -60 -44 -132 -81 -169 -86 -395 -207 -1328 -710
-415 -225 -836 -450 -935 -502 -99 -52 -257 -137 -351 -189 -168 -92 -200
-106 -192 -82 4 11 466 263 878 480 63 33 160 86 215 118 55 31 172 96 260
142 408 218 1289 686 1370 729 50 26 115 61 145 78 62 35 70 37 70 17z m-2719
-133 c70 -36 127 -69 125 -72 -2 -3 -52 -31 -109 -61 l-106 -55 -142 71 -142
70 109 57 c60 30 115 56 123 56 7 1 71 -29 142 -66z m615 6 c54 -30 54 -31 54
-80 0 -27 -2 -49 -5 -49 -14 0 -114 50 -120 60 -8 12 3 100 12 100 3 0 30 -14
59 -31z m2094 -2012 l0 -2013 -57 -28 c-32 -15 -134 -70 -228 -121 -241 -132
-1128 -595 -1890 -987 -357 -184 -674 -350 -703 -368 -29 -18 -56 -30 -59 -27
-3 3 -2 217 2 474 l7 469 181 94 c99 52 302 161 450 243 148 81 271 147 273
147 2 0 4 -127 3 -282 l0 -283 -125 -60 c-69 -33 -130 -65 -136 -72 -14 -17
-23 -209 -11 -251 l8 -33 153 75 152 76 0 180 c0 99 2 180 4 180 2 0 53 -31
113 -69 96 -61 223 -131 238 -131 3 0 5 190 5 423 l0 423 38 18 c20 10 143 78
272 151 129 73 320 178 425 234 165 87 191 99 197 83 3 -9 7 -137 7 -284 l1
-266 -137 -72 c-76 -39 -144 -78 -152 -85 -15 -15 -40 -270 -28 -282 6 -6 283
136 329 168 l28 20 0 334 0 335 68 -44 c37 -24 154 -94 260 -155 106 -61 213
-125 238 -141 l44 -31 0 571 0 571 -22 -6 c-25 -8 -126 -60 -383 -197 -457
-244 -825 -439 -1040 -551 -450 -233 -1269 -672 -1388 -744 -43 -26 -62 -32
-70 -24 -13 13 -15 10 48 45 28 16 129 72 225 126 96 53 294 159 440 235 146
76 312 163 370 195 58 31 164 88 235 125 72 37 144 76 160 85 17 10 178 95
359 190 181 94 411 216 512 271 101 54 266 142 368 195 159 82 210 114 179
114 -9 0 -320 -162 -663 -345 -157 -83 -409 -216 -560 -295 -151 -79 -304
-160 -340 -180 -36 -21 -200 -108 -365 -195 -321 -168 -645 -341 -710 -378
-126 -73 -247 -137 -255 -137 -19 0 -10 19 18 38 46 32 1176 635 1912 1019
809 423 981 516 971 526 -6 6 -494 -247 -1445 -752 -790 -418 -1440 -761
-1445 -761 -5 0 -11 7 -14 15 -8 20 17 36 273 170 124 65 695 367 1270 670
575 304 1088 574 1140 600 52 26 123 63 158 83 l63 37 -2 636 -3 636 -45 -19
c-25 -10 -149 -75 -276 -142 -126 -68 -435 -231 -685 -361 -491 -257 -1016
-536 -1525 -810 -336 -181 -365 -195 -365 -173 0 7 35 31 78 53 97 51 436 234
692 375 247 136 471 254 877 463 177 92 440 230 585 308 144 78 346 184 448
235 196 98 229 118 218 129 -7 7 -328 -156 -568 -288 -80 -44 -361 -191 -625
-327 -560 -289 -821 -428 -1644 -876 -49 -27 -61 -29 -61 -11 0 6 39 32 88 57
93 49 389 208 780 419 133 72 396 210 585 307 365 188 390 201 767 402 135 72
346 182 468 245 134 68 219 118 212 122 -13 8 -168 -67 -465 -225 -104 -56
-406 -214 -670 -352 -668 -349 -1477 -777 -1621 -859 -67 -38 -126 -69 -133
-69 -6 0 -11 8 -11 18 0 29 196 136 1255 687 347 180 776 405 955 500 179 95
407 215 508 266 103 53 182 99 182 107 0 10 -7 12 -27 7 -15 -3 -349 -176
-743 -382 -393 -207 -861 -451 -1040 -543 -312 -160 -700 -367 -957 -512 -68
-37 -125 -68 -128 -68 -3 0 -5 210 -5 468 l0 467 193 97 c105 53 315 165 465
249 150 83 275 150 277 147 7 -6 10 -166 7 -364 l-2 -191 -127 -66 -128 -65
-8 -76 c-4 -42 -4 -98 1 -124 10 -60 16 -60 172 14 86 41 120 62 124 78 3 11
6 207 6 435 l0 413 -27 22 c-15 11 -46 33 -70 47 -50 29 -49 31 35 73 29 15
83 45 119 67 l66 41 27 -20 c14 -11 54 -34 88 -51 l62 -31 0 -410 c0 -226 -3
-410 -6 -410 -4 0 -63 32 -133 70 -70 39 -130 70 -134 70 -4 0 -7 -7 -7 -15 0
-17 49 -50 177 -118 l93 -48 72 39 c489 262 667 356 799 423 121 60 158 83
163 101 3 13 6 148 6 301 0 153 4 277 8 275 20 -8 517 -297 560 -326 l23 -15
-7 546 c-7 520 -6 548 11 567 10 11 20 20 22 20 1 0 3 -906 3 -2013z m-75
1871 c3 -51 5 -182 3 -292 l-3 -198 -66 79 c-36 43 -117 134 -180 203 -62 68
-109 125 -104 127 6 2 82 42 170 88 88 47 163 85 167 85 3 0 9 -42 13 -92z
m-2897 -7 c81 -39 219 -107 307 -153 l160 -83 0 -97 c0 -125 -18 -135 -25 -15
-4 76 -8 91 -27 106 -12 10 -148 81 -301 157 -154 76 -281 142 -281 147 -2 15
25 5 167 -62z m582 -17 c156 -76 155 -62 2 -145 l-93 -50 -127 66 c-70 37
-131 70 -135 74 -9 9 179 119 203 120 8 1 76 -29 150 -65z m-596 -41 l99 -50
-125 -66 c-69 -37 -133 -67 -142 -67 -9 0 -79 32 -157 70 l-140 71 133 68 133
69 50 -23 c27 -12 95 -44 149 -72z m2721 -263 c123 -138 195 -226 193 -237 -2
-11 -71 58 -210 213 -113 126 -204 232 -201 237 2 4 8 7 13 7 4 0 97 -99 205
-220z m-1965 -28 l0 -217 -203 -104 c-111 -58 -242 -126 -291 -153 -49 -26
-90 -47 -92 -46 -1 2 -4 101 -6 221 l-3 218 138 70 137 70 0 -81 c0 -65 3 -82
16 -87 37 -14 49 10 54 107 6 106 -5 93 144 176 50 28 94 49 99 47 4 -2 7
-102 7 -221z m-497 157 c67 -34 126 -65 130 -69 5 -4 -50 -37 -122 -74 l-131
-66 -63 32 c-34 17 -95 46 -136 64 l-74 32 134 70 c74 38 136 70 137 71 2 0
59 -26 125 -60z m2405 -149 c69 -80 154 -175 189 -212 37 -39 63 -75 63 -88 0
-11 -4 -18 -10 -15 -25 15 -440 505 -440 519 0 16 64 -50 198 -204z m-2997
134 l129 -65 0 -182 c0 -169 7 -223 27 -204 4 5 9 87 11 183 3 96 6 174 8 174
2 0 67 -32 144 -70 l140 -70 0 -230 0 -229 -30 10 c-16 6 -152 72 -302 147
l-273 137 -3 233 c-2 162 1 232 9 232 6 0 69 -30 140 -66z m2876 -90 c65 -75
175 -204 246 -287 l127 -150 0 -89 0 -89 -27 16 c-16 9 -138 80 -273 158
l-245 142 -3 125 c-3 141 -3 140 -85 185 l-55 29 86 48 c48 25 92 47 99 47 6
1 65 -60 130 -135z m-284 -25 l70 -41 -132 -70 -131 -69 -70 37 c-39 21 -70
41 -70 45 0 4 12 12 28 18 15 6 70 36 122 66 52 30 99 55 104 55 6 0 41 -19
79 -41z m-3532 -83 l34 -14 -37 -18 c-36 -17 -38 -17 -58 1 -20 18 -20 20 -4
32 22 16 24 16 65 -1z m3599 -409 l0 -402 -145 -73 -145 -72 0 104 0 104 119
61 c135 70 159 86 148 97 -8 8 -179 -72 -254 -118 l-43 -28 0 -117 0 -118 -53
-28 c-28 -16 -135 -73 -238 -127 -102 -54 -216 -117 -255 -140 -38 -23 -72
-44 -76 -47 -5 -2 -8 175 -8 395 l0 398 93 49 c50 26 184 100 297 163 284 160
544 302 553 302 4 0 7 -181 7 -403z m-3652 -1635 c1 -1087 5 -2173 8 -2412 4
-257 2 -445 -3 -459 -9 -22 -10 -22 -26 -6 -16 15 -17 181 -17 2452 0 2373 0
2436 19 2419 18 -16 18 -81 19 -1994z m108 -2914 c-6 -4 -13 -2 -17 4 -4 6 -7
533 -8 1172 -1 638 -4 1519 -6 1956 -3 437 -5 1005 -5 1263 0 325 -3 467 -11
467 -7 0 -9 -320 -5 -1092 7 -1446 9 -3758 3 -3764 -2 -2 -11 -2 -19 1 -14 5
-16 277 -17 2439 l-2 2434 43 20 43 20 6 -2457 c4 -1736 3 -2458 -5 -2463z
m3152 4890 c27 -18 57 -38 66 -43 15 -8 -7 -23 -120 -85 -76 -41 -144 -76
-152 -78 -13 -4 -142 67 -142 78 0 3 30 21 68 39 37 18 101 52 142 76 41 24
78 44 81 44 4 1 29 -14 57 -31z m-355 -175 c18 -9 49 -27 71 -40 l39 -25 -69
-37 c-38 -20 -112 -60 -164 -88 l-95 -51 -78 43 -78 42 158 86 c87 47 164 86
171 87 7 0 27 -7 45 -17z m-2338 -228 c149 -78 331 -174 405 -213 77 -39 136
-77 138 -86 2 -9 -2 -16 -9 -16 -13 0 -485 241 -571 291 -29 17 -127 69 -218
117 -91 47 -167 87 -169 88 -2 2 -1 10 3 19 7 18 17 13 421 -200z m-45 -98
c201 -106 401 -210 445 -230 83 -40 145 -81 145 -98 0 -5 -5 -9 -11 -9 -7 0
-120 58 -253 129 -133 70 -346 183 -473 250 -137 72 -233 128 -233 137 0 8 3
14 8 14 4 0 171 -87 372 -193z m-41 -50 l64 -35 -50 -26 c-88 -44 -83 -23 -83
-326 l0 -268 -122 -63 c-67 -35 -125 -65 -130 -67 -10 -4 -11 545 -1 781 l6
166 126 -64 c69 -35 155 -79 190 -98z m6674 -189 c241 -127 437 -237 437 -244
0 -12 -80 -44 -117 -46 -10 -1 -40 14 -68 34 -47 33 -272 158 -663 368 -95 51
-171 94 -169 96 6 7 82 22 113 23 22 1 152 -64 467 -231z m-4905 178 c34 -21
61 -40 60 -41 -2 -1 -52 -30 -111 -64 l-108 -62 -64 36 c-36 20 -65 39 -65 43
0 8 212 132 220 129 3 -1 34 -20 68 -41z m-934 -36 c5 -5 -9 -14 -33 -21 -36
-11 -47 -10 -79 5 l-37 18 35 18 c32 16 38 17 70 4 19 -8 39 -19 44 -24z
m5376 -51 c91 -50 255 -138 365 -196 110 -58 235 -128 277 -155 72 -46 77 -52
72 -76 -4 -15 -51 -160 -106 -322 -55 -162 -152 -459 -217 -660 -65 -201 -127
-386 -139 -412 -35 -79 -44 -76 -402 126 -129 74 -273 154 -320 179 -164 88
-200 127 -200 219 0 49 431 1341 457 1371 9 9 23 17 32 17 9 0 90 -41 181 -91z
m-5890 -69 c102 -56 213 -115 248 -133 l62 -31 0 -59 0 -59 -52 30 c-29 16
-171 91 -316 167 l-263 137 48 23 c26 13 57 24 68 24 11 1 103 -44 205 -99z
m405 -2360 c0 -1326 -2 -2410 -5 -2410 -3 0 -16 7 -28 16 l-22 15 0 2422 0
2422 28 -28 27 -27 0 -2410z m128 44 c-2 -2395 -3 -2434 -33 -2434 -4 0 -8
1083 -8 2407 0 2211 2 2409 17 2420 9 7 18 13 21 13 3 0 4 -1083 3 -2406z
m-68 -35 c0 -2285 -1 -2411 -17 -2420 -17 -10 -18 108 -18 2405 0 1922 3 2415
13 2419 6 3 14 6 17 6 3 1 5 -1084 5 -2410z m720 2364 c30 -21 53 -42 51 -47
-1 -5 -54 -37 -118 -70 -129 -68 -124 -68 -202 -2 l-39 33 114 61 c63 33 120
61 127 61 7 1 37 -16 67 -36z m-998 -272 l123 -66 0 -368 0 -369 -292 150
c-161 82 -309 159 -330 171 l-36 22 -4 362 c-2 199 -2 366 0 370 4 8 296 -140
539 -272z m721 124 c28 -20 52 -39 52 -43 0 -11 -325 -184 -356 -190 -24 -4
-24 -3 -24 70 l0 73 123 62 c67 34 129 62 137 62 8 1 39 -15 68 -34z m2532
-265 c0 -165 -2 -300 -4 -300 -2 0 -55 57 -117 128 -62 70 -144 160 -183 199
-38 40 -67 75 -65 76 2 2 60 34 129 72 69 37 148 81 175 96 28 15 53 28 58 28
4 1 7 -134 7 -299z m-373 43 c21 -21 114 -120 206 -221 118 -128 167 -189 165
-202 -2 -15 -33 13 -133 121 -203 219 -295 322 -295 331 0 17 21 6 57 -29z
m3733 -11 c0 -31 5 -41 25 -52 31 -17 32 -26 2 -34 -27 -6 -83 -60 -103 -98
-15 -29 -258 -715 -270 -761 -4 -18 0 -36 11 -53 15 -23 22 -26 59 -21 23 3
109 40 199 85 l157 80 0 -78 c0 -96 25 -72 -315 -300 -277 -185 -395 -253
-395 -226 0 3 18 58 39 123 62 186 355 1085 396 1215 l37 118 61 19 c91 29 97
28 97 -17z m-3668 -139 c224 -241 342 -383 319 -383 -6 0 -65 62 -133 137 -68
75 -176 195 -240 265 -109 118 -131 148 -110 148 5 0 79 -75 164 -167z m19
-119 c327 -360 290 -306 287 -418 l-3 -95 -272 152 -272 152 -1 116 0 116 -76
62 c-42 35 -73 66 -69 69 15 16 151 90 166 91 9 1 114 -107 240 -245z m3729
-209 c0 -388 10 -345 -98 -409 -90 -54 -241 -118 -271 -114 -14 2 -27 10 -29
19 -4 20 217 659 261 753 22 50 43 77 71 98 66 47 66 46 66 -347z m-4133 296
c97 -77 98 -70 -24 -133 -60 -31 -117 -59 -129 -62 -14 -4 -45 9 -102 43 l-82
49 132 70 c73 39 138 71 145 71 6 1 33 -16 60 -38z m-1229 -88 l-3 -98 -109
-53 c-60 -29 -112 -50 -115 -46 -3 3 -7 45 -9 92 l-3 87 108 57 c59 31 114 57
121 57 10 1 12 -22 10 -96z m-1923 68 c-27 -26 -234 -135 -242 -127 -4 4 0 13
8 20 25 25 213 126 234 126 19 0 19 0 0 -19z m138 -247 c73 -36 232 -118 355
-182 l222 -116 0 -113 0 -114 -42 24 c-178 100 -740 397 -841 445 l-78 36 3
44 3 44 120 64 120 63 3 -64 3 -65 132 -66z m3117 -82 c0 -132 -3 -314 -7
-405 l-6 -167 -128 -70 c-71 -38 -131 -70 -134 -70 -3 0 -5 45 -5 99 l0 100
125 66 c97 52 125 71 125 87 0 26 -3 25 -163 -64 l-129 -70 4 -128 c2 -71 6
-132 11 -136 4 -4 81 30 171 75 l163 84 7 66 c3 36 6 173 6 304 0 130 3 237 8
237 4 0 127 -69 272 -152 l265 -153 3 -57 3 -56 -163 -85 c-90 -46 -365 -189
-613 -317 -399 -207 -942 -494 -1275 -675 -63 -34 -225 -120 -360 -190 -135
-70 -289 -152 -343 -181 -53 -30 -99 -54 -102 -54 -3 0 -5 22 -5 49 l0 49 190
103 c105 56 190 108 190 115 0 17 -26 8 -132 -47 -42 -21 -79 -39 -82 -39 -3
0 -6 42 -6 93 0 111 4 117 120 170 42 19 81 42 89 51 25 30 -21 18 -133 -34
l-106 -50 0 -128 0 -128 -65 -32 -65 -32 2 397 3 398 450 238 c248 132 456
241 463 244 9 4 12 -54 12 -273 l0 -279 -124 -64 -123 -63 -7 -61 c-3 -33 -6
-90 -6 -128 l0 -67 -120 -62 -121 -61 3 103 3 103 81 45 c104 58 134 78 134
90 0 14 -79 -17 -170 -68 l-85 -47 0 -133 c0 -91 3 -132 11 -132 25 0 273 130
287 150 8 12 20 19 25 16 13 -8 204 89 228 115 16 18 20 43 24 185 l5 163 80
-51 c99 -63 246 -148 257 -148 4 0 8 202 8 450 l0 450 73 36 c39 20 169 89
287 154 235 130 571 308 583 309 4 1 7 -106 7 -237z m-393 172 c40 -25 73 -47
73 -49 0 -2 -66 -38 -146 -80 l-146 -77 -71 49 c-38 26 -71 53 -71 58 -1 10
252 144 273 145 8 0 47 -21 88 -46z m-333 -176 l76 -52 -77 -43 c-43 -23 -115
-62 -161 -85 l-82 -43 -86 45 c-47 25 -87 47 -89 50 -4 7 315 179 331 180 7 0
46 -23 88 -52z m-2504 -110 c118 -63 313 -166 434 -229 223 -117 277 -152 258
-171 -7 -7 -57 16 -158 70 -82 44 -266 141 -409 217 -388 204 -405 214 -405
243 l0 24 33 -20 c17 -11 129 -71 247 -134z m-53 -47 c489 -258 747 -399 751
-409 6 -18 -52 9 -368 176 -396 208 -610 325 -610 335 0 15 26 4 227 -102z
m-117 9 c75 -44 498 -269 710 -378 97 -50 146 -81 148 -93 3 -17 1 -18 -30 -5
-18 8 -105 54 -193 101 -88 48 -241 130 -340 183 -299 159 -400 218 -403 236
-4 20 -2 19 108 -44z m2305 -58 l100 -57 3 -418 c1 -232 -2 -417 -6 -415 -5 1
-74 43 -154 92 l-145 89 -7 60 c-3 33 -6 141 -6 241 l0 181 -35 28 c-35 28
-36 30 -33 95 l3 66 80 47 c44 26 85 48 90 48 6 0 55 -25 110 -57z m-2093
-130 c109 -59 198 -110 198 -113 0 -4 -52 -32 -116 -64 -84 -42 -118 -64 -125
-82 -5 -13 -9 -104 -9 -202 l0 -178 -82 -54 c-91 -59 -102 -69 -88 -83 6 -6
40 11 87 42 l78 52 3 -31 c2 -18 0 -35 -5 -40 -4 -4 -61 -32 -125 -63 l-118
-55 0 520 0 521 53 -31 c28 -17 141 -80 249 -139z m1776 25 c2 -20 1 -37 -2
-37 -11 0 -76 34 -76 40 0 9 54 40 65 36 6 -1 11 -19 13 -39z m-33 -72 c44
-25 84 -50 88 -54 5 -5 -48 -39 -118 -75 l-126 -67 -90 57 -90 57 118 63 c65
35 123 64 128 64 6 0 46 -20 90 -45z m-1285 -196 l190 -101 0 -119 0 -119
-297 149 c-164 82 -306 156 -316 163 -17 12 -7 19 94 71 62 31 118 57 125 57
8 0 99 -46 204 -101z m1004 40 c42 -28 76 -53 76 -57 0 -4 -56 -36 -123 -71
l-123 -65 -93 53 c-51 29 -90 56 -87 59 15 14 243 131 258 132 9 0 50 -23 92
-51z m-814 -781 c0 -226 -4 -358 -10 -358 -11 0 -555 275 -612 309 l-38 23 0
358 0 359 330 -166 330 -166 0 -359z m511 620 c49 -29 86 -55 81 -59 -4 -4
-78 -44 -164 -89 l-158 -82 0 106 0 106 68 34 c37 19 71 35 75 36 5 0 49 -23
98 -52z m2619 -178 c0 -207 -1 -220 -17 -211 -167 89 -377 220 -368 229 13 13
360 201 373 201 9 1 12 -49 12 -219z m3290 -948 l0 -1168 -126 -67 c-69 -38
-129 -65 -133 -62 -3 4 -7 521 -9 1149 l-2 1143 127 86 c71 47 131 86 136 86
4 1 7 -525 7 -1167z m-946 1011 c143 -85 260 -137 348 -153 57 -11 113 0 164
31 17 10 33 19 36 19 5 0 -2 -1553 -7 -1558 -2 -2 -177 85 -389 193 l-386 197
0 704 0 705 48 -28 c26 -15 109 -65 186 -110z m646 -976 c0 -514 3 -1028 7
-1144 l6 -209 -32 -23 c-18 -13 -35 -21 -38 -17 -3 3 -5 520 -4 1148 l2 1143
20 18 c12 9 25 17 30 17 5 0 9 -395 9 -933z m-3329 850 c46 -29 141 -86 212
-126 l127 -73 0 -259 c0 -143 -3 -259 -6 -259 -10 0 -253 139 -414 237 l-145
88 -7 75 c-3 41 -10 76 -15 77 -4 2 -48 29 -96 62 l-88 59 138 72 c76 40 147
79 158 86 31 22 45 18 136 -39z m1399 -557 c421 -224 818 -437 883 -471 l117
-63 0 -207 0 -207 -32 -20 c-18 -11 -94 -50 -168 -88 -158 -81 -212 -129 -266
-238 -60 -122 -58 -240 4 -298 37 -34 844 -483 1072 -596 83 -41 102 -47 155
-46 81 1 130 23 467 206 155 85 350 190 432 234 159 85 231 139 252 191 18 43
18 115 -1 160 -8 19 -15 38 -15 40 0 7 352 -177 459 -239 l93 -55 -168 -88
c-495 -257 -1025 -547 -2689 -1469 l-1830 -1014 -75 38 c-41 21 -145 77 -230
125 -85 48 -299 166 -475 262 -2515 1373 -3923 2148 -3919 2155 3 5 36 24 72
42 37 19 157 84 266 145 110 61 203 111 208 111 4 0 8 -81 8 -179 l0 -180 27
-19 c16 -11 52 -31 81 -46 l53 -27 42 23 42 23 3 97 3 97 62 -36 c34 -19 197
-107 362 -195 165 -88 348 -187 407 -220 l106 -60 4 -128 c3 -118 5 -130 26
-153 13 -14 36 -27 52 -31 38 -7 117 17 155 48 l30 24 3 139 4 139 267 139
c146 76 394 207 551 290 157 84 422 223 590 310 505 262 1085 567 1260 664 90
50 168 91 172 91 5 0 8 -31 8 -69 l0 -68 57 -31 57 -30 78 39 78 39 0 561 c0
530 1 561 18 554 9 -3 361 -190 782 -415z m-2992 286 l-3 -81 -40 -18 c-22
-11 -70 -36 -107 -57 -79 -45 -78 -46 -78 81 l0 89 108 54 c126 63 125 64 120
-68z m1203 77 c83 -55 89 -45 -79 -134 l-112 -61 -78 42 c-42 23 -81 45 -85
49 -8 8 246 150 271 150 7 1 44 -20 83 -46z m-3101 -6 c0 -12 -97 -71 -208
-127 l-44 -21 4 22 c2 18 28 35 118 80 126 64 130 65 130 46z m38 -251 c21
-13 178 -94 350 -180 l312 -157 0 -94 0 -94 -67 38 c-134 75 -551 300 -720
387 l-173 89 0 36 0 36 128 64 127 64 3 -83 3 -82 37 -24z m2690 116 c15 -11
51 -32 80 -47 29 -16 49 -32 45 -36 -15 -14 -251 -139 -263 -139 -7 0 -51 21
-98 46 l-84 46 138 74 c77 40 143 73 147 73 5 1 21 -7 35 -17z m-262 -203 c41
-23 74 -46 74 -50 0 -4 -63 -43 -139 -87 l-139 -80 -90 52 c-49 28 -90 55 -91
60 -4 14 271 157 292 152 10 -3 52 -24 93 -47z m-2491 -84 c94 -51 278 -150
410 -220 268 -143 315 -172 315 -191 0 -8 -3 -14 -7 -14 -11 0 -356 182 -658
347 -237 130 -291 162 -293 181 -4 28 -24 37 233 -103z m137 -147 c194 -105
405 -219 468 -253 68 -37 116 -70 118 -80 4 -18 -196 81 -403 200 -49 28 -189
105 -310 170 -121 65 -226 122 -232 128 -15 11 -17 27 -3 27 5 0 169 -86 362
-192z m-162 29 c80 -44 204 -111 275 -149 293 -158 475 -261 475 -269 0 -12
-33 -12 -45 0 -6 5 -163 92 -350 194 -417 228 -557 309 -563 326 -5 15 1 12
208 -102z m2187 12 l103 -61 0 -389 c0 -214 -3 -389 -7 -389 -5 0 -75 42 -157
93 l-150 94 -2 232 c-2 267 3 253 -106 311 l-61 33 129 67 c71 37 133 68 138
69 5 0 56 -26 113 -60z m-2266 -35 c63 -37 150 -84 194 -106 141 -71 139 -63
32 -117 l-92 -47 -3 -223 -2 -224 -63 -61 c-35 -34 -91 -92 -125 -131 l-61
-70 -1 523 c0 287 2 522 4 522 2 0 55 -30 117 -66z m1991 -155 c-4 -3 -54 -31
-112 -62 l-105 -56 -69 37 c-37 20 -68 42 -67 47 0 6 45 35 98 66 l98 57 82
-41 c46 -23 79 -44 75 -48z m1358 -68 l0 -99 -107 -57 c-60 -32 -120 -66 -135
-76 -14 -11 -29 -19 -32 -19 -8 0 -6 88 2 159 l7 54 130 68 c72 38 131 69 133
69 1 0 2 -45 2 -99z m680 -84 c0 -96 -3 -177 -7 -180 -3 -4 -12 -2 -20 4 -16
14 -18 111 -2 140 5 11 9 26 7 34 -2 11 -27 1 -93 -36 -49 -28 -443 -236 -875
-461 -432 -226 -981 -514 -1220 -641 -529 -280 -715 -377 -724 -377 -29 0 22
33 187 121 105 56 282 150 392 209 340 182 813 429 975 510 85 43 202 103 258
134 57 31 323 172 590 312 268 141 491 260 496 265 5 5 7 12 3 15 -3 3 -95
-41 -204 -99 -109 -57 -274 -144 -368 -192 -93 -48 -213 -112 -265 -140 -84
-47 -439 -231 -845 -440 -188 -96 -830 -436 -925 -489 -167 -94 -292 -158
-298 -151 -3 3 -2 13 3 21 8 12 847 454 1620 854 534 275 1257 659 1274 676 8
7 12 16 9 20 -6 5 -139 -63 -423 -218 -112 -61 -1106 -580 -1625 -848 -173
-89 -427 -222 -565 -295 -137 -73 -260 -136 -273 -140 -21 -6 -23 -4 -20 16 2
18 27 35 113 79 61 30 274 141 475 246 201 105 529 276 730 379 416 214 1146
596 1420 744 102 54 188 100 193 100 4 1 7 -77 7 -172z m-3500 16 c58 -33 149
-84 203 -113 l97 -54 0 -73 0 -74 -227 117 c-279 143 -393 204 -393 209 0 3
35 22 78 44 77 39 77 39 107 21 17 -9 77 -44 135 -77z m1134 38 c49 -28 64
-41 55 -47 -8 -5 -68 -39 -134 -76 l-120 -66 -70 37 c-67 37 -91 60 -63 62 7
0 63 29 123 64 61 34 117 63 125 64 8 0 46 -17 84 -38z m-1159 -228 l325 -167
0 -368 c0 -202 -3 -368 -6 -368 -3 0 -72 35 -152 79 -81 43 -227 120 -324 171
l-178 92 0 364 c0 200 2 364 5 364 3 0 151 -75 330 -167z m848 55 c38 -22 67
-41 65 -43 -9 -8 -312 -164 -314 -162 -1 1 -4 36 -5 77 l-2 75 79 51 c43 28
86 49 94 46 8 -3 46 -23 83 -44z m5195 -228 l297 -157 3 -337 c1 -185 -1 -336
-5 -336 -13 0 -646 339 -758 407 -18 11 -20 26 -24 194 -2 100 0 246 4 324 l7
143 89 -41 c49 -22 223 -111 387 -197z m-4538 -244 c0 -91 -2 -105 -17 -110
-10 -3 -63 -31 -118 -61 -54 -30 -100 -55 -102 -55 -2 0 -3 47 -3 105 l0 105
118 59 c64 33 118 60 120 60 1 1 2 -46 2 -103z m4024 78 c4 -10 4 -56 0 -104
-11 -144 -8 -151 94 -211 119 -71 440 -244 593 -320 l126 -62 -35 -76 c-46
-98 -50 -175 -13 -215 33 -35 82 -47 143 -36 57 11 108 36 363 177 99 55 238
131 309 168 71 38 144 81 162 97 37 33 52 81 33 104 -11 14 -14 10 -24 -27 -8
-34 -19 -49 -50 -70 -50 -33 -648 -362 -730 -400 -83 -40 -136 -39 -177 2 -28
28 -30 34 -25 79 9 75 44 146 94 190 24 21 117 76 206 122 89 46 170 91 179
101 16 15 18 40 18 222 0 113 2 205 5 205 3 0 114 -60 247 -132 268 -147 340
-203 353 -272 17 -89 -27 -151 -148 -213 -40 -19 -220 -117 -402 -216 -423
-231 -478 -257 -552 -264 -80 -7 -112 7 -503 222 -179 98 -406 223 -505 277
-216 118 -235 136 -235 216 1 102 66 227 149 285 42 30 298 166 312 167 4 0
10 -7 13 -16z m-5904 -4 c12 -7 12 -12 -3 -28 -24 -26 -136 -86 -145 -77 -9 8
102 115 120 115 7 0 20 -4 28 -10z m43 -259 c23 -15 98 -56 167 -91 69 -34
207 -105 308 -158 l182 -96 0 -112 0 -112 -358 193 c-196 106 -405 219 -462
252 -58 32 -113 62 -122 66 -14 5 -18 18 -18 57 l0 50 128 64 127 64 3 -74 3
-74 42 -29z m102 -308 c187 -102 378 -205 425 -230 47 -26 97 -55 113 -65 27
-19 37 -48 16 -48 -6 0 -194 100 -417 222 -224 122 -437 238 -474 258 -53 27
-68 40 -68 58 0 27 -47 50 405 -195z m-347 114 c20 -13 231 -129 467 -257 237
-128 434 -236 439 -240 4 -5 7 -13 5 -19 -2 -5 -96 40 -209 100 -212 114 -588
317 -697 376 -35 19 -63 41 -63 48 0 21 15 19 58 -8z m-11 -56 c46 -28 371
-204 735 -398 98 -52 180 -98 183 -103 16 -27 -29 -8 -190 79 -793 427 -785
423 -785 442 0 14 5 12 57 -20z"/>
<path d="M2980 6550 c-52 -27 -103 -59 -112 -71 -15 -17 -18 -41 -18 -135 0
-62 4 -115 9 -118 11 -7 261 122 261 135 0 14 -30 4 -139 -47 -51 -24 -95 -44
-97 -44 -2 0 -4 42 -4 94 l0 95 93 50 c96 53 127 74 127 85 0 14 -29 3 -120
-44z"/>
<path d="M2683 6398 l-113 -61 0 -112 c0 -88 -3 -115 -15 -125 -19 -16 -19
-30 -1 -30 22 0 276 129 276 140 0 19 -31 10 -131 -41 -56 -27 -102 -49 -104
-47 -1 2 0 46 2 98 l6 96 65 34 c95 51 152 88 152 100 0 18 -23 9 -137 -52z"/>
<path d="M4030 4236 l-155 -82 -8 -69 c-9 -79 -6 -210 6 -221 4 -5 82 29 172
74 l165 82 0 139 c0 99 -4 141 -12 149 -9 7 -57 -14 -168 -72z m140 -83 l0
-108 -123 -65 c-67 -36 -128 -66 -134 -68 -10 -3 -13 24 -13 107 l0 111 128
64 c70 36 130 65 135 65 4 1 7 -47 7 -106z"/>
<path d="M2746 3570 c-66 -32 -125 -65 -132 -72 -15 -16 -30 -190 -20 -242 5
-25 12 -36 24 -36 9 0 78 33 152 74 l135 73 3 132 c3 131 3 131 -20 130 -13 0
-77 -27 -142 -59z m132 -70 c-1 -107 -2 -109 -118 -172 -58 -32 -111 -58 -118
-58 -10 0 -12 24 -10 103 l3 102 115 56 c130 63 129 63 128 -31z"/>
<path d="M4310 7251 c-25 -9 -75 -34 -112 -55 l-68 -38 0 -109 c0 -71 4 -108
10 -104 6 3 10 48 10 98 l0 92 83 44 c125 66 169 107 77 72z"/>
<path d="M3990 7086 l-115 -64 -3 -93 c-3 -100 5 -143 18 -99 5 14 9 59 9 100
l1 75 101 55 c91 49 120 72 107 85 -2 2 -55 -24 -118 -59z"/>
<path d="M7586 7257 c-8 -12 -35 -87 -60 -167 -25 -80 -115 -347 -199 -595
-85 -247 -157 -466 -161 -487 -8 -43 -31 -26 304 -220 290 -168 422 -238 447
-238 34 0 49 29 96 180 24 80 107 339 182 575 170 532 173 540 159 563 -6 9
-85 57 -175 106 -90 49 -236 128 -324 177 -88 48 -181 97 -208 108 l-47 20
-14 -22z m200 -115 c87 -49 233 -128 324 -176 91 -48 176 -95 189 -105 l24
-18 -28 -82 c-14 -44 -28 -81 -30 -81 -2 0 -36 19 -77 43 -40 24 -152 85 -248
136 -159 85 -370 200 -379 207 -6 5 50 164 58 164 4 0 79 -40 167 -88z m108
-289 c377 -201 366 -194 366 -208 0 -23 -286 -885 -294 -885 -5 0 -47 22 -95
49 -47 27 -205 113 -351 191 -146 78 -267 143 -269 145 -6 7 294 885 303 885
6 0 159 -79 340 -177z m-445 -851 c108 -60 259 -142 335 -182 191 -102 182
-93 162 -164 -9 -31 -23 -59 -30 -62 -7 -3 -118 55 -247 129 -129 73 -287 162
-351 197 -65 36 -118 68 -118 73 0 26 33 117 42 117 6 0 99 -49 207 -108z"/>
<path d="M7557 6648 c-30 -84 -69 -190 -86 -235 -17 -45 -26 -85 -22 -88 5 -3
27 41 49 97 74 188 132 349 132 363 0 42 -23 0 -73 -137z"/>
<path d="M7649 6753 c-36 -91 -138 -383 -144 -410 -10 -49 3 -40 29 20 34 76
117 302 131 358 14 54 2 78 -16 32z"/>
<path d="M7700 6731 c0 -6 -29 -90 -65 -187 -72 -194 -89 -268 -61 -263 11 3
32 42 60 109 24 58 65 156 91 218 26 62 45 115 43 117 -11 10 -68 15 -68 6z"/>
<path d="M7769 6658 c-12 -24 -32 -72 -44 -108 -13 -36 -42 -112 -64 -169 -23
-57 -41 -116 -39 -130 2 -18 29 38 86 180 78 197 102 269 88 269 -3 0 -15 -19
-27 -42z"/>
<path d="M7810 6528 c-29 -79 -68 -175 -87 -215 -39 -81 -38 -109 8 -125 16
-5 29 -16 29 -24 0 -33 20 -8 55 69 67 147 145 345 145 369 -1 20 -3 18 -19
-12 -10 -19 -49 -107 -86 -195 -58 -139 -85 -194 -85 -173 0 3 26 68 59 144
80 191 102 252 92 258 -19 12 -47 -43 -111 -219 -53 -145 -73 -190 -92 -201
-7 -5 -9 -2 -5 7 37 84 132 328 147 378 22 71 24 81 11 81 -4 0 -32 -64 -61
-142z"/>
<path d="M7995 6571 c-3 -6 -34 -86 -69 -178 -35 -92 -73 -190 -85 -217 -20
-46 -21 -72 -2 -50 12 14 158 385 166 422 6 31 2 42 -10 23z"/>
<path d="M8032 6522 c-12 -26 -42 -102 -66 -169 -25 -66 -56 -148 -70 -182
-28 -66 -32 -85 -15 -79 16 5 186 464 176 475 -2 1 -13 -18 -25 -45z"/>
<path d="M8067 6507 c-3 -18 -34 -111 -70 -207 -67 -183 -84 -240 -70 -240 8
0 173 445 173 468 0 27 -28 10 -33 -21z"/>
<path d="M4030 5681 l-145 -78 -7 -74 c-6 -71 0 -209 9 -209 3 0 77 37 164 81
l160 82 -3 136 c-3 111 -6 136 -18 138 -8 2 -80 -32 -160 -76z m146 -166 c-2
-6 -63 -42 -135 -79 l-132 -68 3 109 3 108 130 67 130 66 3 -96 c1 -52 1 -101
-2 -107z"/>
<path d="M7526 5132 c-3 -21 -6 -94 -6 -163 l0 -127 89 -46 c49 -25 96 -46
104 -46 21 0 29 73 25 214 l-3 109 -60 33 c-33 19 -79 40 -101 48 l-42 14 -6
-36z m87 -23 c37 -19 40 -23 22 -30 -14 -5 -7 -8 26 -8 47 -1 59 -11 59 -46 0
-23 -164 61 -168 85 -4 26 9 25 61 -1z m97 -134 c0 -18 -12 -19 -28 -3 -6 6
-37 26 -69 42 -89 48 -75 62 16 17 47 -24 81 -48 81 -56z m0 -52 l0 -22 -46
20 c-78 35 -114 60 -114 80 0 16 9 14 80 -19 63 -29 79 -41 80 -59z m-74 -14
c41 -22 74 -45 74 -50 0 -13 -3 -12 -51 16 -48 27 -59 30 -59 16 0 -6 25 -25
55 -43 55 -32 71 -58 38 -58 -10 0 -45 15 -78 34 -59 32 -60 34 -63 79 -2 26
0 47 4 47 3 0 40 -18 80 -41z"/>
<path d="M7876 4964 c-3 -9 -6 -76 -6 -150 l0 -133 56 -36 c127 -81 134 -75
134 111 l0 133 -32 24 c-41 31 -112 67 -132 67 -7 0 -17 -7 -20 -16z m77 -35
c50 -25 87 -57 87 -75 0 -8 -26 1 -70 24 -45 24 -70 43 -70 55 0 22 2 21 53
-4z m52 -87 c20 -6 31 -16 33 -30 2 -12 0 -22 -4 -22 -20 0 -134 73 -134 86 0
13 7 12 38 -6 20 -11 51 -24 67 -28z m-40 -41 c103 -59 100 -89 -4 -37 -51 26
-69 40 -65 51 8 20 11 19 69 -14z m70 -109 c3 -7 2 -25 -1 -38 -7 -28 -22 -26
-89 10 -36 19 -40 26 -43 64 l-3 42 65 -32 c36 -18 68 -38 71 -46z"/>
<path d="M7970 4697 c0 -14 20 -37 32 -37 15 0 8 38 -8 44 -22 8 -24 8 -24 -7z"/>
<path d="M7490 4582 l0 -78 173 -91 c311 -165 386 -200 397 -183 16 25 12 110
-5 116 -10 4 -13 13 -10 25 5 15 -36 39 -264 153 -149 75 -275 136 -281 136
-6 0 -10 -31 -10 -78z m219 -56 c47 -24 129 -62 182 -85 93 -41 169 -84 109
-62 -14 5 -48 21 -77 36 -28 15 -58 25 -65 23 -7 -3 25 -23 72 -45 47 -23 91
-48 98 -56 8 -9 12 -31 10 -51 l-3 -35 -255 132 -255 132 -3 58 -3 57 52 -31
c29 -17 91 -50 138 -73z"/>
<path d="M7582 4557 c5 -13 69 -49 76 -42 9 9 -19 34 -49 44 -23 8 -30 8 -27
-2z"/>
<path d="M5418 3734 c-31 -20 -38 -49 -38 -148 0 -39 -3 -127 -6 -196 l-7
-125 -135 -70 c-74 -39 -150 -83 -167 -100 -30 -28 -33 -36 -39 -119 -4 -49
-6 -217 -5 -373 l2 -284 -124 -72 c-496 -291 -596 -353 -609 -378 -16 -29 -12
-95 8 -118 26 -30 590 -355 886 -510 152 -79 156 -78 476 111 80 47 250 145
378 217 l232 132 43 -25 c126 -73 261 -21 302 116 8 28 15 66 15 84 0 29 6 35
68 69 37 20 82 48 100 61 l32 25 0 362 0 362 -77 45 c-42 25 -110 63 -152 85
l-76 40 -6 120 c-3 66 -9 128 -13 137 -10 23 -64 56 -306 188 -542 297 -687
373 -720 377 -22 2 -45 -3 -62 -13z m115 -55 c105 -53 778 -420 855 -466 39
-25 77 -54 83 -65 7 -14 11 -103 10 -264 -1 -134 1 -244 4 -244 13 0 65 31 65
39 0 5 -7 14 -15 21 -9 7 -15 29 -15 51 l0 39 61 -31 c34 -16 63 -28 66 -25 6
6 -81 63 -109 72 -12 3 -18 15 -18 35 0 16 3 29 6 29 3 0 24 -11 47 -24 23
-13 73 -40 110 -61 l69 -37 -104 -57 c-56 -31 -124 -69 -150 -85 l-48 -28 -1
254 c0 169 -4 264 -12 287 -8 24 -29 46 -67 72 -47 31 -506 284 -827 455 -85
45 -110 64 -83 64 6 0 39 -14 73 -31z m315 -235 c230 -125 447 -246 485 -270
l67 -44 0 -288 0 -287 -105 -53 -105 -52 -49 25 c-76 38 -651 358 -699 389
l-44 27 6 67 c3 37 8 212 12 390 4 177 9 322 11 322 3 0 192 -102 421 -226z
m-478 -249 c0 -17 -46 -48 -158 -104 -82 -41 -117 -51 -110 -29 4 10 243 146
261 147 4 1 7 -6 7 -14z m0 -95 c0 -28 -6 -34 -72 -65 -40 -19 -82 -35 -93
-35 -23 0 -52 16 -44 24 12 12 185 105 197 105 7 1 12 -11 12 -29z m-6 -92 c6
-25 8 -108 2 -108 -2 0 -29 15 -61 34 l-57 35 49 30 c58 37 59 37 67 9z m-244
-11 c19 -13 64 -39 100 -59 36 -19 266 -146 513 -283 l447 -248 0 -287 c0
-159 3 -296 7 -306 5 -15 2 -16 -28 -11 -39 8 -210 91 -414 202 -77 42 -260
142 -407 222 l-268 145 0 324 c0 178 3 324 8 324 4 0 23 -10 42 -23z m1670
-577 l0 -290 -37 -23 c-71 -44 -506 -287 -514 -287 -5 0 -9 133 -9 295 l0 294
68 37 c37 21 157 89 267 151 110 62 206 113 213 113 9 0 12 -64 12 -290z
m-1556 -180 c171 -98 682 -373 798 -428 54 -26 97 -49 97 -52 0 -3 -43 -29
-97 -58 -53 -28 -194 -109 -312 -178 -314 -184 -381 -218 -416 -210 -16 4 -83
38 -149 76 -66 39 -276 159 -467 268 -191 108 -347 199 -347 202 0 8 743 448
758 449 8 1 68 -30 135 -69z m1524 -203 c-15 -12 -179 -107 -365 -211 -186
-104 -487 -276 -669 -382 -183 -106 -351 -198 -374 -205 -40 -12 -44 -11 -138
37 -140 71 -859 483 -879 502 -15 16 -15 17 0 20 20 4 148 -66 437 -239 266
-158 440 -255 498 -278 45 -18 49 -18 93 -1 67 25 228 113 524 285 143 83 382
218 530 300 149 81 290 160 315 175 51 31 68 29 28 -3z m-178 -186 c0 -67 -56
-143 -117 -160 -39 -11 -91 1 -124 28 l-23 18 33 18 c22 11 44 15 66 11 33 -6
56 6 35 19 -16 10 -11 25 9 25 10 0 24 7 31 15 14 17 40 20 40 6 0 -46 -41
-76 -132 -95 -34 -8 -36 -24 -4 -32 31 -7 99 11 119 34 22 24 47 86 47 117 0
14 5 25 10 25 6 0 10 -13 10 -29z"/>
<path d="M5166 2848 c-3 -13 -6 -109 -6 -214 0 -188 0 -192 23 -206 12 -8 191
-106 397 -218 206 -112 395 -216 420 -231 l45 -28 8 167 c5 92 6 194 2 228
l-6 61 -77 46 c-212 125 -760 417 -784 417 -9 0 -18 -10 -22 -22z m65 -49 c9
-32 11 -369 2 -369 -3 0 -15 7 -25 17 -16 14 -18 34 -18 177 0 89 3 171 6 184
8 28 26 24 35 -9z m89 -216 c0 -152 -3 -193 -13 -193 -33 0 -37 23 -37 217 l0
193 25 -12 25 -11 0 -194z m70 152 l30 -16 0 -189 c0 -114 -4 -190 -10 -190
-5 0 -21 5 -35 12 l-25 11 0 194 c0 106 2 193 5 193 4 0 19 -7 35 -15z m90
-61 c9 -24 15 -374 6 -374 -2 0 -11 3 -20 6 -14 5 -16 32 -16 200 0 191 7 230
30 168z m71 -24 c18 -10 19 -23 19 -205 l0 -195 -25 12 -25 11 0 194 c0 106 3
193 6 193 3 0 14 -5 25 -10z m90 -50 c18 -10 19 -23 19 -200 0 -195 -2 -204
-39 -181 -10 6 -14 54 -19 200 -5 201 -5 204 39 181z m89 -45 l30 -16 0 -194
0 -195 -35 17 -35 17 0 193 c0 106 2 193 5 193 4 0 19 -7 35 -15z m108 -61
c21 -15 22 -20 22 -205 0 -104 -2 -189 -5 -189 -2 0 -15 5 -28 11 -31 14 -37
57 -37 257 0 152 2 158 48 126z m80 -46 c17 -17 17 -391 0 -386 -7 3 -15 15
-19 29 -10 34 -11 369 -1 369 4 0 13 -5 20 -12z m77 -40 l25 -11 0 -194 c0
-106 -3 -193 -8 -193 -4 0 -18 7 -30 16 -21 15 -22 20 -22 205 0 104 2 189 5
189 2 0 16 -5 30 -12z"/>
<path d="M5104 2207 c-17 -12 -68 -42 -112 -67 -77 -42 -103 -70 -66 -70 9 0
37 12 63 26 l47 27 78 -43 c56 -31 74 -45 64 -52 -7 -5 -55 -34 -106 -64 l-92
-55 -58 31 c-71 38 -86 50 -95 73 -3 9 -13 17 -21 17 -21 0 -166 -100 -166
-114 0 -13 48 -42 315 -186 105 -57 233 -129 285 -160 52 -31 119 -69 148 -84
l53 -27 132 78 c73 44 185 110 250 148 64 38 117 75 117 81 0 17 -20 29 -375
225 -176 98 -342 192 -369 208 -26 17 -51 31 -55 31 -3 -1 -20 -11 -37 -23z
m117 -61 l71 -44 -31 -16 c-16 -9 -37 -16 -46 -16 -17 0 -98 39 -129 62 -17
14 -17 16 15 36 19 12 37 22 41 22 5 0 40 -20 79 -44z m209 -121 c0 -8 -59
-35 -76 -35 -10 0 -37 12 -62 26 l-44 26 37 22 37 23 54 -29 c30 -16 54 -31
54 -33z m-151 -36 l53 -31 -113 -65 -114 -65 -44 23 c-25 13 -46 29 -48 34 -2
8 190 134 207 135 3 0 29 -14 59 -31z m248 -14 c34 -20 63 -38 63 -40 0 -8
-58 -35 -75 -35 -8 0 -40 14 -71 31 l-55 31 33 24 c18 13 35 23 37 24 2 0 33
-16 68 -35z m-646 -46 c32 -17 56 -36 53 -40 -3 -5 -23 -18 -45 -29 l-40 -21
-62 37 c-34 20 -64 38 -65 39 -6 5 71 44 87 45 7 0 40 -14 72 -31z m534 -16
c30 -15 55 -30 55 -33 0 -3 -48 -31 -106 -63 -114 -63 -123 -65 -190 -25 -26
15 -32 23 -22 29 145 88 194 118 200 118 4 1 32 -11 63 -26z m305 -47 c0 -2
-15 -13 -33 -24 l-33 -19 -54 27 -54 27 39 21 40 20 47 -24 c27 -13 48 -26 48
-28z m-660 -40 c13 -9 10 -16 -20 -43 l-35 -31 -63 35 -63 36 48 27 48 28 35
-21 c19 -11 42 -25 50 -31z m501 -2 c28 -14 49 -28 46 -31 -3 -2 -79 -47 -169
-98 l-163 -93 -48 27 c-27 16 -49 32 -50 37 -2 10 301 184 320 184 8 0 36 -12
64 -26z m279 -25 l53 -32 -37 -19 -37 -19 -71 40 -72 39 34 20 c38 23 49 21
130 -29z m-630 -59 c0 -4 -18 -16 -39 -29 -37 -20 -42 -21 -76 -7 -48 21 -55
43 -21 72 l27 24 54 -27 c30 -15 55 -30 55 -33z m509 1 l64 -33 -48 -30 c-53
-33 -55 -33 -144 19 l-43 25 48 29 c27 16 51 28 54 26 3 -1 34 -17 69 -36z
m-118 -67 c32 -20 59 -38 59 -40 0 -2 -23 -17 -52 -33 l-51 -30 -46 24 c-91
47 -92 48 -30 84 30 17 56 31 57 31 2 0 31 -16 63 -36z m-140 -80 c33 -19 59
-38 59 -42 0 -4 -17 -17 -38 -29 l-38 -22 -62 37 c-34 20 -62 39 -62 43 0 8
60 47 74 48 4 1 35 -15 67 -35z"/>
<path d="M4837 1685 c-9 -9 -17 -25 -17 -35 0 -37 99 -100 158 -100 26 0 72
31 72 49 0 58 -172 128 -213 86z m125 -47 c85 -47 44 -67 -49 -23 -38 17 -53
30 -53 44 0 17 4 18 30 11 17 -5 49 -19 72 -32z"/>
<path d="M6650 8939 c-259 -29 -491 -115 -690 -257 -68 -48 -240 -209 -240
-223 0 -22 28 -4 94 59 278 264 591 392 956 392 213 0 412 -46 605 -139 130
-63 221 -124 329 -220 66 -59 86 -71 86 -53 0 13 -116 121 -185 173 -258 196
-642 303 -955 268z"/>
<path d="M6595 8644 c-157 -28 -325 -96 -452 -182 -102 -69 -201 -173 -165
-172 4 0 37 27 75 60 87 77 140 113 237 161 151 76 318 119 461 119 257 0 545
-108 724 -272 29 -26 58 -48 64 -48 59 0 -123 152 -274 227 -211 106 -456 145
-670 107z"/>
<path d="M6705 8374 c-137 -20 -261 -62 -350 -118 -60 -39 -125 -94 -125 -107
0 -19 26 -8 79 34 115 89 233 139 375 157 175 24 365 -31 544 -156 69 -48 89
-55 72 -25 -14 28 -167 127 -240 157 -106 43 -270 70 -355 58z"/>
<path d="M6635 8077 c-87 -29 -144 -58 -169 -86 -26 -28 -12 -40 22 -19 188
117 317 126 490 32 58 -31 82 -40 82 -30 0 43 -169 115 -285 122 -55 3 -85 -1
-140 -19z"/>
</g>
</svg>
