<?xml version="1.0" standalone="no"?>
<!DOCTYPE svg PUBLIC "-//W3C//DTD SVG 20010904//EN"
 "http://www.w3.org/TR/2001/REC-SVG-20010904/DTD/svg10.dtd">
<svg version="1.0" xmlns="http://www.w3.org/2000/svg"
 width="1024.000000pt" height="1024.000000pt" viewBox="0 0 1024.000000 1024.000000"
 preserveAspectRatio="xMidYMid meet">

<g transform="translate(0.000000,1024.000000) scale(0.100000,-0.100000)"
fill="#e0e0e0" stroke="none">
<path d="M2740 9741 c-25 -9 -128 -67 -230 -128 -102 -61 -471 -276 -820 -478
-349 -202 -690 -400 -756 -441 l-121 -74 -7 -46 c-3 -26 -6 -1301 -6 -2835 l0
-2787 -68 -38 c-108 -60 -289 -173 -301 -188 -16 -19 -17 -146 -2 -174 13 -24
176 -135 371 -252 225 -136 250 -134 525 38 133 84 264 161 1124 671 602 357
967 571 975 571 3 0 7 -53 10 -117 11 -260 20 -287 100 -298 53 -8 102 10 189
69 38 25 72 46 76 46 4 0 13 -45 19 -99 14 -122 25 -147 69 -162 44 -14 106
-5 206 32 165 60 237 126 214 195 -11 33 -54 49 -125 48 l-64 -1 8 296 c5 163
9 508 9 768 l0 472 115 3 115 3 89 -59 c49 -33 182 -116 295 -186 l206 -128 3
-299 2 -300 -112 -63 c-196 -111 -188 -103 -188 -171 l0 -58 58 -37 c31 -20
116 -73 189 -116 118 -71 134 -78 155 -68 13 7 98 55 190 108 174 100 178 104
178 174 0 44 -4 47 -164 143 l-116 70 0 350 1 350 74 65 c337 296 655 598 655
621 0 32 -94 97 -470 324 -107 65 -196 118 -197 119 -7 5 -14 546 -6 560 8 14
16 7 54 -46 60 -86 103 -128 129 -128 80 0 98 104 39 223 -54 107 -159 187
-226 171 -42 -10 -91 -62 -113 -121 -18 -49 -20 -78 -20 -313 0 -143 -2 -260
-4 -260 -2 0 -82 50 -177 111 -223 143 -285 174 -313 161 -28 -14 -121 -96
-304 -270 l-154 -145 -39 46 c-22 25 -73 67 -114 93 -89 55 -97 79 -39 115 86
52 114 118 114 261 l0 88 38 34 c21 19 50 59 65 88 44 88 34 118 -41 118 -36
0 -51 7 -85 35 -90 78 -243 98 -350 46 -105 -51 -178 -162 -185 -283 -4 -56 0
-76 22 -125 15 -32 47 -83 71 -114 51 -65 52 -63 -45 -107 -36 -16 -76 -42
-90 -57 -24 -25 -25 -33 -25 -143 1 -85 7 -147 25 -227 31 -144 34 -366 6
-530 -21 -129 -22 -180 -11 -631 4 -188 5 -350 1 -359 -6 -16 -8 -16 -24 -3
-21 18 -311 193 -346 210 l-26 11 0 2706 c0 2681 0 2706 -20 2739 -29 47 -171
133 -219 132 -9 -1 -36 -9 -61 -19z m143 -67 l49 -35 -309 -176 c-169 -96
-436 -250 -593 -342 -157 -93 -355 -208 -440 -256 -85 -48 -243 -140 -350
-205 -107 -64 -202 -119 -210 -122 -8 -3 -46 10 -83 29 l-69 34 44 28 c124 79
1321 775 1698 988 90 51 176 93 190 93 14 0 47 -16 73 -36z m103 -79 c9 -22
-10 -40 -84 -78 -37 -19 -245 -137 -462 -261 -217 -124 -403 -226 -412 -226
-10 0 -18 -6 -18 -12 -1 -13 -9 -19 -280 -178 -583 -342 -659 -385 -665 -378
-1 2 -5 13 -9 25 -5 16 0 26 22 41 38 28 348 214 442 267 41 23 147 84 235
135 88 51 198 114 245 140 47 26 132 76 190 112 58 35 184 109 280 163 96 54
193 109 215 123 70 45 259 141 278 142 10 0 20 -7 23 -15z m9 -2992 l6 -2912
-38 -25 c-21 -14 -42 -26 -47 -26 -14 0 -1 2517 13 2534 13 15 16 2701 5 3096
l-6 215 28 17 c16 9 29 16 30 15 1 -1 5 -1312 9 -2914z m-94 2845 c6 -72 6
-237 -1 -248 -4 -7 -33 -16 -63 -21 -31 -4 -69 -10 -86 -14 l-31 -7 0 75 c0
41 -3 88 -6 104 -6 29 -3 31 83 76 97 51 102 53 104 35z m-261 -181 c0 -42 -1
-43 -62 -77 -35 -18 -234 -134 -443 -256 -405 -236 -974 -564 -980 -564 -1 0
-6 12 -9 26 -5 18 -2 32 10 46 21 22 221 142 879 526 264 154 503 293 530 310
68 41 75 40 75 -11z m55 -74 c-7 -40 -12 -44 -286 -201 -123 -71 -244 -141
-269 -156 -187 -113 -629 -370 -735 -428 -71 -39 -142 -80 -157 -90 l-28 -19
0 -1278 0 -1277 -29 -17 c-29 -17 -29 -17 -35 9 -4 14 -6 599 -5 1300 l1 1275
61 30 c33 17 119 66 191 109 72 42 299 175 504 294 205 119 402 235 439 257
146 89 278 161 303 162 27 3 35 23 41 107 l2 45 4 -45 c3 -24 2 -59 -2 -77z
m105 -63 c0 -11 1 -11 -210 -131 -91 -51 -334 -193 -540 -314 -206 -122 -425
-250 -485 -285 -61 -34 -131 -75 -156 -91 -41 -26 -80 -31 -79 -10 1 3 191
116 423 251 232 134 517 300 632 369 212 126 387 221 405 221 6 0 10 -4 10
-10z m108 -1456 l2 -1450 -152 -89 c-84 -48 -427 -248 -762 -444 -336 -196
-613 -357 -618 -359 -4 -2 -8 656 -8 1461 l0 1465 308 178 c169 97 433 252
587 344 359 213 610 352 630 346 7 -2 11 -497 13 -1452z m-1928 832 c-8 -8
-27 -2 -67 19 -82 44 -77 60 7 23 51 -23 68 -34 60 -42z m-32 -26 l72 -41 0
-197 c0 -108 3 -1422 6 -2919 4 -1679 3 -2723 -3 -2723 -35 0 -113 34 -138 60
l-30 31 -3 2915 c-2 2336 0 2914 10 2914 7 0 46 -18 86 -40z m158 -125 c2 -38
6 -1339 9 -2891 l6 -2821 -25 -17 c-34 -22 -60 -21 -51 2 4 9 6 1319 5 2910
l-1 2893 27 -3 c26 -3 27 -5 30 -73z m229 -1570 l0 -1478 -27 -20 c-15 -11
-30 -18 -34 -15 -3 4 -2 681 2 1506 l7 1499 26 -6 26 -7 0 -1479z m2590 -284
c22 -10 54 -32 70 -49 21 -21 44 -33 77 -39 l47 -8 -23 -45 c-28 -56 -65 -81
-167 -115 -44 -15 -93 -38 -110 -53 -30 -25 -31 -28 -27 -97 2 -48 9 -81 22
-100 l19 -29 28 32 c33 37 42 112 14 112 -12 0 -15 -7 -10 -32 3 -18 1 -40 -5
-48 -16 -24 -30 6 -30 66 0 49 1 51 38 67 20 9 54 20 75 26 33 8 38 7 48 -11
14 -26 4 -136 -15 -182 -8 -17 -28 -44 -45 -61 l-31 -29 -16 22 c-12 17 -25
22 -59 22 -69 0 -148 35 -202 88 -67 67 -88 119 -88 217 0 71 3 86 31 135 17
31 49 68 72 84 78 55 198 67 287 27z m1338 -105 c38 -15 89 -70 118 -128 24
-46 36 -137 22 -162 -8 -15 -12 -15 -36 5 -15 11 -45 47 -67 79 -46 68 -83
100 -116 100 l-23 0 -3 -284 c-2 -156 -6 -287 -10 -291 -3 -3 -16 0 -28 7
l-22 13 5 272 c5 243 8 277 26 317 12 28 33 53 53 66 39 24 40 24 81 6z
m-2383 -1516 l0 -1260 -33 0 c-18 0 -53 10 -77 23 l-45 22 -6 445 c-4 245 -7
781 -8 1191 l-1 747 78 45 c42 25 80 45 85 46 4 1 7 -566 7 -1259z m-210 141
l0 -987 -47 -23 c-65 -31 -362 -206 -945 -557 -269 -162 -493 -294 -497 -294
-5 0 -11 21 -15 46 -3 26 -6 572 -6 1214 l0 1167 25 11 c14 7 28 12 30 12 3 0
5 -75 6 -167 1 -204 4 -217 48 -221 26 -3 55 11 144 66 62 39 312 187 557 329
245 143 499 292 565 331 66 38 123 68 128 65 4 -2 7 -449 7 -992z m2071 891
c79 -49 196 -122 259 -163 63 -41 151 -95 195 -119 92 -50 492 -294 578 -352
32 -22 57 -43 55 -47 -2 -4 -48 -48 -102 -97 -55 -49 -139 -125 -186 -169 -96
-89 -250 -231 -413 -379 l-107 -98 -63 35 c-61 33 -283 169 -450 274 -68 43
-79 53 -62 59 11 4 47 17 80 29 95 36 106 39 99 21 -4 -10 5 -22 27 -35 40
-24 54 -17 19 9 -19 15 -21 20 -9 20 9 0 29 -16 43 -35 15 -20 69 -60 123 -91
92 -55 96 -56 113 -38 87 94 210 247 210 261 0 10 24 37 53 60 28 23 81 72
117 108 l65 66 -25 19 c-14 10 -65 40 -115 66 -49 26 -177 104 -284 172 -210
134 -276 170 -288 158 -5 -4 7 -20 25 -36 30 -25 588 -364 615 -373 15 -5 -9
-33 -85 -99 l-57 -49 -123 79 c-68 44 -143 89 -166 101 l-44 22 -92 -60 c-100
-67 -146 -78 -166 -41 -6 11 -16 20 -23 20 -7 0 -55 28 -107 61 -103 67 -192
119 -204 119 -3 0 0 -13 9 -30 17 -32 61 -60 95 -60 32 0 60 -18 60 -40 0 -11
12 -26 29 -34 35 -19 91 -65 91 -76 0 -5 -12 -13 -27 -18 -34 -11 -78 2 -112
32 l-24 21 12 -22 c16 -32 15 -33 -34 -33 l-44 0 -20 68 c-59 200 -81 281 -81
294 0 13 83 93 311 301 l107 96 70 -45 71 -45 -19 -32 c-11 -18 -16 -37 -12
-43 4 -6 63 -44 132 -84 69 -41 209 -126 312 -191 102 -64 196 -120 208 -124
23 -7 60 18 60 41 0 13 56 -16 189 -99 l63 -40 -73 -66 c-41 -36 -149 -136
-240 -221 -256 -238 -367 -340 -373 -340 -3 0 -49 29 -103 63 -180 117 -354
219 -361 212 -4 -4 7 -18 23 -31 31 -26 406 -254 437 -266 19 -8 82 48 488
426 219 205 230 215 230 229 0 9 -421 288 -608 402 -73 44 -213 130 -313 192
l-182 112 -36 -29 c-20 -15 -117 -105 -215 -199 -98 -94 -182 -171 -186 -171
-4 0 -15 9 -25 20 -19 21 -18 22 36 75 133 132 385 365 395 365 5 0 75 -40
155 -88z m-963 -7 c44 -7 55 -19 65 -70 9 -47 -3 -58 -54 -50 -87 13 -139 35
-154 65 -18 34 -18 41 -6 74 l10 24 48 -18 c26 -10 67 -21 91 -25z m-183 -59
c9 -19 27 -42 39 -50 35 -22 133 -48 187 -49 26 0 46 -4 43 -9 -3 -4 -16 -8
-28 -8 -26 0 -85 -36 -133 -82 -40 -38 -67 -33 -116 21 -41 45 -56 117 -37
176 15 44 25 44 45 1z m-105 -27 c-6 -18 -10 -66 -10 -106 0 -83 -15 -105 -26
-37 -8 57 1 130 22 162 21 31 26 24 14 -19z m1359 -85 c14 -12 -19 -1 -35 12
-18 14 -18 14 6 3 14 -6 27 -13 29 -15z m-1342 -16 c-3 -8 -6 -5 -6 6 -1 11 2
17 5 13 3 -3 4 -12 1 -19z m1329 -4 c18 -14 18 -14 -6 -3 -31 14 -36 19 -24
19 6 0 19 -7 30 -16z m-859 -28 c37 -19 76 -56 68 -64 -4 -4 -12 0 -18 8 -7 8
-29 23 -50 33 -132 61 -255 -42 -289 -243 -16 -94 0 -183 51 -285 l40 -80 -34
40 c-48 55 -74 112 -87 190 -28 168 49 358 166 411 36 17 112 12 153 -10z
m1000 -21 c61 -35 81 -51 46 -38 -10 4 -34 17 -53 30 -36 24 -55 30 -45 13 7
-11 -6 -13 -29 -4 -13 5 -14 9 -5 20 15 19 13 19 86 -21z m-1351 -80 c34 -15
40 -21 36 -41 -6 -33 -17 -37 -49 -20 -49 26 -101 88 -109 131 l-7 40 45 -46
c24 -25 62 -54 84 -64z m364 35 c52 -27 53 -30 6 -74 -32 -30 -48 -55 -60 -95
-28 -96 -16 -201 29 -251 7 -8 20 -42 29 -74 14 -55 14 -60 -2 -72 -9 -8 -38
-14 -63 -14 -83 0 -142 58 -179 178 -40 128 -20 273 48 352 63 74 119 88 192
50z m1025 -10 c3 -5 2 -10 -4 -10 -5 0 -13 5 -16 10 -3 6 -2 10 4 10 5 0 13
-4 16 -10z m88 -21 c35 -18 67 -51 66 -68 0 -10 -3 -8 -9 6 -5 12 -24 30 -42
39 l-33 17 19 -22 c17 -19 18 -21 3 -15 -22 8 -49 54 -31 54 3 0 15 -5 27 -11z
m-1488 -91 c18 -8 20 -19 20 -136 0 -117 2 -131 27 -185 60 -127 139 -190 237
-191 31 -1 72 3 92 7 l35 9 27 -89 c41 -133 49 -415 31 -1106 -7 -298 -14
-558 -14 -578 0 -35 -2 -37 -44 -48 -60 -15 -141 -14 -154 2 -15 18 -21 107
-37 547 -10 269 -20 419 -30 470 -10 43 -41 128 -74 200 -33 69 -66 148 -75
177 -19 58 -25 180 -13 266 6 38 5 57 -2 57 -19 0 -35 -84 -35 -185 0 -86 3
-108 26 -160 14 -33 38 -89 53 -124 l27 -64 -16 -391 c-24 -558 -27 -605 -43
-622 -23 -22 -91 -36 -132 -27 l-36 9 -6 159 c-4 88 -2 302 3 475 8 234 7 374
-2 547 -13 244 -12 277 21 518 22 154 22 279 0 450 -5 38 -7 75 -4 81 3 8 20
1 51 -23 26 -20 56 -40 67 -45z m494 47 c36 -31 53 -74 111 -285 l45 -165 122
-3 c109 -2 128 0 188 23 90 33 137 33 164 -1 12 -15 21 -33 21 -42 0 -48 -181
-141 -355 -183 -99 -23 -229 -29 -262 -11 -31 17 -56 68 -102 213 -22 67 -52
140 -68 163 -23 34 -27 52 -28 106 0 88 9 114 57 166 47 51 65 54 107 19z
m1246 -135 c-3 -5 2 -16 11 -24 8 -9 11 -16 5 -16 -17 0 -40 30 -35 45 4 8 10
12 15 9 5 -3 7 -9 4 -14z m-889 -178 c-4 -3 -14 2 -24 12 -16 18 -16 18 6 6
13 -6 21 -14 18 -18z m389 9 c3 -5 0 -13 -5 -16 -16 -10 -62 4 -55 15 8 13 52
13 60 1z m113 -68 c121 -73 162 -103 162 -118 0 -27 -45 -16 -111 26 -35 22
-70 48 -76 57 -12 14 -13 13 -13 -6 0 -13 15 -32 38 -49 20 -15 39 -31 40 -35
2 -5 9 -8 14 -8 6 0 33 -14 61 -32 40 -26 46 -33 33 -40 -12 -7 -35 3 -88 36
-39 25 -78 46 -87 46 -8 0 14 -18 50 -40 35 -22 71 -44 78 -49 12 -7 10 -15
-15 -46 -16 -21 -33 -43 -38 -50 -7 -10 -22 -4 -61 26 -47 35 -125 76 -125 64
0 -2 33 -27 74 -55 41 -27 77 -54 80 -58 3 -5 -10 -23 -28 -41 -33 -32 -34
-32 -65 -17 -20 11 -31 24 -31 37 0 16 -3 19 -12 11 -9 -7 -38 6 -100 45 -49
30 -88 58 -88 62 0 4 17 13 37 20 28 10 38 11 41 2 2 -6 20 -20 40 -30 21 -10
46 -28 56 -40 11 -12 25 -21 31 -21 7 0 18 -7 26 -16 10 -13 10 -17 -2 -24
-25 -16 3 -32 35 -20 33 12 29 20 -42 72 -31 23 -69 54 -84 69 l-27 26 23 11
c29 13 74 -3 146 -51 56 -38 100 -52 70 -23 -8 8 -49 33 -90 57 -108 60 -107
59 -102 127 4 47 10 62 36 89 17 18 32 33 34 33 1 0 37 -21 80 -47z m135
-1120 l-6 -363 -33 0 c-68 0 -64 -26 -64 381 0 359 1 369 19 369 11 0 33 11
48 24 l28 24 7 -36 c4 -20 4 -200 1 -399z m-1937 30 c60 -36 144 -87 187 -112
l77 -46 0 -80 0 -81 -202 -121 c-112 -67 -588 -349 -1058 -628 -470 -279 -897
-535 -949 -568 -52 -33 -117 -68 -145 -78 l-51 -18 -80 43 c-44 23 -147 85
-230 138 -82 52 -171 107 -197 122 -27 16 -48 31 -48 35 0 4 55 41 123 82 174
108 193 119 205 119 7 0 10 -36 10 -103 -1 -83 2 -109 17 -133 33 -56 110 -92
201 -93 48 -1 68 4 95 22 44 29 47 53 48 313 l1 201 24 11 c14 6 116 67 228
135 332 203 1121 673 1176 701 28 14 56 26 62 26 6 0 10 -50 10 -139 0 -168 7
-193 67 -228 78 -46 182 -33 268 33 l35 26 0 244 c0 134 4 244 9 244 5 0 57
-30 117 -67z m607 -10 c4 -32 9 -157 12 -278 3 -121 8 -239 11 -261 l5 -42
-38 -4 c-21 -3 -39 -4 -40 -4 -2 2 12 337 23 529 4 64 10 117 14 117 4 0 10
-26 13 -57z m1187 -306 c0 -60 16 -89 61 -113 35 -18 79 -12 103 15 9 10 19
41 23 70 3 28 9 51 12 51 14 0 194 -116 194 -125 -1 -7 -183 -117 -284 -170
-25 -13 -34 -9 -189 85 l-162 99 53 34 c85 54 173 105 182 106 4 1 7 -23 7
-52z m-1532 -88 l3 -34 -193 -114 c-672 -396 -1595 -944 -1835 -1089 -155 -93
-303 -178 -328 -188 -45 -17 -48 -17 -94 3 -46 19 -263 152 -428 261 -80 53
-83 56 -83 93 0 22 2 39 4 39 9 0 133 -75 296 -178 213 -136 240 -148 294
-132 22 7 151 78 286 160 135 81 558 333 940 560 382 227 776 461 875 520 270
161 258 156 263 99z m1316 -58 c17 -10 86 -51 154 -91 91 -54 124 -78 128 -96
4 -14 5 -27 3 -29 -6 -5 -285 165 -315 192 -45 40 -25 57 30 24z m636 -15 c0
-19 -13 -29 -167 -117 -108 -61 -139 -75 -141 -63 -2 9 2 22 10 29 15 15 279
164 291 165 4 0 7 -6 7 -14z m-1580 -211 l0 -55 -49 -24 c-26 -14 -63 -37 -80
-52 -60 -51 -147 -62 -173 -22 -15 25 -7 28 65 28 112 0 167 47 167 145 0 33
2 35 35 35 l35 0 0 -55z m455 -149 c18 -13 18 -17 5 -40 -8 -15 -39 -39 -73
-56 -90 -45 -115 -38 -82 20 8 14 14 37 15 52 0 17 6 28 18 31 37 10 99 6 117
-7z m-210 -145 c0 -17 -97 -53 -120 -45 -18 7 -20 30 -2 41 14 8 85 21 107 19
8 -1 15 -8 15 -15z"/>
<path d="M2831 9368 c-44 -32 -42 -45 4 -34 25 6 49 39 43 57 -2 5 -23 -5 -47
-23z"/>
<path d="M2730 8997 c-41 -24 -102 -60 -135 -81 -33 -21 -174 -105 -315 -186
-140 -81 -374 -217 -520 -302 -146 -85 -284 -165 -307 -177 l-43 -21 0 -1395
c0 -766 3 -1396 8 -1398 7 -5 221 117 777 443 176 103 393 230 483 281 l162
94 0 1377 c0 757 -3 1383 -6 1392 -9 23 -21 20 -104 -27z m80 -1362 l0 -1365
-75 -42 c-42 -24 -210 -121 -373 -217 -163 -95 -436 -254 -607 -353 l-310
-179 -3 1363 c-2 1093 0 1365 10 1371 20 12 279 164 717 419 217 126 412 241
435 256 65 41 190 112 198 112 5 0 8 -614 8 -1365z"/>
<path d="M2595 8581 c-44 -26 -186 -107 -315 -180 -242 -136 -258 -146 -247
-157 7 -7 68 25 415 219 221 124 285 168 240 167 -7 -1 -49 -22 -93 -49z"/>
<path d="M2550 8399 c-69 -39 -206 -116 -305 -171 -168 -94 -231 -135 -220
-146 5 -5 508 271 602 330 56 35 78 58 56 58 -5 0 -64 -32 -133 -71z"/>
<path d="M1765 8191 c-93 -42 -176 -174 -176 -280 -1 -116 55 -166 146 -131
40 15 111 94 144 162 63 126 29 268 -64 268 -5 0 -28 -9 -50 -19z m70 -61 c-3
-5 -18 -10 -33 -10 -21 0 -24 2 -12 10 20 13 53 13 45 0z m-35 -50 c0 -12 -23
-27 -51 -34 -17 -3 -36 -21 -49 -43 -30 -49 -38 -27 -10 27 33 65 55 82 85 68
14 -6 25 -14 25 -18z m70 -52 c0 -34 -10 -44 -74 -83 -40 -24 -63 -32 -73 -26
-13 7 -12 11 8 25 13 9 33 16 44 16 23 0 69 29 48 30 -19 0 -16 17 7 40 26 26
40 25 40 -2z m-120 -17 c0 -5 -7 -14 -15 -21 -12 -10 -15 -10 -15 2 0 8 3 18
7 21 9 10 23 9 23 -2z m50 -104 c0 -2 -17 -19 -37 -38 l-38 -34 34 38 c33 34
41 42 41 34z m-76 -23 c9 -22 -11 -44 -40 -44 -28 0 -28 1 -12 35 13 28 43 33
52 9z"/>
<path d="M2244 8071 c-185 -102 -214 -120 -214 -132 0 -17 17 -9 176 81 87 49
171 96 187 104 25 14 37 36 19 36 -4 0 -80 -40 -168 -89z"/>
<path d="M2645 7974 c-20 -15 -53 -34 -408 -229 -165 -92 -206 -119 -195 -130
4 -5 431 226 567 306 71 42 98 69 69 69 -7 0 -22 -7 -33 -16z"/>
<path d="M2520 7753 c-362 -198 -507 -283 -481 -283 28 0 607 312 639 344 38
37 -18 16 -158 -61z"/>
<path d="M1736 7538 c-83 -56 -146 -171 -146 -267 0 -48 29 -103 62 -119 112
-53 299 187 257 328 -15 49 -46 79 -90 86 -27 5 -44 -1 -83 -28z m114 -47 c0
-5 -15 -13 -32 -16 -43 -9 -57 -22 -51 -44 3 -12 -7 -27 -27 -44 -39 -33 -50
-34 -50 -3 0 26 23 56 43 56 9 0 8 3 -1 8 -19 13 16 40 58 45 19 2 41 5 48 5
6 1 12 -2 12 -7z m-20 -148 c0 -36 -98 -133 -135 -133 -31 0 -32 17 -2 60 16
25 113 96 135 100 1 0 2 -12 2 -27z"/>
<path d="M2256 7454 c-169 -94 -230 -133 -223 -140 11 -11 327 160 375 202 51
44 -1 23 -152 -62z"/>
<path d="M2445 7252 c-363 -201 -417 -234 -403 -248 4 -3 500 264 615 332 29
17 45 45 26 44 -5 -1 -111 -58 -238 -128z"/>
<path d="M2401 7080 c-335 -183 -361 -198 -361 -211 0 -12 0 -12 358 179 160
86 292 162 292 169 0 7 -3 13 -7 13 -5 0 -131 -68 -282 -150z"/>
<path d="M1762 6959 c-88 -44 -164 -168 -170 -279 -4 -60 -2 -69 23 -98 22
-27 34 -32 69 -32 111 0 237 155 239 292 0 67 -19 103 -68 124 -44 18 -42 18
-93 -7z m62 -74 c44 -19 46 -33 6 -42 -20 -4 -27 -9 -22 -17 5 -7 2 -18 -9
-28 -11 -10 -21 -13 -24 -8 -18 29 -77 -8 -89 -53 -6 -25 -26 -30 -26 -6 0 31
54 119 87 142 21 15 38 27 39 27 1 0 18 -7 38 -15z m46 -89 c0 -24 -26 -38
-39 -22 -10 11 -8 17 6 25 25 14 33 14 33 -3z m-70 -106 c-12 -41 -19 -50 -34
-44 -8 3 -20 -3 -27 -13 -19 -26 -34 -34 -52 -27 -13 5 -11 12 9 42 57 84 124
111 104 42z m-144 -17 c-10 -10 -19 5 -10 18 6 11 8 11 12 0 2 -7 1 -15 -2
-18z"/>
<path d="M2230 6839 c-155 -85 -208 -119 -184 -119 10 0 240 119 322 166 37
22 55 44 35 44 -5 0 -82 -41 -173 -91z"/>
<path d="M2480 6679 c-310 -168 -450 -253 -438 -264 8 -8 631 336 643 355 14
23 -31 3 -205 -91z"/>
<path d="M2416 6494 c-290 -157 -376 -208 -376 -224 0 -11 43 11 406 210 240
131 262 144 247 153 -5 3 -130 -59 -277 -139z"/>
<path d="M1775 6346 c-49 -22 -106 -85 -139 -155 -25 -53 -31 -79 -31 -134 0
-65 2 -70 33 -98 41 -37 75 -37 133 -1 95 61 159 171 159 275 0 59 -16 89 -60
112 -35 18 -56 18 -95 1z m49 -82 c9 -3 16 -13 16 -21 0 -9 -6 -13 -14 -10
-17 7 -36 -11 -36 -33 0 -9 -9 -26 -20 -38 -26 -27 -25 -32 4 -32 19 0 25 6
28 28 2 16 9 27 18 27 11 0 15 -13 16 -54 1 -50 -2 -57 -41 -97 -32 -34 -49
-44 -73 -44 -33 0 -40 8 -21 27 6 6 15 57 18 112 6 76 12 105 26 121 18 20 49
25 79 14z"/>
<path d="M2255 6262 c-182 -99 -215 -120 -215 -134 0 -12 322 157 379 198 1 2
1 7 0 13 -2 6 -76 -29 -164 -77z"/>
<path d="M4340 5613 c0 -9 201 -143 213 -143 22 0 1 31 -40 58 -27 18 -59 40
-73 50 -24 16 -24 16 -11 -1 22 -28 -4 -19 -39 13 -31 29 -50 38 -50 23z"/>
<path d="M4240 5521 c0 -11 45 -44 73 -54 11 -4 16 -3 12 3 -3 6 -2 10 4 10 5
0 12 -8 16 -19 6 -21 244 -182 272 -185 9 0 19 7 21 16 2 12 -10 24 -40 39
l-43 21 30 -32 30 -32 -65 39 c-46 27 -59 39 -46 41 13 3 -13 25 -85 72 -57
38 -105 64 -107 59 -2 -5 -12 -4 -24 2 -17 9 -18 13 -7 20 10 6 6 9 -13 9 -16
0 -28 -4 -28 -9z"/>
<path d="M4582 5458 c5 -13 75 -58 92 -58 15 0 -26 41 -56 56 -33 17 -41 18
-36 2z"/>
<path d="M4310 5186 c0 -7 7 -19 15 -26 13 -11 15 -8 15 14 0 16 -5 26 -15 26
-8 0 -15 -6 -15 -14z"/>
<path d="M4890 5020 c0 -9 105 -71 145 -86 18 -7 19 -6 6 10 -27 33 -151 96
-151 76z"/>
<path d="M4933 9720 c-143 -37 -275 -99 -511 -237 -305 -179 -479 -299 -594
-412 -68 -68 -88 -108 -88 -179 0 -52 -27 -98 -86 -148 -74 -63 -89 -91 -126
-240 -31 -120 -33 -141 -33 -294 0 -180 7 -214 67 -335 34 -68 146 -210 189
-240 18 -12 29 -29 29 -44 0 -44 32 -146 67 -216 98 -196 254 -342 395 -371
98 -20 161 5 281 116 l79 71 41 -38 c23 -22 85 -63 137 -92 181 -102 940 -551
1610 -953 201 -120 371 -222 378 -226 7 -4 19 -32 27 -62 36 -140 147 -305
264 -393 92 -68 157 -90 261 -85 75 4 97 10 187 50 101 46 102 46 120 26 64
-71 271 -107 439 -77 101 18 272 79 398 143 115 59 736 415 1066 612 250 149
311 238 265 390 -11 36 -15 100 -15 239 0 215 -14 325 -60 490 -52 185 -86
243 -214 370 -128 128 -233 208 -474 364 -237 153 -327 219 -397 290 l-59 61
38 39 c64 66 75 140 31 207 -22 33 -80 58 -119 50 -16 -4 -58 -25 -93 -47
l-63 -41 -102 93 c-312 281 -591 462 -1284 833 -172 91 -343 179 -381 196
-213 90 -420 104 -908 60 -169 -15 -219 -12 -365 20 -163 36 -286 39 -397 10z
m326 -41 c26 -5 64 -15 85 -20 l39 -11 -79 -28 c-107 -38 -166 -66 -391 -186
-224 -120 -328 -185 -548 -338 -88 -62 -195 -136 -238 -165 l-77 -52 -111 47
c-60 26 -113 52 -116 57 -10 16 119 133 245 224 218 158 601 372 782 438 150
54 273 64 409 34z m1106 -30 c164 -27 229 -57 855 -397 577 -313 859 -520
1265 -927 105 -105 216 -211 248 -235 54 -40 58 -46 53 -74 -20 -100 -125
-239 -259 -339 -148 -111 -505 -330 -687 -422 -238 -119 -589 -255 -659 -255
-58 0 -105 24 -160 82 l-50 52 92 31 c265 90 817 375 1167 603 263 171 380
268 380 316 0 66 -362 423 -646 638 -115 86 -315 218 -333 218 -7 0 -162 -85
-344 -189 -183 -103 -404 -228 -492 -276 -88 -48 -238 -132 -332 -187 l-173
-99 -82 73 c-326 290 -639 471 -1078 623 -96 33 -174 65 -173 70 1 6 34 22 75
36 103 36 223 98 533 277 149 85 301 173 338 194 120 69 178 109 174 121 -3 8
-38 12 -118 11 -196 -2 -336 -50 -584 -201 -355 -216 -492 -302 -554 -349
l-67 -50 -215 -13 c-118 -7 -230 -15 -249 -18 l-35 -5 30 26 c47 40 298 206
456 301 168 101 441 237 584 290 131 49 212 62 490 79 236 15 443 13 550 -5z
m-409 -98 c-6 -9 -113 -72 -326 -194 -63 -36 -173 -99 -245 -142 -216 -127
-376 -196 -490 -210 l-50 -6 28 23 c69 56 592 376 724 442 110 56 380 121 359
87z m-2100 -611 c26 -16 82 -41 125 -55 74 -25 79 -25 109 -10 17 9 93 26 168
37 113 18 184 22 402 22 l265 1 180 -61 c694 -237 1190 -623 1559 -1214 36
-57 116 -203 178 -323 164 -319 187 -339 448 -392 330 -67 635 -162 823 -256
34 -17 98 -55 142 -84 93 -62 206 -172 184 -179 -45 -14 -92 -18 -369 -31
-237 -11 -321 -18 -378 -34 -41 -11 -76 -21 -78 -24 -9 -9 77 -126 129 -175
110 -103 245 -139 403 -108 116 23 321 90 407 133 l68 34 -36 67 c-141 257
-431 451 -864 576 -115 34 -333 87 -414 102 -21 3 -36 11 -34 18 2 6 84 40
183 77 228 84 318 126 584 278 350 200 560 346 665 463 l46 51 30 -22 c17 -12
83 -59 147 -103 152 -105 310 -263 369 -368 72 -129 136 -365 152 -565 l6 -70
75 75 c47 48 94 108 126 164 l52 88 11 -51 c6 -29 11 -130 11 -225 l0 -174
-32 -39 c-18 -22 -56 -58 -83 -81 -83 -68 -795 -487 -1095 -645 -95 -50 -154
-73 -245 -97 -66 -17 -139 -40 -162 -50 -69 -30 -100 -104 -74 -173 9 -24 8
-24 -59 -31 -63 -5 -160 6 -282 33 -63 14 -32 -7 45 -31 157 -50 388 -18 612
82 67 30 383 211 810 463 374 221 470 282 531 339 28 26 54 48 57 48 16 0 5
-49 -22 -95 -34 -59 -88 -111 -157 -151 -27 -15 -123 -71 -214 -124 -604 -355
-879 -511 -975 -553 -276 -124 -557 -147 -698 -57 l-44 28 -6 138 c-7 163 -29
261 -87 382 -49 102 -88 160 -159 236 -227 239 -496 266 -616 61 -31 -52 -55
-158 -55 -244 0 -49 -3 -62 -13 -58 -8 3 -187 108 -398 234 -487 292 -1100
653 -1384 818 -249 144 -271 158 -286 187 -6 12 -29 89 -50 171 -22 83 -57
188 -79 235 -115 245 -331 432 -501 435 -160 4 -252 -117 -235 -309 4 -59 3
-74 -8 -74 -32 0 -39 28 -33 128 12 224 114 338 285 318 116 -13 275 -114 363
-231 23 -30 45 -52 50 -49 25 15 160 -259 205 -418 34 -120 59 -172 96 -203
17 -14 85 -57 152 -97 230 -134 952 -562 1281 -758 376 -224 438 -260 452
-260 6 0 12 132 16 353 6 351 12 434 43 578 23 105 24 107 73 84 23 -10 44
-16 47 -13 22 22 -194 418 -351 643 -80 116 -263 323 -366 417 -184 167 -498
364 -753 472 -217 93 -473 153 -605 144 -91 -7 -150 -40 -242 -135 -92 -95
-101 -110 -111 -193 -21 -172 -21 -248 2 -381 12 -72 20 -133 17 -135 -3 -3
-36 22 -73 56 -98 87 -211 142 -307 148 -92 6 -137 -8 -193 -60 -58 -53 -84
-120 -97 -245 l-10 -104 -34 48 c-144 200 -170 390 -96 696 l26 108 41 -39
c49 -47 115 -92 135 -92 8 0 23 7 33 17 26 24 23 88 -9 175 -20 53 -27 91 -26
138 0 60 19 180 28 180 3 0 25 -13 51 -30z m3918 -139 c73 -49 135 -98 138
-108 3 -10 -1 -61 -8 -113 -7 -52 -24 -221 -39 -375 -29 -319 -54 -550 -61
-582 -3 -11 -15 -23 -26 -26 -13 -4 -19 -12 -16 -28 4 -26 -52 -58 -302 -178
-239 -115 -354 -162 -358 -146 -3 15 14 178 89 815 67 581 71 609 83 625 6 7
81 52 166 100 85 47 159 91 165 96 18 17 36 9 169 -80z m-4000 -130 c32 -92
39 -174 16 -178 -23 -5 -101 50 -139 98 l-33 41 58 59 c32 32 61 59 64 59 4 0
19 -36 34 -79z m1166 54 c154 -32 362 -106 396 -140 9 -8 25 -15 38 -15 12 0
31 -7 42 -15 18 -14 18 -14 -4 -15 -12 0 -53 14 -90 31 -173 79 -326 122 -487
138 -127 13 -159 7 -213 -40 -48 -41 -131 -140 -132 -156 0 -7 25 -31 55 -54
55 -41 67 -59 41 -59 -22 0 -166 98 -166 114 0 8 39 55 88 104 112 117 144
131 266 127 50 -2 125 -11 166 -20z m69 -75 c123 -30 391 -138 391 -158 0 -4
-9 -57 -19 -117 -11 -61 -25 -164 -32 -230 -6 -66 -13 -121 -14 -123 -6 -7
-35 12 -35 24 0 7 -6 11 -13 9 -13 -6 -447 253 -596 356 -51 35 -107 73 -124
84 l-31 19 90 84 89 84 105 -6 c58 -3 143 -15 189 -26z m3205 -204 c163 -144
291 -276 325 -336 l21 -38 -62 -55 c-106 -92 -342 -250 -546 -365 -120 -67
-116 -68 -109 24 3 44 26 278 51 522 25 244 46 452 46 463 0 23 38 -7 274
-215z m-990 157 c-7 -76 -46 -412 -98 -843 -19 -157 -40 -344 -47 -415 l-12
-131 -55 -16 c-52 -15 -57 -15 -68 0 -7 9 -55 98 -105 197 l-92 179 42 331
c51 398 71 539 79 552 4 6 81 52 172 103 91 51 169 96 175 101 15 15 16 12 9
-58z m1383 -80 c33 -44 1 -150 -51 -174 -22 -11 -29 -6 -84 52 -33 35 -58 67
-55 72 2 4 28 23 56 43 43 29 58 34 87 30 19 -3 41 -13 47 -23z m-3145 12 c3
-3 -1 -36 -9 -73 -19 -91 -40 -240 -49 -339 -3 -46 -11 -83 -15 -83 -22 0 -5
167 46 468 6 30 15 39 27 27z m86 -47 c19 -19 14 -31 -12 -26 -19 4 -26 0 -30
-16 -14 -57 -36 -282 -36 -372 0 -126 -3 -137 -36 -122 -20 9 -24 17 -20 37 3
14 11 78 17 141 14 150 46 340 60 357 14 16 41 17 57 1z m-918 -173 c113 -71
325 -202 472 -290 201 -120 266 -164 262 -175 -25 -63 -24 -577 3 -904 l6 -79
-59 33 c-32 19 -175 103 -317 187 -192 115 -263 162 -277 186 -11 18 -43 102
-72 187 -66 200 -87 246 -158 355 -64 98 -87 170 -111 349 -16 127 5 307 34
289 7 -4 104 -66 217 -138z m2190 38 c-6 -43 -24 -184 -40 -313 -44 -353 -53
-410 -61 -410 -4 0 -20 21 -35 48 -36 61 -170 243 -265 357 -41 50 -80 97 -87
106 -11 15 -4 21 55 50 37 19 73 40 81 46 26 24 354 204 360 198 2 -2 -2 -38
-8 -82z m-1111 -30 c153 -100 284 -208 416 -344 119 -122 167 -182 262 -324
83 -124 88 -136 72 -146 -8 -5 -38 -9 -67 -9 -29 0 -69 -7 -90 -15 -47 -20 10
-49 -569 295 l-223 132 0 97 c0 53 5 169 12 258 l12 162 30 -16 c17 -9 82 -49
145 -90z m11 65 c37 -21 53 -48 30 -48 -16 0 -90 49 -90 60 0 16 18 12 60 -12z
m-935 -92 c11 -7 109 -66 218 -130 108 -65 197 -124 197 -132 0 -8 -4 -14 -8
-14 -9 0 -456 273 -480 292 -22 19 9 30 33 13 11 -9 29 -21 40 -29z m1060 9
c31 -23 58 -73 32 -58 -44 25 -95 67 -91 74 9 15 26 10 59 -16z m194 -159
c133 -120 291 -298 408 -461 89 -124 253 -429 253 -471 0 -7 -5 -14 -12 -14
-19 0 -118 63 -118 75 0 24 14 23 59 -3 l45 -26 -21 34 c-11 19 -30 51 -42 70
-11 19 -21 48 -21 63 0 21 -4 27 -17 25 -14 -2 -19 5 -21 35 -2 25 -8 37 -17
35 -8 -2 -50 53 -103 132 -132 201 -273 363 -455 523 -42 38 -75 73 -71 78 8
14 31 -2 133 -95z m-1922 -138 c160 -59 311 -240 405 -483 37 -96 42 -120 43
-190 0 -53 -5 -89 -15 -107 -14 -25 -15 -20 -15 80 -1 83 -6 124 -24 182 -81
263 -284 488 -456 508 -64 7 -126 -20 -185 -80 l-50 -51 0 31 c0 40 45 92 103
121 49 24 109 21 194 -11z m4901 -104 c103 -70 221 -152 262 -183 93 -70 240
-209 287 -274 l35 -48 -46 -142 c-25 -78 -53 -173 -62 -212 -26 -108 -38 -112
-59 -18 -28 130 -82 284 -124 356 -80 136 -160 213 -404 386 l-143 101 26 80
c14 44 28 80 33 80 4 0 92 -57 195 -126z m-3664 52 c107 -63 143 -91 130 -99
-14 -8 -266 142 -258 154 8 14 20 8 128 -55z m-1188 -38 c73 -43 181 -158 232
-244 23 -38 53 -105 68 -149 24 -68 28 -97 28 -195 1 -123 -7 -158 -52 -219
-117 -159 -394 -25 -538 261 -70 139 -95 322 -58 430 18 55 71 119 116 142 52
26 136 16 204 -26z m1385 -89 c7 -14 6 -19 -4 -19 -17 0 -37 20 -37 37 0 17
28 5 41 -18z m151 -160 c86 -52 225 -134 307 -182 83 -49 151 -91 151 -95 0
-4 -14 -34 -30 -66 -36 -70 -40 -130 -11 -146 42 -22 198 -4 336 39 l60 18 65
-34 c104 -54 101 -50 84 -116 -35 -135 -46 -262 -51 -604 -3 -189 -7 -343 -9
-343 -6 0 -274 158 -544 320 -135 81 -338 202 -451 270 -200 119 -207 124
-213 159 -23 147 -33 897 -12 942 8 19 45 1 318 -162z m17 66 c16 -8 31 -21
34 -30 4 -8 14 -15 23 -15 25 0 114 -52 114 -67 0 -7 11 -13 24 -13 14 0 32
-8 42 -17 36 -37 -9 -21 -113 38 -128 73 -163 97 -163 110 0 12 6 11 39 -6z
m397 -237 c4 -5 -4 -8 -17 -6 -12 1 -24 8 -26 15 -5 14 34 6 43 -9z m74 -43
c10 -12 10 -15 -3 -15 -8 0 -20 7 -27 15 -10 12 -10 15 3 15 8 0 20 -7 27 -15z
m284 -5 c26 -10 66 -75 66 -108 0 -34 -43 -60 -140 -85 -146 -38 -239 -52
-251 -40 -15 15 27 106 70 155 62 72 179 107 255 78z m3189 -211 c15 -46 29
-96 29 -111 3 -78 -190 -372 -216 -330 -6 10 44 262 74 368 28 104 56 167 72
162 7 -2 26 -42 41 -89z m63 -739 c-8 -41 -41 -84 -101 -129 -75 -58 -1162
-697 -1265 -744 -89 -41 -228 -87 -262 -87 -24 0 -28 4 -28 29 0 43 44 75 132
96 180 44 295 96 613 275 433 245 663 388 788 489 67 55 124 100 126 100 2 1
1 -13 -3 -29z m-1214 -143 c50 -75 71 -118 61 -127 -15 -13 -177 -79 -261
-105 -122 -38 -208 -55 -289 -55 -93 0 -160 25 -239 89 -71 57 -142 147 -127
162 21 21 172 40 403 49 199 9 315 20 411 39 3 0 22 -23 41 -52z m-1342 -19
c180 -90 329 -289 391 -522 19 -68 47 -332 37 -342 -3 -3 -28 -13 -55 -24
l-49 -18 24 48 c20 40 23 62 23 142 -1 174 -35 283 -137 434 -91 135 -192 217
-313 254 -72 23 -100 24 -154 9 -104 -28 -167 -146 -167 -312 0 -44 -3 -58
-10 -47 -13 20 -12 117 1 182 35 163 139 255 274 243 32 -3 81 -20 135 -47z
m-20 -85 c83 -40 215 -177 267 -278 70 -135 98 -235 98 -345 0 -107 -18 -155
-75 -203 -223 -188 -651 230 -627 611 13 214 153 303 337 215z"/>
<path d="M9235 6933 c-27 -14 -99 -56 -160 -93 -60 -37 -180 -109 -266 -159
-204 -121 -229 -141 -229 -189 0 -75 80 -200 152 -238 41 -21 173 -18 251 6
165 51 331 212 387 375 37 107 26 249 -23 303 -26 28 -50 27 -112 -5z m102
-30 c14 -22 18 -48 18 -133 0 -103 -1 -108 -39 -184 -83 -169 -271 -299 -462
-320 -50 -6 -66 -3 -104 16 -50 26 -111 100 -137 166 -15 41 -15 44 4 70 11
15 74 59 139 98 448 267 529 314 545 314 10 0 27 -12 36 -27z"/>
<path d="M6908 6507 c-83 -24 -158 -89 -202 -175 -10 -18 -15 -39 -13 -45 2
-7 14 9 26 34 28 59 90 121 149 151 39 19 62 23 132 22 232 -3 444 -175 592
-479 23 -48 44 -82 46 -76 5 15 -64 161 -111 234 -52 81 -160 191 -240 244
-128 85 -274 119 -379 90z"/>
<path d="M4510 8269 c-31 -58 41 -138 170 -189 59 -23 73 -18 85 30 4 19 0 31
-17 47 -26 23 -206 133 -219 133 -5 0 -13 -9 -19 -21z m102 -75 c34 -19 72
-44 83 -55 19 -19 19 -19 -3 -19 -12 0 -51 14 -87 32 -52 26 -65 37 -65 55 0
13 2 23 4 23 2 0 33 -16 68 -36z"/>
<path d="M3987 7835 c-138 -95 -103 -382 70 -566 65 -69 154 -120 212 -121 45
-1 97 37 122 90 86 176 -36 498 -223 591 -77 39 -129 41 -181 6z m136 -17 c9
-7 19 -33 23 -58 8 -53 -9 -46 -23 9 -15 60 -35 51 -31 -14 2 -31 6 -59 10
-62 15 -8 8 -53 -7 -53 -8 0 -15 4 -15 9 0 4 -13 25 -30 46 -16 21 -30 41 -30
46 0 16 28 -3 35 -24 7 -21 8 -21 12 4 2 15 -3 44 -11 64 -9 21 -16 39 -16 41
0 10 68 3 83 -8z m56 -17 c8 -5 11 -16 8 -26 -8 -20 -23 -13 -30 15 -6 22 0
25 22 11z m111 -113 c0 -4 -9 -10 -20 -13 -12 -4 -20 -15 -20 -29 0 -24 -26
-54 -37 -42 -3 3 4 28 17 55 21 46 21 50 6 72 l-16 23 0 -26 c0 -35 -10 -59
-21 -52 -5 3 -7 22 -4 42 12 69 14 70 55 22 22 -25 40 -48 40 -52z m-233 -48
c15 -25 28 -46 29 -48 1 -2 11 1 23 7 16 9 27 7 55 -10 29 -17 36 -27 36 -53
0 -37 -31 -76 -61 -76 -33 0 -81 58 -75 89 5 24 1 28 -59 55 -45 20 -63 32
-56 39 11 11 32 4 91 -34 l35 -23 -24 30 c-14 16 -42 45 -64 65 -32 30 -38 41
-32 60 8 23 8 22 42 -16 18 -22 46 -60 60 -85z m83 15 c0 -19 -4 -35 -8 -35
-4 0 -6 16 -4 35 2 19 6 35 8 35 2 0 4 -16 4 -35z m209 -69 c34 -82 40 -136
16 -136 -8 0 -15 -5 -15 -12 0 -6 -9 -3 -20 7 -28 25 -25 33 13 37 l32 3 -25
14 c-13 8 -48 14 -77 14 -29 0 -53 4 -53 9 0 34 75 150 92 141 3 -1 20 -36 37
-77z m-159 51 c0 -8 -7 -14 -15 -14 -16 0 -19 9 -8 20 11 11 23 8 23 -6z
m-184 -62 c19 -14 19 -14 -2 -15 -12 0 -27 7 -34 15 -17 20 9 21 36 0z m-26
-63 c0 -9 7 -36 16 -59 16 -41 18 -42 31 -23 8 11 21 20 29 20 23 0 16 -28
-11 -46 -20 -13 -23 -19 -14 -36 16 -29 4 -32 -15 -4 -14 23 -76 169 -76 182
0 2 9 0 20 -6 11 -6 20 -18 20 -28z m74 -13 c5 -5 7 -11 5 -14 -7 -7 -69 18
-69 27 0 10 51 -1 64 -13z m194 -23 c15 -8 47 -30 72 -49 33 -27 48 -33 57
-25 10 8 13 3 13 -21 l0 -32 -80 55 c-90 62 -106 60 -30 -4 28 -23 47 -46 44
-51 -3 -5 -25 7 -50 27 -24 20 -54 37 -66 38 -11 0 -26 9 -32 19 -9 15 -7 22
13 38 28 23 25 23 59 5z m-65 -88 c20 -35 45 -105 63 -175 2 -7 13 -13 24 -13
11 0 20 -7 20 -15 0 -10 -10 -15 -29 -15 -29 0 -41 14 -41 50 0 9 -7 23 -15
30 -8 7 -17 28 -21 49 -11 59 -23 72 -24 24 0 -24 -4 -43 -10 -43 -11 0 -14
133 -3 143 10 11 11 10 36 -35z m137 -103 c0 -25 -19 -17 -41 18 -12 17 -18
23 -14 12 13 -38 18 -85 8 -85 -10 0 -53 125 -53 155 0 15 13 6 50 -33 28 -29
50 -59 50 -67z m-203 36 c-8 -40 2 -71 24 -71 11 0 19 -7 19 -15 0 -8 -4 -15
-9 -15 -14 0 -70 49 -82 72 -9 16 -7 19 8 16 11 -2 22 6 28 20 13 30 19 28 12
-7z m87 -107 c8 -21 1 -28 -18 -21 -9 4 -13 13 -10 22 8 20 20 19 28 -1z"/>
<path d="M4282 7594 c-24 -17 -30 -54 -8 -54 7 0 28 -3 45 -6 26 -5 31 -3 31
13 0 20 -26 63 -38 63 -4 0 -18 -7 -30 -16z"/>
<path d="M5480 7669 c-26 -48 14 -96 126 -153 39 -20 80 -36 91 -36 28 0 45
23 41 56 -2 22 -21 38 -108 90 -57 35 -112 64 -122 64 -9 0 -22 -9 -28 -21z
m130 -78 c47 -26 86 -56 88 -65 5 -22 -10 -20 -71 10 -68 34 -117 72 -117 90
0 21 7 18 100 -35z"/>
<path d="M6969 6174 c-89 -58 -88 -256 2 -438 94 -190 239 -288 353 -238 54
24 86 85 93 176 7 84 -9 152 -60 254 -75 153 -190 250 -306 259 -41 3 -63 -1
-82 -13z m104 -17 c13 -9 16 -20 11 -45 -4 -17 -10 -32 -14 -32 -12 0 -44 40
-37 47 4 4 14 -2 22 -13 12 -16 14 -16 15 -3 0 27 -27 44 -45 29 -20 -17 -19
-33 5 -55 20 -18 80 -115 80 -130 0 -17 -23 5 -79 79 -34 43 -61 84 -61 91 0
17 40 44 66 44 11 1 28 -5 37 -12z m56 -34 c7 -16 15 -52 18 -81 4 -33 9 -48
14 -40 5 7 6 36 2 65 -7 65 3 67 56 13 l39 -40 -19 -37 c-10 -21 -19 -43 -19
-50 0 -6 -5 -15 -11 -19 -8 -4 -9 13 -4 61 6 55 5 67 -6 63 -8 -3 -16 -24 -19
-49 -8 -70 -29 -56 -56 36 -13 44 -24 86 -24 93 0 21 16 13 29 -15z m-112
-100 c35 -42 60 -79 58 -82 -3 -3 -32 22 -65 54 -33 33 -60 53 -60 45 0 -8 23
-38 52 -67 59 -60 60 -82 0 -29 -22 20 -42 36 -46 36 -16 0 -4 -41 16 -51 20
-11 20 -13 5 -24 -25 -18 -21 -44 8 -50 14 -3 36 -7 50 -10 16 -3 25 -12 25
-24 0 -24 -36 -68 -47 -58 -4 5 3 17 16 28 22 18 22 19 2 19 -28 0 -44 -32
-31 -64 13 -34 27 -33 48 4 17 30 32 39 32 20 0 -6 -12 -28 -26 -50 -26 -39
-27 -40 -41 -20 -22 31 -55 109 -69 165 -20 73 -16 236 5 235 3 -1 34 -35 68
-77z m289 -49 l27 -46 -24 -20 -24 -19 34 3 c33 3 35 1 52 -51 10 -29 22 -75
25 -102 6 -45 5 -49 -14 -49 -25 0 -73 20 -68 29 2 3 -16 15 -40 27 -35 17
-44 18 -48 7 -4 -10 17 -25 66 -48 40 -19 78 -35 84 -35 42 0 4 -106 -50 -140
-35 -21 -76 -27 -76 -11 0 5 10 11 22 13 33 5 32 21 -7 69 -34 43 -44 69 -26
69 5 0 26 -25 46 -55 36 -51 55 -67 55 -46 0 19 -13 41 -24 41 -6 1 -29 29
-52 63 -37 57 -43 62 -73 59 -47 -3 -66 11 -96 74 -32 67 -30 104 7 122 53 25
101 -16 123 -106 12 -45 14 -48 71 -69 73 -27 74 -27 74 -4 0 22 -16 36 -24
22 -3 -5 -15 -7 -25 -4 -18 5 -18 6 -3 24 9 10 23 19 30 19 8 0 12 9 10 23 -3
19 -10 22 -58 25 -63 4 -85 17 -49 30 35 14 65 50 52 63 -7 7 -20 1 -43 -21
-18 -17 -34 -29 -36 -27 -5 4 45 117 51 117 2 0 16 -21 31 -46z m-256 -98 c9
-12 9 -16 1 -16 -22 0 -51 20 -51 36 0 17 28 6 50 -20z m280 -46 c-20 -13 -83
-13 -75 0 3 6 25 10 48 10 31 0 38 -3 27 -10z m-246 -159 c-5 -42 -9 -49 -20
-40 -8 6 -14 18 -14 26 0 16 32 75 37 69 2 -2 1 -27 -3 -55z m90 -17 c4 -27
17 -66 28 -87 22 -43 19 -54 -10 -38 -19 10 -32 64 -32 132 0 16 -4 29 -10 29
-6 0 -10 -27 -10 -60 0 -63 -7 -71 -34 -42 -12 15 -14 25 -7 48 5 16 12 41 15
56 5 23 9 26 29 19 17 -6 24 -20 31 -57z m66 -50 c26 -41 17 -60 -11 -25 -17
20 -27 61 -15 61 2 0 14 -16 26 -36z"/>
<path d="M7343 5713 c9 -2 23 -2 30 0 6 3 -1 5 -18 5 -16 0 -22 -2 -12 -5z"/>
<path d="M7322 5643 c21 -20 41 -33 45 -29 9 9 -51 66 -69 66 -7 0 4 -17 24
-37z"/>
<path d="M7110 5626 c0 -9 5 -16 10 -16 6 0 10 4 10 9 0 6 -4 13 -10 16 -5 3
-10 -1 -10 -9z"/>
<path d="M7193 4343 l-103 -65 0 -234 0 -234 83 -54 c94 -61 560 -357 687
-436 111 -70 993 -606 1046 -637 l42 -23 123 66 c68 36 130 70 136 76 10 8 13
66 13 232 l-1 221 -57 35 c-31 19 -179 109 -330 200 l-273 165 -3 105 c-2 84
-8 118 -29 172 -52 135 -148 252 -248 304 -43 22 -68 28 -120 29 -56 0 -76 -5
-144 -39 -46 -23 -99 -59 -126 -86 l-47 -47 -93 57 c-52 31 -168 103 -258 159
-90 55 -171 101 -180 100 -9 -1 -62 -30 -118 -66z m331 -106 c94 -61 203 -128
242 -149 l71 -38 -9 -49 c-5 -29 -5 -73 1 -108 5 -32 8 -59 7 -60 -1 -2 -69
40 -152 92 -82 53 -235 148 -341 213 -106 64 -191 120 -190 125 1 4 38 29 82
56 63 38 84 46 99 38 10 -5 96 -59 190 -120z m695 -22 c119 -42 229 -177 276
-339 24 -84 18 -244 -11 -283 -19 -26 -94 -76 -102 -69 -2 2 6 31 18 65 36
107 23 224 -37 349 -59 120 -186 230 -287 248 l-41 7 40 18 c49 23 89 24 144
4z m-996 -52 c45 -26 165 -100 266 -166 101 -66 224 -143 274 -171 88 -50 91
-53 128 -125 60 -119 178 -225 281 -252 40 -11 55 -10 108 4 l61 17 157 -98
c150 -95 329 -203 420 -252 l42 -24 0 -188 c0 -168 -2 -188 -17 -188 -9 0 -50
22 -92 49 -42 26 -368 227 -726 446 -357 219 -728 447 -822 507 l-173 109 0
190 c0 104 2 189 5 189 3 0 43 -21 88 -47z m885 -28 c106 -32 211 -149 252
-283 25 -81 27 -209 4 -259 -23 -48 -75 -84 -129 -91 -102 -11 -240 97 -310
242 -82 171 -67 337 35 388 43 22 81 23 148 3z m697 -678 c83 -50 192 -117
243 -151 85 -55 91 -62 75 -74 -28 -21 -151 -82 -166 -82 -15 0 -524 302 -545
324 -11 11 -6 17 33 36 27 13 59 39 74 60 l26 38 55 -31 c30 -16 123 -71 205
-120z m373 -454 l-3 -168 -85 -47 c-47 -27 -88 -48 -92 -48 -5 0 -8 82 -8 183
l0 183 87 47 c70 36 89 43 96 32 4 -8 6 -90 5 -182z"/>
<path d="M7260 4000 c0 -10 60 -50 308 -207 160 -101 172 -107 172 -90 0 19
-443 307 -472 307 -5 0 -8 -5 -8 -10z"/>
<path d="M8410 3298 c0 -12 130 -99 314 -210 77 -47 106 -57 106 -39 0 15
-390 261 -413 261 -4 0 -7 -6 -7 -12z"/>
<path d="M8021 4009 c-44 -41 -51 -94 -23 -171 26 -72 74 -132 124 -156 61
-30 89 -28 123 8 25 26 29 39 29 83 0 90 -54 189 -128 232 -52 30 -95 32 -125
4z m127 -39 c73 -52 116 -167 89 -232 -19 -45 -46 -54 -92 -32 -103 49 -168
200 -114 268 27 35 65 34 117 -4z"/>
<path d="M6379 3597 c-68 -40 -603 -361 -1189 -713 -586 -352 -1125 -675
-1199 -718 -154 -90 -181 -114 -181 -163 0 -52 14 -68 93 -114 270 -157 1117
-674 1747 -1067 146 -91 289 -177 319 -190 68 -31 132 -38 191 -19 25 7 497
283 1050 612 553 329 1118 664 1255 745 277 164 315 193 315 239 0 49 15 39
-560 391 -364 223 -392 242 -435 295 l-38 46 21 45 c38 78 22 137 -45 168 -43
19 -70 13 -124 -25 l-29 -21 -38 23 c-20 13 -68 44 -107 69 -38 26 -75 49 -81
53 -6 3 -29 -3 -51 -14 l-41 -20 -49 35 c-53 38 -682 416 -693 416 -3 0 -62
-33 -131 -73z m214 -19 c83 -52 411 -249 545 -327 39 -23 72 -46 72 -51 0 -9
-95 -70 -110 -70 -5 0 -49 26 -97 57 -105 67 -365 226 -445 272 l-58 32 -377
-227 c-522 -314 -1903 -1147 -1988 -1200 -125 -76 -130 -58 51 -166 87 -52
431 -261 764 -465 333 -203 712 -435 843 -514 131 -79 248 -150 260 -158 20
-12 32 -7 137 59 63 40 198 121 300 180 102 59 520 310 930 557 410 247 807
484 883 527 75 43 142 86 148 97 30 56 5 77 -334 282 -133 80 -264 160 -291
177 l-49 32 41 18 c41 19 46 26 43 63 -1 9 0 17 3 17 3 0 114 -68 248 -152
134 -83 281 -173 328 -201 166 -97 300 -190 300 -208 0 -19 -125 -96 -645
-401 -272 -160 -1431 -847 -1726 -1024 -222 -133 -257 -146 -337 -125 -55 15
-169 83 -984 583 -370 228 -778 476 -906 553 -128 76 -246 151 -264 165 -63
53 -71 47 504 390 288 172 622 374 743 449 121 76 258 159 305 186 47 27 265
158 485 291 340 205 582 350 593 353 1 1 39 -22 85 -51z m-35 -165 c174 -101
503 -312 532 -341 44 -44 368 -250 820 -520 467 -278 528 -320 515 -353 -3 -8
-94 -66 -203 -129 -108 -63 -595 -353 -1081 -644 -486 -292 -926 -555 -977
-584 l-93 -54 -108 64 c-59 36 -306 186 -548 335 -492 302 -1044 637 -1209
734 -60 35 -110 69 -110 74 -1 10 364 232 819 499 116 68 518 309 895 535 377
226 689 411 693 411 5 0 29 -12 55 -27z m909 -290 l102 -65 46 33 c70 50 115
44 132 -20 9 -37 -26 -97 -56 -93 -18 2 -21 -1 -14 -10 5 -7 35 -44 66 -82 88
-108 95 -156 26 -171 -32 -7 -58 7 -384 213 -210 133 -250 161 -238 172 4 5
46 31 92 59 96 58 74 61 228 -36z"/>
<path d="M6517 3254 c-4 -4 -7 -17 -7 -30 0 -16 18 -34 68 -67 117 -79 1181
-747 1331 -836 79 -47 144 -90 143 -96 0 -5 -72 -53 -159 -105 -87 -53 -295
-178 -463 -279 -168 -101 -318 -192 -333 -203 -15 -11 -35 -17 -43 -14 -9 3
-172 102 -362 219 -483 298 -500 307 -490 275 4 -10 659 -428 822 -523 l38
-23 133 83 c73 46 305 187 516 314 211 127 390 234 397 239 34 22 12 38 -423
302 -347 211 -1129 701 -1133 711 -9 21 -29 39 -35 33z"/>
<path d="M6260 3082 c-63 -37 -116 -74 -118 -83 -6 -30 364 -265 402 -255 29
7 186 102 211 127 l20 20 -42 38 c-48 43 -328 221 -346 220 -7 0 -64 -31 -127
-67z m309 -77 l164 -106 -89 -60 c-49 -32 -96 -59 -105 -59 -16 0 -303 171
-344 205 -11 9 -15 18 -10 21 6 2 53 29 105 59 52 30 100 53 105 51 6 -2 84
-52 174 -111z"/>
<path d="M5780 2767 c-183 -107 -240 -145 -240 -162 0 -20 44 -51 249 -175
166 -100 173 -103 204 -92 41 15 329 180 364 208 l27 22 -114 75 c-135 88
-328 197 -350 197 -8 0 -71 -33 -140 -73z m366 -83 c107 -64 193 -118 191
-120 -2 -2 -81 -48 -177 -103 l-174 -100 -35 15 c-91 38 -387 223 -374 234 4
4 82 51 173 104 100 59 172 95 183 92 10 -2 106 -57 213 -122z"/>
<path d="M4909 2347 c-113 -67 -251 -148 -305 -180 -132 -77 -143 -86 -124
-98 8 -5 175 -105 370 -222 195 -118 492 -297 660 -398 541 -328 647 -389 672
-389 20 0 542 312 577 345 l23 23 -63 45 c-35 25 -194 126 -354 224 -334 207
-845 527 -973 610 -101 66 -263 163 -271 163 -4 0 -99 -55 -212 -123z m295 36
c43 -27 274 -172 514 -323 240 -151 502 -315 582 -364 195 -118 420 -267 420
-276 0 -4 -14 -13 -32 -21 -17 -7 -88 -49 -157 -92 -320 -202 -332 -209 -355
-205 -19 4 -1577 931 -1629 970 -15 12 5 26 180 130 109 65 239 142 288 172
50 30 95 55 101 55 6 1 45 -20 88 -46z"/>
<path d="M5055 2216 c-179 -69 -215 -87 -215 -109 0 -50 50 -102 208 -214 99
-71 112 -70 278 23 196 110 180 99 165 118 -31 38 -323 206 -356 205 -11 0
-47 -10 -80 -23z m230 -81 c72 -42 141 -84 154 -94 l24 -18 -89 -50 c-163 -92
-186 -103 -214 -103 -60 0 -296 186 -288 227 3 18 224 112 263 113 12 0 79
-34 150 -75z"/>
<path d="M5610 1851 c0 -12 64 -56 275 -188 234 -146 433 -263 447 -263 27 0
-36 44 -242 170 -118 73 -268 166 -333 206 -129 82 -147 91 -147 75z"/>
<path d="M5490 1712 c0 -14 41 -47 95 -78 28 -15 133 -80 235 -143 181 -113
347 -211 356 -211 2 0 4 6 4 13 0 14 -66 57 -381 248 -245 149 -309 184 -309
171z"/>
<path d="M6666 2431 c64 -58 723 -466 735 -454 13 13 -700 463 -733 463 -7 0
-8 -3 -2 -9z"/>
<path d="M6520 2330 c0 -12 48 -44 270 -182 102 -63 230 -144 285 -180 115
-75 185 -112 185 -99 0 5 -46 40 -102 78 -221 150 -638 400 -638 383z"/>
<path d="M6360 2231 c0 -6 42 -35 93 -67 50 -31 215 -133 365 -227 246 -153
322 -192 266 -137 -38 37 -693 440 -716 440 -5 0 -8 -4 -8 -9z"/>
<path d="M3246 2095 c-6 -16 -17 -17 -109 -11 -218 15 -206 17 -241 -32 -38
-52 -88 -87 -139 -96 -57 -11 -77 -36 -77 -97 0 -28 5 -59 11 -70 8 -16 6 -29
-10 -60 -15 -29 -21 -58 -21 -109 0 -65 13 -97 29 -71 10 16 104 -53 136 -100
14 -22 41 -47 60 -56 34 -16 36 -16 59 6 24 22 26 23 88 9 57 -12 63 -16 66
-41 3 -25 7 -27 47 -27 55 0 92 14 97 36 2 13 23 23 73 36 70 17 70 17 86 -4
13 -16 22 -19 45 -14 36 9 64 34 64 57 0 20 42 58 106 95 44 26 44 26 44 83 0
45 -4 62 -20 76 -24 22 -27 80 -5 132 21 49 19 67 -11 102 -21 25 -33 31 -67
31 -47 0 -142 52 -150 81 -7 26 -49 49 -104 56 -42 4 -51 3 -57 -12z m97 -24
c14 -6 28 -19 32 -31 4 -11 36 -40 72 -64 55 -38 70 -43 102 -39 32 4 41 1 55
-18 32 -46 13 -78 -26 -42 -17 15 -18 15 -18 0 0 -9 11 -56 25 -103 30 -102
29 -94 10 -94 -8 0 -34 -20 -57 -46 -50 -52 -103 -88 -118 -79 -6 4 -62 -6
-124 -20 l-114 -27 9 -32 c5 -17 9 -48 9 -68 0 -33 -3 -38 -22 -38 -41 0 -53
16 -53 67 0 26 3 54 5 62 6 18 -70 37 -187 47 -70 6 -83 10 -83 24 0 19 -47
65 -111 107 -32 21 -39 31 -34 47 3 12 9 41 12 66 3 25 12 53 20 62 18 20 9
38 -18 38 -36 0 -14 25 27 30 43 6 164 84 164 106 0 37 88 62 117 33 18 -18
214 -12 233 7 17 16 39 18 73 5z m-569 -452 c58 -45 66 -55 66 -85 0 -36 -10
-43 -30 -19 -6 8 -36 30 -66 50 -48 32 -54 40 -54 71 0 18 4 34 9 34 4 0 38
-23 75 -51z m858 -4 c-9 -17 -104 -95 -115 -95 -4 0 -11 8 -14 17 -5 12 10 32
52 70 54 49 61 52 72 37 7 -9 9 -23 5 -29z m-152 -124 c0 -35 -4 -51 -16 -55
-27 -11 -42 -7 -47 13 -5 19 -8 19 -63 6 -33 -8 -76 -17 -96 -21 -37 -6 -38
-6 -38 23 0 28 2 29 92 51 60 15 94 19 98 12 4 -6 13 -5 26 5 34 26 44 18 44
-34z m-560 29 c0 -5 23 -10 51 -10 72 0 139 -19 139 -39 0 -36 -13 -41 -72
-29 -45 9 -64 9 -96 -1 -61 -20 -82 -9 -82 45 0 42 1 44 30 44 17 0 30 -4 30
-10z"/>
<path d="M3050 1955 c-115 -33 -174 -87 -175 -161 0 -87 88 -163 215 -183 87
-14 162 -4 238 31 83 39 117 87 109 155 -4 41 -12 54 -52 90 -76 69 -223 99
-335 68z m246 -44 c97 -42 132 -105 96 -171 -19 -36 -74 -80 -98 -80 -24 0
-15 15 20 34 19 10 42 33 52 51 16 30 16 37 3 71 -12 32 -26 44 -74 69 -52 26
-69 30 -144 30 -70 0 -94 -4 -126 -22 -66 -37 -78 -51 -84 -93 -8 -53 -26 -51
-25 2 1 35 7 47 38 74 76 65 235 82 342 35z m-126 -35 c0 -8 -10 -16 -22 -18
-40 -5 -25 -23 22 -26 35 -2 50 -9 67 -30 21 -25 24 -26 39 -10 16 15 15 18
-15 45 -35 33 -32 47 8 32 77 -30 95 -99 38 -144 -82 -61 -230 -54 -299 15
-44 44 -46 59 -15 95 35 41 177 74 177 41z m-105 -205 c45 -14 78 -18 135 -14
63 5 73 3 62 -8 -29 -31 -255 -5 -277 32 -9 14 13 11 80 -10z"/>
<path d="M4034 1308 c-12 -5 -27 -20 -34 -33 -6 -12 -36 -32 -66 -45 -50 -20
-73 -21 -116 -5 -18 7 -118 -91 -118 -115 0 -10 7 -23 15 -30 8 -7 15 -27 15
-46 0 -25 -7 -38 -30 -54 -29 -21 -30 -24 -30 -104 l0 -83 65 -38 c56 -33 65
-42 65 -67 0 -23 8 -32 51 -54 41 -21 53 -23 60 -12 5 7 9 16 9 21 0 24 118
-14 150 -49 19 -20 33 -24 78 -24 44 0 59 4 76 23 28 30 140 56 165 39 30 -22
39 -23 75 -8 30 12 36 20 36 45 0 33 33 63 92 83 18 6 36 16 40 22 12 18 9 87
-7 146 -20 74 -19 90 5 90 17 0 20 7 20 49 0 58 -16 75 -62 69 -46 -7 -109 38
-97 70 12 33 2 49 -42 66 -48 19 -98 20 -121 2 -26 -19 -125 0 -161 30 -31 26
-94 32 -133 12z m115 -42 c34 -33 184 -52 208 -27 13 13 20 13 57 0 37 -13 41
-17 39 -46 -3 -27 4 -36 46 -67 35 -26 59 -36 85 -36 26 0 36 -4 36 -16 0 -9
-9 -18 -21 -21 -19 -5 -20 -10 -14 -77 l7 -72 -63 -54 c-35 -30 -72 -61 -82
-69 -10 -8 -32 -14 -49 -13 -17 1 -53 -5 -80 -14 -27 -8 -83 -22 -126 -29 -76
-13 -77 -13 -142 15 -36 15 -94 34 -129 41 -54 10 -69 18 -100 51 -20 22 -55
48 -78 59 -30 13 -43 24 -43 39 0 13 7 20 19 20 25 0 29 6 47 75 18 72 18 75
-5 75 -35 0 -31 16 13 59 42 42 45 42 71 28 26 -13 34 -12 103 16 40 17 76 37
79 46 18 49 80 57 122 17z m-367 -444 c42 -40 48 -50 36 -60 -23 -19 -108 44
-108 81 0 15 5 27 11 27 6 0 33 -22 61 -48z m828 9 c0 -25 -8 -34 -56 -60 -44
-26 -59 -41 -74 -77 -15 -33 -25 -44 -37 -42 -12 3 -17 12 -16 26 3 27 -17 29
-24 2 -4 -15 -11 -18 -28 -14 -12 3 -42 0 -66 -6 -24 -6 -61 -16 -81 -21 -21
-5 -38 -16 -38 -23 0 -16 -41 -29 -64 -20 -8 3 -18 14 -21 23 -5 17 -92 51
-129 51 -9 0 -27 7 -41 16 -22 14 -24 14 -35 -5 -12 -24 -42 -28 -58 -8 -10
12 -5 97 6 97 17 0 219 -63 229 -72 17 -14 136 -4 213 17 30 8 73 15 95 15 34
0 55 10 129 65 48 36 90 65 92 65 2 0 4 -13 4 -29z"/>
<path d="M4061 1155 c-107 -30 -161 -84 -161 -160 0 -58 37 -107 107 -142 52
-25 68 -28 159 -28 92 0 105 3 159 30 194 99 108 298 -134 311 -49 3 -95 -1
-130 -11z m240 -48 c59 -26 87 -59 96 -113 5 -31 1 -39 -36 -74 -53 -51 -74
-42 -26 11 46 51 46 81 -3 129 -32 33 -45 38 -102 45 -36 5 -81 7 -100 6 -130
-7 -198 -78 -159 -165 17 -37 99 -68 192 -74 84 -5 88 -22 7 -22 -74 0 -143
23 -194 64 -40 33 -46 43 -46 76 0 121 212 188 371 117z m-69 -27 c51 -15 98
-56 98 -86 0 -68 -134 -114 -244 -83 -45 12 -96 58 -96 86 0 64 139 111 242
83z"/>
<path d="M4106 1041 c-6 -10 37 -31 63 -31 21 0 44 23 34 33 -9 10 -91 8 -97
-2z"/>
</g>
</svg>
