<?xml version="1.0" standalone="no"?>
<!DOCTYPE svg PUBLIC "-//W3C//DTD SVG 20010904//EN"
 "http://www.w3.org/TR/2001/REC-SVG-20010904/DTD/svg10.dtd">
<svg version="1.0" xmlns="http://www.w3.org/2000/svg"
 width="2048.000000pt" height="1024.000000pt" viewBox="0 0 2048.000000 1024.000000"
 preserveAspectRatio="xMidYMid meet">

<g transform="translate(0.000000,1024.000000) scale(0.100000,-0.100000)"
fill="#38d8d2" stroke="none">
<path d="M5165 7273 c-730 -63 -1348 -305 -1890 -739 -296 -237 -556 -531
-743 -840 -71 -119 -165 -304 -158 -311 3 -3 52 10 108 30 57 20 122 41 145
47 39 10 46 17 94 98 156 260 374 510 640 732 517 432 1109 680 1767 740 285
26 719 0 965 -59 320 -76 681 -227 967 -402 600 -368 1113 -1028 1320 -1697
26 -84 36 -105 58 -116 15 -8 83 -55 151 -106 68 -50 125 -89 128 -87 2 3 -5
42 -17 87 -110 429 -298 847 -535 1185 -281 401 -623 724 -1020 962 -422 254
-929 423 -1404 468 -137 13 -465 18 -576 8z"/>
<path d="M9433 6675 c-192 -42 -336 -196 -364 -388 -37 -250 109 -471 354
-533 101 -26 218 -15 309 29 40 19 88 48 107 64 l35 30 -49 66 -48 66 -31 -29
c-93 -91 -259 -103 -379 -28 -125 80 -172 261 -102 403 78 161 292 214 451
114 25 -17 47 -29 48 -27 1 2 24 29 50 61 l49 59 -29 23 c-47 39 -145 83 -208
94 -75 14 -115 13 -193 -4z"/>
<path d="M11040 6220 l0 -470 80 0 80 0 2 283 3 282 293 -290 c161 -159 297
-291 302 -293 6 -2 10 94 10 266 0 148 3 357 7 465 l6 197 -86 0 -87 0 0 -282
0 -283 -298 298 c-164 163 -301 297 -305 297 -4 0 -7 -211 -7 -470z"/>
<path d="M10271 6664 c-81 -22 -149 -62 -217 -129 -73 -72 -110 -147 -124
-248 -31 -217 72 -412 263 -503 224 -106 489 -37 622 162 62 91 78 155 73 279
-4 92 -8 110 -41 179 -100 210 -347 322 -576 260z m242 -160 c60 -20 135 -88
172 -156 27 -48 30 -62 30 -143 0 -78 -4 -97 -27 -141 -57 -108 -156 -167
-278 -168 -128 0 -235 66 -290 179 -19 41 -24 66 -24 135 -1 76 3 91 29 138
36 66 111 135 168 155 56 20 162 21 220 1z"/>
<path d="M13763 6665 c-146 -32 -271 -130 -335 -263 -28 -58 -33 -80 -36 -166
-5 -120 14 -201 67 -284 130 -201 393 -269 620 -160 75 36 167 131 209 217 37
75 37 77 37 202 0 124 0 126 -37 200 -68 138 -200 236 -348 259 -81 12 -99 12
-177 -5z m198 -165 c21 -6 57 -25 81 -43 152 -116 165 -340 27 -475 -64 -63
-118 -85 -203 -85 -91 0 -157 28 -219 91 -64 65 -90 129 -90 217 0 117 49 209
141 262 87 51 160 60 263 33z"/>
<path d="M11910 6585 l0 -75 110 0 110 0 0 -386 0 -385 78 3 77 3 3 383 2 382
110 0 110 0 0 75 0 75 -300 0 -300 0 0 -75z"/>
<path d="M12625 6648 c-3 -7 -4 -213 -3 -458 l3 -445 80 0 80 0 1 155 1 155
86 3 86 3 54 -93 c30 -51 69 -121 88 -155 l33 -63 97 0 98 0 -43 73 c-24 39
-71 115 -105 167 l-63 95 24 15 c101 66 148 147 148 256 0 127 -51 218 -154
272 -50 27 -53 27 -279 30 -181 3 -228 1 -232 -10z m437 -161 c50 -27 72 -74
66 -144 -4 -42 -11 -60 -33 -83 -38 -40 -79 -50 -201 -50 -122 0 -114 -12
-114 172 l0 127 33 4 c71 10 211 -5 249 -26z"/>
<path d="M14472 6208 l3 -453 250 0 250 0 3 73 3 72 -171 0 -170 0 0 380 0
380 -85 0 -85 0 2 -452z"/>
<path d="M4370 5570 c-485 -38 -994 -159 -1985 -472 -104 -33 -223 -71 -263
-85 l-74 -26 7 -121 c5 -91 3 -139 -8 -196 -8 -41 -18 -113 -22 -160 -4 -47
-14 -116 -22 -155 -55 -258 -15 -468 120 -625 115 -134 296 -228 475 -245 l70
-7 16 -72 c25 -107 87 -224 164 -308 74 -79 139 -124 240 -168 l67 -29 -617
-1 -618 0 0 -40 0 -40 1783 -2 c2868 -3 12588 -3 13840 0 l1147 2 0 35 0 35
-5442 1 c-2994 1 -5447 2 -5453 4 -5 1 -35 3 -65 4 l-55 2 66 28 c138 59 254
169 316 301 l38 79 91 1 c112 0 251 23 370 61 143 46 175 92 113 164 l-32 36
14 107 c17 129 17 424 1 507 -27 135 -110 249 -228 312 -123 65 -396 143 -694
197 -155 28 -268 42 -501 60 l-166 13 -109 68 c-60 38 -221 129 -359 202 -669
359 -935 458 -1397 519 -141 19 -658 27 -828 14z m217 -121 c-4 -29 -8 -54
-10 -56 -3 -2 -69 -8 -148 -13 -285 -19 -484 -47 -706 -100 -213 -51 -1158
-330 -1172 -347 -3 -3 1 -4 10 0 9 3 156 40 325 81 170 42 323 80 340 85 29 8
37 4 86 -38 30 -25 77 -64 106 -85 34 -26 56 -52 63 -75 12 -37 7 -168 -9
-210 l-9 -24 -244 0 c-219 0 -230 0 -109 -7 74 -4 183 -8 241 -9 l107 -1 46
-92 c25 -51 73 -130 106 -176 33 -46 60 -85 60 -86 0 -2 -27 7 -59 20 -33 13
-83 29 -112 34 -157 30 -372 -10 -511 -95 -31 -19 -60 -35 -66 -35 -5 0 -76
68 -156 151 l-146 150 45 45 c48 46 109 160 103 190 -5 27 -408 104 -540 104
l-98 0 0 35 c0 32 3 35 43 45 23 6 87 26 142 45 102 34 404 128 595 185 58 18
146 45 197 61 151 47 669 177 813 203 118 21 320 48 445 59 22 2 82 4 134 5
l94 2 -6 -51z m470 40 c403 -34 706 -125 1148 -346 257 -128 604 -315 742
-399 l102 -62 118 -6 c355 -21 663 -71 961 -157 234 -67 332 -118 386 -201 19
-29 33 -54 32 -55 -1 -1 -38 13 -82 32 -112 48 -163 59 -482 105 -595 84
-1017 131 -1152 129 -39 -1 12 -8 130 -19 237 -22 407 -42 690 -81 260 -36
260 -36 260 -60 0 -23 239 -235 294 -260 33 -15 66 -19 170 -19 71 0 146 -5
167 -11 36 -11 38 -14 44 -63 4 -28 5 -80 3 -116 -3 -64 -3 -65 -33 -68 -108
-11 -176 -62 -201 -150 -18 -61 -14 -115 12 -143 14 -16 32 -19 114 -19 68 0
102 -4 116 -14 17 -13 17 -16 4 -29 -32 -31 -226 -77 -322 -77 l-51 0 7 88
c21 290 -99 554 -321 702 -114 76 -205 102 -385 108 -174 5 -255 -9 -374 -67
-221 -107 -379 -310 -439 -562 l-25 -104 6 200 c3 110 6 348 7 529 l2 328 -50
46 c-230 209 -718 498 -1015 600 -252 86 -417 112 -773 119 l-269 6 6 30 c3
16 6 40 6 53 l0 24 159 0 c88 0 218 -5 288 -11z m-328 -292 c55 -265 90 -462
83 -468 -6 -5 -365 7 -696 23 l-58 3 -99 245 c-54 135 -99 250 -99 257 0 30
419 79 781 91 l56 2 32 -153z m381 143 c248 -23 424 -66 656 -161 117 -48 335
-164 466 -248 l63 -41 -48 0 c-59 0 -82 -12 -103 -52 -16 -31 -16 -111 1 -150
9 -22 5 -23 -380 -3 -159 8 -374 18 -478 22 -115 4 -191 10 -196 17 -5 6 -19
49 -31 96 -11 47 -48 182 -81 301 -32 119 -59 219 -59 222 0 10 57 9 190 -3z
m-1351 -197 c61 -196 111 -365 111 -374 0 -15 -58 -10 -93 7 -76 39 -430 308
-452 344 -3 5 21 16 52 26 62 18 334 92 345 93 3 1 20 -43 37 -96z m-3 -400
c37 -16 87 -24 204 -32 227 -16 727 -41 830 -41 65 0 92 -4 104 -15 17 -17 46
-111 53 -171 l5 -41 -153 3 -154 2 153 -8 c84 -4 154 -9 156 -11 13 -14 38
-289 43 -476 l6 -223 -184 -2 -184 -2 165 -6 c91 -4 173 -8 183 -9 14 -1 17
-12 17 -76 l0 -75 -87 -1 c-49 -1 -196 -5 -328 -8 l-240 -7 322 -2 322 -2 4
-22 4 -23 8 23 7 22 302 0 c272 0 500 -6 986 -26 91 -4 163 -4 160 -1 -9 10
-676 36 -1055 42 -209 2 -383 5 -387 5 -10 0 -10 42 -1 105 l6 47 116 -6 c243
-14 565 -37 799 -57 134 -11 248 -19 254 -17 30 10 -703 72 -998 84 l-171 7
-7 191 c-4 105 -11 234 -16 286 -5 52 -13 126 -16 163 l-7 69 84 -7 c60 -5 90
-13 104 -26 46 -41 125 -51 194 -23 31 12 50 13 97 5 112 -20 626 -82 637 -77
7 2 4 5 -5 5 -26 1 -532 69 -611 82 -50 8 -66 14 -58 22 18 18 13 52 -12 75
-35 33 -91 52 -152 52 -90 0 -137 -36 -120 -92 7 -20 6 -21 -55 -15 -35 4 -73
7 -84 7 -19 0 -25 11 -45 98 -12 53 -25 103 -28 110 -6 15 111 16 332 2 83 -5
283 -16 445 -24 162 -9 376 -21 475 -26 99 -6 254 -12 345 -14 l165 -4 3 -109
c3 -100 -16 -1074 -21 -1079 -1 -1 -43 2 -92 6 -276 26 -962 44 -1673 45
l-742 0 0 41 c0 59 -27 208 -51 284 -29 90 -99 220 -160 296 -45 57 -182 178
-216 191 -32 12 -243 345 -243 383 0 5 8 11 18 11 15 1 15 2 -1 6 -17 4 -18
11 -10 71 4 37 7 93 6 124 l-3 57 104 -73 c57 -40 125 -82 152 -93z m-1296 52
c58 -15 107 -29 109 -30 6 -7 -41 -135 -57 -155 -17 -20 -17 -20 -191 5 -96
14 -178 28 -182 31 -11 6 -12 61 -1 67 4 3 59 -4 122 -14 145 -24 150 -23 150
1 0 22 -25 30 -164 54 -49 9 -94 20 -99 25 -5 5 -4 18 3 31 12 22 16 23 109
17 53 -3 143 -18 201 -32z m3920 4 c37 -8 74 -28 133 -72 75 -57 79 -62 56
-68 -32 -9 -226 -11 -311 -3 -63 6 -68 8 -78 37 -16 49 -12 84 12 101 27 19
114 21 188 5z m-3675 -55 c8 -4 15 -14 15 -23 0 -23 -53 -111 -84 -140 -24
-22 -28 -23 -71 -11 -25 7 -45 16 -45 20 0 4 11 27 24 51 13 24 29 61 36 83
l12 38 49 -6 c27 -4 56 -9 64 -12z m-344 -164 c173 -22 227 -36 209 -54 -12
-12 -443 -16 -455 -4 -4 4 -4 25 0 48 l7 41 41 -6 c23 -3 112 -14 198 -25z
m468 -439 c-146 -133 -237 -307 -274 -523 -3 -21 -12 -38 -19 -38 -20 0 -117
35 -163 58 -47 24 -44 16 -67 228 -8 74 -21 145 -30 163 -25 48 -74 98 -143
148 -72 51 -70 42 -43 198 11 61 20 111 20 112 0 1 93 1 208 0 176 -2 212 1
242 15 l35 16 152 -156 152 -157 -70 -64z m2508 364 c44 -19 73 -43 73 -62 0
-25 -44 -31 -146 -20 -96 12 -99 13 -102 39 -4 36 30 58 91 58 26 0 64 -7 84
-15z m-42 -109 c50 -12 50 -12 18 -20 -33 -8 -108 8 -118 24 -8 13 37 11 100
-4z m2879 -50 c41 -10 65 -22 84 -44 31 -35 129 -112 143 -112 23 0 6 37 -25
54 -19 10 -49 34 -68 53 l-33 34 30 -7 c66 -15 190 -68 213 -91 13 -13 27 -21
32 -18 5 3 11 -7 14 -22 13 -73 16 -103 11 -103 -3 0 -33 11 -67 25 -65 26
-135 31 -215 16 -24 -5 -53 -6 -66 -4 -44 9 -247 193 -247 225 0 19 4 20 68
14 37 -4 94 -13 126 -20z m-4642 -25 c206 -53 402 -218 506 -426 55 -111 102
-298 102 -407 0 -48 0 -48 -33 -48 l-34 0 -6 93 c-17 245 -108 435 -273 571
-111 92 -276 156 -398 156 -109 0 -257 -36 -357 -86 l-46 -23 -27 28 -27 29
34 21 c160 99 386 136 559 92z m4130 -56 c101 -21 152 -41 228 -90 157 -101
265 -261 305 -453 21 -96 20 -296 -1 -316 -8 -9 -19 -14 -23 -11 -5 2 -9 58
-9 122 0 143 -22 237 -84 355 -74 143 -211 263 -364 320 -51 19 -80 22 -209
22 -128 1 -160 -2 -220 -21 -189 -60 -364 -223 -452 -421 -32 -73 -61 -196
-69 -298 l-7 -84 -33 0 c-41 0 -42 3 -14 156 45 247 104 372 247 516 101 104
224 171 368 203 82 18 248 18 337 0z m-4147 -60 c190 -50 357 -196 442 -387
20 -45 7 -32 -26 27 -41 73 -158 195 -235 245 -34 22 -97 52 -141 67 -68 22
-98 27 -195 27 -100 0 -125 -4 -194 -27 -87 -31 -198 -92 -252 -139 -19 -17
-37 -28 -40 -26 -13 13 174 143 255 177 115 48 279 64 386 36z m-564 -41 l24
-25 -45 -37 c-142 -116 -245 -285 -265 -438 -13 -101 -15 -104 -43 -104 -50 0
-55 10 -42 81 34 196 120 354 267 489 36 33 69 60 73 60 3 0 17 -12 31 -26z
m-809 -38 c93 -77 107 -105 123 -239 7 -61 16 -129 20 -149 4 -21 4 -38 0 -38
-4 0 -26 16 -50 35 -59 49 -111 127 -140 211 -25 73 -45 234 -28 234 5 0 39
-24 75 -54z m1353 -168 c177 -57 307 -233 322 -436 11 -133 -44 -261 -154
-364 -96 -89 -195 -122 -348 -116 -94 3 -108 6 -178 41 -367 181 -362 678 8
853 117 56 225 63 350 22z m4098 -13 c89 -19 159 -57 228 -125 150 -148 181
-374 76 -552 -56 -96 -190 -190 -307 -217 -149 -34 -297 11 -424 130 -112 104
-160 241 -137 390 15 94 50 158 131 239 72 73 147 114 244 135 80 18 107 18
189 0z m971 -141 c20 -8 20 -42 1 -158 -8 -49 -12 -93 -8 -99 4 -6 -25 -8 -81
-5 -99 5 -106 10 -106 78 1 87 50 155 130 178 45 13 45 13 64 6z m-3029 -444
c375 -9 662 -23 1108 -51 l188 -12 29 28 c30 28 50 27 50 -4 0 -40 74 -165
137 -231 75 -80 135 -121 236 -161 l72 -28 -1899 -1 -1898 0 83 42 c120 59
228 169 288 293 24 50 47 97 51 105 6 13 57 16 336 20 610 10 818 10 1219 0z"/>
<path d="M4743 5433 c54 -2 139 -2 190 0 51 1 7 3 -98 3 -104 0 -146 -2 -92
-3z"/>
<path d="M5128 5419 c51 -5 152 -20 225 -34 72 -13 133 -22 135 -21 11 11
-256 56 -363 61 l-90 4 93 -10z"/>
<path d="M5615 5320 c66 -21 121 -37 123 -35 5 4 -213 75 -230 74 -7 0 41 -18
107 -39z"/>
<path d="M5789 5259 c24 -11 46 -18 48 -15 4 4 -73 36 -85 35 -4 0 13 -9 37
-20z"/>
<path d="M5890 5215 c25 -13 50 -24 55 -24 6 0 -10 11 -35 24 -25 13 -49 24
-55 24 -5 0 10 -11 35 -24z"/>
<path d="M3788 4640 c-46 -14 -88 -49 -88 -75 0 -22 41 -65 62 -65 6 0 23 -11
40 -25 34 -29 86 -32 133 -9 25 12 26 13 5 8 -55 -14 -99 -15 -119 -5 -38 21
-22 26 73 23 85 -4 96 -2 115 17 28 28 27 34 -14 79 -49 55 -131 75 -207 52z
m137 -29 c55 -25 82 -57 68 -79 -9 -14 -24 -16 -89 -14 -113 4 -157 11 -173
27 -13 13 -12 18 9 40 43 45 120 56 185 26z"/>
<path d="M6216 4521 c-8 -13 39 -23 72 -15 18 4 23 3 14 -4 -18 -12 98 -35
124 -25 13 6 1 10 -41 14 l-60 7 72 -1 c78 -2 101 7 60 22 -31 12 -234 14
-241 2z"/>
<path d="M4453 4453 c20 -2 54 -2 75 0 20 2 3 4 -38 4 -41 0 -58 -2 -37 -4z"/>
<path d="M6123 4293 c9 -2 25 -2 35 0 9 3 1 5 -18 5 -19 0 -27 -2 -17 -5z"/>
<path d="M6208 4283 c7 -3 16 -2 19 1 4 3 -2 6 -13 5 -11 0 -14 -3 -6 -6z"/>
<path d="M6238 3623 c12 -2 30 -2 40 0 9 3 -1 5 -23 4 -22 0 -30 -2 -17 -4z"/>
<path d="M6538 3503 c6 -2 18 -2 25 0 6 3 1 5 -13 5 -14 0 -19 -2 -12 -5z"/>
<path d="M3203 3884 c-29 -14 -53 -30 -53 -35 0 -6 14 -31 32 -56 17 -26 45
-73 61 -105 21 -42 34 -58 44 -54 8 3 19 6 24 6 16 0 9 34 -15 77 -25 43 -25
39 -2 166 5 23 2 27 -17 27 -12 -1 -46 -12 -74 -26z"/>
<path d="M3374 3889 c3 -13 8 -67 11 -119 10 -149 34 -157 145 -45 62 62 73
78 64 92 -17 27 -127 82 -178 89 -46 7 -47 6 -42 -17z"/>
<path d="M3020 3743 c-37 -42 -65 -100 -75 -156 l-7 -37 113 6 c63 3 121 8
129 11 8 4 21 5 28 4 17 -3 45 26 33 34 -5 3 -12 1 -16 -5 -11 -18 -25 -10
-25 15 0 27 -112 165 -134 165 -8 0 -29 -17 -46 -37z"/>
<path d="M3619 3679 c-36 -41 -53 -53 -91 -61 -56 -11 -73 -27 -55 -51 10 -14
18 -15 47 -7 20 6 74 7 128 4 90 -7 92 -7 92 15 0 26 -45 124 -63 140 -10 8
-24 -1 -58 -40z"/>
<path d="M3299 3571 c-22 -23 -29 -39 -29 -68 0 -55 31 -83 93 -83 43 0 49 3
67 33 11 17 20 42 20 54 0 84 -92 123 -151 64z m115 -43 c12 -48 -14 -88 -57
-88 -84 0 -90 114 -7 143 24 8 54 -18 64 -55z"/>
<path d="M3332 3554 c-26 -18 -30 -65 -6 -88 20 -21 30 -20 54 4 24 24 25 48
4 78 -18 26 -23 27 -52 6z m48 -23 c17 -32 11 -48 -9 -22 -12 16 -20 20 -25
12 -4 -7 -2 -19 5 -27 6 -8 9 -18 5 -22 -7 -7 -36 24 -36 39 0 11 30 39 40 39
5 0 14 -9 20 -19z"/>
<path d="M3205 3540 c-3 -5 3 -10 15 -10 12 0 18 5 15 10 -3 6 -10 10 -15 10
-5 0 -12 -4 -15 -10z"/>
<path d="M3202 3511 c2 -7 7 -12 11 -12 12 1 9 15 -3 20 -7 2 -11 -2 -8 -8z"/>
<path d="M3655 3496 c-27 -7 -62 -20 -77 -30 -24 -16 -29 -16 -62 -2 -20 8
-36 11 -36 6 0 -4 -3 -15 -6 -23 -4 -10 12 -25 50 -47 31 -17 79 -50 107 -72
41 -32 53 -38 61 -27 25 37 50 106 55 155 6 52 5 54 -18 53 -13 0 -46 -6 -74
-13z"/>
<path d="M3006 3473 l-69 -4 6 -39 c7 -56 42 -122 91 -177 l43 -47 13 24 c7
14 41 69 76 122 35 53 64 99 64 102 0 3 -9 6 -20 6 -11 0 -20 5 -20 10 0 10
-35 10 -184 3z"/>
<path d="M3413 3383 c-27 -14 -33 -23 -33 -49 0 -17 -6 -47 -14 -65 -8 -19
-17 -61 -21 -93 l-8 -59 64 5 c64 5 140 36 201 81 28 21 36 37 18 37 -5 0 -50
19 -100 41 -80 37 -90 45 -90 68 0 15 5 32 12 39 15 15 10 14 -29 -5z"/>
<path d="M3240 3364 c-25 -68 -36 -92 -66 -144 -18 -30 -30 -58 -28 -62 6 -9
94 -38 116 -38 17 0 18 7 12 83 -8 98 6 157 37 157 10 0 19 4 19 9 0 5 -10 9
-22 8 -13 0 -31 3 -40 7 -14 6 -20 1 -28 -20z"/>
<path d="M7517 3873 c-4 -3 -7 -60 -7 -125 l0 -118 30 0 c26 0 35 7 58 46 15
25 44 68 65 96 21 27 37 51 35 53 -15 13 -72 35 -116 44 -63 13 -57 13 -65 4z"/>
<path d="M7380 3864 c-39 -13 -90 -38 -90 -44 0 -3 11 -17 25 -30 14 -13 42
-50 63 -82 20 -32 42 -58 48 -58 7 0 14 36 18 96 4 53 10 102 13 110 4 10 -3
14 -28 13 -19 0 -41 -3 -49 -5z"/>
<path d="M7175 3729 c-28 -43 -75 -158 -75 -185 0 -14 13 -16 99 -12 62 2 105
9 115 17 13 11 17 10 26 -13 5 -14 12 -26 14 -26 9 0 57 103 51 108 -3 4 -20
1 -37 -6 -18 -6 -34 -8 -37 -4 -4 4 -30 42 -59 85 -29 42 -56 77 -61 77 -5 0
-21 -18 -36 -41z"/>
<path d="M7707 3683 c-37 -47 -67 -91 -67 -98 0 -29 36 -24 111 15 42 22 84
40 93 40 24 0 20 22 -12 66 -52 71 -50 72 -125 -23z"/>
<path d="M7560 3608 c1 -7 10 -24 21 -37 17 -21 22 -22 29 -11 6 10 4 22 -4
35 -16 23 -46 32 -46 13z"/>
<path d="M7850 3565 c-14 -8 -47 -22 -75 -31 -27 -9 -55 -23 -62 -31 -7 -9
-19 -13 -28 -9 -23 9 -65 -4 -65 -19 0 -24 30 -45 55 -39 17 4 42 -5 87 -32
35 -20 71 -44 80 -52 16 -13 19 -12 29 14 15 37 25 193 13 204 -5 5 -20 2 -34
-5z"/>
<path d="M7445 3540 c-21 -41 -19 -58 14 -91 36 -35 54 -36 86 -4 33 32 31 60
-4 96 -39 39 -76 39 -96 -1z"/>
<path d="M7106 3424 c18 -62 60 -137 95 -170 l29 -28 18 23 c46 64 92 148 90
166 -3 17 -17 22 -108 37 -151 24 -141 26 -124 -28z"/>
<path d="M7376 3424 c-4 -9 0 -24 9 -34 8 -9 15 -22 15 -29 0 -19 -56 -125
-84 -158 l-25 -30 65 -23 c36 -12 68 -19 72 -15 4 3 7 56 7 116 0 83 3 109 13
109 13 0 -46 79 -59 80 -4 0 -10 -7 -13 -16z"/>
<path d="M7607 3393 c-12 -11 -7 -25 6 -20 22 8 31 -3 72 -93 22 -47 40 -87
42 -89 4 -5 93 80 93 89 0 9 -178 120 -193 120 -7 0 -17 -3 -20 -7z"/>
<path d="M7555 3370 c-3 -6 1 -7 9 -4 18 7 21 14 7 14 -6 0 -13 -4 -16 -10z"/>
<path d="M7535 3300 c-6 -9 -65 -180 -65 -187 0 -2 22 -3 49 -3 50 0 151 27
151 40 0 5 -23 42 -52 84 -49 73 -69 88 -83 66z"/>
<path d="M17335 5566 c-73 -23 -182 -87 -244 -142 -59 -53 -141 -164 -141
-189 0 -21 341 -145 399 -145 16 0 37 10 49 23 19 21 22 34 22 118 0 52 -3
151 -7 222 -7 141 -4 136 -78 113z m37 -88 c5 -62 0 -69 -67 -93 -62 -22 -94
-44 -167 -113 -56 -53 -57 -54 -92 -42 -20 6 -36 16 -36 22 0 22 81 116 138
161 61 48 179 112 214 116 3 1 8 -23 10 -51z m0 -231 c-3 -78 -8 -110 -18
-114 -16 -6 -214 56 -214 67 0 4 27 32 59 63 60 55 160 113 171 100 4 -5 5
-57 2 -116z"/>
<path d="M17590 5352 c0 -311 -7 -304 244 -227 82 25 163 45 182 45 44 0 44
13 -2 100 -66 126 -204 245 -336 289 -34 12 -68 21 -75 21 -10 0 -13 -47 -13
-228z m118 149 c82 -41 171 -112 213 -168 45 -60 74 -111 68 -117 -3 -3 -23
-8 -44 -11 -39 -7 -41 -5 -72 39 -38 53 -134 127 -198 152 l-45 17 0 58 c0 34
4 59 10 59 6 0 36 -13 68 -29z m-6 -167 c57 -29 162 -127 156 -147 -5 -13
-149 -65 -183 -66 -12 -1 -26 4 -33 11 -15 15 -17 228 -2 228 6 0 34 -12 62
-26z"/>
<path d="M12329 5416 c-163 -45 -301 -186 -344 -351 -98 -378 277 -705 647
-565 32 12 79 41 105 64 l48 43 -44 64 c-25 35 -46 66 -47 68 -2 2 -17 -9 -35
-23 -99 -83 -223 -104 -330 -54 -68 31 -120 84 -157 157 -35 73 -37 180 -5
253 48 106 149 179 260 186 87 6 122 -3 191 -48 l61 -39 46 65 c26 36 44 71
41 79 -8 21 -103 73 -175 95 -73 23 -190 25 -262 6z"/>
<path d="M9060 5415 c0 -9 147 -352 266 -621 52 -119 107 -245 121 -280 25
-64 43 -89 43 -60 0 9 40 103 89 208 49 106 109 238 134 293 25 55 84 181 130
280 l84 180 -85 3 c-47 2 -88 -1 -92 -5 -4 -4 -63 -137 -131 -295 -68 -158
-128 -286 -132 -285 -5 1 -44 86 -87 187 -43 102 -98 232 -122 290 l-45 105
-86 3 c-48 1 -87 0 -87 -3z"/>
<path d="M10030 4950 l0 -470 285 0 286 0 -3 78 -3 77 -197 3 -198 2 0 125 0
125 175 0 175 0 0 75 0 75 -175 0 -175 0 0 110 0 110 195 0 195 0 0 80 0 80
-280 0 -280 0 0 -470z"/>
<path d="M10750 4950 l0 -471 83 3 82 3 3 198 2 197 195 0 195 0 0 -200 0
-200 85 0 85 0 0 470 0 470 -85 0 -85 0 0 -190 0 -190 -195 0 -195 0 0 190 0
190 -85 0 -85 0 0 -470z"/>
<path d="M11662 4953 l3 -468 83 -3 82 -3 0 471 0 470 -85 0 -86 0 3 -467z"/>
<path d="M12900 5112 c0 -245 3 -320 15 -367 35 -131 82 -197 173 -242 53 -26
66 -28 177 -28 111 0 124 2 176 28 72 35 130 98 160 173 23 57 24 69 27 402
l3 342 -79 0 -80 0 -4 -312 c-3 -226 -8 -323 -18 -348 -35 -94 -103 -136 -208
-128 -73 5 -112 31 -144 96 -22 46 -23 55 -26 370 l-3 322 -85 0 -84 0 0 -308z"/>
<path d="M13810 4950 l0 -470 245 0 245 0 0 80 0 80 -160 0 -160 0 0 390 0
390 -85 0 -85 0 0 -470z"/>
<path d="M14568 4958 c-128 -255 -234 -466 -236 -470 -2 -5 36 -8 85 -8 l89 0
37 76 38 77 61 -7 c34 -3 133 -6 222 -6 l161 0 35 -68 35 -67 88 -3 c48 -1 87
0 87 2 0 3 -63 135 -141 293 -77 159 -179 368 -226 466 -47 97 -90 177 -95
177 -4 0 -113 -208 -240 -462z m267 71 c39 -75 105 -228 105 -243 0 -11 -27
-12 -137 -8 -76 2 -139 6 -141 7 -2 2 140 295 144 295 1 0 14 -23 29 -51z"/>
<path d="M15350 4951 l0 -471 90 0 90 0 0 160 0 160 79 0 80 0 80 -142 c111
-197 90 -179 198 -176 l91 3 -94 160 c-51 88 -93 165 -94 172 0 6 20 26 45 44
154 111 166 345 25 473 -84 75 -107 81 -362 84 l-228 3 0 -470z m444 290 c65
-41 86 -133 46 -210 -36 -71 -113 -99 -241 -86 l-69 7 0 160 0 160 113 -3 c97
-4 117 -7 151 -28z"/>
<path d="M16866 5094 c-14 -37 -6 -212 14 -289 20 -79 84 -211 122 -252 l20
-21 27 31 c15 18 65 82 112 142 46 61 96 123 111 139 63 66 27 101 -199 191
-202 80 -199 79 -207 59z m92 -60 l39 -15 6 -87 c6 -87 32 -182 61 -224 21
-29 21 -29 -13 -72 l-29 -37 -21 30 c-34 47 -72 140 -87 211 -20 93 -18 210 2
210 2 0 21 -7 42 -16z m255 -104 c15 -7 27 -21 27 -30 0 -18 -117 -180 -130
-180 -27 0 -75 191 -63 250 l5 28 67 -28 c36 -15 78 -33 94 -40z"/>
<path d="M17980 5003 c-98 -15 -232 -48 -267 -64 -51 -24 -60 -47 -37 -91 25
-48 213 -322 224 -326 12 -4 95 108 127 171 33 67 63 188 63 259 l0 58 -42 -1
c-24 -1 -54 -4 -68 -6z m70 -71 c0 -88 -59 -242 -119 -312 l-31 -35 -20 25
c-26 33 -25 41 11 100 37 61 69 157 69 209 0 47 4 51 52 51 37 0 38 -1 38 -38z
m-133 -33 c-6 -48 -72 -209 -86 -209 -9 1 -121 174 -121 188 0 6 6 14 12 18
12 7 171 51 192 53 5 1 6 -22 3 -50z"/>
<path d="M17411 4738 c-17 -24 -73 -105 -126 -181 -53 -75 -93 -141 -90 -146
3 -6 31 -20 63 -32 49 -20 76 -23 197 -24 105 0 154 4 195 17 107 33 108 21
-26 224 -110 165 -121 179 -151 182 -29 3 -36 -2 -62 -40z m135 -101 l54 -87
-25 -10 c-49 -19 -235 -6 -235 15 0 5 50 78 98 143 13 18 31 32 39 30 8 -2 39
-42 69 -91z m-118 -148 c47 -7 81 -5 134 6 40 8 72 14 73 12 47 -75 47 -75 28
-85 -34 -18 -124 -32 -201 -32 -77 0 -186 20 -203 37 -5 5 3 26 22 51 28 38
32 40 57 31 15 -6 55 -15 90 -20z"/>
<path d="M14545 4038 c-3 -79 -5 -291 -3 -473 l3 -330 85 0 85 0 3 268 c1 147
5 267 8 267 7 0 137 -120 414 -383 101 -97 188 -173 192 -171 4 3 8 214 8 468
l0 463 -46 7 c-26 3 -64 6 -85 6 l-39 0 0 -280 c0 -154 -3 -280 -6 -280 -5 0
-460 436 -566 543 -20 20 -39 37 -42 37 -2 0 -7 -64 -11 -142z"/>
<path d="M9500 4071 c-25 -53 -89 -188 -144 -301 -207 -430 -256 -533 -256
-536 0 -2 37 -4 83 -4 l82 0 39 75 38 75 211 -2 211 -3 31 -72 30 -73 83 0
c45 0 82 2 82 5 0 25 -416 904 -439 926 -3 4 -26 -37 -51 -90z m116 -386 c35
-74 64 -141 64 -149 0 -12 -23 -15 -130 -15 -107 -1 -130 2 -130 13 0 16 120
286 127 286 2 0 33 -61 69 -135z"/>
<path d="M11202 4154 c-66 -17 -92 -31 -169 -88 -71 -52 -122 -122 -154 -211
-30 -85 -31 -246 -1 -327 26 -73 83 -159 130 -198 53 -44 141 -88 213 -106
123 -32 276 -1 403 80 l56 36 0 185 0 185 -165 0 -165 0 0 -70 0 -70 84 0 c47
0 87 -3 89 -7 2 -5 2 -36 -1 -70 l-4 -62 -47 -23 c-38 -19 -62 -23 -136 -23
-106 0 -163 22 -228 89 -68 70 -82 108 -82 216 0 87 3 100 30 149 38 69 121
136 194 157 101 30 231 2 315 -69 l30 -24 48 71 c26 39 48 73 48 76 0 12 -138
79 -204 99 -80 25 -203 27 -284 5z"/>
<path d="M12560 3705 l0 -465 85 0 85 0 2 275 3 274 291 -289 c159 -160 298
-290 307 -290 16 0 17 36 17 475 l0 475 -85 0 -85 0 -2 -286 -3 -286 -297 291
c-163 160 -301 291 -307 291 -8 0 -11 -134 -11 -465z"/>
<path d="M15828 4160 c-128 -32 -255 -139 -315 -265 -32 -68 -37 -88 -41 -174
-7 -151 25 -244 122 -349 94 -101 215 -152 362 -152 320 0 548 275 483 582
-30 140 -128 260 -266 326 -75 35 -83 37 -193 39 -63 1 -132 -2 -152 -7z m226
-154 c74 -22 149 -86 182 -152 40 -81 45 -191 14 -275 -28 -73 -93 -144 -165
-179 -75 -36 -181 -35 -257 3 -65 32 -121 90 -151 156 -16 35 -21 67 -22 131
0 73 4 93 27 141 42 85 120 156 198 180 41 12 124 10 174 -5z"/>
<path d="M12003 4153 l-163 -3 0 -455 0 -455 269 0 c148 0 276 -3 285 -6 14
-5 16 5 16 75 l0 81 -200 0 -200 0 0 120 0 120 175 0 175 0 0 75 0 75 -175 0
-175 0 0 110 0 110 195 0 196 0 -3 78 -3 77 -115 0 c-63 1 -188 -1 -277 -2z"/>
<path d="M13470 4080 l0 -80 105 0 105 0 2 -382 3 -383 85 0 85 0 1 260 c1
143 2 315 3 383 l1 122 104 0 104 0 4 73 c2 39 2 75 0 80 -2 4 -138 7 -303 7
l-299 0 0 -80z"/>
<path d="M14190 3695 l0 -465 85 0 85 0 0 465 0 465 -85 0 -85 0 0 -465z"/>
<path d="M10090 3690 l0 -460 79 0 c96 0 91 -10 91 188 l0 142 64 0 c77 0 76
1 179 -180 95 -166 77 -151 186 -148 l93 3 -106 167 -105 168 44 30 c89 61
127 138 128 255 1 131 -49 205 -178 267 -60 28 -60 28 -267 28 l-208 0 0 -460z
m418 290 c74 -45 94 -147 42 -220 -34 -47 -74 -60 -190 -60 l-100 0 0 150 0
150 108 0 c89 0 112 -3 140 -20z"/>
</g>
</svg>
