<?xml version="1.0" standalone="no"?>
<!DOCTYPE svg PUBLIC "-//W3C//DTD SVG 20010904//EN"
 "http://www.w3.org/TR/2001/REC-SVG-20010904/DTD/svg10.dtd">
<svg version="1.0" xmlns="http://www.w3.org/2000/svg"
 width="2048.000000pt" height="1024.000000pt" viewBox="0 0 2048.000000 1024.000000"
 preserveAspectRatio="xMidYMid meet">

<g transform="translate(0.000000,1024.000000) scale(0.100000,-0.100000)"
fill="#38d8d2" stroke="none">
<path d="M5354 6865 c-128 -28 -260 -113 -339 -217 -54 -72 -80 -127 -101
-213 -21 -91 -21 -2497 1 -2600 22 -107 78 -208 160 -290 77 -78 151 -121 265
-157 l75 -23 1090 0 c1220 0 1166 -3 1316 72 119 60 229 184 274 312 l14 41
-192 0 c-106 0 -282 -5 -392 -10 -110 -5 -302 -12 -427 -16 l-226 -7 -7 -25
c-15 -61 -92 -136 -164 -161 -19 -6 -61 -11 -94 -11 -77 0 -133 26 -187 87
-112 128 -79 307 72 382 153 77 328 4 375 -158 l18 -59 110 4 c60 2 220 9 355
14 135 6 363 13 507 17 l263 6 0 244 0 243 -758 0 -758 0 -319 -183 c-821
-470 -754 -429 -755 -459 -1 -76 -60 -123 -146 -116 -42 4 -61 11 -84 33 -60
57 -60 142 -1 199 53 51 127 45 212 -15 13 -10 48 7 185 86 415 241 774 445
831 474 l62 31 271 0 270 0 0 80 0 80 -342 0 -341 0 -171 -104 c-94 -57 -223
-136 -286 -175 l-115 -71 -172 0 c-149 0 -173 -2 -173 -15 0 -49 -64 -95 -131
-95 -109 0 -175 115 -119 207 52 86 187 82 238 -7 l17 -30 169 0 c131 0 173 3
185 14 9 8 134 86 279 175 l262 161 355 0 355 0 0 119 c0 66 -3 126 -6 135 -5
14 -55 16 -458 16 l-452 0 -159 -116 c-88 -64 -169 -125 -181 -135 -20 -18
-38 -19 -350 -17 l-329 3 -3 499 c-1 275 1 503 5 507 5 4 158 5 342 2 l333 -6
110 -86 c60 -47 143 -112 185 -144 l76 -57 441 2 441 3 0 150 0 150 -365 5
-365 5 -78 45 c-43 25 -161 93 -263 153 l-186 107 -174 0 -175 0 -30 -34 c-59
-68 -148 -69 -208 -1 -39 45 -47 89 -26 143 30 75 135 110 201 67 29 -19 64
-72 64 -97 0 -17 15 -18 175 -18 160 0 180 -2 218 -21 43 -22 403 -233 469
-275 l38 -24 355 0 355 0 0 70 0 70 -294 0 -295 0 -348 211 c-191 116 -424
256 -517 310 l-170 99 -25 -24 c-56 -52 -109 -60 -171 -25 -107 60 -88 215 31
249 77 22 162 -30 175 -108 6 -37 11 -43 68 -73 75 -40 665 -392 837 -501
l126 -79 289 0 289 0 3 211 2 210 -145 0 -145 0 -19 -37 c-46 -90 -136 -142
-244 -143 -106 0 -184 42 -233 126 -57 97 -52 181 14 269 134 177 420 127 478
-84 10 -33 24 -63 33 -67 24 -11 1221 -18 1231 -8 14 14 -13 102 -59 191 -70
135 -189 239 -332 291 l-74 27 -1115 2 c-901 1 -1127 -1 -1176 -12z"/>
<path d="M5335 6565 c-14 -13 -25 -34 -25 -45 0 -29 53 -80 83 -80 39 0 77 36
77 74 0 71 -84 103 -135 51z"/>
<path d="M6519 6451 c-63 -63 -23 -161 66 -161 68 0 118 64 96 123 -27 71
-109 90 -162 38z"/>
<path d="M14700 6111 c-275 -60 -507 -240 -597 -462 -49 -120 -58 -175 -57
-344 1 -129 5 -175 22 -238 70 -259 292 -455 594 -524 52 -12 121 -17 238 -17
178 -1 242 11 383 70 76 32 210 120 257 168 30 31 32 38 20 50 -92 88 -205
186 -215 186 -6 0 -20 -9 -30 -20 -28 -31 -128 -89 -190 -111 -237 -83 -505
-11 -624 167 -56 85 -74 166 -69 313 4 124 5 131 41 203 85 173 232 260 437
260 152 0 280 -44 379 -128 21 -19 43 -34 48 -34 4 0 58 50 118 111 l110 110
-40 36 c-103 90 -226 155 -370 196 -104 29 -340 33 -455 8z"/>
<path d="M7350 5330 l0 -790 175 0 175 0 0 300 0 300 410 0 410 0 0 150 0 150
-405 0 -405 0 0 185 0 185 445 0 445 0 0 155 0 155 -625 0 -625 0 0 -790z"/>
<path d="M9181 6053 c-81 -161 -427 -879 -541 -1123 -38 -80 -93 -197 -124
-260 -31 -63 -56 -118 -56 -123 0 -4 89 -6 198 -5 l197 3 72 148 73 147 406
-2 407 -3 67 -145 67 -145 192 -3 193 -2 -6 24 c-3 13 -72 160 -152 327 -80
167 -168 351 -194 409 -27 58 -125 265 -218 460 l-169 355 -189 3 -190 2 -33
-67z m358 -619 c73 -157 131 -287 129 -290 -3 -2 -125 -3 -271 -2 l-266 3 102
220 c57 121 116 250 132 288 16 37 32 67 35 67 3 0 66 -129 139 -286z"/>
<path d="M11775 6112 c-16 -2 -33 -9 -37 -16 -5 -9 -338 -474 -426 -595 l-18
-24 -234 316 -235 316 -180 -2 -180 -2 -2 -460 c-1 -253 1 -605 4 -783 l5
-322 177 2 176 3 -1 493 c-1 270 2 492 5 491 3 0 104 -133 224 -295 121 -162
222 -294 225 -293 4 0 108 139 232 309 124 170 228 309 233 309 4 1 7 -229 7
-509 l0 -510 178 2 177 3 -4 780 c-2 429 -4 781 -5 781 -3 4 -294 9 -321 6z"/>
<path d="M12843 5822 c-177 -383 -477 -1030 -541 -1166 -29 -60 -52 -111 -52
-112 0 -2 87 -4 194 -4 l194 0 13 33 c32 82 121 262 132 269 14 9 669 11 743
2 l52 -7 58 -136 c32 -75 63 -142 69 -149 8 -9 57 -12 202 -10 l192 3 -68 145
c-138 294 -344 736 -351 755 -7 17 -81 177 -277 593 l-34 72 -197 0 -197 0
-132 -288z m382 -194 c119 -253 214 -473 207 -478 -4 -3 -122 -3 -263 0 l-255
5 87 205 c122 286 160 370 168 370 4 0 29 -46 56 -102z"/>
<path d="M5342 6060 c-29 -27 -29 -83 -2 -110 45 -45 130 -14 132 48 2 69 -80
108 -130 62z"/>
<path d="M5250 5120 l0 -450 296 0 295 0 92 68 c51 37 133 98 183 135 l91 67
467 0 467 0 -3 78 -3 77 -525 5 -525 5 -3 23 -3 22 530 0 531 0 0 65 0 65
-455 0 -455 0 -72 51 c-40 29 -125 94 -189 145 l-116 94 -302 0 -301 0 0 -450z
m431 340 c22 -12 26 -59 7 -78 -7 -7 -25 -12 -40 -12 -40 0 -58 39 -34 75 18
27 36 31 67 15z m207 -6 c28 -19 29 -60 1 -74 -54 -30 -106 34 -59 72 27 22
30 22 58 2z m-410 -6 c29 -29 7 -78 -35 -78 -32 0 -58 42 -43 69 12 24 58 29
78 9z m-4 -184 c19 -18 21 -55 4 -72 -22 -22 -64 -14 -77 14 -23 51 34 97 73
58z m207 6 c22 -12 26 -59 7 -78 -7 -7 -21 -12 -33 -12 -43 0 -61 53 -29 84
18 19 28 20 55 6z m213 -6 c31 -30 9 -84 -34 -84 -17 0 -50 34 -50 52 0 13 39
48 54 48 8 0 22 -7 30 -16z m-422 -191 c32 -29 14 -93 -28 -93 -19 0 -54 36
-54 55 0 18 35 55 52 55 6 0 20 -7 30 -17z m226 -41 c4 -39 -27 -60 -64 -43
-32 14 -33 64 -2 85 19 13 25 14 43 2 11 -7 21 -27 23 -44z m197 38 c15 -16
17 -26 9 -48 -8 -22 -15 -27 -44 -27 -29 0 -36 5 -44 27 -8 22 -6 32 9 48 10
11 26 20 35 20 9 0 25 -9 35 -20z m-411 -212 c12 -34 -6 -58 -45 -58 -40 0
-56 32 -34 66 22 34 66 30 79 -8z m204 20 c30 -30 3 -82 -40 -76 -29 4 -47 50
-28 72 15 19 51 21 68 4z m203 2 c22 -12 26 -59 7 -78 -7 -7 -21 -12 -33 -12
-29 0 -45 19 -45 52 0 39 34 57 71 38z"/>
<path d="M5373 4303 c-52 -10 -72 -95 -31 -133 33 -30 91 -27 117 6 27 34 27
67 -1 98 -25 27 -51 35 -85 29z"/>
<path d="M12400 4260 c-42 -37 -43 -39 -20 -40 22 0 130 62 130 75 0 3 -15 5
-32 5 -24 -1 -46 -12 -78 -40z"/>
<path d="M10630 4159 c-47 -15 -86 -44 -121 -92 -25 -34 -29 -49 -29 -103 0
-34 5 -75 11 -91 14 -38 56 -81 104 -105 72 -37 200 -23 257 29 17 15 17 17
-2 30 -17 12 -23 11 -48 -7 -45 -33 -127 -37 -182 -8 -61 31 -90 77 -90 142 0
102 65 166 170 166 37 0 68 -7 94 -21 31 -17 40 -18 47 -7 13 20 6 32 -34 51
-45 22 -130 30 -177 16z"/>
<path d="M12850 3960 l0 -210 25 0 24 0 3 156 3 156 138 -156 c107 -122 143
-156 162 -156 l25 0 0 205 0 205 -30 0 -30 0 0 -157 0 -158 -45 50 c-25 28
-89 101 -142 163 -58 67 -104 112 -115 112 -17 0 -18 -13 -18 -210z"/>
<path d="M13490 3961 l0 -211 30 0 30 0 -2 208 -3 207 -27 3 -28 3 0 -210z"/>
<path d="M13935 4157 c-60 -20 -93 -45 -120 -91 -65 -111 -25 -245 90 -297 97
-44 307 3 254 57 -12 12 -22 10 -63 -11 -27 -14 -62 -25 -78 -25 -39 0 -97 26
-131 58 -77 74 -46 223 56 261 44 17 118 13 158 -8 25 -13 40 -16 52 -9 26 14
21 26 -25 49 -51 26 -139 33 -193 16z"/>
<path d="M14520 4118 c-12 -29 -56 -121 -96 -205 -41 -83 -74 -154 -74 -157 0
-3 11 -6 26 -6 21 0 29 9 50 55 l25 55 122 0 122 0 24 -55 c21 -48 27 -55 52
-55 16 0 29 2 29 4 0 3 -46 97 -102 210 -95 193 -103 206 -128 206 -24 0 -31
-8 -50 -52z m106 -112 c24 -51 44 -96 44 -100 0 -3 -45 -6 -100 -6 -55 0 -100
2 -100 5 0 13 96 195 103 195 4 0 28 -42 53 -94z"/>
<path d="M8872 3958 l3 -203 163 -3 163 -3 -3 23 c-3 22 -6 23 -136 26 l-133
3 3 67 3 67 115 5 c93 4 115 8 115 20 0 12 -21 16 -117 18 l-118 3 0 69 0 70
130 0 c123 0 130 1 130 20 0 19 -7 20 -160 20 l-160 0 2 -202z"/>
<path d="M9440 3955 l0 -205 145 0 145 0 0 25 0 25 -120 0 -120 0 0 180 0 180
-25 0 -25 0 0 -205z"/>
<path d="M9942 3958 l3 -203 163 -3 162 -2 0 25 0 25 -135 0 -135 0 0 70 0 70
115 0 c108 0 115 1 115 20 0 19 -7 20 -115 20 l-115 0 0 70 0 69 127 3 c112 3
128 5 131 21 3 16 -10 17 -157 17 l-161 0 2 -202z"/>
<path d="M11020 4140 c0 -18 7 -20 80 -20 l80 0 2 -182 3 -183 28 -3 27 -3 0
185 0 186 75 0 c68 0 75 2 75 20 0 19 -7 20 -185 20 -178 0 -185 -1 -185 -20z"/>
<path d="M11590 3955 l0 -205 25 0 c24 0 25 2 25 65 l0 65 73 0 72 -1 50 -64
c40 -53 55 -65 78 -65 33 0 33 0 -31 83 -24 32 -43 59 -41 61 2 1 18 8 36 15
60 24 80 128 37 190 -31 44 -88 61 -211 61 l-113 0 0 -205z m257 139 c19 -14
29 -32 31 -54 9 -88 -32 -120 -155 -120 l-83 0 0 101 0 101 89 -4 c72 -2 95
-7 118 -24z"/>
<path d="M12262 4138 c-119 -58 -149 -222 -57 -320 65 -68 192 -90 285 -47 91
41 124 97 118 199 -4 83 -33 126 -110 164 -68 34 -171 36 -236 4z m193 -37
c80 -36 117 -109 96 -188 -19 -68 -99 -123 -181 -123 -40 0 -113 42 -137 79
-30 45 -32 132 -3 179 40 65 145 90 225 53z"/>
<path d="M6558 3895 c-38 -21 -53 -73 -34 -118 16 -40 43 -58 87 -59 39 -1 74
18 88 49 42 93 -50 177 -141 128z"/>
<path d="M5340 3768 c-26 -28 -27 -89 -2 -111 10 -9 32 -20 49 -23 40 -8 83
30 83 74 0 71 -83 110 -130 60z"/>
</g>
</svg>
