<?xml version="1.0" standalone="no"?>
<!DOCTYPE svg PUBLIC "-//W3C//DTD SVG 20010904//EN"
 "http://www.w3.org/TR/2001/REC-SVG-20010904/DTD/svg10.dtd">
<svg version="1.0" xmlns="http://www.w3.org/2000/svg"
 width="2048.000000pt" height="1024.000000pt" viewBox="0 0 2048.000000 1024.000000"
 preserveAspectRatio="xMidYMid meet">

<g transform="translate(0.000000,1024.000000) scale(0.100000,-0.100000)"
fill="#38d8d2" stroke="none">
<path d="M13155 6558 c-268 -26 -453 -125 -528 -281 -52 -109 -59 -177 -55
-595 4 -349 6 -382 25 -444 30 -94 79 -182 126 -224 82 -75 227 -121 407 -131
196 -10 364 19 478 82 24 14 47 25 49 25 3 0 3 -102 1 -227 -5 -253 -13 -291
-70 -350 -37 -38 -66 -49 -167 -63 -151 -21 -381 23 -520 100 -30 17 -55 29
-56 28 -1 -2 -37 -66 -80 -143 -42 -77 -88 -154 -101 -172 -13 -17 -24 -37
-24 -42 0 -33 194 -125 340 -162 89 -22 114 -24 375 -24 258 0 287 2 365 23
240 63 357 173 417 392 17 60 18 127 18 830 0 696 -2 774 -18 860 -47 244
-128 369 -290 446 -151 71 -421 99 -692 72z m268 -407 c37 -5 92 -21 121 -35
100 -49 121 -133 114 -456 -4 -167 -8 -213 -22 -248 -37 -87 -122 -124 -285
-124 -125 1 -184 16 -227 58 -53 54 -59 90 -59 359 0 283 5 323 47 371 39 45
59 55 133 70 75 15 93 15 178 5z"/>
<path d="M4827 6503 c-4 -27 -7 -612 -7 -1300 l0 -1253 250 0 250 0 0 453 c-1
608 -13 933 -45 1217 -4 32 -3 39 4 25 11 -25 411 -1280 411 -1291 0 -2 82 -4
183 -4 l182 0 112 343 c61 188 153 470 203 625 50 156 94 282 96 279 3 -3 -6
-129 -21 -280 -36 -392 -45 -573 -45 -994 l0 -373 245 0 c188 0 247 3 250 13
2 6 6 589 8 1295 l5 1282 -252 0 -251 0 -79 -222 c-43 -123 -110 -304 -147
-403 -107 -283 -217 -588 -266 -735 -25 -74 -46 -136 -47 -138 -2 -1 -24 64
-50 145 -27 82 -97 281 -156 443 -59 162 -154 421 -210 575 -56 154 -107 295
-113 313 l-10 32 -247 0 -247 0 -6 -47z"/>
<path d="M7613 6542 c-25 -4 -43 -74 -178 -677 -41 -181 -108 -476 -149 -655
-41 -179 -100 -451 -131 -605 -31 -154 -65 -314 -75 -355 -19 -77 -60 -275
-60 -291 0 -6 106 -8 252 -7 l252 3 8 35 c4 19 23 121 43 225 19 105 38 200
40 213 l5 22 298 0 298 0 50 -247 49 -248 248 -3 c194 -2 247 0 247 10 0 15
-38 190 -144 658 -41 184 -96 430 -121 545 -25 116 -83 383 -129 595 -47 212
-104 474 -127 582 l-43 197 -305 3 c-168 2 -316 2 -328 0z m327 -623 c11 -52
31 -159 45 -239 24 -135 50 -262 110 -535 13 -60 29 -141 35 -180 6 -38 13
-82 16 -97 l6 -28 -231 0 c-127 0 -231 2 -231 4 0 2 31 160 69 352 37 192 88
456 112 586 24 130 45 235 47 234 2 -2 12 -46 22 -97z"/>
<path d="M9365 6540 c-147 -16 -291 -69 -363 -135 -50 -44 -96 -134 -118 -230
-15 -61 -17 -164 -21 -790 -5 -800 1 -964 42 -1092 38 -120 96 -200 188 -256
50 -31 198 -75 287 -86 148 -19 416 -24 555 -12 256 24 373 67 474 178 66 71
91 130 110 256 8 49 16 319 12 375 -1 9 -56 12 -240 12 l-238 0 -5 -137 c-6
-158 -18 -199 -70 -231 -66 -41 -149 -54 -302 -50 -126 3 -147 6 -197 30 -47
21 -60 33 -80 74 l-24 49 -3 710 c-2 444 1 734 7 774 12 78 32 108 92 139 42
22 52 23 244 20 185 -3 204 -5 247 -26 67 -33 79 -69 86 -259 2 -84 8 -153 11
-153 44 -2 281 -3 364 -2 l107 2 0 133 c-1 177 -15 318 -41 400 -60 186 -204
282 -466 307 -122 11 -551 11 -658 0z"/>
<path d="M16031 6542 c-8 -6 -35 -77 -61 -158 l-47 -149 556 -5 556 -5 0 -544
0 -545 -105 -47 c-58 -26 -206 -92 -330 -147 -459 -204 -620 -276 -800 -357
-255 -115 -451 -201 -477 -209 -18 -6 -29 -29 -57 -119 -20 -62 -49 -152 -65
-201 -26 -76 -28 -87 -13 -83 15 5 476 204 557 242 68 31 504 224 690 305 364
160 448 197 620 275 94 43 202 91 240 107 l70 29 4 804 4 805 -545 0 c-300 0
-598 3 -664 6 -70 3 -125 1 -133 -4z"/>
<path d="M10700 5245 l0 -1295 260 0 260 0 0 545 0 545 295 0 295 0 0 -545 0
-545 260 0 260 0 0 1295 0 1295 -260 0 -260 0 0 -560 0 -560 -295 0 -295 0 0
560 0 560 -260 0 -260 0 0 -1295z"/>
<path d="M14240 6330 l0 -210 451 0 c357 0 450 -3 446 -12 -2 -7 -23 -71 -46
-143 -23 -71 -85 -263 -137 -425 -53 -162 -111 -342 -129 -400 -18 -58 -71
-224 -118 -370 -47 -146 -122 -383 -167 -528 -44 -144 -83 -269 -86 -277 -5
-13 27 -15 239 -15 184 0 247 3 254 13 9 12 91 264 199 617 29 96 106 328 169
515 64 187 136 403 161 480 25 77 105 321 179 543 74 221 135 407 135 412 0 7
-277 10 -775 10 l-775 0 0 -210z"/>
<path d="M15856 6061 c-3 -4 -40 -114 -81 -242 -42 -129 -94 -287 -117 -352
-22 -65 -39 -120 -36 -122 4 -5 198 78 632 269 120 53 223 96 227 96 5 0 9
-35 9 -78 l0 -79 -122 -56 c-68 -31 -211 -94 -318 -141 -107 -46 -262 -114
-345 -150 -82 -36 -150 -66 -151 -66 -8 0 -194 -561 -189 -568 1 -1 42 15 91
37 49 21 233 102 409 179 176 77 352 155 390 172 152 70 474 214 543 242 l72
30 0 419 0 419 -504 0 c-278 0 -507 -4 -510 -9z"/>
</g>
</svg>
