<?xml version="1.0" standalone="no"?>
<!DOCTYPE svg PUBLIC "-//W3C//DTD SVG 20010904//EN"
 "http://www.w3.org/TR/2001/REC-SVG-20010904/DTD/svg10.dtd">
<svg version="1.0" xmlns="http://www.w3.org/2000/svg"
 width="2048.000000pt" height="1024.000000pt" viewBox="0 0 2048.000000 1024.000000"
 preserveAspectRatio="xMidYMid meet">

<g transform="translate(0.000000,1024.000000) scale(0.100000,-0.100000)"
fill="#38d8d2" stroke="none">
<path d="M5278 6704 c-120 -29 -223 -100 -319 -220 -60 -76 -105 -152 -96
-161 3 -3 36 2 74 11 37 8 87 17 111 20 40 4 44 2 52 -22 5 -15 17 -40 25 -56
15 -27 14 -34 -6 -93 -13 -34 -20 -66 -16 -69 7 -8 69 4 169 32 l68 18 35 -34
c43 -42 44 -50 5 -50 -17 0 -47 -8 -68 -19 -36 -18 -40 -18 -157 1 -276 43
-310 43 -362 -4 l-21 -20 -108 53 c-95 46 -116 53 -183 56 -107 6 -154 -19
-196 -102 -26 -53 -30 -71 -30 -145 0 -67 5 -94 21 -127 23 -46 18 -52 -30
-33 -14 5 -26 16 -26 25 0 8 -19 35 -43 60 -34 35 -51 45 -75 45 -81 0 -127
-58 -127 -160 1 -108 54 -180 133 -180 49 0 75 29 117 127 0 1 32 -9 70 -22
83 -29 105 -48 87 -73 -29 -41 -48 -86 -98 -222 l-52 -145 -43 -7 c-170 -29
-270 -57 -301 -85 -23 -21 -23 -28 4 -52 20 -20 20 -21 2 -27 -102 -36 -205
-103 -288 -188 -157 -162 -238 -352 -239 -561 -1 -137 18 -219 79 -342 122
-248 377 -404 659 -405 226 0 425 88 592 265 95 102 144 182 185 307 28 84 32
111 35 235 4 125 2 150 -21 240 -33 128 -90 243 -161 325 -30 35 -54 69 -52
75 2 5 17 48 32 94 26 78 29 83 42 65 25 -33 252 -480 298 -584 24 -55 54
-114 66 -131 27 -38 100 -86 154 -100 22 -6 52 -20 67 -30 61 -44 111 -59 199
-59 106 0 185 19 523 130 l249 82 26 -33 c112 -145 215 -210 361 -228 134 -17
281 24 384 108 86 69 179 222 207 341 18 77 16 232 -5 310 -69 272 -298 456
-521 420 -150 -24 -265 -92 -346 -204 -28 -38 -29 -38 -38 -15 -5 13 -16 40
-24 58 l-15 35 117 59 c64 33 134 72 156 88 96 68 176 119 260 164 203 109
521 347 509 380 -9 23 -47 18 -116 -15 -34 -16 -64 -30 -67 -30 -2 0 7 13 22
28 44 46 62 137 32 162 -11 9 -58 3 -225 -30 -274 -53 -303 -64 -384 -147 -85
-87 -167 -119 -180 -69 -11 44 -107 175 -189 259 -179 181 -390 307 -517 307
-38 0 -62 8 -108 35 -54 32 -60 40 -66 77 -9 54 -52 140 -86 173 -46 44 -120
54 -222 29z m185 -81 c9 -9 15 -18 13 -21 -3 -2 1 -11 9 -19 29 -28 29 -79 1
-136 -14 -28 -24 -41 -21 -27 5 22 4 23 -5 7 -7 -10 -9 -25 -6 -33 3 -8 2 -13
-3 -10 -4 3 -15 -13 -24 -35 -10 -25 -21 -39 -29 -36 -7 2 -21 0 -32 -5 -31
-16 -49 36 -26 72 9 13 11 13 20 0 8 -12 9 -9 5 10 -5 22 8 80 30 132 5 13 0
17 -22 21 -27 4 -27 4 4 6 17 0 35 6 39 12 17 28 -226 -19 -329 -63 -73 -31
-51 -30 43 2 47 16 114 31 150 35 l65 5 -86 -19 c-47 -10 -126 -35 -175 -54
-49 -20 -80 -29 -69 -21 11 8 19 21 17 28 -4 20 84 95 143 122 112 52 246 64
288 27z m-298 -243 c-3 -5 -11 -10 -16 -10 -6 0 -7 5 -4 10 3 6 11 10 16 10 6
0 7 -4 4 -10z m434 -16 c7 -7 -61 -74 -70 -68 -7 4 3 53 16 74 6 9 42 5 54 -6z
m40 -28 c9 -11 4 -20 -29 -46 -53 -42 -70 -30 -28 20 38 44 41 45 57 26z
m-199 -41 c-12 -20 -24 -34 -27 -32 -5 5 40 76 46 71 2 -1 -7 -19 -19 -39z
m-262 -11 c-4 -3 -16 0 -28 6 -18 10 -20 14 -9 21 15 9 48 -15 37 -27z m709 4
c133 -54 282 -175 395 -322 59 -76 118 -172 118 -190 0 -8 -158 -56 -183 -56
-12 0 -47 12 -77 27 l-55 27 57 6 c36 3 64 12 75 23 17 17 17 17 -19 2 -21 -8
-45 -15 -55 -15 -15 0 -14 4 7 20 25 19 25 19 -35 3 l-60 -16 -122 41 c-119
40 -173 66 -173 83 0 4 36 34 80 65 62 45 79 62 74 76 -4 13 0 18 13 18 23 1
103 38 83 39 -49 3 -89 24 -114 59 -22 33 -89 82 -110 82 -4 0 22 -27 56 -61
l63 -60 -53 40 c-30 23 -58 41 -62 41 -5 0 -17 3 -27 7 -10 3 -1 -11 21 -32
48 -48 80 -114 63 -133 -14 -18 -255 -175 -334 -219 l-62 -34 -17 33 c-9 18
-30 49 -45 69 -16 20 -29 41 -29 45 0 15 102 98 160 132 30 17 69 43 85 57
l30 25 -55 -21 c-30 -11 -64 -23 -75 -25 l-20 -5 20 13 c11 7 45 38 75 69 30
31 75 71 100 89 40 29 50 31 96 27 29 -3 79 -16 111 -29z m-683 -41 c-3 -9
-12 -17 -20 -17 -17 0 -17 5 -3 32 13 24 33 10 23 -15z m172 -12 c-20 -15 -36
-19 -36 -10 0 5 38 23 50 24 3 0 -4 -6 -14 -14z m121 -54 c-46 -51 -55 -41
-16 16 22 31 34 42 42 34 7 -7 -1 -22 -26 -50z m-941 -107 c67 -32 103 -171
70 -271 -9 -27 -32 -66 -50 -86 -38 -42 -65 -51 -42 -14 24 37 46 127 46 186
0 73 -36 153 -82 181 l-33 20 28 0 c16 0 44 -7 63 -16z m-139 -19 c78 -55 93
-284 21 -329 -24 -15 -82 17 -107 58 -43 71 -33 200 19 256 32 34 38 36 67 15z
m124 -47 c25 -49 35 -131 21 -178 -10 -33 -10 -31 -11 30 -1 39 -11 92 -24
132 -25 73 -19 80 14 16z m153 -12 c17 -21 21 -42 21 -96 0 -38 -5 -74 -10
-79 -8 -8 -10 8 -7 52 3 51 -1 70 -21 110 -26 51 -17 59 17 13z m128 6 c-6 -2
-8 -11 -5 -20 5 -16 4 -16 -13 0 -18 17 -18 18 1 32 14 10 21 11 24 3 2 -6 -1
-13 -7 -15z m30 6 c-7 -7 -12 -8 -12 -2 0 14 12 26 19 19 2 -3 -1 -11 -7 -17z
m112 16 c25 -10 19 -34 -8 -34 -13 0 -31 -3 -40 -6 -9 -4 -16 -1 -16 6 0 6 9
14 20 17 11 3 20 9 20 14 0 11 3 11 24 3z m86 -14 c0 -5 -15 -10 -32 -10 -25
0 -29 3 -18 10 20 13 50 13 50 0z m2165 -21 c-11 -11 -102 -61 -203 -112
l-185 -92 -76 0 c-42 1 -84 4 -95 8 -18 7 -18 8 -1 27 53 59 119 89 280 129
196 48 243 59 274 60 24 1 24 1 6 -20z m-2421 -41 c12 -9 17 -20 13 -24 -12
-12 -71 52 -62 66 6 9 11 8 18 -6 6 -10 20 -26 31 -36z m77 31 c-13 -11 -27
-17 -30 -13 -7 7 28 34 43 34 6 -1 0 -10 -13 -21z m342 11 c16 0 26 -4 22 -10
-4 -6 -52 -10 -113 -9 l-107 1 50 13 c28 8 66 12 85 9 19 -2 48 -4 63 -4z
m153 -71 c15 -12 57 -99 51 -105 -10 -10 -222 -23 -366 -24 l-153 0 6 23 c3
12 6 34 6 48 0 14 6 34 14 45 13 17 32 20 183 25 182 6 240 4 259 -12z m-469
-21 c-4 -13 -9 -42 -13 -65 -6 -41 -8 -43 -40 -43 -31 0 -33 2 -29 28 2 15 7
44 10 65 6 35 8 37 42 37 31 0 35 -2 30 -22z m2388 -24 c-70 -59 -176 -134
-260 -186 -110 -67 -252 -148 -261 -148 -14 0 158 136 251 198 97 65 270 161
290 161 6 0 -3 -11 -20 -25z m-192 -31 c-47 -36 -286 -164 -330 -178 -19 -5
-23 -2 -23 15 0 16 12 26 50 42 27 11 113 51 192 88 79 38 147 69 151 69 5 1
-13 -16 -40 -36z m-1270 -48 c43 -20 85 -29 165 -36 73 -7 123 -18 157 -33
l50 -23 -55 -31 c-30 -18 -61 -32 -68 -32 -7 0 -33 14 -58 31 -24 16 -68 38
-98 48 -29 11 -68 27 -87 36 -54 28 -140 95 -134 106 4 5 21 -2 39 -16 17 -13
58 -36 89 -50z m-1679 -8 c13 -18 19 -41 18 -74 -1 -63 -15 -98 -47 -119 -25
-16 -27 -16 -53 3 -58 43 -62 154 -7 209 28 28 58 22 89 -19z m1550 1 c30 -23
53 -44 51 -46 -1 -2 -20 1 -41 7 -22 5 -65 15 -98 21 l-58 12 38 24 c22 13 42
24 46 24 5 0 32 -19 62 -42z m-821 -25 c-7 -2 -19 -2 -25 0 -7 3 -2 5 12 5 14
0 19 -2 13 -5z m1772 -47 c55 -17 71 -26 73 -43 3 -18 -22 -34 -165 -109 -326
-171 -316 -167 -408 -161 l-80 5 44 -19 c24 -11 54 -22 66 -25 14 -3 33 -24
48 -52 42 -79 117 -279 117 -314 0 -25 6 -36 23 -43 13 -6 23 -21 25 -37 3
-24 -3 -30 -57 -58 -66 -33 -71 -34 -71 -21 0 5 15 14 34 21 18 6 42 20 52 32
21 23 19 23 -47 -11 -26 -13 -53 -22 -61 -19 -26 10 -267 429 -267 463 0 11
-4 40 -11 64 -14 57 -8 65 105 146 160 115 398 219 474 208 20 -3 68 -15 106
-27z m-1785 -12 c0 -18 -13 -24 -38 -17 -27 7 -28 21 -5 39 20 14 43 2 43 -22z
m780 -9 c54 -14 149 -52 220 -86 l125 -61 -49 -44 c-27 -23 -52 -41 -55 -40
-3 2 -78 16 -166 31 -143 25 -171 33 -263 78 -113 54 -194 69 -279 49 -24 -5
-43 -7 -43 -3 0 12 125 70 183 86 85 23 218 19 327 -10z m-656 -32 c41 -57 37
-73 -6 -23 -38 45 -52 70 -38 70 5 0 25 -21 44 -47z m-609 -3 c12 -19 -12 -10
-31 11 -19 22 -19 22 3 10 12 -6 25 -16 28 -21z m1540 -1 c15 -14 -7 -10 -35
7 l-25 15 25 -7 c14 -3 29 -10 35 -15z m-1055 -10 c0 -20 -13 -40 -20 -29 -4
6 -17 12 -28 13 -38 2 -25 27 13 25 19 -1 35 -5 35 -9z m-435 -19 c8 -13 -5
-13 -25 0 -13 8 -13 10 2 10 9 0 20 -4 23 -10z m944 -41 c74 -32 212 -121 236
-153 31 -40 40 -79 23 -93 -21 -18 -321 -27 -397 -13 -125 23 -201 82 -201
156 0 62 62 108 167 123 70 10 113 5 172 -20z m-721 -24 c39 -12 52 -21 50
-33 -4 -20 -19 -19 -102 5 -59 17 -73 30 -62 58 5 14 9 14 33 2 16 -8 52 -22
81 -32z m140 -109 c-22 -61 -87 -246 -143 -411 -114 -333 -233 -667 -240 -674
-8 -7 -55 21 -55 34 0 10 362 1050 389 1118 6 15 15 39 21 53 10 25 10 25 39
8 l29 -17 -40 -111z m-314 104 c29 -11 33 -27 13 -54 -11 -16 -17 -17 -36 -7
-20 11 -21 10 -16 -11 3 -14 -12 -77 -39 -158 -41 -123 -47 -135 -70 -138 -14
-2 -26 -1 -26 1 0 18 68 205 96 264 19 39 34 78 34 86 0 12 9 27 16 27 1 0 14
-4 28 -10z m2195 -46 c-22 -24 -286 -158 -336 -170 -17 -5 -23 -2 -23 10 0 11
31 31 88 57 175 83 277 129 286 129 5 0 -1 -12 -15 -26z m-908 -64 c57 -11
107 -24 112 -29 14 -14 -1 -47 -29 -59 -14 -7 -56 -12 -94 -12 -71 0 -100 14
-100 47 0 8 -9 28 -21 44 l-20 29 25 0 c14 0 71 -9 127 -20z m-1171 -85 l28
-15 -28 -91 c-16 -50 -31 -96 -33 -104 -4 -10 -19 -9 -73 6 -37 10 -69 21 -71
23 -3 3 11 48 31 101 20 52 36 100 36 105 0 5 5 21 10 36 l11 28 30 -37 c17
-21 43 -44 59 -52z m401 46 c21 -49 83 -96 158 -119 47 -14 90 -16 258 -14
200 2 201 2 196 -19 -6 -20 -9 -21 -252 -17 -234 3 -248 4 -293 26 -69 34
-115 108 -101 162 8 29 16 25 34 -19z m-26 -222 c41 -80 116 -256 115 -268 -2
-16 -210 419 -210 438 0 9 47 -73 95 -170z m-27 -155 c44 -82 130 -250 192
-374 61 -124 119 -234 128 -245 9 -11 -5 0 -32 25 -42 40 -69 88 -236 427
-104 211 -191 393 -195 405 -10 34 52 -70 143 -238z m970 224 c4 -29 -14 -37
-68 -28 l-35 5 40 28 c46 31 59 30 63 -5z m1032 -19 c71 -15 161 -78 203 -142
61 -92 80 -165 81 -302 0 -176 -32 -272 -125 -371 -97 -102 -231 -133 -364
-83 -48 17 -76 38 -137 100 -43 43 -78 83 -78 89 0 18 38 11 45 -9 9 -31 111
-121 162 -143 60 -27 148 -28 222 -4 74 25 166 117 211 211 79 164 38 389 -95
529 -24 25 -68 58 -97 73 -46 24 -65 28 -138 28 -77 0 -90 -3 -140 -31 -68
-38 -150 -142 -182 -231 -24 -65 -38 -73 -38 -19 0 37 54 134 106 186 44 47
134 100 192 116 59 16 108 17 172 3z m-1073 -55 c35 -3 63 -9 63 -13 0 -3 -69
-7 -153 -7 -136 -2 -379 -14 -599 -30 -64 -4 -78 -3 -78 9 0 19 48 26 175 28
55 1 145 4 200 8 166 10 326 12 392 5z m-787 -29 c16 -19 3 -19 -30 0 -24 13
-24 14 -4 15 12 0 27 -7 34 -15z m877 -32 c3 -7 -25 -12 -89 -15 -85 -3 -97
-6 -140 -35 l-47 -31 -223 -11 c-123 -6 -244 -14 -269 -17 -41 -6 -47 -4 -52
15 -5 20 -2 21 106 21 219 1 454 18 484 35 26 15 18 16 -142 10 -93 -3 -231
-10 -305 -14 -132 -9 -170 -4 -170 21 0 7 15 9 43 5 23 -3 101 -1 172 4 337
26 626 32 632 12z m989 -3 c56 -28 129 -108 162 -178 24 -50 27 -69 26 -157 0
-80 -5 -112 -23 -158 -30 -76 -110 -158 -177 -181 -54 -18 -62 -14 -73 37 -8
33 -7 35 22 41 16 3 44 6 61 6 45 0 97 40 130 100 38 70 48 196 21 267 -22 56
-83 125 -142 160 -51 30 -151 41 -198 23 l-29 -11 31 -20 c39 -24 52 -68 27
-86 -25 -19 -44 -16 -44 6 0 10 -7 24 -16 32 -28 23 -47 69 -34 84 45 54 179
72 256 35z m-1870 1 c-4 -5 0 -12 6 -14 7 -3 3 -6 -8 -6 -12 -1 -24 6 -28 14
-4 10 1 15 15 15 11 0 18 -4 15 -9z m-611 -26 c64 -23 68 -26 56 -58 l-10 -25
-53 21 c-47 19 -75 21 -249 22 -123 1 -203 6 -215 13 -10 6 -14 12 -9 12 6 1
42 10 80 21 92 25 322 22 400 -6z m631 -30 c18 -15 18 -15 -5 -13 -14 2 -26 9
-29 16 -5 17 10 15 34 -3z m875 -5 c10 -6 19 -20 19 -30 0 -24 3 -25 -55 1
-153 68 -331 -91 -312 -277 7 -65 34 -129 76 -176 35 -40 26 -60 -15 -33 -37
24 -61 69 -74 142 -35 184 56 338 220 373 53 12 119 11 141 0z m693 -34 c-4
-10 -13 -15 -21 -12 -9 4 -13 1 -11 -6 4 -11 -40 -151 -56 -176 -4 -7 -12 -12
-18 -12 -25 0 28 161 69 211 26 31 50 28 37 -5z m282 -1 c13 -8 24 -20 24 -25
0 -18 -39 -10 -50 10 -6 11 -22 23 -35 26 -14 3 -25 10 -25 14 0 11 56 -5 86
-25z m-488 3 c5 -7 6 -22 2 -32 -6 -17 -8 -16 -18 12 -11 32 -3 43 16 20z
m-1344 -14 c4 -11 1 -14 -11 -12 -9 2 -18 9 -21 16 -6 18 25 15 32 -4z m526
-18 c-11 -11 -70 -18 -235 -26 -121 -7 -221 -13 -222 -14 -1 -1 2 -8 6 -15 7
-11 42 -11 206 -2 109 7 200 9 203 6 14 -14 -23 -20 -200 -32 -105 -7 -194
-15 -196 -18 -3 -3 -2 -8 2 -12 9 -9 208 -7 304 2 51 5 62 4 62 -8 0 -12 -26
-16 -137 -21 -76 -4 -154 -8 -174 -10 -20 -2 -41 -1 -47 3 -6 3 -21 36 -35 73
l-24 66 91 2 c50 1 145 5 211 9 202 13 201 13 185 -3z m1218 3 c-2 -6 -8 -10
-13 -10 -5 0 -11 4 -13 10 -2 6 4 11 13 11 9 0 15 -5 13 -11z m-754 -50 c-2
-4 2 -25 10 -46 8 -24 11 -46 5 -54 -13 -21 -58 89 -52 125 l6 29 18 -24 c9
-13 16 -26 13 -30z m554 -19 c-11 -33 -22 -60 -25 -60 -7 0 3 38 22 83 24 57
26 44 3 -23z m-1528 35 c20 -24 5 -28 -21 -6 -19 16 -20 20 -8 21 9 0 22 -7
29 -15z m810 -24 c14 -10 39 -40 55 -66 55 -88 35 -199 -45 -252 -43 -30 -126
-31 -171 -4 -36 22 -63 57 -54 71 3 6 2 10 -4 10 -16 0 -29 65 -21 108 23 126
150 197 240 133z m1084 -26 c24 -36 21 -91 -6 -118 -14 -14 -134 -64 -303
-126 -154 -57 -361 -136 -460 -174 -249 -96 -546 -193 -634 -206 -79 -12 -150
-7 -191 14 -47 25 -79 70 -143 205 -97 204 -108 230 -93 230 12 0 96 -139 154
-256 67 -133 121 -169 257 -168 75 1 107 6 189 34 142 48 340 151 654 339 381
228 535 289 576 226z m-2642 -15 c32 -12 60 -26 64 -31 12 -21 -6 -21 -48 -1
-55 27 -177 46 -237 37 -143 -20 -234 -67 -346 -180 -141 -141 -197 -265 -197
-442 0 -153 39 -264 128 -370 227 -267 655 -221 852 91 14 22 39 76 56 121 29
76 31 87 31 230 l0 150 -37 90 c-38 94 -27 91 22 -6 50 -99 63 -160 58 -283
-10 -230 -110 -409 -293 -528 -217 -141 -520 -100 -701 95 -190 205 -205 505
-37 759 86 131 238 240 393 283 76 21 217 14 292 -15z m763 19 c11 -17 0 -20
-21 -4 -17 13 -17 14 -2 15 9 0 20 -5 23 -11z m12 -35 c-3 -3 -12 -4 -19 -1
-8 3 -5 6 6 6 11 1 17 -2 13 -5z m13 -43 c13 -25 13 -34 0 -26 -16 10 -32 45
-21 45 6 0 15 -9 21 -19z m-804 -2 c32 -7 62 -15 66 -18 5 -4 -2 -34 -15 -66
-17 -45 -29 -61 -45 -63 l-22 -3 25 37 c44 65 32 87 -58 106 -44 9 -73 9 -150
-4 -134 -22 -232 -71 -317 -157 -108 -111 -158 -213 -179 -366 l-10 -70 5 73
c16 249 207 473 453 531 53 13 179 13 247 0z m319 -36 c50 -67 101 -177 119
-253 34 -143 12 -340 -53 -484 -31 -70 -101 -180 -108 -172 -2 2 7 21 21 43
75 115 122 313 113 478 -9 145 -44 248 -123 356 -21 29 -32 53 -28 63 10 25
21 19 59 -31z m1473 35 c20 -20 14 -72 -14 -123 -19 -37 -25 -60 -22 -94 l3
-45 -115 -57 c-306 -153 -416 -165 -524 -58 -49 50 -52 64 -11 71 14 2 33 -11
58 -39 68 -75 165 -78 325 -9 86 37 153 79 187 115 19 22 54 136 55 179 0 12
4 22 9 22 16 0 23 -20 12 -34 -11 -13 -5 -26 11 -26 5 0 9 12 7 28 -1 15 2 35
6 46 5 12 3 21 -6 27 -8 5 -9 9 -3 9 5 0 15 -5 22 -12z m233 -27 c-11 -20 -51
-48 -51 -35 0 7 53 60 58 58 2 -1 -1 -12 -7 -23z m80 -3 c-3 -21 -6 -26 -9
-15 -3 17 3 47 11 47 2 0 1 -15 -2 -32z m-911 6 c0 -8 -55 -13 -167 -16 -159
-5 -182 -2 -183 22 0 3 79 5 175 5 122 0 175 -3 175 -11z m-1197 -24 c15 0 27
-6 27 -13 0 -19 -67 -90 -82 -85 -11 4 -45 87 -47 114 -1 8 10 8 37 -2 20 -7
49 -13 65 -14z m827 -11 c7 -11 10 -23 7 -25 -6 -6 -37 25 -37 37 0 17 19 9
30 -12z m-932 -33 c8 -27 9 -43 2 -50 -9 -9 -114 -46 -133 -46 -9 0 -47 61
-47 75 1 33 69 66 130 62 31 -2 36 -6 48 -41z m2062 31 c0 -8 -11 -19 -25 -25
-25 -12 -25 -12 -9 13 18 27 34 33 34 12z m97 -19 c-3 -8 -6 -5 -6 6 -1 11 2
17 5 13 3 -3 4 -12 1 -19z m-857 4 c0 -5 -65 -13 -145 -17 -89 -4 -145 -11
-145 -18 0 -7 31 -8 95 -3 62 4 95 3 95 -4 0 -5 -15 -10 -32 -10 -18 0 -62 -3
-98 -6 -65 -6 -66 -6 -80 22 -8 16 -16 31 -17 34 -2 3 71 7 162 8 98 2 165 -1
165 -6z m13 -99 c10 -38 26 -79 37 -93 41 -53 4 -71 -43 -22 -22 23 -27 38
-27 77 0 52 -20 85 -52 85 -10 0 -18 5 -18 10 0 6 19 10 43 10 l43 0 17 -67z
m-1550 -7 c17 -35 17 -38 0 -60 -49 -65 -103 -78 -153 -38 l-23 19 39 43 c42
46 93 82 109 77 6 -2 18 -20 28 -41z m2963 -3 c-41 -75 -84 -103 -157 -103
-58 0 -139 24 -139 41 0 15 44 21 74 10 15 -6 48 -11 73 -11 43 0 50 4 101 57
55 57 77 60 48 6z m-676 32 c0 -2 -13 -11 -30 -20 -26 -13 -30 -13 -30 -1 0
13 16 22 48 25 6 0 12 -1 12 -4z m745 -27 c-9 -30 -53 -88 -67 -88 -5 0 3 15
20 34 17 19 33 44 37 55 3 12 9 21 11 21 3 0 2 -10 -1 -22z m-1573 -21 c16
-24 3 -42 -33 -45 -48 -4 -70 20 -43 49 19 21 61 19 76 -4z m1413 13 c-3 -5
-10 -10 -16 -10 -5 0 -9 5 -9 10 0 6 7 10 16 10 8 0 12 -4 9 -10z m-59 -15
c-20 -15 -36 -19 -36 -10 0 5 38 23 50 24 3 0 -4 -6 -14 -14z m-2576 -41 c0
-17 22 -18 38 -2 8 8 14 5 21 -15 6 -15 18 -27 28 -27 13 0 14 -3 6 -11 -9 -9
-18 -8 -35 3 -14 9 -32 12 -48 8 -22 -6 -20 -9 23 -20 35 -9 47 -17 45 -29 -3
-13 -17 -16 -69 -17 -70 -2 -110 -17 -146 -56 -30 -32 -53 -90 -53 -133 0 -30
-3 -35 -22 -35 -21 -1 -21 -2 -5 -11 9 -5 22 -7 27 -4 6 3 10 2 10 -4 0 -6 14
-26 32 -46 73 -84 183 -102 280 -48 29 17 60 41 70 54 22 30 38 112 38 199 0
67 0 68 30 74 21 4 30 11 30 26 0 21 -14 27 -25 10 -12 -20 -26 -10 -15 10 28
52 63 -8 82 -140 10 -65 9 -88 -5 -145 -18 -70 -23 -82 -33 -73 -3 3 2 30 10
59 18 60 21 99 6 99 -5 0 -7 -6 -4 -14 3 -8 1 -17 -4 -20 -5 -3 -12 3 -15 14
-9 36 -27 21 -27 -22 1 -40 2 -42 15 -24 21 28 28 14 15 -32 -12 -48 -74 -133
-121 -167 -77 -57 -193 -79 -283 -54 -51 14 -144 102 -176 166 -18 36 -25 69
-28 133 l-4 85 28 -27 29 -27 17 40 c18 42 9 52 -16 17 -20 -28 -21 -12 -2 25
8 15 11 27 6 27 -5 0 -12 -9 -15 -21 -4 -13 -11 -17 -16 -12 -11 11 -2 43 12
43 5 0 32 25 60 55 57 59 126 96 140 73 7 -10 9 -9 9 4 0 17 10 23 41 25 11 1
19 -5 19 -13z m100 -22 c0 -15 -2 -15 -10 -2 -13 20 -13 33 0 25 6 -3 10 -14
10 -23z m2339 -41 c14 -6 42 -13 62 -16 26 -5 40 -14 48 -31 27 -60 4 -69 -77
-28 -48 24 -112 83 -112 104 0 17 35 16 44 -1 5 -10 20 -22 35 -28z m-2821
-51 c22 -14 32 -26 28 -36 -3 -8 -13 -39 -21 -69 -15 -50 -19 -55 -51 -61 -18
-3 -46 -3 -60 0 -24 6 -26 10 -19 44 3 20 17 61 30 90 27 59 41 63 93 32z
m506 -141 c29 -23 33 -54 10 -87 -12 -18 -25 -22 -65 -22 -27 0 -49 4 -49 9 0
6 15 7 33 4 24 -3 39 0 50 12 21 20 21 35 3 61 -13 18 -14 17 -13 -16 2 -30
-2 -36 -21 -38 -23 -4 -62 22 -62 40 0 16 49 58 68 58 11 0 31 -9 46 -21z
m-515 -98 c19 -19 41 -79 41 -112 0 -8 -16 -30 -35 -49 -29 -28 -39 -32 -53
-24 -27 17 -51 66 -64 128 -13 67 -7 76 55 76 23 0 44 -7 56 -19z m691 -145
c0 -11 -43 -76 -50 -76 -4 0 -11 8 -14 17 -5 11 2 24 21 39 27 22 43 29 43 20z
m-556 -88 c26 -17 50 -37 53 -43 8 -22 -25 -85 -44 -85 -31 0 -153 90 -153
112 0 11 61 48 81 48 8 0 37 -14 63 -32z m447 -29 c26 -13 16 -26 -53 -70 -54
-35 -71 -30 -66 21 2 19 13 28 48 42 55 21 48 20 71 7z m-209 -45 c10 -3 22
-20 27 -37 12 -45 -7 -57 -93 -57 -98 0 -106 7 -72 65 l27 46 47 -6 c26 -4 55
-9 64 -11z"/>
<path d="M5386 6478 c-8 -30 -6 -78 3 -102 4 -10 7 12 7 53 -1 39 -2 71 -2 71
-1 0 -4 -10 -8 -22z"/>
<path d="M5643 6239 c-24 -17 -43 -32 -43 -35 0 -6 48 21 81 47 40 31 7 21
-38 -12z"/>
<path d="M5631 6200 c-24 -11 -42 -23 -39 -26 8 -7 74 21 82 35 9 14 9 14 -43
-9z"/>
<path d="M5942 6002 c-56 -26 -96 -48 -88 -50 8 -2 58 19 113 47 123 62 111
64 -25 3z"/>
<path d="M5449 5984 c-21 -24 -22 -26 -3 -16 25 13 50 42 37 42 -5 0 -20 -12
-34 -26z"/>
<path d="M4063 5802 c-36 -23 -43 -120 -13 -170 26 -43 57 -40 83 8 13 24 14
29 3 16 -9 -11 -16 -23 -16 -28 0 -4 -9 -8 -19 -8 -13 0 -24 13 -35 40 -32 80
-13 145 34 120 20 -11 21 -10 10 9 -11 22 -27 26 -47 13z"/>
<path d="M5851 4866 c2 -2 15 -9 29 -15 24 -11 24 -11 6 3 -16 13 -49 24 -35
12z"/>
<path d="M5815 4850 c-3 -6 1 -7 9 -4 18 7 21 14 7 14 -6 0 -13 -4 -16 -10z"/>
<path d="M5810 4706 c0 -2 8 -10 18 -17 15 -13 16 -12 3 4 -13 16 -21 21 -21
13z"/>
<path d="M4235 4580 c-3 -5 -1 -10 4 -10 6 0 11 5 11 10 0 6 -2 10 -4 10 -3 0
-8 -4 -11 -10z"/>
<path d="M4153 4554 c-3 -9 -13 -14 -24 -11 -15 4 -19 0 -19 -23 l0 -28 40 21
c22 12 35 23 30 25 -5 2 -6 10 -3 18 3 8 0 14 -6 14 -7 0 -14 -7 -18 -16z"/>
<path d="M4208 4543 c7 -3 16 -2 19 1 4 3 -2 6 -13 5 -11 0 -14 -3 -6 -6z"/>
<path d="M4047 4476 c-20 -43 -8 -54 23 -20 21 22 22 26 9 39 -13 14 -17 12
-32 -19z"/>
<path d="M4526 4431 c-3 -4 6 -6 19 -3 14 2 25 6 25 8 0 8 -39 4 -44 -5z"/>
<path d="M4520 4401 c0 -5 8 -17 18 -27 16 -16 17 -16 20 -1 4 22 19 22 26 0
3 -11 4 -8 3 6 -2 20 -8 25 -34 28 -18 2 -33 0 -33 -6z"/>
<path d="M3961 4288 c0 -32 17 -85 18 -60 1 6 7 12 15 12 8 0 17 -6 20 -12 4
-7 4 5 1 27 -7 61 -56 90 -54 33z"/>
<path d="M4010 4194 c0 -8 -4 -12 -10 -9 -34 21 25 -69 78 -118 l30 -29 20 20
21 21 -37 27 c-20 15 -31 21 -24 14 6 -8 12 -20 12 -27 0 -18 -25 -16 -41 3
-10 13 -10 17 1 24 8 5 11 12 7 17 -5 4 -12 1 -16 -6 -7 -11 -11 -9 -20 7 -15
29 -14 37 4 22 23 -19 29 -5 10 24 -19 29 -35 34 -35 10z"/>
<path d="M4496 4193 c-4 -9 -3 -20 2 -25 11 -11 36 17 27 32 -9 15 -22 12 -29
-7z"/>
<path d="M4420 4116 c-13 -15 -20 -31 -16 -41 5 -15 9 -14 36 5 36 26 51 47
22 31 -29 -16 -34 -14 -22 9 14 27 8 25 -20 -4z"/>
<path d="M4188 4065 c-10 -11 5 -55 18 -55 23 0 35 43 15 52 -21 9 -27 9 -33
3z"/>
<path d="M4356 4054 c-4 -10 -1 -14 6 -12 15 5 23 28 10 28 -5 0 -13 -7 -16
-16z"/>
<path d="M4295 4050 c-8 -14 3 -30 21 -30 8 0 14 9 14 20 0 21 -24 28 -35 10z"/>
<path d="M4130 4036 c0 -2 7 -6 15 -10 8 -3 15 -1 15 4 0 6 -7 10 -15 10 -8 0
-15 -2 -15 -4z"/>
<path d="M4294 4315 c-8 -20 4 -35 28 -35 14 0 18 5 14 16 -3 9 -6 20 -6 25 0
15 -30 10 -36 -6z"/>
<path d="M8063 5883 c-67 -3 -83 -7 -87 -21 -17 -59 -306 -1374 -306 -1394 0
-5 62 -7 138 -6 l137 3 52 230 c28 127 71 326 95 442 23 117 45 213 48 213 3
0 34 -82 68 -183 35 -100 87 -242 115 -315 l51 -133 75 3 75 3 124 140 c124
140 340 393 397 466 17 21 33 38 36 39 4 0 -4 -46 -18 -102 -79 -333 -183
-783 -183 -794 0 -11 28 -14 134 -14 l134 0 26 113 c15 61 65 281 112 487 47
206 105 462 130 568 24 106 44 199 44 207 0 12 -21 15 -119 15 l-119 0 -208
-232 c-409 -455 -481 -533 -489 -531 -5 1 -56 120 -112 265 -235 596 -207 533
-239 534 -16 0 -66 -1 -111 -3z"/>
<path d="M16026 5488 c-43 -200 -94 -435 -113 -523 -20 -88 -52 -236 -72 -330
l-37 -170 139 -3 c77 -1 142 -1 144 2 7 6 31 118 124 561 44 209 100 476 124
593 25 117 45 217 45 222 0 6 -57 10 -138 10 l-138 0 -78 -362z"/>
<path d="M11011 5683 c-5 -21 -19 -83 -31 -137 l-22 -99 -87 6 c-48 3 -93 2
-100 -2 -14 -9 -56 -189 -46 -199 4 -4 47 -9 96 -10 49 -2 89 -7 89 -11 0 -4
-23 -111 -52 -237 -63 -280 -67 -354 -25 -426 34 -58 89 -92 175 -109 69 -13
211 -7 287 12 l45 11 0 77 c0 123 2 121 -94 121 -157 0 -162 15 -107 280 22
107 47 215 54 240 l13 45 142 3 141 3 10 37 c30 113 38 161 27 165 -6 3 -71 2
-143 -1 -73 -3 -133 -2 -133 3 0 4 14 63 30 132 17 68 30 126 30 128 0 3 -65
5 -145 5 l-144 0 -10 -37z"/>
<path d="M14140 5490 c-78 -12 -165 -46 -234 -91 l-59 -39 -46 43 c-63 59
-127 80 -245 79 -100 -1 -215 -26 -302 -66 l-53 -25 6 45 6 44 -136 0 -136 0
-11 -57 c-6 -32 -27 -128 -46 -213 -20 -85 -55 -245 -80 -355 -24 -110 -53
-242 -65 -293 -11 -52 -18 -97 -14 -100 4 -4 66 -7 138 -7 l131 0 32 135 c17
74 52 230 79 345 26 116 53 220 61 232 7 12 42 36 77 53 121 59 268 48 306
-24 19 -34 12 -79 -74 -451 -47 -207 -61 -281 -52 -287 7 -4 69 -8 139 -8
l127 0 11 58 c7 31 31 140 55 242 23 102 53 232 65 290 27 121 41 142 133 191
77 41 181 52 232 25 77 -42 77 -93 -4 -494 -34 -167 -61 -306 -61 -309 0 -6
277 0 284 7 2 3 32 142 66 310 87 426 89 517 17 612 -68 88 -201 130 -347 108z"/>
<path d="M10034 5480 c-79 -11 -205 -54 -272 -92 -302 -172 -405 -577 -205
-799 97 -107 283 -157 487 -130 231 31 410 149 505 331 72 138 91 302 51 433
-35 112 -143 208 -274 241 -74 20 -214 27 -292 16z m176 -247 c82 -33 120 -96
120 -196 0 -139 -77 -264 -200 -327 -99 -50 -254 -33 -323 36 -47 48 -61 90
-55 178 13 202 177 348 368 329 30 -3 71 -12 90 -20z"/>
<path d="M15139 5471 c-254 -68 -418 -251 -459 -514 -41 -254 68 -427 310
-493 83 -23 316 -26 408 -5 80 18 207 81 206 102 -1 8 -27 51 -59 95 -32 43
-59 80 -59 81 -1 1 -35 -15 -76 -35 -71 -36 -78 -37 -179 -37 -96 0 -111 3
-164 28 -70 35 -108 81 -115 142 l-5 45 391 0 390 0 12 72 c17 96 8 219 -19
290 -26 67 -103 157 -167 194 -24 14 -67 32 -96 40 -73 19 -237 16 -319 -5z
m256 -230 c65 -30 105 -86 105 -147 l0 -24 -123 0 c-68 0 -186 -3 -261 -7
l-138 -6 21 39 c36 69 97 123 167 148 58 21 180 20 229 -3z"/>
<path d="M12011 5465 c-126 -28 -272 -113 -361 -212 -57 -64 -121 -187 -141
-273 -20 -84 -15 -204 11 -272 43 -114 155 -205 297 -244 87 -23 268 -21 367
5 132 35 220 84 311 176 124 123 176 244 178 415 1 100 -17 169 -64 239 -49
73 -122 124 -223 157 -64 20 -96 24 -194 23 -64 0 -146 -7 -181 -14z m266
-239 c36 -17 60 -38 80 -67 25 -39 28 -51 28 -128 0 -73 -5 -94 -28 -143 -76
-156 -238 -235 -404 -198 -71 15 -136 75 -153 140 -34 127 38 297 157 367 70
41 112 52 193 52 59 1 86 -4 127 -23z"/>
</g>
</svg>
