<?xml version="1.0" standalone="no"?>
<!DOCTYPE svg PUBLIC "-//W3C//DTD SVG 20010904//EN"
 "http://www.w3.org/TR/2001/REC-SVG-20010904/DTD/svg10.dtd">
<svg version="1.0" xmlns="http://www.w3.org/2000/svg"
 width="2048.000000pt" height="1024.000000pt" viewBox="0 0 2048.000000 1024.000000"
 preserveAspectRatio="xMidYMid meet">

<g transform="translate(0.000000,1024.000000) scale(0.100000,-0.100000)"
fill="#38d8d2" stroke="none">
<path d="M4198 6473 c-45 -7 -47 -41 -5 -78 40 -34 77 -94 208 -343 29 -53 55
-101 59 -107 17 -23 143 -257 296 -553 l64 -122 0 -325 0 -325 -33 -48 c-48
-70 -59 -96 -55 -128 l3 -29 313 0 314 0 24 30 c13 17 24 37 24 45 0 9 -18 39
-40 69 l-40 53 0 333 c0 304 2 334 18 356 10 13 38 58 62 99 24 41 60 100 81
130 20 30 63 100 96 155 105 177 143 238 198 325 30 47 58 92 62 100 17 36
135 211 156 232 13 13 40 34 60 48 47 32 52 76 10 86 -14 4 -134 4 -266 1
-200 -5 -243 -8 -256 -21 -10 -11 -18 -43 -22 -91 -5 -65 -12 -84 -54 -157
-47 -80 -113 -196 -240 -422 -33 -59 -65 -109 -69 -110 -9 -1 -80 133 -270
511 -75 150 -142 276 -149 280 -13 8 -503 14 -549 6z"/>
<path d="M8900 6460 c-16 -29 -4 -56 31 -70 16 -7 41 -26 54 -42 l25 -30 0
-1157 c0 -861 -3 -1167 -12 -1192 -13 -38 -28 -53 -75 -74 -30 -12 -33 -18
-33 -55 l0 -41 668 4 c497 2 676 6 704 15 46 16 94 55 113 92 21 41 44 198 47
329 l3 115 -38 1 c-32 2 -40 -2 -52 -26 -17 -32 -56 -64 -105 -87 -29 -13 -81
-16 -304 -18 -147 -2 -274 0 -282 3 -12 4 -14 68 -14 369 l0 364 288 2 287 3
3 208 2 207 -290 0 -290 0 2 343 3 342 275 0 c286 0 342 -6 421 -46 20 -10 39
-15 43 -12 10 10 7 215 -4 274 -13 69 -31 107 -67 140 -65 62 -31 59 -742 59
-644 0 -650 0 -661 -20z"/>
<path d="M14909 6469 c-6 -3 -9 -23 -7 -44 3 -34 7 -40 35 -47 17 -5 41 -20
52 -34 21 -27 21 -30 21 -1205 l0 -1179 -28 -31 c-15 -17 -42 -34 -62 -38 -31
-6 -34 -10 -36 -44 -2 -29 1 -37 14 -37 322 -5 1305 3 1342 11 27 6 64 20 82
32 76 52 96 123 99 352 2 165 8 161 -111 84 l-77 -49 -297 0 -296 0 2 358 3
357 285 0 285 0 3 203 2 202 -284 0 c-178 0 -287 4 -291 10 -3 5 -7 166 -8
357 l-1 348 74 6 c41 3 174 4 295 2 l220 -4 78 -40 c43 -21 81 -39 84 -39 11
0 -6 237 -21 282 -20 62 -58 126 -96 163 l-31 30 -660 0 c-363 1 -664 -2 -670
-6z"/>
<path d="M16833 6473 c-256 -3 -333 -6 -334 -16 -6 -57 -4 -61 30 -69 58 -16
80 -37 96 -93 14 -47 15 -188 12 -1161 -2 -887 -6 -1118 -16 -1152 -16 -52
-64 -102 -96 -102 -30 0 -34 -7 -27 -49 l5 -34 602 5 603 5 49 24 c91 45 108
99 108 353 l0 149 -45 1 c-54 2 -70 -8 -70 -44 0 -15 -9 -35 -21 -46 -19 -17
-41 -19 -245 -22 l-224 -3 2 1054 3 1055 25 21 c14 11 39 24 55 29 26 7 30 13
33 49 l3 40 -62 7 c-34 3 -83 5 -108 4 -25 -2 -196 -4 -378 -5z"/>
<path d="M7478 6463 c-22 -6 -33 -40 -18 -57 6 -8 24 -19 40 -26 18 -8 36 -27
49 -56 21 -43 21 -56 21 -891 l0 -848 -40 -44 c-42 -45 -53 -94 -28 -119 17
-17 963 -17 1019 -1 52 16 108 64 130 113 24 53 27 213 4 222 -8 3 -45 1 -82
-5 -37 -6 -158 -12 -268 -14 l-200 -2 -3 783 c-2 867 -6 823 63 863 39 23 45
36 34 67 l-8 22 -348 -1 c-191 -1 -356 -3 -365 -6z"/>
<path d="M10524 6456 c-13 -34 1 -60 36 -67 19 -4 44 -19 56 -32 20 -24 22
-41 29 -243 12 -333 0 -2143 -14 -2177 -8 -20 -26 -34 -61 -49 -47 -20 -51
-23 -48 -52 l3 -31 315 -3 c173 -1 325 0 338 3 18 4 22 12 22 40 0 31 -4 36
-29 41 -16 4 -43 18 -60 33 l-30 26 -2 305 c-1 168 -1 492 0 720 1 355 3 412
15 400 14 -15 248 -472 423 -825 186 -377 253 -490 344 -589 112 -120 206
-157 400 -157 63 0 123 3 132 7 12 4 17 18 17 46 0 34 -4 40 -27 49 -16 5 -36
21 -47 35 -18 25 -19 67 -18 1202 1 1134 2 1177 20 1202 10 14 32 32 48 40 37
19 44 29 44 63 l0 27 -349 0 -349 0 -5 -27 c-7 -35 8 -63 33 -63 11 0 34 -13
52 -29 l33 -29 -3 -444 c-1 -244 -3 -485 -2 -537 0 -83 -2 -92 -16 -81 -8 8
-28 38 -43 69 -15 31 -43 83 -61 116 -33 60 -100 188 -187 358 -25 51 -52 99
-58 107 -7 8 -36 60 -65 115 -29 55 -57 102 -62 103 -4 2 -8 8 -8 14 0 21 -78
126 -140 189 -119 118 -187 139 -468 139 -166 0 -204 -3 -208 -14z"/>
<path d="M12530 6435 c0 -27 6 -38 28 -52 15 -9 37 -26 50 -37 l22 -19 0
-1184 0 -1183 -28 -31 c-15 -17 -42 -34 -62 -38 -29 -6 -35 -12 -41 -41 -4
-19 -7 -36 -5 -37 1 -1 195 -3 431 -4 398 -1 430 0 433 16 7 31 -8 63 -31 69
-12 3 -32 15 -45 26 l-22 21 2 507 3 507 262 3 262 2 3 190 c2 105 2 195 0
200 -2 6 -103 10 -268 10 l-264 0 0 366 0 365 293 -3 c160 -2 300 -7 310 -12
15 -7 17 -3 17 34 0 80 -32 233 -56 272 -13 20 -43 48 -67 62 l-44 26 -591 0
-592 0 0 -35z"/>
<path d="M13952 6433 c2 -30 7 -39 25 -41 40 -6 71 -55 78 -124 3 -35 5 -568
3 -1185 -3 -1113 -3 -1122 -24 -1149 -11 -15 -39 -34 -62 -43 -40 -14 -43 -18
-40 -48 l3 -33 420 -1 c380 0 420 2 423 16 7 33 -8 63 -34 69 -14 4 -37 18
-50 31 l-24 24 0 1184 c0 1181 0 1184 21 1211 11 14 35 29 52 34 29 7 32 12
35 50 l3 42 -416 0 -416 0 3 -37z"/>
<path d="M17946 6445 c-9 -34 -5 -39 49 -65 25 -12 51 -32 57 -43 17 -33 15
-2344 -2 -2377 -18 -34 -42 -57 -67 -64 -19 -6 -23 -15 -23 -49 l0 -42 443 2
c350 3 462 7 537 19 432 73 716 324 844 746 110 359 108 843 -4 1180 -116 347
-320 552 -650 652 -182 55 -220 58 -716 63 l-461 5 -7 -27z m944 -442 c158
-54 256 -210 312 -498 18 -94 18 -568 0 -685 -44 -287 -132 -443 -292 -524
-61 -30 -203 -67 -215 -55 -3 4 -8 1684 -5 1783 0 12 147 -3 200 -21z"/>
<path d="M634 6450 c-21 -21 -4 -56 33 -69 27 -10 40 -23 55 -58 20 -45 20
-65 19 -1186 -2 -1254 2 -1181 -65 -1232 -29 -22 -36 -34 -36 -61 l0 -33 360
0 c199 0 367 2 375 6 9 3 15 18 15 34 0 22 -12 41 -47 74 l-48 44 -3 586 c-2
345 1 585 6 585 5 0 61 -78 123 -172 291 -441 496 -674 778 -885 188 -141 338
-215 547 -272 152 -41 247 -53 409 -55 205 -1 449 36 582 90 154 62 284 145
300 191 14 39 2 64 -49 106 l-44 36 -81 -34 c-160 -70 -213 -79 -453 -79 -192
-1 -225 2 -310 23 -428 104 -690 317 -1110 901 -114 159 -140 198 -140 213 0
9 15 19 39 24 88 23 236 149 300 257 86 144 110 364 58 519 -67 193 -203 328
-407 399 -137 48 -168 50 -695 55 -361 3 -503 1 -511 -7z m929 -393 c67 -31
132 -93 160 -156 30 -64 29 -167 -3 -239 -28 -64 -102 -134 -168 -157 -51 -19
-262 -34 -262 -19 -1 96 -2 591 -1 598 1 5 49 7 110 4 88 -4 119 -10 164 -31z"/>
<path d="M3233 6399 c-74 -9 -227 -60 -303 -100 -125 -66 -264 -193 -344 -313
-56 -85 -121 -236 -153 -356 -24 -94 -27 -122 -27 -265 0 -170 6 -210 55 -359
57 -170 128 -283 251 -401 190 -183 426 -274 714 -275 291 -1 593 145 766 370
147 190 218 413 218 681 0 403 -211 754 -556 928 -75 37 -208 79 -293 91 -77
11 -239 11 -328 -1z m342 -473 c137 -66 238 -189 292 -356 26 -80 26 -330 0
-415 -53 -170 -156 -304 -284 -367 -55 -27 -80 -33 -153 -36 -136 -7 -219 27
-320 128 -80 79 -129 158 -167 265 -25 74 -28 92 -28 225 0 121 4 156 22 213
44 140 152 281 254 333 96 48 119 54 214 51 81 -3 98 -7 170 -41z"/>
<path d="M6335 6323 c-130 -47 -204 -135 -274 -328 -54 -149 -199 -535 -211
-560 -10 -22 -53 -138 -124 -335 -90 -252 -174 -477 -211 -568 -20 -51 -34
-99 -31 -108 5 -13 34 -15 222 -12 209 3 216 4 234 25 18 22 59 123 123 303
l34 95 296 3 296 2 14 -27 c8 -16 17 -41 21 -58 19 -80 102 -293 123 -315 l23
-25 248 0 247 0 3 25 c1 14 -14 70 -34 125 -141 382 -172 468 -223 615 -32 91
-61 172 -64 180 -27 68 -135 366 -164 450 -19 58 -39 114 -43 125 -5 11 -20
53 -34 92 -37 106 -58 142 -115 200 -98 100 -239 138 -356 96z m164 -881 c50
-153 91 -286 91 -295 0 -15 -18 -17 -183 -17 -101 0 -186 3 -190 6 -3 3 -2 16
3 27 13 33 93 284 136 430 21 70 41 127 45 127 4 0 48 -125 98 -278z"/>
<path d="M4257 4036 c-17 -42 -99 -129 -175 -186 l-34 -25 2267 0 c2232 0
2267 0 2281 19 10 14 14 48 14 111 0 76 -3 95 -18 108 -17 16 -182 17 -2168
17 l-2149 0 -18 -44z"/>
</g>
</svg>
