<?xml version="1.0" standalone="no"?>
<!DOCTYPE svg PUBLIC "-//W3C//DTD SVG 20010904//EN"
 "http://www.w3.org/TR/2001/REC-SVG-20010904/DTD/svg10.dtd">
<svg version="1.0" xmlns="http://www.w3.org/2000/svg"
 width="2048.000000pt" height="1024.000000pt" viewBox="0 0 2048.000000 1024.000000"
 preserveAspectRatio="xMidYMid meet">

<g transform="translate(0.000000,1024.000000) scale(0.100000,-0.100000)"
fill="#38d8d2" stroke="none">
<path d="M18670 7500 c0 -123 3 -158 13 -155 9 4 11 43 9 160 -4 208 -22 204
-22 -5z"/>
<path d="M18244 7607 c-2 -7 -3 -82 -2 -167 l3 -155 35 3 c74 7 70 -4 70 173
l0 159 -50 0 c-32 0 -52 -5 -56 -13z"/>
<path d="M17838 7593 l-38 -4 0 -185 c0 -172 1 -185 18 -181 9 3 33 8 52 11
l35 6 -3 180 c-2 133 -6 180 -15 178 -7 -1 -29 -3 -49 -5z"/>
<path d="M17393 7563 c-23 -4 -23 -5 -23 -205 0 -178 2 -199 16 -194 9 3 31 6
50 6 l34 0 0 200 0 200 -27 -1 c-16 -1 -38 -4 -50 -6z"/>
<path d="M16934 7527 c-2 -7 -3 -105 -2 -217 l3 -205 45 4 c25 1 48 5 52 8 5
2 8 98 8 214 l0 209 -50 0 c-32 0 -52 -5 -56 -13z"/>
<path d="M16533 7503 l-33 -4 0 -225 0 -224 39 0 c75 0 71 -13 71 236 l0 224
-22 -2 c-13 0 -38 -3 -55 -5z"/>
<path d="M16098 7483 l-38 -4 0 -245 c0 -272 -7 -251 73 -238 l37 7 -2 241
c-3 266 2 247 -70 239z"/>
<path d="M15658 7453 l-38 -4 0 -254 c0 -153 4 -256 10 -260 5 -3 31 -3 57 1
l48 6 -3 259 c-2 238 -4 259 -20 257 -9 -1 -34 -3 -54 -5z"/>
<path d="M15190 7145 c0 -307 -7 -282 73 -269 l37 7 0 268 0 269 -55 0 -55 0
0 -275z"/>
<path d="M14796 7393 c-44 -4 -48 -6 -42 -26 3 -12 6 -142 6 -289 l0 -268 24
0 c13 0 38 3 55 6 l31 7 -2 285 c-2 181 -7 286 -13 287 -5 1 -32 0 -59 -2z"/>
<path d="M14320 7050 l0 -300 24 0 c13 0 38 3 55 6 l31 7 0 293 0 294 -55 0
-55 0 0 -300z"/>
<path d="M13933 7323 l-42 -4 -3 -320 -3 -320 50 7 c28 3 52 8 55 9 8 5 0 635
-8 633 -4 -1 -26 -3 -49 -5z"/>
<path d="M13488 7293 l-28 -4 0 -335 c0 -373 -7 -341 73 -328 l37 7 0 333 0
334 -27 -1 c-16 -1 -40 -4 -55 -6z"/>
<path d="M13043 7273 c-10 -4 -13 -85 -13 -359 l0 -354 33 0 c17 0 42 3 55 6
l22 6 0 354 0 354 -42 -1 c-24 0 -49 -3 -55 -6z"/>
<path d="M18650 7255 c-77 -12 -286 -42 -875 -125 -209 -29 -625 -85 -720 -96
-84 -9 -472 -64 -605 -84 -69 -11 -278 -40 -465 -65 -485 -64 -1113 -151
-1475 -204 -113 -16 -387 -55 -610 -86 -453 -63 -839 -118 -1445 -206 -225
-32 -554 -79 -730 -104 -176 -25 -381 -54 -455 -65 -74 -10 -234 -33 -355 -50
-121 -17 -312 -46 -425 -65 l-205 -34 -125 20 c-69 10 -152 23 -185 29 -356
55 -1607 231 -2065 290 -129 16 -377 50 -550 74 -465 66 -727 102 -992 136
-294 38 -746 99 -1018 139 -113 16 -266 37 -340 46 -202 24 -572 72 -770 99
-558 77 -725 99 -1005 136 -170 22 -413 54 -540 70 -126 17 -313 41 -415 55
-102 14 -257 34 -345 45 -88 11 -169 22 -180 25 -20 4 -20 0 -17 -2122 1
-1170 4 -2129 6 -2131 3 -2 116 12 253 32 234 33 989 139 1228 172 61 8 182
26 270 39 88 13 230 33 315 44 222 29 562 76 800 111 448 66 1640 234 1915
270 83 11 276 38 430 60 770 110 2355 335 2660 376 105 14 291 41 415 59 189
27 236 31 295 23 109 -14 728 -97 840 -113 245 -34 568 -78 920 -125 209 -28
439 -59 510 -70 72 -11 216 -31 320 -44 105 -14 501 -65 880 -115 380 -49 798
-104 930 -121 132 -17 301 -39 375 -50 247 -35 571 -79 970 -130 217 -28 544
-71 725 -95 182 -25 364 -49 405 -55 41 -5 185 -25 320 -45 271 -38 794 -106
1050 -136 91 -10 177 -21 193 -24 l27 -5 0 2115 -1 2115 -27 -1 c-15 -1 -65
-7 -112 -14z m14 -302 c8 -230 7 -3709 -1 -3742 -6 -23 -8 -23 -82 -17 -43 3
-147 15 -232 26 -84 11 -293 38 -464 60 -170 21 -373 48 -450 59 -77 11 -264
36 -415 55 -476 61 -668 86 -895 117 -121 16 -256 34 -300 40 -44 5 -109 14
-145 19 -282 42 -967 134 -1645 220 -214 27 -471 61 -570 75 -508 69 -640 87
-750 101 -66 8 -277 37 -470 64 -192 27 -453 63 -580 80 -126 16 -311 41 -410
55 -99 14 -241 32 -315 40 -74 8 -209 26 -300 40 -91 13 -215 31 -276 40
l-111 15 -349 -50 c-192 -27 -479 -68 -639 -90 -264 -37 -694 -100 -1030 -151
-71 -11 -159 -24 -195 -29 -154 -20 -1222 -173 -1405 -200 -110 -17 -299 -44
-420 -60 -318 -42 -644 -87 -845 -116 -96 -13 -258 -36 -360 -49 -102 -14
-223 -32 -270 -40 -47 -7 -125 -19 -175 -25 -49 -6 -119 -15 -155 -21 -36 -5
-164 -23 -285 -39 -121 -16 -319 -43 -440 -60 -445 -63 -436 -62 -1115 -155
-184 -25 -414 -57 -510 -70 -96 -14 -178 -25 -182 -25 -5 0 -8 894 -8 1986 l0
1987 73 -8 c128 -12 898 -110 947 -120 14 -3 81 -12 150 -20 264 -31 1199
-154 1330 -175 72 -12 617 -85 695 -94 28 -3 370 -49 760 -101 391 -52 865
-115 1055 -140 190 -25 390 -52 445 -60 268 -40 326 -48 820 -115 454 -62 804
-110 1120 -155 132 -19 414 -60 627 -90 l387 -55 488 70 c268 39 515 75 548
80 33 5 128 18 210 30 295 41 775 109 1095 155 96 14 319 45 495 70 176 25
394 56 485 69 254 38 770 111 1130 161 179 25 386 54 460 65 74 11 284 41 465
65 182 25 474 66 650 90 176 25 487 68 690 95 509 69 785 107 950 131 77 11
223 31 325 45 102 14 226 31 275 39 50 7 95 13 101 14 8 1 13 -59 18 -186z"/>
<path d="M3860 5896 c-25 -7 -115 -42 -200 -78 -85 -36 -255 -104 -377 -152
-222 -88 -264 -112 -284 -164 -5 -13 -9 -186 -9 -385 1 -410 2 -413 75 -453
49 -27 698 -276 778 -299 77 -22 101 -16 402 102 132 51 305 119 385 150 80
31 159 67 177 79 50 37 55 85 51 468 l-3 332 -27 41 c-31 46 -75 71 -233 126
-55 19 -226 83 -380 141 -154 58 -286 106 -295 105 -8 0 -35 -6 -60 -13z m198
-245 c70 -27 185 -70 255 -97 130 -49 154 -66 142 -104 -12 -37 -42 -44 -94
-21 -27 11 -92 36 -146 56 -55 19 -138 51 -186 70 -47 19 -97 35 -109 35 -27
0 -385 -156 -406 -177 -8 -8 -14 -23 -14 -34 0 -37 49 -67 178 -110 221 -74
625 -228 671 -257 133 -82 129 -227 -7 -296 -86 -43 -407 -159 -438 -159 -17
1 -102 31 -188 67 -86 37 -192 80 -234 95 -84 31 -117 65 -96 98 23 37 39 38
115 6 41 -17 145 -61 231 -97 87 -36 168 -66 180 -66 22 0 187 57 201 69 7 7
-17 18 -210 91 -99 37 -112 50 -89 85 10 15 23 28 30 31 24 9 312 -107 368
-148 24 -17 114 25 122 58 16 61 -27 91 -231 164 -207 74 -292 105 -358 132
-33 14 -105 40 -160 59 -168 57 -225 134 -174 236 13 26 35 55 49 65 27 20
437 196 458 197 7 1 70 -21 140 -48z m-68 -231 c149 -49 160 -55 160 -85 0
-36 -33 -54 -78 -44 -42 9 -196 64 -230 81 -44 22 -37 88 9 88 11 0 73 -18
139 -40z"/>
<path d="M10613 5612 c-99 -36 -166 -95 -192 -171 -16 -48 -14 -125 4 -168 37
-88 93 -116 332 -162 134 -26 173 -43 173 -75 0 -20 -9 -30 -42 -47 -37 -19
-53 -21 -152 -16 -130 5 -207 26 -249 68 -16 17 -30 29 -31 27 -13 -25 -90
-198 -94 -213 -5 -18 -4 -19 12 -6 15 13 25 12 79 -7 179 -62 422 -68 551 -13
56 25 125 86 143 128 7 18 13 57 13 88 0 71 -17 111 -67 156 -50 46 -115 70
-274 104 -164 35 -191 47 -187 83 2 19 13 32 38 45 70 37 283 5 362 -53 15
-11 29 -20 32 -20 4 0 96 206 96 215 0 12 -30 3 -38 -11 -8 -15 -12 -15 -42 1
-87 45 -143 57 -280 61 -113 4 -143 2 -187 -14z"/>
<path d="M11350 5613 c0 -5 10 -13 23 -18 l22 -10 3 -372 c2 -364 2 -373 -18
-385 -11 -7 -20 -16 -20 -20 0 -5 75 -8 168 -8 l167 0 -30 24 -30 24 -3 356
-3 356 25 25 c13 13 22 27 18 29 -13 8 -322 7 -322 -1z"/>
<path d="M11890 5612 c0 -4 9 -15 20 -25 19 -16 20 -29 20 -387 0 -203 -4
-370 -8 -370 -5 0 -17 -7 -28 -15 -17 -13 -1 -14 145 -15 l164 0 -27 25 -26
24 0 171 c0 93 2 170 4 170 2 0 52 -75 112 -167 59 -93 115 -176 124 -186 16
-17 23 -9 129 163 62 99 117 183 122 186 11 6 12 -336 1 -352 -4 -6 -16 -16
-27 -22 -16 -9 18 -11 148 -12 l168 0 -28 24 -28 24 2 364 c2 351 3 364 23
380 11 9 20 19 20 22 0 3 -47 6 -105 6 -98 0 -105 -1 -118 -22 -115 -185 -282
-438 -287 -436 -8 3 -257 376 -280 418 -7 14 -18 28 -24 32 -15 10 -216 10
-216 0z"/>
<path d="M13100 5610 c0 -5 6 -10 13 -10 8 0 21 -8 30 -18 15 -17 17 -58 17
-380 l0 -362 -32 -20 -33 -20 185 1 c108 0 176 4 165 9 -39 15 -46 36 -48 132
l-2 93 175 5 c161 5 179 7 230 31 105 50 151 117 158 231 6 99 -10 156 -59
212 -45 51 -111 82 -206 96 -91 13 -593 13 -593 0z m573 -180 c51 -25 73 -103
44 -160 -23 -46 -69 -60 -199 -60 l-118 0 0 120 0 120 123 -3 c75 -2 133 -9
150 -17z"/>
<path d="M14341 5591 l21 -29 -172 -353 c-120 -246 -182 -362 -204 -381 l-30
-28 169 0 c168 0 170 1 146 19 l-24 19 23 61 22 61 193 0 193 0 20 -47 c32
-78 35 -93 18 -93 -8 0 -18 -4 -21 -10 -4 -7 54 -10 167 -10 166 0 172 1 151
18 -12 9 -103 181 -203 381 -174 349 -180 364 -165 387 8 13 15 26 15 29 0 3
-77 5 -170 5 l-171 0 22 -29z m211 -339 l56 -137 -115 -3 c-64 -1 -118 -1
-120 2 -6 5 108 276 116 276 3 0 32 -62 63 -138z"/>
<path d="M5640 5600 c-113 -24 -229 -109 -283 -207 -36 -67 -53 -181 -39 -263
25 -138 93 -228 219 -288 69 -32 86 -36 182 -40 120 -5 226 17 316 66 l50 27
5 145 c3 91 10 153 18 168 l13 22 -116 0 c-107 0 -115 -1 -100 -16 13 -13 15
-36 13 -127 l-3 -112 -30 -14 c-16 -8 -64 -17 -106 -19 -67 -4 -84 -1 -133 21
-101 47 -145 117 -146 231 0 97 16 143 71 198 57 57 104 72 214 66 85 -5 130
-21 178 -66 16 -16 30 -22 35 -16 22 24 102 133 102 138 0 3 -7 6 -16 6 -9 0
-31 9 -49 20 -90 56 -279 84 -395 60z"/>
<path d="M6306 5575 c11 -28 14 -101 14 -384 0 -222 -4 -352 -10 -356 -5 -3
-10 -13 -10 -21 0 -11 21 -14 111 -14 102 0 110 1 103 18 -5 9 -10 72 -12 140
l-3 122 99 0 100 0 58 -97 c76 -125 85 -145 72 -160 -8 -10 3 -13 48 -14 33 0
92 -2 132 -4 39 -2 72 -2 72 0 0 3 -16 19 -35 37 -32 31 -165 237 -165 257 0
5 9 13 20 16 34 11 80 55 102 99 44 85 21 243 -45 314 -63 68 -134 82 -424 82
l-242 0 15 -35z m510 -147 c21 -21 28 -39 32 -81 4 -49 2 -57 -26 -88 l-30
-34 -151 -3 -151 -3 0 121 0 122 150 -4 c147 -3 150 -3 176 -30z"/>
<path d="M7190 5601 c0 -5 5 -11 12 -13 18 -6 26 -104 27 -324 1 -244 10 -284
79 -353 95 -94 230 -129 387 -100 117 21 213 89 259 181 26 52 26 53 26 302 0
203 3 256 15 280 8 15 15 30 15 32 0 2 -54 4 -120 4 -66 0 -120 -4 -120 -9 0
-5 7 -14 15 -21 21 -18 22 -483 1 -534 -30 -72 -129 -114 -230 -95 -74 13
-113 39 -137 93 -16 36 -19 69 -19 282 0 203 2 244 15 254 8 7 15 16 15 21 0
5 -54 9 -120 9 -66 0 -120 -4 -120 -9z"/>
<path d="M8200 5603 c0 -4 7 -17 15 -27 22 -30 22 -728 0 -746 -8 -7 -13 -15
-11 -19 3 -5 189 -6 234 -1 2 0 -4 10 -12 22 -12 17 -16 48 -16 125 l0 103 93
0 c276 1 364 28 420 133 29 55 32 213 5 263 -27 50 -78 95 -138 123 -54 26
-59 26 -322 29 -148 2 -268 0 -268 -5z m514 -161 c88 -51 83 -199 -8 -232 -16
-5 -89 -10 -162 -10 l-134 0 0 133 0 132 137 -3 c109 -2 143 -6 167 -20z"/>
<path d="M9370 5594 c-88 -24 -141 -54 -201 -114 -65 -65 -97 -138 -106 -242
-22 -264 165 -437 472 -438 199 0 350 81 421 226 58 118 39 308 -40 415 -41
55 -138 122 -210 145 -72 24 -264 28 -336 8z m278 -150 c58 -24 110 -73 138
-130 24 -49 26 -62 21 -129 -7 -95 -35 -149 -100 -192 -59 -39 -104 -53 -178
-53 -133 0 -241 71 -273 180 -38 130 12 259 122 315 73 36 195 41 270 9z"/>
<path d="M12638 7243 l-38 -4 0 -371 0 -371 46 6 c26 2 51 11 56 18 5 8 7 61
4 124 -3 61 -6 221 -6 358 0 192 -3 247 -12 245 -7 -1 -30 -3 -50 -5z"/>
<path d="M12214 7223 l-41 -4 -6 -166 c-4 -91 -7 -267 -7 -391 l0 -224 53 7
c28 4 54 10 58 14 7 9 -2 771 -9 769 -4 -1 -25 -3 -48 -5z"/>
<path d="M11773 7193 l-43 -4 0 -406 0 -406 38 7 c20 3 45 6 55 6 16 0 17 26
17 405 0 318 -3 405 -12 403 -7 -1 -32 -3 -55 -5z"/>
<path d="M11298 7033 c-3 -76 -3 -267 0 -425 6 -319 0 -296 71 -282 l31 7 0
418 0 419 -49 0 -48 0 -5 -137z"/>
<path d="M10860 6694 l0 -446 23 6 c12 3 37 6 55 6 l32 0 0 440 0 440 -55 0
-55 0 0 -446z"/>
<path d="M10427 7103 c-4 -3 -7 -210 -7 -460 0 -507 -8 -460 73 -447 l37 7 0
453 0 454 -48 0 c-27 0 -52 -3 -55 -7z"/>
<path d="M10004 7073 c-31 -6 -34 -49 -34 -484 l0 -376 38 -7 c20 -3 47 -6 60
-6 l22 0 0 440 0 440 -32 -1 c-18 -1 -43 -4 -54 -6z"/>
<path d="M9568 7033 l-28 -4 0 -380 c0 -313 2 -379 14 -379 7 0 33 -3 57 -6
l44 -6 -3 391 -2 391 -28 -1 c-15 -1 -39 -4 -54 -6z"/>
<path d="M9107 6993 c-4 -3 -7 -152 -7 -329 l0 -324 23 -4 c12 -3 37 -7 55 -9
l32 -4 0 339 0 338 -48 0 c-27 0 -52 -3 -55 -7z"/>
<path d="M8698 6973 l-28 -4 0 -283 0 -283 31 -7 c17 -3 42 -6 55 -6 l24 0 0
295 0 295 -27 -1 c-16 -1 -40 -4 -55 -6z"/>
<path d="M8257 6943 c-4 -3 -7 -114 -7 -245 0 -182 3 -240 13 -242 6 -3 31 -7
55 -10 l42 -6 0 255 0 255 -48 0 c-27 0 -52 -3 -55 -7z"/>
<path d="M7853 6923 l-43 -4 0 -199 c0 -109 3 -201 8 -203 4 -3 28 -8 55 -12
l47 -7 -2 213 c-2 132 -7 213 -13 214 -5 1 -29 0 -52 -2z"/>
<path d="M7428 6902 l-48 -3 0 -163 0 -163 47 -6 c27 -3 51 -3 55 0 10 6 10
331 1 335 -5 2 -29 2 -55 0z"/>
<path d="M5148 6873 c6 -2 18 -2 25 0 6 3 1 5 -13 5 -14 0 -19 -2 -12 -5z"/>
<path d="M6998 6873 l-48 -4 0 -118 0 -118 38 -7 c82 -13 77 -22 74 124 -2 71
-6 129 -10 128 -4 -1 -28 -3 -54 -5z"/>
<path d="M6508 6779 c-2 -49 1 -83 7 -84 6 -2 31 -6 58 -9 l47 -6 0 90 0 90
-54 0 -54 0 -4 -81z"/>
<path d="M6060 6786 c0 -38 14 -46 88 -46 l42 0 0 40 0 40 -65 0 -65 0 0 -34z"/>
<path d="M10013 4053 l-23 -4 0 -465 0 -465 53 3 52 3 3 468 2 467 -32 -1
c-18 -1 -43 -4 -55 -6z"/>
<path d="M10420 3600 c0 -361 3 -460 13 -460 6 0 29 3 50 6 l37 7 0 453 0 454
-50 0 -50 0 0 -460z"/>
<path d="M9588 3993 l-28 -4 0 -450 0 -449 45 0 45 0 0 455 c0 504 6 458 -62
448z"/>
<path d="M10870 3585 l0 -415 50 0 51 0 -3 408 c-2 256 -7 410 -13 414 -5 4
-27 8 -47 8 l-38 0 0 -415z"/>
<path d="M11300 3574 l0 -379 50 3 50 4 0 369 c0 354 -1 369 -19 369 -10 0
-33 3 -50 6 l-31 7 0 -379z"/>
<path d="M9145 3931 l-40 -6 -3 -429 c-1 -237 1 -433 5 -436 5 -4 32 -5 61 -2
l52 4 0 439 c0 492 9 443 -75 430z"/>
<path d="M11735 3881 c-3 -2 -5 -152 -5 -333 l0 -328 50 0 50 0 0 320 c0 176
1 323 3 328 2 8 -91 21 -98 13z"/>
<path d="M8703 3873 l-23 -4 0 -418 c0 -230 2 -420 4 -422 3 -2 25 -3 50 -1
l46 4 0 424 0 424 -27 -1 c-16 -1 -38 -4 -50 -6z"/>
<path d="M12088 3833 c6 -2 18 -2 25 0 6 3 1 5 -13 5 -14 0 -19 -2 -12 -5z"/>
<path d="M12166 3538 c1 -213 4 -293 13 -292 6 1 26 2 45 3 l34 1 4 283 c2
155 3 283 3 284 0 1 -23 5 -50 8 l-50 7 1 -294z"/>
<path d="M8290 3811 l-35 -6 3 -400 c2 -220 5 -401 7 -403 2 -2 24 0 49 3 l46
7 0 404 c0 451 7 409 -70 395z"/>
<path d="M12590 3526 l0 -247 53 3 52 3 3 238 c2 221 1 237 -15 237 -10 0 -35
3 -55 6 l-38 7 0 -247z"/>
<path d="M7827 3743 c-4 -3 -7 -177 -7 -385 l0 -378 50 0 50 0 0 385 0 385
-43 0 c-24 0 -47 -3 -50 -7z"/>
<path d="M13020 3511 c0 -114 4 -202 9 -206 6 -3 28 -3 50 1 l41 7 0 192 c0
213 3 205 -66 205 l-34 0 0 -199z"/>
<path d="M7425 3691 l-30 -6 -3 -368 -2 -367 50 0 50 0 0 375 c0 416 6 381
-65 366z"/>
<path d="M13450 3494 l0 -164 50 0 50 0 0 155 c0 116 -3 157 -12 159 -7 3 -30
7 -50 10 l-38 5 0 -165z"/>
<path d="M6993 3633 l-33 -4 0 -360 0 -359 55 0 55 0 0 365 0 365 -22 -2 c-13
0 -38 -3 -55 -5z"/>
<path d="M13868 3592 c10 -7 13 -36 10 -115 -2 -65 1 -108 7 -110 6 -2 29 -2
53 1 l42 4 0 103 c0 57 -4 107 -10 110 -17 10 -116 18 -102 7z"/>
<path d="M6570 3571 l-35 -6 2 -334 c2 -184 4 -336 6 -338 2 -1 24 0 48 3 l44
6 0 339 c0 295 -2 339 -15 338 -8 -1 -31 -4 -50 -8z"/>
<path d="M14328 3478 c-2 -40 -2 -75 -1 -77 1 -2 23 0 48 3 l45 7 0 65 0 64
-29 0 c-16 0 -36 3 -44 6 -13 4 -16 -8 -19 -68z"/>
<path d="M6155 3513 c-11 -2 -30 -6 -42 -9 l-23 -4 0 -321 0 -321 23 6 c12 3
34 6 50 6 l27 0 0 325 c0 179 -3 324 -7 324 -5 -1 -17 -3 -28 -6z"/>
<path d="M14740 3461 l0 -41 44 0 c41 0 45 2 51 31 4 17 5 32 3 34 -1 2 -24 6
-50 10 l-48 7 0 -41z"/>
<path d="M14868 3473 c7 -3 16 -2 19 1 4 3 -2 6 -13 5 -11 0 -14 -3 -6 -6z"/>
<path d="M14953 3463 c9 -2 23 -2 30 0 6 3 -1 5 -18 5 -16 0 -22 -2 -12 -5z"/>
<path d="M5703 3453 l-43 -4 0 -305 0 -305 48 3 47 3 5 308 c3 202 2 306 -5
305 -5 -1 -29 -3 -52 -5z"/>
<path d="M15028 3453 c6 -2 18 -2 25 0 6 3 1 5 -13 5 -14 0 -19 -2 -12 -5z"/>
<path d="M15108 3443 c12 -2 30 -2 40 0 9 3 -1 5 -23 4 -22 0 -30 -2 -17 -4z"/>
<path d="M15188 3433 c7 -3 16 -2 19 1 4 3 -2 6 -13 5 -11 0 -14 -3 -6 -6z"/>
<path d="M5252 3383 l-33 -4 1 -285 2 -284 38 0 c74 0 70 -14 70 244 0 273 -6
337 -29 334 -9 0 -31 -3 -49 -5z"/>
<path d="M15658 3373 c6 -2 18 -2 25 0 6 3 1 5 -13 5 -14 0 -19 -2 -12 -5z"/>
<path d="M5088 3353 c7 -3 16 -2 19 1 4 3 -2 6 -13 5 -11 0 -14 -3 -6 -6z"/>
<path d="M4813 3323 c-10 -3 -13 -68 -13 -274 l0 -269 50 0 50 0 1 250 c1 138
2 257 2 265 0 8 -1 20 -2 25 -1 10 -66 13 -88 3z"/>
<path d="M4393 3263 l-33 -4 0 -255 0 -254 28 0 c15 0 37 3 50 6 l22 6 0 254
c0 282 7 256 -67 247z"/>
<path d="M13628 3223 c12 -2 30 -2 40 0 9 3 -1 5 -23 4 -22 0 -30 -2 -17 -4z"/>
<path d="M13468 3213 c17 -2 47 -2 65 0 17 2 3 4 -33 4 -36 0 -50 -2 -32 -4z"/>
<path d="M3970 3201 l-35 -6 -3 -232 -2 -233 55 0 55 0 0 240 c0 267 7 245
-70 231z"/>
<path d="M13353 3203 c9 -2 25 -2 35 0 9 3 1 5 -18 5 -19 0 -27 -2 -17 -5z"/>
<path d="M13043 3183 c9 -2 23 -2 30 0 6 3 -1 5 -18 5 -16 0 -22 -2 -12 -5z"/>
<path d="M3538 3143 l-38 -4 0 -220 c0 -244 -6 -226 73 -213 l37 7 0 218 c0
203 -1 219 -17 217 -10 -1 -35 -3 -55 -5z"/>
<path d="M12208 3133 c7 -3 16 -2 19 1 4 3 -2 6 -13 5 -11 0 -14 -3 -6 -6z"/>
<path d="M11948 3113 c12 -2 30 -2 40 0 9 3 -1 5 -23 4 -22 0 -30 -2 -17 -4z"/>
<path d="M3103 3083 l-33 -4 0 -205 0 -206 43 3 c71 4 67 -9 67 215 l0 204
-22 -2 c-13 0 -38 -3 -55 -5z"/>
<path d="M11448 3083 c6 -2 18 -2 25 0 6 3 1 5 -13 5 -14 0 -19 -2 -12 -5z"/>
<path d="M10678 3033 c12 -2 32 -2 45 0 12 2 2 4 -23 4 -25 0 -35 -2 -22 -4z"/>
<path d="M2673 3023 l-33 -4 0 -185 0 -184 49 0 c27 0 51 4 53 10 2 5 2 91 0
190 -3 199 4 182 -69 173z"/>
<path d="M10543 3023 c15 -2 37 -2 50 0 12 2 0 4 -28 4 -27 0 -38 -2 -22 -4z"/>
<path d="M10438 3013 c7 -3 16 -2 19 1 4 3 -2 6 -13 5 -11 0 -14 -3 -6 -6z"/>
<path d="M2238 2963 l-28 -4 0 -170 0 -169 50 0 50 0 0 175 0 175 -22 -1 c-13
-1 -35 -4 -50 -6z"/>
<path d="M1850 2751 c0 -138 2 -161 15 -161 13 0 15 22 13 157 -2 114 -6 157
-15 161 -10 3 -13 -33 -13 -157z"/>
<path d="M8188 2873 c12 -2 32 -2 45 0 12 2 2 4 -23 4 -25 0 -35 -2 -22 -4z"/>
<path d="M8093 2863 c9 -2 25 -2 35 0 9 3 1 5 -18 5 -19 0 -27 -2 -17 -5z"/>
<path d="M6693 2773 c9 -2 25 -2 35 0 9 3 1 5 -18 5 -19 0 -27 -2 -17 -5z"/>
<path d="M5898 2723 c12 -2 32 -2 45 0 12 2 2 4 -23 4 -25 0 -35 -2 -22 -4z"/>
<path d="M4548 2633 c6 -2 18 -2 25 0 6 3 1 5 -13 5 -14 0 -19 -2 -12 -5z"/>
<path d="M3788 2583 c6 -2 18 -2 25 0 6 3 1 5 -13 5 -14 0 -19 -2 -12 -5z"/>
</g>
</svg>
