<?xml version="1.0" standalone="no"?>
<!DOCTYPE svg PUBLIC "-//W3C//DTD SVG 20010904//EN"
 "http://www.w3.org/TR/2001/REC-SVG-20010904/DTD/svg10.dtd">
<svg version="1.0" xmlns="http://www.w3.org/2000/svg"
 width="2048.000000pt" height="1024.000000pt" viewBox="0 0 2048.000000 1024.000000"
 preserveAspectRatio="xMidYMid meet">

<g transform="translate(0.000000,1024.000000) scale(0.100000,-0.100000)"
fill="#38d8d2" stroke="none">
<path d="M11828 6393 c39 -2 105 -2 145 0 39 1 7 3 -73 3 -80 0 -112 -2 -72
-3z"/>
<path d="M12168 6393 c6 -2 18 -2 25 0 6 3 1 5 -13 5 -14 0 -19 -2 -12 -5z"/>
<path d="M12328 6393 c6 -2 18 -2 25 0 6 3 1 5 -13 5 -14 0 -19 -2 -12 -5z"/>
<path d="M12448 6393 c6 -2 18 -2 25 0 6 3 1 5 -13 5 -14 0 -19 -2 -12 -5z"/>
<path d="M12568 6393 c6 -2 18 -2 25 0 6 3 1 5 -13 5 -14 0 -19 -2 -12 -5z"/>
<path d="M12688 6393 c28 -2 76 -2 105 0 28 2 5 3 -53 3 -58 0 -81 -1 -52 -3z"/>
<path d="M12883 6393 c9 -2 23 -2 30 0 6 3 -1 5 -18 5 -16 0 -22 -2 -12 -5z"/>
<path d="M13048 6393 c28 -2 76 -2 105 0 28 2 5 3 -53 3 -58 0 -81 -1 -52 -3z"/>
<path d="M13288 6393 c6 -2 18 -2 25 0 6 3 1 5 -13 5 -14 0 -19 -2 -12 -5z"/>
<path d="M13698 6393 c12 -2 32 -2 45 0 12 2 2 4 -23 4 -25 0 -35 -2 -22 -4z"/>
<path d="M13868 6393 c17 -2 47 -2 65 0 17 2 3 4 -33 4 -36 0 -50 -2 -32 -4z"/>
<path d="M15378 6393 c12 -2 32 -2 45 0 12 2 2 4 -23 4 -25 0 -35 -2 -22 -4z"/>
<path d="M15488 6393 c23 -2 59 -2 80 0 20 2 1 4 -43 4 -44 0 -61 -2 -37 -4z"/>
<path d="M15763 6393 c76 -2 198 -2 270 0 73 1 11 3 -138 3 -148 0 -208 -2
-132 -3z"/>
<path d="M16288 6393 c6 -2 18 -2 25 0 6 3 1 5 -13 5 -14 0 -19 -2 -12 -5z"/>
<path d="M16488 6393 c6 -2 18 -2 25 0 6 3 1 5 -13 5 -14 0 -19 -2 -12 -5z"/>
<path d="M4888 6383 c6 -2 18 -2 25 0 6 3 1 5 -13 5 -14 0 -19 -2 -12 -5z"/>
<path d="M5348 6383 c18 -2 45 -2 60 0 15 2 0 4 -33 4 -33 0 -45 -2 -27 -4z"/>
<path d="M5498 6383 c34 -2 90 -2 125 0 34 2 6 3 -63 3 -69 0 -97 -1 -62 -3z"/>
<path d="M5748 6383 c17 -2 47 -2 65 0 17 2 3 4 -33 4 -36 0 -50 -2 -32 -4z"/>
<path d="M6013 6383 c15 -2 37 -2 50 0 12 2 0 4 -28 4 -27 0 -38 -2 -22 -4z"/>
<path d="M6438 6383 c23 -2 61 -2 85 0 23 2 4 4 -43 4 -47 0 -66 -2 -42 -4z"/>
<path d="M7968 6383 c94 -2 250 -2 345 0 94 1 17 3 -173 3 -190 0 -267 -2
-172 -3z"/>
<path d="M9198 6383 c45 -2 119 -2 165 0 45 1 8 3 -83 3 -91 0 -128 -2 -82 -3z"/>
<path d="M11168 6383 c6 -2 18 -2 25 0 6 3 1 5 -13 5 -14 0 -19 -2 -12 -5z"/>
<path d="M11426 6314 c-3 -9 -6 -324 -6 -700 0 -376 -3 -684 -6 -684 -7 0
-534 511 -869 842 -116 114 -214 208 -218 208 -4 0 -7 -364 -7 -810 l0 -810
135 0 135 0 0 485 c0 314 3 485 10 485 5 0 194 -184 420 -410 l410 -410 0
-295 0 -295 928 3 927 2 200 71 c268 96 375 138 600 234 105 45 269 115 365
155 96 40 207 86 245 102 39 17 134 51 212 77 79 26 145 51 148 56 5 8 -681
696 -711 713 -12 7 -14 -61 -14 -467 0 -261 -4 -477 -8 -480 -5 -3 -64 -2
-133 1 l-125 6 -1 779 c0 643 2 780 13 785 8 3 208 -190 509 -491 273 -273
498 -496 501 -496 2 0 5 215 6 478 l3 477 125 0 125 0 3 -619 2 -618 33 6 c93
19 322 47 471 57 179 12 406 3 603 -25 51 -7 95 -11 98 -8 3 3 5 367 5 809 l0
803 -2564 0 c-2329 0 -2564 -1 -2570 -16z m995 -389 c130 -27 294 -105 294
-140 0 -29 -97 -194 -114 -195 -8 0 -26 11 -40 24 -72 68 -236 121 -348 113
-184 -14 -285 -125 -223 -246 31 -62 93 -106 275 -198 336 -170 423 -244 461
-393 41 -161 -33 -330 -189 -431 -157 -102 -407 -132 -607 -73 -70 20 -174 75
-224 118 l-40 34 58 96 c31 53 59 96 63 96 3 0 33 -21 66 -46 100 -75 187
-104 313 -104 138 0 235 44 274 124 38 80 20 149 -59 216 -25 22 -122 79 -216
127 -221 114 -335 190 -384 256 -140 189 -92 423 114 549 146 90 323 114 526
73z m1454 -125 l0 -105 -335 -5 -335 -5 0 -210 0 -210 280 -5 280 -5 3 -85 c2
-47 0 -95 -3 -107 l-5 -23 -275 0 -275 0 0 -210 0 -210 333 -2 332 -3 0 -110
0 -110 -460 -5 c-253 -3 -466 -3 -472 -1 -10 2 -13 164 -13 762 l0 759 473 -2
472 -3 0 -105z"/>
<path d="M6654 5980 c-178 -22 -377 -116 -500 -235 -176 -172 -253 -374 -241
-636 7 -146 23 -212 82 -334 94 -196 307 -361 550 -426 116 -31 337 -31 449
-1 375 103 616 415 619 802 1 145 -19 232 -83 365 -57 116 -115 193 -199 264
-188 156 -438 230 -677 201z m222 -261 c161 -29 312 -144 384 -293 119 -248
72 -526 -122 -713 -103 -98 -221 -146 -363 -147 -267 -1 -483 167 -550 429
-21 82 -21 234 0 315 32 122 101 231 190 300 133 101 293 139 461 109z"/>
<path d="M5175 5964 c-165 -36 -291 -127 -352 -252 -36 -74 -37 -81 -37 -182
0 -88 4 -113 23 -155 59 -130 135 -193 376 -312 160 -78 221 -118 263 -169 54
-65 64 -153 27 -225 -76 -145 -366 -145 -582 1 -25 17 -47 29 -49 27 -9 -9
-94 -198 -94 -210 0 -30 173 -115 295 -143 106 -25 293 -25 385 0 162 44 274
129 333 253 30 64 32 74 32 183 0 104 -3 121 -27 172 -32 68 -102 146 -178
198 -30 20 -132 76 -226 123 -232 118 -296 176 -296 272 0 70 39 127 115 167
36 20 57 23 142 22 88 0 109 -4 180 -32 44 -17 100 -45 125 -62 25 -16 48 -30
52 -30 4 0 32 49 62 109 51 101 54 110 38 123 -36 32 -111 68 -202 99 -82 27
-112 32 -215 35 -83 3 -142 -1 -190 -12z"/>
<path d="M7810 5150 l0 -801 138 3 137 3 5 310 5 310 49 3 c92 6 70 28 314
-312 114 -159 210 -261 282 -300 66 -36 154 -44 240 -22 89 23 110 38 110 80
0 53 -9 66 -44 66 -53 0 -131 46 -184 108 -65 77 -322 419 -322 430 0 4 15 15
33 24 60 29 155 106 187 152 89 130 103 337 32 486 -57 120 -206 226 -352 250
-36 5 -192 10 -347 10 l-283 0 0 -800z m583 555 c157 -56 206 -279 91 -413
-63 -74 -147 -102 -304 -102 l-90 0 0 263 c0 145 3 267 8 271 13 14 244 -1
295 -19z"/>
<path d="M9585 5940 l-420 -5 0 -47 c1 -27 2 -381 3 -788 l2 -740 478 2 477 3
3 95 c2 52 0 106 -3 119 l-6 24 -332 -4 -332 -4 -3 223 -2 222 47 1 c27 1 154
4 283 8 l235 6 0 115 0 115 -282 3 c-217 2 -283 5 -283 15 0 6 -2 95 -4 197
-3 122 -1 189 6 197 8 10 84 13 340 13 l329 0 -3 118 -3 117 -55 0 c-30 1
-244 -2 -475 -5z"/>
<path d="M15815 4700 c-107 -8 -238 -24 -375 -44 l-85 -12 -3 -107 c-1 -59 -1
-107 0 -107 2 0 57 11 123 24 293 59 596 59 1013 1 18 -2 36 -7 41 -9 15 -10
21 23 21 119 0 108 17 96 -165 120 -143 19 -431 27 -570 15z"/>
<path d="M16610 4267 c0 -308 -3 -387 -13 -396 -10 -8 -650 -9 -2328 -6 -1273
2 -4127 7 -6344 10 -2216 4 -4032 9 -4035 12 -3 2 -5 77 -5 166 l0 162 -152 3
-153 3 0 -345 0 -344 6663 1 6662 2 3 523 2 522 -25 10 c-39 15 -174 48 -227
55 l-48 7 0 -385z"/>
<path d="M14925 4515 c-87 -30 -161 -55 -163 -55 -2 0 -1 -3 1 -7 3 -5 -7 -9
-22 -10 -15 -1 -56 -15 -91 -31 -36 -16 -84 -37 -107 -47 -43 -19 -41 -41 2
-25 24 9 55 -17 55 -45 0 -8 5 -15 11 -15 7 0 10 12 7 30 -3 17 1 35 7 40 9 7
12 -5 14 -45 1 -30 4 -63 6 -75 2 -13 -1 -20 -11 -20 -17 0 -19 16 -1 24 6 3
3 5 -8 3 -11 -1 -20 -9 -20 -17 0 -21 -21 -32 -45 -25 -22 7 -28 -10 -7 -18 7
-3 6 -6 -5 -6 -16 -1 -120 -50 -106 -51 12 0 159 57 271 105 144 62 306 119
425 150 53 14 104 28 114 31 12 4 -4 24 -65 84 -45 44 -86 80 -92 80 -6 0 -82
-25 -170 -55z m197 -10 c4 -17 1 -25 -8 -25 -14 0 -19 31 -7 43 9 10 10 9 15
-18z m-402 -79 c0 -3 -4 -8 -10 -11 -5 -3 -10 -1 -10 4 0 6 5 11 10 11 6 0 10
-2 10 -4z m-70 -30 c0 -3 -4 -8 -10 -11 -5 -3 -10 -1 -10 4 0 6 5 11 10 11 6
0 10 -2 10 -4z m-30 -26 c0 -5 -7 -10 -15 -10 -8 0 -15 5 -15 10 0 6 7 10 15
10 8 0 15 -4 15 -10z"/>
<path d="M15948 4433 c12 -2 30 -2 40 0 9 3 -1 5 -23 4 -22 0 -30 -2 -17 -4z"/>
<path d="M15717 4419 c8 -8 16 -8 30 0 16 9 14 10 -11 11 -22 0 -27 -3 -19
-11z"/>
<path d="M15778 4423 c7 -3 16 -2 19 1 4 3 -2 6 -13 5 -11 0 -14 -3 -6 -6z"/>
<path d="M15848 4423 c7 -3 16 -2 19 1 4 3 -2 6 -13 5 -11 0 -14 -3 -6 -6z"/>
<path d="M16083 4424 c9 -10 117 -11 117 -2 0 4 -28 8 -62 8 -34 0 -58 -3 -55
-6z"/>
<path d="M15633 4413 c9 -2 23 -2 30 0 6 3 -1 5 -18 5 -16 0 -22 -2 -12 -5z"/>
<path d="M16255 4409 c22 -4 49 -8 60 -8 17 -1 17 1 5 9 -8 5 -35 9 -60 9
l-45 -1 40 -9z"/>
<path d="M16440 4380 c0 -5 5 -10 10 -10 6 0 10 5 10 10 0 6 -4 10 -10 10 -5
0 -10 -4 -10 -10z"/>
<path d="M16497 4379 c7 -7 15 -10 18 -7 3 3 -2 9 -12 12 -14 6 -15 5 -6 -5z"/>
<path d="M14445 4320 c-16 -7 -17 -9 -3 -9 9 -1 20 4 23 9 7 11 7 11 -20 0z"/>
<path d="M14365 4290 c-22 -10 -35 -19 -29 -19 14 -1 84 27 84 34 0 8 -13 5
-55 -15z"/>
<path d="M3613 4293 c15 -2 37 -2 50 0 12 2 0 4 -28 4 -27 0 -38 -2 -22 -4z"/>
<path d="M16145 4271 c-9 -16 9 -20 23 -5 10 12 10 14 -2 14 -8 0 -17 -4 -21
-9z"/>
<path d="M16480 4267 c0 -9 -12 -11 -40 -9 -38 4 -56 -10 -27 -21 6 -3 -15 -3
-48 -1 l-60 4 70 -14 c39 -8 94 -18 123 -22 57 -7 61 -1 41 56 -9 25 -9 25 -5
-3 2 -15 -1 -30 -5 -33 -5 -3 -9 9 -9 25 0 24 -4 31 -20 31 -11 0 -20 -6 -20
-13z m25 -26 c-3 -6 -16 -11 -28 -11 -21 0 -21 1 3 13 27 15 36 14 25 -2z"/>
<path d="M14295 4260 c-16 -7 -17 -9 -3 -9 9 -1 20 4 23 9 7 11 7 11 -20 0z"/>
<path d="M15873 4263 c9 -2 25 -2 35 0 9 3 1 5 -18 5 -19 0 -27 -2 -17 -5z"/>
<path d="M16248 4243 c6 -2 18 -2 25 0 6 3 1 5 -13 5 -14 0 -19 -2 -12 -5z"/>
<path d="M15495 4220 c-19 -8 -19 -9 3 -9 12 -1 22 4 22 9 0 6 -1 10 -2 9 -2
0 -12 -4 -23 -9z"/>
<path d="M15543 4223 c9 -2 23 -2 30 0 6 3 -1 5 -18 5 -16 0 -22 -2 -12 -5z"/>
<path d="M14160 4200 c-9 -6 -10 -10 -3 -10 6 0 15 5 18 10 8 12 4 12 -15 0z"/>
<path d="M14104 4176 c-19 -15 -19 -15 1 -11 11 2 23 4 28 4 10 1 9 21 -1 21
-5 0 -17 -6 -28 -14z"/>
<path d="M14450 4170 c0 -5 5 -10 10 -10 6 0 10 5 10 10 0 6 -4 10 -10 10 -5
0 -10 -4 -10 -10z"/>
<path d="M14060 4160 c-13 -8 -12 -10 3 -10 9 0 17 5 17 10 0 12 -1 12 -20 0z"/>
<path d="M14005 4134 l-30 -13 30 6 c32 6 41 11 34 17 -2 2 -17 -2 -34 -10z"/>
<path d="M13890 4090 c-8 -5 -12 -12 -9 -15 4 -3 12 1 19 10 14 17 11 19 -10
5z"/>
<path d="M13850 4070 c0 -5 5 -10 10 -10 6 0 10 5 10 10 0 6 -4 10 -10 10 -5
0 -10 -4 -10 -10z"/>
<path d="M14260 4066 c0 -9 -16 -20 -42 -27 -24 -6 -51 -15 -60 -20 -10 -5
-30 -9 -46 -9 -15 0 -38 -7 -50 -16 -18 -13 -26 -13 -38 -3 -8 6 -17 9 -21 5
-3 -3 -1 -6 6 -6 7 0 10 -4 7 -8 -3 -5 -15 -8 -28 -7 -13 1 -26 -2 -29 -8 -5
-7 -154 -19 -219 -17 -8 0 -28 0 -45 0 -36 0 -60 14 -51 29 10 16 36 14 42 -4
10 -24 27 -17 22 9 -4 17 1 27 16 35 24 13 39 18 -139 -43 l-119 -41 232 -3
231 -2 162 54 c158 53 203 76 180 90 -6 4 -11 0 -11 -8z"/>
<path d="M13798 4057 c-17 -8 -25 -16 -20 -24 5 -8 14 -4 31 13 26 27 26 28
-11 11z"/>
<path d="M14120 4030 c0 -5 7 -10 15 -10 8 0 15 5 15 10 0 6 -7 10 -15 10 -8
0 -15 -4 -15 -10z"/>
<path d="M14153 3933 c9 -2 23 -2 30 0 6 3 -1 5 -18 5 -16 0 -22 -2 -12 -5z"/>
</g>
</svg>
